<svg width="24" height="24" viewBox="0 0 24 24" fill="none" xmlns="http://www.w3.org/2000/svg">
<path d="M18.1892 3.89475H17.9549C15.4185 3.89475 13.7644 3.26066 11.1729 1.26192C10.911 1.06893 10.6078 0.972443 10.3045 0.972443C10.0013 0.972443 9.71178 1.06893 9.44987 1.26192C6.8584 3.26066 5.19048 3.89475 2.66792 3.89475H2.43358C1.63409 3.89475 1 4.54262 1 5.3559V11.9311C1 15.1704 2.55764 18.0927 5.5213 20.3672C7.64411 22.0075 9.79449 22.7519 9.87719 22.7932C10.0288 22.8484 10.1805 22.8759 10.3321 22.8759C10.4975 22.8759 10.6491 22.8484 10.8008 22.7932C10.8559 22.7795 11.9449 22.3797 13.3371 21.5802C13.1855 21.4699 13.02 21.3597 12.8546 21.2218C10.7318 19.5815 9.6015 17.4862 9.6015 15.1429V10.4286C9.6015 9.83585 10.0702 9.36718 10.6353 9.36718H10.8008C12.6203 9.36718 13.8195 8.89851 15.6805 7.47871C15.8596 7.34086 16.0802 7.27194 16.3008 7.27194C16.5213 7.27194 16.7281 7.34086 16.9211 7.47871C17.9549 8.26442 18.782 8.76066 19.6366 9.03635V5.34212C19.6366 4.52883 18.9887 3.88096 18.203 3.88096L18.1892 3.89475Z" fill="url(#paint0_radial_213_73427)"/>
<path d="M21.9525 9.3811H21.787C20.9738 9.3811 20.2983 9.28461 19.6229 9.06406V11.9312C19.6229 15.1706 18.0652 18.0929 15.1154 20.3673C14.4951 20.8498 13.8885 21.2495 13.3234 21.5803C14.6743 22.5177 15.9149 22.945 15.97 22.9726C16.0665 23.0001 16.1905 23.0277 16.3008 23.0277C16.4111 23.0277 16.5214 23.0001 16.6179 22.9726C16.6868 22.945 18.2169 22.4074 19.7469 21.222C21.8697 19.5816 23.0001 17.4864 23.0001 15.143V10.4287C23.0001 9.83599 22.5314 9.36731 21.9662 9.36731L21.9525 9.3811Z" fill="url(#paint1_radial_213_73427)"/>
<g filter="url(#filter0_i_213_73427)">
<path d="M19.6229 9.06401V11.9312C19.6229 15.1705 18.0652 18.0928 15.1154 20.3673C14.4951 20.8497 13.8885 21.2495 13.3234 21.5803C13.1717 21.47 13.0063 21.3598 12.8409 21.2219C10.7181 19.5816 9.58778 17.4863 9.58778 15.143V10.4287C9.58778 9.83594 10.0565 9.36727 10.6216 9.36727H10.787C12.6066 9.36727 13.8058 8.8986 15.6667 7.4788C15.8459 7.34096 16.0665 7.27203 16.287 7.27203C16.5076 7.27203 16.7144 7.34096 16.9073 7.4788C17.9412 8.26452 18.7682 8.76076 19.6229 9.03645V9.06401Z" fill="#0026AC"/>
</g>
<defs>
<filter id="filter0_i_213_73427" x="9.58778" y="7.27203" width="10.7949" height="15.0681" filterUnits="userSpaceOnUse" color-interpolation-filters="sRGB">
<feFlood flood-opacity="0" result="BackgroundImageFix"/>
<feBlend mode="normal" in="SourceGraphic" in2="BackgroundImageFix" result="shape"/>
<feColorMatrix in="SourceAlpha" type="matrix" values="0 0 0 0 0 0 0 0 0 0 0 0 0 0 0 0 0 0 127 0" result="hardAlpha"/>
<feOffset dx="0.759867" dy="0.759867"/>
<feGaussianBlur stdDeviation="0.759867"/>
<feComposite in2="hardAlpha" operator="arithmetic" k2="-1" k3="1"/>
<feColorMatrix type="matrix" values="0 0 0 0 0 0 0 0 0 0 0 0 0 0 0 0 0 0 0.1 0"/>
<feBlend mode="multiply" in2="shape" result="effect1_innerShadow_213_73427"/>
</filter>
<radialGradient id="paint0_radial_213_73427" cx="0" cy="0" r="1" gradientUnits="userSpaceOnUse" gradientTransform="translate(2.4678 -15.644) rotate(65.6179) scale(151.203 623.331)">
<stop stop-color="#715BF9"/>
<stop offset="0.591893" stop-color="#1378EF"/>
<stop offset="1" stop-color="#38ABD7"/>
</radialGradient>
<radialGradient id="paint1_radial_213_73427" cx="0" cy="0" r="1" gradientUnits="userSpaceOnUse" gradientTransform="translate(14.0855 -1.52908) rotate(69.7383) scale(93.5872 333.356)">
<stop stop-color="#EB00FF"/>
<stop offset="0.591893" stop-color="#9B6EF9"/>
<stop offset="1" stop-color="#BEBDF5"/>
</radialGradient>
</defs>
</svg>
