<svg width="1752" height="373" viewBox="0 0 1752 373" xmlns="http://www.w3.org/2000/svg"><title>guinsoo-lab</title><defs><linearGradient x1="66.647%" y1="21.618%" x2="21.623%" y2="100%" id="a"><stop stop-color="#32C5FF" offset="0%"/><stop stop-color="#20CEE0" offset="51.258%"/><stop stop-color="#2700F7" offset="100%"/></linearGradient></defs><g fill="none" fill-rule="evenodd"><g fill-rule="nonzero"><path d="M183.73 109.828V62.167c18.374 0 32.424-13.47 32.424-31.084C216.154 13.47 202.104 0 183.73 0H97.269C79.977 0 64.846 13.47 64.846 31.083c0 17.614 15.13 31.084 32.423 31.084v47.66C41.07 127.443 0 178.212 0 238.307 0 312.906 62.685 373 140.5 373S281 312.906 281 238.306c0-60.095-41.07-110.864-97.27-128.478zM86.463 31.083c0-5.18 5.403-10.36 10.807-10.36h86.462c5.404 0 10.807 5.18 10.807 10.36s-5.403 10.361-10.807 10.361H97.269c-5.404 0-10.807-5.18-10.807-10.36zm17.292 98.43l15.13-4.144V62.167h43.231v63.202l15.131 4.145c22.696 7.253 41.07 19.686 55.12 36.264H48.634c14.05-16.578 33.503-29.011 55.119-36.264zM140.5 352.279c-65.927 0-118.885-50.77-118.885-113.972 0-18.65 4.323-36.264 12.97-51.806h211.83c8.647 15.542 12.97 33.156 12.97 51.806 0 63.202-52.958 113.972-118.885 113.972z" fill="url(#a)" transform="translate(16)"/><path d="M239.157 260.807c-5.401-2.106-11.882 0-14.042 5.266-8.642 16.852-22.684 29.49-38.886 37.916-5.401 2.106-7.561 8.426-5.401 13.692 2.16 4.213 5.4 6.319 9.721 6.319 1.08 0 3.24 0 4.321-1.053 20.523-10.532 37.806-27.384 48.607-47.395 3.241-5.266 1.08-11.585-4.32-14.745z" fill="#1296DB"/></g><text font-family="Orbitron-Regular_Bold, Orbitron" font-size="200" font-weight="bold"><tspan x="356.381" y="304" fill="#000" fill-opacity=".5">Guinsoo</tspan> <tspan x="1253.476" y="304" font-family="PingFangSC-Semibold, PingFang SC" font-weight="500" fill="#090909" fill-opacity=".641"> </tspan> <tspan x="1320.076" y="304" font-family="Monoton-Regular, Monoton" font-weight="normal" fill="#000">Lab</tspan></text></g></svg>