<?xml version="1.0" encoding="UTF-8"?>
<svg width="459px" height="459px" viewBox="0 0 459 459" version="1.1" xmlns="http://www.w3.org/2000/svg" xmlns:xlink="http://www.w3.org/1999/xlink">
    <title>GuinsooLab</title>
    <defs>
        <linearGradient x1="76.4690844%" y1="0%" x2="23.5309156%" y2="100%" id="linearGradient-1">
            <stop stop-color="#32C5FF" offset="0%"></stop>
            <stop stop-color="#B620E0" offset="51.2583893%"></stop>
            <stop stop-color="#F7B500" offset="100%"></stop>
        </linearGradient>
    </defs>
    <g id="GuinsooLab" stroke="none" stroke-width="1" fill="none" fill-rule="evenodd">
        <g id="Group" transform="translate(19.000000, 84.000000)" fill-rule="nonzero">
            <path d="M137.961538,85.3888889 L137.961538,48.3333333 C151.757692,48.3333333 162.307692,37.8611111 162.307692,24.1666667 C162.307692,10.4722222 151.757692,0 137.961538,0 L73.0384615,0 C60.0538462,0 48.6923077,10.4722222 48.6923077,24.1666667 C48.6923077,37.8611111 60.0538462,48.3333333 73.0384615,48.3333333 L73.0384615,85.3888889 C30.8384615,99.0833333 0,138.555556 0,185.277778 C0,243.277778 47.0692308,290 105.5,290 C163.930769,290 211,243.277778 211,185.277778 C211,138.555556 180.161538,99.0833333 137.961538,85.3888889 Z M64.9230769,24.1666667 C64.9230769,20.1388889 68.9807692,16.1111111 73.0384615,16.1111111 L137.961538,16.1111111 C142.019231,16.1111111 146.076923,20.1388889 146.076923,24.1666667 C146.076923,28.1944444 142.019231,32.2222222 137.961538,32.2222222 L73.0384615,32.2222222 C68.9807692,32.2222222 64.9230769,28.1944444 64.9230769,24.1666667 Z M77.9076923,100.694444 L89.2692308,97.4722222 L89.2692308,48.3333333 L121.730769,48.3333333 L121.730769,97.4722222 L133.092308,100.694444 C150.134615,106.333333 163.930769,116 174.480769,128.888889 L36.5192308,128.888889 C47.0692308,116 61.6769231,106.333333 77.9076923,100.694444 L77.9076923,100.694444 Z M105.5,273.888889 C55.9961538,273.888889 16.2307692,234.416667 16.2307692,185.277778 C16.2307692,170.777778 19.4769231,157.083333 25.9692308,145 L185.030769,145 C191.523077,157.083333 194.769231,170.777778 194.769231,185.277778 C194.769231,234.416667 155.003846,273.888889 105.5,273.888889 Z" id="Shape" fill="url(#linearGradient-1)"></path>
            <path d="M165.685021,201.618005 C161.696717,200.005272 156.910752,201.618005 155.31543,205.649838 C148.934143,218.551703 138.564551,228.228102 126.599637,234.679035 C122.611333,236.291768 121.016011,241.129968 122.611333,245.1618 C124.206655,248.387267 126.599637,250 129.790281,250 C130.587942,250 132.183264,250 132.980924,249.193633 C148.136482,241.129968 160.899056,228.228102 168.875665,212.907137 C171.268648,208.875304 169.673326,204.037105 165.685021,201.618005 L165.685021,201.618005 Z" id="Path" fill="#1296DB"></path>
        </g>
        <text id="GLab" font-family="PingFangSC-Semibold, PingFang SC" font-size="74" font-weight="500" fill="#5699F7">
            <tspan x="260.186" y="350">GLab</tspan>
        </text>
    </g>
</svg>