<?xml version="1.0" standalone="no"?><!DOCTYPE svg PUBLIC "-//W3C//DTD SVG 1.1//EN" "http://www.w3.org/Graphics/SVG/1.1/DTD/svg11.dtd"><svg class="icon" width="200px" height="200.00px" viewBox="0 0 1024 1024" version="1.1" xmlns="http://www.w3.org/2000/svg"><path fill="#000000" d="M484.171294 824.199529l211.365647 159.021177a30.117647 30.117647 0 0 0 47.104-16.022588l250.157177-896.421647a30.117647 30.117647 0 0 0-41.984-35.297883L50.055529 463.209412a30.117647 30.117647 0 0 0-5.12 51.32047l186.729412 139.14353a30.117647 30.117647 0 0 0 37.165177-0.90353l397.793882-328.884706-378.458353 472.064a30.117647 30.117647 0 0 0-6.324706 22.829177l15.600941 117.820235a30.117647 30.117647 0 0 0 53.910589 14.155294l90.654117-120.651294a30.117647 30.117647 0 0 1 42.164706-6.023529z" /></svg>