<?xml version="1.0" standalone="no"?><!DOCTYPE svg PUBLIC "-//W3C//DTD SVG 1.1//EN" "http://www.w3.org/Graphics/SVG/1.1/DTD/svg11.dtd"><svg t="1619528578742" class="icon" viewBox="0 0 1117 1024" version="1.1" xmlns="http://www.w3.org/2000/svg" p-id="2711" xmlns:xlink="http://www.w3.org/1999/xlink" width="218.1640625" height="200"><defs><style type="text/css"></style></defs><path d="M515.863273 1024H0v-420.398545c0-154.763636 30.440727-276.945455 91.322182-366.405819C152.203636 147.642182 256.558545 68.608 404.386909 0l111.476364 223.371636c-90.903273 45.149091-153.786182 90.158545-188.555637 134.888728-34.816 44.776727-54.178909 97.698909-58.135272 158.72h246.690909V1024zM1117.090909 1024H601.227636v-420.398545c0-154.763636 30.440727-276.945455 91.322182-366.405819 60.881455-89.553455 165.236364-168.587636 313.064727-237.195636L1117.090909 223.371636c-90.903273 45.149091-153.786182 90.158545-188.555636 134.888728-34.769455 44.776727-54.132364 97.698909-58.088728 158.72H1117.090909V1024z" p-id="2712" fill="#007afe"></path></svg>