<?xml version="1.0" encoding="UTF-8"?>
<svg width="250px" height="700px" viewBox="0 0 250 700" version="1.1" xmlns="http://www.w3.org/2000/svg" xmlns:xlink="http://www.w3.org/1999/xlink">
    <title>double-helix</title>
    <g id="Mage-Data-Center" stroke="none" stroke-width="1" fill="none" fill-rule="evenodd">
        <g id="double-helix" fill-rule="nonzero">
            <path d="M137.5,631.25 C138.75,618.75 150,608.75 162.5,608.75 C173.75,608.75 183.75,616.25 186.25,627.5 L230,625 C233.75,625 236.25,627.5 236.25,631.25 C236.25,635 233.75,637.5 230,637.5 L185,640 C182.5,651.25 172.5,658.75 161.25,658.75 C151.25,658.75 141.25,652.5 137.5,642.5 L25,650 C21.25,650 18.75,647.5 18.75,643.75 C18.75,640 21.25,637.5 25,637.5 L137.5,631.25 L137.5,631.25 Z M63.75,381.25 C66.25,370 76.25,362.5 87.5,362.5 C98.75,362.5 108.75,370 111.25,381.25 L225,381.25 C228.75,381.25 231.25,383.75 231.25,387.5 C231.25,391.25 228.75,393.75 225,393.75 L111.25,393.75 C108.75,405 98.75,412.5 87.5,412.5 C76.25,412.5 66.25,405 63.75,393.75 L31.25,393.75 C27.5,393.75 25,391.25 25,387.5 C25,383.75 27.5,381.25 31.25,381.25 L63.75,381.25 Z M151.25,337.5 C153.75,326.25 163.75,318.75 175,318.75 C185,318.75 193.75,325 197.5,333.75 L223.75,331.25 C227.5,331.25 230,333.75 230,337.5 C230,341.25 227.5,343.75 223.75,343.75 L200,346.25 C198.75,358.75 188.75,368.75 175,368.75 C163.75,368.75 153.75,361.25 151.25,350 L20,362.5 C16.25,362.5 13.75,360 13.75,356.25 C13.75,352.5 16.25,350 20,350 L151.25,337.5 Z M76.25,55 C78.75,45 88.75,37.5 100,37.5 C112.5,37.5 123.75,47.5 125,60 L225,68.75 C228.75,68.75 231.25,72.5 231.25,75 C231.25,77.5 227.5,81.25 225,81.25 L123.75,72.5 C120,81.25 111.25,87.5 100,87.5 C87.5,87.5 77.5,78.75 75,67.5 L18.75,62.5 C15,62.5 12.5,58.75 12.5,56.25 C12.5,52.5 16.25,50 18.75,50 L76.25,55 L76.25,55 Z M65,293.75 C61.25,295 58.75,293.75 57.5,290 C56.25,286.25 57.5,283.75 61.25,282.5 L186.25,238.75 C190,237.5 192.5,238.75 193.75,242.5 C195,246.25 193.75,248.75 190,250 L65,293.75 L65,293.75 Z M66.25,125 C62.5,123.75 61.25,120 62.5,116.25 C63.75,112.5 67.5,111.25 71.25,112.5 L190,162.5 C193.75,163.75 195,167.5 193.75,171.25 C192.5,175 188.75,176.25 185,175 L66.25,125 L66.25,125 Z M36.25,93.75 C32.5,92.5 31.25,90 31.25,86.25 C32.5,82.5 35,81.25 38.75,81.25 L213.75,118.75 C217.5,120 218.75,122.5 218.75,126.25 C217.5,130 215,131.25 211.25,131.25 L36.25,93.75 Z M12.5,31.25 C8.75,31.25 6.25,28.75 6.25,25 C6.25,21.25 8.75,18.75 12.5,18.75 L237.5,18.75 C241.25,18.75 243.75,21.25 243.75,25 C243.75,28.75 241.25,31.25 237.5,31.25 L12.5,31.25 L12.5,31.25 Z M196.25,543.75 L77.5,593.75 C73.75,595 71.25,593.75 68.75,590 C67.5,586.25 68.75,583.75 72.5,581.25 L191.25,531.25 C195,530 197.5,531.25 200,535 C201.25,538.75 198.75,542.5 196.25,543.75 L196.25,543.75 Z M42.5,612.5 L211.25,575 C215,573.75 217.5,576.25 218.75,580 C220,583.75 217.5,586.25 213.75,587.5 L45,625 C41.25,626.25 38.75,623.75 37.5,620 C37.5,616.25 38.75,613.75 42.5,612.5 Z M12.5,681.25 C8.75,681.25 6.25,678.75 6.25,675 C6.25,671.25 8.75,668.75 12.5,668.75 L237.5,668.75 C241.25,668.75 243.75,671.25 243.75,675 C243.75,678.75 241.25,681.25 237.5,681.25 L12.5,681.25 Z M32.5,331.25 C28.75,332.5 26.25,330 25,326.25 C23.75,322.5 26.25,320 30,318.75 L211.25,281.25 C215,280 217.5,282.5 218.75,286.25 C220,290 217.5,292.5 213.75,293.75 L32.5,331.25 Z M48.75,425 C45,425 42.5,421.25 43.75,417.5 C45,413.75 47.5,411.25 51.25,412.5 L213.75,431.25 C217.5,431.25 220,435 218.75,438.75 C218.75,442.5 215,445 211.25,443.75 L48.75,425 L48.75,425 Z M97.5,456.25 C93.75,455 92.5,451.25 93.75,448.75 C95,446.25 98.75,443.75 101.25,445 L188.75,476.25 C192.5,477.5 193.75,481.25 192.5,483.75 C191.25,486.25 187.5,488.75 185,487.5 L97.5,456.25 L97.5,456.25 Z" id="Shape" fill="#E4B667"></path>
            <path d="M157.5,188.75 C202.5,137.5 225,83.75 225,12.5 C225,5 230,0 237.5,0 C245,0 250,5 250,12.5 C250,91.25 223.75,151.25 173.75,207.5 C222.5,262.5 243.75,306.25 243.75,362.5 C243.75,416.25 223.75,458.75 181.25,507.5 C226.25,556.25 250,612.5 250,687.5 C250,695 245,700 237.5,700 C230,700 225,695 225,687.5 C225,620 205,570 163.75,525 C153.75,535 142.5,546.25 130,557.5 C126.25,561.25 90,593.75 80,602.5 C62.5,618.75 51.25,631.25 42.5,643.75 C30,660 25,673.75 25,687.5 C25,695 20,700 12.5,700 C5,700 0,695 0,687.5 C0,667.5 7.5,648.75 22.5,628.75 C32.5,615 45,601.25 63.75,585 C73.75,576.25 110,542.5 113.75,540 C126.25,528.75 136.25,518.75 146.25,508.75 C137.5,500 127.5,492.5 117.5,483.75 C107.5,476.25 47.5,433.75 33.75,421.25 C11.25,402.5 0,383.75 0,362.5 C0,347.5 6.25,332.5 17.5,318.75 C27.5,306.25 40,293.75 61.25,276.25 C66.25,271.25 86.25,256.25 88.75,253.75 C100,245 108.75,237.5 117.5,230 C126.25,222.5 133.75,215 141.25,207.5 L113.75,180 C112.5,178.75 87.5,153.75 80,147.5 C67.5,135 57.5,125 48.75,115 C16.25,77.5 0,46.25 0,12.5 C0,5 5,0 12.5,0 C20,0 25,5 25,12.5 C25,38.75 38.75,65 67.5,97.5 C76.25,107.5 85,116.25 97.5,128.75 C105,136.25 128.75,160 131.25,161.25 C140,171.25 148.75,180 157.5,188.75 L157.5,188.75 Z M162.5,490 C200,446.25 218.75,408.75 218.75,362.5 C218.75,315 200,275 157.5,226.25 C150,233.75 142.5,241.25 133.75,248.75 C142.5,241.25 51.25,317.5 37.5,333.75 C28.75,343.75 25,353.75 25,362.5 C25,375 32.5,387.5 50,402.5 C62.5,413.75 121.25,455 132.5,463.75 C143.75,472.5 153.75,480 162.5,490 Z" id="Shape" fill="#050D42"></path>
        </g>
    </g>
</svg>