<?xml version="1.0" encoding="UTF-8"?>
<svg width="812px" height="594px" viewBox="0 0 812 594" version="1.1" xmlns="http://www.w3.org/2000/svg" xmlns:xlink="http://www.w3.org/1999/xlink">
    <title>duskbladesql-ground</title>
    <defs>
        <linearGradient x1="99.9884063%" y1="100.047564%" x2="37.5273864%" y2="37.5862469%" id="linearGradient-1">
            <stop stop-color="#1C1C1C" offset="0%"></stop>
            <stop stop-color="#000000" stop-opacity="0" offset="100%"></stop>
        </linearGradient>
        <radialGradient cx="130.874969%" cy="77.765028%" fx="130.874969%" fy="77.765028%" r="138.708161%" id="radialGradient-2">
            <stop stop-color="#8AFF63" offset="0%"></stop>
            <stop stop-color="#000637" stop-opacity="0" offset="100%"></stop>
        </radialGradient>
        <linearGradient x1="99.9884214%" y1="100.047546%" x2="37.5273453%" y2="37.5862239%" id="linearGradient-3">
            <stop stop-color="#1C1C1C" offset="0%"></stop>
            <stop stop-color="#000000" stop-opacity="0" offset="100%"></stop>
        </linearGradient>
        <radialGradient cx="109.660032%" cy="109.719156%" fx="109.660032%" fy="109.719156%" r="173.253843%" id="radialGradient-4">
            <stop stop-color="#DF1616" stop-opacity="0.72" offset="0%"></stop>
            <stop stop-color="#5E14D8" stop-opacity="0.69" offset="40.4655942%"></stop>
            <stop stop-color="#000637" stop-opacity="0" offset="100%"></stop>
        </radialGradient>
        <linearGradient x1="49.2400774%" y1="-16.821309%" x2="50.88232%" y2="61.0821943%" id="linearGradient-5">
            <stop stop-color="#532A7D" offset="0%"></stop>
            <stop stop-color="#33197C" stop-opacity="0" offset="100%"></stop>
        </linearGradient>
        <linearGradient x1="52.1345297%" y1="-11.7025134%" x2="48.019229%" y2="51.8784981%" id="linearGradient-6">
            <stop stop-color="#9C65D5" offset="0%"></stop>
            <stop stop-color="#522AC2" stop-opacity="0" offset="100%"></stop>
        </linearGradient>
        <linearGradient x1="104.186022%" y1="21.8182538%" x2="-6.57200169%" y2="86.7332665%" id="linearGradient-7">
            <stop stop-color="#DAEBFF" stop-opacity="0.86" offset="0%"></stop>
            <stop stop-color="#A35BFF" stop-opacity="0.88" offset="50%"></stop>
            <stop stop-color="#3A07CD" stop-opacity="0.8" offset="98.7%"></stop>
        </linearGradient>
        <linearGradient x1="111.867874%" y1="-2.92440878%" x2="-13.7391786%" y2="97.1165013%" id="linearGradient-8">
            <stop stop-color="#D1DBFF" offset="0%"></stop>
            <stop stop-color="#A975FF" stop-opacity="0.45" offset="47.9%"></stop>
            <stop stop-color="#552ACE" stop-opacity="0.65" offset="98.7%"></stop>
        </linearGradient>
        <linearGradient x1="33.3335966%" y1="-2.62965733%" x2="64.9612615%" y2="100%" id="linearGradient-9">
            <stop stop-color="#A5B3FF" stop-opacity="0.84" offset="0%"></stop>
            <stop stop-color="#7622CA" stop-opacity="0.998" offset="59.6%"></stop>
            <stop stop-color="#2E2C9F" offset="100%"></stop>
        </linearGradient>
        <linearGradient x1="67.8050017%" y1="-5.00100462e-14%" x2="33.3333034%" y2="102.019989%" id="linearGradient-10">
            <stop stop-color="#863BE7" stop-opacity="0.76" offset="0%"></stop>
            <stop stop-color="#0F1B5C" stop-opacity="0.81" offset="100%"></stop>
        </linearGradient>
        <linearGradient x1="50.3685848%" y1="37.0690236%" x2="49.6838988%" y2="37.4112795%" id="linearGradient-11">
            <stop stop-color="#000000" offset="0%"></stop>
            <stop stop-color="#000000" stop-opacity="0" offset="100%"></stop>
        </linearGradient>
        <linearGradient x1="49.2401343%" y1="-16.8213591%" x2="50.8824639%" y2="61.0822072%" id="linearGradient-12">
            <stop stop-color="#020202" offset="0%"></stop>
            <stop stop-color="#000000" stop-opacity="0" offset="100%"></stop>
        </linearGradient>
        <linearGradient x1="52.1345118%" y1="-11.7026504%" x2="48.0192413%" y2="51.8783293%" id="linearGradient-13">
            <stop stop-color="#4B4B4B" offset="0%"></stop>
            <stop stop-color="#252525" stop-opacity="0" offset="100%"></stop>
        </linearGradient>
        <linearGradient x1="63.4067142%" y1="9.95330049%" x2="29.5744966%" y2="80.2793421%" id="linearGradient-14">
            <stop stop-color="#141414" offset="15.1%"></stop>
            <stop stop-color="#282828" offset="100%"></stop>
        </linearGradient>
        <linearGradient x1="36.5932858%" y1="9.95330049%" x2="70.4255034%" y2="80.2793421%" id="linearGradient-15">
            <stop stop-color="#0A0A0A" offset="0%"></stop>
            <stop stop-color="#000000" offset="94.8%"></stop>
        </linearGradient>
        <radialGradient cx="117.827164%" cy="-17.567331%" fx="117.827164%" fy="-17.567331%" r="163.116134%" id="radialGradient-16">
            <stop stop-color="#7D868C" offset="0%"></stop>
            <stop stop-color="#3C3C3C" offset="53.2%"></stop>
            <stop stop-color="#212121" offset="100%"></stop>
        </radialGradient>
        <linearGradient x1="90.2198101%" y1="10.0395434%" x2="2.61594864%" y2="81.7523974%" id="linearGradient-17">
            <stop stop-color="#4B4B4B" offset="0%"></stop>
            <stop stop-color="#252525" offset="100%"></stop>
        </linearGradient>
        <linearGradient x1="36.5939028%" y1="9.95330049%" x2="70.4255034%" y2="80.2793421%" id="linearGradient-18">
            <stop stop-color="#4B4B4B" offset="0%"></stop>
            <stop stop-color="#252525" offset="100%"></stop>
        </linearGradient>
        <linearGradient x1="63.4067142%" y1="9.95330049%" x2="29.5744966%" y2="80.2793421%" id="linearGradient-19">
            <stop stop-color="#090909" offset="0%"></stop>
            <stop stop-color="#000000" offset="100%"></stop>
        </linearGradient>
        <linearGradient x1="49.240062%" y1="-16.8204817%" x2="50.8823331%" y2="61.0824908%" id="linearGradient-20">
            <stop stop-color="#532A7D" offset="0%"></stop>
            <stop stop-color="#33197C" stop-opacity="0" offset="100%"></stop>
        </linearGradient>
        <linearGradient x1="52.1345561%" y1="-11.7022361%" x2="48.0191162%" y2="51.8785054%" id="linearGradient-21">
            <stop stop-color="#9C65D5" offset="0%"></stop>
            <stop stop-color="#522AC2" stop-opacity="0" offset="100%"></stop>
        </linearGradient>
        <linearGradient x1="104.184851%" y1="21.8185226%" x2="-6.57313449%" y2="86.7332459%" id="linearGradient-22">
            <stop stop-color="#E9F3FF" stop-opacity="0.92" offset="0%"></stop>
            <stop stop-color="#A35BFF" stop-opacity="0.88" offset="50%"></stop>
            <stop stop-color="#3A07CD" stop-opacity="0.8" offset="98.7%"></stop>
        </linearGradient>
        <linearGradient x1="111.866449%" y1="-2.92377306%" x2="-13.737985%" y2="97.1163887%" id="linearGradient-23">
            <stop stop-color="#D1DBFF" offset="0%"></stop>
            <stop stop-color="#A975FF" stop-opacity="0.45" offset="47.9%"></stop>
            <stop stop-color="#552ACE" stop-opacity="0.65" offset="98.7%"></stop>
        </linearGradient>
        <linearGradient x1="33.3336598%" y1="-2.63110921%" x2="64.9617813%" y2="100%" id="linearGradient-24">
            <stop stop-color="#A5B3FF" stop-opacity="0.99" offset="0%"></stop>
            <stop stop-color="#7622CA" stop-opacity="0.998" offset="59.6%"></stop>
            <stop stop-color="#2E2C9F" offset="100%"></stop>
        </linearGradient>
        <linearGradient x1="67.8051175%" y1="0%" x2="33.3336598%" y2="102.020635%" id="linearGradient-25">
            <stop stop-color="#863BE7" stop-opacity="0.76" offset="0%"></stop>
            <stop stop-color="#0F1B5C" stop-opacity="0.81" offset="100%"></stop>
        </linearGradient>
        <linearGradient x1="60.5726231%" y1="37.0689109%" x2="41.883922%" y2="46.4106931%" id="linearGradient-26">
            <stop stop-color="#000000" offset="0%"></stop>
            <stop stop-color="#000000" stop-opacity="0" offset="100%"></stop>
        </linearGradient>
        <linearGradient x1="50.4853309%" y1="37.0689655%" x2="49.5842898%" y2="37.519335%" id="linearGradient-27">
            <stop stop-color="#000000" offset="0%"></stop>
            <stop stop-color="#000000" stop-opacity="0" offset="100%"></stop>
        </linearGradient>
    </defs>
    <g id="duskbladesql-ground" stroke="none" stroke-width="1" fill="none" fill-rule="evenodd">
        <g id="duskbladesql" transform="translate(-115.000000, -129.000000)">
            <polygon id="Path" fill="#000000" fill-rule="nonzero" points="114.54289 129.069927 926.54289 129.069927 926.54289 723.069927 114.54289 723.069927"></polygon>
            <polygon id="Path" fill="url(#linearGradient-1)" fill-rule="nonzero" transform="translate(237.863890, 450.375427) rotate(45.000000) translate(-237.863890, -450.375427) " points="69.6687203 282.180258 406.059059 282.180258 406.059059 618.570597 69.6687203 618.570597"></polygon>
            <polygon id="Path" fill="url(#radialGradient-2)" fill-rule="nonzero" transform="translate(237.863890, 450.375427) rotate(45.000000) translate(-237.863890, -450.375427) " points="69.6687203 282.180258 406.059059 282.180258 406.059059 618.570597 69.6687203 618.570597"></polygon>
            <path d="M329.50489,531.715927 L443.09689,466.132927 M448.26789,469.015927 L437.92189,463.042927" id="Shape" stroke="#FFFFFF" stroke-width="0.628"></path>
            <circle id="Oval" stroke="#FFFFFF" stroke-width="0.627999277" transform="translate(324.408492, 526.009157) rotate(-45.000000) translate(-324.408492, -526.009157) " cx="324.408492" cy="526.009157" r="2.62799698"></circle>
            <polygon id="Path" fill="url(#linearGradient-3)" fill-rule="nonzero" transform="translate(591.776890, 287.029927) rotate(45.000000) translate(-591.776890, -287.029927) " points="388.816082 84.0691193 794.737698 84.0691193 794.737698 489.990735 388.816082 489.990735"></polygon>
            <polygon id="Path" fill-opacity="0.8" fill="url(#radialGradient-4)" fill-rule="nonzero" transform="translate(591.776890, 287.029927) rotate(45.000000) translate(-591.776890, -287.029927) " points="388.816082 84.0691193 794.737698 84.0691193 794.737698 489.990735 388.816082 489.990735"></polygon>
            <polygon id="Path" fill-opacity="0.7" fill="url(#linearGradient-5)" fill-rule="nonzero" points="657.37489 527.944927 722.81589 490.162927 722.81589 673.320927 657.37489 711.102927"></polygon>
            <polygon id="Path" fill-opacity="0.65" fill="url(#linearGradient-6)" fill-rule="nonzero" points="657.37589 527.944927 591.93489 490.162927 591.93489 730.927927 657.37589 768.709927"></polygon>
            <polygon id="Path" fill-opacity="0.38" fill="#5A00CC" fill-rule="nonzero" points="591.74989 414.311927 657.37389 376.423927 657.37389 452.200927 591.74989 490.088927"></polygon>
            <polygon id="Path" fill-opacity="0.38" fill="#56009A" fill-rule="nonzero" points="722.99689 414.311927 657.37289 376.423927 657.37289 452.200927 722.99689 490.088927"></polygon>
            <polygon id="Path" fill="url(#linearGradient-7)" fill-rule="nonzero" opacity="0.8" transform="translate(657.163890, 414.415927) rotate(-135.000000) translate(-657.163890, -414.415927) " points="619.275739 376.527776 695.052041 376.527776 695.052041 452.304078 619.275739 452.304078"></polygon>
            <polygon id="Path" fill-opacity="0.9" fill="url(#linearGradient-8)" fill-rule="nonzero" transform="translate(657.163890, 489.989927) rotate(-135.000000) translate(-657.163890, -489.989927) " points="619.275739 452.101776 695.052041 452.101776 695.052041 527.878078 619.275739 527.878078"></polygon>
            <polygon id="Path" fill-opacity="0.8" fill="url(#linearGradient-9)" fill-rule="nonzero" points="657.39889 452.200927 591.77489 414.311927 591.77489 490.088927 657.39889 527.976927 657.39889 452.200927"></polygon>
            <polygon id="Path" fill-opacity="0.9" fill="url(#linearGradient-10)" fill-rule="nonzero" points="657.37289 452.181927 722.99689 414.293927 722.99689 490.069927 657.37289 527.957927 657.37289 452.181927"></polygon>
            <polygon id="Path" fill="url(#linearGradient-11)" fill-rule="nonzero" points="875.54289 129.069927 926.54289 129.069927 926.54289 723.069927 875.54289 723.069927"></polygon>
            <g id="Group" opacity="0.75" transform="translate(814.542890, 192.149395)" fill-rule="nonzero">
                <polygon id="Path" fill-opacity="0.6" fill="url(#linearGradient-12)" points="54.115 137.703532 108.142 106.511532 108.142 257.723532 54.115 288.916532"></polygon>
                <polygon id="Path" fill-opacity="0.6" fill="url(#linearGradient-13)" points="54.115 137.703532 0.088 106.511532 0.088 305.283532 54.115 336.476532"></polygon>
                <polygon id="Path" fill-opacity="0.7" fill="url(#linearGradient-14)" points="0 44.1125321 54.027 12.9205321 54.027 75.3055321 0 106.497532"></polygon>
                <polygon id="Path" fill-opacity="0.5" fill="url(#linearGradient-15)" points="108.214 44.1175321 54.187 12.9245321 54.187 75.3095321 108.214 106.501532"></polygon>
                <polygon id="Path" fill-opacity="0.8" fill="url(#radialGradient-16)" transform="translate(54.115000, 44.113032) rotate(-135.000000) translate(-54.115000, -44.113032) " points="22.9223758 12.920408 85.3076242 12.920408 85.3076242 75.3056563 22.9223758 75.3056563"></polygon>
                <polygon id="Path" fill-opacity="0.7" fill="url(#linearGradient-17)" transform="translate(54.095000, 106.498032) rotate(-135.000000) translate(-54.095000, -106.498032) " points="22.8633757 75.2664078 85.3266243 75.2664078 85.3266243 137.729656 22.8633757 137.729656"></polygon>
                <polygon id="Path" fill-opacity="0.6" fill="url(#linearGradient-18)" points="54.027 75.3055321 0 44.1135321 0 106.497532 54.027 137.690532 54.027 75.3055321"></polygon>
                <polygon id="Path" fill-opacity="0.6" fill="url(#linearGradient-19)" points="54.167 75.3055321 108.194 44.1135321 108.194 106.497532 54.167 137.690532 54.167 75.3055321"></polygon>
            </g>
            <rect id="Rectangle" stroke="#FFFFFF" stroke-width="0.627999277" transform="translate(657.276492, 372.717214) rotate(-45.000000) translate(-657.276492, -372.717214) " x="630.946023" y="346.386745" width="52.6609394" height="52.6609394" rx="2.824"></rect>
            <polygon id="Path" stroke="#FFFFFF" stroke-width="0.627999277" transform="translate(690.134789, 372.717155) rotate(-45.000000) translate(-690.134789, -372.717155) " points="687.947792 370.530158 692.321787 370.530158 692.321787 374.904153 687.947792 374.904153"></polygon>
            <g id="Group" opacity="0.6" transform="translate(428.210890, 277.688591)" fill-rule="nonzero">
                <polygon id="Path" fill-opacity="0.7" fill="url(#linearGradient-20)" points="32.343 82.3653363 64.597 63.7433363 64.597 154.018336 32.343 172.640336 32.343 82.3653363"></polygon>
                <polygon id="Path" fill-opacity="0.65" fill="url(#linearGradient-21)" points="32.343 82.3653363 0.088 63.7433363 0.088 182.411336 32.343 201.033336"></polygon>
                <polygon id="Path" fill-opacity="0.38" fill="#5A00CC" points="0 26.3593363 32.345 7.68433629 32.345 45.0333363 0 63.7073363"></polygon>
                <polygon id="Path" fill-opacity="0.38" fill="#56009A" points="64.687 26.3593363 32.343 7.68433629 32.343 45.0333363 64.687 63.7073363"></polygon>
                <polygon id="Path" fill="url(#linearGradient-22)" transform="translate(32.239000, 26.409836) rotate(-135.000000) translate(-32.239000, -26.409836) " points="13.5644257 7.73526196 50.9135743 7.73526196 50.9135743 45.0844106 13.5644257 45.0844106"></polygon>
                <polygon id="Path" fill-opacity="0.9" fill="url(#linearGradient-23)" transform="translate(32.239000, 63.658836) rotate(-135.000000) translate(-32.239000, -63.658836) " points="13.5644257 44.984262 50.9135743 44.984262 50.9135743 82.3334106 13.5644257 82.3334106"></polygon>
                <polygon id="Path" fill-opacity="0.9" fill="url(#linearGradient-24)" points="32.356 45.0333363 0.012 26.3593363 0.012 63.7073363 32.356 82.3813363"></polygon>
                <polygon id="Path" fill-opacity="0.9" fill="url(#linearGradient-25)" points="32.344 45.0243363 64.688 26.3503363 64.688 63.6983363 32.344 82.3723363 32.344 45.0243363"></polygon>
            </g>
            <polygon id="Path" fill="url(#linearGradient-26)" fill-rule="nonzero" transform="translate(218.372256, 461.175944) rotate(174.725000) translate(-218.372256, -461.175944) " points="102.262756 208.675944 334.481756 208.675944 334.481756 713.675944 102.262756 713.675944"></polygon>
            <polygon id="Path" fill="url(#linearGradient-27)" fill-rule="nonzero" transform="translate(520.542890, 169.069927) rotate(-90.000000) translate(-520.542890, -169.069927) " points="480.54289 -236.930073 560.54289 -236.930073 560.54289 575.069927 480.54289 575.069927"></polygon>
        </g>
    </g>
</svg>