<?xml version="1.0" encoding="UTF-8"?>
<svg width="800px" height="678px" viewBox="0 0 800 678" version="1.1" xmlns="http://www.w3.org/2000/svg" xmlns:xlink="http://www.w3.org/1999/xlink">
    <title>ff_1</title>
    <defs>
        <linearGradient x1="0%" y1="14.0871875%" x2="100%" y2="85.9128125%" id="linearGradient-1">
            <stop stop-color="#FFC500" offset="0%"></stop>
            <stop stop-color="#FB6E00" offset="32.9878827%"></stop>
            <stop stop-color="#720096" offset="100%"></stop>
        </linearGradient>
        <linearGradient x1="0%" y1="88.063374%" x2="100%" y2="9.44276951%" id="linearGradient-2">
            <stop stop-color="#FFC500" offset="0%"></stop>
            <stop stop-color="#DD2222" offset="32.9878827%"></stop>
            <stop stop-color="#720096" offset="100%"></stop>
        </linearGradient>
    </defs>
    <g id="Page-1" stroke="none" stroke-width="1" fill="none" fill-rule="evenodd">
        <g id="ff_1" fill-rule="nonzero">
            <path d="M281.942715,0 C410.431982,0 518.846425,86.272855 552.827442,204.256119 C556.485972,204.085874 560.17571,204 563.88543,204 C694.287906,204 800,310.108514 800,441 C800,571.891486 694.287906,678 563.88543,678 C474.970079,678 397.533876,628.667623 357.261499,555.783864 C333.289804,562.443696 308.030017,566 281.942715,566 C126.230053,566 0,439.296584 0,283 C0,126.703416 126.230053,0 281.942715,0 Z" id="Combined-Shape-Copy" fill-opacity="0.15" fill="url(#linearGradient-1)"></path>
            <g id="Group" transform="translate(144.000000, 138.000000)">
                <path d="M256,16 C388.548954,16 496,123.414192 496,255.914939 L496,257.355674 C495.727162,302.958458 482.7101,346.599976 458.815546,384.248515 L458.095,385.376 L454.23924,385.350748 C390.834159,384.965705 112.215158,385.027315 55.7129266,385.498838 L53.993,385.513 L53.2723592,384.386937 C29.0705536,346.311812 16,302.095712 16,255.914939 C16,123.414192 123.451046,16 256,16 Z" id="Path" fill="#F9F9F9"></path>
                <path d="M256,-1.13686838e-13 C397.384282,-1.13686838e-13 512,114.576407 512,255.914939 C512,287.335287 506.321395,317.918154 495.50413,346.492102 C488.398931,365.780061 478.519194,385.952034 467.618808,402.32338 L464.803674,402.296657 L461.37886,402.271534 C400.203811,401.869837 86.0217807,401.892863 44.7174448,402.474333 C34.381262,386.974242 25.6948556,370.273797 18.9101061,352.625615 C6.52498456,322.313372 0,289.595424 0,255.914939 C0,114.576407 114.615718,-1.13686838e-13 256,-1.13686838e-13 Z M96.3018222,76.8202256 L122.719581,103.181971 C125.847167,106.302769 125.852675,111.368086 122.731883,114.495679 C119.669967,117.564254 114.736219,117.627454 111.597254,114.681288 L111.418174,114.507981 L84.7151668,87.8628418 C45.474241,127.825651 20.1190106,181.460676 16.4586088,240.961201 L53.7163866,240.962343 C58.1346646,240.962343 61.7163866,244.544065 61.7163866,248.962343 C61.7163866,253.297257 58.2685488,256.826886 53.9655659,256.958536 L53.7163866,256.962343 L16.002,256.962 L16.002,257.29886 C16.1682649,286.348655 21.505825,314.603167 31.5326325,341.021051 L31.5156414,341.021051 C109.496911,338.848523 394.988753,338.733103 481.129719,339.268201 C490.567389,313.788724 495.664868,286.63142 495.987993,258.723166 L496,257.355674 L496,256.962 L458.283613,256.962343 C453.865335,256.962343 450.283613,253.380621 450.283613,248.962343 C450.283613,244.627429 453.731451,241.0978 458.034434,240.96615 L458.283613,240.962343 L495.541391,240.961201 C491.98715,183.186342 467.978243,130.941689 430.663863,91.3742213 L404.434358,117.545641 C401.306761,120.66643 396.241444,120.660922 393.120646,117.533336 C390.058737,114.464754 390.006267,109.53088 392.959252,106.39833 L393.132951,106.219631 L419.306002,80.1033334 C378.412422,42.1279949 324.249752,18.2366081 264.540274,16.1490631 L264.539916,54.6192469 C264.539916,59.0375249 260.958194,62.6192469 256.539916,62.6192469 C252.205002,62.6192469 248.675373,59.1714091 248.543723,54.8684262 L248.539916,54.6192469 L248.538939,16.1137264 C190.14454,17.8962365 136.999131,40.5306959 96.3018222,76.8202256 Z" id="Combined-Shape" fill="url(#linearGradient-2)"></path>
                <path d="M469.143611,402 C496.603196,360.958864 512.612091,311.636645 512.612091,258.582648 C512.612091,115.771395 396.614224,0 253.523604,0 C254.57681,146.109708 252.470399,280.656777 253.911413,401.673408 C351.123876,401.653854 448.193233,401.769126 469.143611,402 Z" id="Oval-33-Copy" fill-opacity="0.05" fill="#231F20"></path>
                <path d="M430.458141,176.924312 C432.125912,181.510682 429.833261,186.571871 425.328232,188.362074 L425.075688,188.458141 L298.802484,234.376075 C298.933149,235.733078 299,237.108732 299,238.5 C299,261.972102 279.972102,281 256.5,281 C233.027898,281 214,261.972102 214,238.5 C214,215.027898 233.027898,196 256.5,196 C272.220088,196 285.94675,204.534868 293.298955,217.22357 L418.924312,171.541859 C423.595615,169.843204 428.759485,172.25301 430.458141,176.924312 Z M256.5,214 C242.969024,214 232,224.969024 232,238.5 C232,252.030976 242.969024,263 256.5,263 C270.030976,263 281,252.030976 281,238.5 C281,224.969024 270.030976,214 256.5,214 Z" id="Oval-11-Copy-10" fill="#F7B500"></path>
            </g>
        </g>
    </g>
</svg>