<?xml version="1.0" encoding="UTF-8"?>
<svg width="800px" height="678px" viewBox="0 0 800 678" version="1.1" xmlns="http://www.w3.org/2000/svg" xmlns:xlink="http://www.w3.org/1999/xlink">
    <title>ff_2</title>
    <defs>
        <linearGradient x1="0%" y1="14.0871875%" x2="100%" y2="85.9128125%" id="linearGradient-1">
            <stop stop-color="#FFC500" offset="0%"></stop>
            <stop stop-color="#FB6E00" offset="32.9878827%"></stop>
            <stop stop-color="#720096" offset="100%"></stop>
        </linearGradient>
        <linearGradient x1="6.56217424%" y1="100%" x2="92.5474937%" y2="0%" id="linearGradient-2">
            <stop stop-color="#FFC500" offset="0%"></stop>
            <stop stop-color="#DD2222" offset="32.9878827%"></stop>
            <stop stop-color="#720096" offset="100%"></stop>
        </linearGradient>
        <linearGradient x1="-48.894999%" y1="148.967624%" x2="150.364802%" y2="-49.4491747%" id="linearGradient-3">
            <stop stop-color="#FFC500" offset="0%"></stop>
            <stop stop-color="#DD2222" offset="32.9878827%"></stop>
            <stop stop-color="#720096" offset="100%"></stop>
        </linearGradient>
    </defs>
    <g id="Page-1" stroke="none" stroke-width="1" fill="none" fill-rule="evenodd">
        <g id="ff_2" fill-rule="nonzero">
            <path d="M281.942715,0 C410.431982,0 518.846425,86.272855 552.827442,204.256119 C556.485972,204.085874 560.17571,204 563.88543,204 C694.287906,204 800,310.108514 800,441 C800,571.891486 694.287906,678 563.88543,678 C474.970079,678 397.533876,628.667623 357.261499,555.783864 C333.289804,562.443696 308.030017,566 281.942715,566 C126.230053,566 0,439.296584 0,283 C0,126.703416 126.230053,0 281.942715,0 Z" id="Combined-Shape-Copy" fill-opacity="0.15" fill="url(#linearGradient-1)"></path>
            <g id="Group" transform="translate(181.000000, 83.000000)">
                <path d="M219.485397,512 C-5.72090542,432.93585 -2.305697,259.747376 0.707292012,106.753387 C0.789300725,102.717788 0.887750591,96.5935673 1.00264161,88.3807247 C1.11634701,80.2526412 7.30668194,73.5016365 15.3944766,72.6853956 C113.183547,62.8162729 181.213853,38.5878077 219.485397,0 C257.766401,38.5879632 325.806409,62.8164682 423.60542,72.6855149 L423.60542,72.6855139 C431.693267,73.5016708 437.883692,80.2526734 437.997429,88.3808005 C438.112309,96.5906656 438.210751,102.71015 438.292754,106.739253 C439.258823,155.794413 440.266242,206.927152 433.764664,256.368208 C419.989021,361.124679 372.502648,458.286549 219.485397,512 Z" id="Path-Copy-7" fill="url(#linearGradient-2)"></path>
                <path d="M209.582,263.087 L209.631996,282.093546 C209.710374,304.215977 209.869266,332.203868 210.09502,364.882477 L210.820946,458.740212 L211.098,491.528 L209.81977,491.043816 C148.078948,467.445187 103.453371,434.726862 72.9914337,393.173776 L72.15573,392.026763 C46.3607724,356.404047 30.959096,314.700167 23.2938704,264.848377 L23.16,263.973 L30.539551,263.861959 C49.6790266,263.600242 70.3875864,263.526666 107.99431,263.49991 L148.27957,263.450134 C169.584523,263.402406 185.967818,263.315122 203.680773,263.14618 L209.582,263.087 Z" id="Path" fill="#F9F9F9"></path>
                <path d="M227.126,28.741 L228.388745,29.7325365 C267.615378,60.1964033 328.495438,79.312696 410.980124,87.4627691 L413.792445,87.7355831 C417.869628,88.1237834 420.990035,91.5071924 421.047546,95.5882014 L421.27165,109.927491 L421.618008,128.280065 C422.117695,156.670322 422.158062,172.542935 421.679555,191.264935 L421.629457,193.14502 C421.091996,212.518235 419.939552,230.214484 418.026925,246.937516 L417.92,247.852 L410.372203,247.71777 C372.406028,247.08197 314.699759,246.740551 237.231737,246.692918 L226.039,246.688 L227.126,28.741 Z" id="Path" fill="#F9F9F9"></path>
                <path d="M219,120 C143.889274,120 83,180.889274 83,256 C83,331.110726 143.889274,392 219,392 C294.110726,392 355,331.110726 355,256 C355,180.889274 294.110726,120 219,120 Z" id="Oval-Copy-5" fill="url(#linearGradient-3)"></path>
                <path d="M219,136 C285.27417,136 339,189.72583 339,256 C339,322.27417 285.27417,376 219,376 C152.72583,376 99,322.27417 99,256 C99,189.72583 152.72583,136 219,136 Z" id="Path" fill="#FFFFFF"></path>
                <path d="M219,376 C285.27417,376 339,322.27417 339,256 C339,189.72583 285.27417,136 219,136 C219.9375,199.75 219,307.5625 219,376 Z" id="Oval-Copy-6" fill="#F9F9F9"></path>
                <path d="M162.969372,247.251263 C166.415175,243.80546 171.959945,243.737895 175.48806,247.048568 L175.697294,247.251263 L210.386202,281.94017 C213.900921,285.454889 213.900921,291.153374 210.386202,294.668092 C206.940399,298.113895 201.395629,298.18146 197.867514,294.870787 L197.65828,294.668092 L162.969372,259.979185 C159.454654,256.464466 159.454654,250.765981 162.969372,247.251263 Z" id="Path" fill="#F7B500"></path>
                <path d="M261.969372,217.251263 C265.484091,213.736544 271.182576,213.736544 274.697294,217.251263 C278.143097,220.697065 278.210662,226.241836 274.899989,229.769951 L274.697294,229.979185 L210.697294,293.979185 C207.182576,297.493903 201.484091,297.493903 197.969372,293.979185 C194.52357,290.533382 194.456005,284.988612 197.766678,281.460497 L197.969372,281.251263 L261.969372,217.251263 Z" id="Path" fill="#F7B500"></path>
            </g>
        </g>
    </g>
</svg>