<?xml version="1.0" encoding="UTF-8"?>
<svg width="800px" height="678px" viewBox="0 0 800 678" version="1.1" xmlns="http://www.w3.org/2000/svg" xmlns:xlink="http://www.w3.org/1999/xlink">
    <title>ff_4</title>
    <defs>
        <linearGradient x1="0%" y1="14.0871875%" x2="100%" y2="85.9128125%" id="linearGradient-1">
            <stop stop-color="#FFC500" offset="0%"></stop>
            <stop stop-color="#FB6E00" offset="32.9878827%"></stop>
            <stop stop-color="#720096" offset="100%"></stop>
        </linearGradient>
        <linearGradient x1="113.870357%" y1="34.754276%" x2="-2.68773556%" y2="99.2266682%" id="linearGradient-2">
            <stop stop-color="#FFC500" offset="0%"></stop>
            <stop stop-color="#DD2222" offset="32.9878827%"></stop>
            <stop stop-color="#720096" offset="100%"></stop>
        </linearGradient>
    </defs>
    <g id="Page-1" stroke="none" stroke-width="1" fill="none" fill-rule="evenodd">
        <g id="ff_4" fill-rule="nonzero">
            <path d="M281.942715,0 C410.431982,0 518.846425,86.272855 552.827442,204.256119 C556.485972,204.085874 560.17571,204 563.88543,204 C694.287906,204 800,310.108514 800,441 C800,571.891486 694.287906,678 563.88543,678 C474.970079,678 397.533876,628.667623 357.261499,555.783864 C333.289804,562.443696 308.030017,566 281.942715,566 C126.230053,566 0,439.296584 0,283 C0,126.703416 126.230053,0 281.942715,0 Z" id="Combined-Shape-Copy" fill-opacity="0.15" fill="url(#linearGradient-1)"></path>
            <g id="Group" transform="translate(144.000000, 85.000000)">
                <path d="M143.087931,112.383678 C157.309857,98.1617519 180.389292,98.2181379 194.610936,112.439782 L194.966174,112.799695 C200.252495,118.22618 203.635803,124.897193 204.850401,131.994394 L204.885101,132.210032 L238.278943,98.8162759 L238.585432,98.514713 C248.761189,88.6636597 264.9964,88.7641806 275.048496,98.8162759 L309.088599,132.856327 L309.147898,132.468444 C310.346644,124.93854 313.808516,117.856876 319.263337,112.402055 C333.488688,98.1767036 356.597167,98.2138701 370.827,112.443703 C385.045895,126.662598 385.053212,149.756237 370.835366,163.974083 L370.475457,164.329334 C364.928614,169.733413 358.088975,173.152831 350.816923,174.291846 L350.562533,174.328847 L384.850788,208.617862 C395.00442,218.771494 395.00442,235.233783 384.850788,245.387415 L345.450614,284.787589 C337.916389,292.321814 325.700998,292.321814 318.166773,284.787589 C314.392198,281.013014 312.492518,275.763383 312.9659,270.46009 L313.005861,270.062265 C313.327263,267.183769 311.874771,263.832945 307.960433,259.918607 C302.518882,254.477056 295.816876,254.45498 290.46933,259.802526 C285.074066,265.19779 285.072465,272.003252 290.474126,277.404913 C294.140234,281.071021 297.516303,282.637179 300.4923,282.475595 L300.753847,282.456864 C306.231475,281.969109 311.623819,284.012229 315.401171,287.989309 L315.762058,288.379877 C315.954885,288.59195 316.14262,288.808599 316.3251,289.029639 C322.690507,296.740074 322.182223,308.05598 315.078259,315.159944 L275.312229,354.925974 C265.158598,365.079605 248.696308,365.079605 238.542677,354.925974 L198.886607,315.269904 C191.175391,307.558688 191.175391,295.056335 198.886607,287.345118 C202.686613,283.545112 207.980187,281.646586 213.316546,282.15368 L213.707067,282.195085 C216.49379,282.521259 219.73073,281.106084 223.688836,277.147979 C229.068027,271.768788 229.063149,265.015326 223.659387,259.612793 C218.231011,254.184416 211.460835,254.174359 206.086612,259.548582 C202.554901,263.080293 200.980225,266.552076 201.139285,269.644851 L201.158515,269.92496 C201.622986,275.326772 199.627769,280.642603 195.74129,284.402792 L195.344585,284.776012 C195.174341,284.933634 195.001065,285.08795 194.824855,285.238873 C186.946495,291.986638 175.175444,291.558741 167.811613,284.19491 L128.739675,245.122972 L128.438112,244.816483 C118.587059,234.640726 118.68758,218.405515 128.739675,208.353419 L163.010237,174.082067 L162.635599,174.018584 C155.31099,172.718744 148.449953,169.258529 143.121071,163.929647 C128.895238,149.703814 128.862838,126.60877 143.087931,112.383678 Z" id="Path" fill="#F7B500"></path>
                <path d="M155.815853,125.1116 C148.626477,132.300976 148.646348,143.99908 155.848993,151.201725 C160.168173,155.520905 166.713979,157.487413 173.049698,156.216879 C175.252596,155.775076 177.45752,156.538592 179.048667,158.129738 L186.984217,166.065288 C189.607094,168.688166 189.768955,172.779983 187.151457,175.397482 L141.467597,221.081341 C138.343403,224.205536 138.343403,229.270856 141.467597,232.39505 L180.539535,271.466988 C181.245711,272.173163 182.369754,272.206791 183.115727,271.56787 L183.224688,271.466988 C182.406847,261.955478 186.767074,253.412276 193.35869,246.82066 C205.771405,234.407946 223.938524,234.436085 236.385862,246.883424 C248.816557,259.311292 248.829825,277.462834 236.416758,289.875901 C229.434761,296.857898 221.036518,301.175843 211.614529,300.07304 C210.93275,300.75482 210.93275,301.860203 211.614529,302.541982 L251.270599,342.198052 C254.394793,345.322246 259.460113,345.322246 262.584307,342.198052 L302.350336,302.432022 C302.882115,301.900244 302.913396,301.057497 302.44418,300.489134 L302.350336,300.385924 C292.776639,301.238412 284.348009,296.734641 277.746204,290.132836 C265.306301,277.692932 265.325514,259.490498 277.741408,247.074604 C290.149883,234.666129 308.248806,234.751136 320.688355,247.190685 C327.68777,254.1901 331.941916,262.680703 330.894695,272.059667 C331.399482,272.564454 332.217904,272.564454 332.722692,272.059667 L372.122866,232.659493 C375.24706,229.535298 375.24706,224.469978 372.122866,221.345784 L326.483317,175.706235 C323.86044,173.083358 324.012297,168.677822 326.629795,166.060323 L334.745135,157.944984 C336.343402,156.346716 338.636966,155.66717 340.8419,156.124345 L341.095877,156.182153 C347.24544,157.707198 353.445831,155.907774 358.107444,151.246161 C365.293994,144.059611 365.290393,132.36294 358.099078,125.171625 C350.889705,117.962252 339.178163,117.943073 331.99126,125.129977 C327.763244,129.357992 325.868189,135.786074 326.997615,141.990028 L327.072149,142.377462 C327.518773,144.581332 326.833371,146.859296 325.246056,148.446611 L317.130716,156.561951 C314.513218,159.179449 310.107682,159.331307 307.484805,156.708429 L262.320573,111.544198 C259.196379,108.420004 254.131059,108.420004 251.006865,111.544198 L206.110569,156.440494 C203.493071,159.057992 199.087535,159.20985 196.464657,156.586972 L188.528045,148.65036 C186.86467,146.986985 185.321675,148.351536 186.829744,142.217316 C188.337813,136.083096 186.559441,129.844131 181.883014,125.167704 C174.680723,117.965413 162.998163,117.929289 155.815853,125.1116 Z" id="Path" fill="#FFFFFF"></path>
                <path d="M302.449655,300.495807 L302.350336,300.385924 C292.776639,301.238412 284.348009,296.734641 277.746204,290.132836 C265.306301,277.692932 265.325514,259.490498 277.741408,247.074604 C290.149883,234.666129 308.248806,234.751136 320.688355,247.190685 C327.68777,254.1901 331.941916,262.680703 330.894695,272.059667 C331.399482,272.564454 332.217904,272.564454 332.722692,272.059667 L372.122866,232.659493 C375.24706,229.535298 375.24706,224.469978 372.122866,221.345784 L326.483317,175.706235 C323.86044,173.083358 324.012297,168.677822 326.629795,166.060323 L334.745135,157.944984 C336.341038,156.349081 338.630182,155.669182 340.832114,156.122323 L341.095877,156.182153 C347.24544,157.707198 353.445831,155.907774 358.107444,151.246161 C365.293994,144.059611 365.290393,132.36294 358.099078,125.171625 C350.889705,117.962252 339.178163,117.943073 331.99126,125.129977 C327.675161,129.446075 325.790241,136.054865 327.072149,142.377462 C327.518773,144.581332 326.833371,146.859296 325.246056,148.446611 L317.130716,156.561951 C314.513218,159.179449 310.107682,159.331307 307.484805,156.708429 L256.663719,105.887344 L256.927453,347.854906 L302.350336,302.432022 C302.880037,301.902321 302.913144,301.064076 302.449655,300.495807 L302.449655,300.495807 Z" id="Path" fill-opacity="0.05" fill="#231F20"></path>
                <path d="M16,242.198814 C17.7197135,242.198814 19.4281808,242.47606 21.0596443,243.019881 L76.0596443,261.353215 C82.5931185,263.531039 87,269.645261 87,276.532148 L87,290.826814 L137.934767,332.781811 L139.667964,333.333529 L140.881052,333.727665 C141.492937,333.928126 142.116179,334.134795 142.765837,334.352704 L144.104835,334.805003 L147.265107,335.892206 L158.594005,339.872192 L161.598477,340.914771 C181.180632,347.659553 191.972554,350.317966 203.753349,350.598449 L204.195611,350.607856 L205.053033,350.619789 L206.017486,350.623624 L222.413301,351.129477 C272.647948,352.648879 307.920345,353.41789 328.156973,353.437084 L331.460764,353.433094 L334.623714,353.413204 L336.966922,353.387697 C353.811476,353.311175 365.833716,360.85319 368.528747,373.216838 C371.071254,384.880766 364.230865,397.145127 351.668018,404.042446 L351.203574,404.291916 C343.604706,408.284879 331.551053,410.350241 304.431479,413.163444 L299.968104,413.619746 L281.06105,415.505792 L278.114668,415.810895 C268.79916,416.786033 261.185983,417.688018 254.634112,418.630441 L253.960092,418.728081 L252.093203,419.006071 L250.222108,419.297554 L251.375411,419.308071 L253.971408,419.318155 L255.772504,419.313554 L257.144921,419.302752 C270.49882,419.16716 286.409167,418.124801 307.283901,415.933007 L311.674437,415.463052 L314.909638,415.105934 L319.043242,414.637401 C341.738273,412.029269 357.777707,406.854217 375.81446,397.142451 L377.123901,396.431461 L378.711048,395.555235 C381.907822,393.775033 385.268176,391.812227 389.308752,389.37703 L389.988568,388.96674 L393.142879,387.049983 L408.624411,377.566959 L409.726261,376.896514 L413.381397,374.691443 C429.810481,364.855939 444.79828,356.726399 462.702298,348.283299 C479.070875,340.564279 495.61686,342.021481 505.643901,355.063449 C515.096424,367.358152 513.95536,382.538726 502.558535,395.565161 C496.070683,402.980698 456.535602,427.561147 380.42206,471.781706 L378.104389,473.127737 L368.205911,478.865957 L357.716978,484.930718 L357.217915,485.268841 C334.743898,500.418855 308.706118,508.630245 281.820233,508.987802 L280.892801,508.997017 L279.985353,509 L177.102509,509 C157.351793,509 127.694742,493.975189 87.0003778,463.991965 L87,473.801186 C87,482.637742 79.836556,489.801186 71,489.801186 C69.2802865,489.801186 67.5718192,489.52394 65.9403557,488.980119 L10.9403557,470.646785 C4.40688152,468.468961 -5.68434189e-14,462.354739 -5.68434189e-14,455.467852 L-5.68434189e-14,258.198814 C-5.68434189e-14,249.362258 7.163444,242.198814 16,242.198814 Z" id="Path" fill="url(#linearGradient-2)"></path>
                <path d="M398.553188,401.840239 L417.987506,389.943752 L419.199681,389.210574 L419.199681,389.210574 C435.814598,379.204019 450.724558,371.071025 468.668326,362.602924 C479.152993,357.654956 487.913109,358.427029 492.841757,364.842359 C497.630044,371.07499 497.102034,378.10477 490.376401,385.797771 C485.225206,391.689877 439.354508,419.963232 357.00544,467.642834 L349.007071,472.268587 L348.765699,472.433685 C328.168706,486.522006 304.20627,494 279.491216,494 L176.661976,494 L176.133899,493.994694 C159.091924,493.655117 128.278933,477.015393 85.0966016,443.993172 L84,443.152886 L84,309 L130.069164,346.975873 L133.334724,347.994963 L134.964645,348.517844 C137.471189,349.331452 140.096784,350.228188 144.018894,351.602563 L154.460041,355.279565 L158.303767,356.612977 C165.781281,359.18292 170.812602,360.748437 176.455004,362.23159 L177.88071,362.600461 C187.399919,365.01963 196.078356,366.321577 204.535887,366.408489 L205.298251,366.412631 L219.005137,366.83681 L236.085094,367.345178 C284.414511,368.747384 317.155118,369.366296 334.384752,369.201309 L336.140692,369.181052 C346.559807,369.039055 351.98061,372.393979 352.958893,376.885238 C353.92479,381.319637 350.709458,387.088775 343.739533,390.918268 L343.413965,391.091082 C337.944286,393.897925 324.975951,395.941429 297.657516,398.702849 L280.78493,400.383516 L277.197258,400.751518 L271.935496,401.309177 C256.67345,402.962931 245.998986,404.465678 236.628973,406.411067 L235.329029,406.685792 C220.538893,409.868116 211.236884,413.86168 206.889453,420.5229 L200.0224,431.044735 L214.232932,432.588951 C231.878155,434.488778 240.647889,435.120747 253.480409,435.122647 L255.360845,435.117888 L256.663943,435.107974 C273.044339,434.949443 292.898785,433.489674 320.283106,430.340318 C345.334911,427.459216 363.399571,421.542859 383.465691,410.611142 L384.474657,410.058543 L385.530629,409.473951 C389.416319,407.31115 393.479038,404.921972 398.553188,401.840239 Z" id="Path" fill="#F9F9F9"></path>
                <path d="M257.5,0 C261.834914,0 265.364543,3.44783777 265.496193,7.75082067 L265.5,8 L265.5,56 C265.5,60.418278 261.918278,64 257.5,64 C253.165086,64 249.635457,60.5521622 249.503807,56.2491793 L249.5,56 L249.5,8 C249.5,3.581722 253.081722,0 257.5,0 Z" id="Line-7-Copy" fill="#A20F63"></path>
                <path d="M432.402019,69.1161891 C434.611158,65.2898481 439.503881,63.9788468 443.330222,66.1879858 C447.080036,68.3529421 448.414118,73.0952126 446.386758,76.885359 L446.258425,77.1161891 L427.258425,110.025154 C425.049286,113.851495 420.156563,115.162497 416.330222,112.953358 C412.580408,110.788401 411.246326,106.046131 413.273687,102.255984 L413.402019,102.025154 L432.402019,69.1161891 Z" id="Line-7-Copy" fill="#8E0C6C" transform="translate(429.830222, 89.570672) rotate(20.000000) translate(-429.830222, -89.570672) "></path>
                <path d="M70.6697777,66.1879858 C74.4195919,64.0230296 79.1935595,65.2388161 81.4622423,68.8896351 L81.5979809,69.1161891 L100.597981,102.025154 C102.80712,105.851495 101.496119,110.744219 97.6697777,112.953358 C93.9199635,115.118314 89.1459958,113.902527 86.8773131,110.251708 L86.7415745,110.025154 L67.7415745,77.1161891 C65.5324355,73.2898481 66.8434367,68.3971248 70.6697777,66.1879858 Z" id="Line-7-Copy" fill="#C71B39" transform="translate(84.169778, 89.570672) rotate(-20.000000) translate(-84.169778, -89.570672) "></path>
            </g>
        </g>
    </g>
</svg>