<?xml version="1.0" encoding="UTF-8"?>
<svg width="2574px" height="1291px" viewBox="0 0 2574 1291" version="1.1" xmlns="http://www.w3.org/2000/svg" xmlns:xlink="http://www.w3.org/1999/xlink">
    <title>GDP</title>
    <g id="GDP" stroke="none" stroke-width="1" fill="none" fill-rule="evenodd">
        <g id="Group-2" transform="translate(640.000000, 1201.000000)">
            <text id="GUINSOOLAB-RUNTIME" font-family="Copperplate" font-size="60" font-weight="normal" fill="#000000" fill-opacity="0.5">
                <tspan x="0.03" y="46">GUINSOOLAB RUNTIME</tspan>
            </text>
            <g id="Group" transform="translate(764.000000, 0.000000)" fill="#8A8A8A" fill-rule="nonzero">
                <path d="M103.255,0 L59.0877778,0 C55.8183333,0 53.1433333,1.39428571 53.1433333,3.13714286 C53.1433333,4.88 55.8183333,6.27428571 59.0877778,6.27428571 L93.5655556,6.27428571 C96.835,6.27428571 99.51,6.88428571 99.51,7.625 L99.51,21.2628571 C99.51,23.6592857 98.5588889,25.315 97.37,24.9664286 L96.3,24.4 C91.3520544,27.2665347 84.3657234,27.2665347 79.4177778,24.4 C76.342891,22.5033072 71.852109,22.5033072 68.7772222,24.4 C63.8369101,27.282592 56.8353122,27.282592 51.895,24.4 C48.8201132,22.5033072 44.3293312,22.5033072 41.2544444,24.4 C36.3141323,27.282592 29.3125344,27.282592 24.3722222,24.4 C22.4264718,24.3818674 20.5409402,24.8943136 19.0816667,25.8378571 C17.6253878,24.8906493 15.73785,24.3776579 13.7911111,24.4 L12.305,23.6157143 C12.3251626,21.2389038 10.4730479,19.0668109 7.54944444,18.0385714 L7.54944444,0 L3.745,0 C1.66444444,0 0,1.96071429 0,4.35714286 L0,56.6428571 C3.28302601,56.6428571 5.94444444,58.5936164 5.94444444,61 L101.055556,61 C101.055556,58.5936164 103.716974,56.6428571 107,56.6428571 L107,4.35714286 C107,1.96071429 105.276111,0 103.255,0 L103.255,0 Z M28.4738889,10.5442857 C30.3761111,10.5442857 31.9216667,9.84714286 31.9216667,7.40714286 C30.0392478,6.34113496 28.8015427,4.77698021 28.4738889,3.05 C28.146235,4.77698021 26.9085299,6.34113496 25.0261111,7.40714286 C25.0261111,9.80357143 26.5716667,10.5442857 28.4738889,10.5442857 L28.4738889,10.5442857 Z M37.3905556,10.5442857 C39.2927778,10.5442857 40.8383333,9.84714286 40.8383333,7.40714286 C38.9559145,6.34113496 37.7182094,4.77698021 37.3905556,3.05 C37.0629017,4.77698021 35.8251966,6.34113496 33.9427778,7.40714286 C33.8833333,9.80357143 35.31,10.5442857 37.3905556,10.5442857 L37.3905556,10.5442857 Z M19.4977778,10.5442857 C21.4,10.5442857 22.9455556,9.84714286 22.9455556,7.40714286 C21.0631367,6.34113496 19.8254316,4.77698021 19.4977778,3.05 C19.1701239,4.77698021 17.9324188,6.34113496 16.05,7.40714286 C16.05,9.80357143 17.4766667,10.5442857 19.4977778,10.5442857 L19.4977778,10.5442857 Z" id="Shape"></path>
            </g>
        </g>
        <g id="Group" transform="translate(202.000000, 883.000000)" fill="#32C5FF" fill-rule="nonzero">
            <path d="M93.3134044,45.1681103 C91.5991691,45.1681103 90.0525266,45.8188199 88.8578291,46.857422 L70.4345878,44.1469237 C70.1887803,42.0176063 69.4794309,39.9667035 68.3556386,38.1361722 L83.8324381,21.9119719 C85.0893844,22.3932753 86.4516747,22.6671749 87.8810022,22.667175 C94.1026868,22.667175 99.1472312,17.6641526 99.1472312,11.491911 C99.1472312,5.31966947 94.1034849,0.315855389 87.8810022,0.315855389 C81.6585195,0.315855389 76.6139751,5.31966947 76.6139752,11.491911 C76.6139752,13.5208266 77.1686278,15.419917 78.1223108,17.0601483 L62.9862833,32.9249543 C60.9170517,31.7477644 58.593818,31.0789507 56.2107444,30.9744088 L52.3146099,12.8305361 C53.7495238,11.4737037 54.652131,9.57065527 54.652131,7.45070375 C54.652131,3.3366677 51.2883033,0 47.1407796,0 C42.9932559,0 39.6294282,3.3366677 39.6294282,7.45070375 C39.6294282,10.8237858 41.9054986,13.6411524 45.0059661,14.5586371 L48.8598033,32.4974809 C47.1122455,33.3569033 45.549894,34.5452858 44.259779,35.9964301 L26.0959076,26.6775092 C26.1022921,26.5524336 26.1334165,26.4360658 26.1334165,26.309407 C26.1612674,23.629369 24.7358103,21.1410054 22.4004683,19.7929481 C20.0651262,18.4448907 17.1798022,18.4448907 14.8444602,19.7929481 C12.5091181,21.1410054 11.083661,23.629369 11.1111111,26.309407 C11.1111111,30.423443 14.4745415,33.7601107 18.6228632,33.7601107 C19.8303297,33.7601107 20.9571921,33.4497967 21.9683355,32.9479112 L40.8504618,42.6349343 C40.6154548,43.6877489 40.4958492,44.7626743 40.4937285,45.8409851 C40.4937285,48.8364657 41.3915472,51.6190012 42.9238246,53.953481 L27.5188506,70.1024777 C26.0130512,69.3889708 24.3657496,69.0176561 22.6969652,69.0155869 C16.4744826,69.0155869 11.4299382,74.019401 11.4299383,80.1916425 C11.4299383,86.3630924 16.4736846,91.3669065 22.6969652,91.3669065 C28.9186498,91.3669065 33.9631942,86.363884 33.9631942,80.1916425 C33.9631942,78.4580002 33.5545869,76.8241017 32.8443125,75.3588177 L48.4567824,58.9929179 C52.0780312,60.911024 56.3347926,61.2688053 60.2297802,59.9824398 L71.7617635,78.0772322 C71.207909,79.1158343 70.8639447,80.2826785 70.8639447,81.5381838 C70.8639447,85.6530115 74.2277724,88.9888876 78.3752961,88.9888876 C82.5228198,88.9888876 85.8866475,85.6530115 85.8866475,81.5381838 C85.8866475,77.4241478 82.5228198,74.0882717 78.3752961,74.0882717 C78.2875094,74.0882717 78.2085014,74.110437 78.1215127,74.1136035 L66.5392515,55.9412326 C67.7483933,54.6489922 68.7168171,53.1542121 69.3995026,51.5263818 L86.9257231,54.1070549 C87.8498779,56.7383914 90.3470111,58.6382734 93.3134044,58.6382734 C97.0227761,58.5818585 100,55.5830461 100,51.9031918 C100,48.2233375 97.0227761,45.2245252 93.3134044,45.1681103" id="Path"></path>
            <path d="M23.031316,43.9870003 C25.0430356,43.5362489 26.3084898,41.5450556 25.8589656,39.5376913 C25.643899,38.5722741 25.0523424,37.732017 24.2149994,37.2025737 C23.3776565,36.6731304 22.3634507,36.4980805 21.3964695,36.716101 C15.2642079,38.0896866 9.1438506,34.3030239 7.75581833,28.2845814 C7.09094049,25.423524 7.60561884,22.4159571 9.18432489,19.9369811 C10.8025055,17.3758575 13.3428665,15.5961339 16.3371751,14.9271542 C22.4678495,13.552777 28.589794,17.3394397 29.9762392,23.3586739 C30.2750811,24.6559393 31.2449862,25.6956179 32.5206006,26.086073 C33.796215,26.476528 35.1837424,26.15844 36.1605149,25.2516296 C37.1372873,24.3448193 37.5549097,22.9870526 37.2560678,21.6897872 C34.9514104,11.689134 24.842345,5.38884917 14.7015351,7.65625498 C9.75255316,8.76224868 5.55115642,11.7128847 2.86477024,15.9642707 C0.214096769,20.1626133 -0.635071015,25.1296889 0.475989713,29.9534681 C2.46240754,38.5789522 10.2612603,44.4493483 18.8664255,44.4493483 C20.2409663,44.4493483 21.634554,44.2989268 23.0305224,43.9870003 M81.6461182,62.8078939 C79.6208845,62.4208224 77.6643107,63.7440152 77.2748879,65.7640717 C77.0879494,66.7347174 77.2954749,67.7396832 77.8517512,68.5575978 C78.4080276,69.3755124 79.267421,69.9392785 80.2406263,70.1247112 C86.3141605,71.286915 90.3147727,77.2214381 89.1545079,83.3538842 C88.5894542,86.3417298 86.9030226,88.9210623 84.4023424,90.6184499 C81.9680112,92.2848061 78.9650309,92.9065938 76.0670061,92.3443385 C69.9910912,91.1821347 65.9920662,85.2476116 67.1499502,79.1167487 C67.4728928,77.1220014 66.1437517,75.2338122 64.1532787,74.8596512 C62.1628056,74.4854903 60.235954,75.7616315 59.8090132,77.7368296 C57.8908463,87.8926544 64.5532426,97.7286356 74.6575463,99.6611558 C75.8217866,99.8859498 77.0048723,99.9994121 78.1907194,100 C81.8778537,100 85.4824522,98.8987565 88.6045328,96.779397 C92.757519,93.9593901 95.5597729,89.6810867 96.4954448,84.7338034 C98.4159926,74.5779786 91.7551835,64.7419974 81.6469118,62.8078939" id="Shape"></path>
        </g>
        <g id="Group" transform="translate(510.000000, 883.000000)" fill="#32C5FF" fill-rule="nonzero">
            <path d="M33.9823846,70.9763072 C34.5312579,70.9763072 35.0741997,71.0927922 35.5771049,71.3184232 L61.5613804,82.9758987 L74.1208449,82.9758987 C75.6417944,77.3797488 80.6457753,73.2741013 86.5843949,73.2741013 C93.7298467,73.2741013 99.522293,79.2179841 99.522293,86.5502451 C99.522293,93.8825061 93.7298467,99.8263889 86.5843949,99.8263889 C80.6458997,99.8263889 75.6419188,95.7207414 74.1208449,90.1247192 L60.5208748,90.1245915 C60.2464172,90.1245966 59.9749242,90.0663576 59.7234524,89.9535335 L33.3583798,78.125 L0.99522293,78.125 C0.445576483,78.125 0,77.6677745 0,77.1037582 L0,71.997549 C0,71.4335327 0.445576483,70.9763072 0.99522293,70.9763072 L33.9823846,70.9763072 Z M86.5843949,81.4440359 C83.8362112,81.4440359 81.6082803,83.7302134 81.6082803,86.5502451 C81.6082803,89.3702768 83.8362112,91.6564542 86.5843949,91.6564542 C89.3325786,91.6564542 91.5605096,89.3702768 91.5605096,86.5502451 C91.5605096,83.7302134 89.3325786,81.4440359 86.5843949,81.4440359 Z M86.5843949,0 C93.7298467,0 99.522293,5.94388276 99.522293,13.2761438 C99.522293,20.6084048 93.7298467,26.5522876 86.5843949,26.5522876 C80.6458997,26.5522876 75.6419188,22.4466401 74.1208449,16.8506179 L42.5457803,16.8504902 L42.5457803,25.0204248 L51.43959,25.0204248 C52.6261445,22.9155178 54.8285729,21.4890982 57.3589271,21.4470997 L57.4741242,21.4460784 C61.3216561,21.4460784 64.4406847,24.6466503 64.4406847,28.5947712 C64.4406847,32.5428922 61.3216561,35.7434641 57.4741242,35.7434641 C54.895626,35.7434641 52.6441829,34.3059385 51.43959,32.1692453 L42.5457803,32.1691176 L42.5457803,45.4452614 C42.5457803,46.5733507 41.6546825,47.4877451 40.5553344,47.4877451 L0.99522293,47.4877451 C0.445576483,47.4877451 0,47.0305196 0,46.4665033 L0,41.3602941 C0,40.7962778 0.445576483,40.3390523 0.99522293,40.3390523 L35.5792197,40.3390523 L35.5792197,32.1691176 L0.99522293,32.1691176 C0.445576483,32.1691176 0,31.7118921 0,31.1478758 L0,26.0416667 C0,25.4776504 0.445576483,25.0204248 0.99522293,25.0204248 L35.5792197,25.0204248 L35.5792197,13.7867647 C35.5792197,11.5307138 37.3615396,9.70179739 39.5601115,9.70179739 L74.1208449,9.70179739 C75.6417944,4.10564747 80.6457753,0 86.5843949,0 Z M86.5843949,8.16993464 C83.8362112,8.16993464 81.6082803,10.4561121 81.6082803,13.2761438 C81.6082803,16.0961754 83.8362112,18.3823529 86.5843949,18.3823529 C89.3325786,18.3823529 91.5605096,16.0961754 91.5605096,13.2761438 C91.5605096,10.4561121 89.3325786,8.16993464 86.5843949,8.16993464 Z" id="Shape"></path>
            <path d="M49.7611465,52.0833333 C53.6086783,52.0833333 56.727707,55.2839052 56.727707,59.2320261 C56.727707,63.1801471 53.6086783,66.380719 49.7611465,66.380719 C47.1826483,66.380719 44.9312052,64.9431934 43.7266123,62.8065002 L0.99522293,62.8063725 C0.445576483,62.8063725 0,62.349147 0,61.7851307 L0,56.6789216 C0,56.1149053 0.445576483,55.6576797 0.99522293,55.6576797 L43.7266123,55.6576797 C44.9310808,53.5209865 47.1825239,52.0833333 49.7611465,52.0833333 Z" id="Path"></path>
        </g>
        <g id="Group" transform="translate(838.000000, 883.000000)" fill="#32C5FF" fill-rule="nonzero">
            <path d="M58.2654272,74.4560918 L94.2147943,74.4560918 L94.2147943,80.7852057 L58.2654272,80.7852057 L58.2654272,74.4560918 Z M58.2654272,88.8864715 L94.2147943,88.8864715 L94.2147943,95.2155854 L58.2654272,95.2155854 L58.2654272,88.8864715 Z" id="Shape"></path>
            <path d="M49.6578323,92.9371044 L45.8603639,92.9371044 C45.8603639,92.9371044 45.8603639,92.6839399 45.6071994,92.4307753 C45.3540348,91.6712816 44.5945411,86.8611551 44.088212,84.0763449 C43.8350475,81.5446994 42.3160601,79.0130538 40.5439082,78.5067247 L39.7844146,78.2535601 C39.53125,78.0003956 39.0249209,78.0003956 37.5059335,77.2409019 C33.9616297,75.7219146 31.4299842,76.9877373 30.4173259,77.747231 L28.3920095,78.7598892 C26.366693,80.2788766 23.0755538,82.5573576 22.5692247,82.8105222 C22.3160601,83.0636867 22.0628956,83.0636867 22.0628956,82.8105222 L16.7464399,77.4940665 C16.4932753,77.4940665 16.4932753,77.2409019 16.9996044,76.7345728 L17.7590981,75.7219146 C18.7717563,74.2029272 20.5439082,71.6712816 21.809731,70.1522943 C23.8350475,67.6206487 24.088212,65.0890032 23.0755538,62.8105222 L21.5565665,59.5193829 C20.5439082,57.4940665 18.7717563,56.2282437 16.2401108,55.7219146 L13.9616297,55.2155854 C11.4299842,54.7092563 8.13884494,54.2029272 7.37935127,54.2029272 C7.12618671,54.2029272 6.87302215,53.9497627 6.87302215,53.6965981 L6.87302215,46.1016614 C6.87302215,46.1016614 6.87302215,45.8484968 7.12618671,45.8484968 L15.4806171,44.3295095 C19.2780854,43.5700158 20.7970728,41.7978639 21.5565665,40.2788766 L22.0628956,38.7598892 C22.3160601,38.2535601 22.3160601,38.2535601 22.8223892,36.9877373 C23.8350475,34.7092563 23.3287184,32.1776108 21.809731,29.8991297 L20.0375791,27.3674842 C18.7717563,25.3421677 16.9996044,23.3168513 16.7464399,22.8105222 L16.4932753,22.5573576 L16.7464399,22.304193 L18.0122627,21.0383703 L22.0628956,16.9877373 C22.3160601,16.7345728 22.3160601,16.7345728 22.5692247,16.9877373 C23.5818829,17.747231 28.1388449,21.0383703 29.9109968,22.304193 C31.9363133,23.8231804 34.4679589,24.0763449 36.7464399,23.0636867 L38.0122627,22.5573576 C38.5185918,22.304193 38.5185918,22.304193 39.7844146,21.7978639 C42.0628956,20.7852057 43.3287184,19.0130538 43.8350475,16.2282437 L44.088212,15.2155854 C44.5945411,12.9371044 45.3540348,7.87381329 45.3540348,7.36748418 L45.6071994,7.11431962 L53.9616297,7.11431962 L53.9616297,7.62064873 C54.2147943,9.64596519 55.4806171,15.7219146 55.4806171,16.9877373 C55.7337816,18.7598892 57.5059335,21.0383703 59.2780854,21.7978639 L60.2907437,22.304193 C61.0502373,22.5573576 62.0628956,23.0636867 62.8223892,23.3168513 C64.3413766,24.0763449 67.1261867,23.5700158 68.1388449,22.8105222 L70.1641614,21.2915348 C72.695807,19.5193829 76.4932753,16.9877373 76.9996044,16.7345728 C76.9996044,16.7345728 77.252769,16.7345728 77.5059335,16.9877373 L78.5185918,18.0003956 L82.8223892,22.304193 L82.5692247,22.8105222 C81.5565665,24.3295095 78.5185918,28.633307 77.5059335,30.1522943 C75.9869462,32.1776108 75.7337816,34.7092563 76.7464399,36.9877373 L77.7590981,39.5193829 C78.0122627,40.5320411 79.53125,43.5700158 82.5692247,44.0763449 L85.3540348,44.5826741 C88.1388449,45.0890032 91.6831487,45.5953323 92.4426424,45.8484968 C92.695807,45.8484968 92.695807,45.8484968 92.695807,46.1016614 L92.695807,52.1776108 L99.53125,52.1776108 L99.53125,46.3548259 C99.53125,43.3168513 97.5059335,40.7852057 94.7211234,40.2788766 L84.8477057,38.7598892 C84.5945411,38.7598892 84.088212,38.2535601 84.088212,38.2535601 C84.088212,38.0003956 83.5818829,36.7345728 83.0755538,35.7219146 L82.8223892,34.7092563 C82.5692247,34.2029272 82.8223892,33.6965981 83.0755538,32.9371044 C83.8350475,31.9244462 87.6325158,26.6079905 88.6451741,25.0890032 C89.9109968,23.3168513 89.9109968,20.025712 87.8856804,18.0003956 C86.6198576,16.4814082 83.3287184,13.4434335 81.809731,11.9244462 L81.3034019,11.4181171 C79.7844146,9.89912975 76.4932753,9.89912975 74.7211234,11.1649525 L66.366693,16.9877373 C66.366693,16.9877373 65.6071994,17.4940665 65.1008703,17.2409019 C64.088212,16.7345728 62.0628956,15.9750791 61.5565665,15.7219146 C61.3034019,15.46875 61.0502373,15.2155854 61.0502373,14.2029272 C60.7970728,12.6839399 60.0375791,8.12697785 59.53125,5.59533228 L59.2780854,4.58267405 C58.7717563,2.05102848 56.4932753,0.0257120253 53.7084652,0.0257120253 L45.1008703,0.0257120253 C42.5692247,0.0257120253 40.2907437,2.30419304 39.7844146,4.58267405 C39.7844146,6.10166139 38.7717563,11.4181171 38.5185918,13.9497627 L38.5185918,14.7092563 C38.2654272,15.7219146 38.0122627,15.9750791 38.0122627,15.9750791 L34.4679589,17.4940665 C33.9616297,17.747231 33.7084652,17.747231 32.1894778,16.7345728 C30.6704905,15.7219146 28.1388449,13.9497627 26.1135285,12.4307753 L25.1008703,11.6712816 C22.3160601,9.64596519 19.2780854,10.6586234 17.7590981,12.1776108 L12.4426424,17.4940665 L11.9363133,18.0003956 C9.91099684,20.025712 9.91099684,23.3168513 11.9363133,26.1016614 C13.2021361,27.8738133 15.2274525,30.6586234 16.2401108,32.4307753 L16.4932753,32.9371044 C17.5059335,34.4560918 17.252769,34.7092563 17.252769,34.9624209 C16.9996044,35.7219146 16.7464399,36.4814082 16.2401108,37.4940665 L15.7337816,37.4940665 C15.4806171,38.2535601 15.4806171,38.2535601 13.4553006,38.7598892 C12.4426424,39.0130538 10.4173259,39.2662184 8.64517405,39.5193829 C7.12618671,39.7725475 5.60719937,40.025712 4.59454114,40.2788766 C1.80973101,40.7852057 0.0375791139,43.3168513 0.0375791139,46.3548259 L0.0375791139,53.9497627 C0.0375791139,57.2409019 1.80973101,59.2662184 5.60719937,60.025712 C8.39200949,60.5320411 12.4426424,61.2915348 13.9616297,61.5446994 L14.2147943,61.5446994 C15.2274525,61.7978639 15.4806171,62.0510285 15.7337816,62.5573576 C15.9869462,62.8105222 15.9869462,63.3168513 16.2401108,63.5700158 C16.4932753,64.0763449 16.4932753,64.3295095 16.9996044,65.0890032 L16.9996044,65.3421677 C17.252769,66.3548259 17.252769,66.3548259 16.4932753,67.6206487 C15.2274525,69.3928006 12.4426424,73.190269 11.1768196,74.9624209 C9.40466772,77.4940665 10.1641614,80.5320411 11.9363133,82.304193 L16.9996044,87.3674842 L17.5059335,87.8738133 C19.53125,89.8991297 22.8223892,90.1522943 25.3540348,88.3801424 C27.1261867,87.1143196 30.1641614,85.0890032 31.9363133,83.8231804 L32.9489715,83.0636867 C33.7084652,82.5573576 34.4679589,82.5573576 34.974288,82.8105222 C35.4806171,83.0636867 35.9869462,83.3168513 36.7464399,83.5700158 L37.5059335,83.8231804 C38.2654272,84.0763449 38.2654272,84.3295095 38.7717563,85.5953323 C39.0249209,86.8611551 39.7844146,91.6712816 40.2907437,94.2029272 L40.2907437,94.4560918 C40.7970728,97.4940665 43.0755538,99.2662184 46.1135285,99.5193829 L49.9109968,99.5193829 L49.9109968,92.9371044 L49.6578323,92.9371044 Z" id="Path"></path>
            <polygon id="Path" points="58.2654272 60.025712 94.2147943 60.025712 94.2147943 66.3548259 58.2654272 66.3548259"></polygon>
            <path d="M49.4046677,64.5826741 C41.5565665,64.5826741 34.974288,58.0003956 34.974288,50.1522943 C34.974288,42.304193 41.5565665,35.7219146 49.4046677,35.7219146 C57.252769,35.7219146 63.8350475,42.304193 63.8350475,50.1522943 L63.8350475,51.6712816 L69.6578323,51.6712816 L69.6578323,50.1522943 C69.6578323,39.0130538 60.5439082,29.8991297 49.4046677,29.8991297 C38.2654272,29.8991297 29.1515032,39.0130538 29.1515032,50.1522943 C29.1515032,61.2915348 38.2654272,70.4054589 49.4046677,70.4054589 L49.4046677,64.5826741 Z" id="Path"></path>
        </g>
        <g id="Group" transform="translate(1151.000000, 872.000000)" fill="#32C5FF" fill-rule="nonzero">
            <path d="M79.4367187,63.39375 L63.6960937,63.39375 C62.0996456,63.39375 60.8054687,62.0995731 60.8054687,60.503125 L60.8054687,44.7625 C60.8054687,43.16875 62.1023437,41.871875 63.6960937,41.871875 L79.4367187,41.871875 C81.0304687,41.871875 82.3273437,43.16875 82.3273437,44.7625 L82.3273437,60.503125 C82.3239062,62.0981471 81.0317408,63.3903124 79.4367187,63.39375 Z M65.2179687,58.98125 L77.9117188,58.98125 L77.9117188,46.2875 L65.2179687,46.2875 L65.2179687,58.98125 Z M79.4367187,88.228125 L63.6960937,88.228125 C62.0996456,88.228125 60.8054687,86.9339481 60.8054687,85.3375 L60.8054687,69.596875 C60.8054687,68.003125 62.1023437,66.70625 63.6960937,66.70625 L79.4367187,66.70625 C81.0304687,66.70625 82.3273437,68.003125 82.3273437,69.596875 L82.3273437,85.3375 C82.3273437,86.93125 81.0304687,88.228125 79.4367187,88.228125 L79.4367187,88.228125 Z M65.2179687,83.815625 L77.9117188,83.815625 L77.9117188,71.121875 L65.2179687,71.121875 L65.2179687,83.815625 Z M54.6492187,88.228125 L38.9085938,88.228125 C38.1419523,88.228125 37.4067106,87.9235779 36.8646132,87.3814805 C36.3225159,86.8393832 36.0179687,86.1041414 36.0179687,85.3375 L36.0179687,69.596875 C36.0179687,68.003125 37.3148437,66.70625 38.9085937,66.70625 L54.6492187,66.70625 C56.2429688,66.70625 57.5398438,68.003125 57.5398438,69.596875 L57.5398438,85.3375 C57.5398438,86.93125 56.2429688,88.228125 54.6492187,88.228125 L54.6492187,88.228125 Z M40.4335937,83.815625 L53.1273437,83.815625 L53.1273437,71.121875 L40.4335937,71.121875 L40.4335937,83.815625 L40.4335937,83.815625 Z M92.4835937,31.55625 L92.4835937,31.534375 L92.4523437,31.534375 L50.6367187,0.546875 C49.6645021,-0.184637799 48.3248916,-0.18208616 47.3554687,0.553125 L47.3617187,0.546875 L0.06484375,36.934375 L3.39296875,41.24375 L7.59296875,38.028125 L7.59296875,92.534375 C7.59296875,96.659375 10.9367188,100 15.0585938,100 L85.0054687,100 C89.1337973,100 92.4804687,96.6533285 92.4804687,92.525 L92.4710937,48.134375 C92.4710937,46.6276732 91.2496705,45.4062502 89.7429687,45.4062502 C88.236267,45.4062502 87.0148438,46.6276732 87.0148437,48.134375 L87.0148437,59.453125 C87.0148437,59.484375 87.0242187,59.5125 87.0242187,59.54375 L87.0242187,92.525 C86.9921698,93.6177009 86.0986357,94.4877209 85.0054687,94.490625 L84.9492187,94.490625 L84.9523437,94.490625 L15.0617188,94.490625 C13.9690635,94.4894074 13.0750553,93.6203097 13.0429688,92.528125 L13.0429688,33.853125 L48.9960938,6.33125 L84.3460937,32.2875 L84.3460937,32.246875 L94.1617187,39.4125 L94.1617187,39.490625 L96.6242187,41.3 L99.7335937,36.934375 L92.4773437,31.55625 L92.4835937,31.55625 Z" id="Shape"></path>
        </g>
        <g id="Group" transform="translate(1464.000000, 872.000000)" fill="#32C5FF" fill-rule="nonzero">
            <path d="M4.19799579,52.9204546 C10.6615322,58.3272728 24.0456482,62.2386364 39.9822115,62.9454546 C43.7784779,54.3073229 51.603983,47.655762 61.3329887,44.7976174 C71.0619944,41.9394727 81.6842786,43.1715229 90.3143794,48.1590909 C90.9512425,46.4977272 90.7889049,47.7613637 90.7889049,24.5454546 C90.7890076,23.8371692 90.6788557,23.1324414 90.4617321,22.4522728 C92.976717,32.5045455 71.872821,40.9772728 45.4242695,40.9772728 C20.4492445,40.9772728 0.177016763,33.4159091 0.177016763,24.0659091 C-0.0102959736,24.8113637 0.0546391011,22.575 0.0546391011,45.6409091 C0.229055254,48.4947629 1.73711117,51.1442962 4.19799579,52.9204546 Z M9.95473901,39.8886363 C12.068012,39.5751679 14.1718161,40.494501 15.2242547,42.1913413 C16.2766934,43.8881817 16.0543243,46.0022746 14.6672744,47.4866282 C13.2802245,48.9709817 11.0229771,49.5104541 9.01342075,48.8378748 C7.00386436,48.1652954 5.66864603,46.4234591 5.66902473,44.475 C5.47612113,42.1352628 7.38838704,40.0900404 9.95723654,39.8886363 L9.95473901,39.8886363 Z" id="Shape"></path>
            <path d="M37.6345592,69.9522728 C16.3908029,68.6545455 0.172021699,61.6818182 0.172021699,53.2568182 C-0.0127935053,54.0022728 0.0521415694,51.7681818 0.0521415694,74.8340909 C0.22130779,77.6748693 1.70504319,80.317461 4.13555814,82.1068182 C10.9862075,87.925 25.7764173,92.0022728 43.0791147,92.2522728 C38.1573056,85.741818 36.2053157,77.7467897 37.6345592,69.9522728 L37.6345592,69.9522728 Z M9.81737637,78.2568182 C7.69645177,78.6038892 5.56362217,77.7059004 4.48132101,76.01017 C3.39901984,74.3144395 3.59871576,72.1836284 4.98093358,70.6791646 C6.36315139,69.1747008 8.63228014,68.6183396 10.6579912,69.2872231 C12.6837024,69.9561066 14.0327628,71.7071826 14.0331606,73.6681818 C14.2402159,75.988587 12.3636178,78.031155 9.81737637,78.2568182 L9.81737637,78.2568182 Z" id="Shape"></path>
            <path d="M45.4292645,33.825 C70.4192744,33.825 90.6740197,26.2522728 90.6740197,16.9113637 C90.6740197,7.57045459 70.416777,0 45.4292645,0 C20.4417519,0 0.179514187,7.57045459 0.179514187,16.9113637 C0.179514187,26.2522728 20.4392545,33.825 45.4292645,33.825 Z" id="Path"></path>
            <path d="M99.8898039,72.5386363 C99.8898039,70.1227272 97.514679,70.0545454 95.3942995,69.775 C93.3663274,69.4977272 93.2214722,67.9204546 92.3298639,66.2318182 C90.7514423,63.2022728 96.7479459,61.6272728 93.6360577,58.7931818 C90.5241695,55.9590909 88.8233704,53.6272728 86.4157779,55.2568182 C84.8048888,56.3454545 83.6485451,57.4636363 81.8353584,56.6818182 C80.0221717,55.9 78.2339598,55.7340909 77.946747,53.8931818 C77.1725212,49.1204546 76.8453483,49.8022728 69.7824114,49.8022728 C65.3843094,49.8022728 68.3863074,54.775 64.924769,55.8909091 C62.9991945,56.5204545 61.6355581,57.5477272 60.0071865,56.4295454 C55.7739198,53.5659091 56.1685252,54.1340908 51.0511426,58.7909091 C49.2029907,60.475 50.6315622,61.8636363 52.0826112,63.6409091 C53.2988949,65.1340909 52.1850088,66.3477272 51.490703,68.1227272 C50.2544393,71.275 44.7948988,68.5295454 44.7948988,72.5363637 C44.7159408,74.3878837 44.7751846,76.2421458 44.9722215,78.0863637 C45.8113823,80.2772728 47.8493444,79.3681818 49.9672266,80.1318182 L50.0221716,80.1568182 C50.0969511,80.1841551 50.1688425,80.2176264 50.2369568,80.2568182 L50.2644293,80.2704546 C50.3043894,80.2886364 50.3393544,80.3136364 50.3793145,80.3318182 C50.8942907,80.6256131 51.2823543,81.071851 51.4782156,81.5954546 C51.5481456,81.7886364 51.8028909,82.3795455 51.8778159,82.5522728 C52.5221716,83.9477273 53.1265672,84.7681818 52.0651287,86.0636363 C49.0231706,89.775 49.5076861,89.5181817 54.6600337,94.2090909 C57.7094842,97.0022728 59.5351586,91.6068182 62.8268668,93.0272728 C64.1080856,93.5977273 66.07362,93.9636364 66.5281656,95.1954546 L66.5431506,95.2204546 C67.0051887,96.1295455 66.7154783,97.5568183 67.3523414,98.6136363 C68.3288648,100.390909 71.3808129,99.9022727 74.8873064,99.9022728 C79.2854083,99.9022728 76.2834103,94.9318182 79.7449488,93.8136363 C83.7409528,92.5045454 82.9392545,92.1068182 86.3982954,94.4454546 C88.9282655,96.1568183 90.8937999,93.3795455 93.6185752,90.9136363 C96.6830107,88.125 90.7539398,86.4681817 92.3123814,83.4772728 C92.6369207,82.8594509 92.9261836,82.2267903 93.1790147,81.5818182 C93.8533404,79.8636363 95.5416521,79.9113636 97.5196741,79.6522728 C100.52417,79.2863637 99.8898039,76.5136364 99.8898039,72.5386363 L99.8898039,72.5386363 Z M72.3398539,83.6136366 C67.0362424,83.6111259 62.7385362,79.6974999 62.7394556,74.8712129 C62.7403753,70.0449258 67.0395726,66.1326563 72.3431848,66.1318193 C77.6467969,66.1309827 81.9474848,70.0418954 81.9502438,74.8681818 C81.9509062,77.1878054 80.9385987,79.4125964 79.1361574,81.052818 C77.333716,82.6930396 74.8888908,83.6142394 72.3398539,83.6136366 L72.3398539,83.6136366 Z" id="Shape"></path>
        </g>
        <g id="Group" transform="translate(1777.000000, 872.000000)" fill="#32C5FF" fill-rule="nonzero">
            <path d="M63.4515792,69.8862655 C66.9147827,72.1974603 69.0119448,75.9154695 68.8772647,79.8532933 C68.7041046,84.9592754 64.9170274,89.2739245 58.3209075,91.4783522 C58.2524888,95.758698 54.945535,99.3219361 50.6010119,99.7965291 C46.2564887,100.271122 42.2290098,97.5090929 41.1990912,93.3487288 C40.1691726,89.1883647 42.4579409,84.926859 46.5420908,83.4004859 C50.6262406,81.8741127 55.2323422,83.5587922 57.2947732,87.3332745 C59.6131955,86.5136796 61.386484,85.4083255 62.6082251,84.0988578 C63.8492063,82.773689 64.4905404,81.2726684 64.541847,79.7151241 C64.6540805,76.6251571 62.4350649,73.6136953 58.9205547,72.3576111 L58.9622414,72.2571244 C57.9040404,72.7469971 56.8137726,73.1960473 55.6946448,73.6042746 C49.2813051,75.9876943 42.258698,77.0616463 35.9960718,76.7350644 C29.6051788,76.3959216 24.4007536,74.6091419 21.6141575,71.5223151 C18.8339747,68.4511894 18.6704345,64.5133655 21.0818502,60.296063 C19.1389832,59.8331176 17.3536096,58.8804448 15.9030784,57.5326778 C11.6670675,58.3302912 7.84792369,56.7476252 5.00040086,53.3373567 C2.49599165,50.3353155 0.825316634,46.0300871 0.244909371,41.3637345 C-0.345117911,36.6879613 0.203222656,31.9745054 1.88351769,28.1748508 C3.59587942,24.3061117 6.39530217,21.536446 10.1182459,20.3086238 C10.9519801,14.7975545 13.0202821,10.4483631 16.1467853,7.38037757 C19.2316018,4.35949512 23.2110791,2.7234456 27.4983967,2.52561235 C30.907553,2.3751334 34.2965565,3.11191441 37.3204265,4.66095541 C40.2833894,1.54900694 45.1286676,-0.319418313 49.9418791,0.0888090997 C54.17789,0.459353951 58.0355139,2.46280815 61.190877,6.05206859 C65.3852012,4.67665641 70.3330929,4.40659832 74.508177,5.7506084 C78.2728074,6.96901008 81.2261504,9.39325251 83.1084656,13.0296162 C88.7522046,14.5840203 93.7257495,18.0445322 95.8549784,22.4094246 C97.9713805,26.774317 98.1958474,31.7923732 96.2814655,36.5843343 C100.200016,41.4705017 100.81249,48.3978058 97.6763669,53.6513778 C95.8966651,56.6345777 93.0555556,58.8358651 89.4095719,59.9443594 C85.513468,61.1187981 80.8189033,61.0183114 75.5054514,59.5455526 C75.2556609,59.4787321 75.0207719,59.3669164 74.8128106,59.2158306 C74.2933301,59.9537801 73.7449896,60.6917295 73.1645823,61.4296789 C70.5575597,64.7488813 67.2578964,67.5687902 63.4515792,69.8831253 L63.4515792,69.8862655 Z M25.9976752,60.6728882 C24.5867405,62.5193319 23.862033,64.1522413 23.7401796,65.5276535 C23.6375661,66.7334943 24.0063332,67.7603431 24.8496874,68.699266 C26.7320026,70.7812255 30.8782268,72.1974604 36.2205387,72.4863597 C41.8803111,72.7846797 48.2936508,71.7986537 54.1458233,69.6287682 C60.5816097,67.2327877 66.0072952,63.565022 69.7302389,58.848426 C73.2960558,54.3328034 75.2906044,50.1971463 75.781225,46.4383144 C71.5236225,45.4022022 68.7223485,41.4209277 69.2500347,37.155945 C69.777721,32.8909622 73.4688553,29.6800116 77.8559404,29.669591 C82.2097503,29.6632471 85.8953472,32.8151797 86.475172,37.0407815 C87.0549969,41.2663833 84.3497916,45.2592706 80.1487093,46.3786505 C79.850489,49.3398689 78.8339747,52.4078545 77.1023729,55.5700463 C81.4698573,56.7256438 85.1767676,56.7758871 88.1269039,55.8777869 C90.7435465,55.0927343 92.6996152,53.566592 93.9309765,51.5128945 C96.3231522,47.505986 95.6208915,41.9823559 92.1801347,38.4433388 C91.5600602,37.8074419 91.406816,36.8620128 91.7953343,36.0693398 C93.7257495,32.0530106 93.6968896,27.8671102 91.9364277,24.2464476 C90.6922398,21.6965968 88.1397306,19.4827484 84.891374,18.0979157 C85.0228474,18.6945557 85.1254609,19.3037565 85.2152477,19.9412192 C85.320173,21.0727482 84.4979975,22.0850729 83.3485525,22.239636 C82.1991074,22.394199 81.1287208,21.6363625 80.9183101,20.5190179 C80.0845759,14.5180758 77.3364599,11.1611909 73.1549623,9.80147982 C70.3427128,8.89395897 66.9147827,8.953623 63.8395863,9.72297452 C64.5001603,10.8283286 65.1126342,12.0341694 65.6705948,13.3342165 C65.8957712,13.8532133 65.8998052,14.4388123 65.6817992,14.9607368 C65.4637932,15.4826612 65.0418291,15.8976216 64.5097803,16.1133027 C63.9797994,16.3338123 63.3818068,16.3377626 62.8488363,16.1242748 C62.3158659,15.9107871 61.8921233,15.4975684 61.6718775,14.9765465 C60.1134359,11.3590241 58.1477473,8.67728445 55.8998718,6.9030656 C53.9438031,5.35494191 51.7953343,4.51022527 49.5666987,4.31867248 C46.3087221,4.03919375 43.0218855,5.21677269 40.9343435,7.11974012 C43.0186789,9.00386638 44.5065738,11.3684448 45.0260542,14.0093617 C45.1387947,14.5635081 45.0205861,15.138794 44.6977519,15.6071108 C44.3749177,16.0754277 43.8742638,16.3978897 43.3072792,16.5026888 C42.7409399,16.6130254 42.1530634,16.4968437 41.6747479,16.1800528 C41.1964324,15.8632619 40.8674566,15.3722073 40.7611832,14.8163958 C39.8344556,10.1500432 33.9309765,6.46343618 27.7004169,6.75233555 C24.4616803,6.9030657 21.511544,8.11832709 19.2219818,10.3635775 C16.5636524,12.9636717 14.8224307,16.9014955 14.2420234,22.1833294 C14.1433747,23.1020458 13.4476629,23.8519764 12.5232484,24.0360536 C9.50897869,24.6452544 7.27072317,26.6487086 5.862995,29.8391624 C4.5097803,32.9008675 4.05122654,36.8669532 4.54184699,40.8361792 C5.02926081,44.7520215 6.40171555,48.3035995 8.34816417,50.6242149 C9.77192564,52.3293492 11.4137406,53.2871133 13.2351291,53.4472641 C11.7793009,48.862557 13.9886965,43.08771 18.8147346,39.0399788 C17.6648244,37.5742394 17.0444769,35.7760674 17.0510663,33.9277163 C17.0497568,30.1431178 19.6026733,26.813132 23.3141916,25.7581902 C27.0257098,24.7032483 31.0024992,26.1772659 33.070535,29.3744293 C35.1385708,32.5715927 34.8000946,36.7223721 32.2401439,39.5576263 C29.6801933,42.3928805 25.5149264,43.2301881 22.0214045,41.6118111 C16.9099727,45.5684763 15.6882315,50.385559 18.0804073,53.566592 C19.2829085,55.1712396 21.094677,56.1572656 23.4772327,56.4084825 C26.2862754,56.6973819 29.7783389,55.9500118 33.809123,54.043904 C35.7536851,53.099736 37.8658579,52.5314599 40.0300625,52.3701719 C41.5660574,52.2602645 42.7364919,52.3387698 44.9747474,52.5994073 C46.1964886,52.7375765 46.6261824,52.7878199 47.2162097,52.819222 C49.6468655,52.9573912 51.3880872,52.4580978 53.5782427,50.715281 C55.7042648,49.0195674 56.2846721,46.161976 55.0725509,41.7939433 C51.0562144,43.4124586 46.4364442,41.8762797 44.256927,38.1975018 C42.0774098,34.5187239 43.0084889,29.8288103 46.4367326,27.217661 C49.8649762,24.6065117 54.7359769,24.8772247 57.8405271,27.8514437 C60.9450774,30.8256627 61.3283264,35.588622 58.7377746,39.0022963 L58.7698413,39.0808015 C60.9984769,45.7317671 60.2865961,50.8440296 56.3071188,54.0156422 C53.2415423,56.4555856 50.4324996,57.2531991 46.9596761,57.0647865 C46.1192689,57.0116671 45.2808251,56.9320739 44.4456469,56.8261305 C42.4703382,56.5968951 41.5147506,56.5372311 40.3218695,56.6157364 C38.7024483,56.736113 37.1228022,57.1660466 35.6721981,57.8812412 C32.2186147,59.5267115 28.9510181,60.4562137 26.0008818,60.6760284 L25.9976752,60.6728882 Z M51.7953343,38.1732819 C53.3476668,38.1744027 54.7826924,37.3644438 55.5598508,36.0485078 C56.3370092,34.7325717 56.3382315,33.1105805 55.5630574,31.7935226 C54.7878834,30.4764647 53.3540802,29.6644324 51.8017477,29.6633094 C49.4020497,29.6615764 47.4552745,31.5651921 47.4535022,33.9151554 C47.4517325,36.2651188 49.3956363,38.1715464 51.7953343,38.1732819 L51.7953343,38.1732819 Z M25.7347282,38.1732819 C27.2870607,38.1744027 28.7220863,37.3644438 29.4992447,36.0485078 C30.2764031,34.7325717 30.2776255,33.1105805 29.5024514,31.7935226 C28.7272773,30.4764647 27.2934741,29.6644324 25.7411416,29.6633094 C23.3414436,29.6615764 21.3946684,31.5651921 21.3928962,33.9151554 C21.3911264,36.2651188 23.3350302,38.1715464 25.7347282,38.1732819 L25.7347282,38.1732819 Z M77.8559404,42.4345474 C79.4082729,42.4356682 80.8432984,41.6257093 81.6204568,40.3097732 C82.3976152,38.9938372 82.3988376,37.371846 81.6236635,36.0547881 C80.8484894,34.7377301 79.4146862,33.9256979 77.8623537,33.9245749 C75.4626557,33.9228419 73.5158805,35.8264577 73.5141083,38.176421 C73.5123385,40.5263843 75.4562424,42.4328119 77.8559404,42.4345474 L77.8559404,42.4345474 Z M49.6276255,95.5983082 C51.3859037,95.5983082 52.9708673,94.5605878 53.642829,92.969452 C54.3147907,91.3783161 53.9412811,89.5474343 52.6966136,88.3312616 C51.451946,87.1150889 49.5814921,86.7533795 47.9581748,87.4149397 C46.3348575,88.0764998 45.2786948,89.6309108 45.282577,91.3527438 C45.282577,93.7047614 47.2258297,95.5983082 49.6276255,95.5983082 L49.6276255,95.5983082 Z" id="Shape"></path>
        </g>
        <g id="Group" transform="translate(948.000000, 255.000000)" fill="#32C5FF" fill-rule="nonzero">
            <path d="M112.43817,7.44296875 C104.604865,4.02957558 95.3951351,4.02957558 87.5618304,7.44296875 L14.8584821,39.1238281 C9.17370952,41.6010085 5.58035714,46.679454 5.58035714,52.2363281 L5.58035714,123.741016 C5.58035714,129.29789 9.17370952,134.376335 14.8584821,136.853516 L87.5616071,168.534375 C95.394973,171.947833 104.604804,171.947833 112.43817,168.534375 L185.141518,136.853516 C190.82629,134.376335 194.419643,129.29789 194.419643,123.741016 L194.419643,52.2363281 C194.419643,46.679454 190.82629,41.6010085 185.141518,39.1238281 L112.438393,7.44296875 L112.43817,7.44296875 Z M114.925893,3.07207031 L187.629018,34.753125 C195.208929,38.0558594 200,44.8271484 200,52.2363281 L200,123.741016 C200,131.150195 195.208705,137.921484 187.629241,141.224219 L114.925893,172.905273 C105.525878,177.001397 94.4741217,177.001397 85.0741071,172.905273 L12.3709821,141.224219 C4.79107143,137.921484 0,131.150391 0,123.741016 L0,52.2363281 C0,44.8271484 4.79129464,38.0558594 12.3707589,34.753125 L85.0741071,3.07207031 C94.4741217,-1.02405337 105.525878,-1.02405337 114.925893,3.07207031 Z" id="Shape"></path>
            <path d="M50.5022321,61.6582031 C49.3192438,62.1772824 48.3596548,63.0169913 47.7665179,64.0521484 C46.246875,66.7037109 47.4716518,69.93125 50.5022321,71.2609375 L96.9178571,91.6261719 C98.643855,92.3834201 100.676455,92.3859523 102.404911,91.6330078 L149.157589,71.2677734 C150.353129,70.7470489 151.321977,69.8993756 151.917187,68.8533203 C153.427902,66.1978516 152.192411,62.9734375 149.157589,61.6513672 L102.404911,41.2861328 C100.67642,40.5332497 98.6438199,40.5358544 96.9178571,41.2931641 L50.5022321,61.6583984 L50.5022321,61.6582031 Z M51.5930804,98.6861328 L48.0008929,97.1099609 C42.2151786,94.5716797 39.8770089,88.4101562 42.778125,83.3478516 C43.9105549,81.3717625 45.7425054,79.7688058 48.0008929,78.7779297 L51.5930804,77.2017578 L48.0008929,75.6255859 C42.2151786,73.0873047 39.8770089,66.9257813 42.778125,61.8634766 C43.9105549,59.8873875 45.7425054,58.2844308 48.0008929,57.2935547 L94.4165179,36.9283203 C97.7116075,35.4825447 101.5921,35.4776248 104.891964,36.9150391 L151.64442,57.2802734 C157.438393,59.8041016 159.797098,65.9597656 156.912723,71.0292969 C155.776489,73.026441 153.92687,74.6448575 151.64442,75.6390625 L148.056696,77.2017578 L151.64442,78.7646484 C157.438393,81.2884766 159.797098,87.4441406 156.912723,92.5136719 C155.776489,94.510816 153.92687,96.1292325 151.64442,97.1234375 L148.056696,98.6861328 L151.64442,100.249023 C157.438393,102.772852 159.797098,108.928516 156.912723,113.998047 C155.776489,115.995191 153.92687,117.613607 151.64442,118.607813 L104.891741,138.973047 C101.591842,140.4104 97.7113492,140.405407 94.4162946,138.95957 L48.0008929,118.594336 C42.2151786,116.056055 39.8770089,109.894531 42.778125,104.832227 C43.9105549,102.856138 45.7425054,101.253181 48.0008929,100.262305 L51.5930804,98.6861328 L51.5930804,98.6861328 Z M57.8176339,101.417383 L50.5022321,104.626953 C49.3192785,105.145982 48.3596936,105.985619 47.7665179,107.020703 C46.246875,109.672266 47.4716518,112.899805 50.5022321,114.229492 L96.9178571,134.594727 C98.643855,135.351975 100.676455,135.354507 102.404911,134.601562 L149.157589,114.236328 C150.353129,113.715604 151.321977,112.86793 151.917187,111.821875 C153.427902,109.166406 152.192411,105.941992 149.157589,104.619922 L141.795982,101.413281 L104.891964,117.488281 C101.5921,118.925696 97.7116075,118.920776 94.4165179,117.475 L57.8176339,101.417188 L57.8176339,101.417383 Z M141.795759,79.9291016 L104.891741,96.0041016 C101.591877,97.4415158 97.7113843,97.4365959 94.4162946,95.9908203 L57.8176339,79.9330078 L50.5022321,83.1427734 C49.3192785,83.6618022 48.3596936,84.501439 47.7665179,85.5365234 C46.246875,88.1880859 47.4716518,91.415625 50.5022321,92.7453125 L96.9178571,113.110547 C98.643855,113.867795 100.676455,113.870327 102.404911,113.117383 L149.157589,92.7521484 C150.353129,92.2314239 151.321977,91.3837506 151.917187,90.3376953 C153.427902,87.6822266 152.192411,84.4578125 149.157589,83.1357422 L141.795982,79.9291016 L141.795759,79.9291016 Z" id="Shape"></path>
        </g>
        <g id="Group" transform="translate(1553.000000, 269.000000)" fill="#32C5FF" fill-rule="nonzero">
            <path d="M51.5388258,143.076736 L10.771149,143.076736 C4.93394136,143.052368 0.207443234,137.85322 0.185290404,131.432292 L0.185290404,84.9434028 C0.207443234,78.5224744 4.93394136,73.3233264 10.771149,73.2989583 L25.4378157,73.2989583 L25.4378157,77.4322917 L10.771149,77.4322917 C8.94945997,77.4322917 7.20238259,78.2283211 5.91425393,79.6452627 C4.62612527,81.0622042 3.90246212,82.9839893 3.90246212,84.9878472 L3.90246212,131.432292 C3.90246212,135.60511 6.97767798,138.987847 10.771149,138.987847 L51.5388258,138.987847 L51.5388258,143.076736 Z M60.2660985,138.943403 L87.2964015,138.943403 L87.2964015,143.076736 L60.2660985,143.076736 L60.2660985,138.943403 Z M189.276199,120.410069 L168.710543,120.410069 L168.710543,116.276736 L189.154987,116.276736 C192.948458,116.276736 196.023674,112.893999 196.023674,108.721181 L196.023674,84.9434028 C196.023674,80.7705847 192.948458,77.3878472 189.154987,77.3878472 L166.08428,77.3878472 L166.08428,73.2545139 L189.235795,73.2545139 C195.073003,73.278882 199.799501,78.4780299 199.821654,84.8989583 L199.821654,108.721181 C199.821654,115.142221 195.11334,120.36124 189.276199,120.410069 L189.276199,120.410069 Z M131.538826,116.276736 L159.094381,116.276736 L159.094381,120.410069 L131.538826,120.410069 L131.538826,116.276736 Z" id="Shape"></path>
            <path d="M135.296402,158.943403 L83.5388258,158.943403 L83.5388258,56.2767361 L135.296402,56.2767361 L135.296402,158.943403 Z M87.2964015,154.765625 L131.740846,154.765625 L131.740846,60.365625 L87.2964015,60.365625 L87.2964015,154.765625 Z" id="Shape"></path>
            <path d="M97.801452,76.5434028 L121.074179,76.5434028 L121.074179,80.6767361 L97.801452,80.6767361 L97.801452,76.5434028 Z M97.801452,92.1434028 L121.074179,92.1434028 L121.074179,96.2767361 L97.801452,96.2767361 L97.801452,92.1434028 Z M97.801452,107.743403 L121.074179,107.743403 L121.074179,111.876736 L97.801452,111.876736 L97.801452,107.743403 Z" id="Shape"></path>
            <path d="M109.397412,144.187847 C105.589747,144.187847 102.157009,141.664797 100.699879,137.795191 C99.2427488,133.925585 100.048183,129.471476 102.740608,126.509808 C105.433034,123.54814 109.482224,122.662163 113.000048,124.265006 C116.517871,125.867849 118.811553,129.64386 118.811553,133.832292 C118.811553,139.551507 114.596698,144.187847 109.397412,144.187847 Z M109.397412,127.610069 C106.273377,127.610069 103.740846,130.395853 103.740846,133.832292 C103.740846,137.26873 106.273377,140.054514 109.397412,140.054514 C112.521447,140.054514 115.053977,137.26873 115.053977,133.832292 C115.053977,130.38859 112.527971,127.590048 109.397412,127.565625 L109.397412,127.610069 Z" id="Shape"></path>
            <path d="M147.942866,102.587847 L144.710543,102.587847 L144.710543,98.4545139 L147.942866,98.4545139 C157.801966,98.3412409 165.816093,89.6752771 166.087755,78.8337936 C166.359417,67.99231 158.791425,58.8539005 148.952967,58.1434028 L146.447917,58.1434028 L147.296402,55.5211806 C147.632792,54.5066424 147.90284,53.4669571 148.104482,52.4100694 C148.401222,50.8316095 148.536742,49.2216271 148.508523,47.6100694 C148.516632,39.4510681 144.575817,31.9041847 138.164705,27.8010729 C131.753592,23.697961 123.841615,23.6590572 117.397412,27.6989583 L115.660038,28.8100694 L114.811553,26.8100694 C107.989577,10.8869269 92.4479339,1.80905026 76.6350377,4.51115945 C60.8221416,7.21326863 48.5165291,21.049687 46.4075126,38.4989583 C46.1674999,40.2048312 46.0459363,41.928333 46.0438763,43.6545139 L46.0438763,46.6767361 L44.4681187,46.9878472 C32.4121385,49.3413715 24.0155843,61.4776294 25.1660013,74.8868482 C26.3164183,88.296067 36.6287605,98.4901632 48.8721591,98.3211806 L74.1650884,98.3211806 L74.1650884,102.454514 L48.9529672,102.454514 C35.5582317,101.939451 24.4889988,90.7946244 22.8401837,76.1634007 C21.1913685,61.532177 29.4517226,47.75163 42.3267045,43.6545139 C42.3358107,41.7941961 42.4708644,39.9372079 42.7307449,38.0989583 C45.0576939,19.2790381 58.1411205,4.2503191 75.1333988,0.878557705 C92.125677,-2.49320369 109.158259,6.55962473 117.316604,23.2989583 C124.927106,19.3492575 133.847089,19.9673454 140.946848,24.9363569 C148.046607,29.9053685 152.334668,38.5313859 152.306503,47.7878472 C152.312578,49.6403433 152.136469,51.4881277 151.78125,53.2989583 C151.78125,53.6841435 151.700442,54.0841435 151.538826,54.4989583 C162.807284,56.6392576 170.730679,67.8814497 169.807096,80.4190849 C168.883513,92.9567201 159.417987,102.64896 147.98327,102.765625 L147.942866,102.587847 Z" id="Path"></path>
            <path d="M78.4075126,70.8545139 L76.5489268,70.5878472 C67.4395419,69.3691742 60.6972737,60.6778663 61.0360864,50.59059 C61.3748991,40.5033136 68.6818386,32.3829885 77.8481417,31.9070693 C87.0144447,31.4311501 94.984228,38.7582998 96.1852904,48.765625 L96.4277146,50.8100694 L92.7105429,51.3434028 L92.4681187,49.2989583 C91.5323206,41.4193845 85.2649776,35.6420346 78.0484707,36.0066664 C70.8319638,36.3712983 65.0725007,42.7563324 64.797332,50.6970933 C64.5221634,58.6378543 69.823039,65.4866455 76.9933712,66.4545139 L78.8519571,66.7211806 L78.4075126,70.8545139 Z" id="Path"></path>
        </g>
        <rect id="Rectangle" fill="#EEEEEE" opacity="0.8" x="2022" y="165" width="434" height="1066"></rect>
        <text id="MANAGEMENT-CONSOLE" font-family="TrebuchetMS-Bold, Trebuchet MS" font-size="24" font-weight="bold" fill="#000000" fill-opacity="0.5">
            <tspan x="2165.84766" y="1139">MANAGEMENT</tspan>
            <tspan x="2192.17969" y="1167">CONSOLE</tspan>
        </text>
        <text id="WORKLOAD-MANAGER" font-family="TrebuchetMS-Bold, Trebuchet MS" font-size="24" font-weight="bold" fill="#000000" fill-opacity="0.5">
            <tspan x="2177.83984" y="939">WORKLOAD</tspan>
            <tspan x="2187.63672" y="967">MANAGER</tspan>
        </text>
        <g id="Group" transform="translate(2199.000000, 628.000000)" fill="#EB792D" fill-rule="nonzero">
            <path d="M31.5,39.8333333 C30.1666667,39.8333333 28.5,38.6666667 28.5,37.1666667 C28.5,35.6666667 30,33.8333333 31.5,33.8333333 L63.5,33.8333333 C64.8333333,33.8333333 65.6666667,35.6666667 65.6666667,37.1666667 C65.6666667,38.6666667 64.8333333,39.8333333 63.5,39.8333333 L31.5,39.8333333 Z M31.6666667,50.3333333 C31,50.3333333 30.3333333,50 29.8333333,49.5 C29.3333333,49 29.1666667,48.3333333 29.1666667,47.6666667 C29.1666667,46.1666667 30.3333333,45 31.6666667,45 L63.6666667,45 C65,45 66.1666667,46.1666667 66.1666667,47.6666667 C66.1666667,48.3333333 65.8333333,49 65.5,49.5 C65.1666667,50 64.3333333,50.3333333 63.6666667,50.3333333 L31.6666667,50.3333333 Z M31.6666667,63.5 C31,63.5 30.3333333,63.1666667 29.8333333,62.6666667 C29.3333333,62.1666667 29.1666667,61.5 29.1666667,60.8333333 C29.1666667,59.3333333 30.3333333,58.1666667 31.6666667,58.1666667 L63.6666667,58.1666667 C65,58.1666667 66.1666667,59.3333333 66.1666667,60.8333333 C66.1666667,61.5 65.8333333,62.1666667 65.5,62.6666667 C65,63.1666667 64.3333333,63.5 63.6666667,63.5 L31.6666667,63.5 Z M25.8333333,22.5 C24.3333333,22.5 23.1666667,23.6666667 23.1666667,25.1666667 L23.1666667,71.6666667 C23.1666667,73.1666667 24.3333333,74.3333333 25.8333333,74.3333333 L71.5,74.3333333 C72.1666667,74.3333333 72.8333333,74 73.3333333,73.5 C73.8333333,73 74.1666667,72.3333333 74.1666667,71.6666667 L74.1666667,25 C74.1666667,24.3333333 73.8333333,23.6666667 73.3333333,23.1666667 C72.8333333,22.6666667 72.1666667,22.3333333 71.5,22.3333333 L25.8333333,22.3333333 L25.8333333,22.5 L25.8333333,22.5 Z M25.1666667,17.1666667 L71.6666667,17 C76,17 79.6666667,20.5 79.6666667,24.8333333 L79.5,71.6666667 C79.5,76 76,79.5 71.5,79.5 L25,79.6666667 C22.8333333,79.6666667 20.8333333,78.8333333 19.3333333,77.3333333 C17.8333333,75.8333333 17,73.8333333 17,71.8333333 L17.1666667,25 C17.1666667,20.6666667 20.8333333,17.1666667 25.1666667,17.1666667 L25.1666667,17.1666667 Z M2.66666667,63.8333333 C1.16666667,63.8333333 0,62.6666667 0,61.1666667 L0,10.3333333 C0,4.66666667 4.66666667,0 10.6666667,0 L54.3333333,0 C55.8333333,0 57,1.16666667 57,2.66666667 C57,3.33333333 56.6666667,4 56.1666667,4.5 C55.6666667,5 55,5.16666667 54.3333333,5.16666667 L10.6666667,5.16666667 C7.83333333,5.16666667 5.33333333,7.5 5.33333333,10.3333333 L5.33333333,61.1666667 C5.33333333,61.8333333 5,62.5 4.5,63 C4,63.5 3.33333333,63.8333333 2.66666667,63.8333333 L2.66666667,63.8333333 Z" id="Shape"></path>
        </g>
        <g id="Group" transform="translate(2199.000000, 434.000000)" fill="#EB792D" fill-rule="nonzero">
            <path d="M23.7406832,69.5160156 C21.802795,69.5160156 20.2127329,67.649349 20.2127329,65.374349 C20.2127329,63.099349 21.802795,61.2326823 23.7406832,61.2326823 L76.0636646,61.2326823 C78.0015528,61.2326823 79.5916149,63.099349 79.5916149,65.374349 C79.5916149,67.649349 78.0015528,69.5160156 76.0636646,69.5160156 L23.7406832,69.5160156 Z M3.61645963,69.5160156 C1.67857143,69.5160156 0.0885093168,67.649349 0.0885093168,65.374349 C0.0885093168,63.099349 1.67857143,61.2326823 3.61645963,61.2326823 L7.64130435,61.2326823 C9.57919255,61.2326823 11.1692547,63.099349 11.1692547,65.374349 C11.1692547,67.649349 9.57919255,69.5160156 7.64130435,69.5160156 L3.61645963,69.5160156 Z M23.6909938,38.8910156 C21.7531056,38.8910156 20.1630435,37.024349 20.1630435,34.749349 C20.1630435,32.474349 21.7531056,30.6076823 23.6909938,30.6076823 L39.7903727,30.6076823 C41.7282609,30.6076823 43.318323,32.474349 43.318323,34.749349 C43.318323,37.024349 41.7282609,38.8910156 39.7903727,38.8910156 L23.6909938,38.8910156 Z M3.61645963,38.8910156 C1.67857143,38.8910156 0.0885093168,37.024349 0.0885093168,34.749349 C0.0885093168,32.474349 1.67857143,30.6076823 3.61645963,30.6076823 L7.64130435,30.6076823 C9.57919255,30.6076823 11.1692547,32.474349 11.1692547,34.749349 C11.1692547,37.024349 9.57919255,38.8910156 7.64130435,38.8910156 L3.61645963,38.8910156 Z M23.7406832,8.32434896 C21.802795,8.32434896 20.2127329,6.45768229 20.2127329,4.18268229 C20.2127329,1.90768229 21.802795,0.041015625 23.7406832,0.041015625 L76.0636646,0.041015625 C78.0015528,0.041015625 79.5916149,1.90768229 79.5916149,4.18268229 C79.5916149,6.45768229 78.0015528,8.32434896 76.0636646,8.32434896 L23.7406832,8.32434896 Z M3.61645963,8.32434896 C1.67857143,8.32434896 0.0885093168,6.45768229 0.0885093168,4.18268229 C0.0885093168,1.90768229 1.67857143,0.041015625 3.61645963,0.041015625 L7.64130435,0.041015625 C9.57919255,0.041015625 11.1692547,1.90768229 11.1692547,4.18268229 C11.1692547,6.45768229 9.57919255,8.32434896 7.64130435,8.32434896 L3.61645963,8.32434896 Z" id="Shape"></path>
        </g>
        <g id="Group" transform="translate(2199.000000, 832.000000)" fill="#EB792D" fill-rule="nonzero">
            <path d="M74.4685714,0 C77.28,0 79.5942857,2.22807018 79.5942857,4.93567251 L79.5942857,74.6725146 C79.5942857,77.380117 77.28,79.6081871 74.4685714,79.6081871 L5.12571429,79.6081871 C2.31428571,79.6081871 0,77.380117 0,74.6725146 L0,4.93567251 C0,2.22807018 2.31428571,0 5.12571429,0 L74.4685714,0 Z M74.4685714,4.21636616 L5.12571429,4.21636616 C4.93067184,4.21546675 4.74264244,4.29076456 4.6,4.42690058 C4.46120859,4.55789938 4.38285552,4.74244908 4.38285552,4.93567251 L4.38285552,74.6725146 C4.38285552,74.8596491 4.45714286,75.0467836 4.6,75.1812865 C4.74352005,75.3152954 4.9314494,75.3884626 5.12571429,75.3860268 L74.4685714,75.3860268 C74.6628363,75.3884626 74.8507657,75.3152954 74.9942857,75.1812865 C75.1330771,75.0502878 75.2114302,74.8657381 75.2114302,74.6725146 L75.2114302,4.93567251 C75.2114302,4.74244908 75.1330771,4.55789938 74.9942857,4.42690058 C74.8516433,4.29076456 74.6636139,4.21546675 74.4685714,4.21636616 Z M53.2285714,11.5438596 C54.96,11.5438596 56.3714286,12.8947368 56.3714286,14.5672515 L56.3714286,20.7017544 C59.5085714,21.9005848 61.7428571,24.8421053 61.6571429,28.2690058 L61.6571429,35.8304094 C61.6571429,39.251462 59.5085714,42.1988304 56.3657143,43.3918129 L56.3657143,65.122807 C56.3657143,66.7953216 54.96,68.1520468 53.2228571,68.1520468 C51.4914286,68.1520468 50.0857143,66.7953216 50.0857143,65.122807 L50.0857143,43.3918129 C47.0285714,42.1988304 44.7942857,39.251462 44.7942857,35.8304094 L44.7942857,28.2631579 C44.7942857,24.8362573 46.9428571,21.8888889 50.0857143,20.6959064 L50.0857143,14.5672515 C50.0857143,12.8947368 51.4914286,11.5438596 53.2285714,11.5438596 L53.2285714,11.5438596 Z M26.3657143,11.4619883 C28.1028571,11.4619883 29.5085714,12.8187135 29.5085714,14.4912281 L29.5085714,33.5964912 C32.6514286,34.7894737 34.7942857,37.7368421 34.7942857,41.1578947 L34.7942857,48.7134503 C34.7942857,52.1345029 32.6457143,55.0877193 29.5085714,56.2748538 L29.5085714,65.0350877 C29.5085714,66.7076023 28.1028571,68.0584795 26.3657143,68.0584795 C24.6285714,68.0584795 23.2228571,66.7076023 23.2228571,65.0350877 L23.2228571,56.1988304 C20.1657143,55 17.9371429,52.0584795 17.9371429,48.6315789 L17.9371429,41.0760234 C17.9371429,37.6549708 20.0857143,34.7076023 23.2228571,33.5146199 L23.2228571,14.4912281 C23.2228571,12.8187135 24.6285714,11.4619883 26.3657143,11.4619883 Z M26.3657143,37.251462 C24.1371429,37.251462 22.3142857,39.005848 22.3142857,41.1578947 L22.3142857,48.7134503 C22.3142857,50.8654971 24.1314286,52.6140351 26.3657143,52.6140351 C28.5942857,52.6140351 30.4171429,50.8596491 30.4171429,48.7134503 L30.4171429,41.1578947 C30.4171429,39.005848 28.5942857,37.2573099 26.36,37.2573099 L26.3657143,37.251462 Z M53.2228571,24.2807018 C52.0144602,24.3069241 50.8739164,24.8575813 50.0857143,25.7953216 C49.4991537,26.4775845 49.1743045,27.3544161 49.1714286,28.2631579 L49.1714286,35.8245614 C49.1714286,36.7777778 49.5085714,37.6549708 50.0857143,38.2923977 C50.8433817,39.2729007 52.0074623,39.8317337 53.2285714,39.8011696 C54.4685714,39.8011696 55.6285714,39.1695906 56.3714286,38.2923977 C56.9538513,37.6084423 57.2746521,36.7317915 57.2742857,35.8245614 L57.2742857,28.2631579 C57.287118,27.3525878 56.9624868,26.4708338 56.3657143,25.7953216 C55.6092183,24.8126259 54.4449553,24.251539 53.2228571,24.2807018 L53.2228571,24.2807018 Z" id="Shape"></path>
        </g>
        <g id="Group" transform="translate(2207.000000, 1036.000000)" fill="#EB792D" fill-rule="nonzero">
            <path d="M34.9373443,6.71487599 L34.9373443,3.40909091 C34.9373443,1.58335622 33.8222378,0.103305824 32.4466843,0.103305824 L22.4840442,0.103305824 C21.1084907,0.103305824 19.9933842,1.58335622 19.9933842,3.40909091 L19.9933842,6.71487599 L0.068104024,6.71487599 L0.068104024,13.3264463 L19.9933842,13.3264463 L19.9933842,16.6322314 C19.9933842,18.4579661 21.1084907,19.9380165 22.4840442,19.9380165 L32.4466843,19.9380165 C33.8222378,19.9380165 34.9373443,18.4579661 34.9373443,16.6322314 L34.9373443,13.3264463 L79.7692247,13.3264463 L79.7692247,6.71487599 L34.9373443,6.71487599 Z M24.9747042,6.71487599 L29.9560243,6.72148764 L29.9560243,13.3264463 L24.9747042,13.3264463 L24.9747042,6.71487599 Z M34.9373443,66.2190082 L34.9373443,62.9132232 C34.9373443,61.0874885 33.8222378,59.6074381 32.4466843,59.6074381 L22.4840442,59.6074381 C21.1084907,59.6074381 19.9933842,61.0874885 19.9933842,62.9132232 L19.9933842,66.2190082 L0.068104024,66.2190082 L0.068104024,72.8305786 L19.9933842,72.8305786 L19.9933842,76.1363636 C19.9933842,77.9620983 21.1084907,79.4421487 22.4840442,79.4421487 L32.4466843,79.4421487 C33.8222378,79.4421487 34.9373443,77.9620983 34.9373443,76.1363636 L34.9373443,72.8305786 L79.7692247,72.8305786 L79.7692247,66.2190082 L34.9373443,66.2190082 Z M24.9747042,66.2190082 L29.9560243,66.2256199 L29.9560243,72.8305786 L24.9747042,72.8305786 L24.9747042,66.2190082 Z M64.8252647,46.3842976 C64.8252647,47.2610463 64.5628566,48.1018857 64.0957672,48.7218407 C63.6286778,49.3417957 62.9951687,49.6900827 62.3346046,49.6900827 L52.3719645,49.6900827 C50.9964109,49.6900827 49.8813045,48.2100323 49.8813045,46.3842976 L49.8813045,43.0785124 L0.068104024,43.0785124 L0.068104024,36.4669422 L49.8813045,36.4669422 L49.8813045,33.161157 C49.8813045,31.3354223 50.9964109,29.8553719 52.3719645,29.8553719 L62.3346046,29.8553719 C62.9951687,29.8553719 63.6286778,30.2036589 64.0957672,30.8236139 C64.5628566,31.4435688 64.8252647,32.2844082 64.8252647,33.161157 L64.8252647,36.4669422 L79.7692247,36.4669422 L79.7692247,43.0785124 L64.8252647,43.0785124 L64.8252647,46.3842976 L64.8252647,46.3842976 Z M59.8439446,36.4669422 L54.8626246,36.4669422 L54.8626246,43.0719009 L59.8439446,43.0785124 L59.8439446,36.4669422 L59.8439446,36.4669422 Z" id="Shape"></path>
        </g>
        <line x1="146.5" y1="1146.5" x2="1924.5" y2="1146.5" id="Line" stroke="#979797" stroke-width="11" stroke-linecap="square"></line>
        <line x1="145.5" y1="828.5" x2="353.5" y2="828.5" id="Line-2" stroke="#EB792D" stroke-width="11" stroke-linecap="square"></line>
        <line x1="456" y1="829" x2="664" y2="829" id="Line-2" stroke="#EB792D" stroke-width="11" stroke-linecap="square"></line>
        <line x1="784" y1="829" x2="992" y2="829" id="Line-2" stroke="#EB792D" stroke-width="11" stroke-linecap="square"></line>
        <line x1="1097" y1="829" x2="1305" y2="829" id="Line-2" stroke="#EB792D" stroke-width="11" stroke-linecap="square"></line>
        <line x1="1402" y1="829" x2="1610" y2="829" id="Line-2" stroke="#EB792D" stroke-width="11" stroke-linecap="square"></line>
        <line x1="1717" y1="829" x2="1925" y2="829" id="Line-2" stroke="#EB792D" stroke-width="11" stroke-linecap="square"></line>
        <text id="CONTROL-PLANE" font-family="GurmukhiMN-Bold, Gurmukhi MN" font-size="50" font-weight="bold" fill="#000000" fill-opacity="0.5">
            <tspan x="2102.49365" y="284">CONTROL</tspan>
            <tspan x="2151.39502" y="344">PLANE</tspan>
        </text>
        <text id="GUINSOOLAB-DATA-PLAT" font-family="LucidaGrande-Bold, Lucida Grande" font-size="90" font-weight="bold" fill="#EB792D">
            <tspan x="551.683729" y="95">GUINSOOLAB</tspan>
            <tspan x="1158.964" y="95" font-family="Kailasa-Bold, Kailasa"> </tspan>
            <tspan x="1194.41016" y="95">DATA</tspan>
            <tspan x="1460.41113" y="95" font-family="Kailasa-Bold, Kailasa"> </tspan>
            <tspan x="1495.85729" y="95">PLATFORM</tspan>
        </text>
        <text id="HYBRID-CLOUD" font-family="GurmukhiMN-Bold, Gurmukhi MN" font-size="48" font-weight="bold" fill="#32C5FF">
            <tspan x="952.609375" y="496">HYBRID</tspan>
            <tspan x="954.671875" y="554">CLOUD</tspan>
        </text>
        <text id="MULTI-PUBLIC-CLOUD" font-family="GurmukhiMN-Bold, Gurmukhi MN" font-size="48" font-weight="bold" fill="#32C5FF">
            <tspan x="1573.65234" y="493">MULTI</tspan>
            <tspan x="1461.97266" y="551">PUBLIC CLOUD</tspan>
        </text>
        <text id="DATA-CENTER-&amp;-PRIVAT" font-family="GurmukhiMN-Bold, Gurmukhi MN" font-size="48" font-weight="bold" fill="#32C5FF">
            <tspan x="221.066406" y="493">DATA CENTER &amp;</tspan>
            <tspan x="216.425781" y="551">PRIVATE CLOUD</tspan>
        </text>
        <text id="GuinsooLab" font-family="TrebuchetMS, Trebuchet MS" font-size="72" font-weight="normal">
            <tspan x="172.640625" y="696" fill="#000000" fill-opacity="0.5">Guinsoo</tspan>
            <tspan x="426.960938" y="696" fill="#EB792D">Lab</tspan>
        </text>
        <text id="METADATA-/-SCHEMA-/" font-family="STSongti-SC-Bold, Songti SC" font-size="36" font-weight="bold" fill="#000000" fill-opacity="0.5">
            <tspan x="600.94" y="696">METADATA / SCHEMA / MIGRATION / SECURITY / GOVERNANCE </tspan>
        </text>
        <text id="DATA-HUB" font-family="LucidaGrande-Bold, Lucida Grande" font-size="30" font-weight="bold" fill="#000000" fill-opacity="0.5">
            <tspan x="207.166504" y="1052">DATA</tspan>
            <tspan x="219.302734" y="1087">HUB</tspan>
        </text>
        <text id="DATA-FLOW-&amp;-STREAMIN" font-family="LucidaGrande-Bold, Lucida Grande" font-size="30" font-weight="bold" fill="#000000" fill-opacity="0.5">
            <tspan x="446.367188" y="1052">DATA FLOW &amp;</tspan>
            <tspan x="464.377441" y="1087">STREAMING</tspan>
        </text>
        <text id="DATA-ENGINEERING" font-family="LucidaGrande-Bold, Lucida Grande" font-size="30" font-weight="bold" fill="#000000" fill-opacity="0.5">
            <tspan x="844.166504" y="1055">DATA</tspan>
            <tspan x="784.225098" y="1090">ENGINEERING</tspan>
        </text>
        <text id="DATA-WAREHOUSE" font-family="LucidaGrande-Bold, Lucida Grande" font-size="30" font-weight="bold" fill="#000000" fill-opacity="0.5">
            <tspan x="1156.6665" y="1052">DATA</tspan>
            <tspan x="1104.36426" y="1087">WAREHOUSE</tspan>
        </text>
        <text id="OPERATIONAL-DATABASE" font-family="LucidaGrande-Bold, Lucida Grande" font-size="30" font-weight="bold" fill="#000000" fill-opacity="0.5">
            <tspan x="1418.08203" y="1055">OPERATIONAL</tspan>
            <tspan x="1446.59521" y="1090">DATABASE</tspan>
        </text>
        <text id="MACHINE-LEARNING" font-family="LucidaGrande-Bold, Lucida Grande" font-size="30" font-weight="bold" fill="#000000" fill-opacity="0.5">
            <tspan x="1750.93896" y="1058">MACHINE</tspan>
            <tspan x="1745.16016" y="1093">LEARNING</tspan>
        </text>
        <text id="DATA-CATALOG" font-family="TrebuchetMS-Bold, Trebuchet MS" font-size="24" font-weight="bold" fill="#000000" fill-opacity="0.5">
            <tspan x="2219.68359" y="533">DATA </tspan>
            <tspan x="2196.26367" y="561">CATALOG</tspan>
        </text>
        <text id="REPLICATION-MANAGER" font-family="TrebuchetMS-Bold, Trebuchet MS" font-size="24" font-weight="bold" fill="#000000" fill-opacity="0.5">
            <tspan x="2166.89453" y="737">REPLICATION</tspan>
            <tspan x="2184.63672" y="765">MANAGER</tspan>
        </text>
        <g id="Group" transform="translate(318.000000, 269.000000)" fill="#32C5FF" fill-rule="nonzero">
            <path d="M37.84,35.0625 C31.4066666,35.0625 26.1733334,30.7449999 26.1733334,25.4375001 C26.1733334,20.1300002 31.4066668,15.8124999 37.84,15.8124999 C44.2733332,15.8124999 49.5066666,20.13 49.5066666,25.4375001 C49.5066666,30.7450001 44.2733332,35.0625 37.84,35.0625 L37.84,35.0625 Z M37.8399995,21.3124996 C36.0528781,21.313155 34.4019329,22.1003302 33.5090596,23.3775044 C32.6161862,24.6546786 32.6170333,26.2278186 33.5112818,27.5043378 C34.4055303,28.7808569 36.0573226,29.5668217 37.8444445,29.566167 C40.6070955,29.565154 42.8456716,27.716687 42.8444448,25.4375 C42.843217,23.1583129 40.602651,21.3114876 37.8399995,21.3124996 L37.8399995,21.3124996 Z M37.84,83.1875001 C31.4066666,83.1875001 26.1733334,78.87 26.1733334,73.5624999 C26.1733334,68.2549999 31.4066668,63.9375 37.84,63.9375 C44.2733332,63.9375 49.5066666,68.2550001 49.5066666,73.5624999 C49.5066666,78.8699998 44.2733332,83.1875001 37.84,83.1875001 L37.84,83.1875001 Z M37.8399994,69.4374995 C36.0528781,69.4381549 34.4019329,70.2253301 33.5090595,71.5025044 C32.6161861,72.7796786 32.6170332,74.3528186 33.5112818,75.6293378 C34.4055303,76.905857 36.0573226,77.6918217 37.8444445,77.6911671 C40.6070956,77.6901541 42.8456717,75.841687 42.8444449,73.5624999 C42.8432171,71.2833128 40.602651,69.4364875 37.8399994,69.4374995 Z" id="Shape"></path>
            <path d="M171.666667,148.5 L28.3333334,148.5 C12.7133334,148.5 0,138.017 0,125.125 L0,23.3750001 C0,10.4829999 12.7133334,0 28.3333334,0 L171.666667,0 C187.286667,0 200,10.4829999 200,23.3750001 L200,125.125 C200,138.017 187.286667,148.5 171.666667,148.5 Z M28.3333334,5.49999995 C16.3866666,5.49999995 6.6666666,13.5189999 6.6666666,23.3750001 L6.6666666,125.125 C6.6666666,134.981 16.3866666,143 28.3333334,143 L171.666667,143 C183.613333,143 193.333333,134.981 193.333333,125.125 L193.333333,23.3750001 C193.333333,13.5189999 183.613333,5.49999995 171.666667,5.49999995 L28.3333334,5.49999995 Z" id="Shape"></path>
            <path d="M37.84,131.3125 C31.4066666,131.3125 26.1733334,126.995 26.1733334,121.6875 C26.1733334,116.38 31.4066668,112.0625 37.84,112.0625 C44.2733332,112.0625 49.5066666,116.38 49.5066666,121.6875 C49.5066666,126.995 44.2733332,131.3125 37.84,131.3125 L37.84,131.3125 Z M37.8399995,117.5625 C35.0773489,117.563513 32.8387727,119.41198 32.8399995,121.691167 C32.8412273,123.970354 35.0817935,125.817179 37.8444445,125.816167 C40.6070956,125.815154 42.8456717,123.966687 42.8444449,121.6875 C42.8432171,119.408313 40.602651,117.561488 37.8399995,117.5625 L37.8399995,117.5625 Z M63.3333334,165 L30,165 C28.16,165 26.6666666,163.7625 26.6666666,162.25 L26.6666666,145.75 C26.6666666,144.2375 28.16,143 30,143 L63.3333334,143 C65.1733334,143 66.6666666,144.2375 66.6666666,145.75 L66.6666666,162.25 C66.6666666,163.7625 65.1733332,165 63.3333334,165 Z M33.3333334,159.5 L60,159.5 L60,148.5 L33.3333334,148.5 L33.3333334,159.5 Z M170,165 L136.666667,165 C134.833333,165 133.333333,163.7625 133.333333,162.25 L133.333333,145.75 C133.333333,144.2375 134.833333,143 136.666667,143 L170,143 C171.833333,143 173.333333,144.2375 173.333333,145.75 L173.333333,162.25 C173.333333,163.7625 171.833333,165 170,165 Z M140,159.5 L166.666667,159.5 L166.666667,148.5 L140,148.5 L140,159.5 Z M193.333333,99.0000001 L6.6666666,99.0000001 C4.8266666,99.0000001 3.3333334,97.7625 3.3333334,96.2499999 C3.3333334,94.7374999 4.8266666,93.5000001 6.6666666,93.5000001 L193.333333,93.5000001 C195.166667,93.5000001 196.666667,94.7375001 196.666667,96.2499999 C196.666667,97.7624998 195.166667,99.0000001 193.333333,99.0000001 Z M193.333333,55 L6.6666666,55 C4.82603255,54.9996324 3.33414007,53.7685231 3.33414007,52.25 C3.33414007,50.7314768 4.82603255,49.5003676 6.6666666,49.5 L193.333333,49.5 C195.166667,49.5 196.666667,50.7320001 196.666667,52.2500001 C196.666667,53.7680001 195.166667,55 193.333333,55 Z M133.886667,25.0910001 C133.887064,26.3187731 133.09348,27.4534568 131.804851,28.0676269 C130.516222,28.681797 128.928321,28.6821464 127.639295,28.0685435 C126.35027,27.4549406 125.555952,26.3206063 125.555555,25.0928333 C125.554942,23.1948607 127.419427,21.6558397 129.72,21.6553333 C132.020573,21.6548272 133.886053,23.1930275 133.886667,25.0910001 Z M154.093334,25.0910001 C154.09373,26.318773 153.300147,27.4534567 152.011518,28.0676268 C150.722889,28.6817969 149.134988,28.6821463 147.845962,28.0685434 C146.556936,27.4549405 145.762619,26.3206062 145.762222,25.0928333 C145.761609,23.1948607 147.626094,21.6558395 149.926667,21.6553332 C152.22724,21.6548271 154.09272,23.1930275 154.093334,25.0910001 L154.093334,25.0910001 Z M174.3,25.0910001 C174.300397,26.318773 173.506813,27.4534567 172.218184,28.0676268 C170.929555,28.6817969 169.341655,28.6821463 168.052629,28.0685434 C166.763603,27.4549405 165.969286,26.3206062 165.968889,25.0928333 C165.968275,23.1948607 167.832761,21.6558395 170.133333,21.6553332 C172.433906,21.6548271 174.299386,23.1930275 174.3,25.0910001 L174.3,25.0910001 Z M133.886667,74.25 C133.887064,75.477773 133.09348,76.6124567 131.804851,77.2266269 C130.516222,77.840797 128.928321,77.8411464 127.639296,77.2275435 C126.35027,76.6139407 125.555952,75.4796064 125.555555,74.2518334 C125.555158,73.0240604 126.348742,71.8893767 127.637371,71.2752066 C128.926,70.6610364 130.513901,70.660687 131.802927,71.2742899 C133.091952,71.8878927 133.88627,73.022227 133.886667,74.25 L133.886667,74.25 Z M154.093334,74.25 C154.093947,76.1479726 152.229462,77.6869938 149.928889,77.6875002 C147.628316,77.6880063 145.762836,76.1498059 145.762222,74.2518334 C145.761609,72.3538609 147.626094,70.8148398 149.926667,70.8143334 C152.227239,70.8138273 154.09272,72.3520275 154.093334,74.25 L154.093334,74.25 Z M174.3,74.25 C174.300614,76.1479726 172.436128,77.6869938 170.135556,77.6875002 C167.834983,77.6880063 165.969503,76.1498059 165.968889,74.2518334 C165.968492,73.0240604 166.762075,71.8893767 168.050704,71.2752066 C169.339333,70.6610364 170.927234,70.660687 172.21626,71.2742899 C173.505286,71.8878927 174.299603,73.022227 174.3,74.25 L174.3,74.25 Z M133.886667,118.25 C133.887064,119.477773 133.09348,120.612457 131.804851,121.226627 C130.516222,121.840797 128.928321,121.841146 127.639295,121.227544 C126.35027,120.613941 125.555952,119.479606 125.555555,118.251833 C125.554942,116.353861 127.419427,114.81484 129.72,114.814333 C132.020573,114.813827 133.886053,116.352028 133.886667,118.25 Z M154.093334,118.25 C154.093947,120.147973 152.229462,121.686994 149.928889,121.6875 C147.628316,121.688006 145.762836,120.149806 145.762222,118.251833 C145.761609,116.353861 147.626094,114.81484 149.926667,114.814333 C152.22724,114.813827 154.09272,116.352027 154.093334,118.25 L154.093334,118.25 Z M174.3,118.25 C174.300614,120.147973 172.436128,121.686994 170.135555,121.6875 C167.834983,121.688006 165.969502,120.149806 165.968889,118.251833 C165.968275,116.353861 167.832761,114.81484 170.133333,114.814333 C172.433906,114.813827 174.299386,116.352027 174.3,118.25 L174.3,118.25 Z" id="Shape"></path>
        </g>
    </g>
</svg>