<?xml version="1.0" encoding="UTF-8"?>
<svg width="600px" height="618px" viewBox="0 0 600 618" version="1.1" xmlns="http://www.w3.org/2000/svg" xmlns:xlink="http://www.w3.org/1999/xlink">
    <title>genetic-algorithm</title>
    <g id="Mage-Data-Center" stroke="none" stroke-width="1" fill="none" fill-rule="evenodd">
        <g id="genetic-algorithm" transform="translate(0, 0.4375)" fill-rule="nonzero">
            <path d="M225,244.0625 L286.25,279.0625 C293.75,284.0625 298.75,291.5625 298.75,300.3125 L298.75,371.5625 C298.75,380.3125 293.75,389.0625 286.25,392.8125 L225,429.0625 C217.5,434.0625 207.5,434.0625 200,429.0625 L138.75,394.0625 C131.25,389.0625 126.25,381.5625 126.25,372.8125 L126.25,301.5625 C126.25,292.8125 131.25,284.0625 138.75,280.3125 L200,245.3125 C207.5,239.0625 217.5,239.0625 225,244.0625 L225,244.0625 Z" id="Path" fill="#E4B667"></path>
            <path d="M402.5,120.3125 C400,119.0625 398.75,119.0625 396.25,120.3125 L343.75,150.3125 C341.25,151.5625 341.25,154.0625 341.25,155.3125 L341.25,215.3125 C341.25,217.8125 342.5,219.0625 343.75,220.3125 L396.25,250.3125 C398.75,251.5625 400,251.5625 402.5,250.3125 L455,220.3125 C457.5,219.0625 457.5,216.5625 457.5,215.3125 L457.5,155.3125 C457.5,152.8125 456.25,151.5625 455,150.3125 L402.5,120.3125 Z M410,110.3125 L462.5,140.3125 C468.75,144.0625 472.5,150.3125 472.5,156.5625 L472.5,216.5625 C472.5,222.8125 468.75,229.0625 462.5,232.8125 L410,262.8125 C403.75,266.5625 397.5,266.5625 391.25,262.8125 L338.75,232.8125 C332.5,229.0625 328.75,222.8125 328.75,216.5625 L328.75,156.5625 C328.75,150.3125 332.5,144.0625 338.75,140.3125 L391.25,110.3125 C396.25,106.5625 403.75,106.5625 410,110.3125 Z M437.5,451.5625 L385,481.5625 L385,541.5625 L437.5,571.5625 L490,541.5625 L490,481.5625 L437.5,451.5625 Z M502.5,459.0625 C510,464.0625 515,471.5625 515,480.3125 L515,540.3125 C515,549.0625 510,557.8125 502.5,561.5625 L450,594.0625 C442.5,599.0625 432.5,599.0625 425,594.0625 L372.5,564.0625 C365,559.0625 360,551.5625 360,542.8125 L360,482.8125 C360,474.0625 365,465.3125 372.5,461.5625 L425,431.5625 C432.5,426.5625 442.5,426.5625 450,431.5625 L502.5,459.0625 Z M37.5,44.0625 L37.5,79.0625 L68.75,96.5625 L100,79.0625 L100,44.0625 L68.75,26.5625 L37.5,44.0625 L37.5,44.0625 Z M115,24.0625 C121.25,27.8125 125,34.0625 125,40.3125 L125,82.8125 C125,89.0625 121.25,95.3125 115,99.0625 L77.5,120.3125 C71.25,124.0625 65,124.0625 58.75,120.3125 L21.25,99.0625 C16.25,95.3125 12.5,89.0625 12.5,82.8125 L12.5,40.3125 C12.5,34.0625 16.25,27.8125 22.5,24.0625 L60,2.8125 C66.25,-0.9375 72.5,-0.9375 78.75,2.8125 L115,24.0625 Z M50,519.0625 L12.5,540.3125 L12.5,582.8125 L50,604.0625 L87.5,582.8125 L87.5,540.3125 L50,519.0625 Z M56.25,507.8125 L93.75,529.0625 C97.5,531.5625 100,535.3125 100,540.3125 L100,582.8125 C100,587.8125 97.5,591.5625 93.75,594.0625 L56.25,615.3125 C52.5,617.8125 47.5,617.8125 43.75,615.3125 L6.25,594.0625 C2.5,591.5625 0,587.8125 0,582.8125 L0,540.3125 C0,535.3125 2.5,531.5625 6.25,529.0625 L43.75,507.8125 C47.5,505.3125 52.5,505.3125 56.25,507.8125 Z" id="Shape" fill="#050D42"></path>
            <path d="M215,517.8125 L166.25,566.5625 C165,567.8125 163.75,567.8125 161.25,567.8125 L92.5,567.8125 C88.75,567.8125 86.25,565.3125 86.25,561.5625 C86.25,557.8125 88.75,555.3125 92.5,555.3125 L158.75,555.3125 L205,509.0625 L205,455.3125 C205,451.5625 207.5,449.0625 211.25,449.0625 C215,449.0625 217.5,451.5625 217.5,455.3125 L217.5,505.3125 L350,505.3125 C353.75,505.3125 356.25,507.8125 356.25,511.5625 C356.25,515.3125 353.75,517.8125 350,517.8125 L215,517.8125 Z M206.25,176.5625 L121.25,102.8125 C118.75,100.3125 118.75,96.5625 120,94.0625 C122.5,91.5625 126.25,91.5625 128.75,92.8125 L215,166.5625 L312.5,166.5625 C316.25,166.5625 318.75,169.0625 318.75,172.8125 C318.75,176.5625 316.25,179.0625 312.5,179.0625 L218.75,179.0625 L218.75,224.0625 C218.75,227.8125 216.25,230.3125 212.5,230.3125 C208.75,230.3125 206.25,227.8125 206.25,224.0625 L206.25,176.5625 Z M525,480.3125 C521.25,480.3125 518.75,477.8125 518.75,474.0625 C518.75,470.3125 521.25,467.8125 525,467.8125 L593.75,467.8125 C597.5,467.8125 600,470.3125 600,474.0625 C600,477.8125 597.5,480.3125 593.75,480.3125 L525,480.3125 Z M486.25,140.3125 C483.75,142.8125 480,142.8125 477.5,141.5625 C475,139.0625 475,135.3125 476.25,132.8125 L551.25,45.3125 C553.75,42.8125 557.5,42.8125 560,44.0625 C562.5,46.5625 562.5,50.3125 561.25,52.8125 L486.25,140.3125 L486.25,140.3125 Z M25,305.3125 C21.25,305.3125 18.75,302.8125 18.75,299.0625 C18.75,295.3125 21.25,292.8125 25,292.8125 L112.5,292.8125 C116.25,292.8125 118.75,295.3125 118.75,299.0625 C118.75,302.8125 116.25,305.3125 112.5,305.3125 L25,305.3125 Z M443.75,417.8125 C443.75,421.5625 441.25,424.0625 437.5,424.0625 C433.75,424.0625 431.25,421.5625 431.25,417.8125 L431.25,336.5625 C431.25,332.8125 433.75,330.3125 437.5,330.3125 C441.25,330.3125 443.75,332.8125 443.75,336.5625 L443.75,417.8125 Z" id="Shape" fill="#050D42"></path>
        </g>
    </g>
</svg>