<?xml version="1.0" encoding="UTF-8"?>
<svg width="514px" height="651px" viewBox="0 0 514 651" version="1.1" xmlns="http://www.w3.org/2000/svg" xmlns:xlink="http://www.w3.org/1999/xlink">
    <title>gene-sequencing</title>
    <g id="Mage-Data-Center" stroke="none" stroke-width="1" fill="none" fill-rule="evenodd">
        <g id="gene-sequencing" transform="translate(0.2739, 0.5)" fill-rule="nonzero">
            <path d="M94.2260553,400 L419.226055,400 L500.476055,631.25 L12.9760553,631.25 L94.2260553,400 Z M350.476055,500 C360.476055,500 369.226055,491.25 369.226055,481.25 C369.226055,471.25 360.476055,462.5 350.476055,462.5 C340.476055,462.5 331.726055,471.25 331.726055,481.25 C331.726055,491.25 340.476055,500 350.476055,500 Z M150.476055,462.5 C160.476055,462.5 169.226055,453.75 169.226055,443.75 C169.226055,433.75 160.476055,425 150.476055,425 C140.476055,425 131.726055,433.75 131.726055,443.75 C131.726055,453.75 140.476055,462.5 150.476055,462.5 Z M256.726055,550 C264.226055,550 269.226055,545 269.226055,537.5 C269.226055,530 264.226055,525 256.726055,525 C249.226055,525 244.226055,530 244.226055,537.5 C244.226055,545 249.226055,550 256.726055,550 Z M262.976055,350 C252.976055,350 244.226055,341.25 244.226055,331.25 C244.226055,321.25 252.976055,312.5 262.976055,312.5 C272.976055,312.5 281.726055,321.25 281.726055,331.25 C281.726055,341.25 272.976055,350 262.976055,350 Z M344.226055,387.5 C336.726055,387.5 331.726055,382.5 331.726055,375 C331.726055,367.5 336.726055,362.5 344.226055,362.5 C351.726055,362.5 356.726055,367.5 356.726055,375 C356.726055,382.5 351.726055,387.5 344.226055,387.5 Z" id="Shape" fill="#E4B667"></path>
            <path d="M342.976055,25 L170.476055,25 C177.976055,85 181.726055,136.25 181.726055,162.5 C181.726055,190 130.476055,356.25 25.4760553,625 L489.226055,625 C382.976055,356.25 331.726055,190 331.726055,162.5 C331.726055,136.25 335.476055,85 342.976055,25 Z M367.976055,25 C360.476055,86.25 356.726055,137.5 356.726055,162.5 C356.726055,185 409.226055,356.25 511.726055,616.25 C512.976055,618.75 512.976055,622.5 512.976055,625 C512.976055,638.75 501.726055,650 487.976055,650 L24.2260553,650 C20.4760553,650 17.9760553,650 15.4760553,648.75 C2.97605526,643.75 -3.27394474,628.75 1.72605526,616.25 C104.226055,356.25 156.726055,185 156.726055,162.5 C156.726055,137.5 152.976055,86.25 145.476055,25 L144.226055,25 C136.726055,25 131.726055,20 131.726055,12.5 C131.726055,5 136.726055,0 144.226055,0 L369.226055,0 C376.726055,0 381.726055,5 381.726055,12.5 C381.726055,20 376.726055,25 367.976055,25 C369.226055,25 367.976055,25 367.976055,25 Z" id="Shape" fill="#08135B"></path>
            <path d="M187.976055,312.5 L225.476055,312.5 C229.226055,312.5 231.726055,315 231.726055,318.75 C231.726055,322.5 229.226055,325 225.476055,325 L194.226055,325 L194.226055,362.5 L212.976055,362.5 C216.726055,362.5 219.226055,365 219.226055,368.75 C219.226055,372.5 216.726055,375 212.976055,375 L194.226055,375 L194.226055,412.5 L225.476055,412.5 C229.226055,412.5 231.726055,415 231.726055,418.75 C231.726055,422.5 229.226055,425 225.476055,425 L194.226055,425 L194.226055,462.5 L212.976055,462.5 C216.726055,462.5 219.226055,465 219.226055,468.75 C219.226055,472.5 216.726055,475 212.976055,475 L194.226055,475 L194.226055,512.5 L225.476055,512.5 C229.226055,512.5 231.726055,515 231.726055,518.75 C231.726055,522.5 229.226055,525 225.476055,525 L181.726055,525 L181.726055,312.5 L187.976055,312.5 Z" id="Path" fill="#08135B"></path>
        </g>
    </g>
</svg>