<?xml version="1.0" encoding="UTF-8"?>
<svg width="337px" height="101px" viewBox="0 0 337 101" version="1.1" xmlns="http://www.w3.org/2000/svg" xmlns:xlink="http://www.w3.org/1999/xlink">
    <title>guinsoolab-luden</title>
    <g id="guinsoolab-platform" stroke="none" stroke-width="1" fill="none" fill-rule="evenodd">
        <g id="guinsoolab-luden">
            <path d="M170.321289,80 L170.321289,74.9775391 L145.317383,74.9775391 L145.317383,31.0039062 L134.730469,31.0039062 L134.730469,80 L170.321289,80 Z M191.458984,80.6865234 C192.880208,80.6865234 194.427897,80.264974 196.102051,79.421875 C197.776204,78.578776 199.661133,77.2298177 201.756836,75.375 L201.756836,75.375 L201.756836,80 L211.512695,80 L211.512695,43 L201.756836,43 L201.756836,69.7382812 C201.347331,70.3886719 200.859538,70.9908854 200.293457,71.5449219 C199.727376,72.0989583 199.137207,72.5807292 198.522949,72.9902344 C197.908691,73.3997396 197.300456,73.7189128 196.698242,73.9477539 C196.096029,74.1765951 195.541992,74.2910156 195.036133,74.2910156 C194.193034,74.2910156 193.398112,74.1585286 192.651367,73.8935547 C191.904622,73.6285807 191.254232,73.2612305 190.700195,72.7915039 C190.146159,72.3217773 189.706543,71.7677409 189.381348,71.1293945 C189.056152,70.4910482 188.893555,69.8105469 188.893555,69.0878906 L188.893555,69.0878906 L188.893555,43 L179.137695,43 L179.137695,69.0878906 C179.137695,70.6777344 179.456868,72.1772461 180.095215,73.5864258 C180.733561,74.9956055 181.606771,76.2241211 182.714844,77.2719727 C183.822917,78.3198242 185.123698,79.1508789 186.617188,79.7651367 C188.110677,80.3793945 189.724609,80.6865234 191.458984,80.6865234 Z M234.709961,80.8310547 C236.227539,80.8310547 237.570475,80.6564128 238.73877,80.3071289 C239.907064,79.9578451 240.954915,79.4760742 241.882324,78.8618164 C242.809733,78.2475586 243.640788,77.5188802 244.375488,76.6757812 C245.110189,75.8326823 245.802734,74.9173177 246.453125,73.9296875 L246.453125,73.9296875 L243.417969,71.5449219 C243.297526,71.7135417 243.086751,71.9484049 242.785645,72.2495117 C242.484538,72.5506185 242.117188,72.8457031 241.683594,73.1347656 C241.25,73.4238281 240.774251,73.6767578 240.256348,73.8935547 C239.738444,74.1103516 239.226562,74.21875 238.720703,74.21875 C237.877604,74.21875 237.197103,73.9417318 236.679199,73.3876953 C236.161296,72.8336589 235.902344,72.1832682 235.902344,71.4365234 L235.902344,71.4365234 L235.902344,47.625 L244.97168,47.625 L244.97168,43 L235.902344,43 L235.902344,31.3652344 L233.589844,31.3652344 L226.146484,35.2675781 L226.146484,43 L225.640625,43 L220.18457,44.8066406 L220.18457,47.625 L226.146484,47.625 L226.146484,71.7617188 C226.146484,73.1106771 226.321126,74.3391927 226.67041,75.4472656 C227.019694,76.5553385 227.549642,77.5068359 228.260254,78.3017578 C228.970866,79.0966797 229.862142,79.7169596 230.934082,80.1625977 C232.006022,80.6082357 233.264648,80.8310547 234.709961,80.8310547 Z M269.831055,80.8310547 C271.782227,80.8310547 273.721354,80.445638 275.648438,79.6748047 C277.575521,78.9039714 279.358073,77.8561198 280.996094,76.53125 C282.634115,75.2063802 284.067383,73.6586914 285.295898,71.8881836 C286.524414,70.1176758 287.427734,68.2327474 288.005859,66.2333984 L288.005859,66.2333984 L283.597656,65.5107422 C283.260417,66.6188151 282.700358,67.6546224 281.91748,68.6181641 C281.134603,69.5817057 280.213216,70.4248047 279.15332,71.1474609 C278.093424,71.8701172 276.92513,72.4422201 275.648438,72.8637695 C274.371745,73.285319 273.070964,73.4960938 271.746094,73.4960938 C270.228516,73.4960938 268.837402,73.0805664 267.572754,72.2495117 C266.308105,71.418457 265.212077,70.2983398 264.284668,68.8891602 C263.357259,67.4799805 262.616536,65.8479818 262.0625,63.9931641 C261.508464,62.1383464 261.183268,60.1871745 261.086914,58.1396484 L261.086914,58.1396484 L286.705078,58.1396484 C286.705078,55.9475911 286.301595,53.8880208 285.494629,51.9609375 C284.687663,50.0338542 283.549479,48.3597005 282.080078,46.9384766 C280.610677,45.5172526 278.852214,44.3971354 276.804688,43.578125 C274.757161,42.7591146 272.492839,42.3496094 270.011719,42.3496094 C267.241536,42.3496094 264.718262,42.8614909 262.441895,43.8852539 C260.165527,44.9090169 258.220378,46.336263 256.606445,48.1669922 C254.992513,49.9977214 253.745931,52.159668 252.866699,54.652832 C251.987467,57.1459961 251.547852,59.8499349 251.547852,62.7646484 C251.547852,65.1975911 252.0236,67.504069 252.975098,69.684082 C253.926595,71.8640951 255.233398,73.7791341 256.895508,75.4291992 C258.557617,77.0792643 260.496745,78.3920898 262.712891,79.3676758 C264.929036,80.3432617 267.301758,80.8310547 269.831055,80.8310547 Z M275.287109,54.3095703 L261.195312,54.3095703 C261.315755,53.2014974 261.586751,52.1958008 262.008301,51.2924805 C262.42985,50.3891602 262.941732,49.6183268 263.543945,48.9799805 C264.146159,48.3416341 264.82666,47.847819 265.585449,47.4985352 C266.344238,47.1492513 267.121094,46.9746094 267.916016,46.9746094 C268.903646,46.9746094 269.825033,47.1492513 270.680176,47.4985352 C271.535319,47.847819 272.288086,48.3476562 272.938477,48.9980469 C273.588867,49.6484375 274.118815,50.425293 274.52832,51.3286133 C274.937826,52.2319336 275.190755,53.2255859 275.287109,54.3095703 L275.287109,54.3095703 Z M307.40918,80 L307.40918,53.1533203 C308.902669,51.804362 310.420247,50.7565104 311.961914,50.0097656 C313.503581,49.2630208 314.828451,48.8896484 315.936523,48.8896484 C316.514648,48.8896484 317.068685,49.0161133 317.598633,49.269043 C318.128581,49.5219727 318.604329,49.8953451 319.025879,50.3891602 C319.447428,50.8829753 319.778646,51.4972331 320.019531,52.2319336 C320.260417,52.9666341 320.380859,53.8037109 320.380859,54.7431641 L320.380859,54.7431641 L320.380859,80 L330.100586,80 L330.100586,53.5507812 C330.100586,52.0091146 329.817546,50.5577799 329.251465,49.1967773 C328.685384,47.8357747 327.926595,46.6494141 326.975098,45.6376953 C326.0236,44.6259766 324.909505,43.8250326 323.632812,43.2348633 C322.35612,42.644694 321.007161,42.3496094 319.585938,42.3496094 C317.755208,42.3496094 315.846191,42.6808268 313.858887,43.3432617 C311.871582,44.0056966 309.72168,45.1679688 307.40918,46.8300781 L307.40918,46.8300781 L307.40918,42.2412109 L305.09668,42.2412109 L297.581055,46.1435547 L297.581055,80 L307.40918,80 Z" id="Luten" fill="#000000" fill-rule="nonzero"></path>
            <path d="M134.679688,18.3427734 C135.722656,18.3427734 136.601562,18.1230469 137.316406,17.6835938 C137.732422,17.4316406 138.201172,16.9980469 138.722656,16.3828125 L138.722656,16.3828125 L138.995117,18 L140.788086,18 L140.788086,11.0478516 L135.391602,11.0478516 L135.391602,13.2099609 L138.388672,13.2099609 C138.253906,14.0595703 137.896484,14.746582 137.316406,15.2709961 C136.736328,15.7954102 135.992188,16.0576172 135.083984,16.0576172 C134.158203,16.0576172 133.332031,15.7265625 132.605469,15.0644531 C131.878906,14.4023438 131.515625,13.2744141 131.515625,11.6806641 C131.515625,10.0986328 131.851074,8.91357422 132.521973,8.12548828 C133.192871,7.33740234 134.049805,6.94335938 135.092773,6.94335938 C135.637695,6.94335938 136.132812,7.04003906 136.578125,7.23339844 C137.375,7.58496094 137.875977,8.203125 138.081055,9.08789062 L138.081055,9.08789062 L140.744141,9.08789062 C140.597656,7.83984375 140.024902,6.79833984 139.025879,5.96337891 C138.026855,5.12841797 136.704102,4.7109375 135.057617,4.7109375 C133.15918,4.7109375 131.632812,5.34375 130.478516,6.609375 C129.324219,7.875 128.74707,9.55664062 128.74707,11.6542969 C128.74707,13.7285156 129.318359,15.3632812 130.460938,16.5585938 C131.556641,17.7480469 132.962891,18.3427734 134.679688,18.3427734 Z M146.37793,18.2109375 C146.870117,18.2109375 147.299316,18.1464844 147.665527,18.0175781 C148.031738,17.8886719 148.411133,17.6484375 148.803711,17.296875 C148.932617,17.1855469 149.043945,17.0566406 149.137695,16.9101562 C149.231445,16.7636719 149.290039,16.6757812 149.313477,16.6464844 L149.313477,16.6464844 L149.313477,18 L151.748047,18 L151.748047,8.41992188 L149.208008,8.41992188 L149.208008,13.6318359 C149.208008,14.2470703 149.125977,14.7421875 148.961914,15.1171875 C148.645508,15.8085938 148.05957,16.1542969 147.204102,16.1542969 C146.536133,16.1542969 146.087891,15.9111328 145.859375,15.4248047 C145.730469,15.1494141 145.666016,14.7392578 145.666016,14.1943359 L145.666016,14.1943359 L145.666016,8.41992188 L143.099609,8.41992188 L143.099609,14.1943359 C143.099609,15.2900391 143.237305,16.1191406 143.512695,16.6816406 C144.004883,17.7011719 144.959961,18.2109375 146.37793,18.2109375 Z M156.740234,7.27734375 L156.740234,4.96582031 L154.200195,4.96582031 L154.200195,7.27734375 L156.740234,7.27734375 Z M156.740234,18 L156.740234,8.41992188 L154.200195,8.41992188 L154.200195,18 L156.740234,18 Z M161.679688,18 L161.679688,12.8144531 C161.679688,12.2226562 161.761719,11.7363281 161.925781,11.3554688 C162.242188,10.6347656 162.825195,10.2744141 163.674805,10.2744141 C164.366211,10.2744141 164.834961,10.5205078 165.081055,11.0126953 C165.21582,11.2822266 165.283203,11.6689453 165.283203,12.1728516 L165.283203,12.1728516 L165.283203,18 L167.849609,18 L167.849609,11.5488281 C167.849609,10.3476562 167.534668,9.48779297 166.904785,8.96923828 C166.274902,8.45068359 165.464844,8.19140625 164.474609,8.19140625 C163.683594,8.19140625 163.030273,8.38476562 162.514648,8.77148438 C162.227539,8.98828125 161.922852,9.34277344 161.600586,9.83496094 L161.600586,9.83496094 L161.600586,8.4375 L159.183594,8.4375 L159.183594,18 L161.679688,18 Z M173.984375,18.3251953 C175.460938,18.3251953 176.552246,18.0249023 177.258301,17.4243164 C177.964355,16.8237305 178.317383,16.0488281 178.317383,15.0996094 C178.317383,14.3789062 178.071289,13.7783203 177.579102,13.2978516 C177.081055,12.8232422 176.333984,12.46875 175.337891,12.234375 C173.84375,11.90625 172.973633,11.6748047 172.727539,11.5400391 C172.481445,11.4111328 172.358398,11.203125 172.358398,10.9160156 C172.358398,10.6875 172.474121,10.4882812 172.705566,10.3183594 C172.937012,10.1484375 173.325195,10.0634766 173.870117,10.0634766 C174.532227,10.0634766 175.000977,10.2333984 175.276367,10.5732422 C175.422852,10.7607422 175.513672,11.015625 175.548828,11.3378906 L175.548828,11.3378906 L178.053711,11.3378906 C177.942383,10.1660156 177.510254,9.34130859 176.757324,8.86376953 C176.004395,8.38623047 175.030273,8.14746094 173.834961,8.14746094 C172.575195,8.14746094 171.598145,8.46533203 170.903809,9.10107422 C170.209473,9.73681641 169.862305,10.4970703 169.862305,11.3818359 C169.862305,12.1318359 170.084961,12.7060547 170.530273,13.1044922 C170.975586,13.5087891 171.740234,13.8457031 172.824219,14.1152344 C174.330078,14.4726562 175.200195,14.7246094 175.43457,14.8710938 C175.668945,15.0175781 175.786133,15.2314453 175.786133,15.5126953 C175.786133,15.8056641 175.641113,16.0253906 175.351074,16.171875 C175.061035,16.3183594 174.669922,16.3916016 174.177734,16.3916016 C173.339844,16.3916016 172.765625,16.2246094 172.455078,15.890625 C172.279297,15.703125 172.165039,15.3867188 172.112305,14.9414062 L172.112305,14.9414062 L169.572266,14.9414062 C169.572266,15.9257812 169.931152,16.7358398 170.648926,17.371582 C171.366699,18.0073242 172.478516,18.3251953 173.984375,18.3251953 Z M184.478516,18.3339844 C186.125,18.3339844 187.352539,17.8344727 188.161133,16.8354492 C188.969727,15.8364258 189.374023,14.6337891 189.374023,13.2275391 C189.374023,11.8447266 188.969727,10.6464844 188.161133,9.6328125 C187.352539,8.61914062 186.125,8.11230469 184.478516,8.11230469 C182.832031,8.11230469 181.604492,8.61914062 180.795898,9.6328125 C179.987305,10.6464844 179.583008,11.8447266 179.583008,13.2275391 C179.583008,14.6337891 179.987305,15.8364258 180.795898,16.8354492 C181.604492,17.8344727 182.832031,18.3339844 184.478516,18.3339844 Z M184.469727,16.2333984 C183.737305,16.2333984 183.17334,15.9726562 182.777832,15.4511719 C182.382324,14.9296875 182.18457,14.1884766 182.18457,13.2275391 C182.18457,12.2666016 182.382324,11.5268555 182.777832,11.0083008 C183.17334,10.4897461 183.737305,10.2304688 184.469727,10.2304688 C185.202148,10.2304688 185.764648,10.4897461 186.157227,11.0083008 C186.549805,11.5268555 186.746094,12.2666016 186.746094,13.2275391 C186.746094,14.1884766 186.549805,14.9296875 186.157227,15.4511719 C185.764648,15.9726562 185.202148,16.2333984 184.469727,16.2333984 Z M195.473633,18.3339844 C197.120117,18.3339844 198.347656,17.8344727 199.15625,16.8354492 C199.964844,15.8364258 200.369141,14.6337891 200.369141,13.2275391 C200.369141,11.8447266 199.964844,10.6464844 199.15625,9.6328125 C198.347656,8.61914062 197.120117,8.11230469 195.473633,8.11230469 C193.827148,8.11230469 192.599609,8.61914062 191.791016,9.6328125 C190.982422,10.6464844 190.578125,11.8447266 190.578125,13.2275391 C190.578125,14.6337891 190.982422,15.8364258 191.791016,16.8354492 C192.599609,17.8344727 193.827148,18.3339844 195.473633,18.3339844 Z M195.464844,16.2333984 C194.732422,16.2333984 194.168457,15.9726562 193.772949,15.4511719 C193.377441,14.9296875 193.179688,14.1884766 193.179688,13.2275391 C193.179688,12.2666016 193.377441,11.5268555 193.772949,11.0083008 C194.168457,10.4897461 194.732422,10.2304688 195.464844,10.2304688 C196.197266,10.2304688 196.759766,10.4897461 197.152344,11.0083008 C197.544922,11.5268555 197.741211,12.2666016 197.741211,13.2275391 C197.741211,14.1884766 197.544922,14.9296875 197.152344,15.4511719 C196.759766,15.9726562 196.197266,16.2333984 195.464844,16.2333984 Z M211.487305,18 L211.487305,15.6708984 L205.071289,15.6708984 L205.071289,5.04492188 L202.364258,5.04492188 L202.364258,18 L211.487305,18 Z M215.503906,18.2988281 C216.183594,18.2988281 216.792969,18.1435547 217.332031,17.8330078 C217.783203,17.5693359 218.181641,17.25 218.527344,16.875 C218.544922,17.0917969 218.568359,17.2851562 218.597656,17.4550781 C218.626953,17.625 218.679688,17.8066406 218.755859,18 L218.755859,18 L221.480469,18 L221.480469,17.6308594 C221.316406,17.5546875 221.193359,17.4580078 221.111328,17.3408203 C221.029297,17.2236328 220.979492,17.0009766 220.961914,16.6728516 C220.950195,16.2392578 220.944336,15.8701172 220.944336,15.5654297 L220.944336,15.5654297 L220.944336,11.1708984 C220.944336,10.0166016 220.537109,9.23144531 219.722656,8.81542969 C218.908203,8.39941406 217.976562,8.19140625 216.927734,8.19140625 C215.316406,8.19140625 214.179688,8.61328125 213.517578,9.45703125 C213.101562,9.99609375 212.867188,10.6845703 212.814453,11.5224609 L212.814453,11.5224609 L215.231445,11.5224609 C215.290039,11.1533203 215.407227,10.8603516 215.583008,10.6435547 C215.829102,10.3505859 216.248047,10.2041016 216.839844,10.2041016 C217.367188,10.2041016 217.76709,10.2788086 218.039551,10.4282227 C218.312012,10.5776367 218.448242,10.8486328 218.448242,11.2412109 C218.448242,11.5634766 218.269531,11.8007812 217.912109,11.953125 C217.712891,12.0410156 217.381836,12.1142578 216.918945,12.1728516 L216.918945,12.1728516 L216.066406,12.2783203 C215.099609,12.4013672 214.367188,12.6064453 213.869141,12.8935547 C212.960938,13.4208984 212.506836,14.2734375 212.506836,15.4511719 C212.506836,16.359375 212.789551,17.0610352 213.35498,17.5561523 C213.92041,18.0512695 214.636719,18.2988281 215.503906,18.2988281 Z M216.242188,16.4794922 C215.902344,16.4794922 215.61377,16.3842773 215.376465,16.1938477 C215.13916,16.003418 215.020508,15.6943359 215.020508,15.2666016 C215.020508,14.7861328 215.213867,14.4316406 215.600586,14.203125 C215.829102,14.0683594 216.207031,13.9541016 216.734375,13.8603516 L216.734375,13.8603516 L217.296875,13.7548828 C217.578125,13.7021484 217.799316,13.6450195 217.960449,13.5834961 C218.121582,13.5219727 218.28125,13.4414062 218.439453,13.3417969 L218.439453,13.3417969 L218.439453,14.2734375 C218.421875,15.1113281 218.186035,15.6884766 217.731934,16.0048828 C217.277832,16.3212891 216.78125,16.4794922 216.242188,16.4794922 Z M228.371094,18.2548828 C229.630859,18.2548828 230.612305,17.765625 231.31543,16.7871094 C232.018555,15.8085938 232.370117,14.5751953 232.370117,13.0869141 C232.370117,11.6513672 232.01416,10.4794922 231.302246,9.57128906 C230.590332,8.66308594 229.604492,8.20898438 228.344727,8.20898438 C227.647461,8.20898438 227.073242,8.35546875 226.62207,8.6484375 C226.241211,8.8828125 225.892578,9.22265625 225.576172,9.66796875 L225.576172,9.66796875 L225.576172,5.0625 L223.080078,5.0625 L223.080078,18 L225.532227,18 L225.532227,16.7958984 C225.866211,17.2646484 226.176758,17.5927734 226.463867,17.7802734 C226.944336,18.0966797 227.580078,18.2548828 228.371094,18.2548828 Z M227.703125,16.1894531 C226.958984,16.1894531 226.405273,15.9199219 226.041992,15.3808594 C225.678711,14.8417969 225.49707,14.1621094 225.49707,13.3417969 C225.49707,12.6445312 225.584961,12.0761719 225.760742,11.6367188 C226.100586,10.8105469 226.724609,10.3974609 227.632812,10.3974609 C228.529297,10.3974609 229.144531,10.8193359 229.478516,11.6630859 C229.654297,12.1083984 229.742188,12.6708984 229.742188,13.3505859 C229.742188,14.2001953 229.563477,14.8857422 229.206055,15.4072266 C228.848633,15.9287109 228.347656,16.1894531 227.703125,16.1894531 Z" id="GuinsooLab" fill="#000000" fill-rule="nonzero"></path>
            <g id="Group" fill="#AA00FF">
                <path d="M24,29.4109632 L24,87.0539233 C24.729742,90.08823 25.832948,92.0843814 27.3096183,93.0423777 C28.7862885,94.000374 31.443056,94.4435218 35.2799208,94.3718213 L71.8218137,73.9797068 L62.2512244,63.0690019 L62.2512244,49.0570549 L87.4482759,34.4917061 L36.2875698,5.13799087 C34.7684667,5.03178503 33.7248471,4.98688586 33.156711,5.00329335 C31.8626152,5.0406662 31.1014489,5.13435892 30.4766914,5.28810478 C29.0955675,5.62798401 28.1123135,6.40543066 27.3096183,7.04859742 C26.3238712,7.83843614 25.1073614,9.02921963 24.5241241,10.6530214 C24.3949126,11.0127613 24.2943872,11.6837417 24.2104326,12.3013963 C24.1433361,12.7950257 24.0731919,13.6600362 24,14.8964277 L50.3496287,30.6427863 L50.3496287,69.6843697 L37.9051539,76.5752945 L37.9051539,37.3362073 L24,29.4109632 Z" id="Path-20"></path>
                <path d="M72.5517241,56.9290368 L99.6724604,41.4137931 C101.282261,42.8829204 102.306694,43.9804572 102.74576,44.7064035 C103.887003,46.5933221 103.930255,48.4540417 103.994271,49.5750611 C104.056038,50.6566836 103.616905,52.7861189 102.74576,54.3793103 C102.377247,55.0532646 101.648149,55.9031735 100.558466,56.9290368 L82.0962786,67.3448276 L72.5517241,56.9290368 Z" id="Path-24"></path>
            </g>
        </g>
    </g>
</svg>