<?xml version="1.0" encoding="UTF-8"?>
<svg width="2429px" height="2295px" viewBox="0 0 2429 2295" version="1.1" xmlns="http://www.w3.org/2000/svg" xmlns:xlink="http://www.w3.org/1999/xlink">
    <title>guinsoo-logo</title>
    <g id="guinsoo-logo" stroke="none" stroke-width="1" fill="none" fill-rule="evenodd">
        <rect fill="#000000" x="0" y="0" width="2429" height="2295"></rect>
        <path d="M987.125,1333.34375 C997.28125,1334.125 1008.21875,1332.95312 1019.9375,1329.82812 C1031.65625,1326.70312 1042.98438,1325.14062 1053.92188,1325.14062 L1053.92188,1325.14062 L1085.5625,1325.14062 C1098.0625,1325.14062 1112.125,1323.96875 1127.75,1321.625 C1130.09375,1320.0625 1131.85156,1318.10938 1133.02344,1315.76562 C1134.19531,1313.42188 1136.73438,1312.64062 1140.64062,1313.42188 C1150.79688,1312.64062 1160.17188,1311.46875 1168.76562,1309.90625 L1168.76562,1309.90625 L1194.54688,1305.21875 C1203.14062,1303.65625 1212.125,1302.48438 1221.5,1301.70312 C1230.875,1300.92188 1242.20312,1300.53125 1255.48438,1300.53125 C1285.95312,1288.8125 1317.00781,1278.46094 1348.64844,1269.47656 C1380.28906,1260.49219 1411.73438,1251.89844 1442.98438,1243.69531 C1474.23438,1235.49219 1504.70312,1226.89844 1534.39062,1217.91406 C1564.07812,1208.92969 1592.00781,1197.79688 1618.17969,1184.51562 C1644.35156,1171.23438 1667.98438,1155.41406 1689.07812,1137.05469 C1710.17188,1118.69531 1728.14062,1096.23438 1742.98438,1069.67188 C1744.54688,1058.73438 1743.76562,1049.35938 1740.64062,1041.54688 C1737.51562,1033.73438 1736.73438,1023.57812 1738.29688,1011.07812 C1725.01562,1004.82812 1713.6875,997.015625 1704.3125,987.640625 C1694.9375,978.265625 1685.5625,968.695312 1676.1875,958.929688 C1666.8125,949.164062 1657.04688,939.789062 1646.89062,930.804688 C1636.73438,921.820312 1624.625,914.203125 1610.5625,907.953125 C1595.71875,899.359375 1579.70312,890.570312 1562.51562,881.585938 C1545.32812,872.601562 1528.53125,863.8125 1512.125,855.21875 C1495.71875,846.625 1480.09375,838.03125 1465.25,829.4375 C1450.40625,820.84375 1437.90625,812.640625 1427.75,804.828125 L1427.75,804.828125 L1330.48438,869.28125 C1328.92188,877.09375 1326.57812,883.734375 1323.45312,889.203125 C1320.32812,894.671875 1318.375,901.703125 1317.59375,910.296875 C1320.71875,911.859375 1322.86719,911.859375 1324.03906,910.296875 C1325.21094,908.734375 1325.99219,907.171875 1326.38281,905.609375 C1326.77344,904.046875 1327.35938,902.484375 1328.14062,900.921875 C1328.92188,899.359375 1331.26562,899.359375 1335.17188,900.921875 C1340.64062,904.828125 1343.375,909.90625 1343.375,916.15625 C1343.375,922.40625 1340.64062,927.875 1335.17188,932.5625 C1336.73438,951.3125 1341.61719,966.546875 1349.82031,978.265625 C1358.02344,989.984375 1368.375,999.359375 1380.875,1006.39062 C1377.75,1010.29688 1373.64844,1014.00781 1368.57031,1017.52344 C1363.49219,1021.03906 1363.29688,1025.14062 1367.98438,1029.82812 C1378.92188,1032.95312 1391.42188,1037.25 1405.48438,1042.71875 C1357.82812,1055.21875 1310.95312,1067.52344 1264.85938,1079.63281 C1218.76562,1091.74219 1169.15625,1100.53125 1116.03125,1106 C1112.125,1107.5625 1109.78125,1110.29688 1109,1114.20312 C1108.21875,1118.10938 1106.26562,1121.23438 1103.14062,1123.57812 C1077.35938,1118.10938 1051.57812,1116.35156 1025.79688,1118.30469 C1000.01562,1120.25781 972.28125,1120.45312 942.59375,1118.89062 C941.03125,1114.98438 938.882812,1111.46875 936.148438,1108.34375 C933.414062,1105.21875 931.265625,1101.70312 929.703125,1097.79688 C944.546875,1072.01562 962.515625,1045.64844 983.609375,1018.69531 C1004.70312,991.742188 1027.35938,965.570312 1051.57812,940.179688 C1075.79688,914.789062 1100.99219,890.765625 1127.16406,868.109375 C1153.33594,845.453125 1179.3125,824.75 1205.09375,806 C1230.875,787.25 1256.85156,770.648438 1283.02344,756.195312 C1309.19531,741.742188 1334.97656,728.265625 1360.36719,715.765625 C1385.75781,703.265625 1409.97656,691.351562 1433.02344,680.023438 C1456.07031,668.695312 1476.96875,656.78125 1495.71875,644.28125 C1494.15625,638.03125 1494.35156,633.539062 1496.30469,630.804688 C1498.25781,628.070312 1499.23438,624.359375 1499.23438,619.671875 C1499.23438,614.203125 1496.5,611.46875 1491.03125,611.46875 L1490.73024,611.465937 C1485.46216,611.366539 1482.82812,608.633102 1482.82812,603.265625 C1489.85938,603.265625 1493.375,601.3125 1493.375,597.40625 C1493.375,593.5 1492.59375,589.203125 1491.03125,584.515625 C1489.46875,579.828125 1488.49219,575.53125 1488.10156,571.625 C1487.71094,567.71875 1490.25,565.765625 1495.71875,565.765625 C1490.25,551.703125 1482.24219,540.570312 1471.69531,532.367188 C1461.14844,524.164062 1449.82031,517.132812 1437.71094,511.273438 C1425.60156,505.414062 1413.88281,499.554688 1402.55469,493.695312 C1391.22656,487.835938 1382.04688,477.484375 1375.01562,462.640625 C1369.54688,461.078125 1364.27344,461.273438 1359.19531,463.226562 C1354.11719,465.179688 1347.28125,463.421875 1338.6875,457.953125 C1314.46875,479.046875 1287.32031,498.578125 1257.24219,516.546875 C1227.16406,534.515625 1197.28125,552.09375 1167.59375,569.28125 C1137.90625,586.46875 1109.39062,604.4375 1082.04688,623.1875 C1054.70312,641.9375 1031.26562,662.640625 1011.73438,685.296875 C1003.14062,686.859375 996.109375,689.789062 990.640625,694.085938 C985.171875,698.382812 980.289062,703.265625 975.992188,708.734375 C971.695312,714.203125 967.398438,719.867188 963.101562,725.726562 C958.804688,731.585938 953.140625,737.25 946.109375,742.71875 C903.140625,776.3125 866.226562,815.179688 835.367188,859.320312 C804.507812,903.460938 776.96875,951.3125 752.75,1002.875 C754.3125,1013.8125 753.921875,1022.79688 751.578125,1029.82812 C749.234375,1036.85938 748.0625,1044.67188 748.0625,1053.26562 C749.625,1054.82812 751.578125,1056.19531 753.921875,1057.36719 C756.265625,1058.53906 757.046875,1061.07812 756.265625,1064.98438 C760.171875,1147.01562 782.046875,1211.46875 821.890625,1258.34375 C861.734375,1305.21875 916.8125,1330.21875 987.125,1333.34375 Z" id="G" fill="#FFFFFF" fill-rule="nonzero"></path>
        <text id="GuinsooLab" font-family="OriyaMN, Oriya MN" font-size="400" font-weight="normal" fill="#FFFFFF" fill-opacity="0.163843969">
            <tspan x="82.4492188" y="2052">GuinsooLab</tspan>
        </text>
    </g>
</svg>