<?xml version="1.0" encoding="UTF-8"?>
<svg width="553px" height="106px" viewBox="0 0 553 106" version="1.1" xmlns="http://www.w3.org/2000/svg" xmlns:xlink="http://www.w3.org/1999/xlink">
    <title>guinsoolab-stealthward</title>
    <g id="guinsoolab-platform" stroke="none" stroke-width="1" fill="none" fill-rule="evenodd">
        <g id="guinsoolab-stealthward">
            <path d="M150.921875,88.703125 C153.96875,88.703125 156.658203,88.3515625 158.990234,87.6484375 C161.322266,86.9453125 163.273438,85.9785156 164.84375,84.7480469 C166.414062,83.5175781 167.597656,82.0703125 168.394531,80.40625 C169.191406,78.7421875 169.589844,76.9375 169.589844,74.9921875 C169.589844,73.3515625 169.214844,71.875 168.464844,70.5625 C167.714844,69.25 166.724609,68.0546875 165.494141,66.9765625 C164.263672,65.8984375 162.863281,64.9082031 161.292969,64.0058594 C159.722656,63.1035156 158.123047,62.2421875 156.494141,61.421875 C154.865234,60.6015625 153.265625,59.7871094 151.695312,58.9785156 C150.125,58.1699219 148.724609,57.3203125 147.494141,56.4296875 C146.263672,55.5390625 145.273438,54.578125 144.523438,53.546875 C143.773438,52.515625 143.398438,51.3671875 143.398438,50.1015625 C143.398438,49.375 143.539062,48.6308594 143.820312,47.8691406 C144.101562,47.1074219 144.558594,46.4160156 145.191406,45.7949219 C145.824219,45.1738281 146.662109,44.6640625 147.705078,44.265625 C148.748047,43.8671875 150.03125,43.6679688 151.554688,43.6679688 C153.171875,43.6679688 154.566406,43.8964844 155.738281,44.3535156 C156.910156,44.8105469 157.90625,45.4257812 158.726562,46.1992188 C159.546875,46.9726562 160.238281,47.875 160.800781,48.90625 C161.363281,49.9375 161.855469,51.015625 162.277344,52.140625 L162.277344,52.140625 L169.625,52.140625 C169.085938,50.359375 168.3125,48.6894531 167.304688,47.1308594 C166.296875,45.5722656 165.048828,44.2128906 163.560547,43.0527344 C162.072266,41.8925781 160.355469,40.984375 158.410156,40.328125 C156.464844,39.671875 154.296875,39.34375 151.90625,39.34375 C149,39.34375 146.410156,39.6777344 144.136719,40.3457031 C141.863281,41.0136719 139.941406,41.9394531 138.371094,43.1230469 C136.800781,44.3066406 135.599609,45.7011719 134.767578,47.3066406 C133.935547,48.9121094 133.519531,50.6640625 133.519531,52.5625 C133.519531,54.296875 133.882812,55.8378906 134.609375,57.1855469 C135.335938,58.5332031 136.296875,59.7402344 137.492188,60.8066406 C138.6875,61.8730469 140.046875,62.8398438 141.570312,63.7070312 C143.09375,64.5742188 144.652344,65.4003906 146.246094,66.1855469 C147.839844,66.9707031 149.398438,67.75 150.921875,68.5234375 C152.445312,69.296875 153.804688,70.1347656 155,71.0371094 C156.195312,71.9394531 157.15625,72.9414062 157.882812,74.0429688 C158.609375,75.1445312 158.972656,76.3984375 158.972656,77.8046875 C158.972656,78.9296875 158.738281,79.8730469 158.269531,80.6347656 C157.800781,81.3964844 157.179688,82.0175781 156.40625,82.4980469 C155.632812,82.9785156 154.759766,83.3242188 153.787109,83.5351562 C152.814453,83.7460938 151.835938,83.8515625 150.851562,83.8515625 C149.351562,83.8515625 148.033203,83.6347656 146.896484,83.2011719 C145.759766,82.7675781 144.775391,82.1699219 143.943359,81.4082031 C143.111328,80.6464844 142.425781,79.75 141.886719,78.71875 C141.347656,77.6875 140.9375,76.5742188 140.65625,75.3789062 L140.65625,75.3789062 L132.535156,75.3789062 C132.863281,77.3242188 133.472656,79.1113281 134.363281,80.7402344 C135.253906,82.3691406 136.449219,83.7695312 137.949219,84.9414062 C139.449219,86.1132812 141.271484,87.0332031 143.416016,87.7011719 C145.560547,88.3691406 148.0625,88.703125 150.921875,88.703125 Z M190.578125,88.8085938 C192.171875,88.8085938 193.578125,88.6386719 194.796875,88.2988281 C196.015625,87.9589844 197.09375,87.4960938 198.03125,86.9101562 C198.96875,86.3242188 199.800781,85.6269531 200.527344,84.8183594 C201.253906,84.0097656 201.921875,83.1367188 202.53125,82.1992188 L202.53125,82.1992188 L198.804688,79.2460938 C198.664062,79.4335938 198.435547,79.703125 198.119141,80.0546875 C197.802734,80.40625 197.439453,80.7519531 197.029297,81.0917969 C196.619141,81.4316406 196.185547,81.7304688 195.728516,81.9882812 C195.271484,82.2460938 194.855469,82.375 194.480469,82.375 C193.871094,82.375 193.378906,82.1054688 193.003906,81.5664062 C192.628906,81.0273438 192.441406,80.3945312 192.441406,79.6679688 L192.441406,79.6679688 L192.441406,56.5 L201.265625,56.5 L201.265625,52 L192.441406,52 L192.441406,40.6796875 L189.171875,40.6796875 L181.542969,44.6875 L181.542969,52 L175.742188,53.9335938 L175.742188,56.5 L181.542969,56.5 L181.542969,79.984375 C181.542969,81.296875 181.730469,82.4921875 182.105469,83.5703125 C182.480469,84.6484375 183.042969,85.5742188 183.792969,86.3476562 C184.542969,87.1210938 185.480469,87.7246094 186.605469,88.1582031 C187.730469,88.5917969 189.054688,88.8085938 190.578125,88.8085938 Z M224.75,88.8085938 C226.742188,88.8085938 228.710938,88.4394531 230.65625,87.7011719 C232.601562,86.9628906 234.400391,85.9492188 236.052734,84.6601562 C237.705078,83.3710938 239.146484,81.8710938 240.376953,80.1601562 C241.607422,78.4492188 242.503906,76.6210938 243.066406,74.6757812 L243.066406,74.6757812 L237.511719,73.796875 C237.183594,74.8984375 236.65625,75.9238281 235.929688,76.8730469 C235.203125,77.8222656 234.347656,78.6542969 233.363281,79.3691406 C232.378906,80.0839844 231.306641,80.6464844 230.146484,81.0566406 C228.986328,81.4667969 227.808594,81.671875 226.613281,81.671875 C225.230469,81.671875 223.970703,81.2675781 222.833984,80.4589844 C221.697266,79.6503906 220.707031,78.5605469 219.863281,77.1894531 C219.019531,75.8183594 218.345703,74.2304688 217.841797,72.4257812 C217.337891,70.6210938 217.039062,68.7226562 216.945312,66.7304688 L216.945312,66.7304688 L241.871094,66.7304688 C241.871094,64.5976562 241.460938,62.59375 240.640625,60.71875 C239.820312,58.84375 238.666016,57.2148438 237.177734,55.8320312 C235.689453,54.4492188 233.902344,53.359375 231.816406,52.5625 C229.730469,51.765625 227.433594,51.3671875 224.925781,51.3671875 C222.113281,51.3671875 219.564453,51.8652344 217.279297,52.8613281 C214.994141,53.8574219 213.03125,55.2460938 211.390625,57.0273438 C209.75,58.8085938 208.484375,60.9121094 207.59375,63.3378906 C206.703125,65.7636719 206.257812,68.3945312 206.257812,71.2304688 C206.257812,73.5976562 206.744141,75.8417969 207.716797,77.9628906 C208.689453,80.0839844 210.007812,81.9472656 211.671875,83.5527344 C213.335938,85.1582031 215.292969,86.4355469 217.542969,87.3847656 C219.792969,88.3339844 222.195312,88.8085938 224.75,88.8085938 Z M229.355469,63.0039062 L217.050781,63.0039062 C217.167969,61.9257812 217.408203,60.9472656 217.771484,60.0683594 C218.134766,59.1894531 218.580078,58.4394531 219.107422,57.8183594 C219.634766,57.1972656 220.226562,56.7167969 220.882812,56.3769531 C221.539062,56.0371094 222.207031,55.8671875 222.886719,55.8671875 C223.753906,55.8671875 224.5625,56.0371094 225.3125,56.3769531 C226.0625,56.7167969 226.71875,57.203125 227.28125,57.8359375 C227.84375,58.46875 228.306641,59.2246094 228.669922,60.1035156 C229.033203,60.9824219 229.261719,61.9492188 229.355469,63.0039062 L229.355469,63.0039062 Z M258.429688,88.6679688 C259.648438,88.6679688 260.691406,88.5683594 261.558594,88.3691406 C262.425781,88.1699219 263.210938,87.8945312 263.914062,87.5429688 C264.617188,87.1914062 265.261719,86.7636719 265.847656,86.2597656 C266.433594,85.7558594 267.054688,85.1992188 267.710938,84.5898438 C267.804688,84.9648438 267.957031,85.3515625 268.167969,85.75 C268.378906,86.1484375 268.625,86.5175781 268.90625,86.8574219 C269.1875,87.1972656 269.503906,87.4726562 269.855469,87.6835938 C270.207031,87.8945312 270.570312,88 270.945312,88 L270.945312,88 L283.882812,88 C282.21875,87.3203125 280.929688,86.4648438 280.015625,85.4335938 C279.101562,84.4023438 278.644531,83.1484375 278.644531,81.671875 L278.644531,81.671875 L278.644531,61.0703125 C278.644531,59.5703125 278.357422,58.2167969 277.783203,57.0097656 C277.208984,55.8027344 276.318359,54.7714844 275.111328,53.9160156 C273.904297,53.0605469 272.363281,52.3984375 270.488281,51.9296875 C268.613281,51.4609375 266.386719,51.2265625 263.808594,51.2265625 C261.722656,51.2265625 259.783203,51.4609375 257.990234,51.9296875 C256.197266,52.3984375 254.603516,53.0605469 253.208984,53.9160156 C251.814453,54.7714844 250.648438,55.8144531 249.710938,57.0449219 C248.773438,58.2753906 248.117188,59.640625 247.742188,61.140625 L247.742188,61.140625 L256.917969,61.140625 C257.058594,60.34375 257.28125,59.5820312 257.585938,58.8554688 C257.890625,58.1289062 258.289062,57.484375 258.78125,56.921875 C259.273438,56.359375 259.859375,55.9140625 260.539062,55.5859375 C261.21875,55.2578125 261.992188,55.09375 262.859375,55.09375 C263.585938,55.09375 264.248047,55.2050781 264.845703,55.4277344 C265.443359,55.6503906 265.953125,56.0136719 266.375,56.5175781 C266.796875,57.0214844 267.125,57.6777344 267.359375,58.4863281 C267.59375,59.2949219 267.710938,60.2734375 267.710938,61.421875 L267.710938,61.421875 L267.710938,64.9375 C265.226562,65.6875 262.789062,66.4726562 260.398438,67.2929688 C258.007812,68.1132812 255.869141,69.0742188 253.982422,70.1757812 C252.095703,71.2773438 250.578125,72.5664062 249.429688,74.0429688 C248.28125,75.5195312 247.707031,77.2890625 247.707031,79.3515625 C247.707031,80.6875 247.953125,81.9238281 248.445312,83.0605469 C248.9375,84.1972656 249.646484,85.1816406 250.572266,86.0136719 C251.498047,86.8457031 252.623047,87.4960938 253.947266,87.9648438 C255.271484,88.4335938 256.765625,88.6679688 258.429688,88.6679688 Z M262.121094,82.65625 C261.066406,82.65625 260.228516,82.3164062 259.607422,81.6367188 C258.986328,80.9570312 258.675781,80.0195312 258.675781,78.8242188 C258.675781,77.7460938 258.951172,76.7324219 259.501953,75.7832031 C260.052734,74.8339844 260.755859,73.9667969 261.611328,73.1816406 C262.466797,72.3964844 263.433594,71.6875 264.511719,71.0546875 C265.589844,70.421875 266.65625,69.8828125 267.710938,69.4375 L267.710938,69.4375 L267.710938,79.8085938 C266.609375,80.6523438 265.625,81.3378906 264.757812,81.8652344 C263.890625,82.3925781 263.011719,82.65625 262.121094,82.65625 Z M300.335938,88 L300.335938,33.6484375 L297.066406,33.6484375 L289.472656,37.65625 L289.472656,88 L300.335938,88 Z M321.886719,88.8085938 C323.480469,88.8085938 324.886719,88.6386719 326.105469,88.2988281 C327.324219,87.9589844 328.402344,87.4960938 329.339844,86.9101562 C330.277344,86.3242188 331.109375,85.6269531 331.835938,84.8183594 C332.5625,84.0097656 333.230469,83.1367188 333.839844,82.1992188 L333.839844,82.1992188 L330.113281,79.2460938 C329.972656,79.4335938 329.744141,79.703125 329.427734,80.0546875 C329.111328,80.40625 328.748047,80.7519531 328.337891,81.0917969 C327.927734,81.4316406 327.494141,81.7304688 327.037109,81.9882812 C326.580078,82.2460938 326.164062,82.375 325.789062,82.375 C325.179688,82.375 324.6875,82.1054688 324.3125,81.5664062 C323.9375,81.0273438 323.75,80.3945312 323.75,79.6679688 L323.75,79.6679688 L323.75,56.5 L332.574219,56.5 L332.574219,52 L323.75,52 L323.75,40.6796875 L320.480469,40.6796875 L312.851562,44.6875 L312.851562,52 L307.050781,53.9335938 L307.050781,56.5 L312.851562,56.5 L312.851562,79.984375 C312.851562,81.296875 313.039062,82.4921875 313.414062,83.5703125 C313.789062,84.6484375 314.351562,85.5742188 315.101562,86.3476562 C315.851562,87.1210938 316.789062,87.7246094 317.914062,88.1582031 C319.039062,88.5917969 320.363281,88.8085938 321.886719,88.8085938 Z M350.820312,88 L350.820312,61.5976562 C351.453125,61.0351562 352.138672,60.5195312 352.876953,60.0507812 C353.615234,59.5820312 354.347656,59.171875 355.074219,58.8203125 C355.800781,58.46875 356.486328,58.1992188 357.130859,58.0117188 C357.775391,57.8242188 358.308594,57.7304688 358.730469,57.7304688 C359.691406,57.7304688 360.470703,58.2167969 361.068359,59.1894531 C361.666016,60.1621094 361.964844,61.5742188 361.964844,63.4257812 L361.964844,63.4257812 L361.964844,88 L372.933594,88 L372.933594,62.265625 C372.933594,60.765625 372.658203,59.3476562 372.107422,58.0117188 C371.556641,56.6757812 370.806641,55.5097656 369.857422,54.5136719 C368.908203,53.5175781 367.794922,52.7324219 366.517578,52.1582031 C365.240234,51.5839844 363.875,51.296875 362.421875,51.296875 C360.453125,51.296875 358.443359,51.5957031 356.392578,52.1933594 C354.341797,52.7910156 352.484375,53.6992188 350.820312,54.9179688 L350.820312,54.9179688 L350.820312,33.6484375 L347.550781,33.6484375 L339.78125,37.65625 L339.78125,88 L350.820312,88 Z M400.636719,88.8085938 L408.40625,70.7734375 L416.246094,88.8085938 L421.273438,88.8085938 L437.199219,52 L430.132812,52 L421.027344,72.8476562 L411.394531,51.7539062 L409.25,51.7539062 L399.96875,73.1289062 L390.40625,52 L378.980469,52 L395.292969,88.8085938 L400.636719,88.8085938 Z M450.59375,88.6679688 C451.8125,88.6679688 452.855469,88.5683594 453.722656,88.3691406 C454.589844,88.1699219 455.375,87.8945312 456.078125,87.5429688 C456.78125,87.1914062 457.425781,86.7636719 458.011719,86.2597656 C458.597656,85.7558594 459.21875,85.1992188 459.875,84.5898438 C459.96875,84.9648438 460.121094,85.3515625 460.332031,85.75 C460.542969,86.1484375 460.789062,86.5175781 461.070312,86.8574219 C461.351562,87.1972656 461.667969,87.4726562 462.019531,87.6835938 C462.371094,87.8945312 462.734375,88 463.109375,88 L463.109375,88 L476.046875,88 C474.382812,87.3203125 473.09375,86.4648438 472.179688,85.4335938 C471.265625,84.4023438 470.808594,83.1484375 470.808594,81.671875 L470.808594,81.671875 L470.808594,61.0703125 C470.808594,59.5703125 470.521484,58.2167969 469.947266,57.0097656 C469.373047,55.8027344 468.482422,54.7714844 467.275391,53.9160156 C466.068359,53.0605469 464.527344,52.3984375 462.652344,51.9296875 C460.777344,51.4609375 458.550781,51.2265625 455.972656,51.2265625 C453.886719,51.2265625 451.947266,51.4609375 450.154297,51.9296875 C448.361328,52.3984375 446.767578,53.0605469 445.373047,53.9160156 C443.978516,54.7714844 442.8125,55.8144531 441.875,57.0449219 C440.9375,58.2753906 440.28125,59.640625 439.90625,61.140625 L439.90625,61.140625 L449.082031,61.140625 C449.222656,60.34375 449.445312,59.5820312 449.75,58.8554688 C450.054688,58.1289062 450.453125,57.484375 450.945312,56.921875 C451.4375,56.359375 452.023438,55.9140625 452.703125,55.5859375 C453.382812,55.2578125 454.15625,55.09375 455.023438,55.09375 C455.75,55.09375 456.412109,55.2050781 457.009766,55.4277344 C457.607422,55.6503906 458.117188,56.0136719 458.539062,56.5175781 C458.960938,57.0214844 459.289062,57.6777344 459.523438,58.4863281 C459.757812,59.2949219 459.875,60.2734375 459.875,61.421875 L459.875,61.421875 L459.875,64.9375 C457.390625,65.6875 454.953125,66.4726562 452.5625,67.2929688 C450.171875,68.1132812 448.033203,69.0742188 446.146484,70.1757812 C444.259766,71.2773438 442.742188,72.5664062 441.59375,74.0429688 C440.445312,75.5195312 439.871094,77.2890625 439.871094,79.3515625 C439.871094,80.6875 440.117188,81.9238281 440.609375,83.0605469 C441.101562,84.1972656 441.810547,85.1816406 442.736328,86.0136719 C443.662109,86.8457031 444.787109,87.4960938 446.111328,87.9648438 C447.435547,88.4335938 448.929688,88.6679688 450.59375,88.6679688 Z M454.285156,82.65625 C453.230469,82.65625 452.392578,82.3164062 451.771484,81.6367188 C451.150391,80.9570312 450.839844,80.0195312 450.839844,78.8242188 C450.839844,77.7460938 451.115234,76.7324219 451.666016,75.7832031 C452.216797,74.8339844 452.919922,73.9667969 453.775391,73.1816406 C454.630859,72.3964844 455.597656,71.6875 456.675781,71.0546875 C457.753906,70.421875 458.820312,69.8828125 459.875,69.4375 L459.875,69.4375 L459.875,79.8085938 C458.773438,80.6523438 457.789062,81.3378906 456.921875,81.8652344 C456.054688,82.3925781 455.175781,82.65625 454.285156,82.65625 Z M492.992188,88 L492.992188,61.9492188 C493.273438,61.2929688 493.666016,60.6777344 494.169922,60.1035156 C494.673828,59.5292969 495.242188,59.0253906 495.875,58.5917969 C496.507812,58.1582031 497.1875,57.8183594 497.914062,57.5722656 C498.640625,57.3261719 499.378906,57.203125 500.128906,57.203125 C500.667969,57.203125 501.154297,57.2441406 501.587891,57.3261719 C502.021484,57.4082031 502.4375,57.5429688 502.835938,57.7304688 C503.234375,57.9179688 503.638672,58.1640625 504.048828,58.46875 C504.458984,58.7734375 504.910156,59.1367188 505.402344,59.5585938 L505.402344,59.5585938 L509.164062,53.7578125 C508.226562,52.984375 507.125,52.2753906 505.859375,51.6308594 C504.59375,50.9863281 503.175781,50.6640625 501.605469,50.6640625 C499.988281,50.6640625 498.447266,51.0390625 496.982422,51.7890625 C495.517578,52.5390625 494.1875,53.5351562 492.992188,54.7773438 L492.992188,54.7773438 L489.722656,51.2617188 L482.09375,55.2695312 L482.09375,88 L492.992188,88 Z M527.375,88.8085938 C528.898438,88.8085938 530.445312,88.5507812 532.015625,88.0351562 C533.585938,87.5195312 535.039062,86.8046875 536.375,85.890625 L536.375,85.890625 L536.375,88 L547.238281,88 L547.238281,33.6484375 L543.96875,33.6484375 L536.375,37.65625 L536.375,52.28125 C535.625,52 534.787109,51.7773438 533.861328,51.6132812 C532.935547,51.4492188 531.945312,51.3671875 530.890625,51.3671875 C528.148438,51.3671875 525.576172,51.90625 523.173828,52.984375 C520.771484,54.0625 518.673828,55.4921875 516.880859,57.2734375 C515.087891,59.0546875 513.675781,61.0878906 512.644531,63.3730469 C511.613281,65.6582031 511.097656,68.0078125 511.097656,70.421875 C511.097656,72.8359375 511.519531,75.1503906 512.363281,77.3652344 C513.207031,79.5800781 514.367188,81.5371094 515.84375,83.2363281 C517.320312,84.9355469 519.048828,86.2890625 521.029297,87.296875 C523.009766,88.3046875 525.125,88.8085938 527.375,88.8085938 Z M531.3125,83.4648438 C530.140625,83.4648438 529.039062,83.0546875 528.007812,82.234375 C526.976562,81.4140625 526.074219,80.3183594 525.300781,78.9472656 C524.527344,77.5761719 523.912109,75.9882812 523.455078,74.1835938 C522.998047,72.3789062 522.769531,70.4804688 522.769531,68.4882812 C522.769531,66.6601562 522.96875,64.9667969 523.367188,63.4082031 C523.765625,61.8496094 524.298828,60.5019531 524.966797,59.3652344 C525.634766,58.2285156 526.414062,57.3378906 527.304688,56.6933594 C528.195312,56.0488281 529.132812,55.7265625 530.117188,55.7265625 C530.867188,55.7265625 531.617188,55.9140625 532.367188,56.2890625 C533.117188,56.6640625 533.791016,57.1972656 534.388672,57.8886719 C534.986328,58.5800781 535.466797,59.40625 535.830078,60.3671875 C536.193359,61.328125 536.375,62.3828125 536.375,63.53125 L536.375,63.53125 L536.375,80.828125 C536.070312,81.2265625 535.712891,81.5839844 535.302734,81.9003906 C534.892578,82.2167969 534.458984,82.4921875 534.001953,82.7265625 C533.544922,82.9609375 533.082031,83.1425781 532.613281,83.2714844 C532.144531,83.4003906 531.710938,83.4648438 531.3125,83.4648438 Z" id="Stealthward" fill="#000000" fill-rule="nonzero"></path>
            <path d="M134.679688,27.3427734 C135.722656,27.3427734 136.601562,27.1230469 137.316406,26.6835938 C137.732422,26.4316406 138.201172,25.9980469 138.722656,25.3828125 L138.722656,25.3828125 L138.995117,27 L140.788086,27 L140.788086,20.0478516 L135.391602,20.0478516 L135.391602,22.2099609 L138.388672,22.2099609 C138.253906,23.0595703 137.896484,23.746582 137.316406,24.2709961 C136.736328,24.7954102 135.992188,25.0576172 135.083984,25.0576172 C134.158203,25.0576172 133.332031,24.7265625 132.605469,24.0644531 C131.878906,23.4023438 131.515625,22.2744141 131.515625,20.6806641 C131.515625,19.0986328 131.851074,17.9135742 132.521973,17.1254883 C133.192871,16.3374023 134.049805,15.9433594 135.092773,15.9433594 C135.637695,15.9433594 136.132812,16.0400391 136.578125,16.2333984 C137.375,16.5849609 137.875977,17.203125 138.081055,18.0878906 L138.081055,18.0878906 L140.744141,18.0878906 C140.597656,16.8398438 140.024902,15.7983398 139.025879,14.9633789 C138.026855,14.128418 136.704102,13.7109375 135.057617,13.7109375 C133.15918,13.7109375 131.632812,14.34375 130.478516,15.609375 C129.324219,16.875 128.74707,18.5566406 128.74707,20.6542969 C128.74707,22.7285156 129.318359,24.3632812 130.460938,25.5585938 C131.556641,26.7480469 132.962891,27.3427734 134.679688,27.3427734 Z M146.37793,27.2109375 C146.870117,27.2109375 147.299316,27.1464844 147.665527,27.0175781 C148.031738,26.8886719 148.411133,26.6484375 148.803711,26.296875 C148.932617,26.1855469 149.043945,26.0566406 149.137695,25.9101562 C149.231445,25.7636719 149.290039,25.6757812 149.313477,25.6464844 L149.313477,25.6464844 L149.313477,27 L151.748047,27 L151.748047,17.4199219 L149.208008,17.4199219 L149.208008,22.6318359 C149.208008,23.2470703 149.125977,23.7421875 148.961914,24.1171875 C148.645508,24.8085938 148.05957,25.1542969 147.204102,25.1542969 C146.536133,25.1542969 146.087891,24.9111328 145.859375,24.4248047 C145.730469,24.1494141 145.666016,23.7392578 145.666016,23.1943359 L145.666016,23.1943359 L145.666016,17.4199219 L143.099609,17.4199219 L143.099609,23.1943359 C143.099609,24.2900391 143.237305,25.1191406 143.512695,25.6816406 C144.004883,26.7011719 144.959961,27.2109375 146.37793,27.2109375 Z M156.740234,16.2773438 L156.740234,13.9658203 L154.200195,13.9658203 L154.200195,16.2773438 L156.740234,16.2773438 Z M156.740234,27 L156.740234,17.4199219 L154.200195,17.4199219 L154.200195,27 L156.740234,27 Z M161.679688,27 L161.679688,21.8144531 C161.679688,21.2226562 161.761719,20.7363281 161.925781,20.3554688 C162.242188,19.6347656 162.825195,19.2744141 163.674805,19.2744141 C164.366211,19.2744141 164.834961,19.5205078 165.081055,20.0126953 C165.21582,20.2822266 165.283203,20.6689453 165.283203,21.1728516 L165.283203,21.1728516 L165.283203,27 L167.849609,27 L167.849609,20.5488281 C167.849609,19.3476562 167.534668,18.487793 166.904785,17.9692383 C166.274902,17.4506836 165.464844,17.1914062 164.474609,17.1914062 C163.683594,17.1914062 163.030273,17.3847656 162.514648,17.7714844 C162.227539,17.9882812 161.922852,18.3427734 161.600586,18.8349609 L161.600586,18.8349609 L161.600586,17.4375 L159.183594,17.4375 L159.183594,27 L161.679688,27 Z M173.984375,27.3251953 C175.460938,27.3251953 176.552246,27.0249023 177.258301,26.4243164 C177.964355,25.8237305 178.317383,25.0488281 178.317383,24.0996094 C178.317383,23.3789062 178.071289,22.7783203 177.579102,22.2978516 C177.081055,21.8232422 176.333984,21.46875 175.337891,21.234375 C173.84375,20.90625 172.973633,20.6748047 172.727539,20.5400391 C172.481445,20.4111328 172.358398,20.203125 172.358398,19.9160156 C172.358398,19.6875 172.474121,19.4882812 172.705566,19.3183594 C172.937012,19.1484375 173.325195,19.0634766 173.870117,19.0634766 C174.532227,19.0634766 175.000977,19.2333984 175.276367,19.5732422 C175.422852,19.7607422 175.513672,20.015625 175.548828,20.3378906 L175.548828,20.3378906 L178.053711,20.3378906 C177.942383,19.1660156 177.510254,18.3413086 176.757324,17.8637695 C176.004395,17.3862305 175.030273,17.1474609 173.834961,17.1474609 C172.575195,17.1474609 171.598145,17.465332 170.903809,18.1010742 C170.209473,18.7368164 169.862305,19.4970703 169.862305,20.3818359 C169.862305,21.1318359 170.084961,21.7060547 170.530273,22.1044922 C170.975586,22.5087891 171.740234,22.8457031 172.824219,23.1152344 C174.330078,23.4726562 175.200195,23.7246094 175.43457,23.8710938 C175.668945,24.0175781 175.786133,24.2314453 175.786133,24.5126953 C175.786133,24.8056641 175.641113,25.0253906 175.351074,25.171875 C175.061035,25.3183594 174.669922,25.3916016 174.177734,25.3916016 C173.339844,25.3916016 172.765625,25.2246094 172.455078,24.890625 C172.279297,24.703125 172.165039,24.3867188 172.112305,23.9414062 L172.112305,23.9414062 L169.572266,23.9414062 C169.572266,24.9257812 169.931152,25.7358398 170.648926,26.371582 C171.366699,27.0073242 172.478516,27.3251953 173.984375,27.3251953 Z M184.478516,27.3339844 C186.125,27.3339844 187.352539,26.8344727 188.161133,25.8354492 C188.969727,24.8364258 189.374023,23.6337891 189.374023,22.2275391 C189.374023,20.8447266 188.969727,19.6464844 188.161133,18.6328125 C187.352539,17.6191406 186.125,17.1123047 184.478516,17.1123047 C182.832031,17.1123047 181.604492,17.6191406 180.795898,18.6328125 C179.987305,19.6464844 179.583008,20.8447266 179.583008,22.2275391 C179.583008,23.6337891 179.987305,24.8364258 180.795898,25.8354492 C181.604492,26.8344727 182.832031,27.3339844 184.478516,27.3339844 Z M184.469727,25.2333984 C183.737305,25.2333984 183.17334,24.9726562 182.777832,24.4511719 C182.382324,23.9296875 182.18457,23.1884766 182.18457,22.2275391 C182.18457,21.2666016 182.382324,20.5268555 182.777832,20.0083008 C183.17334,19.4897461 183.737305,19.2304688 184.469727,19.2304688 C185.202148,19.2304688 185.764648,19.4897461 186.157227,20.0083008 C186.549805,20.5268555 186.746094,21.2666016 186.746094,22.2275391 C186.746094,23.1884766 186.549805,23.9296875 186.157227,24.4511719 C185.764648,24.9726562 185.202148,25.2333984 184.469727,25.2333984 Z M195.473633,27.3339844 C197.120117,27.3339844 198.347656,26.8344727 199.15625,25.8354492 C199.964844,24.8364258 200.369141,23.6337891 200.369141,22.2275391 C200.369141,20.8447266 199.964844,19.6464844 199.15625,18.6328125 C198.347656,17.6191406 197.120117,17.1123047 195.473633,17.1123047 C193.827148,17.1123047 192.599609,17.6191406 191.791016,18.6328125 C190.982422,19.6464844 190.578125,20.8447266 190.578125,22.2275391 C190.578125,23.6337891 190.982422,24.8364258 191.791016,25.8354492 C192.599609,26.8344727 193.827148,27.3339844 195.473633,27.3339844 Z M195.464844,25.2333984 C194.732422,25.2333984 194.168457,24.9726562 193.772949,24.4511719 C193.377441,23.9296875 193.179688,23.1884766 193.179688,22.2275391 C193.179688,21.2666016 193.377441,20.5268555 193.772949,20.0083008 C194.168457,19.4897461 194.732422,19.2304688 195.464844,19.2304688 C196.197266,19.2304688 196.759766,19.4897461 197.152344,20.0083008 C197.544922,20.5268555 197.741211,21.2666016 197.741211,22.2275391 C197.741211,23.1884766 197.544922,23.9296875 197.152344,24.4511719 C196.759766,24.9726562 196.197266,25.2333984 195.464844,25.2333984 Z M211.487305,27 L211.487305,24.6708984 L205.071289,24.6708984 L205.071289,14.0449219 L202.364258,14.0449219 L202.364258,27 L211.487305,27 Z M215.503906,27.2988281 C216.183594,27.2988281 216.792969,27.1435547 217.332031,26.8330078 C217.783203,26.5693359 218.181641,26.25 218.527344,25.875 C218.544922,26.0917969 218.568359,26.2851562 218.597656,26.4550781 C218.626953,26.625 218.679688,26.8066406 218.755859,27 L218.755859,27 L221.480469,27 L221.480469,26.6308594 C221.316406,26.5546875 221.193359,26.4580078 221.111328,26.3408203 C221.029297,26.2236328 220.979492,26.0009766 220.961914,25.6728516 C220.950195,25.2392578 220.944336,24.8701172 220.944336,24.5654297 L220.944336,24.5654297 L220.944336,20.1708984 C220.944336,19.0166016 220.537109,18.2314453 219.722656,17.8154297 C218.908203,17.3994141 217.976562,17.1914062 216.927734,17.1914062 C215.316406,17.1914062 214.179688,17.6132812 213.517578,18.4570312 C213.101562,18.9960938 212.867188,19.6845703 212.814453,20.5224609 L212.814453,20.5224609 L215.231445,20.5224609 C215.290039,20.1533203 215.407227,19.8603516 215.583008,19.6435547 C215.829102,19.3505859 216.248047,19.2041016 216.839844,19.2041016 C217.367188,19.2041016 217.76709,19.2788086 218.039551,19.4282227 C218.312012,19.5776367 218.448242,19.8486328 218.448242,20.2412109 C218.448242,20.5634766 218.269531,20.8007812 217.912109,20.953125 C217.712891,21.0410156 217.381836,21.1142578 216.918945,21.1728516 L216.918945,21.1728516 L216.066406,21.2783203 C215.099609,21.4013672 214.367188,21.6064453 213.869141,21.8935547 C212.960938,22.4208984 212.506836,23.2734375 212.506836,24.4511719 C212.506836,25.359375 212.789551,26.0610352 213.35498,26.5561523 C213.92041,27.0512695 214.636719,27.2988281 215.503906,27.2988281 Z M216.242188,25.4794922 C215.902344,25.4794922 215.61377,25.3842773 215.376465,25.1938477 C215.13916,25.003418 215.020508,24.6943359 215.020508,24.2666016 C215.020508,23.7861328 215.213867,23.4316406 215.600586,23.203125 C215.829102,23.0683594 216.207031,22.9541016 216.734375,22.8603516 L216.734375,22.8603516 L217.296875,22.7548828 C217.578125,22.7021484 217.799316,22.6450195 217.960449,22.5834961 C218.121582,22.5219727 218.28125,22.4414062 218.439453,22.3417969 L218.439453,22.3417969 L218.439453,23.2734375 C218.421875,24.1113281 218.186035,24.6884766 217.731934,25.0048828 C217.277832,25.3212891 216.78125,25.4794922 216.242188,25.4794922 Z M228.371094,27.2548828 C229.630859,27.2548828 230.612305,26.765625 231.31543,25.7871094 C232.018555,24.8085938 232.370117,23.5751953 232.370117,22.0869141 C232.370117,20.6513672 232.01416,19.4794922 231.302246,18.5712891 C230.590332,17.6630859 229.604492,17.2089844 228.344727,17.2089844 C227.647461,17.2089844 227.073242,17.3554688 226.62207,17.6484375 C226.241211,17.8828125 225.892578,18.2226562 225.576172,18.6679688 L225.576172,18.6679688 L225.576172,14.0625 L223.080078,14.0625 L223.080078,27 L225.532227,27 L225.532227,25.7958984 C225.866211,26.2646484 226.176758,26.5927734 226.463867,26.7802734 C226.944336,27.0966797 227.580078,27.2548828 228.371094,27.2548828 Z M227.703125,25.1894531 C226.958984,25.1894531 226.405273,24.9199219 226.041992,24.3808594 C225.678711,23.8417969 225.49707,23.1621094 225.49707,22.3417969 C225.49707,21.6445312 225.584961,21.0761719 225.760742,20.6367188 C226.100586,19.8105469 226.724609,19.3974609 227.632812,19.3974609 C228.529297,19.3974609 229.144531,19.8193359 229.478516,20.6630859 C229.654297,21.1083984 229.742188,21.6708984 229.742188,22.3505859 C229.742188,23.2001953 229.563477,23.8857422 229.206055,24.4072266 C228.848633,24.9287109 228.347656,25.1894531 227.703125,25.1894531 Z" id="GuinsooLab" fill="#000000" fill-rule="nonzero"></path>
            <g id="stealthward-header" fill="#6A55FE">
                <polygon id="Path-14" points="22 16 22 88 79 88 79 60.1152813 66.789901 47.5392486 54.3122092 60.1152813 62.1689817 68.9448341 39.8385706 68.9448341 39.8385706 33.6889303 54.3122092 33.6889303 66.789901 45.9433095 79 33.6889303 59.5871631 16"></polygon>
            </g>
        </g>
    </g>
</svg>