<?xml version="1.0" encoding="UTF-8"?>
<svg width="602px" height="602px" viewBox="0 0 602 602" version="1.1" xmlns="http://www.w3.org/2000/svg" xmlns:xlink="http://www.w3.org/1999/xlink">
    <title>GuinsooVM</title>
    <g id="GuinsooVM" stroke="none" stroke-width="1" fill="none" fill-rule="evenodd">
        <g id="vmware" transform="translate(89.000000, 88.000000)" fill-rule="nonzero">
            <path d="M98.7385012,0 C81.7731486,0.0266559636 68.0266542,13.7740714 68,30.7405608 L68,258.230393 C68,275.212641 81.7573987,288.983969 98.7385012,289 L326.251817,289 C343.236701,288.98931 357,275.216418 357,258.230393 L357,30.7405608 C356.96271,13.774711 343.216541,0.0319500079 326.251817,0 L98.7385012,0 Z M85.2426049,258.220711 L85.2426049,30.7405608 C85.2477303,27.1678946 86.6731177,23.743878 89.2046498,21.2230732 C91.7361819,18.7022684 95.1660855,17.2915679 98.7385012,17.3017968 L326.251817,17.3017968 C333.677465,17.3017968 339.738032,23.3144159 339.738032,30.7405608 L339.738032,258.230393 C339.738032,265.71463 333.677465,271.765922 326.251817,271.765922 L98.7385012,271.765922 C91.2838096,271.765922 85.2426049,265.71463 85.2426049,258.220711 Z" id="Shape" fill="#5D99DB"></path>
            <path d="M166.679981,69 C149.746952,69.0266611 136.026662,82.7464909 136,99.6789532 L136,327.282311 C136.010648,344.227692 149.734059,357.96797 166.679981,358 L394.261913,358 C411.228317,357.994664 424.98397,344.24814 425,327.282311 L425,99.6789532 C424.962628,82.7282552 411.213219,69.0052976 394.261913,69 L166.679981,69 L166.679981,69 Z M153.199383,327.291995 L153.199383,99.6789532 C153.210073,92.2485532 159.239642,86.2321898 166.670297,86.2375396 L394.252228,86.2375396 C401.718853,86.2375396 407.723142,92.2416312 407.723142,99.6789532 L407.723142,327.282311 C407.723142,334.768053 401.718853,340.752776 394.252228,340.752776 L166.670297,340.752776 C163.098479,340.755342 159.672075,339.338292 157.145509,336.813628 C154.618944,334.288964 153.199383,330.863694 153.199383,327.291995 L153.199383,327.291995 Z" id="Shape" stroke="#979797" fill="#2864A6"></path>
            <path d="M30.7253251,137 C13.7688249,137.021329 0.0266851866,150.759597 6.11235464e-06,167.716657 L6.11235464e-06,395.283315 C-0.0051330821,403.433134 3.23064598,411.250494 8.99415448,417.012379 C14.757663,422.774264 22.5757811,426.007687 30.7253251,425.999986 L258.265004,425.999986 C266.413864,425.999986 274.229988,422.767774 279.993918,417.007284 C285.757847,411.246793 289.000006,403.432448 289.000006,395.283315 L289.000006,167.716657 C288.957379,150.762445 275.218672,137.031936 258.265004,137 L30.7253251,137 L30.7253251,137 Z M17.2267162,395.273632 L17.2267162,167.706973 C17.2267162,160.308636 23.2594517,154.246648 30.7350084,154.246648 L258.274687,154.246648 C265.721194,154.246648 271.773296,160.308636 271.773296,167.706973 L271.773296,395.273632 C271.773296,402.710704 265.721194,408.782376 258.274687,408.782376 L30.7253251,408.782376 C23.2686831,408.777031 17.2267162,402.730525 17.2267162,395.273632 Z" id="Shape" fill="#3D4265"></path>
        </g>
    </g>
</svg>