<?xml version="1.0" encoding="UTF-8"?>
<svg xmlns:xlink="http://www.w3.org/1999/xlink" width="173px" height="168px" viewBox="0 0 173 168" version="1.1" xmlns="http://www.w3.org/2000/svg">
    <title>guinsoograph</title>
    <g id="Page-1" stroke="none" stroke-width="1" fill="none" fill-rule="evenodd">
        <g id="guinsoograph" fill="#32C5FF" fill-rule="nonzero">
            <path d="M158.294354,98.7011365 L157.638678,98.7011365 L111.060683,23.0298488 C113.708366,20.725615 115.687884,17.1037842 115.687884,13.1572375 C115.687884,5.91982031 109.743086,0 102.474446,0 C95.2058061,0 89.2610078,5.91982012 89.261008,13.1572375 C89.261008,13.8129139 89.261008,14.7995504 89.5919684,15.4614713 L37.0691758,34.8694893 C34.7524529,31.5848633 30.793417,29.6053453 26.4971764,29.6053453 C19.2218885,29.6121342 13.3180847,35.4936174 13.2837381,42.7688273 C13.3087162,48.5075559 17.0491934,53.5718746 22.5318959,55.2703885 L10.6422992,105.607593 C4.69750098,106.918946 0.0702998047,112.189334 0.0702998047,118.440115 C0.0702998047,125.677532 6.01509805,131.603597 13.2837381,131.603597 L13.3336943,131.603597 C17.3863982,131.603597 21.0269627,129.823904 23.5122881,127.007618 L72.7442102,154.302485 L72.7442102,154.627201 C72.9637302,161.76667 78.8148056,167.440605 85.9576484,167.440605 C93.1004913,167.440605 98.9515667,161.76667 99.1710867,154.627201 L99.1710867,152.653928 L151.031958,122.380417 C153.348681,124.028975 155.99012,125.015611 158.962519,125.015611 C166.236795,125.012256 172.141597,119.132569 172.175957,111.858374 C171.514037,104.614712 165.569238,98.6948918 158.300598,98.694892 L158.294354,98.7011365 Z M102.137241,6.57549648 C105.771561,6.57549648 108.74396,9.53540664 108.74396,13.1572375 C108.590135,16.6943924 105.677739,19.4828848 102.137241,19.4828848 C98.5967431,19.4828848 95.6843477,16.6943924 95.5305221,13.1572375 C95.5510982,9.52105613 98.501008,6.58229909 102.137241,6.57549648 L102.137241,6.57549648 Z M97.1853242,25.3278381 C97.5162846,25.3278381 97.8410006,25.6587984 98.5091658,25.6587986 L91.9024467,74.684651 L67.1303723,60.5407768 L97.1915687,25.3340826 L97.1853242,25.3278381 Z M97.5162846,84.226302 L141.115635,108.898464 L94.2066805,111.202698 L97.51004,84.226302 L97.5162846,84.226302 Z M91.2405258,80.6044711 L87.2752455,111.533658 L66.1312465,112.520295 L50.6010854,79.6178344 L63.4898078,64.4873236 L91.2405258,80.6107156 L91.2405258,80.6044711 Z M91.5714863,21.0503311 C91.8962021,21.7060074 92.558123,22.0432123 92.8890834,22.6988885 L62.4969266,57.9055826 L39.0424492,44.4173848 L39.0424492,42.7750719 C39.0424492,42.113151 39.0424492,41.1265145 38.7177334,40.4708381 L91.5714863,21.0565756 L91.5714863,21.0503311 Z M37.0691758,50.0062445 L58.8688512,62.1830898 L47.9658912,74.684651 L36.7382154,50.3372049 L37.0691758,50.0124891 L37.0691758,50.0062445 Z M19.5594967,42.7688273 C19.7133223,39.2316725 22.6257177,36.4431801 26.1662158,36.4431801 C29.7067139,36.4431801 32.6191093,39.2316725 32.772935,42.7688273 C32.6191093,46.3059822 29.7067139,49.0944746 26.1662158,49.0944746 C22.6257177,49.0944746 19.7133223,46.3059822 19.5594967,42.7688273 Z M12.9527777,124.884477 C9.37017075,124.882346 6.44078217,122.027715 6.34605859,118.446359 C6.34668588,114.798013 9.30443102,111.840776 12.9527776,111.840776 C16.6011243,111.840776 19.5588694,114.798013 19.5594967,118.446359 C19.4680351,122.029141 16.536726,124.885643 12.9527777,124.884477 L12.9527777,124.884477 Z M20.215173,107.256151 C19.2222918,106.600474 18.2294105,106.26327 16.9118135,105.613838 L28.8014102,55.276633 C29.7942914,54.9456727 31.118133,54.6209566 32.1047697,54.2837518 L43.9943662,79.6178344 L20.2089285,107.256151 L20.215173,107.256151 Z M46.3110891,84.8819783 L59.5245273,113.175971 L25.8290109,114.824529 C25.1733346,113.506931 24.5051693,111.864618 23.849493,110.871737 L46.3110891,84.8819783 Z M74.0680518,148.382665 L25.8352555,121.730985 L25.8352555,121.400025 L62.5031711,119.426752 L75.060933,146.409392 L74.0680518,148.382665 Z M68.7789297,119.102036 L86.2886088,118.109154 L83.3162096,141.469964 C81.992368,141.79468 81.0057312,142.12564 80.0190945,142.4566 L68.7851742,119.095791 L68.7789297,119.102036 Z M85.6266879,161.215187 C81.989044,161.211792 79.0371423,158.271051 79.0199689,154.633446 C79.1737957,151.096292 82.0861907,148.307801 85.626688,148.307801 C89.1671852,148.307801 92.0795802,151.096292 92.233407,154.633446 C92.233407,158.255277 89.2610078,161.215187 85.6266879,161.215187 Z M96.5234033,147.402273 C94.8292827,144.954633 92.3991097,143.110676 89.5857238,142.138129 L92.8890834,118.115399 L145.411876,115.480205 L146.398513,118.446359 L96.5171588,147.402273 L96.5234033,147.402273 Z M146.735718,105.613838 L98.1782055,77.9755215 L105.115885,25.989759 C105.446845,25.989759 105.777806,25.989759 105.777806,25.6650432 L151.693879,100.349694 C149.092033,101.718772 147.138582,104.062914 146.261133,106.86899 L146.735718,105.613838 Z M158.294354,118.446359 C154.66054,118.439582 151.711625,115.504604 151.687635,111.870863 C151.84146,108.333708 154.753856,105.545216 158.294354,105.545216 C161.834852,105.545216 164.747247,108.333708 164.901073,111.870863 C164.901073,115.486449 161.928674,118.446359 158.294354,118.446359 L158.294354,118.446359 Z" id="Shape"></path>
        </g>
    </g>
</svg>