<?xml version="1.0" encoding="UTF-8"?>
<svg width="585px" height="100px" viewBox="0 0 585 100" version="1.1" xmlns="http://www.w3.org/2000/svg" xmlns:xlink="http://www.w3.org/1999/xlink">
    <title>guinsoolab-hurricanedb</title>
    <g id="guinsoolab-platform" stroke="none" stroke-width="1" fill="none" fill-rule="evenodd">
        <g id="guinsoolab-hurricanedb">
            <g id="hurricanedb-header" fill="#D590B7">
                <polygon id="Path-17" points="11 70.9085797 30.5467521 90 49.5674311 70.9085797 30.5467521 51.6555823 49.5674311 33.5119203 49.5674311 70.1919683 68.7380751 90 88 70.9085797 68.7380751 51.6555823 88 32.7391082 68.7380751 13 30.5467521 13 11 32.7391082"></polygon>
            </g>
            <path d="M145.683594,88 L145.683594,65.2890625 L164.84375,65.2890625 L164.84375,88 L176.445312,88 L176.445312,40.328125 L164.84375,40.328125 L164.84375,61.2109375 L145.683594,61.2109375 L145.683594,40.328125 L133.976562,40.328125 L133.976562,88 L145.683594,88 Z M200.738281,88.6679688 C202.285156,88.6679688 203.861328,88.3046875 205.466797,87.578125 C207.072266,86.8515625 208.601562,85.8789062 210.054688,84.6601562 L210.054688,84.6601562 L210.054688,88 L220.953125,88 L220.953125,52 L210.054688,52 L210.054688,78.015625 C209.65625,78.6484375 209.199219,79.234375 208.683594,79.7734375 C208.167969,80.3125 207.646484,80.78125 207.119141,81.1796875 C206.591797,81.578125 206.076172,81.8886719 205.572266,82.1113281 C205.068359,82.3339844 204.617188,82.4453125 204.21875,82.4453125 C203.492188,82.4453125 202.8125,82.3164062 202.179688,82.0585938 C201.546875,81.8007812 200.990234,81.4433594 200.509766,80.9863281 C200.029297,80.5292969 199.648438,79.9902344 199.367188,79.3691406 C199.085938,78.7480469 198.945312,78.0859375 198.945312,77.3828125 L198.945312,77.3828125 L198.945312,52 L188.046875,52 L188.046875,77.3828125 C188.046875,78.9296875 188.375,80.3886719 189.03125,81.7597656 C189.6875,83.1308594 190.583984,84.3261719 191.720703,85.3457031 C192.857422,86.3652344 194.199219,87.1738281 195.746094,87.7714844 C197.292969,88.3691406 198.957031,88.6679688 200.738281,88.6679688 Z M242.996094,88 L242.996094,61.9492188 C243.277344,61.2929688 243.669922,60.6777344 244.173828,60.1035156 C244.677734,59.5292969 245.246094,59.0253906 245.878906,58.5917969 C246.511719,58.1582031 247.191406,57.8183594 247.917969,57.5722656 C248.644531,57.3261719 249.382812,57.203125 250.132812,57.203125 C250.671875,57.203125 251.158203,57.2441406 251.591797,57.3261719 C252.025391,57.4082031 252.441406,57.5429688 252.839844,57.7304688 C253.238281,57.9179688 253.642578,58.1640625 254.052734,58.46875 C254.462891,58.7734375 254.914062,59.1367188 255.40625,59.5585938 L255.40625,59.5585938 L259.167969,53.7578125 C258.230469,52.984375 257.128906,52.2753906 255.863281,51.6308594 C254.597656,50.9863281 253.179688,50.6640625 251.609375,50.6640625 C249.992188,50.6640625 248.451172,51.0390625 246.986328,51.7890625 C245.521484,52.5390625 244.191406,53.5351562 242.996094,54.7773438 L242.996094,54.7773438 L239.726562,51.2617188 L232.097656,55.2695312 L232.097656,88 L242.996094,88 Z M275.023438,88 L275.023438,61.9492188 C275.304688,61.2929688 275.697266,60.6777344 276.201172,60.1035156 C276.705078,59.5292969 277.273438,59.0253906 277.90625,58.5917969 C278.539062,58.1582031 279.21875,57.8183594 279.945312,57.5722656 C280.671875,57.3261719 281.410156,57.203125 282.160156,57.203125 C282.699219,57.203125 283.185547,57.2441406 283.619141,57.3261719 C284.052734,57.4082031 284.46875,57.5429688 284.867188,57.7304688 C285.265625,57.9179688 285.669922,58.1640625 286.080078,58.46875 C286.490234,58.7734375 286.941406,59.1367188 287.433594,59.5585938 L287.433594,59.5585938 L291.195312,53.7578125 C290.257812,52.984375 289.15625,52.2753906 287.890625,51.6308594 C286.625,50.9863281 285.207031,50.6640625 283.636719,50.6640625 C282.019531,50.6640625 280.478516,51.0390625 279.013672,51.7890625 C277.548828,52.5390625 276.21875,53.5351562 275.023438,54.7773438 L275.023438,54.7773438 L271.753906,51.2617188 L264.125,55.2695312 L264.125,88 L275.023438,88 Z M301.671875,44.7226562 C302.492188,44.7226562 303.259766,44.5820312 303.974609,44.3007812 C304.689453,44.0195312 305.310547,43.6445312 305.837891,43.1757812 C306.365234,42.7070312 306.78125,42.1503906 307.085938,41.5058594 C307.390625,40.8613281 307.542969,40.1757812 307.542969,39.4492188 C307.542969,38.7226562 307.390625,38.03125 307.085938,37.375 C306.78125,36.71875 306.365234,36.15625 305.837891,35.6875 C305.310547,35.21875 304.689453,34.84375 303.974609,34.5625 C303.259766,34.28125 302.492188,34.140625 301.671875,34.140625 C300.851562,34.140625 300.089844,34.28125 299.386719,34.5625 C298.683594,34.84375 298.0625,35.21875 297.523438,35.6875 C296.984375,36.15625 296.5625,36.71875 296.257812,37.375 C295.953125,38.03125 295.800781,38.7226562 295.800781,39.4492188 C295.800781,40.1757812 295.953125,40.8613281 296.257812,41.5058594 C296.5625,42.1503906 296.984375,42.7070312 297.523438,43.1757812 C298.0625,43.6445312 298.683594,44.0195312 299.386719,44.3007812 C300.089844,44.5820312 300.851562,44.7226562 301.671875,44.7226562 Z M307.191406,88 L307.191406,51.2617188 L303.921875,51.2617188 L296.257812,55.2695312 L296.257812,88 L307.191406,88 Z M333.664062,88.6679688 C335.867188,88.6679688 337.90625,88.3398438 339.78125,87.6835938 C341.65625,87.0273438 343.337891,86.0664062 344.826172,84.8007812 C346.314453,83.5351562 347.597656,81.9882812 348.675781,80.1601562 C349.753906,78.3320312 350.597656,76.2460938 351.207031,73.9023438 L351.207031,73.9023438 L346.003906,72.4960938 C345.441406,73.7617188 344.84375,74.9511719 344.210938,76.0644531 C343.578125,77.1777344 342.863281,78.1503906 342.066406,78.9824219 C341.269531,79.8144531 340.384766,80.4707031 339.412109,80.9511719 C338.439453,81.4316406 337.34375,81.671875 336.125,81.671875 C334.695312,81.671875 333.394531,81.2617188 332.222656,80.4414062 C331.050781,79.6210938 330.054688,78.5136719 329.234375,77.1191406 C328.414062,75.7246094 327.775391,74.1132812 327.318359,72.2851562 C326.861328,70.4570312 326.632812,68.5351562 326.632812,66.5195312 C326.632812,65.0898438 326.814453,63.71875 327.177734,62.40625 C327.541016,61.09375 328.050781,59.9453125 328.707031,58.9609375 C329.363281,57.9765625 330.160156,57.1914062 331.097656,56.6054688 C332.035156,56.0195312 333.089844,55.7265625 334.261719,55.7265625 C335.785156,55.7265625 337.056641,56.03125 338.076172,56.640625 C339.095703,57.25 339.916016,57.9472656 340.537109,58.7324219 C341.158203,59.5175781 341.621094,60.2851562 341.925781,61.0351562 C342.230469,61.7851562 342.429688,62.3125 342.523438,62.6171875 L342.523438,62.6171875 L348.851562,57.90625 C347.984375,56.7109375 347.111328,55.6972656 346.232422,54.8652344 C345.353516,54.0332031 344.380859,53.359375 343.314453,52.84375 C342.248047,52.328125 341.023438,51.953125 339.640625,51.71875 C338.257812,51.484375 336.640625,51.3671875 334.789062,51.3671875 C333.054688,51.3671875 331.378906,51.6015625 329.761719,52.0703125 C328.144531,52.5390625 326.626953,53.1953125 325.208984,54.0390625 C323.791016,54.8828125 322.501953,55.8964844 321.341797,57.0800781 C320.181641,58.2636719 319.185547,59.5761719 318.353516,61.0175781 C317.521484,62.4589844 316.876953,64.0058594 316.419922,65.6582031 C315.962891,67.3105469 315.734375,69.015625 315.734375,70.7734375 C315.734375,73.2109375 316.203125,75.5136719 317.140625,77.6816406 C318.078125,79.8496094 319.355469,81.7480469 320.972656,83.3769531 C322.589844,85.0058594 324.488281,86.2949219 326.667969,87.2441406 C328.847656,88.1933594 331.179688,88.6679688 333.664062,88.6679688 Z M366.992188,88.6679688 C368.210938,88.6679688 369.253906,88.5683594 370.121094,88.3691406 C370.988281,88.1699219 371.773438,87.8945312 372.476562,87.5429688 C373.179688,87.1914062 373.824219,86.7636719 374.410156,86.2597656 C374.996094,85.7558594 375.617188,85.1992188 376.273438,84.5898438 C376.367188,84.9648438 376.519531,85.3515625 376.730469,85.75 C376.941406,86.1484375 377.1875,86.5175781 377.46875,86.8574219 C377.75,87.1972656 378.066406,87.4726562 378.417969,87.6835938 C378.769531,87.8945312 379.132812,88 379.507812,88 L379.507812,88 L392.445312,88 C390.78125,87.3203125 389.492188,86.4648438 388.578125,85.4335938 C387.664062,84.4023438 387.207031,83.1484375 387.207031,81.671875 L387.207031,81.671875 L387.207031,61.0703125 C387.207031,59.5703125 386.919922,58.2167969 386.345703,57.0097656 C385.771484,55.8027344 384.880859,54.7714844 383.673828,53.9160156 C382.466797,53.0605469 380.925781,52.3984375 379.050781,51.9296875 C377.175781,51.4609375 374.949219,51.2265625 372.371094,51.2265625 C370.285156,51.2265625 368.345703,51.4609375 366.552734,51.9296875 C364.759766,52.3984375 363.166016,53.0605469 361.771484,53.9160156 C360.376953,54.7714844 359.210938,55.8144531 358.273438,57.0449219 C357.335938,58.2753906 356.679688,59.640625 356.304688,61.140625 L356.304688,61.140625 L365.480469,61.140625 C365.621094,60.34375 365.84375,59.5820312 366.148438,58.8554688 C366.453125,58.1289062 366.851562,57.484375 367.34375,56.921875 C367.835938,56.359375 368.421875,55.9140625 369.101562,55.5859375 C369.78125,55.2578125 370.554688,55.09375 371.421875,55.09375 C372.148438,55.09375 372.810547,55.2050781 373.408203,55.4277344 C374.005859,55.6503906 374.515625,56.0136719 374.9375,56.5175781 C375.359375,57.0214844 375.6875,57.6777344 375.921875,58.4863281 C376.15625,59.2949219 376.273438,60.2734375 376.273438,61.421875 L376.273438,61.421875 L376.273438,64.9375 C373.789062,65.6875 371.351562,66.4726562 368.960938,67.2929688 C366.570312,68.1132812 364.431641,69.0742188 362.544922,70.1757812 C360.658203,71.2773438 359.140625,72.5664062 357.992188,74.0429688 C356.84375,75.5195312 356.269531,77.2890625 356.269531,79.3515625 C356.269531,80.6875 356.515625,81.9238281 357.007812,83.0605469 C357.5,84.1972656 358.208984,85.1816406 359.134766,86.0136719 C360.060547,86.8457031 361.185547,87.4960938 362.509766,87.9648438 C363.833984,88.4335938 365.328125,88.6679688 366.992188,88.6679688 Z M370.683594,82.65625 C369.628906,82.65625 368.791016,82.3164062 368.169922,81.6367188 C367.548828,80.9570312 367.238281,80.0195312 367.238281,78.8242188 C367.238281,77.7460938 367.513672,76.7324219 368.064453,75.7832031 C368.615234,74.8339844 369.318359,73.9667969 370.173828,73.1816406 C371.029297,72.3964844 371.996094,71.6875 373.074219,71.0546875 C374.152344,70.421875 375.21875,69.8828125 376.273438,69.4375 L376.273438,69.4375 L376.273438,79.8085938 C375.171875,80.6523438 374.1875,81.3378906 373.320312,81.8652344 C372.453125,82.3925781 371.574219,82.65625 370.683594,82.65625 Z M409.109375,88 L409.109375,61.703125 C409.742188,61.09375 410.410156,60.5429688 411.113281,60.0507812 C411.816406,59.5585938 412.501953,59.1425781 413.169922,58.8027344 C413.837891,58.4628906 414.476562,58.1992188 415.085938,58.0117188 C415.695312,57.8242188 416.234375,57.7304688 416.703125,57.7304688 C417.171875,57.7304688 417.623047,57.8535156 418.056641,58.0996094 C418.490234,58.3457031 418.876953,58.7089844 419.216797,59.1894531 C419.556641,59.6699219 419.826172,60.2675781 420.025391,60.9824219 C420.224609,61.6972656 420.324219,62.5117188 420.324219,63.4257812 L420.324219,63.4257812 L420.324219,88 L431.1875,88 L431.1875,62.265625 C431.1875,60.765625 430.894531,59.3535156 430.308594,58.0292969 C429.722656,56.7050781 428.931641,55.5507812 427.935547,54.5664062 C426.939453,53.5820312 425.779297,52.8027344 424.455078,52.2285156 C423.130859,51.6542969 421.730469,51.3671875 420.253906,51.3671875 C418.355469,51.3671875 416.445312,51.6542969 414.523438,52.2285156 C412.601562,52.8027344 410.796875,53.6992188 409.109375,54.9179688 L409.109375,54.9179688 L409.109375,51.2617188 L405.839844,51.2617188 L398.140625,55.2695312 L398.140625,88 L409.109375,88 Z M457.800781,88.8085938 C459.792969,88.8085938 461.761719,88.4394531 463.707031,87.7011719 C465.652344,86.9628906 467.451172,85.9492188 469.103516,84.6601562 C470.755859,83.3710938 472.197266,81.8710938 473.427734,80.1601562 C474.658203,78.4492188 475.554688,76.6210938 476.117188,74.6757812 L476.117188,74.6757812 L470.5625,73.796875 C470.234375,74.8984375 469.707031,75.9238281 468.980469,76.8730469 C468.253906,77.8222656 467.398438,78.6542969 466.414062,79.3691406 C465.429688,80.0839844 464.357422,80.6464844 463.197266,81.0566406 C462.037109,81.4667969 460.859375,81.671875 459.664062,81.671875 C458.28125,81.671875 457.021484,81.2675781 455.884766,80.4589844 C454.748047,79.6503906 453.757812,78.5605469 452.914062,77.1894531 C452.070312,75.8183594 451.396484,74.2304688 450.892578,72.4257812 C450.388672,70.6210938 450.089844,68.7226562 449.996094,66.7304688 L449.996094,66.7304688 L474.921875,66.7304688 C474.921875,64.5976562 474.511719,62.59375 473.691406,60.71875 C472.871094,58.84375 471.716797,57.2148438 470.228516,55.8320312 C468.740234,54.4492188 466.953125,53.359375 464.867188,52.5625 C462.78125,51.765625 460.484375,51.3671875 457.976562,51.3671875 C455.164062,51.3671875 452.615234,51.8652344 450.330078,52.8613281 C448.044922,53.8574219 446.082031,55.2460938 444.441406,57.0273438 C442.800781,58.8085938 441.535156,60.9121094 440.644531,63.3378906 C439.753906,65.7636719 439.308594,68.3945312 439.308594,71.2304688 C439.308594,73.5976562 439.794922,75.8417969 440.767578,77.9628906 C441.740234,80.0839844 443.058594,81.9472656 444.722656,83.5527344 C446.386719,85.1582031 448.34375,86.4355469 450.59375,87.3847656 C452.84375,88.3339844 455.246094,88.8085938 457.800781,88.8085938 Z M462.40625,63.0039062 L450.101562,63.0039062 C450.21875,61.9257812 450.458984,60.9472656 450.822266,60.0683594 C451.185547,59.1894531 451.630859,58.4394531 452.158203,57.8183594 C452.685547,57.1972656 453.277344,56.7167969 453.933594,56.3769531 C454.589844,56.0371094 455.257812,55.8671875 455.9375,55.8671875 C456.804688,55.8671875 457.613281,56.0371094 458.363281,56.3769531 C459.113281,56.7167969 459.769531,57.203125 460.332031,57.8359375 C460.894531,58.46875 461.357422,59.2246094 461.720703,60.1035156 C462.083984,60.9824219 462.3125,61.9492188 462.40625,63.0039062 L462.40625,63.0039062 Z M503.960938,88 C508.53125,88 512.585938,87.3671875 516.125,86.1015625 C519.664062,84.8359375 522.646484,83.1015625 525.072266,80.8984375 C527.498047,78.6953125 529.34375,76.1230469 530.609375,73.1816406 C531.875,70.2402344 532.507812,67.09375 532.507812,63.7421875 C532.507812,60.015625 531.763672,56.6992188 530.275391,53.7929688 C528.787109,50.8867188 526.695312,48.4375 524,46.4453125 C521.304688,44.453125 518.09375,42.9355469 514.367188,41.8925781 C510.640625,40.8496094 506.550781,40.328125 502.097656,40.328125 L502.097656,40.328125 L484.800781,40.328125 L484.800781,88 L503.960938,88 Z M502.730469,83.1132812 L496.507812,83.1132812 L496.507812,45.1445312 L502.730469,45.1445312 C505.167969,45.1445312 507.412109,45.6191406 509.462891,46.5683594 C511.513672,47.5175781 513.277344,48.8242188 514.753906,50.4882812 C516.230469,52.1523438 517.384766,54.1269531 518.216797,56.4121094 C519.048828,58.6972656 519.464844,61.1757812 519.464844,63.8476562 C519.464844,66.9414062 519.025391,69.6835938 518.146484,72.0742188 C517.267578,74.4648438 516.066406,76.4804688 514.542969,78.1210938 C513.019531,79.7617188 511.244141,81.0039062 509.216797,81.8476562 C507.189453,82.6914062 505.027344,83.1132812 502.730469,83.1132812 L502.730469,83.1132812 Z M566.609375,88 C569.304688,88 571.759766,87.6542969 573.974609,86.9628906 C576.189453,86.2714844 578.087891,85.328125 579.669922,84.1328125 C581.251953,82.9375 582.470703,81.53125 583.326172,79.9140625 C584.181641,78.296875 584.609375,76.5507812 584.609375,74.6757812 C584.609375,73.3164062 584.369141,72.0332031 583.888672,70.8261719 C583.408203,69.6191406 582.740234,68.5175781 581.884766,67.5214844 C581.029297,66.5253906 580.015625,65.6582031 578.84375,64.9199219 C577.671875,64.1816406 576.382812,63.5898438 574.976562,63.1445312 C576.335938,62.3476562 577.478516,61.5625 578.404297,60.7890625 C579.330078,60.015625 580.074219,59.2070312 580.636719,58.3632812 C581.199219,57.5195312 581.603516,56.6171875 581.849609,55.65625 C582.095703,54.6953125 582.21875,53.6523438 582.21875,52.5273438 C582.21875,50.6992188 581.761719,49.0351562 580.847656,47.5351562 C579.933594,46.0351562 578.65625,44.7519531 577.015625,43.6855469 C575.375,42.6191406 573.412109,41.7929688 571.126953,41.2070312 C568.841797,40.6210938 566.328125,40.328125 563.585938,40.328125 L563.585938,40.328125 L543.125,40.328125 L543.125,88 L566.609375,88 Z M562.53125,61 L554.832031,61 L554.832031,44.7929688 L559.191406,44.7929688 C561.113281,44.7929688 562.777344,44.9980469 564.183594,45.4082031 C565.589844,45.8183594 566.75,46.3925781 567.664062,47.1308594 C568.578125,47.8691406 569.257812,48.7539062 569.703125,49.7851562 C570.148438,50.8164062 570.371094,51.953125 570.371094,53.1953125 C570.371094,54.3203125 570.195312,55.3632812 569.84375,56.3242188 C569.492188,57.2851562 568.982422,58.1113281 568.314453,58.8027344 C567.646484,59.4941406 566.826172,60.0332031 565.853516,60.4199219 C564.880859,60.8066406 563.773438,61 562.53125,61 L562.53125,61 Z M561.300781,83.1132812 L554.832031,83.1132812 L554.832031,65.640625 L560.84375,65.640625 C562.953125,65.640625 564.740234,65.875 566.205078,66.34375 C567.669922,66.8125 568.853516,67.46875 569.755859,68.3125 C570.658203,69.15625 571.308594,70.1464844 571.707031,71.2832031 C572.105469,72.4199219 572.304688,73.65625 572.304688,74.9921875 C572.304688,76.1640625 572.087891,77.2480469 571.654297,78.2441406 C571.220703,79.2402344 570.552734,80.0957031 569.650391,80.8105469 C568.748047,81.5253906 567.605469,82.0878906 566.222656,82.4980469 C564.839844,82.9082031 563.199219,83.1132812 561.300781,83.1132812 L561.300781,83.1132812 Z" id="HurricaneDB" fill="#000000" fill-rule="nonzero"></path>
            <path d="M134.679688,27.3427734 C135.722656,27.3427734 136.601562,27.1230469 137.316406,26.6835938 C137.732422,26.4316406 138.201172,25.9980469 138.722656,25.3828125 L138.722656,25.3828125 L138.995117,27 L140.788086,27 L140.788086,20.0478516 L135.391602,20.0478516 L135.391602,22.2099609 L138.388672,22.2099609 C138.253906,23.0595703 137.896484,23.746582 137.316406,24.2709961 C136.736328,24.7954102 135.992188,25.0576172 135.083984,25.0576172 C134.158203,25.0576172 133.332031,24.7265625 132.605469,24.0644531 C131.878906,23.4023438 131.515625,22.2744141 131.515625,20.6806641 C131.515625,19.0986328 131.851074,17.9135742 132.521973,17.1254883 C133.192871,16.3374023 134.049805,15.9433594 135.092773,15.9433594 C135.637695,15.9433594 136.132812,16.0400391 136.578125,16.2333984 C137.375,16.5849609 137.875977,17.203125 138.081055,18.0878906 L138.081055,18.0878906 L140.744141,18.0878906 C140.597656,16.8398438 140.024902,15.7983398 139.025879,14.9633789 C138.026855,14.128418 136.704102,13.7109375 135.057617,13.7109375 C133.15918,13.7109375 131.632812,14.34375 130.478516,15.609375 C129.324219,16.875 128.74707,18.5566406 128.74707,20.6542969 C128.74707,22.7285156 129.318359,24.3632812 130.460938,25.5585938 C131.556641,26.7480469 132.962891,27.3427734 134.679688,27.3427734 Z M146.37793,27.2109375 C146.870117,27.2109375 147.299316,27.1464844 147.665527,27.0175781 C148.031738,26.8886719 148.411133,26.6484375 148.803711,26.296875 C148.932617,26.1855469 149.043945,26.0566406 149.137695,25.9101562 C149.231445,25.7636719 149.290039,25.6757812 149.313477,25.6464844 L149.313477,25.6464844 L149.313477,27 L151.748047,27 L151.748047,17.4199219 L149.208008,17.4199219 L149.208008,22.6318359 C149.208008,23.2470703 149.125977,23.7421875 148.961914,24.1171875 C148.645508,24.8085938 148.05957,25.1542969 147.204102,25.1542969 C146.536133,25.1542969 146.087891,24.9111328 145.859375,24.4248047 C145.730469,24.1494141 145.666016,23.7392578 145.666016,23.1943359 L145.666016,23.1943359 L145.666016,17.4199219 L143.099609,17.4199219 L143.099609,23.1943359 C143.099609,24.2900391 143.237305,25.1191406 143.512695,25.6816406 C144.004883,26.7011719 144.959961,27.2109375 146.37793,27.2109375 Z M156.740234,16.2773438 L156.740234,13.9658203 L154.200195,13.9658203 L154.200195,16.2773438 L156.740234,16.2773438 Z M156.740234,27 L156.740234,17.4199219 L154.200195,17.4199219 L154.200195,27 L156.740234,27 Z M161.679688,27 L161.679688,21.8144531 C161.679688,21.2226562 161.761719,20.7363281 161.925781,20.3554688 C162.242188,19.6347656 162.825195,19.2744141 163.674805,19.2744141 C164.366211,19.2744141 164.834961,19.5205078 165.081055,20.0126953 C165.21582,20.2822266 165.283203,20.6689453 165.283203,21.1728516 L165.283203,21.1728516 L165.283203,27 L167.849609,27 L167.849609,20.5488281 C167.849609,19.3476562 167.534668,18.487793 166.904785,17.9692383 C166.274902,17.4506836 165.464844,17.1914062 164.474609,17.1914062 C163.683594,17.1914062 163.030273,17.3847656 162.514648,17.7714844 C162.227539,17.9882812 161.922852,18.3427734 161.600586,18.8349609 L161.600586,18.8349609 L161.600586,17.4375 L159.183594,17.4375 L159.183594,27 L161.679688,27 Z M173.984375,27.3251953 C175.460938,27.3251953 176.552246,27.0249023 177.258301,26.4243164 C177.964355,25.8237305 178.317383,25.0488281 178.317383,24.0996094 C178.317383,23.3789062 178.071289,22.7783203 177.579102,22.2978516 C177.081055,21.8232422 176.333984,21.46875 175.337891,21.234375 C173.84375,20.90625 172.973633,20.6748047 172.727539,20.5400391 C172.481445,20.4111328 172.358398,20.203125 172.358398,19.9160156 C172.358398,19.6875 172.474121,19.4882812 172.705566,19.3183594 C172.937012,19.1484375 173.325195,19.0634766 173.870117,19.0634766 C174.532227,19.0634766 175.000977,19.2333984 175.276367,19.5732422 C175.422852,19.7607422 175.513672,20.015625 175.548828,20.3378906 L175.548828,20.3378906 L178.053711,20.3378906 C177.942383,19.1660156 177.510254,18.3413086 176.757324,17.8637695 C176.004395,17.3862305 175.030273,17.1474609 173.834961,17.1474609 C172.575195,17.1474609 171.598145,17.465332 170.903809,18.1010742 C170.209473,18.7368164 169.862305,19.4970703 169.862305,20.3818359 C169.862305,21.1318359 170.084961,21.7060547 170.530273,22.1044922 C170.975586,22.5087891 171.740234,22.8457031 172.824219,23.1152344 C174.330078,23.4726562 175.200195,23.7246094 175.43457,23.8710938 C175.668945,24.0175781 175.786133,24.2314453 175.786133,24.5126953 C175.786133,24.8056641 175.641113,25.0253906 175.351074,25.171875 C175.061035,25.3183594 174.669922,25.3916016 174.177734,25.3916016 C173.339844,25.3916016 172.765625,25.2246094 172.455078,24.890625 C172.279297,24.703125 172.165039,24.3867188 172.112305,23.9414062 L172.112305,23.9414062 L169.572266,23.9414062 C169.572266,24.9257812 169.931152,25.7358398 170.648926,26.371582 C171.366699,27.0073242 172.478516,27.3251953 173.984375,27.3251953 Z M184.478516,27.3339844 C186.125,27.3339844 187.352539,26.8344727 188.161133,25.8354492 C188.969727,24.8364258 189.374023,23.6337891 189.374023,22.2275391 C189.374023,20.8447266 188.969727,19.6464844 188.161133,18.6328125 C187.352539,17.6191406 186.125,17.1123047 184.478516,17.1123047 C182.832031,17.1123047 181.604492,17.6191406 180.795898,18.6328125 C179.987305,19.6464844 179.583008,20.8447266 179.583008,22.2275391 C179.583008,23.6337891 179.987305,24.8364258 180.795898,25.8354492 C181.604492,26.8344727 182.832031,27.3339844 184.478516,27.3339844 Z M184.469727,25.2333984 C183.737305,25.2333984 183.17334,24.9726562 182.777832,24.4511719 C182.382324,23.9296875 182.18457,23.1884766 182.18457,22.2275391 C182.18457,21.2666016 182.382324,20.5268555 182.777832,20.0083008 C183.17334,19.4897461 183.737305,19.2304688 184.469727,19.2304688 C185.202148,19.2304688 185.764648,19.4897461 186.157227,20.0083008 C186.549805,20.5268555 186.746094,21.2666016 186.746094,22.2275391 C186.746094,23.1884766 186.549805,23.9296875 186.157227,24.4511719 C185.764648,24.9726562 185.202148,25.2333984 184.469727,25.2333984 Z M195.473633,27.3339844 C197.120117,27.3339844 198.347656,26.8344727 199.15625,25.8354492 C199.964844,24.8364258 200.369141,23.6337891 200.369141,22.2275391 C200.369141,20.8447266 199.964844,19.6464844 199.15625,18.6328125 C198.347656,17.6191406 197.120117,17.1123047 195.473633,17.1123047 C193.827148,17.1123047 192.599609,17.6191406 191.791016,18.6328125 C190.982422,19.6464844 190.578125,20.8447266 190.578125,22.2275391 C190.578125,23.6337891 190.982422,24.8364258 191.791016,25.8354492 C192.599609,26.8344727 193.827148,27.3339844 195.473633,27.3339844 Z M195.464844,25.2333984 C194.732422,25.2333984 194.168457,24.9726562 193.772949,24.4511719 C193.377441,23.9296875 193.179688,23.1884766 193.179688,22.2275391 C193.179688,21.2666016 193.377441,20.5268555 193.772949,20.0083008 C194.168457,19.4897461 194.732422,19.2304688 195.464844,19.2304688 C196.197266,19.2304688 196.759766,19.4897461 197.152344,20.0083008 C197.544922,20.5268555 197.741211,21.2666016 197.741211,22.2275391 C197.741211,23.1884766 197.544922,23.9296875 197.152344,24.4511719 C196.759766,24.9726562 196.197266,25.2333984 195.464844,25.2333984 Z M211.487305,27 L211.487305,24.6708984 L205.071289,24.6708984 L205.071289,14.0449219 L202.364258,14.0449219 L202.364258,27 L211.487305,27 Z M215.503906,27.2988281 C216.183594,27.2988281 216.792969,27.1435547 217.332031,26.8330078 C217.783203,26.5693359 218.181641,26.25 218.527344,25.875 C218.544922,26.0917969 218.568359,26.2851562 218.597656,26.4550781 C218.626953,26.625 218.679688,26.8066406 218.755859,27 L218.755859,27 L221.480469,27 L221.480469,26.6308594 C221.316406,26.5546875 221.193359,26.4580078 221.111328,26.3408203 C221.029297,26.2236328 220.979492,26.0009766 220.961914,25.6728516 C220.950195,25.2392578 220.944336,24.8701172 220.944336,24.5654297 L220.944336,24.5654297 L220.944336,20.1708984 C220.944336,19.0166016 220.537109,18.2314453 219.722656,17.8154297 C218.908203,17.3994141 217.976562,17.1914062 216.927734,17.1914062 C215.316406,17.1914062 214.179688,17.6132812 213.517578,18.4570312 C213.101562,18.9960938 212.867188,19.6845703 212.814453,20.5224609 L212.814453,20.5224609 L215.231445,20.5224609 C215.290039,20.1533203 215.407227,19.8603516 215.583008,19.6435547 C215.829102,19.3505859 216.248047,19.2041016 216.839844,19.2041016 C217.367188,19.2041016 217.76709,19.2788086 218.039551,19.4282227 C218.312012,19.5776367 218.448242,19.8486328 218.448242,20.2412109 C218.448242,20.5634766 218.269531,20.8007812 217.912109,20.953125 C217.712891,21.0410156 217.381836,21.1142578 216.918945,21.1728516 L216.918945,21.1728516 L216.066406,21.2783203 C215.099609,21.4013672 214.367188,21.6064453 213.869141,21.8935547 C212.960938,22.4208984 212.506836,23.2734375 212.506836,24.4511719 C212.506836,25.359375 212.789551,26.0610352 213.35498,26.5561523 C213.92041,27.0512695 214.636719,27.2988281 215.503906,27.2988281 Z M216.242188,25.4794922 C215.902344,25.4794922 215.61377,25.3842773 215.376465,25.1938477 C215.13916,25.003418 215.020508,24.6943359 215.020508,24.2666016 C215.020508,23.7861328 215.213867,23.4316406 215.600586,23.203125 C215.829102,23.0683594 216.207031,22.9541016 216.734375,22.8603516 L216.734375,22.8603516 L217.296875,22.7548828 C217.578125,22.7021484 217.799316,22.6450195 217.960449,22.5834961 C218.121582,22.5219727 218.28125,22.4414062 218.439453,22.3417969 L218.439453,22.3417969 L218.439453,23.2734375 C218.421875,24.1113281 218.186035,24.6884766 217.731934,25.0048828 C217.277832,25.3212891 216.78125,25.4794922 216.242188,25.4794922 Z M228.371094,27.2548828 C229.630859,27.2548828 230.612305,26.765625 231.31543,25.7871094 C232.018555,24.8085938 232.370117,23.5751953 232.370117,22.0869141 C232.370117,20.6513672 232.01416,19.4794922 231.302246,18.5712891 C230.590332,17.6630859 229.604492,17.2089844 228.344727,17.2089844 C227.647461,17.2089844 227.073242,17.3554688 226.62207,17.6484375 C226.241211,17.8828125 225.892578,18.2226562 225.576172,18.6679688 L225.576172,18.6679688 L225.576172,14.0625 L223.080078,14.0625 L223.080078,27 L225.532227,27 L225.532227,25.7958984 C225.866211,26.2646484 226.176758,26.5927734 226.463867,26.7802734 C226.944336,27.0966797 227.580078,27.2548828 228.371094,27.2548828 Z M227.703125,25.1894531 C226.958984,25.1894531 226.405273,24.9199219 226.041992,24.3808594 C225.678711,23.8417969 225.49707,23.1621094 225.49707,22.3417969 C225.49707,21.6445312 225.584961,21.0761719 225.760742,20.6367188 C226.100586,19.8105469 226.724609,19.3974609 227.632812,19.3974609 C228.529297,19.3974609 229.144531,19.8193359 229.478516,20.6630859 C229.654297,21.1083984 229.742188,21.6708984 229.742188,22.3505859 C229.742188,23.2001953 229.563477,23.8857422 229.206055,24.4072266 C228.848633,24.9287109 228.347656,25.1894531 227.703125,25.1894531 Z" id="GuinsooLab" fill="#000000" fill-rule="nonzero"></path>
        </g>
    </g>
</svg>