<?xml version="1.0" encoding="UTF-8"?>
<svg width="549px" height="104px" viewBox="0 0 549 104" version="1.1" xmlns="http://www.w3.org/2000/svg" xmlns:xlink="http://www.w3.org/1999/xlink">
    <title>guinsoolab-mortalmesh</title>
    <g id="guinsoolab-platform" stroke="none" stroke-width="1" fill="none" fill-rule="evenodd">
        <g id="guinsoolab-mortalmesh">
            <g id="Group" transform="translate(8.000000, 18.000000)">
                <polygon id="Path-18" fill="#2B8DFF" points="10.1779053 0 3.75774484e-15 12.6705014 1.50903737e-14 66 84 66 84 12.6705014 74.6992165 0 59.6026483 15.3557539 64.9422072 22.1904642 64.9422072 44.2954945 19.4594115 44.2954945 19.4594115 22.1904642 26.291157 15.3557539"></polygon>
                <polygon id="Path-19" fill="#41FC92" points="42.3199576 0 26.7555556 15.4700684 42.3199576 31.1320755 57.8666667 15.5660377"></polygon>
            </g>
            <path d="M141.394531,86 L141.394531,54.5703125 L157.496094,86 L161.996094,86 L177.570312,54.921875 L177.570312,86 L189.242188,86 L189.242188,38.328125 L178.097656,38.328125 L161.855469,70.8828125 L145.367188,38.328125 L133.976562,38.328125 L133.976562,86 L141.394531,86 Z M218.070312,86.6679688 C220.929688,86.6679688 223.578125,86.1582031 226.015625,85.1386719 C228.453125,84.1191406 230.556641,82.7363281 232.326172,80.9902344 C234.095703,79.2441406 235.478516,77.1992188 236.474609,74.8554688 C237.470703,72.5117188 237.96875,70.015625 237.96875,67.3671875 C237.96875,64.8359375 237.464844,62.4746094 236.457031,60.2832031 C235.449219,58.0917969 234.060547,56.1875 232.291016,54.5703125 C230.521484,52.953125 228.417969,51.6816406 225.980469,50.7558594 C223.542969,49.8300781 220.894531,49.3671875 218.035156,49.3671875 C215.175781,49.3671875 212.533203,49.8417969 210.107422,50.7910156 C207.681641,51.7402344 205.589844,53.0585938 203.832031,54.7460938 C202.074219,56.4335938 200.697266,58.4433594 199.701172,60.7753906 C198.705078,63.1074219 198.207031,65.65625 198.207031,68.421875 C198.207031,71 198.705078,73.3964844 199.701172,75.6113281 C200.697266,77.8261719 202.080078,79.7539062 203.849609,81.3945312 C205.619141,83.0351562 207.716797,84.3242188 210.142578,85.2617188 C212.568359,86.1992188 215.210938,86.6679688 218.070312,86.6679688 Z M219.335938,82.2734375 C217.859375,82.2734375 216.541016,81.8222656 215.380859,80.9199219 C214.220703,80.0175781 213.236328,78.7988281 212.427734,77.2636719 C211.619141,75.7285156 210.998047,73.9296875 210.564453,71.8671875 C210.130859,69.8046875 209.914062,67.6132812 209.914062,65.2929688 C209.914062,63.7460938 210.095703,62.2753906 210.458984,60.8808594 C210.822266,59.4863281 211.308594,58.2558594 211.917969,57.1894531 C212.527344,56.1230469 213.230469,55.2734375 214.027344,54.640625 C214.824219,54.0078125 215.65625,53.6914062 216.523438,53.6914062 C218.304688,53.6914062 219.810547,54.1367188 221.041016,55.0273438 C222.271484,55.9179688 223.273438,57.125 224.046875,58.6484375 C224.820312,60.171875 225.376953,61.9472656 225.716797,63.9746094 C226.056641,66.0019531 226.226562,68.1640625 226.226562,70.4609375 C226.226562,72.0078125 226.056641,73.4960938 225.716797,74.9257812 C225.376953,76.3554688 224.896484,77.6152344 224.275391,78.7050781 C223.654297,79.7949219 222.921875,80.6621094 222.078125,81.3066406 C221.234375,81.9511719 220.320312,82.2734375 219.335938,82.2734375 Z M257.269531,86 L257.269531,59.9492188 C257.550781,59.2929688 257.943359,58.6777344 258.447266,58.1035156 C258.951172,57.5292969 259.519531,57.0253906 260.152344,56.5917969 C260.785156,56.1582031 261.464844,55.8183594 262.191406,55.5722656 C262.917969,55.3261719 263.65625,55.203125 264.40625,55.203125 C264.945312,55.203125 265.431641,55.2441406 265.865234,55.3261719 C266.298828,55.4082031 266.714844,55.5429688 267.113281,55.7304688 C267.511719,55.9179688 267.916016,56.1640625 268.326172,56.46875 C268.736328,56.7734375 269.1875,57.1367188 269.679688,57.5585938 L269.679688,57.5585938 L273.441406,51.7578125 C272.503906,50.984375 271.402344,50.2753906 270.136719,49.6308594 C268.871094,48.9863281 267.453125,48.6640625 265.882812,48.6640625 C264.265625,48.6640625 262.724609,49.0390625 261.259766,49.7890625 C259.794922,50.5390625 258.464844,51.5351562 257.269531,52.7773438 L257.269531,52.7773438 L254,49.2617188 L246.371094,53.2695312 L246.371094,86 L257.269531,86 Z M289.121094,86.8085938 C290.714844,86.8085938 292.121094,86.6386719 293.339844,86.2988281 C294.558594,85.9589844 295.636719,85.4960938 296.574219,84.9101562 C297.511719,84.3242188 298.34375,83.6269531 299.070312,82.8183594 C299.796875,82.0097656 300.464844,81.1367188 301.074219,80.1992188 L301.074219,80.1992188 L297.347656,77.2460938 C297.207031,77.4335938 296.978516,77.703125 296.662109,78.0546875 C296.345703,78.40625 295.982422,78.7519531 295.572266,79.0917969 C295.162109,79.4316406 294.728516,79.7304688 294.271484,79.9882812 C293.814453,80.2460938 293.398438,80.375 293.023438,80.375 C292.414062,80.375 291.921875,80.1054688 291.546875,79.5664062 C291.171875,79.0273438 290.984375,78.3945312 290.984375,77.6679688 L290.984375,77.6679688 L290.984375,54.5 L299.808594,54.5 L299.808594,50 L290.984375,50 L290.984375,38.6796875 L287.714844,38.6796875 L280.085938,42.6875 L280.085938,50 L274.285156,51.9335938 L274.285156,54.5 L280.085938,54.5 L280.085938,77.984375 C280.085938,79.296875 280.273438,80.4921875 280.648438,81.5703125 C281.023438,82.6484375 281.585938,83.5742188 282.335938,84.3476562 C283.085938,85.1210938 284.023438,85.7246094 285.148438,86.1582031 C286.273438,86.5917969 287.597656,86.8085938 289.121094,86.8085938 Z M314.503906,86.6679688 C315.722656,86.6679688 316.765625,86.5683594 317.632812,86.3691406 C318.5,86.1699219 319.285156,85.8945312 319.988281,85.5429688 C320.691406,85.1914062 321.335938,84.7636719 321.921875,84.2597656 C322.507812,83.7558594 323.128906,83.1992188 323.785156,82.5898438 C323.878906,82.9648438 324.03125,83.3515625 324.242188,83.75 C324.453125,84.1484375 324.699219,84.5175781 324.980469,84.8574219 C325.261719,85.1972656 325.578125,85.4726562 325.929688,85.6835938 C326.28125,85.8945312 326.644531,86 327.019531,86 L327.019531,86 L339.957031,86 C338.292969,85.3203125 337.003906,84.4648438 336.089844,83.4335938 C335.175781,82.4023438 334.71875,81.1484375 334.71875,79.671875 L334.71875,79.671875 L334.71875,59.0703125 C334.71875,57.5703125 334.431641,56.2167969 333.857422,55.0097656 C333.283203,53.8027344 332.392578,52.7714844 331.185547,51.9160156 C329.978516,51.0605469 328.4375,50.3984375 326.5625,49.9296875 C324.6875,49.4609375 322.460938,49.2265625 319.882812,49.2265625 C317.796875,49.2265625 315.857422,49.4609375 314.064453,49.9296875 C312.271484,50.3984375 310.677734,51.0605469 309.283203,51.9160156 C307.888672,52.7714844 306.722656,53.8144531 305.785156,55.0449219 C304.847656,56.2753906 304.191406,57.640625 303.816406,59.140625 L303.816406,59.140625 L312.992188,59.140625 C313.132812,58.34375 313.355469,57.5820312 313.660156,56.8554688 C313.964844,56.1289062 314.363281,55.484375 314.855469,54.921875 C315.347656,54.359375 315.933594,53.9140625 316.613281,53.5859375 C317.292969,53.2578125 318.066406,53.09375 318.933594,53.09375 C319.660156,53.09375 320.322266,53.2050781 320.919922,53.4277344 C321.517578,53.6503906 322.027344,54.0136719 322.449219,54.5175781 C322.871094,55.0214844 323.199219,55.6777344 323.433594,56.4863281 C323.667969,57.2949219 323.785156,58.2734375 323.785156,59.421875 L323.785156,59.421875 L323.785156,62.9375 C321.300781,63.6875 318.863281,64.4726562 316.472656,65.2929688 C314.082031,66.1132812 311.943359,67.0742188 310.056641,68.1757812 C308.169922,69.2773438 306.652344,70.5664062 305.503906,72.0429688 C304.355469,73.5195312 303.78125,75.2890625 303.78125,77.3515625 C303.78125,78.6875 304.027344,79.9238281 304.519531,81.0605469 C305.011719,82.1972656 305.720703,83.1816406 306.646484,84.0136719 C307.572266,84.8457031 308.697266,85.4960938 310.021484,85.9648438 C311.345703,86.4335938 312.839844,86.6679688 314.503906,86.6679688 Z M318.195312,80.65625 C317.140625,80.65625 316.302734,80.3164062 315.681641,79.6367188 C315.060547,78.9570312 314.75,78.0195312 314.75,76.8242188 C314.75,75.7460938 315.025391,74.7324219 315.576172,73.7832031 C316.126953,72.8339844 316.830078,71.9667969 317.685547,71.1816406 C318.541016,70.3964844 319.507812,69.6875 320.585938,69.0546875 C321.664062,68.421875 322.730469,67.8828125 323.785156,67.4375 L323.785156,67.4375 L323.785156,77.8085938 C322.683594,78.6523438 321.699219,79.3378906 320.832031,79.8652344 C319.964844,80.3925781 319.085938,80.65625 318.195312,80.65625 Z M356.410156,86 L356.410156,31.6484375 L353.140625,31.6484375 L345.546875,35.65625 L345.546875,86 L356.410156,86 Z M375.007812,86 L375.007812,54.5703125 L391.109375,86 L395.609375,86 L411.183594,54.921875 L411.183594,86 L422.855469,86 L422.855469,38.328125 L411.710938,38.328125 L395.46875,70.8828125 L378.980469,38.328125 L367.589844,38.328125 L367.589844,86 L375.007812,86 Z M450.3125,86.8085938 C452.304688,86.8085938 454.273438,86.4394531 456.21875,85.7011719 C458.164062,84.9628906 459.962891,83.9492188 461.615234,82.6601562 C463.267578,81.3710938 464.708984,79.8710938 465.939453,78.1601562 C467.169922,76.4492188 468.066406,74.6210938 468.628906,72.6757812 L468.628906,72.6757812 L463.074219,71.796875 C462.746094,72.8984375 462.21875,73.9238281 461.492188,74.8730469 C460.765625,75.8222656 459.910156,76.6542969 458.925781,77.3691406 C457.941406,78.0839844 456.869141,78.6464844 455.708984,79.0566406 C454.548828,79.4667969 453.371094,79.671875 452.175781,79.671875 C450.792969,79.671875 449.533203,79.2675781 448.396484,78.4589844 C447.259766,77.6503906 446.269531,76.5605469 445.425781,75.1894531 C444.582031,73.8183594 443.908203,72.2304688 443.404297,70.4257812 C442.900391,68.6210938 442.601562,66.7226562 442.507812,64.7304688 L442.507812,64.7304688 L467.433594,64.7304688 C467.433594,62.5976562 467.023438,60.59375 466.203125,58.71875 C465.382812,56.84375 464.228516,55.2148438 462.740234,53.8320312 C461.251953,52.4492188 459.464844,51.359375 457.378906,50.5625 C455.292969,49.765625 452.996094,49.3671875 450.488281,49.3671875 C447.675781,49.3671875 445.126953,49.8652344 442.841797,50.8613281 C440.556641,51.8574219 438.59375,53.2460938 436.953125,55.0273438 C435.3125,56.8085938 434.046875,58.9121094 433.15625,61.3378906 C432.265625,63.7636719 431.820312,66.3945312 431.820312,69.2304688 C431.820312,71.5976562 432.306641,73.8417969 433.279297,75.9628906 C434.251953,78.0839844 435.570312,79.9472656 437.234375,81.5527344 C438.898438,83.1582031 440.855469,84.4355469 443.105469,85.3847656 C445.355469,86.3339844 447.757812,86.8085938 450.3125,86.8085938 Z M454.917969,61.0039062 L442.613281,61.0039062 C442.730469,59.9257812 442.970703,58.9472656 443.333984,58.0683594 C443.697266,57.1894531 444.142578,56.4394531 444.669922,55.8183594 C445.197266,55.1972656 445.789062,54.7167969 446.445312,54.3769531 C447.101562,54.0371094 447.769531,53.8671875 448.449219,53.8671875 C449.316406,53.8671875 450.125,54.0371094 450.875,54.3769531 C451.625,54.7167969 452.28125,55.203125 452.84375,55.8359375 C453.40625,56.46875 453.869141,57.2246094 454.232422,58.1035156 C454.595703,58.9824219 454.824219,59.9492188 454.917969,61.0039062 L454.917969,61.0039062 Z M488.210938,86.8085938 C490.835938,86.8085938 493.068359,86.515625 494.908203,85.9296875 C496.748047,85.34375 498.248047,84.546875 499.408203,83.5390625 C500.568359,82.53125 501.40625,81.3476562 501.921875,79.9882812 C502.4375,78.6289062 502.695312,77.1640625 502.695312,75.59375 C502.695312,74.140625 502.355469,72.8222656 501.675781,71.6386719 C500.996094,70.4550781 500.09375,69.3769531 498.96875,68.4042969 C497.84375,67.4316406 496.560547,66.5585938 495.119141,65.7851562 C493.677734,65.0117188 492.195312,64.3085938 490.671875,63.6757812 C489.664062,63.2539062 488.732422,62.8085938 487.876953,62.3398438 C487.021484,61.8710938 486.277344,61.3730469 485.644531,60.8457031 C485.011719,60.3183594 484.519531,59.75 484.167969,59.140625 C483.816406,58.53125 483.640625,57.8867188 483.640625,57.2070312 C483.640625,56.6679688 483.78125,56.1933594 484.0625,55.7832031 C484.34375,55.3730469 484.71875,55.0273438 485.1875,54.7460938 C485.65625,54.4648438 486.195312,54.2480469 486.804688,54.0957031 C487.414062,53.9433594 488.058594,53.8671875 488.738281,53.8671875 C489.113281,53.8671875 489.546875,53.9023438 490.039062,53.9726562 C490.53125,54.0429688 491.035156,54.2363281 491.550781,54.5527344 C492.066406,54.8691406 492.558594,55.34375 493.027344,55.9765625 C493.496094,56.609375 493.894531,57.5 494.222656,58.6484375 L494.222656,58.6484375 L500.550781,56.46875 C499.917969,55.3671875 499.203125,54.3769531 498.40625,53.4980469 C497.609375,52.6191406 496.695312,51.875 495.664062,51.265625 C494.632812,50.65625 493.4375,50.1875 492.078125,49.859375 C490.71875,49.53125 489.160156,49.3671875 487.402344,49.3671875 C485.480469,49.3671875 483.722656,49.6132812 482.128906,50.1054688 C480.535156,50.5976562 479.164062,51.2890625 478.015625,52.1796875 C476.867188,53.0703125 475.976562,54.1425781 475.34375,55.3964844 C474.710938,56.6503906 474.394531,58.0390625 474.394531,59.5625 C474.394531,61.15625 474.740234,62.5625 475.431641,63.78125 C476.123047,65 477.03125,66.0839844 478.15625,67.0332031 C479.28125,67.9824219 480.546875,68.8261719 481.953125,69.5644531 C483.359375,70.3027344 484.777344,70.9882812 486.207031,71.6210938 C487.097656,72.0195312 487.929688,72.4472656 488.703125,72.9042969 C489.476562,73.3613281 490.144531,73.859375 490.707031,74.3984375 C491.269531,74.9375 491.708984,75.5410156 492.025391,76.2089844 C492.341797,76.8769531 492.5,77.6328125 492.5,78.4765625 C492.5,78.9921875 492.376953,79.4726562 492.130859,79.9179688 C491.884766,80.3632812 491.533203,80.7558594 491.076172,81.0957031 C490.619141,81.4355469 490.080078,81.6992188 489.458984,81.8867188 C488.837891,82.0742188 488.152344,82.1679688 487.402344,82.1679688 C485.621094,82.1679688 484.138672,81.6230469 482.955078,80.5332031 C481.771484,79.4433594 480.863281,77.9140625 480.230469,75.9453125 L480.230469,75.9453125 L474.007812,78.3359375 C474.546875,79.3203125 475.167969,80.3164062 475.871094,81.3242188 C476.574219,82.3320312 477.464844,83.2402344 478.542969,84.0488281 C479.621094,84.8574219 480.939453,85.5195312 482.498047,86.0351562 C484.056641,86.5507812 485.960938,86.8085938 488.210938,86.8085938 Z M521.539062,86 L521.539062,59.5976562 C522.171875,59.0351562 522.857422,58.5195312 523.595703,58.0507812 C524.333984,57.5820312 525.066406,57.171875 525.792969,56.8203125 C526.519531,56.46875 527.205078,56.1992188 527.849609,56.0117188 C528.494141,55.8242188 529.027344,55.7304688 529.449219,55.7304688 C530.410156,55.7304688 531.189453,56.2167969 531.787109,57.1894531 C532.384766,58.1621094 532.683594,59.5742188 532.683594,61.4257812 L532.683594,61.4257812 L532.683594,86 L543.652344,86 L543.652344,60.265625 C543.652344,58.765625 543.376953,57.3476562 542.826172,56.0117188 C542.275391,54.6757812 541.525391,53.5097656 540.576172,52.5136719 C539.626953,51.5175781 538.513672,50.7324219 537.236328,50.1582031 C535.958984,49.5839844 534.59375,49.296875 533.140625,49.296875 C531.171875,49.296875 529.162109,49.5957031 527.111328,50.1933594 C525.060547,50.7910156 523.203125,51.6992188 521.539062,52.9179688 L521.539062,52.9179688 L521.539062,31.6484375 L518.269531,31.6484375 L510.5,35.65625 L510.5,86 L521.539062,86 Z" id="MortalMesh" fill="#000000" fill-rule="nonzero"></path>
            <path d="M134.679688,25.3427734 C135.722656,25.3427734 136.601562,25.1230469 137.316406,24.6835938 C137.732422,24.4316406 138.201172,23.9980469 138.722656,23.3828125 L138.722656,23.3828125 L138.995117,25 L140.788086,25 L140.788086,18.0478516 L135.391602,18.0478516 L135.391602,20.2099609 L138.388672,20.2099609 C138.253906,21.0595703 137.896484,21.746582 137.316406,22.2709961 C136.736328,22.7954102 135.992188,23.0576172 135.083984,23.0576172 C134.158203,23.0576172 133.332031,22.7265625 132.605469,22.0644531 C131.878906,21.4023438 131.515625,20.2744141 131.515625,18.6806641 C131.515625,17.0986328 131.851074,15.9135742 132.521973,15.1254883 C133.192871,14.3374023 134.049805,13.9433594 135.092773,13.9433594 C135.637695,13.9433594 136.132812,14.0400391 136.578125,14.2333984 C137.375,14.5849609 137.875977,15.203125 138.081055,16.0878906 L138.081055,16.0878906 L140.744141,16.0878906 C140.597656,14.8398438 140.024902,13.7983398 139.025879,12.9633789 C138.026855,12.128418 136.704102,11.7109375 135.057617,11.7109375 C133.15918,11.7109375 131.632812,12.34375 130.478516,13.609375 C129.324219,14.875 128.74707,16.5566406 128.74707,18.6542969 C128.74707,20.7285156 129.318359,22.3632812 130.460938,23.5585938 C131.556641,24.7480469 132.962891,25.3427734 134.679688,25.3427734 Z M146.37793,25.2109375 C146.870117,25.2109375 147.299316,25.1464844 147.665527,25.0175781 C148.031738,24.8886719 148.411133,24.6484375 148.803711,24.296875 C148.932617,24.1855469 149.043945,24.0566406 149.137695,23.9101562 C149.231445,23.7636719 149.290039,23.6757812 149.313477,23.6464844 L149.313477,23.6464844 L149.313477,25 L151.748047,25 L151.748047,15.4199219 L149.208008,15.4199219 L149.208008,20.6318359 C149.208008,21.2470703 149.125977,21.7421875 148.961914,22.1171875 C148.645508,22.8085938 148.05957,23.1542969 147.204102,23.1542969 C146.536133,23.1542969 146.087891,22.9111328 145.859375,22.4248047 C145.730469,22.1494141 145.666016,21.7392578 145.666016,21.1943359 L145.666016,21.1943359 L145.666016,15.4199219 L143.099609,15.4199219 L143.099609,21.1943359 C143.099609,22.2900391 143.237305,23.1191406 143.512695,23.6816406 C144.004883,24.7011719 144.959961,25.2109375 146.37793,25.2109375 Z M156.740234,14.2773438 L156.740234,11.9658203 L154.200195,11.9658203 L154.200195,14.2773438 L156.740234,14.2773438 Z M156.740234,25 L156.740234,15.4199219 L154.200195,15.4199219 L154.200195,25 L156.740234,25 Z M161.679688,25 L161.679688,19.8144531 C161.679688,19.2226562 161.761719,18.7363281 161.925781,18.3554688 C162.242188,17.6347656 162.825195,17.2744141 163.674805,17.2744141 C164.366211,17.2744141 164.834961,17.5205078 165.081055,18.0126953 C165.21582,18.2822266 165.283203,18.6689453 165.283203,19.1728516 L165.283203,19.1728516 L165.283203,25 L167.849609,25 L167.849609,18.5488281 C167.849609,17.3476562 167.534668,16.487793 166.904785,15.9692383 C166.274902,15.4506836 165.464844,15.1914062 164.474609,15.1914062 C163.683594,15.1914062 163.030273,15.3847656 162.514648,15.7714844 C162.227539,15.9882812 161.922852,16.3427734 161.600586,16.8349609 L161.600586,16.8349609 L161.600586,15.4375 L159.183594,15.4375 L159.183594,25 L161.679688,25 Z M173.984375,25.3251953 C175.460938,25.3251953 176.552246,25.0249023 177.258301,24.4243164 C177.964355,23.8237305 178.317383,23.0488281 178.317383,22.0996094 C178.317383,21.3789062 178.071289,20.7783203 177.579102,20.2978516 C177.081055,19.8232422 176.333984,19.46875 175.337891,19.234375 C173.84375,18.90625 172.973633,18.6748047 172.727539,18.5400391 C172.481445,18.4111328 172.358398,18.203125 172.358398,17.9160156 C172.358398,17.6875 172.474121,17.4882812 172.705566,17.3183594 C172.937012,17.1484375 173.325195,17.0634766 173.870117,17.0634766 C174.532227,17.0634766 175.000977,17.2333984 175.276367,17.5732422 C175.422852,17.7607422 175.513672,18.015625 175.548828,18.3378906 L175.548828,18.3378906 L178.053711,18.3378906 C177.942383,17.1660156 177.510254,16.3413086 176.757324,15.8637695 C176.004395,15.3862305 175.030273,15.1474609 173.834961,15.1474609 C172.575195,15.1474609 171.598145,15.465332 170.903809,16.1010742 C170.209473,16.7368164 169.862305,17.4970703 169.862305,18.3818359 C169.862305,19.1318359 170.084961,19.7060547 170.530273,20.1044922 C170.975586,20.5087891 171.740234,20.8457031 172.824219,21.1152344 C174.330078,21.4726562 175.200195,21.7246094 175.43457,21.8710938 C175.668945,22.0175781 175.786133,22.2314453 175.786133,22.5126953 C175.786133,22.8056641 175.641113,23.0253906 175.351074,23.171875 C175.061035,23.3183594 174.669922,23.3916016 174.177734,23.3916016 C173.339844,23.3916016 172.765625,23.2246094 172.455078,22.890625 C172.279297,22.703125 172.165039,22.3867188 172.112305,21.9414062 L172.112305,21.9414062 L169.572266,21.9414062 C169.572266,22.9257812 169.931152,23.7358398 170.648926,24.371582 C171.366699,25.0073242 172.478516,25.3251953 173.984375,25.3251953 Z M184.478516,25.3339844 C186.125,25.3339844 187.352539,24.8344727 188.161133,23.8354492 C188.969727,22.8364258 189.374023,21.6337891 189.374023,20.2275391 C189.374023,18.8447266 188.969727,17.6464844 188.161133,16.6328125 C187.352539,15.6191406 186.125,15.1123047 184.478516,15.1123047 C182.832031,15.1123047 181.604492,15.6191406 180.795898,16.6328125 C179.987305,17.6464844 179.583008,18.8447266 179.583008,20.2275391 C179.583008,21.6337891 179.987305,22.8364258 180.795898,23.8354492 C181.604492,24.8344727 182.832031,25.3339844 184.478516,25.3339844 Z M184.469727,23.2333984 C183.737305,23.2333984 183.17334,22.9726562 182.777832,22.4511719 C182.382324,21.9296875 182.18457,21.1884766 182.18457,20.2275391 C182.18457,19.2666016 182.382324,18.5268555 182.777832,18.0083008 C183.17334,17.4897461 183.737305,17.2304688 184.469727,17.2304688 C185.202148,17.2304688 185.764648,17.4897461 186.157227,18.0083008 C186.549805,18.5268555 186.746094,19.2666016 186.746094,20.2275391 C186.746094,21.1884766 186.549805,21.9296875 186.157227,22.4511719 C185.764648,22.9726562 185.202148,23.2333984 184.469727,23.2333984 Z M195.473633,25.3339844 C197.120117,25.3339844 198.347656,24.8344727 199.15625,23.8354492 C199.964844,22.8364258 200.369141,21.6337891 200.369141,20.2275391 C200.369141,18.8447266 199.964844,17.6464844 199.15625,16.6328125 C198.347656,15.6191406 197.120117,15.1123047 195.473633,15.1123047 C193.827148,15.1123047 192.599609,15.6191406 191.791016,16.6328125 C190.982422,17.6464844 190.578125,18.8447266 190.578125,20.2275391 C190.578125,21.6337891 190.982422,22.8364258 191.791016,23.8354492 C192.599609,24.8344727 193.827148,25.3339844 195.473633,25.3339844 Z M195.464844,23.2333984 C194.732422,23.2333984 194.168457,22.9726562 193.772949,22.4511719 C193.377441,21.9296875 193.179688,21.1884766 193.179688,20.2275391 C193.179688,19.2666016 193.377441,18.5268555 193.772949,18.0083008 C194.168457,17.4897461 194.732422,17.2304688 195.464844,17.2304688 C196.197266,17.2304688 196.759766,17.4897461 197.152344,18.0083008 C197.544922,18.5268555 197.741211,19.2666016 197.741211,20.2275391 C197.741211,21.1884766 197.544922,21.9296875 197.152344,22.4511719 C196.759766,22.9726562 196.197266,23.2333984 195.464844,23.2333984 Z M211.487305,25 L211.487305,22.6708984 L205.071289,22.6708984 L205.071289,12.0449219 L202.364258,12.0449219 L202.364258,25 L211.487305,25 Z M215.503906,25.2988281 C216.183594,25.2988281 216.792969,25.1435547 217.332031,24.8330078 C217.783203,24.5693359 218.181641,24.25 218.527344,23.875 C218.544922,24.0917969 218.568359,24.2851562 218.597656,24.4550781 C218.626953,24.625 218.679688,24.8066406 218.755859,25 L218.755859,25 L221.480469,25 L221.480469,24.6308594 C221.316406,24.5546875 221.193359,24.4580078 221.111328,24.3408203 C221.029297,24.2236328 220.979492,24.0009766 220.961914,23.6728516 C220.950195,23.2392578 220.944336,22.8701172 220.944336,22.5654297 L220.944336,22.5654297 L220.944336,18.1708984 C220.944336,17.0166016 220.537109,16.2314453 219.722656,15.8154297 C218.908203,15.3994141 217.976562,15.1914062 216.927734,15.1914062 C215.316406,15.1914062 214.179688,15.6132812 213.517578,16.4570312 C213.101562,16.9960938 212.867188,17.6845703 212.814453,18.5224609 L212.814453,18.5224609 L215.231445,18.5224609 C215.290039,18.1533203 215.407227,17.8603516 215.583008,17.6435547 C215.829102,17.3505859 216.248047,17.2041016 216.839844,17.2041016 C217.367188,17.2041016 217.76709,17.2788086 218.039551,17.4282227 C218.312012,17.5776367 218.448242,17.8486328 218.448242,18.2412109 C218.448242,18.5634766 218.269531,18.8007812 217.912109,18.953125 C217.712891,19.0410156 217.381836,19.1142578 216.918945,19.1728516 L216.918945,19.1728516 L216.066406,19.2783203 C215.099609,19.4013672 214.367188,19.6064453 213.869141,19.8935547 C212.960938,20.4208984 212.506836,21.2734375 212.506836,22.4511719 C212.506836,23.359375 212.789551,24.0610352 213.35498,24.5561523 C213.92041,25.0512695 214.636719,25.2988281 215.503906,25.2988281 Z M216.242188,23.4794922 C215.902344,23.4794922 215.61377,23.3842773 215.376465,23.1938477 C215.13916,23.003418 215.020508,22.6943359 215.020508,22.2666016 C215.020508,21.7861328 215.213867,21.4316406 215.600586,21.203125 C215.829102,21.0683594 216.207031,20.9541016 216.734375,20.8603516 L216.734375,20.8603516 L217.296875,20.7548828 C217.578125,20.7021484 217.799316,20.6450195 217.960449,20.5834961 C218.121582,20.5219727 218.28125,20.4414062 218.439453,20.3417969 L218.439453,20.3417969 L218.439453,21.2734375 C218.421875,22.1113281 218.186035,22.6884766 217.731934,23.0048828 C217.277832,23.3212891 216.78125,23.4794922 216.242188,23.4794922 Z M228.371094,25.2548828 C229.630859,25.2548828 230.612305,24.765625 231.31543,23.7871094 C232.018555,22.8085938 232.370117,21.5751953 232.370117,20.0869141 C232.370117,18.6513672 232.01416,17.4794922 231.302246,16.5712891 C230.590332,15.6630859 229.604492,15.2089844 228.344727,15.2089844 C227.647461,15.2089844 227.073242,15.3554688 226.62207,15.6484375 C226.241211,15.8828125 225.892578,16.2226562 225.576172,16.6679688 L225.576172,16.6679688 L225.576172,12.0625 L223.080078,12.0625 L223.080078,25 L225.532227,25 L225.532227,23.7958984 C225.866211,24.2646484 226.176758,24.5927734 226.463867,24.7802734 C226.944336,25.0966797 227.580078,25.2548828 228.371094,25.2548828 Z M227.703125,23.1894531 C226.958984,23.1894531 226.405273,22.9199219 226.041992,22.3808594 C225.678711,21.8417969 225.49707,21.1621094 225.49707,20.3417969 C225.49707,19.6445312 225.584961,19.0761719 225.760742,18.6367188 C226.100586,17.8105469 226.724609,17.3974609 227.632812,17.3974609 C228.529297,17.3974609 229.144531,17.8193359 229.478516,18.6630859 C229.654297,19.1083984 229.742188,19.6708984 229.742188,20.3505859 C229.742188,21.2001953 229.563477,21.8857422 229.206055,22.4072266 C228.848633,22.9287109 228.347656,23.1894531 227.703125,23.1894531 Z" id="GuinsooLab" fill="#000000" fill-rule="nonzero"></path>
        </g>
    </g>
</svg>