<?xml version="1.0" encoding="UTF-8"?>
<svg width="649px" height="106px" viewBox="0 0 649 106" version="1.1" xmlns="http://www.w3.org/2000/svg" xmlns:xlink="http://www.w3.org/1999/xlink">
    <title>guinsoolab-duskbladesql</title>
    <g id="guinsoolab-platform" stroke="none" stroke-width="1" fill="none" fill-rule="evenodd">
        <g id="guinsoolab-duskbladesql">
            <g id="Group" transform="translate(19.000000, 14.000000)">
                <polygon id="Path-15" fill="#6A55FE" points="1.32209087e-18 -4.15856191e-15 1.32209087e-18 37.3839009 39.541259 75 61 75 14.4876466 29.5699287 14.4876466 15.8449993 61 15.8449993 61 -4.15856191e-15"></polygon>
                <polygon id="Path-16" fill="#41EFC9" points="46.5360825 29.7520661 46.5360825 42.768595 60.371134 42.768595 60.371134 29.7520661"></polygon>
            </g>
            <path d="M153.136719,88 C157.707031,88 161.761719,87.3671875 165.300781,86.1015625 C168.839844,84.8359375 171.822266,83.1015625 174.248047,80.8984375 C176.673828,78.6953125 178.519531,76.1230469 179.785156,73.1816406 C181.050781,70.2402344 181.683594,67.09375 181.683594,63.7421875 C181.683594,60.015625 180.939453,56.6992188 179.451172,53.7929688 C177.962891,50.8867188 175.871094,48.4375 173.175781,46.4453125 C170.480469,44.453125 167.269531,42.9355469 163.542969,41.8925781 C159.816406,40.8496094 155.726562,40.328125 151.273438,40.328125 L151.273438,40.328125 L133.976562,40.328125 L133.976562,88 L153.136719,88 Z M151.90625,83.1132812 L145.683594,83.1132812 L145.683594,45.1445312 L151.90625,45.1445312 C154.34375,45.1445312 156.587891,45.6191406 158.638672,46.5683594 C160.689453,47.5175781 162.453125,48.8242188 163.929688,50.4882812 C165.40625,52.1523438 166.560547,54.1269531 167.392578,56.4121094 C168.224609,58.6972656 168.640625,61.1757812 168.640625,63.8476562 C168.640625,66.9414062 168.201172,69.6835938 167.322266,72.0742188 C166.443359,74.4648438 165.242188,76.4804688 163.71875,78.1210938 C162.195312,79.7617188 160.419922,81.0039062 158.392578,81.8476562 C156.365234,82.6914062 154.203125,83.1132812 151.90625,83.1132812 L151.90625,83.1132812 Z M204.640625,88.6679688 C206.1875,88.6679688 207.763672,88.3046875 209.369141,87.578125 C210.974609,86.8515625 212.503906,85.8789062 213.957031,84.6601562 L213.957031,84.6601562 L213.957031,88 L224.855469,88 L224.855469,52 L213.957031,52 L213.957031,78.015625 C213.558594,78.6484375 213.101562,79.234375 212.585938,79.7734375 C212.070312,80.3125 211.548828,80.78125 211.021484,81.1796875 C210.494141,81.578125 209.978516,81.8886719 209.474609,82.1113281 C208.970703,82.3339844 208.519531,82.4453125 208.121094,82.4453125 C207.394531,82.4453125 206.714844,82.3164062 206.082031,82.0585938 C205.449219,81.8007812 204.892578,81.4433594 204.412109,80.9863281 C203.931641,80.5292969 203.550781,79.9902344 203.269531,79.3691406 C202.988281,78.7480469 202.847656,78.0859375 202.847656,77.3828125 L202.847656,77.3828125 L202.847656,52 L191.949219,52 L191.949219,77.3828125 C191.949219,78.9296875 192.277344,80.3886719 192.933594,81.7597656 C193.589844,83.1308594 194.486328,84.3261719 195.623047,85.3457031 C196.759766,86.3652344 198.101562,87.1738281 199.648438,87.7714844 C201.195312,88.3691406 202.859375,88.6679688 204.640625,88.6679688 Z M247.25,88.8085938 C249.875,88.8085938 252.107422,88.515625 253.947266,87.9296875 C255.787109,87.34375 257.287109,86.546875 258.447266,85.5390625 C259.607422,84.53125 260.445312,83.3476562 260.960938,81.9882812 C261.476562,80.6289062 261.734375,79.1640625 261.734375,77.59375 C261.734375,76.140625 261.394531,74.8222656 260.714844,73.6386719 C260.035156,72.4550781 259.132812,71.3769531 258.007812,70.4042969 C256.882812,69.4316406 255.599609,68.5585938 254.158203,67.7851562 C252.716797,67.0117188 251.234375,66.3085938 249.710938,65.6757812 C248.703125,65.2539062 247.771484,64.8085938 246.916016,64.3398438 C246.060547,63.8710938 245.316406,63.3730469 244.683594,62.8457031 C244.050781,62.3183594 243.558594,61.75 243.207031,61.140625 C242.855469,60.53125 242.679688,59.8867188 242.679688,59.2070312 C242.679688,58.6679688 242.820312,58.1933594 243.101562,57.7832031 C243.382812,57.3730469 243.757812,57.0273438 244.226562,56.7460938 C244.695312,56.4648438 245.234375,56.2480469 245.84375,56.0957031 C246.453125,55.9433594 247.097656,55.8671875 247.777344,55.8671875 C248.152344,55.8671875 248.585938,55.9023438 249.078125,55.9726562 C249.570312,56.0429688 250.074219,56.2363281 250.589844,56.5527344 C251.105469,56.8691406 251.597656,57.34375 252.066406,57.9765625 C252.535156,58.609375 252.933594,59.5 253.261719,60.6484375 L253.261719,60.6484375 L259.589844,58.46875 C258.957031,57.3671875 258.242188,56.3769531 257.445312,55.4980469 C256.648438,54.6191406 255.734375,53.875 254.703125,53.265625 C253.671875,52.65625 252.476562,52.1875 251.117188,51.859375 C249.757812,51.53125 248.199219,51.3671875 246.441406,51.3671875 C244.519531,51.3671875 242.761719,51.6132812 241.167969,52.1054688 C239.574219,52.5976562 238.203125,53.2890625 237.054688,54.1796875 C235.90625,55.0703125 235.015625,56.1425781 234.382812,57.3964844 C233.75,58.6503906 233.433594,60.0390625 233.433594,61.5625 C233.433594,63.15625 233.779297,64.5625 234.470703,65.78125 C235.162109,67 236.070312,68.0839844 237.195312,69.0332031 C238.320312,69.9824219 239.585938,70.8261719 240.992188,71.5644531 C242.398438,72.3027344 243.816406,72.9882812 245.246094,73.6210938 C246.136719,74.0195312 246.96875,74.4472656 247.742188,74.9042969 C248.515625,75.3613281 249.183594,75.859375 249.746094,76.3984375 C250.308594,76.9375 250.748047,77.5410156 251.064453,78.2089844 C251.380859,78.8769531 251.539062,79.6328125 251.539062,80.4765625 C251.539062,80.9921875 251.416016,81.4726562 251.169922,81.9179688 C250.923828,82.3632812 250.572266,82.7558594 250.115234,83.0957031 C249.658203,83.4355469 249.119141,83.6992188 248.498047,83.8867188 C247.876953,84.0742188 247.191406,84.1679688 246.441406,84.1679688 C244.660156,84.1679688 243.177734,83.6230469 241.994141,82.5332031 C240.810547,81.4433594 239.902344,79.9140625 239.269531,77.9453125 L239.269531,77.9453125 L233.046875,80.3359375 C233.585938,81.3203125 234.207031,82.3164062 234.910156,83.3242188 C235.613281,84.3320312 236.503906,85.2402344 237.582031,86.0488281 C238.660156,86.8574219 239.978516,87.5195312 241.537109,88.0351562 C243.095703,88.5507812 245,88.8085938 247.25,88.8085938 Z M279.804688,88 L279.804688,73.5507812 L292.285156,88 L305.1875,88 L286.0625,65.78125 L301.8125,52 L293.9375,52 L279.804688,64.3398438 L279.804688,33.6484375 L276.535156,33.6484375 L268.835938,37.65625 L268.835938,88 L279.804688,88 Z M325.71875,88.6679688 C327.640625,88.6679688 329.486328,88.4101562 331.255859,87.8945312 C333.025391,87.3789062 334.683594,86.6582031 336.230469,85.7324219 C337.777344,84.8066406 339.183594,83.6875 340.449219,82.375 C341.714844,81.0625 342.798828,79.6210938 343.701172,78.0507812 C344.603516,76.4804688 345.300781,74.7988281 345.792969,73.0058594 C346.285156,71.2128906 346.53125,69.3554688 346.53125,67.4335938 C346.53125,65.2539062 346.144531,63.1914062 345.371094,61.2460938 C344.597656,59.3007812 343.519531,57.5957031 342.136719,56.1308594 C340.753906,54.6660156 339.113281,53.5058594 337.214844,52.6503906 C335.316406,51.7949219 333.242188,51.3671875 330.992188,51.3671875 C329.445312,51.3671875 327.839844,51.6601562 326.175781,52.2460938 C324.511719,52.8320312 322.976562,53.5820312 321.570312,54.4960938 L321.570312,54.4960938 L321.570312,33.6484375 L318.300781,33.6484375 L310.601562,37.65625 L310.601562,83.8867188 C312.664062,85.5507812 314.990234,86.7636719 317.580078,87.5253906 C320.169922,88.2871094 322.882812,88.6679688 325.71875,88.6679688 Z M327.125,84.0273438 C326.515625,84.0273438 325.953125,83.9570312 325.4375,83.8164062 C324.921875,83.6757812 324.441406,83.4882812 323.996094,83.2539062 C323.550781,83.0195312 323.128906,82.75 322.730469,82.4453125 C322.332031,82.140625 321.945312,81.8242188 321.570312,81.4960938 L321.570312,81.4960938 L321.570312,61.5625 C322.367188,60.6484375 323.316406,59.8925781 324.417969,59.2949219 C325.519531,58.6972656 326.574219,58.3984375 327.582031,58.3984375 C328.636719,58.3984375 329.632812,58.6914062 330.570312,59.2773438 C331.507812,59.8632812 332.322266,60.6660156 333.013672,61.6855469 C333.705078,62.7050781 334.25,63.8886719 334.648438,65.2363281 C335.046875,66.5839844 335.246094,68.0195312 335.246094,69.5429688 C335.246094,71.5820312 335.052734,73.4863281 334.666016,75.2558594 C334.279297,77.0253906 333.728516,78.5605469 333.013672,79.8613281 C332.298828,81.1621094 331.443359,82.1816406 330.447266,82.9199219 C329.451172,83.6582031 328.34375,84.0273438 327.125,84.0273438 Z M365.09375,88 L365.09375,33.6484375 L361.824219,33.6484375 L354.230469,37.65625 L354.230469,88 L365.09375,88 Z M382.953125,88.6679688 C384.171875,88.6679688 385.214844,88.5683594 386.082031,88.3691406 C386.949219,88.1699219 387.734375,87.8945312 388.4375,87.5429688 C389.140625,87.1914062 389.785156,86.7636719 390.371094,86.2597656 C390.957031,85.7558594 391.578125,85.1992188 392.234375,84.5898438 C392.328125,84.9648438 392.480469,85.3515625 392.691406,85.75 C392.902344,86.1484375 393.148438,86.5175781 393.429688,86.8574219 C393.710938,87.1972656 394.027344,87.4726562 394.378906,87.6835938 C394.730469,87.8945312 395.09375,88 395.46875,88 L395.46875,88 L408.40625,88 C406.742188,87.3203125 405.453125,86.4648438 404.539062,85.4335938 C403.625,84.4023438 403.167969,83.1484375 403.167969,81.671875 L403.167969,81.671875 L403.167969,61.0703125 C403.167969,59.5703125 402.880859,58.2167969 402.306641,57.0097656 C401.732422,55.8027344 400.841797,54.7714844 399.634766,53.9160156 C398.427734,53.0605469 396.886719,52.3984375 395.011719,51.9296875 C393.136719,51.4609375 390.910156,51.2265625 388.332031,51.2265625 C386.246094,51.2265625 384.306641,51.4609375 382.513672,51.9296875 C380.720703,52.3984375 379.126953,53.0605469 377.732422,53.9160156 C376.337891,54.7714844 375.171875,55.8144531 374.234375,57.0449219 C373.296875,58.2753906 372.640625,59.640625 372.265625,61.140625 L372.265625,61.140625 L381.441406,61.140625 C381.582031,60.34375 381.804688,59.5820312 382.109375,58.8554688 C382.414062,58.1289062 382.8125,57.484375 383.304688,56.921875 C383.796875,56.359375 384.382812,55.9140625 385.0625,55.5859375 C385.742188,55.2578125 386.515625,55.09375 387.382812,55.09375 C388.109375,55.09375 388.771484,55.2050781 389.369141,55.4277344 C389.966797,55.6503906 390.476562,56.0136719 390.898438,56.5175781 C391.320312,57.0214844 391.648438,57.6777344 391.882812,58.4863281 C392.117188,59.2949219 392.234375,60.2734375 392.234375,61.421875 L392.234375,61.421875 L392.234375,64.9375 C389.75,65.6875 387.3125,66.4726562 384.921875,67.2929688 C382.53125,68.1132812 380.392578,69.0742188 378.505859,70.1757812 C376.619141,71.2773438 375.101562,72.5664062 373.953125,74.0429688 C372.804688,75.5195312 372.230469,77.2890625 372.230469,79.3515625 C372.230469,80.6875 372.476562,81.9238281 372.96875,83.0605469 C373.460938,84.1972656 374.169922,85.1816406 375.095703,86.0136719 C376.021484,86.8457031 377.146484,87.4960938 378.470703,87.9648438 C379.794922,88.4335938 381.289062,88.6679688 382.953125,88.6679688 Z M386.644531,82.65625 C385.589844,82.65625 384.751953,82.3164062 384.130859,81.6367188 C383.509766,80.9570312 383.199219,80.0195312 383.199219,78.8242188 C383.199219,77.7460938 383.474609,76.7324219 384.025391,75.7832031 C384.576172,74.8339844 385.279297,73.9667969 386.134766,73.1816406 C386.990234,72.3964844 387.957031,71.6875 389.035156,71.0546875 C390.113281,70.421875 391.179688,69.8828125 392.234375,69.4375 L392.234375,69.4375 L392.234375,79.8085938 C391.132812,80.6523438 390.148438,81.3378906 389.28125,81.8652344 C388.414062,82.3925781 387.535156,82.65625 386.644531,82.65625 Z M427.707031,88.8085938 C429.230469,88.8085938 430.777344,88.5507812 432.347656,88.0351562 C433.917969,87.5195312 435.371094,86.8046875 436.707031,85.890625 L436.707031,85.890625 L436.707031,88 L447.570312,88 L447.570312,33.6484375 L444.300781,33.6484375 L436.707031,37.65625 L436.707031,52.28125 C435.957031,52 435.119141,51.7773438 434.193359,51.6132812 C433.267578,51.4492188 432.277344,51.3671875 431.222656,51.3671875 C428.480469,51.3671875 425.908203,51.90625 423.505859,52.984375 C421.103516,54.0625 419.005859,55.4921875 417.212891,57.2734375 C415.419922,59.0546875 414.007812,61.0878906 412.976562,63.3730469 C411.945312,65.6582031 411.429688,68.0078125 411.429688,70.421875 C411.429688,72.8359375 411.851562,75.1503906 412.695312,77.3652344 C413.539062,79.5800781 414.699219,81.5371094 416.175781,83.2363281 C417.652344,84.9355469 419.380859,86.2890625 421.361328,87.296875 C423.341797,88.3046875 425.457031,88.8085938 427.707031,88.8085938 Z M431.644531,83.4648438 C430.472656,83.4648438 429.371094,83.0546875 428.339844,82.234375 C427.308594,81.4140625 426.40625,80.3183594 425.632812,78.9472656 C424.859375,77.5761719 424.244141,75.9882812 423.787109,74.1835938 C423.330078,72.3789062 423.101562,70.4804688 423.101562,68.4882812 C423.101562,66.6601562 423.300781,64.9667969 423.699219,63.4082031 C424.097656,61.8496094 424.630859,60.5019531 425.298828,59.3652344 C425.966797,58.2285156 426.746094,57.3378906 427.636719,56.6933594 C428.527344,56.0488281 429.464844,55.7265625 430.449219,55.7265625 C431.199219,55.7265625 431.949219,55.9140625 432.699219,56.2890625 C433.449219,56.6640625 434.123047,57.1972656 434.720703,57.8886719 C435.318359,58.5800781 435.798828,59.40625 436.162109,60.3671875 C436.525391,61.328125 436.707031,62.3828125 436.707031,63.53125 L436.707031,63.53125 L436.707031,80.828125 C436.402344,81.2265625 436.044922,81.5839844 435.634766,81.9003906 C435.224609,82.2167969 434.791016,82.4921875 434.333984,82.7265625 C433.876953,82.9609375 433.414062,83.1425781 432.945312,83.2714844 C432.476562,83.4003906 432.042969,83.4648438 431.644531,83.4648438 Z M474.640625,88.8085938 C476.632812,88.8085938 478.601562,88.4394531 480.546875,87.7011719 C482.492188,86.9628906 484.291016,85.9492188 485.943359,84.6601562 C487.595703,83.3710938 489.037109,81.8710938 490.267578,80.1601562 C491.498047,78.4492188 492.394531,76.6210938 492.957031,74.6757812 L492.957031,74.6757812 L487.402344,73.796875 C487.074219,74.8984375 486.546875,75.9238281 485.820312,76.8730469 C485.09375,77.8222656 484.238281,78.6542969 483.253906,79.3691406 C482.269531,80.0839844 481.197266,80.6464844 480.037109,81.0566406 C478.876953,81.4667969 477.699219,81.671875 476.503906,81.671875 C475.121094,81.671875 473.861328,81.2675781 472.724609,80.4589844 C471.587891,79.6503906 470.597656,78.5605469 469.753906,77.1894531 C468.910156,75.8183594 468.236328,74.2304688 467.732422,72.4257812 C467.228516,70.6210938 466.929688,68.7226562 466.835938,66.7304688 L466.835938,66.7304688 L491.761719,66.7304688 C491.761719,64.5976562 491.351562,62.59375 490.53125,60.71875 C489.710938,58.84375 488.556641,57.2148438 487.068359,55.8320312 C485.580078,54.4492188 483.792969,53.359375 481.707031,52.5625 C479.621094,51.765625 477.324219,51.3671875 474.816406,51.3671875 C472.003906,51.3671875 469.455078,51.8652344 467.169922,52.8613281 C464.884766,53.8574219 462.921875,55.2460938 461.28125,57.0273438 C459.640625,58.8085938 458.375,60.9121094 457.484375,63.3378906 C456.59375,65.7636719 456.148438,68.3945312 456.148438,71.2304688 C456.148438,73.5976562 456.634766,75.8417969 457.607422,77.9628906 C458.580078,80.0839844 459.898438,81.9472656 461.5625,83.5527344 C463.226562,85.1582031 465.183594,86.4355469 467.433594,87.3847656 C469.683594,88.3339844 472.085938,88.8085938 474.640625,88.8085938 Z M479.246094,63.0039062 L466.941406,63.0039062 C467.058594,61.9257812 467.298828,60.9472656 467.662109,60.0683594 C468.025391,59.1894531 468.470703,58.4394531 468.998047,57.8183594 C469.525391,57.1972656 470.117188,56.7167969 470.773438,56.3769531 C471.429688,56.0371094 472.097656,55.8671875 472.777344,55.8671875 C473.644531,55.8671875 474.453125,56.0371094 475.203125,56.3769531 C475.953125,56.7167969 476.609375,57.203125 477.171875,57.8359375 C477.734375,58.46875 478.197266,59.2246094 478.560547,60.1035156 C478.923828,60.9824219 479.152344,61.9492188 479.246094,63.0039062 L479.246094,63.0039062 Z M518.585938,88.703125 C521.632812,88.703125 524.322266,88.3515625 526.654297,87.6484375 C528.986328,86.9453125 530.9375,85.9785156 532.507812,84.7480469 C534.078125,83.5175781 535.261719,82.0703125 536.058594,80.40625 C536.855469,78.7421875 537.253906,76.9375 537.253906,74.9921875 C537.253906,73.3515625 536.878906,71.875 536.128906,70.5625 C535.378906,69.25 534.388672,68.0546875 533.158203,66.9765625 C531.927734,65.8984375 530.527344,64.9082031 528.957031,64.0058594 C527.386719,63.1035156 525.787109,62.2421875 524.158203,61.421875 C522.529297,60.6015625 520.929688,59.7871094 519.359375,58.9785156 C517.789062,58.1699219 516.388672,57.3203125 515.158203,56.4296875 C513.927734,55.5390625 512.9375,54.578125 512.1875,53.546875 C511.4375,52.515625 511.0625,51.3671875 511.0625,50.1015625 C511.0625,49.375 511.203125,48.6308594 511.484375,47.8691406 C511.765625,47.1074219 512.222656,46.4160156 512.855469,45.7949219 C513.488281,45.1738281 514.326172,44.6640625 515.369141,44.265625 C516.412109,43.8671875 517.695312,43.6679688 519.21875,43.6679688 C520.835938,43.6679688 522.230469,43.8964844 523.402344,44.3535156 C524.574219,44.8105469 525.570312,45.4257812 526.390625,46.1992188 C527.210938,46.9726562 527.902344,47.875 528.464844,48.90625 C529.027344,49.9375 529.519531,51.015625 529.941406,52.140625 L529.941406,52.140625 L537.289062,52.140625 C536.75,50.359375 535.976562,48.6894531 534.96875,47.1308594 C533.960938,45.5722656 532.712891,44.2128906 531.224609,43.0527344 C529.736328,41.8925781 528.019531,40.984375 526.074219,40.328125 C524.128906,39.671875 521.960938,39.34375 519.570312,39.34375 C516.664062,39.34375 514.074219,39.6777344 511.800781,40.3457031 C509.527344,41.0136719 507.605469,41.9394531 506.035156,43.1230469 C504.464844,44.3066406 503.263672,45.7011719 502.431641,47.3066406 C501.599609,48.9121094 501.183594,50.6640625 501.183594,52.5625 C501.183594,54.296875 501.546875,55.8378906 502.273438,57.1855469 C503,58.5332031 503.960938,59.7402344 505.15625,60.8066406 C506.351562,61.8730469 507.710938,62.8398438 509.234375,63.7070312 C510.757812,64.5742188 512.316406,65.4003906 513.910156,66.1855469 C515.503906,66.9707031 517.0625,67.75 518.585938,68.5234375 C520.109375,69.296875 521.46875,70.1347656 522.664062,71.0371094 C523.859375,71.9394531 524.820312,72.9414062 525.546875,74.0429688 C526.273438,75.1445312 526.636719,76.3984375 526.636719,77.8046875 C526.636719,78.9296875 526.402344,79.8730469 525.933594,80.6347656 C525.464844,81.3964844 524.84375,82.0175781 524.070312,82.4980469 C523.296875,82.9785156 522.423828,83.3242188 521.451172,83.5351562 C520.478516,83.7460938 519.5,83.8515625 518.515625,83.8515625 C517.015625,83.8515625 515.697266,83.6347656 514.560547,83.2011719 C513.423828,82.7675781 512.439453,82.1699219 511.607422,81.4082031 C510.775391,80.6464844 510.089844,79.75 509.550781,78.71875 C509.011719,77.6875 508.601562,76.5742188 508.320312,75.3789062 L508.320312,75.3789062 L500.199219,75.3789062 C500.527344,77.3242188 501.136719,79.1113281 502.027344,80.7402344 C502.917969,82.3691406 504.113281,83.7695312 505.613281,84.9414062 C507.113281,86.1132812 508.935547,87.0332031 511.080078,87.7011719 C513.224609,88.3691406 515.726562,88.703125 518.585938,88.703125 Z M600.183594,102.34375 L600.183594,99.3203125 C598.050781,99.3203125 595.994141,98.9921875 594.013672,98.3359375 C592.033203,97.6796875 590.228516,96.8183594 588.599609,95.7519531 C586.970703,94.6855469 585.546875,93.4726562 584.328125,92.1132812 C583.109375,90.7539062 582.195312,89.3828125 581.585938,88 C584.398438,87.2734375 586.964844,86.1660156 589.285156,84.6777344 C591.605469,83.1894531 593.591797,81.4082031 595.244141,79.3339844 C596.896484,77.2597656 598.173828,74.9160156 599.076172,72.3027344 C599.978516,69.6894531 600.429688,66.8710938 600.429688,63.8476562 C600.429688,61.5039062 600.119141,59.265625 599.498047,57.1328125 C598.876953,55 597.992188,53.0253906 596.84375,51.2089844 C595.695312,49.3925781 594.306641,47.7519531 592.677734,46.2871094 C591.048828,44.8222656 589.238281,43.5742188 587.246094,42.5429688 C585.253906,41.5117188 583.091797,40.7207031 580.759766,40.1699219 C578.427734,39.6191406 575.984375,39.34375 573.429688,39.34375 C569.585938,39.34375 566.023438,39.9296875 562.742188,41.1015625 C559.460938,42.2734375 556.613281,43.9316406 554.199219,46.0761719 C551.785156,48.2207031 549.898438,50.7988281 548.539062,53.8105469 C547.179688,56.8222656 546.5,60.1679688 546.5,63.8476562 C546.5,66.7304688 546.939453,69.4492188 547.818359,72.0039062 C548.697266,74.5585938 549.939453,76.8730469 551.544922,78.9472656 C553.150391,81.0214844 555.066406,82.8085938 557.292969,84.3085938 C559.519531,85.8085938 561.980469,86.9570312 564.675781,87.7539062 C565.566406,88.7851562 566.697266,89.8632812 568.068359,90.9882812 C569.439453,92.1132812 571.009766,93.2148438 572.779297,94.2929688 C574.548828,95.3710938 576.488281,96.3964844 578.597656,97.3691406 C580.707031,98.3417969 582.927734,99.1972656 585.259766,99.9355469 C587.591797,100.673828 590.017578,101.259766 592.537109,101.693359 C595.056641,102.126953 597.605469,102.34375 600.183594,102.34375 L600.183594,102.34375 Z M573.289062,85.046875 C570.96875,85.0234375 568.929688,84.4726562 567.171875,83.3945312 C565.414062,82.3164062 563.943359,80.8398438 562.759766,78.9648438 C561.576172,77.0898438 560.685547,74.8632812 560.087891,72.2851562 C559.490234,69.7070312 559.191406,66.8945312 559.191406,63.8476562 C559.191406,60.8242188 559.496094,58.0585938 560.105469,55.5507812 C560.714844,53.0429688 561.623047,50.8867188 562.830078,49.0820312 C564.037109,47.2773438 565.525391,45.8710938 567.294922,44.8632812 C569.064453,43.8554688 571.109375,43.3515625 573.429688,43.3515625 C575.726562,43.3515625 577.765625,43.8554688 579.546875,44.8632812 C581.328125,45.8710938 582.822266,47.2773438 584.029297,49.0820312 C585.236328,50.8867188 586.15625,53.0429688 586.789062,55.5507812 C587.421875,58.0585938 587.738281,60.8242188 587.738281,63.8476562 C587.738281,66.9179688 587.416016,69.6953125 586.771484,72.1796875 C586.126953,74.6640625 585.189453,76.8203125 583.958984,78.6484375 C582.728516,80.4765625 581.216797,81.9355469 579.423828,83.0253906 C577.630859,84.1152344 575.585938,84.7890625 573.289062,85.046875 Z M647.046875,88 L647.046875,83.1132812 L622.71875,83.1132812 L622.71875,40.328125 L611.011719,40.328125 L611.011719,88 L647.046875,88 Z" id="DuskbladeSQL" fill="#000000" fill-rule="nonzero"></path>
            <path d="M134.679688,27.3427734 C135.722656,27.3427734 136.601562,27.1230469 137.316406,26.6835938 C137.732422,26.4316406 138.201172,25.9980469 138.722656,25.3828125 L138.722656,25.3828125 L138.995117,27 L140.788086,27 L140.788086,20.0478516 L135.391602,20.0478516 L135.391602,22.2099609 L138.388672,22.2099609 C138.253906,23.0595703 137.896484,23.746582 137.316406,24.2709961 C136.736328,24.7954102 135.992188,25.0576172 135.083984,25.0576172 C134.158203,25.0576172 133.332031,24.7265625 132.605469,24.0644531 C131.878906,23.4023438 131.515625,22.2744141 131.515625,20.6806641 C131.515625,19.0986328 131.851074,17.9135742 132.521973,17.1254883 C133.192871,16.3374023 134.049805,15.9433594 135.092773,15.9433594 C135.637695,15.9433594 136.132812,16.0400391 136.578125,16.2333984 C137.375,16.5849609 137.875977,17.203125 138.081055,18.0878906 L138.081055,18.0878906 L140.744141,18.0878906 C140.597656,16.8398438 140.024902,15.7983398 139.025879,14.9633789 C138.026855,14.128418 136.704102,13.7109375 135.057617,13.7109375 C133.15918,13.7109375 131.632812,14.34375 130.478516,15.609375 C129.324219,16.875 128.74707,18.5566406 128.74707,20.6542969 C128.74707,22.7285156 129.318359,24.3632812 130.460938,25.5585938 C131.556641,26.7480469 132.962891,27.3427734 134.679688,27.3427734 Z M146.37793,27.2109375 C146.870117,27.2109375 147.299316,27.1464844 147.665527,27.0175781 C148.031738,26.8886719 148.411133,26.6484375 148.803711,26.296875 C148.932617,26.1855469 149.043945,26.0566406 149.137695,25.9101562 C149.231445,25.7636719 149.290039,25.6757812 149.313477,25.6464844 L149.313477,25.6464844 L149.313477,27 L151.748047,27 L151.748047,17.4199219 L149.208008,17.4199219 L149.208008,22.6318359 C149.208008,23.2470703 149.125977,23.7421875 148.961914,24.1171875 C148.645508,24.8085938 148.05957,25.1542969 147.204102,25.1542969 C146.536133,25.1542969 146.087891,24.9111328 145.859375,24.4248047 C145.730469,24.1494141 145.666016,23.7392578 145.666016,23.1943359 L145.666016,23.1943359 L145.666016,17.4199219 L143.099609,17.4199219 L143.099609,23.1943359 C143.099609,24.2900391 143.237305,25.1191406 143.512695,25.6816406 C144.004883,26.7011719 144.959961,27.2109375 146.37793,27.2109375 Z M156.740234,16.2773438 L156.740234,13.9658203 L154.200195,13.9658203 L154.200195,16.2773438 L156.740234,16.2773438 Z M156.740234,27 L156.740234,17.4199219 L154.200195,17.4199219 L154.200195,27 L156.740234,27 Z M161.679688,27 L161.679688,21.8144531 C161.679688,21.2226562 161.761719,20.7363281 161.925781,20.3554688 C162.242188,19.6347656 162.825195,19.2744141 163.674805,19.2744141 C164.366211,19.2744141 164.834961,19.5205078 165.081055,20.0126953 C165.21582,20.2822266 165.283203,20.6689453 165.283203,21.1728516 L165.283203,21.1728516 L165.283203,27 L167.849609,27 L167.849609,20.5488281 C167.849609,19.3476562 167.534668,18.487793 166.904785,17.9692383 C166.274902,17.4506836 165.464844,17.1914062 164.474609,17.1914062 C163.683594,17.1914062 163.030273,17.3847656 162.514648,17.7714844 C162.227539,17.9882812 161.922852,18.3427734 161.600586,18.8349609 L161.600586,18.8349609 L161.600586,17.4375 L159.183594,17.4375 L159.183594,27 L161.679688,27 Z M173.984375,27.3251953 C175.460938,27.3251953 176.552246,27.0249023 177.258301,26.4243164 C177.964355,25.8237305 178.317383,25.0488281 178.317383,24.0996094 C178.317383,23.3789062 178.071289,22.7783203 177.579102,22.2978516 C177.081055,21.8232422 176.333984,21.46875 175.337891,21.234375 C173.84375,20.90625 172.973633,20.6748047 172.727539,20.5400391 C172.481445,20.4111328 172.358398,20.203125 172.358398,19.9160156 C172.358398,19.6875 172.474121,19.4882812 172.705566,19.3183594 C172.937012,19.1484375 173.325195,19.0634766 173.870117,19.0634766 C174.532227,19.0634766 175.000977,19.2333984 175.276367,19.5732422 C175.422852,19.7607422 175.513672,20.015625 175.548828,20.3378906 L175.548828,20.3378906 L178.053711,20.3378906 C177.942383,19.1660156 177.510254,18.3413086 176.757324,17.8637695 C176.004395,17.3862305 175.030273,17.1474609 173.834961,17.1474609 C172.575195,17.1474609 171.598145,17.465332 170.903809,18.1010742 C170.209473,18.7368164 169.862305,19.4970703 169.862305,20.3818359 C169.862305,21.1318359 170.084961,21.7060547 170.530273,22.1044922 C170.975586,22.5087891 171.740234,22.8457031 172.824219,23.1152344 C174.330078,23.4726562 175.200195,23.7246094 175.43457,23.8710938 C175.668945,24.0175781 175.786133,24.2314453 175.786133,24.5126953 C175.786133,24.8056641 175.641113,25.0253906 175.351074,25.171875 C175.061035,25.3183594 174.669922,25.3916016 174.177734,25.3916016 C173.339844,25.3916016 172.765625,25.2246094 172.455078,24.890625 C172.279297,24.703125 172.165039,24.3867188 172.112305,23.9414062 L172.112305,23.9414062 L169.572266,23.9414062 C169.572266,24.9257812 169.931152,25.7358398 170.648926,26.371582 C171.366699,27.0073242 172.478516,27.3251953 173.984375,27.3251953 Z M184.478516,27.3339844 C186.125,27.3339844 187.352539,26.8344727 188.161133,25.8354492 C188.969727,24.8364258 189.374023,23.6337891 189.374023,22.2275391 C189.374023,20.8447266 188.969727,19.6464844 188.161133,18.6328125 C187.352539,17.6191406 186.125,17.1123047 184.478516,17.1123047 C182.832031,17.1123047 181.604492,17.6191406 180.795898,18.6328125 C179.987305,19.6464844 179.583008,20.8447266 179.583008,22.2275391 C179.583008,23.6337891 179.987305,24.8364258 180.795898,25.8354492 C181.604492,26.8344727 182.832031,27.3339844 184.478516,27.3339844 Z M184.469727,25.2333984 C183.737305,25.2333984 183.17334,24.9726562 182.777832,24.4511719 C182.382324,23.9296875 182.18457,23.1884766 182.18457,22.2275391 C182.18457,21.2666016 182.382324,20.5268555 182.777832,20.0083008 C183.17334,19.4897461 183.737305,19.2304688 184.469727,19.2304688 C185.202148,19.2304688 185.764648,19.4897461 186.157227,20.0083008 C186.549805,20.5268555 186.746094,21.2666016 186.746094,22.2275391 C186.746094,23.1884766 186.549805,23.9296875 186.157227,24.4511719 C185.764648,24.9726562 185.202148,25.2333984 184.469727,25.2333984 Z M195.473633,27.3339844 C197.120117,27.3339844 198.347656,26.8344727 199.15625,25.8354492 C199.964844,24.8364258 200.369141,23.6337891 200.369141,22.2275391 C200.369141,20.8447266 199.964844,19.6464844 199.15625,18.6328125 C198.347656,17.6191406 197.120117,17.1123047 195.473633,17.1123047 C193.827148,17.1123047 192.599609,17.6191406 191.791016,18.6328125 C190.982422,19.6464844 190.578125,20.8447266 190.578125,22.2275391 C190.578125,23.6337891 190.982422,24.8364258 191.791016,25.8354492 C192.599609,26.8344727 193.827148,27.3339844 195.473633,27.3339844 Z M195.464844,25.2333984 C194.732422,25.2333984 194.168457,24.9726562 193.772949,24.4511719 C193.377441,23.9296875 193.179688,23.1884766 193.179688,22.2275391 C193.179688,21.2666016 193.377441,20.5268555 193.772949,20.0083008 C194.168457,19.4897461 194.732422,19.2304688 195.464844,19.2304688 C196.197266,19.2304688 196.759766,19.4897461 197.152344,20.0083008 C197.544922,20.5268555 197.741211,21.2666016 197.741211,22.2275391 C197.741211,23.1884766 197.544922,23.9296875 197.152344,24.4511719 C196.759766,24.9726562 196.197266,25.2333984 195.464844,25.2333984 Z M211.487305,27 L211.487305,24.6708984 L205.071289,24.6708984 L205.071289,14.0449219 L202.364258,14.0449219 L202.364258,27 L211.487305,27 Z M215.503906,27.2988281 C216.183594,27.2988281 216.792969,27.1435547 217.332031,26.8330078 C217.783203,26.5693359 218.181641,26.25 218.527344,25.875 C218.544922,26.0917969 218.568359,26.2851562 218.597656,26.4550781 C218.626953,26.625 218.679688,26.8066406 218.755859,27 L218.755859,27 L221.480469,27 L221.480469,26.6308594 C221.316406,26.5546875 221.193359,26.4580078 221.111328,26.3408203 C221.029297,26.2236328 220.979492,26.0009766 220.961914,25.6728516 C220.950195,25.2392578 220.944336,24.8701172 220.944336,24.5654297 L220.944336,24.5654297 L220.944336,20.1708984 C220.944336,19.0166016 220.537109,18.2314453 219.722656,17.8154297 C218.908203,17.3994141 217.976562,17.1914062 216.927734,17.1914062 C215.316406,17.1914062 214.179688,17.6132812 213.517578,18.4570312 C213.101562,18.9960938 212.867188,19.6845703 212.814453,20.5224609 L212.814453,20.5224609 L215.231445,20.5224609 C215.290039,20.1533203 215.407227,19.8603516 215.583008,19.6435547 C215.829102,19.3505859 216.248047,19.2041016 216.839844,19.2041016 C217.367188,19.2041016 217.76709,19.2788086 218.039551,19.4282227 C218.312012,19.5776367 218.448242,19.8486328 218.448242,20.2412109 C218.448242,20.5634766 218.269531,20.8007812 217.912109,20.953125 C217.712891,21.0410156 217.381836,21.1142578 216.918945,21.1728516 L216.918945,21.1728516 L216.066406,21.2783203 C215.099609,21.4013672 214.367188,21.6064453 213.869141,21.8935547 C212.960938,22.4208984 212.506836,23.2734375 212.506836,24.4511719 C212.506836,25.359375 212.789551,26.0610352 213.35498,26.5561523 C213.92041,27.0512695 214.636719,27.2988281 215.503906,27.2988281 Z M216.242188,25.4794922 C215.902344,25.4794922 215.61377,25.3842773 215.376465,25.1938477 C215.13916,25.003418 215.020508,24.6943359 215.020508,24.2666016 C215.020508,23.7861328 215.213867,23.4316406 215.600586,23.203125 C215.829102,23.0683594 216.207031,22.9541016 216.734375,22.8603516 L216.734375,22.8603516 L217.296875,22.7548828 C217.578125,22.7021484 217.799316,22.6450195 217.960449,22.5834961 C218.121582,22.5219727 218.28125,22.4414062 218.439453,22.3417969 L218.439453,22.3417969 L218.439453,23.2734375 C218.421875,24.1113281 218.186035,24.6884766 217.731934,25.0048828 C217.277832,25.3212891 216.78125,25.4794922 216.242188,25.4794922 Z M228.371094,27.2548828 C229.630859,27.2548828 230.612305,26.765625 231.31543,25.7871094 C232.018555,24.8085938 232.370117,23.5751953 232.370117,22.0869141 C232.370117,20.6513672 232.01416,19.4794922 231.302246,18.5712891 C230.590332,17.6630859 229.604492,17.2089844 228.344727,17.2089844 C227.647461,17.2089844 227.073242,17.3554688 226.62207,17.6484375 C226.241211,17.8828125 225.892578,18.2226562 225.576172,18.6679688 L225.576172,18.6679688 L225.576172,14.0625 L223.080078,14.0625 L223.080078,27 L225.532227,27 L225.532227,25.7958984 C225.866211,26.2646484 226.176758,26.5927734 226.463867,26.7802734 C226.944336,27.0966797 227.580078,27.2548828 228.371094,27.2548828 Z M227.703125,25.1894531 C226.958984,25.1894531 226.405273,24.9199219 226.041992,24.3808594 C225.678711,23.8417969 225.49707,23.1621094 225.49707,22.3417969 C225.49707,21.6445312 225.584961,21.0761719 225.760742,20.6367188 C226.100586,19.8105469 226.724609,19.3974609 227.632812,19.3974609 C228.529297,19.3974609 229.144531,19.8193359 229.478516,20.6630859 C229.654297,21.1083984 229.742188,21.6708984 229.742188,22.3505859 C229.742188,23.2001953 229.563477,23.8857422 229.206055,24.4072266 C228.848633,24.9287109 228.347656,25.1894531 227.703125,25.1894531 Z" id="GuinsooLab" fill="#000000" fill-rule="nonzero"></path>
        </g>
    </g>
</svg>