<?xml version="1.0" encoding="UTF-8"?>
<svg width="602px" height="602px" viewBox="0 0 602 602" version="1.1" xmlns="http://www.w3.org/2000/svg" xmlns:xlink="http://www.w3.org/1999/xlink">
    <title>GuinsooDB</title>
    <g id="GuinsooDB" stroke="none" stroke-width="1" fill="none" fill-rule="evenodd">
        <g id="Group" transform="translate(121.000000, 98.000000)" fill-rule="nonzero">
            <path d="M28.6530612,213 C10.2857143,219.931256 0,228.248764 0,236.566272 C0.71271685,243.077246 4.85628384,248.810634 11.0204082,251.815036 L17.6326531,255.97379 L25.7142857,259.439418 L41.1428571,264.984423 L46.2857143,266.370675 C89.9794894,276.775916 134.942608,281.670434 180,280.926313 C225.057392,281.670434 270.020511,276.775916 313.714286,266.370675 L318.857143,264.984423 L334.285714,259.439418 L342.367347,255.97379 L348.979592,251.815036 C355.143716,248.810634 359.287283,243.077246 360,236.566272 C360,228.248764 349.714286,219.931256 331.346939,213 C299.020408,224.783136 243.183673,233.100644 180,233.100644 C116.816327,233.100644 60.9795918,224.783136 28.6530612,213 Z" id="Path" fill="#C3D2FB"></path>
            <path d="M342.367347,246.355932 L334.285714,250.169492 L318.857143,256.271186 L313.714286,257.79661 C270.020511,269.246484 225.057392,274.632386 180,273.813559 C134.942608,274.632386 89.9794894,269.246484 46.2857143,257.79661 L41.1428571,256.271186 L25.7142857,250.169492 L17.6326531,246.355932 L11.0204082,241.779661 C4.85628384,238.473633 0.71271685,232.164642 0,225 L0,356.949153 C0,383.644068 80.8163265,405 180,405 C279.183673,405 360,383.644068 360,356.949153 L360,225 C359.287283,232.164642 355.143716,238.473633 348.979592,241.779661 L342.367347,246.355932 Z" id="Path" fill="#2864A6"></path>
            <path d="M11.0204082,64.7117761 L17.6326531,69.2796662 L25.7142857,73.0862412 L41.1428571,78.4154463 L52.8979592,82.2220214 C94.6058068,91.902965 137.26224,96.5020232 180,95.9256916 C194.95402,96.2049996 209.912078,95.6968011 224.816327,94.4030616 L241.714286,94.4030616 C261.55102,92.1191165 279.183673,89.0738565 294.612245,86.0285964 L307.102041,82.9833364 L318.857143,79.1767613 L334.285714,73.8475562 L342.367347,70.0409812 L348.979592,65.4730911 C355.143716,62.1731174 359.287283,55.8756815 360,48.7241608 C360,21.3168204 279.183673,0 180,0 C80.8163265,0 0,21.3168204 0,47.9628458 C0.71271685,55.1143664 4.85628384,61.4118024 11.0204082,64.7117761 L11.0204082,64.7117761 Z" id="Path" fill="#3D4265"></path>
            <path d="M360,170.949153 L360,39 C359.287283,46.1646422 355.143716,52.4736326 348.979592,55.779661 L342.367347,60.3559322 L334.285714,64.1694915 L318.857143,69.5084746 L307.102041,73.3220339 L294.612245,76.3728814 C279.183673,79.4237288 261.55102,82.4745763 241.714286,84.7627119 L224.816327,84.7627119 C209.912078,86.0588251 194.95402,86.567956 180,86.2881356 C137.26224,86.8655246 94.6058068,82.2580281 52.8979592,72.559322 L41.1428571,68.7457627 L25.7142857,64.1694915 L17.6326531,60.3559322 L11.0204082,55.779661 C4.85628384,52.4736326 0.71271685,46.1646422 0,39 L0,170.949153 C0,180.101695 10.2857143,189.254237 28.6530612,196.881356 C60.9795918,209.847458 116.816327,219 180,219 C243.183673,219 299.020408,209.847458 331.346939,196.881356 C349.714286,189.254237 360,180.101695 360,170.949153 L360,170.949153 Z" id="Path" fill="#5D99DB"></path>
        </g>
    </g>
</svg>