<?xml version="1.0" encoding="UTF-8"?>
<svg width="358px" height="104px" viewBox="0 0 358 104" version="1.1" xmlns="http://www.w3.org/2000/svg" xmlns:xlink="http://www.w3.org/1999/xlink">
    <title>guinsoolab-witdb</title>
    <g id="guinsoolab-platform" stroke="none" stroke-width="1" fill="none" fill-rule="evenodd">
        <g id="guinsoolab-witdb">
            <g id="Group" transform="translate(14.000000, 12.000000)">
                <polyline id="Path-3" fill="#41FC92" points="74.3801653 23.7184339 50.7196128 3.31062067e-14 2.20323518e-15 4.88749268e-14 2.12562106e-15 75 24.3173894 75 24.3173894 23.7184339 40.2183991 23.7184339 54.477381 37.9411001 58.075066 41.5296222 54.5900414 45.1384433 41.9373446 58.3148127 58.075066 75 74.3801653 58.0806562"></polyline>
                <polyline id="Path-4" points="75 23.75 58.2644628 41.4472163 75 58.125"></polyline>
            </g>
            <path d="M152.785156,86.703125 L162.382812,61.8476562 L172.15625,86.703125 L177.464844,86.703125 L196.203125,38.328125 L188.398438,38.328125 L176.585938,68.984375 L164.351562,37.8007812 L152.222656,69.125 L140.128906,38.328125 L128.351562,38.328125 L147.476562,86.703125 L152.785156,86.703125 Z M207.699219,42.7226562 C208.519531,42.7226562 209.287109,42.5820312 210.001953,42.3007812 C210.716797,42.0195312 211.337891,41.6445312 211.865234,41.1757812 C212.392578,40.7070312 212.808594,40.1503906 213.113281,39.5058594 C213.417969,38.8613281 213.570312,38.1757812 213.570312,37.4492188 C213.570312,36.7226562 213.417969,36.03125 213.113281,35.375 C212.808594,34.71875 212.392578,34.15625 211.865234,33.6875 C211.337891,33.21875 210.716797,32.84375 210.001953,32.5625 C209.287109,32.28125 208.519531,32.140625 207.699219,32.140625 C206.878906,32.140625 206.117188,32.28125 205.414062,32.5625 C204.710938,32.84375 204.089844,33.21875 203.550781,33.6875 C203.011719,34.15625 202.589844,34.71875 202.285156,35.375 C201.980469,36.03125 201.828125,36.7226562 201.828125,37.4492188 C201.828125,38.1757812 201.980469,38.8613281 202.285156,39.5058594 C202.589844,40.1503906 203.011719,40.7070312 203.550781,41.1757812 C204.089844,41.6445312 204.710938,42.0195312 205.414062,42.3007812 C206.117188,42.5820312 206.878906,42.7226562 207.699219,42.7226562 Z M213.21875,86 L213.21875,49.2617188 L209.949219,49.2617188 L202.285156,53.2695312 L202.285156,86 L213.21875,86 Z M234.804688,86.8085938 C236.398438,86.8085938 237.804688,86.6386719 239.023438,86.2988281 C240.242188,85.9589844 241.320312,85.4960938 242.257812,84.9101562 C243.195312,84.3242188 244.027344,83.6269531 244.753906,82.8183594 C245.480469,82.0097656 246.148438,81.1367188 246.757812,80.1992188 L246.757812,80.1992188 L243.03125,77.2460938 C242.890625,77.4335938 242.662109,77.703125 242.345703,78.0546875 C242.029297,78.40625 241.666016,78.7519531 241.255859,79.0917969 C240.845703,79.4316406 240.412109,79.7304688 239.955078,79.9882812 C239.498047,80.2460938 239.082031,80.375 238.707031,80.375 C238.097656,80.375 237.605469,80.1054688 237.230469,79.5664062 C236.855469,79.0273438 236.667969,78.3945312 236.667969,77.6679688 L236.667969,77.6679688 L236.667969,54.5 L245.492188,54.5 L245.492188,50 L236.667969,50 L236.667969,38.6796875 L233.398438,38.6796875 L225.769531,42.6875 L225.769531,50 L219.96875,51.9335938 L219.96875,54.5 L225.769531,54.5 L225.769531,77.984375 C225.769531,79.296875 225.957031,80.4921875 226.332031,81.5703125 C226.707031,82.6484375 227.269531,83.5742188 228.019531,84.3476562 C228.769531,85.1210938 229.707031,85.7246094 230.832031,86.1582031 C231.957031,86.5917969 233.28125,86.8085938 234.804688,86.8085938 Z M272.667969,86 C277.238281,86 281.292969,85.3671875 284.832031,84.1015625 C288.371094,82.8359375 291.353516,81.1015625 293.779297,78.8984375 C296.205078,76.6953125 298.050781,74.1230469 299.316406,71.1816406 C300.582031,68.2402344 301.214844,65.09375 301.214844,61.7421875 C301.214844,58.015625 300.470703,54.6992188 298.982422,51.7929688 C297.494141,48.8867188 295.402344,46.4375 292.707031,44.4453125 C290.011719,42.453125 286.800781,40.9355469 283.074219,39.8925781 C279.347656,38.8496094 275.257812,38.328125 270.804688,38.328125 L270.804688,38.328125 L253.507812,38.328125 L253.507812,86 L272.667969,86 Z M271.4375,81.1132812 L265.214844,81.1132812 L265.214844,43.1445312 L271.4375,43.1445312 C273.875,43.1445312 276.119141,43.6191406 278.169922,44.5683594 C280.220703,45.5175781 281.984375,46.8242188 283.460938,48.4882812 C284.9375,50.1523438 286.091797,52.1269531 286.923828,54.4121094 C287.755859,56.6972656 288.171875,59.1757812 288.171875,61.8476562 C288.171875,64.9414062 287.732422,67.6835938 286.853516,70.0742188 C285.974609,72.4648438 284.773438,74.4804688 283.25,76.1210938 C281.726562,77.7617188 279.951172,79.0039062 277.923828,79.8476562 C275.896484,80.6914062 273.734375,81.1132812 271.4375,81.1132812 L271.4375,81.1132812 Z M335.316406,86 C338.011719,86 340.466797,85.6542969 342.681641,84.9628906 C344.896484,84.2714844 346.794922,83.328125 348.376953,82.1328125 C349.958984,80.9375 351.177734,79.53125 352.033203,77.9140625 C352.888672,76.296875 353.316406,74.5507812 353.316406,72.6757812 C353.316406,71.3164062 353.076172,70.0332031 352.595703,68.8261719 C352.115234,67.6191406 351.447266,66.5175781 350.591797,65.5214844 C349.736328,64.5253906 348.722656,63.6582031 347.550781,62.9199219 C346.378906,62.1816406 345.089844,61.5898438 343.683594,61.1445312 C345.042969,60.3476562 346.185547,59.5625 347.111328,58.7890625 C348.037109,58.015625 348.78125,57.2070312 349.34375,56.3632812 C349.90625,55.5195312 350.310547,54.6171875 350.556641,53.65625 C350.802734,52.6953125 350.925781,51.6523438 350.925781,50.5273438 C350.925781,48.6992188 350.46875,47.0351562 349.554688,45.5351562 C348.640625,44.0351562 347.363281,42.7519531 345.722656,41.6855469 C344.082031,40.6191406 342.119141,39.7929688 339.833984,39.2070312 C337.548828,38.6210938 335.035156,38.328125 332.292969,38.328125 L332.292969,38.328125 L311.832031,38.328125 L311.832031,86 L335.316406,86 Z M331.238281,59 L323.539062,59 L323.539062,42.7929688 L327.898438,42.7929688 C329.820312,42.7929688 331.484375,42.9980469 332.890625,43.4082031 C334.296875,43.8183594 335.457031,44.3925781 336.371094,45.1308594 C337.285156,45.8691406 337.964844,46.7539062 338.410156,47.7851562 C338.855469,48.8164062 339.078125,49.953125 339.078125,51.1953125 C339.078125,52.3203125 338.902344,53.3632812 338.550781,54.3242188 C338.199219,55.2851562 337.689453,56.1113281 337.021484,56.8027344 C336.353516,57.4941406 335.533203,58.0332031 334.560547,58.4199219 C333.587891,58.8066406 332.480469,59 331.238281,59 L331.238281,59 Z M330.007812,81.1132812 L323.539062,81.1132812 L323.539062,63.640625 L329.550781,63.640625 C331.660156,63.640625 333.447266,63.875 334.912109,64.34375 C336.376953,64.8125 337.560547,65.46875 338.462891,66.3125 C339.365234,67.15625 340.015625,68.1464844 340.414062,69.2832031 C340.8125,70.4199219 341.011719,71.65625 341.011719,72.9921875 C341.011719,74.1640625 340.794922,75.2480469 340.361328,76.2441406 C339.927734,77.2402344 339.259766,78.0957031 338.357422,78.8105469 C337.455078,79.5253906 336.3125,80.0878906 334.929688,80.4980469 C333.546875,80.9082031 331.90625,81.1132812 330.007812,81.1132812 L330.007812,81.1132812 Z" id="WitDB" fill="#000000" fill-rule="nonzero"></path>
            <path d="M134.679688,25.3427734 C135.722656,25.3427734 136.601562,25.1230469 137.316406,24.6835938 C137.732422,24.4316406 138.201172,23.9980469 138.722656,23.3828125 L138.722656,23.3828125 L138.995117,25 L140.788086,25 L140.788086,18.0478516 L135.391602,18.0478516 L135.391602,20.2099609 L138.388672,20.2099609 C138.253906,21.0595703 137.896484,21.746582 137.316406,22.2709961 C136.736328,22.7954102 135.992188,23.0576172 135.083984,23.0576172 C134.158203,23.0576172 133.332031,22.7265625 132.605469,22.0644531 C131.878906,21.4023438 131.515625,20.2744141 131.515625,18.6806641 C131.515625,17.0986328 131.851074,15.9135742 132.521973,15.1254883 C133.192871,14.3374023 134.049805,13.9433594 135.092773,13.9433594 C135.637695,13.9433594 136.132812,14.0400391 136.578125,14.2333984 C137.375,14.5849609 137.875977,15.203125 138.081055,16.0878906 L138.081055,16.0878906 L140.744141,16.0878906 C140.597656,14.8398438 140.024902,13.7983398 139.025879,12.9633789 C138.026855,12.128418 136.704102,11.7109375 135.057617,11.7109375 C133.15918,11.7109375 131.632812,12.34375 130.478516,13.609375 C129.324219,14.875 128.74707,16.5566406 128.74707,18.6542969 C128.74707,20.7285156 129.318359,22.3632812 130.460938,23.5585938 C131.556641,24.7480469 132.962891,25.3427734 134.679688,25.3427734 Z M146.37793,25.2109375 C146.870117,25.2109375 147.299316,25.1464844 147.665527,25.0175781 C148.031738,24.8886719 148.411133,24.6484375 148.803711,24.296875 C148.932617,24.1855469 149.043945,24.0566406 149.137695,23.9101562 C149.231445,23.7636719 149.290039,23.6757812 149.313477,23.6464844 L149.313477,23.6464844 L149.313477,25 L151.748047,25 L151.748047,15.4199219 L149.208008,15.4199219 L149.208008,20.6318359 C149.208008,21.2470703 149.125977,21.7421875 148.961914,22.1171875 C148.645508,22.8085938 148.05957,23.1542969 147.204102,23.1542969 C146.536133,23.1542969 146.087891,22.9111328 145.859375,22.4248047 C145.730469,22.1494141 145.666016,21.7392578 145.666016,21.1943359 L145.666016,21.1943359 L145.666016,15.4199219 L143.099609,15.4199219 L143.099609,21.1943359 C143.099609,22.2900391 143.237305,23.1191406 143.512695,23.6816406 C144.004883,24.7011719 144.959961,25.2109375 146.37793,25.2109375 Z M156.740234,14.2773438 L156.740234,11.9658203 L154.200195,11.9658203 L154.200195,14.2773438 L156.740234,14.2773438 Z M156.740234,25 L156.740234,15.4199219 L154.200195,15.4199219 L154.200195,25 L156.740234,25 Z M161.679688,25 L161.679688,19.8144531 C161.679688,19.2226562 161.761719,18.7363281 161.925781,18.3554688 C162.242188,17.6347656 162.825195,17.2744141 163.674805,17.2744141 C164.366211,17.2744141 164.834961,17.5205078 165.081055,18.0126953 C165.21582,18.2822266 165.283203,18.6689453 165.283203,19.1728516 L165.283203,19.1728516 L165.283203,25 L167.849609,25 L167.849609,18.5488281 C167.849609,17.3476562 167.534668,16.487793 166.904785,15.9692383 C166.274902,15.4506836 165.464844,15.1914062 164.474609,15.1914062 C163.683594,15.1914062 163.030273,15.3847656 162.514648,15.7714844 C162.227539,15.9882812 161.922852,16.3427734 161.600586,16.8349609 L161.600586,16.8349609 L161.600586,15.4375 L159.183594,15.4375 L159.183594,25 L161.679688,25 Z M173.984375,25.3251953 C175.460938,25.3251953 176.552246,25.0249023 177.258301,24.4243164 C177.964355,23.8237305 178.317383,23.0488281 178.317383,22.0996094 C178.317383,21.3789062 178.071289,20.7783203 177.579102,20.2978516 C177.081055,19.8232422 176.333984,19.46875 175.337891,19.234375 C173.84375,18.90625 172.973633,18.6748047 172.727539,18.5400391 C172.481445,18.4111328 172.358398,18.203125 172.358398,17.9160156 C172.358398,17.6875 172.474121,17.4882812 172.705566,17.3183594 C172.937012,17.1484375 173.325195,17.0634766 173.870117,17.0634766 C174.532227,17.0634766 175.000977,17.2333984 175.276367,17.5732422 C175.422852,17.7607422 175.513672,18.015625 175.548828,18.3378906 L175.548828,18.3378906 L178.053711,18.3378906 C177.942383,17.1660156 177.510254,16.3413086 176.757324,15.8637695 C176.004395,15.3862305 175.030273,15.1474609 173.834961,15.1474609 C172.575195,15.1474609 171.598145,15.465332 170.903809,16.1010742 C170.209473,16.7368164 169.862305,17.4970703 169.862305,18.3818359 C169.862305,19.1318359 170.084961,19.7060547 170.530273,20.1044922 C170.975586,20.5087891 171.740234,20.8457031 172.824219,21.1152344 C174.330078,21.4726562 175.200195,21.7246094 175.43457,21.8710938 C175.668945,22.0175781 175.786133,22.2314453 175.786133,22.5126953 C175.786133,22.8056641 175.641113,23.0253906 175.351074,23.171875 C175.061035,23.3183594 174.669922,23.3916016 174.177734,23.3916016 C173.339844,23.3916016 172.765625,23.2246094 172.455078,22.890625 C172.279297,22.703125 172.165039,22.3867188 172.112305,21.9414062 L172.112305,21.9414062 L169.572266,21.9414062 C169.572266,22.9257812 169.931152,23.7358398 170.648926,24.371582 C171.366699,25.0073242 172.478516,25.3251953 173.984375,25.3251953 Z M184.478516,25.3339844 C186.125,25.3339844 187.352539,24.8344727 188.161133,23.8354492 C188.969727,22.8364258 189.374023,21.6337891 189.374023,20.2275391 C189.374023,18.8447266 188.969727,17.6464844 188.161133,16.6328125 C187.352539,15.6191406 186.125,15.1123047 184.478516,15.1123047 C182.832031,15.1123047 181.604492,15.6191406 180.795898,16.6328125 C179.987305,17.6464844 179.583008,18.8447266 179.583008,20.2275391 C179.583008,21.6337891 179.987305,22.8364258 180.795898,23.8354492 C181.604492,24.8344727 182.832031,25.3339844 184.478516,25.3339844 Z M184.469727,23.2333984 C183.737305,23.2333984 183.17334,22.9726562 182.777832,22.4511719 C182.382324,21.9296875 182.18457,21.1884766 182.18457,20.2275391 C182.18457,19.2666016 182.382324,18.5268555 182.777832,18.0083008 C183.17334,17.4897461 183.737305,17.2304688 184.469727,17.2304688 C185.202148,17.2304688 185.764648,17.4897461 186.157227,18.0083008 C186.549805,18.5268555 186.746094,19.2666016 186.746094,20.2275391 C186.746094,21.1884766 186.549805,21.9296875 186.157227,22.4511719 C185.764648,22.9726562 185.202148,23.2333984 184.469727,23.2333984 Z M195.473633,25.3339844 C197.120117,25.3339844 198.347656,24.8344727 199.15625,23.8354492 C199.964844,22.8364258 200.369141,21.6337891 200.369141,20.2275391 C200.369141,18.8447266 199.964844,17.6464844 199.15625,16.6328125 C198.347656,15.6191406 197.120117,15.1123047 195.473633,15.1123047 C193.827148,15.1123047 192.599609,15.6191406 191.791016,16.6328125 C190.982422,17.6464844 190.578125,18.8447266 190.578125,20.2275391 C190.578125,21.6337891 190.982422,22.8364258 191.791016,23.8354492 C192.599609,24.8344727 193.827148,25.3339844 195.473633,25.3339844 Z M195.464844,23.2333984 C194.732422,23.2333984 194.168457,22.9726562 193.772949,22.4511719 C193.377441,21.9296875 193.179688,21.1884766 193.179688,20.2275391 C193.179688,19.2666016 193.377441,18.5268555 193.772949,18.0083008 C194.168457,17.4897461 194.732422,17.2304688 195.464844,17.2304688 C196.197266,17.2304688 196.759766,17.4897461 197.152344,18.0083008 C197.544922,18.5268555 197.741211,19.2666016 197.741211,20.2275391 C197.741211,21.1884766 197.544922,21.9296875 197.152344,22.4511719 C196.759766,22.9726562 196.197266,23.2333984 195.464844,23.2333984 Z M211.487305,25 L211.487305,22.6708984 L205.071289,22.6708984 L205.071289,12.0449219 L202.364258,12.0449219 L202.364258,25 L211.487305,25 Z M215.503906,25.2988281 C216.183594,25.2988281 216.792969,25.1435547 217.332031,24.8330078 C217.783203,24.5693359 218.181641,24.25 218.527344,23.875 C218.544922,24.0917969 218.568359,24.2851562 218.597656,24.4550781 C218.626953,24.625 218.679688,24.8066406 218.755859,25 L218.755859,25 L221.480469,25 L221.480469,24.6308594 C221.316406,24.5546875 221.193359,24.4580078 221.111328,24.3408203 C221.029297,24.2236328 220.979492,24.0009766 220.961914,23.6728516 C220.950195,23.2392578 220.944336,22.8701172 220.944336,22.5654297 L220.944336,22.5654297 L220.944336,18.1708984 C220.944336,17.0166016 220.537109,16.2314453 219.722656,15.8154297 C218.908203,15.3994141 217.976562,15.1914062 216.927734,15.1914062 C215.316406,15.1914062 214.179688,15.6132812 213.517578,16.4570312 C213.101562,16.9960938 212.867188,17.6845703 212.814453,18.5224609 L212.814453,18.5224609 L215.231445,18.5224609 C215.290039,18.1533203 215.407227,17.8603516 215.583008,17.6435547 C215.829102,17.3505859 216.248047,17.2041016 216.839844,17.2041016 C217.367188,17.2041016 217.76709,17.2788086 218.039551,17.4282227 C218.312012,17.5776367 218.448242,17.8486328 218.448242,18.2412109 C218.448242,18.5634766 218.269531,18.8007812 217.912109,18.953125 C217.712891,19.0410156 217.381836,19.1142578 216.918945,19.1728516 L216.918945,19.1728516 L216.066406,19.2783203 C215.099609,19.4013672 214.367188,19.6064453 213.869141,19.8935547 C212.960938,20.4208984 212.506836,21.2734375 212.506836,22.4511719 C212.506836,23.359375 212.789551,24.0610352 213.35498,24.5561523 C213.92041,25.0512695 214.636719,25.2988281 215.503906,25.2988281 Z M216.242188,23.4794922 C215.902344,23.4794922 215.61377,23.3842773 215.376465,23.1938477 C215.13916,23.003418 215.020508,22.6943359 215.020508,22.2666016 C215.020508,21.7861328 215.213867,21.4316406 215.600586,21.203125 C215.829102,21.0683594 216.207031,20.9541016 216.734375,20.8603516 L216.734375,20.8603516 L217.296875,20.7548828 C217.578125,20.7021484 217.799316,20.6450195 217.960449,20.5834961 C218.121582,20.5219727 218.28125,20.4414062 218.439453,20.3417969 L218.439453,20.3417969 L218.439453,21.2734375 C218.421875,22.1113281 218.186035,22.6884766 217.731934,23.0048828 C217.277832,23.3212891 216.78125,23.4794922 216.242188,23.4794922 Z M228.371094,25.2548828 C229.630859,25.2548828 230.612305,24.765625 231.31543,23.7871094 C232.018555,22.8085938 232.370117,21.5751953 232.370117,20.0869141 C232.370117,18.6513672 232.01416,17.4794922 231.302246,16.5712891 C230.590332,15.6630859 229.604492,15.2089844 228.344727,15.2089844 C227.647461,15.2089844 227.073242,15.3554688 226.62207,15.6484375 C226.241211,15.8828125 225.892578,16.2226562 225.576172,16.6679688 L225.576172,16.6679688 L225.576172,12.0625 L223.080078,12.0625 L223.080078,25 L225.532227,25 L225.532227,23.7958984 C225.866211,24.2646484 226.176758,24.5927734 226.463867,24.7802734 C226.944336,25.0966797 227.580078,25.2548828 228.371094,25.2548828 Z M227.703125,23.1894531 C226.958984,23.1894531 226.405273,22.9199219 226.041992,22.3808594 C225.678711,21.8417969 225.49707,21.1621094 225.49707,20.3417969 C225.49707,19.6445312 225.584961,19.0761719 225.760742,18.6367188 C226.100586,17.8105469 226.724609,17.3974609 227.632812,17.3974609 C228.529297,17.3974609 229.144531,17.8193359 229.478516,18.6630859 C229.654297,19.1083984 229.742188,19.6708984 229.742188,20.3505859 C229.742188,21.2001953 229.563477,21.8857422 229.206055,22.4072266 C228.848633,22.9287109 228.347656,23.1894531 227.703125,23.1894531 Z" id="GuinsooLab" fill="#000000" fill-rule="nonzero"></path>
        </g>
    </g>
</svg>