<?xml version="1.0" encoding="UTF-8"?>
<svg width="501px" height="104px" viewBox="0 0 501 104" version="1.1" xmlns="http://www.w3.org/2000/svg" xmlns:xlink="http://www.w3.org/1999/xlink">
    <title>guinsoolab-annastore</title>
    <g id="guinsoolab-platform" stroke="none" stroke-width="1" fill="none" fill-rule="evenodd">
        <g id="guinsoolab-annastore">
            <g id="Group" transform="translate(21.000000, 11.000000)">
                <path d="M0.630434783,0 L19.3109846,0 L19.3109846,2.47251763 L19.5434783,4.64641039 L20.2533399,6.44703181 L21.2487242,8.271716 L22.4487755,9.92251265 L23.7858724,11.7662654 L25.1373952,13.4724519 L27.0132079,15.0229113 L29.4304412,16.6242204 L32.0960697,17.9953441 L35.3022172,18.871592 L38.4565217,18.871592 L38.4565217,38.5 C32.1286532,37.818051 27.6889444,37.0286712 25.1373952,36.1318605 C18.3457946,33.7447694 13.4839039,29.6774004 10.6078489,26.7501053 C7.94065424,24.0353917 4.78511961,19.9992996 2.94185647,14.2311101 C2.09890278,11.5932248 1.32842888,6.84952143 0.630434783,0 Z" id="Path-8" fill="#2B8DFF"></path>
                <polygon id="Path-9" fill="#33C89B" points="38.4565217 0 58 0 58 18.3032787 38.4565217 18.3032787"></polygon>
                <polygon id="Path-10" fill="#33C89B" points="0 38.5 0 77 58 77 58 38.5 38.4622765 38.5 38.4622765 57.75 19.5748009 57.75 19.5748009 38.5"></polygon>
            </g>
            <path d="M136.4375,86 L142.695312,72.9921875 L161.222656,72.9921875 L167.199219,86 L179.152344,86 L156.792969,37.34375 L151.730469,37.34375 L128.492188,86 L136.4375,86 Z M159.253906,68.5625 L144.910156,68.5625 L152.1875,53.1640625 L159.253906,68.5625 Z M196.097656,86 L196.097656,59.703125 C196.730469,59.09375 197.398438,58.5429688 198.101562,58.0507812 C198.804688,57.5585938 199.490234,57.1425781 200.158203,56.8027344 C200.826172,56.4628906 201.464844,56.1992188 202.074219,56.0117188 C202.683594,55.8242188 203.222656,55.7304688 203.691406,55.7304688 C204.160156,55.7304688 204.611328,55.8535156 205.044922,56.0996094 C205.478516,56.3457031 205.865234,56.7089844 206.205078,57.1894531 C206.544922,57.6699219 206.814453,58.2675781 207.013672,58.9824219 C207.212891,59.6972656 207.3125,60.5117188 207.3125,61.4257812 L207.3125,61.4257812 L207.3125,86 L218.175781,86 L218.175781,60.265625 C218.175781,58.765625 217.882812,57.3535156 217.296875,56.0292969 C216.710938,54.7050781 215.919922,53.5507812 214.923828,52.5664062 C213.927734,51.5820312 212.767578,50.8027344 211.443359,50.2285156 C210.119141,49.6542969 208.71875,49.3671875 207.242188,49.3671875 C205.34375,49.3671875 203.433594,49.6542969 201.511719,50.2285156 C199.589844,50.8027344 197.785156,51.6992188 196.097656,52.9179688 L196.097656,52.9179688 L196.097656,49.2617188 L192.828125,49.2617188 L185.128906,53.2695312 L185.128906,86 L196.097656,86 Z M239.585938,86 L239.585938,59.703125 C240.21875,59.09375 240.886719,58.5429688 241.589844,58.0507812 C242.292969,57.5585938 242.978516,57.1425781 243.646484,56.8027344 C244.314453,56.4628906 244.953125,56.1992188 245.5625,56.0117188 C246.171875,55.8242188 246.710938,55.7304688 247.179688,55.7304688 C247.648438,55.7304688 248.099609,55.8535156 248.533203,56.0996094 C248.966797,56.3457031 249.353516,56.7089844 249.693359,57.1894531 C250.033203,57.6699219 250.302734,58.2675781 250.501953,58.9824219 C250.701172,59.6972656 250.800781,60.5117188 250.800781,61.4257812 L250.800781,61.4257812 L250.800781,86 L261.664062,86 L261.664062,60.265625 C261.664062,58.765625 261.371094,57.3535156 260.785156,56.0292969 C260.199219,54.7050781 259.408203,53.5507812 258.412109,52.5664062 C257.416016,51.5820312 256.255859,50.8027344 254.931641,50.2285156 C253.607422,49.6542969 252.207031,49.3671875 250.730469,49.3671875 C248.832031,49.3671875 246.921875,49.6542969 245,50.2285156 C243.078125,50.8027344 241.273438,51.6992188 239.585938,52.9179688 L239.585938,52.9179688 L239.585938,49.2617188 L236.316406,49.2617188 L228.617188,53.2695312 L228.617188,86 L239.585938,86 Z M279.488281,86.6679688 C280.707031,86.6679688 281.75,86.5683594 282.617188,86.3691406 C283.484375,86.1699219 284.269531,85.8945312 284.972656,85.5429688 C285.675781,85.1914062 286.320312,84.7636719 286.90625,84.2597656 C287.492188,83.7558594 288.113281,83.1992188 288.769531,82.5898438 C288.863281,82.9648438 289.015625,83.3515625 289.226562,83.75 C289.4375,84.1484375 289.683594,84.5175781 289.964844,84.8574219 C290.246094,85.1972656 290.5625,85.4726562 290.914062,85.6835938 C291.265625,85.8945312 291.628906,86 292.003906,86 L292.003906,86 L304.941406,86 C303.277344,85.3203125 301.988281,84.4648438 301.074219,83.4335938 C300.160156,82.4023438 299.703125,81.1484375 299.703125,79.671875 L299.703125,79.671875 L299.703125,59.0703125 C299.703125,57.5703125 299.416016,56.2167969 298.841797,55.0097656 C298.267578,53.8027344 297.376953,52.7714844 296.169922,51.9160156 C294.962891,51.0605469 293.421875,50.3984375 291.546875,49.9296875 C289.671875,49.4609375 287.445312,49.2265625 284.867188,49.2265625 C282.78125,49.2265625 280.841797,49.4609375 279.048828,49.9296875 C277.255859,50.3984375 275.662109,51.0605469 274.267578,51.9160156 C272.873047,52.7714844 271.707031,53.8144531 270.769531,55.0449219 C269.832031,56.2753906 269.175781,57.640625 268.800781,59.140625 L268.800781,59.140625 L277.976562,59.140625 C278.117188,58.34375 278.339844,57.5820312 278.644531,56.8554688 C278.949219,56.1289062 279.347656,55.484375 279.839844,54.921875 C280.332031,54.359375 280.917969,53.9140625 281.597656,53.5859375 C282.277344,53.2578125 283.050781,53.09375 283.917969,53.09375 C284.644531,53.09375 285.306641,53.2050781 285.904297,53.4277344 C286.501953,53.6503906 287.011719,54.0136719 287.433594,54.5175781 C287.855469,55.0214844 288.183594,55.6777344 288.417969,56.4863281 C288.652344,57.2949219 288.769531,58.2734375 288.769531,59.421875 L288.769531,59.421875 L288.769531,62.9375 C286.285156,63.6875 283.847656,64.4726562 281.457031,65.2929688 C279.066406,66.1132812 276.927734,67.0742188 275.041016,68.1757812 C273.154297,69.2773438 271.636719,70.5664062 270.488281,72.0429688 C269.339844,73.5195312 268.765625,75.2890625 268.765625,77.3515625 C268.765625,78.6875 269.011719,79.9238281 269.503906,81.0605469 C269.996094,82.1972656 270.705078,83.1816406 271.630859,84.0136719 C272.556641,84.8457031 273.681641,85.4960938 275.005859,85.9648438 C276.330078,86.4335938 277.824219,86.6679688 279.488281,86.6679688 Z M283.179688,80.65625 C282.125,80.65625 281.287109,80.3164062 280.666016,79.6367188 C280.044922,78.9570312 279.734375,78.0195312 279.734375,76.8242188 C279.734375,75.7460938 280.009766,74.7324219 280.560547,73.7832031 C281.111328,72.8339844 281.814453,71.9667969 282.669922,71.1816406 C283.525391,70.3964844 284.492188,69.6875 285.570312,69.0546875 C286.648438,68.421875 287.714844,67.8828125 288.769531,67.4375 L288.769531,67.4375 L288.769531,77.8085938 C287.667969,78.6523438 286.683594,79.3378906 285.816406,79.8652344 C284.949219,80.3925781 284.070312,80.65625 283.179688,80.65625 Z M328.285156,86.703125 C331.332031,86.703125 334.021484,86.3515625 336.353516,85.6484375 C338.685547,84.9453125 340.636719,83.9785156 342.207031,82.7480469 C343.777344,81.5175781 344.960938,80.0703125 345.757812,78.40625 C346.554688,76.7421875 346.953125,74.9375 346.953125,72.9921875 C346.953125,71.3515625 346.578125,69.875 345.828125,68.5625 C345.078125,67.25 344.087891,66.0546875 342.857422,64.9765625 C341.626953,63.8984375 340.226562,62.9082031 338.65625,62.0058594 C337.085938,61.1035156 335.486328,60.2421875 333.857422,59.421875 C332.228516,58.6015625 330.628906,57.7871094 329.058594,56.9785156 C327.488281,56.1699219 326.087891,55.3203125 324.857422,54.4296875 C323.626953,53.5390625 322.636719,52.578125 321.886719,51.546875 C321.136719,50.515625 320.761719,49.3671875 320.761719,48.1015625 C320.761719,47.375 320.902344,46.6308594 321.183594,45.8691406 C321.464844,45.1074219 321.921875,44.4160156 322.554688,43.7949219 C323.1875,43.1738281 324.025391,42.6640625 325.068359,42.265625 C326.111328,41.8671875 327.394531,41.6679688 328.917969,41.6679688 C330.535156,41.6679688 331.929688,41.8964844 333.101562,42.3535156 C334.273438,42.8105469 335.269531,43.4257812 336.089844,44.1992188 C336.910156,44.9726562 337.601562,45.875 338.164062,46.90625 C338.726562,47.9375 339.21875,49.015625 339.640625,50.140625 L339.640625,50.140625 L346.988281,50.140625 C346.449219,48.359375 345.675781,46.6894531 344.667969,45.1308594 C343.660156,43.5722656 342.412109,42.2128906 340.923828,41.0527344 C339.435547,39.8925781 337.71875,38.984375 335.773438,38.328125 C333.828125,37.671875 331.660156,37.34375 329.269531,37.34375 C326.363281,37.34375 323.773438,37.6777344 321.5,38.3457031 C319.226562,39.0136719 317.304688,39.9394531 315.734375,41.1230469 C314.164062,42.3066406 312.962891,43.7011719 312.130859,45.3066406 C311.298828,46.9121094 310.882812,48.6640625 310.882812,50.5625 C310.882812,52.296875 311.246094,53.8378906 311.972656,55.1855469 C312.699219,56.5332031 313.660156,57.7402344 314.855469,58.8066406 C316.050781,59.8730469 317.410156,60.8398438 318.933594,61.7070312 C320.457031,62.5742188 322.015625,63.4003906 323.609375,64.1855469 C325.203125,64.9707031 326.761719,65.75 328.285156,66.5234375 C329.808594,67.296875 331.167969,68.1347656 332.363281,69.0371094 C333.558594,69.9394531 334.519531,70.9414062 335.246094,72.0429688 C335.972656,73.1445312 336.335938,74.3984375 336.335938,75.8046875 C336.335938,76.9296875 336.101562,77.8730469 335.632812,78.6347656 C335.164062,79.3964844 334.542969,80.0175781 333.769531,80.4980469 C332.996094,80.9785156 332.123047,81.3242188 331.150391,81.5351562 C330.177734,81.7460938 329.199219,81.8515625 328.214844,81.8515625 C326.714844,81.8515625 325.396484,81.6347656 324.259766,81.2011719 C323.123047,80.7675781 322.138672,80.1699219 321.306641,79.4082031 C320.474609,78.6464844 319.789062,77.75 319.25,76.71875 C318.710938,75.6875 318.300781,74.5742188 318.019531,73.3789062 L318.019531,73.3789062 L309.898438,73.3789062 C310.226562,75.3242188 310.835938,77.1113281 311.726562,78.7402344 C312.617188,80.3691406 313.8125,81.7695312 315.3125,82.9414062 C316.8125,84.1132812 318.634766,85.0332031 320.779297,85.7011719 C322.923828,86.3691406 325.425781,86.703125 328.285156,86.703125 Z M367.941406,86.8085938 C369.535156,86.8085938 370.941406,86.6386719 372.160156,86.2988281 C373.378906,85.9589844 374.457031,85.4960938 375.394531,84.9101562 C376.332031,84.3242188 377.164062,83.6269531 377.890625,82.8183594 C378.617188,82.0097656 379.285156,81.1367188 379.894531,80.1992188 L379.894531,80.1992188 L376.167969,77.2460938 C376.027344,77.4335938 375.798828,77.703125 375.482422,78.0546875 C375.166016,78.40625 374.802734,78.7519531 374.392578,79.0917969 C373.982422,79.4316406 373.548828,79.7304688 373.091797,79.9882812 C372.634766,80.2460938 372.21875,80.375 371.84375,80.375 C371.234375,80.375 370.742188,80.1054688 370.367188,79.5664062 C369.992188,79.0273438 369.804688,78.3945312 369.804688,77.6679688 L369.804688,77.6679688 L369.804688,54.5 L378.628906,54.5 L378.628906,50 L369.804688,50 L369.804688,38.6796875 L366.535156,38.6796875 L358.90625,42.6875 L358.90625,50 L353.105469,51.9335938 L353.105469,54.5 L358.90625,54.5 L358.90625,77.984375 C358.90625,79.296875 359.09375,80.4921875 359.46875,81.5703125 C359.84375,82.6484375 360.40625,83.5742188 361.15625,84.3476562 C361.90625,85.1210938 362.84375,85.7246094 363.96875,86.1582031 C365.09375,86.5917969 366.417969,86.8085938 367.941406,86.8085938 Z M403.484375,86.6679688 C406.34375,86.6679688 408.992188,86.1582031 411.429688,85.1386719 C413.867188,84.1191406 415.970703,82.7363281 417.740234,80.9902344 C419.509766,79.2441406 420.892578,77.1992188 421.888672,74.8554688 C422.884766,72.5117188 423.382812,70.015625 423.382812,67.3671875 C423.382812,64.8359375 422.878906,62.4746094 421.871094,60.2832031 C420.863281,58.0917969 419.474609,56.1875 417.705078,54.5703125 C415.935547,52.953125 413.832031,51.6816406 411.394531,50.7558594 C408.957031,49.8300781 406.308594,49.3671875 403.449219,49.3671875 C400.589844,49.3671875 397.947266,49.8417969 395.521484,50.7910156 C393.095703,51.7402344 391.003906,53.0585938 389.246094,54.7460938 C387.488281,56.4335938 386.111328,58.4433594 385.115234,60.7753906 C384.119141,63.1074219 383.621094,65.65625 383.621094,68.421875 C383.621094,71 384.119141,73.3964844 385.115234,75.6113281 C386.111328,77.8261719 387.494141,79.7539062 389.263672,81.3945312 C391.033203,83.0351562 393.130859,84.3242188 395.556641,85.2617188 C397.982422,86.1992188 400.625,86.6679688 403.484375,86.6679688 Z M404.75,82.2734375 C403.273438,82.2734375 401.955078,81.8222656 400.794922,80.9199219 C399.634766,80.0175781 398.650391,78.7988281 397.841797,77.2636719 C397.033203,75.7285156 396.412109,73.9296875 395.978516,71.8671875 C395.544922,69.8046875 395.328125,67.6132812 395.328125,65.2929688 C395.328125,63.7460938 395.509766,62.2753906 395.873047,60.8808594 C396.236328,59.4863281 396.722656,58.2558594 397.332031,57.1894531 C397.941406,56.1230469 398.644531,55.2734375 399.441406,54.640625 C400.238281,54.0078125 401.070312,53.6914062 401.9375,53.6914062 C403.71875,53.6914062 405.224609,54.1367188 406.455078,55.0273438 C407.685547,55.9179688 408.6875,57.125 409.460938,58.6484375 C410.234375,60.171875 410.791016,61.9472656 411.130859,63.9746094 C411.470703,66.0019531 411.640625,68.1640625 411.640625,70.4609375 C411.640625,72.0078125 411.470703,73.4960938 411.130859,74.9257812 C410.791016,76.3554688 410.310547,77.6152344 409.689453,78.7050781 C409.068359,79.7949219 408.335938,80.6621094 407.492188,81.3066406 C406.648438,81.9511719 405.734375,82.2734375 404.75,82.2734375 Z M442.683594,86 L442.683594,59.9492188 C442.964844,59.2929688 443.357422,58.6777344 443.861328,58.1035156 C444.365234,57.5292969 444.933594,57.0253906 445.566406,56.5917969 C446.199219,56.1582031 446.878906,55.8183594 447.605469,55.5722656 C448.332031,55.3261719 449.070312,55.203125 449.820312,55.203125 C450.359375,55.203125 450.845703,55.2441406 451.279297,55.3261719 C451.712891,55.4082031 452.128906,55.5429688 452.527344,55.7304688 C452.925781,55.9179688 453.330078,56.1640625 453.740234,56.46875 C454.150391,56.7734375 454.601562,57.1367188 455.09375,57.5585938 L455.09375,57.5585938 L458.855469,51.7578125 C457.917969,50.984375 456.816406,50.2753906 455.550781,49.6308594 C454.285156,48.9863281 452.867188,48.6640625 451.296875,48.6640625 C449.679688,48.6640625 448.138672,49.0390625 446.673828,49.7890625 C445.208984,50.5390625 443.878906,51.5351562 442.683594,52.7773438 L442.683594,52.7773438 L439.414062,49.2617188 L431.785156,53.2695312 L431.785156,86 L442.683594,86 Z M479.632812,86.8085938 C481.625,86.8085938 483.59375,86.4394531 485.539062,85.7011719 C487.484375,84.9628906 489.283203,83.9492188 490.935547,82.6601562 C492.587891,81.3710938 494.029297,79.8710938 495.259766,78.1601562 C496.490234,76.4492188 497.386719,74.6210938 497.949219,72.6757812 L497.949219,72.6757812 L492.394531,71.796875 C492.066406,72.8984375 491.539062,73.9238281 490.8125,74.8730469 C490.085938,75.8222656 489.230469,76.6542969 488.246094,77.3691406 C487.261719,78.0839844 486.189453,78.6464844 485.029297,79.0566406 C483.869141,79.4667969 482.691406,79.671875 481.496094,79.671875 C480.113281,79.671875 478.853516,79.2675781 477.716797,78.4589844 C476.580078,77.6503906 475.589844,76.5605469 474.746094,75.1894531 C473.902344,73.8183594 473.228516,72.2304688 472.724609,70.4257812 C472.220703,68.6210938 471.921875,66.7226562 471.828125,64.7304688 L471.828125,64.7304688 L496.753906,64.7304688 C496.753906,62.5976562 496.34375,60.59375 495.523438,58.71875 C494.703125,56.84375 493.548828,55.2148438 492.060547,53.8320312 C490.572266,52.4492188 488.785156,51.359375 486.699219,50.5625 C484.613281,49.765625 482.316406,49.3671875 479.808594,49.3671875 C476.996094,49.3671875 474.447266,49.8652344 472.162109,50.8613281 C469.876953,51.8574219 467.914062,53.2460938 466.273438,55.0273438 C464.632812,56.8085938 463.367188,58.9121094 462.476562,61.3378906 C461.585938,63.7636719 461.140625,66.3945312 461.140625,69.2304688 C461.140625,71.5976562 461.626953,73.8417969 462.599609,75.9628906 C463.572266,78.0839844 464.890625,79.9472656 466.554688,81.5527344 C468.21875,83.1582031 470.175781,84.4355469 472.425781,85.3847656 C474.675781,86.3339844 477.078125,86.8085938 479.632812,86.8085938 Z M484.238281,61.0039062 L471.933594,61.0039062 C472.050781,59.9257812 472.291016,58.9472656 472.654297,58.0683594 C473.017578,57.1894531 473.462891,56.4394531 473.990234,55.8183594 C474.517578,55.1972656 475.109375,54.7167969 475.765625,54.3769531 C476.421875,54.0371094 477.089844,53.8671875 477.769531,53.8671875 C478.636719,53.8671875 479.445312,54.0371094 480.195312,54.3769531 C480.945312,54.7167969 481.601562,55.203125 482.164062,55.8359375 C482.726562,56.46875 483.189453,57.2246094 483.552734,58.1035156 C483.916016,58.9824219 484.144531,59.9492188 484.238281,61.0039062 L484.238281,61.0039062 Z" id="AnnaStore" fill="#000000" fill-rule="nonzero"></path>
            <path d="M134.679688,25.3427734 C135.722656,25.3427734 136.601562,25.1230469 137.316406,24.6835938 C137.732422,24.4316406 138.201172,23.9980469 138.722656,23.3828125 L138.722656,23.3828125 L138.995117,25 L140.788086,25 L140.788086,18.0478516 L135.391602,18.0478516 L135.391602,20.2099609 L138.388672,20.2099609 C138.253906,21.0595703 137.896484,21.746582 137.316406,22.2709961 C136.736328,22.7954102 135.992188,23.0576172 135.083984,23.0576172 C134.158203,23.0576172 133.332031,22.7265625 132.605469,22.0644531 C131.878906,21.4023438 131.515625,20.2744141 131.515625,18.6806641 C131.515625,17.0986328 131.851074,15.9135742 132.521973,15.1254883 C133.192871,14.3374023 134.049805,13.9433594 135.092773,13.9433594 C135.637695,13.9433594 136.132812,14.0400391 136.578125,14.2333984 C137.375,14.5849609 137.875977,15.203125 138.081055,16.0878906 L138.081055,16.0878906 L140.744141,16.0878906 C140.597656,14.8398438 140.024902,13.7983398 139.025879,12.9633789 C138.026855,12.128418 136.704102,11.7109375 135.057617,11.7109375 C133.15918,11.7109375 131.632812,12.34375 130.478516,13.609375 C129.324219,14.875 128.74707,16.5566406 128.74707,18.6542969 C128.74707,20.7285156 129.318359,22.3632812 130.460938,23.5585938 C131.556641,24.7480469 132.962891,25.3427734 134.679688,25.3427734 Z M146.37793,25.2109375 C146.870117,25.2109375 147.299316,25.1464844 147.665527,25.0175781 C148.031738,24.8886719 148.411133,24.6484375 148.803711,24.296875 C148.932617,24.1855469 149.043945,24.0566406 149.137695,23.9101562 C149.231445,23.7636719 149.290039,23.6757812 149.313477,23.6464844 L149.313477,23.6464844 L149.313477,25 L151.748047,25 L151.748047,15.4199219 L149.208008,15.4199219 L149.208008,20.6318359 C149.208008,21.2470703 149.125977,21.7421875 148.961914,22.1171875 C148.645508,22.8085938 148.05957,23.1542969 147.204102,23.1542969 C146.536133,23.1542969 146.087891,22.9111328 145.859375,22.4248047 C145.730469,22.1494141 145.666016,21.7392578 145.666016,21.1943359 L145.666016,21.1943359 L145.666016,15.4199219 L143.099609,15.4199219 L143.099609,21.1943359 C143.099609,22.2900391 143.237305,23.1191406 143.512695,23.6816406 C144.004883,24.7011719 144.959961,25.2109375 146.37793,25.2109375 Z M156.740234,14.2773438 L156.740234,11.9658203 L154.200195,11.9658203 L154.200195,14.2773438 L156.740234,14.2773438 Z M156.740234,25 L156.740234,15.4199219 L154.200195,15.4199219 L154.200195,25 L156.740234,25 Z M161.679688,25 L161.679688,19.8144531 C161.679688,19.2226562 161.761719,18.7363281 161.925781,18.3554688 C162.242188,17.6347656 162.825195,17.2744141 163.674805,17.2744141 C164.366211,17.2744141 164.834961,17.5205078 165.081055,18.0126953 C165.21582,18.2822266 165.283203,18.6689453 165.283203,19.1728516 L165.283203,19.1728516 L165.283203,25 L167.849609,25 L167.849609,18.5488281 C167.849609,17.3476562 167.534668,16.487793 166.904785,15.9692383 C166.274902,15.4506836 165.464844,15.1914062 164.474609,15.1914062 C163.683594,15.1914062 163.030273,15.3847656 162.514648,15.7714844 C162.227539,15.9882812 161.922852,16.3427734 161.600586,16.8349609 L161.600586,16.8349609 L161.600586,15.4375 L159.183594,15.4375 L159.183594,25 L161.679688,25 Z M173.984375,25.3251953 C175.460938,25.3251953 176.552246,25.0249023 177.258301,24.4243164 C177.964355,23.8237305 178.317383,23.0488281 178.317383,22.0996094 C178.317383,21.3789062 178.071289,20.7783203 177.579102,20.2978516 C177.081055,19.8232422 176.333984,19.46875 175.337891,19.234375 C173.84375,18.90625 172.973633,18.6748047 172.727539,18.5400391 C172.481445,18.4111328 172.358398,18.203125 172.358398,17.9160156 C172.358398,17.6875 172.474121,17.4882812 172.705566,17.3183594 C172.937012,17.1484375 173.325195,17.0634766 173.870117,17.0634766 C174.532227,17.0634766 175.000977,17.2333984 175.276367,17.5732422 C175.422852,17.7607422 175.513672,18.015625 175.548828,18.3378906 L175.548828,18.3378906 L178.053711,18.3378906 C177.942383,17.1660156 177.510254,16.3413086 176.757324,15.8637695 C176.004395,15.3862305 175.030273,15.1474609 173.834961,15.1474609 C172.575195,15.1474609 171.598145,15.465332 170.903809,16.1010742 C170.209473,16.7368164 169.862305,17.4970703 169.862305,18.3818359 C169.862305,19.1318359 170.084961,19.7060547 170.530273,20.1044922 C170.975586,20.5087891 171.740234,20.8457031 172.824219,21.1152344 C174.330078,21.4726562 175.200195,21.7246094 175.43457,21.8710938 C175.668945,22.0175781 175.786133,22.2314453 175.786133,22.5126953 C175.786133,22.8056641 175.641113,23.0253906 175.351074,23.171875 C175.061035,23.3183594 174.669922,23.3916016 174.177734,23.3916016 C173.339844,23.3916016 172.765625,23.2246094 172.455078,22.890625 C172.279297,22.703125 172.165039,22.3867188 172.112305,21.9414062 L172.112305,21.9414062 L169.572266,21.9414062 C169.572266,22.9257812 169.931152,23.7358398 170.648926,24.371582 C171.366699,25.0073242 172.478516,25.3251953 173.984375,25.3251953 Z M184.478516,25.3339844 C186.125,25.3339844 187.352539,24.8344727 188.161133,23.8354492 C188.969727,22.8364258 189.374023,21.6337891 189.374023,20.2275391 C189.374023,18.8447266 188.969727,17.6464844 188.161133,16.6328125 C187.352539,15.6191406 186.125,15.1123047 184.478516,15.1123047 C182.832031,15.1123047 181.604492,15.6191406 180.795898,16.6328125 C179.987305,17.6464844 179.583008,18.8447266 179.583008,20.2275391 C179.583008,21.6337891 179.987305,22.8364258 180.795898,23.8354492 C181.604492,24.8344727 182.832031,25.3339844 184.478516,25.3339844 Z M184.469727,23.2333984 C183.737305,23.2333984 183.17334,22.9726562 182.777832,22.4511719 C182.382324,21.9296875 182.18457,21.1884766 182.18457,20.2275391 C182.18457,19.2666016 182.382324,18.5268555 182.777832,18.0083008 C183.17334,17.4897461 183.737305,17.2304688 184.469727,17.2304688 C185.202148,17.2304688 185.764648,17.4897461 186.157227,18.0083008 C186.549805,18.5268555 186.746094,19.2666016 186.746094,20.2275391 C186.746094,21.1884766 186.549805,21.9296875 186.157227,22.4511719 C185.764648,22.9726562 185.202148,23.2333984 184.469727,23.2333984 Z M195.473633,25.3339844 C197.120117,25.3339844 198.347656,24.8344727 199.15625,23.8354492 C199.964844,22.8364258 200.369141,21.6337891 200.369141,20.2275391 C200.369141,18.8447266 199.964844,17.6464844 199.15625,16.6328125 C198.347656,15.6191406 197.120117,15.1123047 195.473633,15.1123047 C193.827148,15.1123047 192.599609,15.6191406 191.791016,16.6328125 C190.982422,17.6464844 190.578125,18.8447266 190.578125,20.2275391 C190.578125,21.6337891 190.982422,22.8364258 191.791016,23.8354492 C192.599609,24.8344727 193.827148,25.3339844 195.473633,25.3339844 Z M195.464844,23.2333984 C194.732422,23.2333984 194.168457,22.9726562 193.772949,22.4511719 C193.377441,21.9296875 193.179688,21.1884766 193.179688,20.2275391 C193.179688,19.2666016 193.377441,18.5268555 193.772949,18.0083008 C194.168457,17.4897461 194.732422,17.2304688 195.464844,17.2304688 C196.197266,17.2304688 196.759766,17.4897461 197.152344,18.0083008 C197.544922,18.5268555 197.741211,19.2666016 197.741211,20.2275391 C197.741211,21.1884766 197.544922,21.9296875 197.152344,22.4511719 C196.759766,22.9726562 196.197266,23.2333984 195.464844,23.2333984 Z M211.487305,25 L211.487305,22.6708984 L205.071289,22.6708984 L205.071289,12.0449219 L202.364258,12.0449219 L202.364258,25 L211.487305,25 Z M215.503906,25.2988281 C216.183594,25.2988281 216.792969,25.1435547 217.332031,24.8330078 C217.783203,24.5693359 218.181641,24.25 218.527344,23.875 C218.544922,24.0917969 218.568359,24.2851562 218.597656,24.4550781 C218.626953,24.625 218.679688,24.8066406 218.755859,25 L218.755859,25 L221.480469,25 L221.480469,24.6308594 C221.316406,24.5546875 221.193359,24.4580078 221.111328,24.3408203 C221.029297,24.2236328 220.979492,24.0009766 220.961914,23.6728516 C220.950195,23.2392578 220.944336,22.8701172 220.944336,22.5654297 L220.944336,22.5654297 L220.944336,18.1708984 C220.944336,17.0166016 220.537109,16.2314453 219.722656,15.8154297 C218.908203,15.3994141 217.976562,15.1914062 216.927734,15.1914062 C215.316406,15.1914062 214.179688,15.6132812 213.517578,16.4570312 C213.101562,16.9960938 212.867188,17.6845703 212.814453,18.5224609 L212.814453,18.5224609 L215.231445,18.5224609 C215.290039,18.1533203 215.407227,17.8603516 215.583008,17.6435547 C215.829102,17.3505859 216.248047,17.2041016 216.839844,17.2041016 C217.367188,17.2041016 217.76709,17.2788086 218.039551,17.4282227 C218.312012,17.5776367 218.448242,17.8486328 218.448242,18.2412109 C218.448242,18.5634766 218.269531,18.8007812 217.912109,18.953125 C217.712891,19.0410156 217.381836,19.1142578 216.918945,19.1728516 L216.918945,19.1728516 L216.066406,19.2783203 C215.099609,19.4013672 214.367188,19.6064453 213.869141,19.8935547 C212.960938,20.4208984 212.506836,21.2734375 212.506836,22.4511719 C212.506836,23.359375 212.789551,24.0610352 213.35498,24.5561523 C213.92041,25.0512695 214.636719,25.2988281 215.503906,25.2988281 Z M216.242188,23.4794922 C215.902344,23.4794922 215.61377,23.3842773 215.376465,23.1938477 C215.13916,23.003418 215.020508,22.6943359 215.020508,22.2666016 C215.020508,21.7861328 215.213867,21.4316406 215.600586,21.203125 C215.829102,21.0683594 216.207031,20.9541016 216.734375,20.8603516 L216.734375,20.8603516 L217.296875,20.7548828 C217.578125,20.7021484 217.799316,20.6450195 217.960449,20.5834961 C218.121582,20.5219727 218.28125,20.4414062 218.439453,20.3417969 L218.439453,20.3417969 L218.439453,21.2734375 C218.421875,22.1113281 218.186035,22.6884766 217.731934,23.0048828 C217.277832,23.3212891 216.78125,23.4794922 216.242188,23.4794922 Z M228.371094,25.2548828 C229.630859,25.2548828 230.612305,24.765625 231.31543,23.7871094 C232.018555,22.8085938 232.370117,21.5751953 232.370117,20.0869141 C232.370117,18.6513672 232.01416,17.4794922 231.302246,16.5712891 C230.590332,15.6630859 229.604492,15.2089844 228.344727,15.2089844 C227.647461,15.2089844 227.073242,15.3554688 226.62207,15.6484375 C226.241211,15.8828125 225.892578,16.2226562 225.576172,16.6679688 L225.576172,16.6679688 L225.576172,12.0625 L223.080078,12.0625 L223.080078,25 L225.532227,25 L225.532227,23.7958984 C225.866211,24.2646484 226.176758,24.5927734 226.463867,24.7802734 C226.944336,25.0966797 227.580078,25.2548828 228.371094,25.2548828 Z M227.703125,23.1894531 C226.958984,23.1894531 226.405273,22.9199219 226.041992,22.3808594 C225.678711,21.8417969 225.49707,21.1621094 225.49707,20.3417969 C225.49707,19.6445312 225.584961,19.0761719 225.760742,18.6367188 C226.100586,17.8105469 226.724609,17.3974609 227.632812,17.3974609 C228.529297,17.3974609 229.144531,17.8193359 229.478516,18.6630859 C229.654297,19.1083984 229.742188,19.6708984 229.742188,20.3505859 C229.742188,21.2001953 229.563477,21.8857422 229.206055,22.4072266 C228.848633,22.9287109 228.347656,23.1894531 227.703125,23.1894531 Z" id="GuinsooLab" fill="#000000" fill-rule="nonzero"></path>
        </g>
    </g>
</svg>