<?xml version="1.0" encoding="UTF-8"?>
<svg width="602px" height="602px" viewBox="0 0 602 602" version="1.1" xmlns="http://www.w3.org/2000/svg" xmlns:xlink="http://www.w3.org/1999/xlink">
    <title>GuinsooPad</title>
    <g id="GuinsooPad" stroke="none" stroke-width="1" fill="none" fill-rule="evenodd">
        <g id="Group" transform="translate(99.000000, 98.000000)" fill="#2864A6" fill-rule="nonzero">
            <path d="M284.224172,18.0171358 C306.816334,-3.81421369 342.039555,-5.6651712 366.795415,13.6780703 C391.551275,33.0213118 398.273364,67.6466619 382.553521,94.8477672 C366.833678,122.048872 333.476534,133.511956 304.356787,121.719843 C275.237041,109.927729 259.254884,78.4845736 266.890977,48.0099338 C200.25488,19.9222113 123.11373,37.8587851 75.7050364,92.463779 C28.2963429,147.068773 21.3669668,225.964029 58.5313323,287.997081 C95.6956978,350.030132 168.529184,381.138989 239.041197,365.096995 C309.55321,349.055001 361.759703,289.498643 368.429305,217.493046 L291.586589,217.493046 C283.657057,263.715364 241.890738,296.336409 195.124172,292.833775 C148.361014,289.332102 111.920518,250.859392 110.959272,203.975166 C109.991036,157.083921 144.828652,117.141099 191.416421,111.727591 C238.00419,106.314083 281.072609,137.204208 290.882533,183.068046 L402.64644,183.068046 C411.229222,273.750497 357.935513,358.921192 272.630712,390.865232 C187.332616,422.802566 91.2054636,393.587583 38.1129139,319.574503 C-14.9863411,245.561424 -11.8683775,145.142881 45.7301325,74.5763245 C103.321937,4.00306291 201.071772,-19.1905629 284.224172,17.9903146 L284.224172,18.0171358 L284.224172,18.0171358 Z M258.422185,199.797765 C257.159417,169.042789 231.53146,144.945701 200.75705,145.577218 C169.98264,146.208735 145.364828,171.336909 145.364828,202.117798 C145.364828,232.898687 169.98264,258.026861 200.75705,258.658378 C231.53146,259.289895 257.159417,235.192807 258.422185,204.437831 L258.422185,199.797765 L258.422185,199.797765 Z" id="Shape"></path>
        </g>
    </g>
</svg>