<?xml version="1.0" encoding="UTF-8"?>
<svg width="842px" height="871px" viewBox="0 0 842 871" version="1.1" xmlns="http://www.w3.org/2000/svg" xmlns:xlink="http://www.w3.org/1999/xlink">
    <title>guinsoolab-security</title>
    <defs>
        <linearGradient x1="50%" y1="0%" x2="50%" y2="100%" id="linearGradient-1">
            <stop stop-color="#FFFFFF" offset="0%"></stop>
            <stop stop-color="#FFFFFF" offset="100%"></stop>
        </linearGradient>
    </defs>
    <g id="guinsoolab-platform" stroke="none" stroke-width="1" fill="none" fill-rule="evenodd">
        <g id="guinsoolab-security" transform="translate(1.000000, 0.000000)">
            <g id="Group-8" transform="translate(0.000000, 14.444444)" stroke="#F7B500" stroke-dasharray="4" stroke-opacity="0.4">
                <g id="circle">
                    <path d="M420,840 C651.959595,840 840,651.959595 840,420 C840,188.040405 651.959595,0 420,0 C188.040405,0 0,188.040405 0,420 C0,651.959595 188.040405,840 420,840 Z" id="Oval"></path>
                </g>
                <g id="circle" transform="translate(92.684825, 91.517510)">
                    <path d="M327.898833,655.797665 C508.992357,655.797665 655.797665,508.992357 655.797665,327.898833 C655.797665,146.805308 508.992357,0 327.898833,0 C146.805308,0 0,146.805308 0,327.898833 C0,508.992357 146.805308,655.797665 327.898833,655.797665 Z" id="Oval"></path>
                </g>
            </g>
            <g id="Group-9" transform="translate(49.444444, 0.000000)">
                <g id="sheenflow-header" transform="translate(125.346982, 647.539576)">
                    <rect id="Rectangle" stroke="#8323EF" fill-opacity="0.2" fill="#8323EF" x="0.5" y="0.5" width="35.1802275" height="35.1819157" rx="2"></rect>
                    <g id="Group" transform="translate(4.201575, 4.435203)">
                        <path d="M0,9.80317353 C3.42051413,8.7865474 5.67912547,7.69200838 6.77583401,6.51955646 C7.87254255,5.34710454 8.6705524,3.17391905 9.16986355,0 L18.0663921,0 C17.7183977,3.42205745 17.3332477,5.76506625 16.910942,7.02902641 C15.9594844,9.87673682 14.3092872,11.6498294 13.0777254,12.8807644 C11.8793469,14.0785329 10.038698,15.6391584 7.26540243,16.61514 C7.00883708,16.7054308 6.71026306,16.7963859 6.36968036,16.8880053 C5.43191543,17.1402713 3.30868864,17.5300019 0,18.0571971 L0,9.80317353 Z" id="Path-11" fill="#8323EF"></path>
                        <polygon id="Path-12" fill="#33C89B" points="9.03319605 18.0571971 18.0663921 18.0571971 18.0663921 27.3115106 9.03319605 27.3115106"></polygon>
                        <polygon id="Path-13" fill="#33C89B" points="19.1955416 10.1571734 19.1955416 27.3115106 27.7770779 27.3115106 27.7770779 10.1571734"></polygon>
                    </g>
                </g>
                <g id="hurricanedb-header" transform="translate(107.140157, 193.981755)" fill="#D590B7">
                    <rect id="Rectangle" stroke="#D590B7" fill-opacity="0.2" x="0.5" y="0.5" width="35.1802275" height="35.1819157" rx="2"></rect>
                    <polygon id="Path-17" points="3.96815398 24.8593286 11.0194742 31.7467132 17.8810181 24.8593286 11.0194742 17.9136537 17.8810181 11.3681806 17.8810181 24.6008052 24.7966606 31.7467132 31.7452318 24.8593286 24.7966606 17.9136537 31.7452318 11.0893824 24.7966606 3.96833915 11.0194742 3.96833915 3.96815398 11.0893824"></polygon>
                </g>
                <g id="annastore-header" transform="translate(591.254943, 639.369466)">
                    <rect id="Rectangle" stroke="#33C89B" fill-opacity="0.2" fill="#33C89B" x="0.5" y="0.5" width="35.1802275" height="35.1819157" rx="2"></rect>
                    <g id="Group" transform="translate(7.469466, 4.201771)">
                        <path d="M0.228346457,0 L6.99452985,0 L6.99452985,0.891980772 L7.07874016,1.6762302 L7.33585538,2.32581897 L7.6963883,2.98408858 L8.13105254,3.57962685 L8.61535537,4.24477562 L9.10488332,4.86029619 L9.78431153,5.419637 L10.6598448,5.99732223 L11.6253481,6.49196622 L12.7866298,6.80807977 L13.9291339,6.80807977 L13.9291339,13.889187 C11.63715,13.6431684 10.0290665,13.3583932 9.10488332,13.0348615 C6.6449335,12.173699 4.8839337,10.7063627 3.84221298,9.65031727 C2.87614248,8.67096233 1.73319293,7.21490942 1.06555431,5.13398828 C0.760232503,4.1823498 0.481163218,2.47102037 0.228346457,0 Z" id="Path-8" stroke="#979797" fill="#2B8DFF"></path>
                        <polygon id="Path-9" fill="#33C89B" points="13.9291339 0 21.007874 0 21.007874 6.60305612 13.9291339 6.60305612"></polygon>
                        <polygon id="Path-10" fill="#33C89B" points="0 13.889187 0 27.778374 21.007874 27.778374 21.007874 13.889187 13.9312182 13.889187 13.9312182 20.8337805 7.09008535 20.8337805 7.09008535 13.889187"></polygon>
                    </g>
                </g>
                <g id="Group-4" transform="translate(23.575503, 416.442179)">
                    <rect id="Rectangle" stroke="#2B8DFF" fill-opacity="0.2" fill="#2B8DFF" x="0.5" y="0.5" width="35.1802275" height="35.1819157" rx="2"></rect>
                    <g id="Group" transform="translate(3.618023, 4.070466)">
                        <polygon id="Path" fill="#3CEA8E" points="0 13.6059883 13.7704108 4.05429334e-16 28.0396763 0 0 28.2671217"></polygon>
                        <path d="M14.0198381,14.0204924 L14.0198381,28.2671217 L28.7180556,28.2671217 C28.4707633,26.9492329 28.2700547,25.96387 28.1159298,25.3110328 C27.9618048,24.6581956 27.7273869,23.8004645 27.4126761,22.7378395 C26.8919611,21.5650207 26.4454517,20.7108026 26.0731479,20.1751853 C25.7008442,19.639568 25.048841,18.9134034 24.1171383,17.9966917 C23.3195619,17.2318713 22.6708103,16.678589 22.1708836,16.3368447 C21.670957,15.9951005 20.854401,15.5467152 19.7212159,14.9916888 C18.4138997,14.5967208 17.4332345,14.343533 16.7792201,14.2321255 C16.1252058,14.1207179 15.2054118,14.0501736 14.0198381,14.0204924 Z" id="Path-2" fill="#2B8DFF"></path>
                    </g>
                </g>
                <g id="witdb-header" transform="translate(682.989326, 416.442179)">
                    <rect id="Rectangle" stroke="#41FC92" fill-opacity="0.2" fill="#41FC92" x="0.5" y="0.5" width="35.1802275" height="35.1819157" rx="2"></rect>
                    <g id="Group" transform="translate(4.901837, 4.201771)">
                        <polyline id="Path-3" fill="#41FC92" points="27.0845318 8.56332833 18.4688614 1.19526997e-14 8.02278311e-16 1.7645855e-14 7.74016177e-16 27.0780789 8.85484866 27.0780789 8.85484866 8.56332833 14.6449864 8.56332833 19.8372019 13.6982947 21.1472503 14.9938985 19.8782257 16.2968311 15.2709172 21.0540413 21.1472503 27.0780789 27.0845318 20.9695012"></polyline>
                        <polyline id="Path-4" points="27.3102362 8.57472498 21.2162166 14.9641466 27.3102362 20.9855111"></polyline>
                    </g>
                </g>
                <g id="stealthward-header" transform="translate(601.758880, 193.748323)" fill="#6A55FE">
                    <rect id="Rectangle" stroke="#6A55FE" fill-opacity="0.2" x="0.5" y="0.5" width="35.1802275" height="35.1819157" rx="2"></rect>
                    <polygon id="Path-14" points="7.70288714 5.13549772 7.70288714 31.046418 28.2439195 31.046418 28.2439195 21.0114358 23.8437785 16.4856499 19.3472053 21.0114358 22.1785424 24.1889613 14.1313548 24.1889613 14.1313548 11.5012819 19.3472053 11.5012819 23.8437785 15.9113131 28.2439195 11.5012819 21.2481351 5.13549772"></polygon>
                </g>
                <g id="duskbladesql-header" transform="translate(352.932283, 85.669439)">
                    <rect id="Rectangle" stroke="#6A55FE" fill-opacity="0.2" fill="#6A55FE" x="0.5" y="0.5" width="35.1802275" height="35.1819157" rx="2"></rect>
                    <g id="Group" transform="translate(7.002625, 3.968339)">
                        <polygon id="Path-15" fill="#6A55FE" points="4.75552994e-19 -1.51435477e-15 4.75552994e-19 13.6134774 14.2228984 27.3115106 21.9415573 27.3115106 5.2111726 10.7679923 5.2111726 5.77001156 21.9415573 5.77001156 21.9415573 -1.51435477e-15"></polygon>
                        <polygon id="Path-16" fill="#41EFC9" points="16.73892 10.8343183 16.73892 15.5743325 21.7153557 15.5743325 21.7153557 10.8343183"></polygon>
                    </g>
                </g>
                <g id="mortalmesh-header" transform="translate(352.465442, 742.312852)">
                    <rect id="Rectangle" stroke="#2B8DFF" fill-opacity="0.2" fill="#2B8DFF" x="0.5" y="0.5" width="35.1802275" height="35.1819157" rx="2"></rect>
                    <g id="Group" transform="translate(2.801050, 6.302656)">
                        <polygon id="Path-18" fill="#2B8DFF" points="3.70501532 0 1.36791431e-15 4.61579965 5.49327825e-15 24.0434666 30.5781277 24.0434666 30.5781277 4.61579965 27.192407 0 21.6968737 5.59402358 23.6406084 8.08387401 23.6406084 16.1366249 7.08371869 16.1366249 7.08371869 8.08387401 9.57064711 5.59402358"></polygon>
                        <polygon id="Path-19" fill="#41FC92" points="15.4055366 0 9.73969994 5.63566777 15.4055366 11.3412578 21.0649324 5.67062891"></polygon>
                    </g>
                </g>
                <g id="taric-header" transform="translate(711.233246, 645.438691)">
                    <g id="Group-5" transform="translate(4.201575, 3.501476)">
                        <path d="M19.7090367,0 L12.6196326,1.81650682 L12.6196326,1.81650682 C12.4012111,2.06174372 12.2920004,2.23286946 12.2920004,2.32988403 C12.2920004,2.42689861 12.2920004,2.51708016 12.2920004,2.60042866 L14.389485,10.5010441 C17.3498367,9.67955124 19.2749726,8.78846251 20.1648926,7.8277779 C21.0548126,6.86709328 21.5692273,5.12464354 21.7081365,2.60042866 C21.5752326,1.70486797 21.3902877,1.10295198 21.1533017,0.794680704 C20.9163158,0.486409426 20.4348941,0.221515858 19.7090367,0 L19.7090367,0 Z" id="Path-2" fill="#117442"></path>
                        <path d="M0.330788247,3.54034544 C0.330788247,3.54034544 0.330788247,3.54034544 0.330788247,3.54034544 C0.0157387144,5.37442949 -0.0202672321,7.14515165 0.00763037525,8.01558229 C0.0955079936,10.7574436 1.09337754,12.8186089 1.64523492,14.3036336 C2.54435177,16.7231189 4.81638767,19.5028664 8.46134261,22.6428763 C10.8046345,21.7111089 12.4486968,20.9230955 13.3935295,20.278836 C15.8161323,18.6269193 17.5772773,16.4380661 18.5787074,14.921605 C19.5299925,13.4810781 20.8577625,11.2201689 21.4133799,8.5590814 C21.6610227,7.3730146 21.7526208,5.3911688 21.688174,2.61354401 C20.1457213,5.03189776 19.0335684,6.61422038 18.3517151,7.36051187 C17.6397657,8.13974384 14.9143468,10.2505479 14.1630847,10.617835 C11.9570737,11.6963394 9.75829782,12.4563504 7.56675697,12.8978681 L8.6206227,8.66064837 C9.24040863,6.16870932 7.73887505,3.64220105 5.25377689,2.99553114 L2.34720436,2.23918557 C1.47622884,2.01253437 0.586430378,2.53486891 0.359785517,3.40584608 C0.348230518,3.45025097 0.338556141,3.49512408 0.330788247,3.54034544 Z" id="Path" fill="#2CB373"></path>
                    </g>
                    <rect id="Rectangle" stroke="#C6CBD1" x="0.5" y="0.5" width="28.8778653" height="28.8792595" rx="2"></rect>
                </g>
                <g id="leona-header" transform="translate(355.966754, 0.000000)">
                    <g id="Group-6" transform="translate(3.267892, 3.268044)">
                        <ellipse id="Oval" fill="#229DAD" cx="11.5543307" cy="11.5548699" rx="11.5543307" ry="11.5548699"></ellipse>
                        <g id="Group" transform="translate(12.894633, 11.447024) rotate(-45.000000) translate(-12.894633, -11.447024) translate(6.732323, 5.284427)">
                            <ellipse id="Oval" fill="#FFFFFF" cx="3.08115486" cy="3.08129863" rx="3.08115486" ry="3.08129863"></ellipse>
                            <ellipse id="Oval" fill="#FFFFFF" cx="3.08115486" cy="9.24389589" rx="3.08115486" ry="3.08129863"></ellipse>
                            <polygon id="Path" fill="url(#linearGradient-1)" points="9.24346457 1.93190871e-13 3.08115486 1.93190871e-13 1.36390353e-13 3.08129863 1.36390353e-13 12.3251945 3.08115486 12.3251945 6.16230971 9.24389589 6.16230971 3.08129863"></polygon>
                            <ellipse id="Oval" fill="#85D2D9" cx="9.24346457" cy="3.08129863" rx="3.08115486" ry="3.08129863"></ellipse>
                        </g>
                    </g>
                    <rect id="Rectangle" stroke="#C6CBD1" x="0.5" y="0.5" width="28.8778653" height="28.8792595" rx="2"></rect>
                </g>
                <g id="elixirnote-header" transform="translate(0.000000, 193.981755)" fill-rule="nonzero">
                    <rect id="Rectangle" stroke="#C6CBD1" x="0" y="0" width="29.8778653" height="29.8792595" rx="2"></rect>
                    <g id="Group" transform="translate(4.668416, 5.368929)" fill="#288ED7">
                        <path d="M10.7781764,0 L0,18.9079689 L6.23623937,18.9079689 C6.76882465,18.8333273 7.18104201,18.6761678 7.47289143,18.4364904 C7.76474086,18.196813 8.20149149,17.6567689 8.78314331,16.8163582 L14.3738085,7.07911343 L10.7781764,0 Z" id="Path-5"></path>
                        <path d="M15.685477,9.45398444 L12.5822476,14.9626524 C12.4350385,15.354872 12.3423414,15.6301164 12.3041565,15.7883856 C12.2320806,16.0871267 12.1921184,16.3161209 12.1842698,16.4753681 C12.1530985,17.1078321 12.3744984,17.5613476 12.5368296,17.8433479 C12.8091922,18.3164939 13.5697944,18.6713676 14.818636,18.9079689 L21.007874,18.9079689 L15.685477,9.45398444 Z" id="Path-6"></path>
                    </g>
                </g>
                <g id="jhin-header" transform="translate(0.233421, 647.773008)">
                    <rect id="Rectangle" stroke="#C6CBD1" fill-rule="nonzero" x="0" y="0" width="29.8778653" height="29.8792595" rx="2"></rect>
                    <g id="Group" transform="translate(1.432066, 3.268044)" fill="#3E6FDB">
                        <polygon id="Rectangle" transform="translate(11.429436, 11.680304) rotate(-45.000000) translate(-11.429436, -11.680304) " points="7.60613134 2.30328105 17.2917386 1.37894445 15.172513 20.7452513 5.56713251 21.9816639"></polygon>
                        <path d="M21.4563533,0.98943546 L24.2435709,4.50772376 C24.9294688,5.37352854 24.7836254,6.63143206 23.9178206,7.31732991 C23.5644094,7.59730522 23.1267648,7.74965168 22.6758927,7.74965168 L19.476569,7.74965168 C18.1563625,7.74965168 17.0861236,6.67941282 17.0861236,5.35920628 C17.0861236,4.82031374 17.2682116,4.29723089 17.6028444,3.87482584 L19.888675,0.98943546 C20.2316239,0.55653307 20.8605757,0.483611378 21.2934781,0.826560303 C21.3538622,0.874397127 21.4085164,0.929051321 21.4563533,0.98943546 Z" id="Triangle"></path>
                    </g>
                </g>
                <g id="irelia-header" transform="translate(354.799650, 840.120741)" fill-rule="nonzero">
                    <rect id="Rectangle" stroke="#C6CBD1" x="0" y="0" width="29.8778653" height="29.8792595" rx="2"></rect>
                    <g id="Group-7" transform="translate(5.602100, 3.968339)">
                        <polygon id="Path-8" fill="#235DFF" points="9.98167404 0 3.59136849e-16 10.995948 0 21.9425812 7.23144556 21.9425812 7.23144556 7.82479764 20.3076115 7.82479764 20.3076115 0"></polygon>
                        <polygon id="Path-9" fill="#3BE3B2" points="14.4343513 9.1388763 8.45763227 15.4046599 14.4343513 21.9425812 20.261141 15.4046599"></polygon>
                    </g>
                </g>
                <g id="spotrix-header" transform="translate(711.233246, 193.748323)" fill-rule="nonzero">
                    <rect id="Rectangle" stroke="#C6CBD1" x="0" y="0" width="29.8778653" height="29.8792595" rx="2"></rect>
                    <path d="M24.2757655,6.53608801 L13.6231377,6.53608801 C12.4453086,6.80706555 11.6096585,7.04376784 11.1161874,7.24619484 C9.96718046,7.71752946 9.03572048,8.37521683 8.44812548,8.96459069 C7.86731765,9.54715683 6.87680798,10.6286205 6.30861814,11.8640363 C6.05731599,12.4104429 5.82180984,13.3162336 5.60209974,14.5814084 L5.60209974,24.7437617 L15.4018172,24.7437617 C16.0768585,24.7097197 16.5503877,24.6699918 16.8224048,24.624578 C17.1570021,24.5687164 17.5577846,24.4166148 17.7405871,24.367145 C18.3028109,24.2149964 18.674239,23.9264202 18.9802303,23.7893508 C20.1989068,23.2434421 20.9808691,22.3657285 21.550784,21.8239159 C22.1765197,21.229035 22.8071606,20.4058672 23.2498427,19.2464429 C23.4343333,18.7632452 23.6431573,17.9101438 23.8763144,16.6871387 L23.8763144,13.4924786 L16.3832401,13.4924786 L12.1803263,17.6512922 L19.1690749,17.6512922 C19.0020647,18.0526147 18.8656544,18.3342577 18.7598439,18.4962209 C18.4275479,19.0048638 18.0344071,19.3534813 17.7405871,19.5837245 C17.3064287,19.9239396 16.5268387,20.2638279 15.4018172,20.6033895 L9.77105269,20.6033895 L9.77105269,14.5814084 C10.1061103,13.7897272 10.369793,13.247136 10.5621007,12.9536348 C10.773032,12.6317101 11.1035111,12.3021517 11.2948309,12.1167155 C11.5513175,11.8681166 11.8351444,11.5363898 12.2988496,11.2980864 C12.5356557,11.1763891 12.9770851,11.0262889 13.6231377,10.8477861 L20.2748214,10.8477861 L24.2757655,6.53608801 Z" id="Path-7" fill="#007CAC" transform="translate(14.938933, 15.639925) rotate(180.000000) translate(-14.938933, -15.639925) "></path>
                </g>
            </g>
        </g>
    </g>
</svg>