<?xml version="1.0" encoding="UTF-8"?>
<svg width="934px" height="167px" viewBox="0 0 934 167" version="1.1" xmlns="http://www.w3.org/2000/svg" xmlns:xlink="http://www.w3.org/1999/xlink">
    <title>guinsoo-lab</title>
    <defs>
        <linearGradient x1="73.6644375%" y1="21.6179979%" x2="9.66151529%" y2="100%" id="linearGradient-1">
            <stop stop-color="#32C5FF" offset="0%"></stop>
            <stop stop-color="#20CEE0" offset="51.2583893%"></stop>
            <stop stop-color="#2700F7" offset="100%"></stop>
        </linearGradient>
    </defs>
    <g id="guinsoo-lab" stroke="none" stroke-width="1" fill="none" fill-rule="evenodd">
        <g id="icon" transform="translate(8.000000, 0.000000)" fill-rule="nonzero">
            <path d="M98.0769231,49.1722222 L98.0769231,27.8333333 C107.884615,27.8333333 115.384615,21.8027778 115.384615,13.9166667 C115.384615,6.03055556 107.884615,0 98.0769231,0 L51.9230769,0 C42.6923077,0 34.6153846,6.03055556 34.6153846,13.9166667 C34.6153846,21.8027778 42.6923077,27.8333333 51.9230769,27.8333333 L51.9230769,49.1722222 C21.9230769,57.0583333 0,79.7888889 0,106.694444 C0,140.094444 33.4615385,167 75,167 C116.538462,167 150,140.094444 150,106.694444 C150,79.7888889 128.076923,57.0583333 98.0769231,49.1722222 Z M46.1538462,13.9166667 C46.1538462,11.5972222 49.0384615,9.27777778 51.9230769,9.27777778 L98.0769231,9.27777778 C100.961538,9.27777778 103.846154,11.5972222 103.846154,13.9166667 C103.846154,16.2361111 100.961538,18.5555556 98.0769231,18.5555556 L51.9230769,18.5555556 C49.0384615,18.5555556 46.1538462,16.2361111 46.1538462,13.9166667 Z M55.3846154,57.9861111 L63.4615385,56.1305556 L63.4615385,27.8333333 L86.5384615,27.8333333 L86.5384615,56.1305556 L94.6153846,57.9861111 C106.730769,61.2333333 116.538462,66.8 124.038462,74.2222222 L25.9615385,74.2222222 C33.4615385,66.8 43.8461538,61.2333333 55.3846154,57.9861111 L55.3846154,57.9861111 Z M75,157.722222 C39.8076923,157.722222 11.5384615,134.991667 11.5384615,106.694444 C11.5384615,98.3444444 13.8461538,90.4583333 18.4615385,83.5 L131.538462,83.5 C136.153846,90.4583333 138.461538,98.3444444 138.461538,106.694444 C138.461538,134.991667 110.192308,157.722222 75,157.722222 Z" id="Shape" fill="url(#linearGradient-1)"></path>
            <path d="M119.122847,116.768903 C116.239842,115.825811 112.780236,116.768903 111.627034,119.126633 C107.014227,126.671369 99.5184142,132.32992 90.8693997,136.102288 C87.9863949,137.04538 86.833193,139.874656 87.9863949,142.232386 C89.1395968,144.11857 90.8693997,145.061662 93.1758036,145.061662 C93.7524045,145.061662 94.9056065,145.061662 95.4822074,144.590116 C106.437626,139.874656 115.663241,132.32992 121.429251,123.370547 C123.159054,121.012817 122.005852,118.183541 119.122847,116.768903 L119.122847,116.768903 Z" id="Path" fill="#1296DB"></path>
        </g>
        <text id="Guinsoo-Lab" font-family="Orbitron-Regular_Bold, Orbitron" font-size="100" font-weight="bold">
            <tspan x="181.190588" y="142" fill="#000000" fill-opacity="0.952824519">Guinsoo</tspan>
            <tspan x="629.737927" y="142" font-family="PingFangSC-Semibold, PingFang SC" font-weight="500" fill="#090909" fill-opacity="0.640952797"> </tspan>
            <tspan x="663.037927" y="142" font-family="Monoton-Regular, Monoton" font-weight="normal" fill="#000000">Lab</tspan>
        </text>
    </g>
</svg>