<?xml version="1.0" encoding="UTF-8"?>
<svg width="434px" height="106px" viewBox="0 0 434 106" version="1.1" xmlns="http://www.w3.org/2000/svg" xmlns:xlink="http://www.w3.org/1999/xlink">
    <title>guinsoolab-darkseal</title>
    <g id="guinsoolab-platform" stroke="none" stroke-width="1" fill="none" fill-rule="evenodd">
        <g id="guinsoolab-darkseal">
            <g id="Group" transform="translate(10.000000, 11.250000)">
                <polygon id="Path" fill="#3CEA8E" points="0 37.6043888 38.0605976 1.12053031e-15 77.5 0 0 78.125"></polygon>
                <path d="M38.75,38.75 L38.75,78.125 L79.375,78.125 C78.6914989,74.4826037 78.1367522,71.7592461 77.7107601,69.9549272 C77.2847679,68.1506082 76.6368507,65.780001 75.7670086,62.8431054 C74.3277833,59.6016552 73.0936579,57.2407574 72.0646324,55.760412 C71.0356069,54.2800666 69.2335088,52.2730846 66.658338,49.7394662 C64.4538841,47.6256465 62.6607733,46.0964783 61.2790056,45.1519617 C59.897238,44.207445 57.6403259,42.9681924 54.5082694,41.434204 C50.8949252,40.3425868 48.1844247,39.6428235 46.376768,39.334914 C44.5691112,39.0270046 42.0268552,38.8320333 38.75,38.75 Z" id="Path-2" fill="#2B8DFF"></path>
            </g>
            <path d="M153.136719,88 C157.707031,88 161.761719,87.3671875 165.300781,86.1015625 C168.839844,84.8359375 171.822266,83.1015625 174.248047,80.8984375 C176.673828,78.6953125 178.519531,76.1230469 179.785156,73.1816406 C181.050781,70.2402344 181.683594,67.09375 181.683594,63.7421875 C181.683594,60.015625 180.939453,56.6992188 179.451172,53.7929688 C177.962891,50.8867188 175.871094,48.4375 173.175781,46.4453125 C170.480469,44.453125 167.269531,42.9355469 163.542969,41.8925781 C159.816406,40.8496094 155.726562,40.328125 151.273438,40.328125 L151.273438,40.328125 L133.976562,40.328125 L133.976562,88 L153.136719,88 Z M151.90625,83.1132812 L145.683594,83.1132812 L145.683594,45.1445312 L151.90625,45.1445312 C154.34375,45.1445312 156.587891,45.6191406 158.638672,46.5683594 C160.689453,47.5175781 162.453125,48.8242188 163.929688,50.4882812 C165.40625,52.1523438 166.560547,54.1269531 167.392578,56.4121094 C168.224609,58.6972656 168.640625,61.1757812 168.640625,63.8476562 C168.640625,66.9414062 168.201172,69.6835938 167.322266,72.0742188 C166.443359,74.4648438 165.242188,76.4804688 163.71875,78.1210938 C162.195312,79.7617188 160.419922,81.0039062 158.392578,81.8476562 C156.365234,82.6914062 154.203125,83.1132812 151.90625,83.1132812 L151.90625,83.1132812 Z M198.980469,88.6679688 C200.199219,88.6679688 201.242188,88.5683594 202.109375,88.3691406 C202.976562,88.1699219 203.761719,87.8945312 204.464844,87.5429688 C205.167969,87.1914062 205.8125,86.7636719 206.398438,86.2597656 C206.984375,85.7558594 207.605469,85.1992188 208.261719,84.5898438 C208.355469,84.9648438 208.507812,85.3515625 208.71875,85.75 C208.929688,86.1484375 209.175781,86.5175781 209.457031,86.8574219 C209.738281,87.1972656 210.054688,87.4726562 210.40625,87.6835938 C210.757812,87.8945312 211.121094,88 211.496094,88 L211.496094,88 L224.433594,88 C222.769531,87.3203125 221.480469,86.4648438 220.566406,85.4335938 C219.652344,84.4023438 219.195312,83.1484375 219.195312,81.671875 L219.195312,81.671875 L219.195312,61.0703125 C219.195312,59.5703125 218.908203,58.2167969 218.333984,57.0097656 C217.759766,55.8027344 216.869141,54.7714844 215.662109,53.9160156 C214.455078,53.0605469 212.914062,52.3984375 211.039062,51.9296875 C209.164062,51.4609375 206.9375,51.2265625 204.359375,51.2265625 C202.273438,51.2265625 200.333984,51.4609375 198.541016,51.9296875 C196.748047,52.3984375 195.154297,53.0605469 193.759766,53.9160156 C192.365234,54.7714844 191.199219,55.8144531 190.261719,57.0449219 C189.324219,58.2753906 188.667969,59.640625 188.292969,61.140625 L188.292969,61.140625 L197.46875,61.140625 C197.609375,60.34375 197.832031,59.5820312 198.136719,58.8554688 C198.441406,58.1289062 198.839844,57.484375 199.332031,56.921875 C199.824219,56.359375 200.410156,55.9140625 201.089844,55.5859375 C201.769531,55.2578125 202.542969,55.09375 203.410156,55.09375 C204.136719,55.09375 204.798828,55.2050781 205.396484,55.4277344 C205.994141,55.6503906 206.503906,56.0136719 206.925781,56.5175781 C207.347656,57.0214844 207.675781,57.6777344 207.910156,58.4863281 C208.144531,59.2949219 208.261719,60.2734375 208.261719,61.421875 L208.261719,61.421875 L208.261719,64.9375 C205.777344,65.6875 203.339844,66.4726562 200.949219,67.2929688 C198.558594,68.1132812 196.419922,69.0742188 194.533203,70.1757812 C192.646484,71.2773438 191.128906,72.5664062 189.980469,74.0429688 C188.832031,75.5195312 188.257812,77.2890625 188.257812,79.3515625 C188.257812,80.6875 188.503906,81.9238281 188.996094,83.0605469 C189.488281,84.1972656 190.197266,85.1816406 191.123047,86.0136719 C192.048828,86.8457031 193.173828,87.4960938 194.498047,87.9648438 C195.822266,88.4335938 197.316406,88.6679688 198.980469,88.6679688 Z M202.671875,82.65625 C201.617188,82.65625 200.779297,82.3164062 200.158203,81.6367188 C199.537109,80.9570312 199.226562,80.0195312 199.226562,78.8242188 C199.226562,77.7460938 199.501953,76.7324219 200.052734,75.7832031 C200.603516,74.8339844 201.306641,73.9667969 202.162109,73.1816406 C203.017578,72.3964844 203.984375,71.6875 205.0625,71.0546875 C206.140625,70.421875 207.207031,69.8828125 208.261719,69.4375 L208.261719,69.4375 L208.261719,79.8085938 C207.160156,80.6523438 206.175781,81.3378906 205.308594,81.8652344 C204.441406,82.3925781 203.5625,82.65625 202.671875,82.65625 Z M241.378906,88 L241.378906,61.9492188 C241.660156,61.2929688 242.052734,60.6777344 242.556641,60.1035156 C243.060547,59.5292969 243.628906,59.0253906 244.261719,58.5917969 C244.894531,58.1582031 245.574219,57.8183594 246.300781,57.5722656 C247.027344,57.3261719 247.765625,57.203125 248.515625,57.203125 C249.054688,57.203125 249.541016,57.2441406 249.974609,57.3261719 C250.408203,57.4082031 250.824219,57.5429688 251.222656,57.7304688 C251.621094,57.9179688 252.025391,58.1640625 252.435547,58.46875 C252.845703,58.7734375 253.296875,59.1367188 253.789062,59.5585938 L253.789062,59.5585938 L257.550781,53.7578125 C256.613281,52.984375 255.511719,52.2753906 254.246094,51.6308594 C252.980469,50.9863281 251.5625,50.6640625 249.992188,50.6640625 C248.375,50.6640625 246.833984,51.0390625 245.369141,51.7890625 C243.904297,52.5390625 242.574219,53.5351562 241.378906,54.7773438 L241.378906,54.7773438 L238.109375,51.2617188 L230.480469,55.2695312 L230.480469,88 L241.378906,88 Z M272.316406,88 L272.316406,73.5507812 L284.796875,88 L297.699219,88 L278.574219,65.78125 L294.324219,52 L286.449219,52 L272.316406,64.3398438 L272.316406,33.6484375 L269.046875,33.6484375 L261.347656,37.65625 L261.347656,88 L272.316406,88 Z M313.660156,88.8085938 C316.285156,88.8085938 318.517578,88.515625 320.357422,87.9296875 C322.197266,87.34375 323.697266,86.546875 324.857422,85.5390625 C326.017578,84.53125 326.855469,83.3476562 327.371094,81.9882812 C327.886719,80.6289062 328.144531,79.1640625 328.144531,77.59375 C328.144531,76.140625 327.804688,74.8222656 327.125,73.6386719 C326.445312,72.4550781 325.542969,71.3769531 324.417969,70.4042969 C323.292969,69.4316406 322.009766,68.5585938 320.568359,67.7851562 C319.126953,67.0117188 317.644531,66.3085938 316.121094,65.6757812 C315.113281,65.2539062 314.181641,64.8085938 313.326172,64.3398438 C312.470703,63.8710938 311.726562,63.3730469 311.09375,62.8457031 C310.460938,62.3183594 309.96875,61.75 309.617188,61.140625 C309.265625,60.53125 309.089844,59.8867188 309.089844,59.2070312 C309.089844,58.6679688 309.230469,58.1933594 309.511719,57.7832031 C309.792969,57.3730469 310.167969,57.0273438 310.636719,56.7460938 C311.105469,56.4648438 311.644531,56.2480469 312.253906,56.0957031 C312.863281,55.9433594 313.507812,55.8671875 314.1875,55.8671875 C314.5625,55.8671875 314.996094,55.9023438 315.488281,55.9726562 C315.980469,56.0429688 316.484375,56.2363281 317,56.5527344 C317.515625,56.8691406 318.007812,57.34375 318.476562,57.9765625 C318.945312,58.609375 319.34375,59.5 319.671875,60.6484375 L319.671875,60.6484375 L326,58.46875 C325.367188,57.3671875 324.652344,56.3769531 323.855469,55.4980469 C323.058594,54.6191406 322.144531,53.875 321.113281,53.265625 C320.082031,52.65625 318.886719,52.1875 317.527344,51.859375 C316.167969,51.53125 314.609375,51.3671875 312.851562,51.3671875 C310.929688,51.3671875 309.171875,51.6132812 307.578125,52.1054688 C305.984375,52.5976562 304.613281,53.2890625 303.464844,54.1796875 C302.316406,55.0703125 301.425781,56.1425781 300.792969,57.3964844 C300.160156,58.6503906 299.84375,60.0390625 299.84375,61.5625 C299.84375,63.15625 300.189453,64.5625 300.880859,65.78125 C301.572266,67 302.480469,68.0839844 303.605469,69.0332031 C304.730469,69.9824219 305.996094,70.8261719 307.402344,71.5644531 C308.808594,72.3027344 310.226562,72.9882812 311.65625,73.6210938 C312.546875,74.0195312 313.378906,74.4472656 314.152344,74.9042969 C314.925781,75.3613281 315.59375,75.859375 316.15625,76.3984375 C316.71875,76.9375 317.158203,77.5410156 317.474609,78.2089844 C317.791016,78.8769531 317.949219,79.6328125 317.949219,80.4765625 C317.949219,80.9921875 317.826172,81.4726562 317.580078,81.9179688 C317.333984,82.3632812 316.982422,82.7558594 316.525391,83.0957031 C316.068359,83.4355469 315.529297,83.6992188 314.908203,83.8867188 C314.287109,84.0742188 313.601562,84.1679688 312.851562,84.1679688 C311.070312,84.1679688 309.587891,83.6230469 308.404297,82.5332031 C307.220703,81.4433594 306.3125,79.9140625 305.679688,77.9453125 L305.679688,77.9453125 L299.457031,80.3359375 C299.996094,81.3203125 300.617188,82.3164062 301.320312,83.3242188 C302.023438,84.3320312 302.914062,85.2402344 303.992188,86.0488281 C305.070312,86.8574219 306.388672,87.5195312 307.947266,88.0351562 C309.505859,88.5507812 311.410156,88.8085938 313.660156,88.8085938 Z M352.226562,88.8085938 C354.21875,88.8085938 356.1875,88.4394531 358.132812,87.7011719 C360.078125,86.9628906 361.876953,85.9492188 363.529297,84.6601562 C365.181641,83.3710938 366.623047,81.8710938 367.853516,80.1601562 C369.083984,78.4492188 369.980469,76.6210938 370.542969,74.6757812 L370.542969,74.6757812 L364.988281,73.796875 C364.660156,74.8984375 364.132812,75.9238281 363.40625,76.8730469 C362.679688,77.8222656 361.824219,78.6542969 360.839844,79.3691406 C359.855469,80.0839844 358.783203,80.6464844 357.623047,81.0566406 C356.462891,81.4667969 355.285156,81.671875 354.089844,81.671875 C352.707031,81.671875 351.447266,81.2675781 350.310547,80.4589844 C349.173828,79.6503906 348.183594,78.5605469 347.339844,77.1894531 C346.496094,75.8183594 345.822266,74.2304688 345.318359,72.4257812 C344.814453,70.6210938 344.515625,68.7226562 344.421875,66.7304688 L344.421875,66.7304688 L369.347656,66.7304688 C369.347656,64.5976562 368.9375,62.59375 368.117188,60.71875 C367.296875,58.84375 366.142578,57.2148438 364.654297,55.8320312 C363.166016,54.4492188 361.378906,53.359375 359.292969,52.5625 C357.207031,51.765625 354.910156,51.3671875 352.402344,51.3671875 C349.589844,51.3671875 347.041016,51.8652344 344.755859,52.8613281 C342.470703,53.8574219 340.507812,55.2460938 338.867188,57.0273438 C337.226562,58.8085938 335.960938,60.9121094 335.070312,63.3378906 C334.179688,65.7636719 333.734375,68.3945312 333.734375,71.2304688 C333.734375,73.5976562 334.220703,75.8417969 335.193359,77.9628906 C336.166016,80.0839844 337.484375,81.9472656 339.148438,83.5527344 C340.8125,85.1582031 342.769531,86.4355469 345.019531,87.3847656 C347.269531,88.3339844 349.671875,88.8085938 352.226562,88.8085938 Z M356.832031,63.0039062 L344.527344,63.0039062 C344.644531,61.9257812 344.884766,60.9472656 345.248047,60.0683594 C345.611328,59.1894531 346.056641,58.4394531 346.583984,57.8183594 C347.111328,57.1972656 347.703125,56.7167969 348.359375,56.3769531 C349.015625,56.0371094 349.683594,55.8671875 350.363281,55.8671875 C351.230469,55.8671875 352.039062,56.0371094 352.789062,56.3769531 C353.539062,56.7167969 354.195312,57.203125 354.757812,57.8359375 C355.320312,58.46875 355.783203,59.2246094 356.146484,60.1035156 C356.509766,60.9824219 356.738281,61.9492188 356.832031,63.0039062 L356.832031,63.0039062 Z M385.90625,88.6679688 C387.125,88.6679688 388.167969,88.5683594 389.035156,88.3691406 C389.902344,88.1699219 390.6875,87.8945312 391.390625,87.5429688 C392.09375,87.1914062 392.738281,86.7636719 393.324219,86.2597656 C393.910156,85.7558594 394.53125,85.1992188 395.1875,84.5898438 C395.28125,84.9648438 395.433594,85.3515625 395.644531,85.75 C395.855469,86.1484375 396.101562,86.5175781 396.382812,86.8574219 C396.664062,87.1972656 396.980469,87.4726562 397.332031,87.6835938 C397.683594,87.8945312 398.046875,88 398.421875,88 L398.421875,88 L411.359375,88 C409.695312,87.3203125 408.40625,86.4648438 407.492188,85.4335938 C406.578125,84.4023438 406.121094,83.1484375 406.121094,81.671875 L406.121094,81.671875 L406.121094,61.0703125 C406.121094,59.5703125 405.833984,58.2167969 405.259766,57.0097656 C404.685547,55.8027344 403.794922,54.7714844 402.587891,53.9160156 C401.380859,53.0605469 399.839844,52.3984375 397.964844,51.9296875 C396.089844,51.4609375 393.863281,51.2265625 391.285156,51.2265625 C389.199219,51.2265625 387.259766,51.4609375 385.466797,51.9296875 C383.673828,52.3984375 382.080078,53.0605469 380.685547,53.9160156 C379.291016,54.7714844 378.125,55.8144531 377.1875,57.0449219 C376.25,58.2753906 375.59375,59.640625 375.21875,61.140625 L375.21875,61.140625 L384.394531,61.140625 C384.535156,60.34375 384.757812,59.5820312 385.0625,58.8554688 C385.367188,58.1289062 385.765625,57.484375 386.257812,56.921875 C386.75,56.359375 387.335938,55.9140625 388.015625,55.5859375 C388.695312,55.2578125 389.46875,55.09375 390.335938,55.09375 C391.0625,55.09375 391.724609,55.2050781 392.322266,55.4277344 C392.919922,55.6503906 393.429688,56.0136719 393.851562,56.5175781 C394.273438,57.0214844 394.601562,57.6777344 394.835938,58.4863281 C395.070312,59.2949219 395.1875,60.2734375 395.1875,61.421875 L395.1875,61.421875 L395.1875,64.9375 C392.703125,65.6875 390.265625,66.4726562 387.875,67.2929688 C385.484375,68.1132812 383.345703,69.0742188 381.458984,70.1757812 C379.572266,71.2773438 378.054688,72.5664062 376.90625,74.0429688 C375.757812,75.5195312 375.183594,77.2890625 375.183594,79.3515625 C375.183594,80.6875 375.429688,81.9238281 375.921875,83.0605469 C376.414062,84.1972656 377.123047,85.1816406 378.048828,86.0136719 C378.974609,86.8457031 380.099609,87.4960938 381.423828,87.9648438 C382.748047,88.4335938 384.242188,88.6679688 385.90625,88.6679688 Z M389.597656,82.65625 C388.542969,82.65625 387.705078,82.3164062 387.083984,81.6367188 C386.462891,80.9570312 386.152344,80.0195312 386.152344,78.8242188 C386.152344,77.7460938 386.427734,76.7324219 386.978516,75.7832031 C387.529297,74.8339844 388.232422,73.9667969 389.087891,73.1816406 C389.943359,72.3964844 390.910156,71.6875 391.988281,71.0546875 C393.066406,70.421875 394.132812,69.8828125 395.1875,69.4375 L395.1875,69.4375 L395.1875,79.8085938 C394.085938,80.6523438 393.101562,81.3378906 392.234375,81.8652344 C391.367188,82.3925781 390.488281,82.65625 389.597656,82.65625 Z M427.8125,88 L427.8125,33.6484375 L424.542969,33.6484375 L416.949219,37.65625 L416.949219,88 L427.8125,88 Z" id="Darkseal" fill="#000000" fill-rule="nonzero"></path>
            <path d="M134.679688,27.3427734 C135.722656,27.3427734 136.601562,27.1230469 137.316406,26.6835938 C137.732422,26.4316406 138.201172,25.9980469 138.722656,25.3828125 L138.722656,25.3828125 L138.995117,27 L140.788086,27 L140.788086,20.0478516 L135.391602,20.0478516 L135.391602,22.2099609 L138.388672,22.2099609 C138.253906,23.0595703 137.896484,23.746582 137.316406,24.2709961 C136.736328,24.7954102 135.992188,25.0576172 135.083984,25.0576172 C134.158203,25.0576172 133.332031,24.7265625 132.605469,24.0644531 C131.878906,23.4023438 131.515625,22.2744141 131.515625,20.6806641 C131.515625,19.0986328 131.851074,17.9135742 132.521973,17.1254883 C133.192871,16.3374023 134.049805,15.9433594 135.092773,15.9433594 C135.637695,15.9433594 136.132812,16.0400391 136.578125,16.2333984 C137.375,16.5849609 137.875977,17.203125 138.081055,18.0878906 L138.081055,18.0878906 L140.744141,18.0878906 C140.597656,16.8398438 140.024902,15.7983398 139.025879,14.9633789 C138.026855,14.128418 136.704102,13.7109375 135.057617,13.7109375 C133.15918,13.7109375 131.632812,14.34375 130.478516,15.609375 C129.324219,16.875 128.74707,18.5566406 128.74707,20.6542969 C128.74707,22.7285156 129.318359,24.3632812 130.460938,25.5585938 C131.556641,26.7480469 132.962891,27.3427734 134.679688,27.3427734 Z M146.37793,27.2109375 C146.870117,27.2109375 147.299316,27.1464844 147.665527,27.0175781 C148.031738,26.8886719 148.411133,26.6484375 148.803711,26.296875 C148.932617,26.1855469 149.043945,26.0566406 149.137695,25.9101562 C149.231445,25.7636719 149.290039,25.6757812 149.313477,25.6464844 L149.313477,25.6464844 L149.313477,27 L151.748047,27 L151.748047,17.4199219 L149.208008,17.4199219 L149.208008,22.6318359 C149.208008,23.2470703 149.125977,23.7421875 148.961914,24.1171875 C148.645508,24.8085938 148.05957,25.1542969 147.204102,25.1542969 C146.536133,25.1542969 146.087891,24.9111328 145.859375,24.4248047 C145.730469,24.1494141 145.666016,23.7392578 145.666016,23.1943359 L145.666016,23.1943359 L145.666016,17.4199219 L143.099609,17.4199219 L143.099609,23.1943359 C143.099609,24.2900391 143.237305,25.1191406 143.512695,25.6816406 C144.004883,26.7011719 144.959961,27.2109375 146.37793,27.2109375 Z M156.740234,16.2773438 L156.740234,13.9658203 L154.200195,13.9658203 L154.200195,16.2773438 L156.740234,16.2773438 Z M156.740234,27 L156.740234,17.4199219 L154.200195,17.4199219 L154.200195,27 L156.740234,27 Z M161.679688,27 L161.679688,21.8144531 C161.679688,21.2226562 161.761719,20.7363281 161.925781,20.3554688 C162.242188,19.6347656 162.825195,19.2744141 163.674805,19.2744141 C164.366211,19.2744141 164.834961,19.5205078 165.081055,20.0126953 C165.21582,20.2822266 165.283203,20.6689453 165.283203,21.1728516 L165.283203,21.1728516 L165.283203,27 L167.849609,27 L167.849609,20.5488281 C167.849609,19.3476562 167.534668,18.487793 166.904785,17.9692383 C166.274902,17.4506836 165.464844,17.1914062 164.474609,17.1914062 C163.683594,17.1914062 163.030273,17.3847656 162.514648,17.7714844 C162.227539,17.9882812 161.922852,18.3427734 161.600586,18.8349609 L161.600586,18.8349609 L161.600586,17.4375 L159.183594,17.4375 L159.183594,27 L161.679688,27 Z M173.984375,27.3251953 C175.460938,27.3251953 176.552246,27.0249023 177.258301,26.4243164 C177.964355,25.8237305 178.317383,25.0488281 178.317383,24.0996094 C178.317383,23.3789062 178.071289,22.7783203 177.579102,22.2978516 C177.081055,21.8232422 176.333984,21.46875 175.337891,21.234375 C173.84375,20.90625 172.973633,20.6748047 172.727539,20.5400391 C172.481445,20.4111328 172.358398,20.203125 172.358398,19.9160156 C172.358398,19.6875 172.474121,19.4882812 172.705566,19.3183594 C172.937012,19.1484375 173.325195,19.0634766 173.870117,19.0634766 C174.532227,19.0634766 175.000977,19.2333984 175.276367,19.5732422 C175.422852,19.7607422 175.513672,20.015625 175.548828,20.3378906 L175.548828,20.3378906 L178.053711,20.3378906 C177.942383,19.1660156 177.510254,18.3413086 176.757324,17.8637695 C176.004395,17.3862305 175.030273,17.1474609 173.834961,17.1474609 C172.575195,17.1474609 171.598145,17.465332 170.903809,18.1010742 C170.209473,18.7368164 169.862305,19.4970703 169.862305,20.3818359 C169.862305,21.1318359 170.084961,21.7060547 170.530273,22.1044922 C170.975586,22.5087891 171.740234,22.8457031 172.824219,23.1152344 C174.330078,23.4726562 175.200195,23.7246094 175.43457,23.8710938 C175.668945,24.0175781 175.786133,24.2314453 175.786133,24.5126953 C175.786133,24.8056641 175.641113,25.0253906 175.351074,25.171875 C175.061035,25.3183594 174.669922,25.3916016 174.177734,25.3916016 C173.339844,25.3916016 172.765625,25.2246094 172.455078,24.890625 C172.279297,24.703125 172.165039,24.3867188 172.112305,23.9414062 L172.112305,23.9414062 L169.572266,23.9414062 C169.572266,24.9257812 169.931152,25.7358398 170.648926,26.371582 C171.366699,27.0073242 172.478516,27.3251953 173.984375,27.3251953 Z M184.478516,27.3339844 C186.125,27.3339844 187.352539,26.8344727 188.161133,25.8354492 C188.969727,24.8364258 189.374023,23.6337891 189.374023,22.2275391 C189.374023,20.8447266 188.969727,19.6464844 188.161133,18.6328125 C187.352539,17.6191406 186.125,17.1123047 184.478516,17.1123047 C182.832031,17.1123047 181.604492,17.6191406 180.795898,18.6328125 C179.987305,19.6464844 179.583008,20.8447266 179.583008,22.2275391 C179.583008,23.6337891 179.987305,24.8364258 180.795898,25.8354492 C181.604492,26.8344727 182.832031,27.3339844 184.478516,27.3339844 Z M184.469727,25.2333984 C183.737305,25.2333984 183.17334,24.9726562 182.777832,24.4511719 C182.382324,23.9296875 182.18457,23.1884766 182.18457,22.2275391 C182.18457,21.2666016 182.382324,20.5268555 182.777832,20.0083008 C183.17334,19.4897461 183.737305,19.2304688 184.469727,19.2304688 C185.202148,19.2304688 185.764648,19.4897461 186.157227,20.0083008 C186.549805,20.5268555 186.746094,21.2666016 186.746094,22.2275391 C186.746094,23.1884766 186.549805,23.9296875 186.157227,24.4511719 C185.764648,24.9726562 185.202148,25.2333984 184.469727,25.2333984 Z M195.473633,27.3339844 C197.120117,27.3339844 198.347656,26.8344727 199.15625,25.8354492 C199.964844,24.8364258 200.369141,23.6337891 200.369141,22.2275391 C200.369141,20.8447266 199.964844,19.6464844 199.15625,18.6328125 C198.347656,17.6191406 197.120117,17.1123047 195.473633,17.1123047 C193.827148,17.1123047 192.599609,17.6191406 191.791016,18.6328125 C190.982422,19.6464844 190.578125,20.8447266 190.578125,22.2275391 C190.578125,23.6337891 190.982422,24.8364258 191.791016,25.8354492 C192.599609,26.8344727 193.827148,27.3339844 195.473633,27.3339844 Z M195.464844,25.2333984 C194.732422,25.2333984 194.168457,24.9726562 193.772949,24.4511719 C193.377441,23.9296875 193.179688,23.1884766 193.179688,22.2275391 C193.179688,21.2666016 193.377441,20.5268555 193.772949,20.0083008 C194.168457,19.4897461 194.732422,19.2304688 195.464844,19.2304688 C196.197266,19.2304688 196.759766,19.4897461 197.152344,20.0083008 C197.544922,20.5268555 197.741211,21.2666016 197.741211,22.2275391 C197.741211,23.1884766 197.544922,23.9296875 197.152344,24.4511719 C196.759766,24.9726562 196.197266,25.2333984 195.464844,25.2333984 Z M211.487305,27 L211.487305,24.6708984 L205.071289,24.6708984 L205.071289,14.0449219 L202.364258,14.0449219 L202.364258,27 L211.487305,27 Z M215.503906,27.2988281 C216.183594,27.2988281 216.792969,27.1435547 217.332031,26.8330078 C217.783203,26.5693359 218.181641,26.25 218.527344,25.875 C218.544922,26.0917969 218.568359,26.2851562 218.597656,26.4550781 C218.626953,26.625 218.679688,26.8066406 218.755859,27 L218.755859,27 L221.480469,27 L221.480469,26.6308594 C221.316406,26.5546875 221.193359,26.4580078 221.111328,26.3408203 C221.029297,26.2236328 220.979492,26.0009766 220.961914,25.6728516 C220.950195,25.2392578 220.944336,24.8701172 220.944336,24.5654297 L220.944336,24.5654297 L220.944336,20.1708984 C220.944336,19.0166016 220.537109,18.2314453 219.722656,17.8154297 C218.908203,17.3994141 217.976562,17.1914062 216.927734,17.1914062 C215.316406,17.1914062 214.179688,17.6132812 213.517578,18.4570312 C213.101562,18.9960938 212.867188,19.6845703 212.814453,20.5224609 L212.814453,20.5224609 L215.231445,20.5224609 C215.290039,20.1533203 215.407227,19.8603516 215.583008,19.6435547 C215.829102,19.3505859 216.248047,19.2041016 216.839844,19.2041016 C217.367188,19.2041016 217.76709,19.2788086 218.039551,19.4282227 C218.312012,19.5776367 218.448242,19.8486328 218.448242,20.2412109 C218.448242,20.5634766 218.269531,20.8007812 217.912109,20.953125 C217.712891,21.0410156 217.381836,21.1142578 216.918945,21.1728516 L216.918945,21.1728516 L216.066406,21.2783203 C215.099609,21.4013672 214.367188,21.6064453 213.869141,21.8935547 C212.960938,22.4208984 212.506836,23.2734375 212.506836,24.4511719 C212.506836,25.359375 212.789551,26.0610352 213.35498,26.5561523 C213.92041,27.0512695 214.636719,27.2988281 215.503906,27.2988281 Z M216.242188,25.4794922 C215.902344,25.4794922 215.61377,25.3842773 215.376465,25.1938477 C215.13916,25.003418 215.020508,24.6943359 215.020508,24.2666016 C215.020508,23.7861328 215.213867,23.4316406 215.600586,23.203125 C215.829102,23.0683594 216.207031,22.9541016 216.734375,22.8603516 L216.734375,22.8603516 L217.296875,22.7548828 C217.578125,22.7021484 217.799316,22.6450195 217.960449,22.5834961 C218.121582,22.5219727 218.28125,22.4414062 218.439453,22.3417969 L218.439453,22.3417969 L218.439453,23.2734375 C218.421875,24.1113281 218.186035,24.6884766 217.731934,25.0048828 C217.277832,25.3212891 216.78125,25.4794922 216.242188,25.4794922 Z M228.371094,27.2548828 C229.630859,27.2548828 230.612305,26.765625 231.31543,25.7871094 C232.018555,24.8085938 232.370117,23.5751953 232.370117,22.0869141 C232.370117,20.6513672 232.01416,19.4794922 231.302246,18.5712891 C230.590332,17.6630859 229.604492,17.2089844 228.344727,17.2089844 C227.647461,17.2089844 227.073242,17.3554688 226.62207,17.6484375 C226.241211,17.8828125 225.892578,18.2226562 225.576172,18.6679688 L225.576172,18.6679688 L225.576172,14.0625 L223.080078,14.0625 L223.080078,27 L225.532227,27 L225.532227,25.7958984 C225.866211,26.2646484 226.176758,26.5927734 226.463867,26.7802734 C226.944336,27.0966797 227.580078,27.2548828 228.371094,27.2548828 Z M227.703125,25.1894531 C226.958984,25.1894531 226.405273,24.9199219 226.041992,24.3808594 C225.678711,23.8417969 225.49707,23.1621094 225.49707,22.3417969 C225.49707,21.6445312 225.584961,21.0761719 225.760742,20.6367188 C226.100586,19.8105469 226.724609,19.3974609 227.632812,19.3974609 C228.529297,19.3974609 229.144531,19.8193359 229.478516,20.6630859 C229.654297,21.1083984 229.742188,21.6708984 229.742188,22.3505859 C229.742188,23.2001953 229.563477,23.8857422 229.206055,24.4072266 C228.848633,24.9287109 228.347656,25.1894531 227.703125,25.1894531 Z" id="GuinsooLab" fill="#000000" fill-rule="nonzero"></path>
        </g>
    </g>
</svg>