<?xml version="1.0" encoding="UTF-8"?>
<svg xmlns:xlink="http://www.w3.org/1999/xlink" width="184px" height="139px" viewBox="0 0 184 139" version="1.1" xmlns="http://www.w3.org/2000/svg">
    <title>guinsoosearch</title>
    <g id="Page-1" stroke="none" stroke-width="1" fill="none" fill-rule="evenodd">
        <g id="guinsoosearch" fill="#0091FF" fill-rule="nonzero">
            <path d="M6.3802084,44.3359375 L48.046875,44.3359375 C50.1302084,44.3359375 52.2135416,43.0859375 53.4635416,41.4192709 L64.296875,23.5026041 L124.296875,23.5026041 C126.380208,30.5859375 133.046875,36.0026041 140.963542,36.0026041 C150.546875,36.0026041 158.880208,28.0859375 158.880208,18.0859375 C158.880208,8.0859375 150.963542,0.169270898 140.963542,0.169270898 C133.880208,0.169270898 127.630208,4.3359375 124.713542,10.5859375 L60.546875,10.5859375 C58.4635416,10.5859375 56.3802084,11.8359375 55.1302084,13.5026041 L44.7135416,31.8359375 L6.3802084,31.8359375 C3.046875,31.8359375 0.130208398,34.7526041 0.130208398,38.0859375 C0.130208398,41.4192709 3.046875,44.3359375 6.3802084,44.3359375 Z M140.963542,13.0859375 C143.880208,13.0859375 146.380208,15.5859375 146.380208,18.5026041 C146.380208,21.4192707 143.463542,23.5026041 140.963542,23.5026041 C138.463541,23.5026041 135.546875,21.0026041 135.546875,18.0859375 C135.546875,15.1692709 138.046875,13.0859375 140.963542,13.0859375 Z M162.630208,96.0026041 C153.046875,96.0026041 145.130208,102.252604 142.630208,111.002604 L93.8802084,111.002604 L87.6302084,94.3359375 L112.213542,94.3359375 C114.296875,98.0859375 118.463542,100.585937 123.046875,100.585937 C130.130208,100.585937 135.546875,95.1692709 135.546875,88.0859375 C135.546875,81.0026041 130.130208,75.5859375 123.046875,75.5859375 C118.463542,75.5859375 114.296875,78.0859375 112.213542,81.8359375 L82.6302084,81.8359375 L74.7135416,61.0026041 C73.8802082,58.5026041 71.3802082,56.8359375 68.8802084,56.8359375 L6.3802084,56.8359375 C3.046875,56.8359375 0.130208398,59.7526041 0.130208398,63.0859375 C0.130208398,66.4192709 3.046875,69.3359375 6.3802084,69.3359375 L64.7135416,69.3359375 L69.7135416,81.8359375 L6.3802084,81.8359375 C3.046875,81.8359375 0.130208398,84.7526041 0.130208398,88.0859375 C0.130208398,91.4192709 3.046875,94.3359375 6.3802084,94.3359375 L74.296875,94.3359375 L83.8802084,119.335937 C84.7135418,121.835937 87.2135418,123.502604 89.7135416,123.502604 L142.630208,123.502604 C145.130208,132.252604 153.463542,138.502604 162.630208,138.502604 C174.296875,138.502604 183.880208,128.919271 183.880208,117.252604 C183.880208,105.585938 174.296875,96.0026041 162.630208,96.0026041 L162.630208,96.0026041 Z M162.630208,126.002604 C157.630208,126.002604 153.880208,122.252604 153.880208,117.252604 C153.880208,112.252604 157.630208,108.502604 162.630208,108.502604 C167.630208,108.502604 171.380208,112.252604 171.380208,117.252604 C171.380208,122.252604 167.630208,126.002604 162.630208,126.002604 Z" id="Shape"></path>
        </g>
    </g>
</svg>