<?xml version="1.0" encoding="UTF-8"?>
<svg xmlns:xlink="http://www.w3.org/1999/xlink" width="176px" height="152px" viewBox="0 0 176 152" version="1.1" xmlns="http://www.w3.org/2000/svg">
    <title>guinsoopad</title>
    <g id="Page-1" stroke="none" stroke-width="1" fill="none" fill-rule="evenodd">
        <g id="guinsoopad" fill="#007AFE" fill-rule="nonzero">
            <path d="M131.686133,0.0375 L44.0058594,0.0375 L0.165625,75.9708984 L44.0058594,151.904102 L131.686133,151.904102 L175.526172,75.9708984 L131.686328,0.0375 L131.686133,0.0375 Z M127.467578,144.597656 L48.2242188,144.597656 L8.60273438,75.9708984 L48.2244141,7.34433594 L127.467773,7.34433594 L167.089258,75.9710937 L127.467578,144.597656 L127.467578,144.597656 Z M125.005469,68.2773437 C124.649805,68.2773437 124.299805,68.3011719 123.955273,68.3427734 L112.718555,50.9341797 C114.480664,48.7796875 115.539844,46.0287109 115.539844,43.0347656 C115.539844,36.1431641 109.933203,30.5361328 103.041406,30.5361328 C96.1496094,30.5361328 90.5427734,36.1431641 90.5427734,43.0347656 C90.5427734,46.9863281 92.3880859,50.5130859 95.2601563,52.8050781 L72.3363281,98.6894531 C71.9081366,98.6392433 71.4774136,98.6136804 71.0462891,98.6128906 C70.2328471,98.6132842 69.4218719,98.702352 68.6277344,98.8785156 L57.6167969,81.5441406 C58.4661385,80.1721195 58.9150601,78.5900023 58.9128906,76.9763672 C58.9128906,72.1720703 55.0181641,68.2771484 50.2136719,68.2771484 C45.4091797,68.2771484 41.5148438,72.1720703 41.5148438,76.9763672 C41.5148438,81.7806641 45.4095703,85.6753906 50.2138672,85.6753906 C50.5478516,85.6753906 50.8773438,85.6544922 51.2017578,85.6179688 L62.2142578,102.954883 C60.75625,104.840625 59.8865234,107.204297 59.8865234,109.772656 C59.8865234,115.935938 64.8830078,120.932422 71.0462891,120.932422 C77.2095703,120.932422 82.2060547,115.935938 82.2060547,109.772656 C82.2060547,106.793164 81.0361328,104.088477 79.1333984,102.087109 L102.4,55.5171875 C103.732239,55.5854314 105.066796,55.4393674 106.352734,55.0845703 L117.56875,72.4609375 C116.740739,73.8212842 116.303956,75.3836459 116.306445,76.9761719 C116.306445,81.7804687 120.201172,85.6751953 125.005469,85.6751953 C129.809766,85.6751953 133.704492,81.7804687 133.704492,76.9759766 C133.704492,72.1720703 129.809766,68.2773438 125.005469,68.2773438 L125.005469,68.2773437 Z M98.1417969,43.0349609 C98.1417969,40.3333984 100.339648,38.1355469 103.041406,38.1355469 C105.743164,38.1355469 107.94082,40.3333984 107.94082,43.0349609 C107.94082,45.7365234 105.742969,47.934375 103.041406,47.934375 C100.339844,47.934375 98.1417969,45.7363281 98.1417969,43.0349609 Z" id="Shape"></path>
        </g>
    </g>
</svg>