<?xml version="1.0" encoding="UTF-8"?>
<svg width="499px" height="101px" viewBox="0 0 499 101" version="1.1" xmlns="http://www.w3.org/2000/svg" xmlns:xlink="http://www.w3.org/1999/xlink">
    <title>guinsoolab-sheenflow</title>
    <g id="guinsoolab-platform" stroke="none" stroke-width="1" fill="none" fill-rule="evenodd">
        <g id="guinsoolab-sheenflow">
            <g id="Group" transform="translate(11.000000, 13.000000)">
                <path d="M0,27.2793841 C9.6050457,24.4504089 15.9473861,21.4046248 19.0270213,18.1420317 C22.1066565,14.8794386 24.3475246,8.8320947 25.7496257,0 L50.7317073,0 C49.7545145,9.52259178 48.6729859,16.0425046 47.4871216,19.5597386 C44.8153614,27.4840894 40.1814909,32.4180909 36.7231782,35.8434253 C33.3580466,39.1764673 28.1893742,43.5192346 20.4017641,46.2351079 C19.6813104,46.486361 18.8428934,46.7394626 17.8865131,46.9944127 C15.2532029,47.6963958 9.29103181,48.7809029 0,50.2479339 L0,27.2793841 Z" id="Path-11" fill="#8323EF"></path>
                <polygon id="Path-12" fill="#33C89B" points="25.3658537 50.2479339 50.7317073 50.2479339 50.7317073 76 25.3658537 76"></polygon>
                <polygon id="Path-13" fill="#33C89B" points="53.902439 28.2644628 53.902439 76 78 76 78 28.2644628"></polygon>
            </g>
            <path d="M150.921875,87.703125 C153.96875,87.703125 156.658203,87.3515625 158.990234,86.6484375 C161.322266,85.9453125 163.273438,84.9785156 164.84375,83.7480469 C166.414062,82.5175781 167.597656,81.0703125 168.394531,79.40625 C169.191406,77.7421875 169.589844,75.9375 169.589844,73.9921875 C169.589844,72.3515625 169.214844,70.875 168.464844,69.5625 C167.714844,68.25 166.724609,67.0546875 165.494141,65.9765625 C164.263672,64.8984375 162.863281,63.9082031 161.292969,63.0058594 C159.722656,62.1035156 158.123047,61.2421875 156.494141,60.421875 C154.865234,59.6015625 153.265625,58.7871094 151.695312,57.9785156 C150.125,57.1699219 148.724609,56.3203125 147.494141,55.4296875 C146.263672,54.5390625 145.273438,53.578125 144.523438,52.546875 C143.773438,51.515625 143.398438,50.3671875 143.398438,49.1015625 C143.398438,48.375 143.539062,47.6308594 143.820312,46.8691406 C144.101562,46.1074219 144.558594,45.4160156 145.191406,44.7949219 C145.824219,44.1738281 146.662109,43.6640625 147.705078,43.265625 C148.748047,42.8671875 150.03125,42.6679688 151.554688,42.6679688 C153.171875,42.6679688 154.566406,42.8964844 155.738281,43.3535156 C156.910156,43.8105469 157.90625,44.4257813 158.726562,45.1992188 C159.546875,45.9726563 160.238281,46.875 160.800781,47.90625 C161.363281,48.9375 161.855469,50.015625 162.277344,51.140625 L162.277344,51.140625 L169.625,51.140625 C169.085938,49.359375 168.3125,47.6894531 167.304688,46.1308594 C166.296875,44.5722656 165.048828,43.2128906 163.560547,42.0527344 C162.072266,40.8925781 160.355469,39.984375 158.410156,39.328125 C156.464844,38.671875 154.296875,38.34375 151.90625,38.34375 C149,38.34375 146.410156,38.6777344 144.136719,39.3457031 C141.863281,40.0136719 139.941406,40.9394531 138.371094,42.1230469 C136.800781,43.3066406 135.599609,44.7011719 134.767578,46.3066406 C133.935547,47.9121094 133.519531,49.6640625 133.519531,51.5625 C133.519531,53.296875 133.882812,54.8378906 134.609375,56.1855469 C135.335938,57.5332031 136.296875,58.7402344 137.492188,59.8066406 C138.6875,60.8730469 140.046875,61.8398438 141.570312,62.7070313 C143.09375,63.5742188 144.652344,64.4003906 146.246094,65.1855469 C147.839844,65.9707031 149.398438,66.75 150.921875,67.5234375 C152.445312,68.296875 153.804688,69.1347656 155,70.0371094 C156.195312,70.9394531 157.15625,71.9414063 157.882812,73.0429688 C158.609375,74.1445313 158.972656,75.3984375 158.972656,76.8046875 C158.972656,77.9296875 158.738281,78.8730469 158.269531,79.6347656 C157.800781,80.3964844 157.179688,81.0175781 156.40625,81.4980469 C155.632812,81.9785156 154.759766,82.3242188 153.787109,82.5351563 C152.814453,82.7460938 151.835938,82.8515625 150.851562,82.8515625 C149.351562,82.8515625 148.033203,82.6347656 146.896484,82.2011719 C145.759766,81.7675781 144.775391,81.1699219 143.943359,80.4082031 C143.111328,79.6464844 142.425781,78.75 141.886719,77.71875 C141.347656,76.6875 140.9375,75.5742188 140.65625,74.3789063 L140.65625,74.3789063 L132.535156,74.3789063 C132.863281,76.3242188 133.472656,78.1113281 134.363281,79.7402344 C135.253906,81.3691406 136.449219,82.7695313 137.949219,83.9414063 C139.449219,85.1132813 141.271484,86.0332031 143.416016,86.7011719 C145.560547,87.3691406 148.0625,87.703125 150.921875,87.703125 Z M190.4375,87 L190.4375,60.5976563 C191.070312,60.0351563 191.755859,59.5195313 192.494141,59.0507813 C193.232422,58.5820313 193.964844,58.171875 194.691406,57.8203125 C195.417969,57.46875 196.103516,57.1992188 196.748047,57.0117188 C197.392578,56.8242188 197.925781,56.7304688 198.347656,56.7304688 C199.308594,56.7304688 200.087891,57.2167969 200.685547,58.1894531 C201.283203,59.1621094 201.582031,60.5742188 201.582031,62.4257813 L201.582031,62.4257813 L201.582031,87 L212.550781,87 L212.550781,61.265625 C212.550781,59.765625 212.275391,58.3476563 211.724609,57.0117188 C211.173828,55.6757813 210.423828,54.5097656 209.474609,53.5136719 C208.525391,52.5175781 207.412109,51.7324219 206.134766,51.1582031 C204.857422,50.5839844 203.492188,50.296875 202.039062,50.296875 C200.070312,50.296875 198.060547,50.5957031 196.009766,51.1933594 C193.958984,51.7910156 192.101562,52.6992188 190.4375,53.9179688 L190.4375,53.9179688 L190.4375,32.6484375 L187.167969,32.6484375 L179.398438,36.65625 L179.398438,87 L190.4375,87 Z M239.164062,87.8085938 C241.15625,87.8085938 243.125,87.4394531 245.070312,86.7011719 C247.015625,85.9628906 248.814453,84.9492188 250.466797,83.6601563 C252.119141,82.3710938 253.560547,80.8710938 254.791016,79.1601563 C256.021484,77.4492188 256.917969,75.6210938 257.480469,73.6757813 L257.480469,73.6757813 L251.925781,72.796875 C251.597656,73.8984375 251.070312,74.9238281 250.34375,75.8730469 C249.617188,76.8222656 248.761719,77.6542969 247.777344,78.3691406 C246.792969,79.0839844 245.720703,79.6464844 244.560547,80.0566406 C243.400391,80.4667969 242.222656,80.671875 241.027344,80.671875 C239.644531,80.671875 238.384766,80.2675781 237.248047,79.4589844 C236.111328,78.6503906 235.121094,77.5605469 234.277344,76.1894531 C233.433594,74.8183594 232.759766,73.2304688 232.255859,71.4257813 C231.751953,69.6210938 231.453125,67.7226563 231.359375,65.7304688 L231.359375,65.7304688 L256.285156,65.7304688 C256.285156,63.5976563 255.875,61.59375 255.054688,59.71875 C254.234375,57.84375 253.080078,56.2148438 251.591797,54.8320313 C250.103516,53.4492188 248.316406,52.359375 246.230469,51.5625 C244.144531,50.765625 241.847656,50.3671875 239.339844,50.3671875 C236.527344,50.3671875 233.978516,50.8652344 231.693359,51.8613281 C229.408203,52.8574219 227.445312,54.2460938 225.804688,56.0273438 C224.164062,57.8085938 222.898438,59.9121094 222.007812,62.3378906 C221.117188,64.7636719 220.671875,67.3945313 220.671875,70.2304688 C220.671875,72.5976563 221.158203,74.8417969 222.130859,76.9628906 C223.103516,79.0839844 224.421875,80.9472656 226.085938,82.5527344 C227.75,84.1582031 229.707031,85.4355469 231.957031,86.3847656 C234.207031,87.3339844 236.609375,87.8085938 239.164062,87.8085938 Z M243.769531,62.0039063 L231.464844,62.0039063 C231.582031,60.9257813 231.822266,59.9472656 232.185547,59.0683594 C232.548828,58.1894531 232.994141,57.4394531 233.521484,56.8183594 C234.048828,56.1972656 234.640625,55.7167969 235.296875,55.3769531 C235.953125,55.0371094 236.621094,54.8671875 237.300781,54.8671875 C238.167969,54.8671875 238.976562,55.0371094 239.726562,55.3769531 C240.476562,55.7167969 241.132812,56.203125 241.695312,56.8359375 C242.257812,57.46875 242.720703,58.2246094 243.083984,59.1035156 C243.447266,59.9824219 243.675781,60.9492188 243.769531,62.0039063 L243.769531,62.0039063 Z M281.632812,87.8085938 C283.625,87.8085938 285.59375,87.4394531 287.539062,86.7011719 C289.484375,85.9628906 291.283203,84.9492188 292.935547,83.6601563 C294.587891,82.3710938 296.029297,80.8710938 297.259766,79.1601563 C298.490234,77.4492188 299.386719,75.6210938 299.949219,73.6757813 L299.949219,73.6757813 L294.394531,72.796875 C294.066406,73.8984375 293.539062,74.9238281 292.8125,75.8730469 C292.085938,76.8222656 291.230469,77.6542969 290.246094,78.3691406 C289.261719,79.0839844 288.189453,79.6464844 287.029297,80.0566406 C285.869141,80.4667969 284.691406,80.671875 283.496094,80.671875 C282.113281,80.671875 280.853516,80.2675781 279.716797,79.4589844 C278.580078,78.6503906 277.589844,77.5605469 276.746094,76.1894531 C275.902344,74.8183594 275.228516,73.2304688 274.724609,71.4257813 C274.220703,69.6210938 273.921875,67.7226563 273.828125,65.7304688 L273.828125,65.7304688 L298.753906,65.7304688 C298.753906,63.5976563 298.34375,61.59375 297.523438,59.71875 C296.703125,57.84375 295.548828,56.2148438 294.060547,54.8320313 C292.572266,53.4492188 290.785156,52.359375 288.699219,51.5625 C286.613281,50.765625 284.316406,50.3671875 281.808594,50.3671875 C278.996094,50.3671875 276.447266,50.8652344 274.162109,51.8613281 C271.876953,52.8574219 269.914062,54.2460938 268.273438,56.0273438 C266.632812,57.8085938 265.367188,59.9121094 264.476562,62.3378906 C263.585938,64.7636719 263.140625,67.3945313 263.140625,70.2304688 C263.140625,72.5976563 263.626953,74.8417969 264.599609,76.9628906 C265.572266,79.0839844 266.890625,80.9472656 268.554688,82.5527344 C270.21875,84.1582031 272.175781,85.4355469 274.425781,86.3847656 C276.675781,87.3339844 279.078125,87.8085938 281.632812,87.8085938 Z M286.238281,62.0039063 L273.933594,62.0039063 C274.050781,60.9257813 274.291016,59.9472656 274.654297,59.0683594 C275.017578,58.1894531 275.462891,57.4394531 275.990234,56.8183594 C276.517578,56.1972656 277.109375,55.7167969 277.765625,55.3769531 C278.421875,55.0371094 279.089844,54.8671875 279.769531,54.8671875 C280.636719,54.8671875 281.445312,55.0371094 282.195312,55.3769531 C282.945312,55.7167969 283.601562,56.203125 284.164062,56.8359375 C284.726562,57.46875 285.189453,58.2246094 285.552734,59.1035156 C285.916016,59.9824219 286.144531,60.9492188 286.238281,62.0039063 L286.238281,62.0039063 Z M318.898438,87 L318.898438,60.703125 C319.53125,60.09375 320.199219,59.5429688 320.902344,59.0507813 C321.605469,58.5585938 322.291016,58.1425781 322.958984,57.8027344 C323.626953,57.4628906 324.265625,57.1992188 324.875,57.0117188 C325.484375,56.8242188 326.023438,56.7304688 326.492188,56.7304688 C326.960938,56.7304688 327.412109,56.8535156 327.845703,57.0996094 C328.279297,57.3457031 328.666016,57.7089844 329.005859,58.1894531 C329.345703,58.6699219 329.615234,59.2675781 329.814453,59.9824219 C330.013672,60.6972656 330.113281,61.5117188 330.113281,62.4257813 L330.113281,62.4257813 L330.113281,87 L340.976562,87 L340.976562,61.265625 C340.976562,59.765625 340.683594,58.3535156 340.097656,57.0292969 C339.511719,55.7050781 338.720703,54.5507813 337.724609,53.5664063 C336.728516,52.5820313 335.568359,51.8027344 334.244141,51.2285156 C332.919922,50.6542969 331.519531,50.3671875 330.042969,50.3671875 C328.144531,50.3671875 326.234375,50.6542969 324.3125,51.2285156 C322.390625,51.8027344 320.585938,52.6992188 318.898438,53.9179688 L318.898438,53.9179688 L318.898438,50.2617188 L315.628906,50.2617188 L307.929688,54.2695313 L307.929688,87 L318.898438,87 Z M364.882812,87 L364.882812,55.3945313 L373.847656,55.3945313 L373.847656,51 L364.882812,51 L364.882812,42.5273438 C364.882812,40.5585938 365.152344,39.0878906 365.691406,38.1152344 C366.230469,37.1425781 366.992188,36.65625 367.976562,36.65625 C368.984375,36.65625 369.828125,36.890625 370.507812,37.359375 C371.1875,37.828125 371.75,38.4023438 372.195312,39.0820313 C372.640625,39.7617188 372.986328,40.4707031 373.232422,41.2089844 C373.478516,41.9472656 373.683594,42.5859375 373.847656,43.125 L373.847656,43.125 L380.492188,39.328125 C380.140625,38.7421875 379.666016,38.0683594 379.068359,37.3066406 C378.470703,36.5449219 377.714844,35.8183594 376.800781,35.1269531 C375.886719,34.4355469 374.785156,33.8496094 373.496094,33.3691406 C372.207031,32.8886719 370.671875,32.6484375 368.890625,32.6484375 C366.710938,32.6484375 364.712891,33.046875 362.896484,33.84375 C361.080078,34.640625 359.509766,35.7070313 358.185547,37.0429688 C356.861328,38.3789063 355.830078,39.9082031 355.091797,41.6308594 C354.353516,43.3535156 353.984375,45.140625 353.984375,46.9921875 L353.984375,46.9921875 L353.984375,51 L346.953125,51 L346.953125,55.3945313 L353.984375,55.3945313 L353.984375,87 L364.882812,87 Z M388.683594,87 L388.683594,32.6484375 L385.414062,32.6484375 L377.820312,36.65625 L377.820312,87 L388.683594,87 Z M416.703125,87.6679688 C419.5625,87.6679688 422.210938,87.1582031 424.648438,86.1386719 C427.085938,85.1191406 429.189453,83.7363281 430.958984,81.9902344 C432.728516,80.2441406 434.111328,78.1992188 435.107422,75.8554688 C436.103516,73.5117188 436.601562,71.015625 436.601562,68.3671875 C436.601562,65.8359375 436.097656,63.4746094 435.089844,61.2832031 C434.082031,59.0917969 432.693359,57.1875 430.923828,55.5703125 C429.154297,53.953125 427.050781,52.6816406 424.613281,51.7558594 C422.175781,50.8300781 419.527344,50.3671875 416.667969,50.3671875 C413.808594,50.3671875 411.166016,50.8417969 408.740234,51.7910156 C406.314453,52.7402344 404.222656,54.0585938 402.464844,55.7460938 C400.707031,57.4335938 399.330078,59.4433594 398.333984,61.7753906 C397.337891,64.1074219 396.839844,66.65625 396.839844,69.421875 C396.839844,72 397.337891,74.3964844 398.333984,76.6113281 C399.330078,78.8261719 400.712891,80.7539063 402.482422,82.3945313 C404.251953,84.0351563 406.349609,85.3242188 408.775391,86.2617188 C411.201172,87.1992188 413.84375,87.6679688 416.703125,87.6679688 Z M417.96875,83.2734375 C416.492188,83.2734375 415.173828,82.8222656 414.013672,81.9199219 C412.853516,81.0175781 411.869141,79.7988281 411.060547,78.2636719 C410.251953,76.7285156 409.630859,74.9296875 409.197266,72.8671875 C408.763672,70.8046875 408.546875,68.6132813 408.546875,66.2929688 C408.546875,64.7460938 408.728516,63.2753906 409.091797,61.8808594 C409.455078,60.4863281 409.941406,59.2558594 410.550781,58.1894531 C411.160156,57.1230469 411.863281,56.2734375 412.660156,55.640625 C413.457031,55.0078125 414.289062,54.6914063 415.15625,54.6914063 C416.9375,54.6914063 418.443359,55.1367188 419.673828,56.0273438 C420.904297,56.9179688 421.90625,58.125 422.679688,59.6484375 C423.453125,61.171875 424.009766,62.9472656 424.349609,64.9746094 C424.689453,67.0019531 424.859375,69.1640625 424.859375,71.4609375 C424.859375,73.0078125 424.689453,74.4960938 424.349609,75.9257813 C424.009766,77.3554688 423.529297,78.6152344 422.908203,79.7050781 C422.287109,80.7949219 421.554688,81.6621094 420.710938,82.3066406 C419.867188,82.9511719 418.953125,83.2734375 417.96875,83.2734375 Z M461.914062,87.8085938 L469.683594,69.7734375 L477.523438,87.8085938 L482.550781,87.8085938 L498.476562,51 L491.410156,51 L482.304688,71.8476563 L472.671875,50.7539063 L470.527344,50.7539063 L461.246094,72.1289063 L451.683594,51 L440.257812,51 L456.570312,87.8085938 L461.914062,87.8085938 Z" id="Sheenflow" fill="#000000" fill-rule="nonzero"></path>
            <path d="M134.679688,26.3427734 C135.722656,26.3427734 136.601562,26.1230469 137.316406,25.6835938 C137.732422,25.4316406 138.201172,24.9980469 138.722656,24.3828125 L138.722656,24.3828125 L138.995117,26 L140.788086,26 L140.788086,19.0478516 L135.391602,19.0478516 L135.391602,21.2099609 L138.388672,21.2099609 C138.253906,22.0595703 137.896484,22.746582 137.316406,23.2709961 C136.736328,23.7954102 135.992188,24.0576172 135.083984,24.0576172 C134.158203,24.0576172 133.332031,23.7265625 132.605469,23.0644531 C131.878906,22.4023438 131.515625,21.2744141 131.515625,19.6806641 C131.515625,18.0986328 131.851074,16.9135742 132.521973,16.1254883 C133.192871,15.3374023 134.049805,14.9433594 135.092773,14.9433594 C135.637695,14.9433594 136.132812,15.0400391 136.578125,15.2333984 C137.375,15.5849609 137.875977,16.203125 138.081055,17.0878906 L138.081055,17.0878906 L140.744141,17.0878906 C140.597656,15.8398438 140.024902,14.7983398 139.025879,13.9633789 C138.026855,13.128418 136.704102,12.7109375 135.057617,12.7109375 C133.15918,12.7109375 131.632812,13.34375 130.478516,14.609375 C129.324219,15.875 128.74707,17.5566406 128.74707,19.6542969 C128.74707,21.7285156 129.318359,23.3632813 130.460938,24.5585938 C131.556641,25.7480469 132.962891,26.3427734 134.679688,26.3427734 Z M146.37793,26.2109375 C146.870117,26.2109375 147.299316,26.1464844 147.665527,26.0175781 C148.031738,25.8886719 148.411133,25.6484375 148.803711,25.296875 C148.932617,25.1855469 149.043945,25.0566406 149.137695,24.9101563 C149.231445,24.7636719 149.290039,24.6757813 149.313477,24.6464844 L149.313477,24.6464844 L149.313477,26 L151.748047,26 L151.748047,16.4199219 L149.208008,16.4199219 L149.208008,21.6318359 C149.208008,22.2470703 149.125977,22.7421875 148.961914,23.1171875 C148.645508,23.8085938 148.05957,24.1542969 147.204102,24.1542969 C146.536133,24.1542969 146.087891,23.9111328 145.859375,23.4248047 C145.730469,23.1494141 145.666016,22.7392578 145.666016,22.1943359 L145.666016,22.1943359 L145.666016,16.4199219 L143.099609,16.4199219 L143.099609,22.1943359 C143.099609,23.2900391 143.237305,24.1191406 143.512695,24.6816406 C144.004883,25.7011719 144.959961,26.2109375 146.37793,26.2109375 Z M156.740234,15.2773438 L156.740234,12.9658203 L154.200195,12.9658203 L154.200195,15.2773438 L156.740234,15.2773438 Z M156.740234,26 L156.740234,16.4199219 L154.200195,16.4199219 L154.200195,26 L156.740234,26 Z M161.679688,26 L161.679688,20.8144531 C161.679688,20.2226563 161.761719,19.7363281 161.925781,19.3554688 C162.242188,18.6347656 162.825195,18.2744141 163.674805,18.2744141 C164.366211,18.2744141 164.834961,18.5205078 165.081055,19.0126953 C165.21582,19.2822266 165.283203,19.6689453 165.283203,20.1728516 L165.283203,20.1728516 L165.283203,26 L167.849609,26 L167.849609,19.5488281 C167.849609,18.3476563 167.534668,17.487793 166.904785,16.9692383 C166.274902,16.4506836 165.464844,16.1914063 164.474609,16.1914063 C163.683594,16.1914063 163.030273,16.3847656 162.514648,16.7714844 C162.227539,16.9882813 161.922852,17.3427734 161.600586,17.8349609 L161.600586,17.8349609 L161.600586,16.4375 L159.183594,16.4375 L159.183594,26 L161.679688,26 Z M173.984375,26.3251953 C175.460938,26.3251953 176.552246,26.0249023 177.258301,25.4243164 C177.964355,24.8237305 178.317383,24.0488281 178.317383,23.0996094 C178.317383,22.3789063 178.071289,21.7783203 177.579102,21.2978516 C177.081055,20.8232422 176.333984,20.46875 175.337891,20.234375 C173.84375,19.90625 172.973633,19.6748047 172.727539,19.5400391 C172.481445,19.4111328 172.358398,19.203125 172.358398,18.9160156 C172.358398,18.6875 172.474121,18.4882813 172.705566,18.3183594 C172.937012,18.1484375 173.325195,18.0634766 173.870117,18.0634766 C174.532227,18.0634766 175.000977,18.2333984 175.276367,18.5732422 C175.422852,18.7607422 175.513672,19.015625 175.548828,19.3378906 L175.548828,19.3378906 L178.053711,19.3378906 C177.942383,18.1660156 177.510254,17.3413086 176.757324,16.8637695 C176.004395,16.3862305 175.030273,16.1474609 173.834961,16.1474609 C172.575195,16.1474609 171.598145,16.465332 170.903809,17.1010742 C170.209473,17.7368164 169.862305,18.4970703 169.862305,19.3818359 C169.862305,20.1318359 170.084961,20.7060547 170.530273,21.1044922 C170.975586,21.5087891 171.740234,21.8457031 172.824219,22.1152344 C174.330078,22.4726563 175.200195,22.7246094 175.43457,22.8710938 C175.668945,23.0175781 175.786133,23.2314453 175.786133,23.5126953 C175.786133,23.8056641 175.641113,24.0253906 175.351074,24.171875 C175.061035,24.3183594 174.669922,24.3916016 174.177734,24.3916016 C173.339844,24.3916016 172.765625,24.2246094 172.455078,23.890625 C172.279297,23.703125 172.165039,23.3867188 172.112305,22.9414063 L172.112305,22.9414063 L169.572266,22.9414063 C169.572266,23.9257813 169.931152,24.7358398 170.648926,25.371582 C171.366699,26.0073242 172.478516,26.3251953 173.984375,26.3251953 Z M184.478516,26.3339844 C186.125,26.3339844 187.352539,25.8344727 188.161133,24.8354492 C188.969727,23.8364258 189.374023,22.6337891 189.374023,21.2275391 C189.374023,19.8447266 188.969727,18.6464844 188.161133,17.6328125 C187.352539,16.6191406 186.125,16.1123047 184.478516,16.1123047 C182.832031,16.1123047 181.604492,16.6191406 180.795898,17.6328125 C179.987305,18.6464844 179.583008,19.8447266 179.583008,21.2275391 C179.583008,22.6337891 179.987305,23.8364258 180.795898,24.8354492 C181.604492,25.8344727 182.832031,26.3339844 184.478516,26.3339844 Z M184.469727,24.2333984 C183.737305,24.2333984 183.17334,23.9726563 182.777832,23.4511719 C182.382324,22.9296875 182.18457,22.1884766 182.18457,21.2275391 C182.18457,20.2666016 182.382324,19.5268555 182.777832,19.0083008 C183.17334,18.4897461 183.737305,18.2304688 184.469727,18.2304688 C185.202148,18.2304688 185.764648,18.4897461 186.157227,19.0083008 C186.549805,19.5268555 186.746094,20.2666016 186.746094,21.2275391 C186.746094,22.1884766 186.549805,22.9296875 186.157227,23.4511719 C185.764648,23.9726563 185.202148,24.2333984 184.469727,24.2333984 Z M195.473633,26.3339844 C197.120117,26.3339844 198.347656,25.8344727 199.15625,24.8354492 C199.964844,23.8364258 200.369141,22.6337891 200.369141,21.2275391 C200.369141,19.8447266 199.964844,18.6464844 199.15625,17.6328125 C198.347656,16.6191406 197.120117,16.1123047 195.473633,16.1123047 C193.827148,16.1123047 192.599609,16.6191406 191.791016,17.6328125 C190.982422,18.6464844 190.578125,19.8447266 190.578125,21.2275391 C190.578125,22.6337891 190.982422,23.8364258 191.791016,24.8354492 C192.599609,25.8344727 193.827148,26.3339844 195.473633,26.3339844 Z M195.464844,24.2333984 C194.732422,24.2333984 194.168457,23.9726563 193.772949,23.4511719 C193.377441,22.9296875 193.179688,22.1884766 193.179688,21.2275391 C193.179688,20.2666016 193.377441,19.5268555 193.772949,19.0083008 C194.168457,18.4897461 194.732422,18.2304688 195.464844,18.2304688 C196.197266,18.2304688 196.759766,18.4897461 197.152344,19.0083008 C197.544922,19.5268555 197.741211,20.2666016 197.741211,21.2275391 C197.741211,22.1884766 197.544922,22.9296875 197.152344,23.4511719 C196.759766,23.9726563 196.197266,24.2333984 195.464844,24.2333984 Z M211.487305,26 L211.487305,23.6708984 L205.071289,23.6708984 L205.071289,13.0449219 L202.364258,13.0449219 L202.364258,26 L211.487305,26 Z M215.503906,26.2988281 C216.183594,26.2988281 216.792969,26.1435547 217.332031,25.8330078 C217.783203,25.5693359 218.181641,25.25 218.527344,24.875 C218.544922,25.0917969 218.568359,25.2851563 218.597656,25.4550781 C218.626953,25.625 218.679688,25.8066406 218.755859,26 L218.755859,26 L221.480469,26 L221.480469,25.6308594 C221.316406,25.5546875 221.193359,25.4580078 221.111328,25.3408203 C221.029297,25.2236328 220.979492,25.0009766 220.961914,24.6728516 C220.950195,24.2392578 220.944336,23.8701172 220.944336,23.5654297 L220.944336,23.5654297 L220.944336,19.1708984 C220.944336,18.0166016 220.537109,17.2314453 219.722656,16.8154297 C218.908203,16.3994141 217.976562,16.1914063 216.927734,16.1914063 C215.316406,16.1914063 214.179688,16.6132813 213.517578,17.4570313 C213.101562,17.9960938 212.867188,18.6845703 212.814453,19.5224609 L212.814453,19.5224609 L215.231445,19.5224609 C215.290039,19.1533203 215.407227,18.8603516 215.583008,18.6435547 C215.829102,18.3505859 216.248047,18.2041016 216.839844,18.2041016 C217.367188,18.2041016 217.76709,18.2788086 218.039551,18.4282227 C218.312012,18.5776367 218.448242,18.8486328 218.448242,19.2412109 C218.448242,19.5634766 218.269531,19.8007813 217.912109,19.953125 C217.712891,20.0410156 217.381836,20.1142578 216.918945,20.1728516 L216.918945,20.1728516 L216.066406,20.2783203 C215.099609,20.4013672 214.367188,20.6064453 213.869141,20.8935547 C212.960938,21.4208984 212.506836,22.2734375 212.506836,23.4511719 C212.506836,24.359375 212.789551,25.0610352 213.35498,25.5561523 C213.92041,26.0512695 214.636719,26.2988281 215.503906,26.2988281 Z M216.242188,24.4794922 C215.902344,24.4794922 215.61377,24.3842773 215.376465,24.1938477 C215.13916,24.003418 215.020508,23.6943359 215.020508,23.2666016 C215.020508,22.7861328 215.213867,22.4316406 215.600586,22.203125 C215.829102,22.0683594 216.207031,21.9541016 216.734375,21.8603516 L216.734375,21.8603516 L217.296875,21.7548828 C217.578125,21.7021484 217.799316,21.6450195 217.960449,21.5834961 C218.121582,21.5219727 218.28125,21.4414063 218.439453,21.3417969 L218.439453,21.3417969 L218.439453,22.2734375 C218.421875,23.1113281 218.186035,23.6884766 217.731934,24.0048828 C217.277832,24.3212891 216.78125,24.4794922 216.242188,24.4794922 Z M228.371094,26.2548828 C229.630859,26.2548828 230.612305,25.765625 231.31543,24.7871094 C232.018555,23.8085938 232.370117,22.5751953 232.370117,21.0869141 C232.370117,19.6513672 232.01416,18.4794922 231.302246,17.5712891 C230.590332,16.6630859 229.604492,16.2089844 228.344727,16.2089844 C227.647461,16.2089844 227.073242,16.3554688 226.62207,16.6484375 C226.241211,16.8828125 225.892578,17.2226563 225.576172,17.6679688 L225.576172,17.6679688 L225.576172,13.0625 L223.080078,13.0625 L223.080078,26 L225.532227,26 L225.532227,24.7958984 C225.866211,25.2646484 226.176758,25.5927734 226.463867,25.7802734 C226.944336,26.0966797 227.580078,26.2548828 228.371094,26.2548828 Z M227.703125,24.1894531 C226.958984,24.1894531 226.405273,23.9199219 226.041992,23.3808594 C225.678711,22.8417969 225.49707,22.1621094 225.49707,21.3417969 C225.49707,20.6445313 225.584961,20.0761719 225.760742,19.6367188 C226.100586,18.8105469 226.724609,18.3974609 227.632812,18.3974609 C228.529297,18.3974609 229.144531,18.8193359 229.478516,19.6630859 C229.654297,20.1083984 229.742188,20.6708984 229.742188,21.3505859 C229.742188,22.2001953 229.563477,22.8857422 229.206055,23.4072266 C228.848633,23.9287109 228.347656,24.1894531 227.703125,24.1894531 Z" id="GuinsooLab" fill="#000000" fill-rule="nonzero"></path>
        </g>
    </g>
</svg>