<?xml version="1.0" encoding="UTF-8"?>
<svg width="453px" height="120px" viewBox="0 0 453 120" version="1.1" xmlns="http://www.w3.org/2000/svg" xmlns:xlink="http://www.w3.org/1999/xlink">
    <title>guinsoolab</title>
    <defs>
        <linearGradient x1="68.3836325%" y1="21.6179979%" x2="18.6631944%" y2="100%" id="linearGradient-1">
            <stop stop-color="#32C5FF" offset="0%"></stop>
            <stop stop-color="#20CEE0" offset="51.2583893%"></stop>
            <stop stop-color="#2700F7" offset="100%"></stop>
        </linearGradient>
    </defs>
    <g id="guinsoolab" stroke="none" stroke-width="1" fill="none" fill-rule="evenodd">
        <g id="icon" transform="translate(5.000000, 0.000000)" fill-rule="nonzero">
            <path d="M62.1153846,35.3333333 L62.1153846,20 C68.3269231,20 73.0769231,15.6666667 73.0769231,10 C73.0769231,4.33333333 68.3269231,0 62.1153846,0 L32.8846154,0 C27.0384615,0 21.9230769,4.33333333 21.9230769,10 C21.9230769,15.6666667 27.0384615,20 32.8846154,20 L32.8846154,35.3333333 C13.8846154,41 0,57.3333333 0,76.6666667 C0,100.666667 21.1923077,120 47.5,120 C73.8076923,120 95,100.666667 95,76.6666667 C95,57.3333333 81.1153846,41 62.1153846,35.3333333 Z M29.2307692,10 C29.2307692,8.33333333 31.0576923,6.66666667 32.8846154,6.66666667 L62.1153846,6.66666667 C63.9423077,6.66666667 65.7692308,8.33333333 65.7692308,10 C65.7692308,11.6666667 63.9423077,13.3333333 62.1153846,13.3333333 L32.8846154,13.3333333 C31.0576923,13.3333333 29.2307692,11.6666667 29.2307692,10 Z M35.0769231,41.6666667 L40.1923077,40.3333333 L40.1923077,20 L54.8076923,20 L54.8076923,40.3333333 L59.9230769,41.6666667 C67.5961538,44 73.8076923,48 78.5576923,53.3333333 L16.4423077,53.3333333 C21.1923077,48 27.7692308,44 35.0769231,41.6666667 L35.0769231,41.6666667 Z M47.5,113.333333 C25.2115385,113.333333 7.30769231,97 7.30769231,76.6666667 C7.30769231,70.6666667 8.76923077,65 11.6923077,60 L83.3076923,60 C86.2307692,65 87.6923077,70.6666667 87.6923077,76.6666667 C87.6923077,97 69.7884615,113.333333 47.5,113.333333 Z" id="Shape" fill="url(#linearGradient-1)"></path>
            <path d="M75.4444697,83.9057984 C73.6185667,83.2281275 71.427483,83.9057984 70.6971218,85.5999756 C67.7756769,91.0213427 63.028329,95.087368 57.5506198,97.7980515 C55.7247168,98.4757224 54.9943556,100.508735 55.7247168,102.202912 C56.455078,103.558254 57.5506198,104.235925 59.0113423,104.235925 C59.3765229,104.235925 60.1068841,104.235925 60.4720647,103.897089 C67.4104963,100.508735 73.2533861,95.087368 76.9051922,88.6494946 C78.000734,86.9553174 77.2703728,84.9223047 75.4444697,83.9057984 L75.4444697,83.9057984 Z" id="Path" fill="#1296DB"></path>
        </g>
        <text id="Guinsoo-Lab" font-family="Orbitron-Regular_Bold, Orbitron" font-size="48" font-weight="bold">
            <tspan x="109.071482" y="95" fill="#000000" fill-opacity="0.983282343">Guinsoo</tspan>
            <tspan x="324.374205" y="95" font-family="PingFangSC-Semibold, PingFang SC" font-weight="500" fill="#090909" fill-opacity="0.640952797"> </tspan>
            <tspan x="340.358205" y="95" font-family="Monoton-Regular, Monoton" font-weight="normal" fill="#000000">Lab</tspan>
        </text>
    </g>
</svg>