<?xml version="1.0" encoding="UTF-8"?>
<svg width="1752px" height="373px" viewBox="0 0 1752 373" version="1.1" xmlns="http://www.w3.org/2000/svg" xmlns:xlink="http://www.w3.org/1999/xlink">
    <title>guinsoo-lab</title>
    <defs>
        <linearGradient x1="66.6472149%" y1="21.6179979%" x2="21.623098%" y2="100%" id="linearGradient-1">
            <stop stop-color="#32C5FF" offset="0%"></stop>
            <stop stop-color="#20CEE0" offset="51.2583893%"></stop>
            <stop stop-color="#2700F7" offset="100%"></stop>
        </linearGradient>
    </defs>
    <g id="guinsoo-lab" stroke="none" stroke-width="1" fill="none" fill-rule="evenodd">
        <g id="icon" transform="translate(16.000000, 0.000000)" fill-rule="nonzero">
            <path d="M183.730769,109.827778 L183.730769,62.1666667 C202.103846,62.1666667 216.153846,48.6972222 216.153846,31.0833333 C216.153846,13.4694444 202.103846,0 183.730769,0 L97.2692308,0 C79.9769231,0 64.8461538,13.4694444 64.8461538,31.0833333 C64.8461538,48.6972222 79.9769231,62.1666667 97.2692308,62.1666667 L97.2692308,109.827778 C41.0692308,127.441667 0,178.211111 0,238.305556 C0,312.905556 62.6846154,373 140.5,373 C218.315385,373 281,312.905556 281,238.305556 C281,178.211111 239.930769,127.441667 183.730769,109.827778 Z M86.4615385,31.0833333 C86.4615385,25.9027778 91.8653846,20.7222222 97.2692308,20.7222222 L183.730769,20.7222222 C189.134615,20.7222222 194.538462,25.9027778 194.538462,31.0833333 C194.538462,36.2638889 189.134615,41.4444444 183.730769,41.4444444 L97.2692308,41.4444444 C91.8653846,41.4444444 86.4615385,36.2638889 86.4615385,31.0833333 Z M103.753846,129.513889 L118.884615,125.369444 L118.884615,62.1666667 L162.115385,62.1666667 L162.115385,125.369444 L177.246154,129.513889 C199.942308,136.766667 218.315385,149.2 232.365385,165.777778 L48.6346154,165.777778 C62.6846154,149.2 82.1384615,136.766667 103.753846,129.513889 L103.753846,129.513889 Z M140.5,352.277778 C74.5730769,352.277778 21.6153846,301.508333 21.6153846,238.305556 C21.6153846,219.655556 25.9384615,202.041667 34.5846154,186.5 L246.415385,186.5 C255.061538,202.041667 259.384615,219.655556 259.384615,238.305556 C259.384615,301.508333 206.426923,352.277778 140.5,352.277778 Z" id="Shape" fill="url(#linearGradient-1)"></path>
            <path d="M223.1568,260.80719 C217.755971,258.700763 211.274976,260.80719 209.114644,266.073258 C200.473318,282.924674 186.431163,295.563236 170.228675,303.988944 C164.827846,306.095371 162.667515,312.414652 164.827846,317.680719 C166.988178,321.893573 170.228675,324 174.549339,324 C175.629504,324 177.789836,324 178.870002,322.946787 C199.393152,312.414652 216.675805,295.563236 227.477463,275.552179 C230.717961,270.286112 228.557629,263.966831 223.1568,260.80719 L223.1568,260.80719 Z" id="Path" fill="#1296DB"></path>
        </g>
        <text id="Guinsoo-Lab" font-family="Orbitron-Regular_Bold, Orbitron" font-size="200" font-weight="bold">
            <tspan x="356.381177" y="304" fill="#000000" fill-opacity="0.5">Guinsoo</tspan>
            <tspan x="1253.47585" y="304" font-family="PingFangSC-Semibold, PingFang SC" font-weight="500" fill="#090909" fill-opacity="0.640952797"> </tspan>
            <tspan x="1320.07585" y="304" font-family="Monoton-Regular, Monoton" font-weight="normal" fill="#000000">Lab</tspan>
        </text>
    </g>
</svg>