<?xml version="1.0" encoding="UTF-8"?>
<svg width="602px" height="602px" viewBox="0 0 602 602" version="1.1" xmlns="http://www.w3.org/2000/svg" xmlns:xlink="http://www.w3.org/1999/xlink">
    <title>GuinsooSearch</title>
    <g id="GuinsooSearch" stroke="none" stroke-width="1" fill="none" fill-rule="evenodd">
        <g id="Group" transform="translate(96.000000, 96.000000)" fill-rule="nonzero">
            <path d="M194.588219,2.86976982 L346.700117,79.9986632 C360.761381,87.1439374 367.017452,105.708294 360.642218,121.467964 C357.841881,128.412904 352.896606,133.955499 346.700117,137.094077 L194.588219,214.222971 C187.259679,217.962553 178.858669,217.962553 171.530129,214.222971 L19.4778124,137.094077 C5.35696623,129.948804 -0.839522882,111.384446 5.4761296,95.6247765 C8.2764661,88.6798371 13.2217414,83.1372415 19.4182306,79.9986632 L171.530129,2.86976982 C178.858669,-0.869812793 187.259679,-0.869812793 194.588219,2.86976982 Z M271.746428,368.681092 L196.971484,406.611145 C189.642944,410.350728 181.241934,410.350728 173.913394,406.611145 L21.8610777,329.482252 C7.79981298,322.336978 1.543742,303.772621 7.91897635,288.012951 C10.7193128,281.068012 15.6645882,275.525416 21.8610777,272.386838 L27.3425873,269.582151 L173.972976,343.906357 C181.301516,347.64594 189.702526,347.64594 197.031066,343.906357 L241.478961,321.335304 C246.126328,343.038239 257.029766,359.53247 271.746428,368.681092 L271.746428,368.681092 Z M239.453185,283.872699 L191.549556,308.179987 C184.221016,311.919569 175.820006,311.919569 168.491466,308.179987 L16.4391492,231.051093 C2.37788487,223.905819 -3.87818611,205.341462 2.49704824,189.581792 C5.29738473,182.636853 10.2426601,177.094257 16.4391492,173.955679 L23.4697815,170.416431 L171.58971,245.541976 C178.91825,249.281559 187.31926,249.281559 194.647801,245.541976 L266.145755,209.28138 C251.667419,230.984315 241.896032,257.361728 239.453185,283.872699 L239.453185,283.872699 Z" id="Shape" fill="#5D99DB"></path>
            <path d="M350.394178,298.83103 C361.297616,286.610608 361.297616,266.777464 350.394178,254.490263 C339.49074,242.269841 321.794996,242.269841 310.831976,254.490263 C299.928538,266.710686 299.928538,286.54383 310.831976,298.83103 C321.794996,311.051452 339.49074,311.051452 350.394178,298.83103 Z M359.033514,330.684261 C337.584128,344.908031 309.52118,341.635896 291.110457,321.001413 C269.303581,296.560569 269.303581,256.827503 291.110457,232.386658 C312.917333,207.945814 348.368402,207.945814 370.175278,232.386658 C388.586002,253.021142 391.44592,284.473703 378.814615,308.513878 L409.73748,343.171796 L389.956379,365.342179 L359.033514,330.684261 L359.033514,330.684261 Z" id="Shape" fill="#3D4265"></path>
        </g>
    </g>
</svg>