<?xml version="1.0" encoding="UTF-8"?>
<svg width="602px" height="602px" viewBox="0 0 602 602" version="1.1" xmlns="http://www.w3.org/2000/svg" xmlns:xlink="http://www.w3.org/1999/xlink">
    <title>GuinsooGraph</title>
    <g id="GuinsooGraph" stroke="none" stroke-width="1" fill="none" fill-rule="evenodd">
        <g id="Group" transform="translate(99.000000, 98.000000)" fill-rule="nonzero">
            <path d="M0.312286435,127.132126 C0.312286435,142.635232 8.59969315,156.960761 22.0530956,164.712359 C35.506498,172.463958 52.0818187,172.463958 65.5352211,164.712359 C78.9886235,156.960761 87.2760303,142.635232 87.2760303,127.132126 C87.2760303,111.629019 78.9886235,97.3034905 65.5352211,89.551892 C52.0818187,81.8002934 35.506498,81.8002934 22.0530956,89.551892 C8.59969315,97.3034905 0.312286435,111.629019 0.312286435,127.132126 L0.312286435,127.132126 Z" id="Path" fill="#5D99DB"></path>
            <path d="M171.597547,43.784516 C171.597547,59.2876991 179.884813,73.6133471 193.338263,81.3650169 C206.791713,89.1166868 223.367125,89.1166868 236.820574,81.3650169 C250.274024,73.6133471 258.561291,59.2876991 258.561291,43.784516 C258.561291,28.2813329 250.274024,13.9556849 236.820574,6.20401499 C223.367125,-1.54765486 206.791713,-1.54765486 193.338263,6.20401499 C179.884813,13.9556849 171.597547,28.2813329 171.597547,43.784516 Z" id="Path" fill="#5D99DB"></path>
            <path d="M61.3707142,361.353812 C61.3707142,376.856919 69.6581209,391.182447 83.1115234,398.934046 C96.5649258,406.685645 113.140246,406.685645 126.593649,398.934046 C140.047051,391.182447 148.334458,376.856919 148.334458,361.353812 C148.334458,345.850706 140.047051,331.525177 126.593649,323.773579 C113.140246,316.02198 96.5649258,316.02198 83.1115234,323.773579 C69.6581209,331.525177 61.3707142,345.850706 61.3707142,361.353812 L61.3707142,361.353812 Z" id="Path" fill="#5D99DB"></path>
            <path d="M317.896527,288.553631 C317.896527,304.056781 326.183854,318.382377 339.637283,326.134016 C353.090712,333.885655 369.666085,333.885655 383.119514,326.134016 C396.572943,318.382377 404.86027,304.056781 404.86027,288.553631 C404.86027,273.050481 396.572943,258.724885 383.119514,250.973246 C369.666085,243.221607 353.090712,243.221607 339.637283,250.973246 C326.183854,258.724885 317.896527,273.050481 317.896527,288.553631 L317.896527,288.553631 Z" id="Path" fill="#5D99DB"></path>
            <path d="M170.735951,213.001946 C170.735951,228.505129 179.023218,242.830777 192.476667,250.582447 C205.930117,258.334117 222.505529,258.334117 235.958978,250.582447 C249.412428,242.830777 257.699695,228.505129 257.699695,213.001946 C257.699695,197.498763 249.412428,183.173115 235.958978,175.421445 C222.505529,167.669775 205.930117,167.669775 192.476667,175.421445 C179.023218,183.173115 170.735951,197.498763 170.735951,213.001946 L170.735951,213.001946 Z" id="Path" fill="#2864A6"></path>
            <path d="M317.034931,148.570919 C317.034931,164.074102 325.322197,178.39975 338.775647,186.15142 C352.229097,193.90309 368.804509,193.90309 382.257958,186.15142 C395.711408,178.39975 403.998674,164.074102 403.998674,148.570919 C403.998674,133.067736 395.711408,118.742088 382.257958,110.990418 C368.804509,103.238748 352.229097,103.238748 338.775647,110.990418 C325.322197,118.742088 317.034931,133.067736 317.034931,148.570919 L317.034931,148.570919 Z" id="Path" fill="#5D99DB"></path>
            <polygon id="Path" fill="#3D4265" points="46.1043841 132.846653 49.962036 125.157922 216.016835 208.127773 212.159757 215.816504"></polygon>
            <polygon id="Path" fill="#3D4265" points="211.116078 56.3955711 219.732036 56.3955711 219.732036 212.772654 211.116078 212.772654"></polygon>
            <polygon id="Path" fill="#3D4265" points="115.569116 361.927042 108.53677 356.960006 210.043104 213.838862 217.075449 218.805898"></polygon>
            <polygon id="Path" fill="#3D4265" points="360.847655 144.502707 364.425001 152.324428 218.639533 218.728512 215.062187 210.906791"></polygon>
            <polygon id="Path" fill="#3D4265" points="209.734078 212.510688 214.042057 205.064433 359.092297 288.641335 354.784318 296.08759"></polygon>
        </g>
    </g>
</svg>