<?xml version="1.0" encoding="UTF-8"?>
<svg width="2806px" height="590px" viewBox="0 0 2806 590" version="1.1" xmlns="http://www.w3.org/2000/svg" xmlns:xlink="http://www.w3.org/1999/xlink">
    <title>guinsoolab-black</title>
    <g id="guinsoolab-black" stroke="none" stroke-width="1" fill="none" fill-rule="evenodd">
        <rect fill="#000000" x="0" y="0" width="2806" height="590"></rect>
        <g id="Group-2" transform="translate(84.000000, 64.000000)">
            <polygon id="Path-25" fill="#FFFFFF" points="0 0 463 0 463 463 0 463"></polygon>
            <g id="Group" transform="translate(243.000000, 248.000000)" fill="#000000">
                <polygon id="Rectangle" transform="translate(142.537037, 81.812500) scale(-1, 1) rotate(90.000000) translate(-142.537037, -81.812500) " points="105.349537 45.349537 179.724537 45.349537 179.724537 118.275463 105.349537 118.275463"></polygon>
                <rect id="Rectangle" x="0" y="0" width="179" height="72.7222222"></rect>
            </g>
        </g>
        <path d="M780,429.6 C801.6,429.6 822.4,426.4 843.2,420 C862.8,413.6 878.8,405.2 891.2,395.2 L891.2,283.2 L769.2,283.2 L769.2,297.6 L875.6,297.6 L875.6,387.6 C864.8,395.6 850.8,402 834,407.2 C816.4,412.4 798.8,415.2 781.2,415.2 C741.2,415.2 710,402 688,376.4 C667.2,352.4 657.2,321.2 657.2,282.8 C657.2,244 667.2,212.4 687.2,187.6 C708.4,160.8 737.2,147.6 773.2,147.6 C802.8,147.6 826.8,155.6 845.2,171.6 C862,186 872.8,206.4 877.6,232 L893.6,232 C888.4,201.6 876,177.6 856.4,160.4 C835.2,142 807.6,132.8 773.2,132.8 C732,132.8 699.2,148 675.2,178.4 C652.8,206 641.6,240.8 641.6,282.8 C641.6,324.8 652.8,359.2 676,386 C700.8,414.8 735.2,429.6 780,429.6 Z M1020.8,429.6 C1052,429.6 1075.6,414.8 1091.2,385.6 L1091.2,424 L1106.4,424 L1106.4,217.2 L1091.2,217.2 L1091.2,342.4 C1090.4,364 1083.6,381.6 1070.8,395.2 C1058,408.8 1042,415.6 1023.6,415.6 C1001.6,415.6 985.6,409.2 975.2,396.8 C965.2,384.8 960.4,367.2 960.4,344 L960.4,217.2 L944.8,217.2 L944.8,344.4 C944.8,401.2 970,429.6 1020.8,429.6 Z M1178.8,178.8 C1183.2,178.8 1186.8,177.2 1190,174 C1193.2,170.8 1194.8,167.2 1194.8,162.8 C1194.8,158 1193.2,154.4 1190,151.6 C1186.8,148.4 1183.2,146.8 1178.8,146.8 C1174,146.8 1170.4,148.4 1167.6,151.6 C1164.4,154.4 1162.8,158 1162.8,162.8 C1162.8,167.2 1164.4,170.8 1167.6,174 C1170.4,177.2 1174,178.8 1178.8,178.8 Z M1186.4,424 L1186.4,217.2 L1171.2,217.2 L1171.2,424 L1186.4,424 Z M1266.8,424 L1266.8,298.8 C1267.6,276.8 1274.4,259.2 1287.2,246 C1299.6,232.4 1315.2,225.6 1334,225.6 C1376,225.6 1397.2,249.6 1397.2,297.6 L1397.2,424 L1412.8,424 L1412.8,297.2 C1412.8,240 1387.2,211.6 1336.4,211.6 C1321.2,211.6 1307.2,215.2 1294.8,223.2 C1282.8,231.2 1273.2,241.6 1266.8,254.8 L1266.8,217.2 L1251.2,217.2 L1251.2,424 L1266.8,424 Z M1536.4,429.6 C1590,429.6 1616.8,408.8 1616.8,368 C1616.8,350.4 1608.4,336.8 1591.6,327.2 C1581.6,321.2 1563.6,314.8 1537.6,308.4 C1516,302.8 1501.2,297.6 1493.2,293.2 C1480,286 1473.6,276.4 1473.6,264.4 C1473.6,253.2 1479.2,244 1490.4,236.8 C1500.8,229.2 1514.4,225.6 1531.2,225.6 C1551.2,225.6 1566.4,230 1577.6,239.2 C1587.2,247.2 1593.2,258.8 1596,274.4 L1611.2,274.4 C1604.8,232.4 1578.4,211.6 1531.2,211.6 C1511.2,211.6 1494,216.4 1480,226 C1465.6,235.6 1458.4,248.8 1458.4,264.8 C1458.4,281.2 1466,294 1481.2,303.2 C1490.8,309.2 1507.6,315.2 1531.6,321.6 C1556.4,328 1572.4,333.2 1579.6,337.2 C1594,344.4 1601.2,354.8 1601.2,368.4 C1601.2,399.6 1579.6,415.6 1536.4,415.6 C1515.2,415.6 1499.2,411.2 1488.8,403.2 C1476.8,394.4 1470,380 1467.6,360 L1452,360 C1456.8,406.4 1485.2,429.6 1536.4,429.6 Z M1744.4,429.6 C1774.4,429.6 1798.4,418.4 1816.4,396 C1832.4,375.2 1840.8,350.4 1840.8,320.8 C1840.8,290.8 1832.4,265.6 1816.4,245.6 C1798.4,222.8 1774.4,211.6 1744.4,211.6 C1714,211.6 1690,222.8 1672.4,245.6 C1656,265.6 1648,290.8 1648,320.8 C1648,350.4 1656,375.2 1672.4,396 C1690,418.4 1714,429.6 1744.4,429.6 Z M1744.4,415.6 C1718.8,415.6 1698.8,405.6 1684,386.4 C1670.4,368.8 1663.6,347.2 1663.6,320.8 C1663.6,294.4 1670.4,272.4 1684,254.8 C1698.8,235.2 1718.8,225.6 1744.4,225.6 C1769.6,225.6 1789.6,235.2 1804.8,254.8 C1818.4,272.4 1825.2,294.4 1825.2,320.8 C1825.2,346.8 1818.4,368.8 1804.8,386.4 C1789.6,405.6 1769.6,415.6 1744.4,415.6 Z M1972.4,429.6 C2002.4,429.6 2026.4,418.4 2044.4,396 C2060.4,375.2 2068.8,350.4 2068.8,320.8 C2068.8,290.8 2060.4,265.6 2044.4,245.6 C2026.4,222.8 2002.4,211.6 1972.4,211.6 C1942,211.6 1918,222.8 1900.4,245.6 C1884,265.6 1876,290.8 1876,320.8 C1876,350.4 1884,375.2 1900.4,396 C1918,418.4 1942,429.6 1972.4,429.6 Z M1972.4,415.6 C1946.8,415.6 1926.8,405.6 1912,386.4 C1898.4,368.8 1891.6,347.2 1891.6,320.8 C1891.6,294.4 1898.4,272.4 1912,254.8 C1926.8,235.2 1946.8,225.6 1972.4,225.6 C1997.6,225.6 2017.6,235.2 2032.8,254.8 C2046.4,272.4 2053.2,294.4 2053.2,320.8 C2053.2,346.8 2046.4,368.8 2032.8,386.4 C2017.6,405.6 1997.6,415.6 1972.4,415.6 Z M2310,424 L2310,409.6 L2131.6,409.6 L2131.6,138.4 L2116,138.4 L2116,424 L2310,424 Z M2404.8,429.6 C2425.2,429.6 2444.4,424 2462.4,412.8 C2476.8,403.2 2488,392.4 2496.8,379.6 L2496.8,424 L2511.6,424 L2511.6,290.4 C2511.6,267.2 2505.6,248.8 2494,235.6 C2480,219.6 2458.8,211.6 2430.8,211.6 C2408.4,211.6 2389.6,216.4 2374.8,226.8 C2358.8,237.2 2349.2,252.4 2345.2,272.4 L2360,274 C2363.2,258 2371.6,245.6 2384.8,237.2 C2396.8,229.2 2412,225.6 2430.4,225.6 C2474.4,225.6 2496.4,247.6 2496.4,292 L2496.4,306 L2440.8,306.4 C2408.8,306.4 2384.4,311.2 2367.6,321.6 C2347.6,332.8 2337.6,350 2337.6,374 C2337.6,391.2 2344,404.8 2357.2,414.8 C2369.2,424.4 2385.2,429.6 2404.8,429.6 Z M2407.6,416 C2391.2,416 2378,412 2368,404.8 C2358,397.2 2353.2,387.2 2353.2,374.4 C2353.2,338.4 2382.4,320 2441.2,319.6 L2496.4,319.2 L2496.4,345.2 C2496.4,361.2 2487.2,376.8 2469.2,392 C2450.4,408 2430,416 2407.6,416 Z M2654.4,429.6 C2684,429.6 2706.8,418.4 2723.6,396.4 C2738.4,376.4 2746,351.2 2746,320.8 C2746,290.4 2738.4,265.2 2723.2,245.2 C2706.4,222.8 2683.6,211.6 2654.8,211.6 C2618,211.6 2592.8,230 2578.4,267.2 L2578.4,132.8 L2562.8,132.8 L2562.8,424 L2577.6,424 L2577.6,375.6 C2591.6,411.6 2617.2,429.6 2654.4,429.6 Z M2653.6,415.6 C2628.8,415.6 2610,406.4 2596.8,388.4 C2584,371.6 2578,350.4 2578,324 L2578,318.8 C2578,292 2584.4,270 2597.2,252.8 C2610.8,234.4 2629.2,225.6 2653.2,225.6 C2678,225.6 2697.2,234.8 2711.2,254 C2724,270.8 2730.4,293.2 2730.4,320.8 C2730.4,348 2724,370.4 2711.6,387.6 C2697.6,406 2678.4,415.6 2653.6,415.6 Z" id="GuinsooLab" fill="#FFFFFF" fill-rule="nonzero"></path>
    </g>
</svg>