<svg width="1214" height="88" viewBox="0 0 1214 88" fill="none" xmlns="http://www.w3.org/2000/svg"><mask id="a" maskUnits="userSpaceOnUse" x="0" y="0" width="1214" height="88"><path fill="#C4C4C4" d="M0 0h1214v88H0z"/></mask><g mask="url(#a)" fill="#BFBFC0"><path d="M2 168.953a1.072 1.072 0 00-1.052 1.285 1.075 1.075 0 001.463.783 1.07 1.07 0 00.662-.993 1.082 1.082 0 00-.314-.761 1.07 1.07 0 00-.76-.314zm0-14.612a1.073 1.073 0 00-1.052 1.286 1.075 1.075 0 001.463.783 1.07 1.07 0 00.662-.993A1.074 1.074 0 002 154.341zm0 29.223a1.072 1.072 0 00-1.052 1.285 1.079 1.079 0 00.843.845 1.07 1.07 0 001.101-.458 1.077 1.077 0 00-.482-1.591 1.071 1.071 0 00-.41-.081zm0-58.445a1.075 1.075 0 10.892 1.673 1.079 1.079 0 00-.482-1.591 1.072 1.072 0 00-.41-.082zm0 14.611a1.08 1.08 0 00-.991.664 1.08 1.08 0 00.233 1.172 1.07 1.07 0 001.83-.76 1.078 1.078 0 00-.662-.994 1.072 1.072 0 00-.41-.082zm0 102.278a1.075 1.075 0 10.892 1.673A1.078 1.078 0 002 242.008zm0-14.611a1.072 1.072 0 00-1.052 1.285 1.078 1.078 0 00.843.845 1.078 1.078 0 001.101-.457 1.079 1.079 0 00-.482-1.591 1.072 1.072 0 00-.41-.082zm0-29.222a1.072 1.072 0 00-1.052 1.285 1.072 1.072 0 002.125-.21 1.082 1.082 0 00-.314-.76 1.073 1.073 0 00-.76-.315zm0 14.611a1.072 1.072 0 00-1.052 1.285 1.075 1.075 0 001.462.783 1.074 1.074 0 00-.41-2.068zM2 95.897a1.071 1.071 0 00-.991.664 1.078 1.078 0 00.782 1.466 1.07 1.07 0 001.101-.457A1.077 1.077 0 002 95.897zm0-58.444a1.071 1.071 0 00-.991.664 1.078 1.078 0 00.782 1.466 1.071 1.071 0 001.282-1.055A1.077 1.077 0 002 37.453zM2 22.84a1.071 1.071 0 00-.991.664 1.078 1.078 0 00.782 1.466 1.071 1.071 0 001.282-1.054A1.077 1.077 0 002 22.84zM2 8.23a1.071 1.071 0 00-.991.663 1.078 1.078 0 00.782 1.466 1.071 1.071 0 001.282-1.054A1.077 1.077 0 002 8.23zm0 43.833a1.07 1.07 0 00-.991.664 1.077 1.077 0 00.782 1.466 1.071 1.071 0 001.282-1.055A1.077 1.077 0 002 52.064zm0 29.222A1.072 1.072 0 00.948 82.57a1.076 1.076 0 00.843.844 1.07 1.07 0 001.1-.457A1.077 1.077 0 002 81.287zm0-14.611a1.071 1.071 0 00-.991.664 1.078 1.078 0 00.782 1.466 1.07 1.07 0 001.101-.458A1.077 1.077 0 002 66.675zm0 189.944a1.075 1.075 0 10.892 1.673 1.079 1.079 0 00-.482-1.591 1.072 1.072 0 00-.41-.082zm0-146.111a1.075 1.075 0 10.892 1.673 1.079 1.079 0 00-.482-1.591 1.072 1.072 0 00-.41-.082zm303-43.833a1.071 1.071 0 00-.991.664 1.074 1.074 0 10.991-.664zm0 43.833a1.07 1.07 0 00-1.052 1.285 1.07 1.07 0 001.944.388 1.078 1.078 0 00-.482-1.591 1.068 1.068 0 00-.41-.082zm0-29.222a1.072 1.072 0 00-1.052 1.285 1.073 1.073 0 102.043-.621 1.072 1.072 0 00-.991-.664zm0 14.611a1.07 1.07 0 00-.991.664 1.074 1.074 0 10.991-.664zm0 43.833a1.08 1.08 0 00-.991.664 1.077 1.077 0 00.782 1.466 1.07 1.07 0 001.282-1.054A1.078 1.078 0 00305 139.73zm0-129.35a1.072 1.072 0 001.052-1.284 1.073 1.073 0 00-2.125.21A1.077 1.077 0 00305 10.38zm0 143.961a1.072 1.072 0 00-.991.664 1.077 1.077 0 00.782 1.466 1.07 1.07 0 001.282-1.054A1.078 1.078 0 00305 154.34zm0-131.5a1.07 1.07 0 00-.991.664 1.074 1.074 0 10.991-.664zm0 29.223a1.071 1.071 0 00-.991.664 1.074 1.074 0 001.883 1.008 1.076 1.076 0 00-.892-1.672zm0-14.611a1.071 1.071 0 00-.991.664 1.074 1.074 0 001.883 1.008 1.076 1.076 0 00-.892-1.672zm0 87.666a1.07 1.07 0 00-1.052 1.285 1.07 1.07 0 001.944.388 1.078 1.078 0 00-.482-1.591 1.068 1.068 0 00-.41-.082zm0 131.5a1.07 1.07 0 00-1.052 1.285 1.07 1.07 0 001.944.388 1.078 1.078 0 00-.482-1.591 1.068 1.068 0 00-.41-.082zm0-29.222a1.071 1.071 0 00-1.052 1.285 1.069 1.069 0 00.843.845c.208.041.424.02.62-.061a1.082 1.082 0 00.662-.994 1.073 1.073 0 00-.663-.993 1.068 1.068 0 00-.41-.082zm0-58.444a1.071 1.071 0 00-1.052 1.285 1.072 1.072 0 102.043-.622 1.069 1.069 0 00-.991-.663zm0 43.833a1.071 1.071 0 00-1.052 1.285 1.072 1.072 0 002.125-.21 1.073 1.073 0 00-.663-.993 1.05 1.05 0 00-.41-.082zm0 29.222a1.07 1.07 0 00-1.052 1.285 1.07 1.07 0 001.944.388 1.077 1.077 0 00-.892-1.673zm0-58.444a1.071 1.071 0 00-1.052 1.285 1.076 1.076 0 00.843.845 1.07 1.07 0 001.101-.458 1.077 1.077 0 00-.482-1.591 1.067 1.067 0 00-.41-.081zm0 14.611a1.071 1.071 0 00-1.052 1.285 1.072 1.072 0 102.043-.622 1.077 1.077 0 00-.991-.663zM115.625.925a1.07 1.07 0 00-.991.664 1.074 1.074 0 10.991-.664zm25.25 0a1.072 1.072 0 00-1.052 1.285 1.073 1.073 0 101.81-.97 1.07 1.07 0 00-.758-.315zm25.25 0a1.07 1.07 0 00-.991.664 1.082 1.082 0 00.233 1.171 1.071 1.071 0 001.831-.76 1.077 1.077 0 00-1.073-1.075zm126.25 0a1.072 1.072 0 00-1.052 1.285 1.073 1.073 0 101.81-.97 1.07 1.07 0 00-.758-.315zm-227.25 0a1.071 1.071 0 00-1.052 1.285 1.076 1.076 0 00.842.845A1.07 1.07 0 0066.198 2 1.076 1.076 0 0065.125.925zm202 0a1.07 1.07 0 00-.991.664 1.074 1.074 0 10.991-.664zm-227.25 0a1.07 1.07 0 00-.991.663 1.077 1.077 0 00.782 1.467A1.07 1.07 0 0040.948 2 1.076 1.076 0 0039.875.925zm151.5 0a1.07 1.07 0 00-.991.664 1.074 1.074 0 10.991-.664zm-101 0a1.07 1.07 0 00-.991.664 1.077 1.077 0 00.782 1.466A1.07 1.07 0 0091.448 2a1.078 1.078 0 00-.662-.994 1.07 1.07 0 00-.411-.081zm126.25 0a1.072 1.072 0 00-1.052 1.285 1.073 1.073 0 101.81-.97 1.07 1.07 0 00-.758-.315zm-202 0a1.071 1.071 0 00-.991.664 1.077 1.077 0 00.782 1.466A1.07 1.07 0 0015.698 2a1.078 1.078 0 00-.662-.994 1.07 1.07 0 00-.411-.081zm227.25 0a1.07 1.07 0 00-.991.664 1.082 1.082 0 00.233 1.171 1.071 1.071 0 001.831-.76 1.077 1.077 0 00-1.073-1.075zM103 154.34a1.071 1.071 0 00-1.052 1.285 1.075 1.075 0 00.842.845 1.07 1.07 0 001.102-.457 1.077 1.077 0 00-.892-1.673zm0 87.667a1.071 1.071 0 00-1.052 1.285 1.075 1.075 0 00.842.845 1.07 1.07 0 001.102-.457 1.078 1.078 0 00-.134-1.358 1.072 1.072 0 00-.758-.315zm0-43.833a1.071 1.071 0 00-1.052 1.285 1.072 1.072 0 002.125-.21 1.074 1.074 0 00-1.073-1.075zm0 29.222a1.071 1.071 0 00-1.052 1.285 1.072 1.072 0 002.125-.21 1.074 1.074 0 00-1.073-1.075zm0-43.833a1.071 1.071 0 00-1.052 1.285 1.072 1.072 0 002.125-.21 1.076 1.076 0 00-1.073-1.075zm0-14.611a1.071 1.071 0 00-1.052 1.284 1.07 1.07 0 001.944.388 1.075 1.075 0 00-.892-1.672zm0 43.833a1.074 1.074 0 10.001 2.148 1.074 1.074 0 00-.001-2.148zM103 8.23a1.07 1.07 0 00-.991.664 1.072 1.072 0 102.064.412A1.073 1.073 0 00103 8.23zm12.625 241.084a1.069 1.069 0 00-.991.664 1.073 1.073 0 10.991-.664zM103 22.841a1.07 1.07 0 00-.991.664 1.073 1.073 0 101.749-.348 1.07 1.07 0 00-.758-.316zm12.625 197.25a1.07 1.07 0 00-.991.664 1.077 1.077 0 00.782 1.466 1.07 1.07 0 001.282-1.054 1.078 1.078 0 00-1.073-1.076zM103 37.453a1.07 1.07 0 00-.991.663 1.073 1.073 0 102.064.412A1.074 1.074 0 00103 37.453zm12.625 197.25a1.069 1.069 0 00-.991.664 1.073 1.073 0 00.782 1.465 1.07 1.07 0 001.282-1.054 1.081 1.081 0 00-.663-.994 1.067 1.067 0 00-.41-.081zM103 52.063a1.07 1.07 0 00-.991.664 1.073 1.073 0 102.064.411A1.077 1.077 0 00103 52.065zm0 58.445a1.071 1.071 0 00-1.052 1.285 1.075 1.075 0 00.842.845 1.07 1.07 0 001.102-.457 1.078 1.078 0 00-.134-1.358 1.072 1.072 0 00-.758-.315zm0 29.222a1.071 1.071 0 00-1.052 1.285 1.075 1.075 0 00.842.845 1.07 1.07 0 001.102-.457 1.077 1.077 0 00-.892-1.673zm0-43.833a1.07 1.07 0 00-.991.663 1.073 1.073 0 102.064.412A1.073 1.073 0 00103 95.897zm0 29.222a1.071 1.071 0 00-1.052 1.285 1.075 1.075 0 00.842.845 1.078 1.078 0 001.102-.457 1.078 1.078 0 00-.134-1.358 1.072 1.072 0 00-.758-.315zm0-43.833a1.072 1.072 0 00-1.052 1.284 1.073 1.073 0 101.81-.969 1.07 1.07 0 00-.758-.315zm0-14.611a1.07 1.07 0 00-.991.663 1.073 1.073 0 102.064.412A1.073 1.073 0 00103 66.675zM77.75 22.84a1.072 1.072 0 00-1.052 1.285 1.076 1.076 0 00.843.845 1.07 1.07 0 001.101-.457 1.077 1.077 0 00-.892-1.673zm12.625 226.473a1.072 1.072 0 00-1.052 1.285 1.079 1.079 0 00.843.845 1.07 1.07 0 001.102-.458 1.078 1.078 0 00-.482-1.591 1.071 1.071 0 00-.411-.081zm0-29.223a1.072 1.072 0 00-.991.664 1.08 1.08 0 00.233 1.172 1.07 1.07 0 001.65-.163 1.078 1.078 0 00-.892-1.673zm0-43.833a1.074 1.074 0 10.892 1.673 1.078 1.078 0 00-.892-1.673zm0 14.611a1.074 1.074 0 10.892 1.673 1.078 1.078 0 00-.481-1.591 1.072 1.072 0 00-.411-.082zm0 14.611a1.08 1.08 0 00-.991.664 1.08 1.08 0 00.233 1.172 1.07 1.07 0 001.65-.163 1.078 1.078 0 00-.892-1.673zm0 29.223a1.071 1.071 0 00-1.052 1.285 1.075 1.075 0 001.463.783 1.07 1.07 0 00.662-.993 1.083 1.083 0 00-.314-.761 1.07 1.07 0 00-.76-.314zM77.75 8.23a1.07 1.07 0 00-.991.664 1.077 1.077 0 00.782 1.466 1.07 1.07 0 001.282-1.054A1.076 1.076 0 0077.75 8.23zm0 58.445a1.07 1.07 0 00-.991.663 1.077 1.077 0 00.782 1.467 1.071 1.071 0 001.282-1.055 1.076 1.076 0 00-1.073-1.075zm0 14.61a1.07 1.07 0 00-.991.664 1.078 1.078 0 00.781 1.466 1.07 1.07 0 001.283-1.054 1.077 1.077 0 00-1.073-1.075zm0-43.832a1.07 1.07 0 00-.991.663 1.077 1.077 0 00.782 1.466 1.07 1.07 0 001.282-1.054 1.076 1.076 0 00-1.073-1.075zm0 14.61a1.071 1.071 0 00-.991.664 1.078 1.078 0 00.782 1.467 1.07 1.07 0 001.101-.458 1.077 1.077 0 00-.892-1.672zm12.625 65.751a1.072 1.072 0 00-1.052 1.285 1.079 1.079 0 00.843.845 1.07 1.07 0 001.102-.458 1.078 1.078 0 00-.482-1.591 1.071 1.071 0 00-.411-.081zm0-73.056a1.07 1.07 0 00-.991.664 1.078 1.078 0 00.782 1.466 1.07 1.07 0 001.101-.457 1.077 1.077 0 00-.892-1.673zm0 116.889a1.071 1.071 0 00-1.052 1.285 1.078 1.078 0 00.843.845 1.078 1.078 0 001.101-.457 1.078 1.078 0 00-.481-1.591 1.072 1.072 0 00-.411-.082zm0-131.5a1.07 1.07 0 00-.991.664 1.077 1.077 0 00.782 1.466 1.07 1.07 0 001.101-.457 1.077 1.077 0 00-.892-1.673zm0 43.833a1.07 1.07 0 00-.991.664 1.078 1.078 0 00.782 1.466 1.07 1.07 0 001.101-.457 1.077 1.077 0 00-.892-1.673zm0-58.444a1.072 1.072 0 00-1.052 1.285 1.076 1.076 0 00.843.845 1.07 1.07 0 001.282-1.055 1.078 1.078 0 00-.662-.994 1.068 1.068 0 00-.411-.081zm0 43.833a1.07 1.07 0 00-.991.664 1.077 1.077 0 00.782 1.466 1.07 1.07 0 001.101-.457 1.077 1.077 0 00-.892-1.673zm0 73.056a1.071 1.071 0 00-1.052 1.285 1.071 1.071 0 001.944.387 1.073 1.073 0 00-.133-1.358 1.071 1.071 0 00-.759-.314zm0 14.611a1.072 1.072 0 00-1.052 1.285 1.075 1.075 0 001.463.783 1.074 1.074 0 00.348-1.753 1.071 1.071 0 00-.759-.315zm0-58.445a1.07 1.07 0 00-.991.664 1.077 1.077 0 00.782 1.466 1.07 1.07 0 001.101-.457 1.077 1.077 0 00-.892-1.673zm0 14.612a1.071 1.071 0 00-1.052 1.285 1.075 1.075 0 001.463.783 1.07 1.07 0 00.662-.993 1.083 1.083 0 00-.314-.761 1.07 1.07 0 00-.76-.314zM103 256.619a1.071 1.071 0 00-1.052 1.285 1.075 1.075 0 00.842.845 1.078 1.078 0 001.102-.457 1.078 1.078 0 00-.134-1.358 1.072 1.072 0 00-.758-.315zm25.25-73.055a1.071 1.071 0 00-1.052 1.285 1.078 1.078 0 00.843.845 1.07 1.07 0 001.101-.458 1.077 1.077 0 00-.481-1.591 1.075 1.075 0 00-.411-.081zm12.625 36.527a1.071 1.071 0 00-1.052 1.285 1.075 1.075 0 00.842.845 1.07 1.07 0 001.102-.457 1.077 1.077 0 00-.892-1.673zm0-58.444a1.071 1.071 0 00-1.052 1.285 1.072 1.072 0 002.125-.21 1.074 1.074 0 00-1.073-1.075zm0 43.833a1.071 1.071 0 00-1.052 1.285 1.075 1.075 0 00.842.845 1.072 1.072 0 001.283-1.054c0-.285-.113-.559-.315-.76a1.073 1.073 0 00-.758-.316zm0-14.611a1.071 1.071 0 00-1.052 1.285 1.075 1.075 0 00.842.845 1.078 1.078 0 001.102-.457 1.078 1.078 0 00-.134-1.358 1.072 1.072 0 00-.758-.315zm0 58.445a1.071 1.071 0 00-1.052 1.285 1.072 1.072 0 002.125-.21 1.076 1.076 0 00-1.073-1.075zm0-73.056a1.071 1.071 0 00-1.052 1.285 1.075 1.075 0 00.842.845 1.07 1.07 0 001.102-.457 1.077 1.077 0 00-.892-1.673zm0 58.445a1.071 1.071 0 00-1.052 1.284 1.07 1.07 0 001.944.388 1.075 1.075 0 00-.892-1.672zM128.25 8.23a1.07 1.07 0 00-.991.664 1.082 1.082 0 00.233 1.172 1.072 1.072 0 001.749-1.172 1.077 1.077 0 00-.991-.664zm0 58.445a1.071 1.071 0 00-.991.664 1.082 1.082 0 00.233 1.171 1.071 1.071 0 001.831-.76 1.077 1.077 0 00-1.073-1.075zm0 14.61a1.071 1.071 0 00-.991.665 1.082 1.082 0 00.233 1.171 1.072 1.072 0 001.749-1.171 1.054 1.054 0 00-.58-.582 1.074 1.074 0 00-.411-.082zm0-58.444a1.071 1.071 0 00-.991.664 1.083 1.083 0 00.233 1.172 1.071 1.071 0 001.831-.76 1.076 1.076 0 00-1.073-1.076zm0 29.223a1.07 1.07 0 00-.991.664 1.082 1.082 0 00.233 1.172 1.071 1.071 0 001.831-.761 1.076 1.076 0 00-1.073-1.075zm12.625-7.306a1.07 1.07 0 00-.991.664 1.073 1.073 0 101.749-.348 1.07 1.07 0 00-.758-.316zm0 102.278a1.074 1.074 0 10.001 2.148 1.074 1.074 0 00-.001-2.148zm0-116.889a1.07 1.07 0 00-.991.664 1.073 1.073 0 102.064.412 1.073 1.073 0 00-1.073-1.076zm-12.625 65.75a1.07 1.07 0 00-.991.664 1.082 1.082 0 00.233 1.172 1.071 1.071 0 001.831-.76 1.077 1.077 0 00-1.073-1.076zM115.625 205.48a1.08 1.08 0 00-.991.664 1.077 1.077 0 00.782 1.466 1.07 1.07 0 001.282-1.054 1.078 1.078 0 00-1.073-1.076zM77.75 95.897a1.07 1.07 0 00-.991.663 1.077 1.077 0 00.782 1.467 1.071 1.071 0 001.282-1.055 1.076 1.076 0 00-1.073-1.075zm63.125-36.528a1.07 1.07 0 00-.991.664 1.073 1.073 0 101.749-.348 1.07 1.07 0 00-.758-.316zm0 73.056a1.071 1.071 0 00-1.052 1.285 1.072 1.072 0 002.125-.21 1.074 1.074 0 00-1.073-1.075zm0-14.611a1.071 1.071 0 00-1.052 1.285 1.072 1.072 0 002.125-.21 1.076 1.076 0 00-1.073-1.075zm0-29.223a1.07 1.07 0 00-.991.664 1.073 1.073 0 101.749-.348 1.07 1.07 0 00-.758-.316zm0 14.612a1.071 1.071 0 00-1.052 1.284 1.07 1.07 0 001.944.388 1.075 1.075 0 00-.892-1.672zm0-29.223a1.07 1.07 0 00-.991.664 1.073 1.073 0 101.749-.348 1.07 1.07 0 00-.758-.316zm0-58.444a1.072 1.072 0 00-1.052 1.284 1.073 1.073 0 101.81-.969 1.07 1.07 0 00-.758-.315zm-25.25 73.055a1.069 1.069 0 00-.991.664 1.074 1.074 0 001.883 1.009 1.076 1.076 0 00-.892-1.673zm0 14.612a1.069 1.069 0 00-.991.664 1.073 1.073 0 00.782 1.465 1.07 1.07 0 001.282-1.054 1.081 1.081 0 00-.663-.994 1.067 1.067 0 00-.41-.081zm0-29.223a1.069 1.069 0 00-.991.664 1.074 1.074 0 001.883 1.009 1.076 1.076 0 00-.892-1.673zm0-14.61a1.068 1.068 0 00-.991.663 1.074 1.074 0 001.883 1.009 1.076 1.076 0 00-.892-1.673zm0-14.612a1.069 1.069 0 00-.991.664 1.074 1.074 0 001.883 1.009 1.076 1.076 0 00-.892-1.673zm0 73.056a1.069 1.069 0 00-.991.664 1.073 1.073 0 10.991-.664zm0 73.055a1.07 1.07 0 00-1.052 1.285 1.069 1.069 0 00.843.845 1.076 1.076 0 10.209-2.13zm0-14.611a1.07 1.07 0 00-1.052 1.285 1.07 1.07 0 001.944.388 1.077 1.077 0 00-.892-1.673zm0-29.222a1.071 1.071 0 00-1.052 1.285 1.072 1.072 0 002.125-.21 1.072 1.072 0 00-1.073-1.075zm0-14.611a1.069 1.069 0 00-.991.664 1.073 1.073 0 00.233 1.171 1.072 1.072 0 001.749-1.171 1.064 1.064 0 00-.991-.664zm0 29.222a1.069 1.069 0 00-.991.664 1.073 1.073 0 10.991-.664zm12.625-36.528a1.076 1.076 0 00-.209 2.13 1.076 1.076 0 10.209-2.13zm0 73.056a1.071 1.071 0 00-1.052 1.285 1.077 1.077 0 00.843.845 1.07 1.07 0 001.101-.458 1.072 1.072 0 00-.133-1.357 1.078 1.078 0 00-.759-.315zm0-43.834a1.072 1.072 0 00-.991.664 1.08 1.08 0 00.782 1.466 1.07 1.07 0 001.282-1.054 1.074 1.074 0 00-1.073-1.076zm0 14.612a1.071 1.071 0 00-1.052 1.285 1.08 1.08 0 00.843.844 1.07 1.07 0 001.282-1.054 1.081 1.081 0 00-.662-.994 1.075 1.075 0 00-.411-.081zM115.625 30.147a1.07 1.07 0 00-.991.664 1.074 1.074 0 10.991-.664zM128.25 139.73a1.08 1.08 0 00-.991.664 1.08 1.08 0 00.782 1.466 1.07 1.07 0 001.282-1.054 1.078 1.078 0 00-1.073-1.076zm0-29.222a1.076 1.076 0 00-.209 2.13 1.07 1.07 0 001.282-1.055 1.073 1.073 0 00-.662-.993 1.076 1.076 0 00-.411-.082zm0 102.278a1.071 1.071 0 00-1.052 1.285 1.073 1.073 0 101.811-.97 1.075 1.075 0 00-.759-.315zm-12.625-197.25a1.072 1.072 0 00-1.052 1.285 1.072 1.072 0 002.125-.21 1.074 1.074 0 00-1.073-1.075zm12.625 241.083a1.076 1.076 0 00-.209 2.13 1.076 1.076 0 10.209-2.13zm0-14.611a1.076 1.076 0 00-.209 2.13 1.07 1.07 0 001.282-1.054 1.074 1.074 0 00-1.073-1.076zm0-14.611a1.071 1.071 0 00-1.052 1.285 1.078 1.078 0 001.463.784 1.082 1.082 0 00.662-.994 1.073 1.073 0 00-.662-.993 1.076 1.076 0 00-.411-.082zm0-189.944a1.071 1.071 0 00-.991.664 1.082 1.082 0 00.233 1.171 1.072 1.072 0 001.749-1.172 1.07 1.07 0 00-.991-.663zM39.875 59.369a1.07 1.07 0 00-.991.664 1.076 1.076 0 00.782 1.466 1.07 1.07 0 001.282-1.055 1.076 1.076 0 00-1.073-1.075zM27.25 154.341a1.073 1.073 0 00-1.052 1.286 1.075 1.075 0 001.463.783 1.07 1.07 0 00.662-.993 1.078 1.078 0 00-1.073-1.076zm0-102.277a1.07 1.07 0 00-.99.664 1.077 1.077 0 00.781 1.466 1.071 1.071 0 001.282-1.055 1.076 1.076 0 00-1.073-1.075zm0-43.834a1.071 1.071 0 00-.99.664 1.078 1.078 0 00.781 1.466 1.071 1.071 0 001.282-1.054A1.077 1.077 0 0027.25 8.23zm0 58.445a1.071 1.071 0 00-1.052 1.285 1.076 1.076 0 001.463.783 1.073 1.073 0 00.662-.993 1.077 1.077 0 00-1.073-1.075zm12.625 182.639a1.073 1.073 0 00-1.052 1.285 1.075 1.075 0 001.463.783 1.07 1.07 0 00.662-.993 1.076 1.076 0 00-1.073-1.075zM27.25 81.286a1.072 1.072 0 00-1.052 1.285 1.077 1.077 0 00.843.844 1.07 1.07 0 001.101-.457 1.077 1.077 0 00-.892-1.672zm0 43.833a1.075 1.075 0 10.411 2.069 1.076 1.076 0 00-.41-2.069zm12.625 109.584a1.072 1.072 0 00-1.052 1.284 1.074 1.074 0 101.81-.969 1.07 1.07 0 00-.758-.315zM77.75 110.508a1.072 1.072 0 00-1.052 1.285 1.078 1.078 0 00.843.845 1.07 1.07 0 001.101-.457 1.078 1.078 0 00-.133-1.358 1.074 1.074 0 00-.759-.315zm-50.5-14.611a1.071 1.071 0 00-1.052 1.285 1.076 1.076 0 001.463.784 1.073 1.073 0 00.662-.994 1.077 1.077 0 00-1.073-1.075zm0 14.611a1.075 1.075 0 10.411 2.069 1.076 1.076 0 00-.41-2.069zm0-73.055a1.071 1.071 0 00-1.052 1.285 1.076 1.076 0 001.463.783 1.073 1.073 0 00.662-.993 1.077 1.077 0 00-1.073-1.075zm12.625 94.972a1.072 1.072 0 00-1.052 1.285 1.075 1.075 0 001.462.783 1.07 1.07 0 00.663-.993 1.077 1.077 0 00-1.073-1.075zm0-14.611a1.073 1.073 0 00-1.052 1.285 1.075 1.075 0 001.463.783 1.07 1.07 0 00.662-.993 1.076 1.076 0 00-1.073-1.075zm0-14.611a1.072 1.072 0 00-1.052 1.284 1.074 1.074 0 101.81-.969 1.07 1.07 0 00-.758-.315zm0-14.612a1.072 1.072 0 00-1.052 1.285 1.076 1.076 0 00.843.845 1.07 1.07 0 001.282-1.054 1.076 1.076 0 00-1.073-1.076zm0-14.61a1.07 1.07 0 00-.991.663 1.077 1.077 0 00.782 1.466 1.07 1.07 0 001.101-.457 1.077 1.077 0 00-.892-1.673zm0 146.11a1.072 1.072 0 00-1.052 1.285 1.078 1.078 0 00.843.845 1.07 1.07 0 001.101-.457 1.078 1.078 0 00-.892-1.673zm0-29.222a1.072 1.072 0 00-1.052 1.285 1.078 1.078 0 00.843.845 1.078 1.078 0 001.101-.457 1.078 1.078 0 00-.133-1.358 1.074 1.074 0 00-.759-.315zm0 14.611a1.072 1.072 0 00-1.052 1.285 1.078 1.078 0 00.843.845 1.07 1.07 0 001.282-1.054 1.075 1.075 0 00-1.073-1.076zm0-29.222a1.072 1.072 0 00-1.052 1.285 1.078 1.078 0 00.843.845 1.07 1.07 0 001.101-.457 1.078 1.078 0 00-.892-1.673zm0-14.611a1.072 1.072 0 00-1.052 1.285 1.075 1.075 0 001.462.784 1.078 1.078 0 00.348-1.754 1.074 1.074 0 00-.758-.315zm0-14.611a1.072 1.072 0 00-1.052 1.284 1.074 1.074 0 001.462.784 1.074 1.074 0 00-.41-2.068zM27.25 22.841a1.071 1.071 0 00-1.052 1.286 1.075 1.075 0 001.463.783 1.073 1.073 0 00.662-.993 1.077 1.077 0 00-1.073-1.076zM14.625 147.036a1.072 1.072 0 00-1.052 1.285 1.075 1.075 0 001.463.783 1.074 1.074 0 00.348-1.753 1.071 1.071 0 00-.759-.315zm0 14.611a1.072 1.072 0 00-1.052 1.285 1.078 1.078 0 00.843.845 1.078 1.078 0 001.101-.457 1.078 1.078 0 00-.481-1.591 1.072 1.072 0 00-.411-.082zm0-43.833a1.072 1.072 0 00-1.052 1.285 1.079 1.079 0 00.843.845 1.07 1.07 0 001.101-.458 1.078 1.078 0 00-.481-1.591 1.071 1.071 0 00-.411-.081zm0 58.444a1.074 1.074 0 10.892 1.673 1.078 1.078 0 00-.892-1.673zm0-43.833a1.072 1.072 0 00-1.052 1.285 1.071 1.071 0 001.944.387 1.073 1.073 0 00-.133-1.358 1.071 1.071 0 00-.759-.314zm0 102.278a1.072 1.072 0 00-1.052 1.285 1.075 1.075 0 001.463.783 1.07 1.07 0 00.662-.993 1.083 1.083 0 00-.314-.761 1.07 1.07 0 00-.76-.314zm0-146.112a1.071 1.071 0 00-.991.664 1.076 1.076 0 00.782 1.466 1.07 1.07 0 001.101-.457 1.077 1.077 0 00-.892-1.673zm0 160.723a1.072 1.072 0 00-1.052 1.285 1.079 1.079 0 00.843.845 1.07 1.07 0 001.101-.458 1.078 1.078 0 00-.481-1.591 1.071 1.071 0 00-.411-.081zm0-43.834a1.08 1.08 0 00-.991.664 1.08 1.08 0 00.233 1.172 1.07 1.07 0 001.65-.163 1.078 1.078 0 00-.892-1.673zm0-14.611a1.074 1.074 0 10.892 1.673 1.078 1.078 0 00-.481-1.591 1.072 1.072 0 00-.411-.082zm0 29.222a1.073 1.073 0 00-1.052 1.286 1.075 1.075 0 001.463.783 1.07 1.07 0 00.662-.993 1.075 1.075 0 00-1.073-1.076zm12.625-21.916a1.072 1.072 0 00-1.052 1.285 1.071 1.071 0 001.944.387 1.073 1.073 0 00-.133-1.357 1.07 1.07 0 00-.759-.315zm0 43.833a1.075 1.075 0 10.411 2.069 1.076 1.076 0 00-.41-2.069zm0-14.611a1.072 1.072 0 00-1.052 1.285 1.078 1.078 0 00.843.845 1.078 1.078 0 001.101-.457 1.078 1.078 0 00-.133-1.358 1.07 1.07 0 00-.759-.315zm0-14.611a1.072 1.072 0 00-1.052 1.285 1.075 1.075 0 001.463.783 1.075 1.075 0 00-.41-2.068zm0-29.222a1.072 1.072 0 00-1.052 1.285 1.079 1.079 0 00.843.845 1.07 1.07 0 001.102-.458 1.077 1.077 0 00-.134-1.357 1.07 1.07 0 00-.759-.315zM14.625 73.98a1.071 1.071 0 00-.991.664 1.077 1.077 0 00.782 1.466 1.07 1.07 0 001.101-.457 1.077 1.077 0 00-.892-1.673zm12.625 94.973a1.072 1.072 0 00-1.052 1.285 1.075 1.075 0 001.463.783 1.07 1.07 0 00.662-.993 1.075 1.075 0 00-1.073-1.075zM14.625 44.758a1.071 1.071 0 00-.991.664 1.077 1.077 0 00.782 1.466 1.07 1.07 0 001.101-.457 1.077 1.077 0 00-.892-1.673zm0 14.611a1.07 1.07 0 00-.991.664 1.076 1.076 0 00.782 1.466 1.07 1.07 0 001.101-.457 1.077 1.077 0 00-.892-1.673zM27.25 256.62a1.075 1.075 0 10.411 2.069 1.076 1.076 0 00-.41-2.069zM14.625 15.536a1.072 1.072 0 00-1.052 1.285 1.076 1.076 0 00.843.845 1.07 1.07 0 001.282-1.055 1.078 1.078 0 00-.662-.994 1.068 1.068 0 00-.411-.081zm0 14.611a1.071 1.071 0 00-.991.664 1.076 1.076 0 00.782 1.466 1.07 1.07 0 001.101-.457 1.077 1.077 0 00-.892-1.673zM27.25 139.73a1.08 1.08 0 00-.99.664 1.08 1.08 0 00.232 1.172 1.07 1.07 0 001.65-.163 1.078 1.078 0 00-.892-1.673zm37.875-65.75a1.072 1.072 0 00-1.052 1.285 1.076 1.076 0 00.842.845 1.07 1.07 0 001.102-.457 1.077 1.077 0 00-.892-1.673zm0 131.5a1.072 1.072 0 00-1.052 1.285 1.078 1.078 0 00.842.845 1.07 1.07 0 001.282-1.054 1.076 1.076 0 00-1.072-1.076zm0-102.277a1.072 1.072 0 00-1.052 1.284 1.074 1.074 0 101.81-.969 1.07 1.07 0 00-.758-.315zm0-43.834a1.07 1.07 0 00-.991.664 1.078 1.078 0 00.781 1.466 1.07 1.07 0 001.102-.457 1.077 1.077 0 00-.892-1.673zm0-14.61a1.072 1.072 0 00-1.052 1.284 1.076 1.076 0 00.842.845 1.07 1.07 0 001.102-.457 1.077 1.077 0 00-.892-1.673zm0 73.055a1.072 1.072 0 00-1.052 1.285 1.074 1.074 0 001.944.387 1.077 1.077 0 00-.134-1.357 1.07 1.07 0 00-.758-.315zm0 14.611a1.072 1.072 0 00-1.052 1.285 1.075 1.075 0 001.462.783 1.07 1.07 0 00.663-.993 1.077 1.077 0 00-1.073-1.075zm0 43.833a1.072 1.072 0 00-1.052 1.285 1.078 1.078 0 00.842.845 1.07 1.07 0 001.102-.457 1.078 1.078 0 00-.892-1.673zm0 14.611a1.072 1.072 0 00-1.052 1.285 1.078 1.078 0 00.842.845 1.078 1.078 0 001.102-.457 1.078 1.078 0 00-.134-1.358 1.074 1.074 0 00-.758-.315zm0-43.833a1.072 1.072 0 00-1.052 1.284 1.073 1.073 0 101.81-.969 1.07 1.07 0 00-.758-.315zm0-116.889a1.07 1.07 0 00-.991.664 1.079 1.079 0 00.781 1.466 1.071 1.071 0 001.283-1.055 1.077 1.077 0 00-1.073-1.075zm0 131.5a1.072 1.072 0 00-1.052 1.285 1.075 1.075 0 001.462.784 1.078 1.078 0 00.348-1.754 1.074 1.074 0 00-.758-.315zm0-73.056a1.072 1.072 0 00-1.052 1.285 1.076 1.076 0 00.842.845 1.07 1.07 0 001.102-.457 1.077 1.077 0 00-.892-1.673zm0-73.055a1.07 1.07 0 00-.991.663 1.078 1.078 0 00.781 1.466 1.071 1.071 0 001.283-1.054 1.077 1.077 0 00-1.073-1.075zM77.75 168.953a1.072 1.072 0 00-1.052 1.284 1.074 1.074 0 101.81-.969 1.07 1.07 0 00-.758-.315zm0 14.611a1.073 1.073 0 00-1.052 1.285 1.075 1.075 0 001.463.783 1.07 1.07 0 00.662-.993 1.076 1.076 0 00-1.073-1.075zm0-58.445a1.072 1.072 0 00-1.052 1.285 1.078 1.078 0 00.843.845 1.078 1.078 0 001.101-.457 1.078 1.078 0 00-.133-1.358 1.074 1.074 0 00-.759-.315zm0 14.611a1.072 1.072 0 00-1.052 1.285 1.078 1.078 0 00.843.845 1.07 1.07 0 001.101-.457 1.078 1.078 0 00-.892-1.673zm0 14.611a1.072 1.072 0 00-1.052 1.285 1.078 1.078 0 00.843.845 1.07 1.07 0 001.101-.457 1.078 1.078 0 00-.892-1.673zm0 43.834a1.072 1.072 0 00-1.052 1.285 1.075 1.075 0 001.463.783 1.07 1.07 0 00.662-.993 1.077 1.077 0 00-1.073-1.075zm0 43.833a1.072 1.072 0 00-1.052 1.285 1.078 1.078 0 00.843.845 1.07 1.07 0 001.101-.457 1.078 1.078 0 00-.892-1.673zm0 14.611a1.072 1.072 0 00-1.052 1.285 1.078 1.078 0 00.843.845 1.078 1.078 0 001.101-.457 1.078 1.078 0 00-.133-1.358 1.074 1.074 0 00-.759-.315zm0-43.833a1.072 1.072 0 00-1.052 1.284 1.074 1.074 0 001.462.785 1.083 1.083 0 00.663-.994 1.077 1.077 0 00-1.073-1.075zm0 14.611a1.072 1.072 0 00-1.052 1.285 1.075 1.075 0 001.463.784 1.078 1.078 0 00.348-1.754 1.074 1.074 0 00-.759-.315zM52.5 212.786a1.072 1.072 0 00-1.052 1.285 1.075 1.075 0 001.463.783 1.074 1.074 0 00.348-1.753 1.071 1.071 0 00-.759-.315zm0-29.222a1.072 1.072 0 00-1.052 1.285 1.079 1.079 0 00.843.845 1.07 1.07 0 001.102-.458 1.078 1.078 0 00-.482-1.591 1.071 1.071 0 00-.411-.081zm0 14.611a1.071 1.071 0 00-1.052 1.285 1.071 1.071 0 001.944.387 1.073 1.073 0 00-.133-1.357 1.072 1.072 0 00-.76-.315zm0-58.445a1.08 1.08 0 00-.991.664 1.08 1.08 0 00.233 1.172 1.07 1.07 0 001.65-.163 1.078 1.078 0 00-.892-1.673zm0 14.611a1.072 1.072 0 00-.991.664 1.08 1.08 0 00.233 1.172 1.07 1.07 0 001.65-.163 1.078 1.078 0 00-.892-1.673zM39.875 44.758a1.072 1.072 0 00-1.052 1.285 1.076 1.076 0 00.843.845 1.07 1.07 0 001.101-.457 1.077 1.077 0 00-.892-1.673zM52.5 168.953a1.071 1.071 0 00-1.052 1.285 1.075 1.075 0 001.463.783 1.07 1.07 0 00.662-.993 1.083 1.083 0 00-.314-.761 1.07 1.07 0 00-.76-.314zM39.875 30.147a1.07 1.07 0 00-.991.664 1.077 1.077 0 00.782 1.466 1.071 1.071 0 001.282-1.055 1.076 1.076 0 00-1.073-1.075zm0-14.611a1.07 1.07 0 00-.991.663 1.078 1.078 0 00.781 1.466 1.07 1.07 0 001.283-1.054 1.077 1.077 0 00-1.073-1.075zM52.5 227.397a1.071 1.071 0 00-1.052 1.285 1.078 1.078 0 00.843.845 1.078 1.078 0 001.101-.457 1.078 1.078 0 00-.481-1.591 1.072 1.072 0 00-.411-.082zm0 14.611a1.074 1.074 0 10.892 1.673 1.078 1.078 0 00-.892-1.673zm0 14.611a1.074 1.074 0 10.892 1.673 1.078 1.078 0 00-.481-1.591 1.072 1.072 0 00-.411-.082zm0-219.166a1.07 1.07 0 00-.991.664 1.076 1.076 0 00.782 1.466 1.071 1.071 0 001.282-1.055 1.078 1.078 0 00-.662-.994 1.07 1.07 0 00-.411-.081zM65.125 220.09a1.072 1.072 0 00-1.052 1.285 1.078 1.078 0 00.842.845 1.07 1.07 0 001.102-.457 1.078 1.078 0 00-.892-1.673zM52.5 8.231a1.07 1.07 0 00-.991.663 1.077 1.077 0 00.782 1.466 1.071 1.071 0 001.282-1.054 1.078 1.078 0 00-.662-.994 1.07 1.07 0 00-.411-.082zm0 14.61a1.07 1.07 0 00-.991.664 1.077 1.077 0 00.782 1.466 1.071 1.071 0 001.282-1.054 1.078 1.078 0 00-.662-.994 1.07 1.07 0 00-.411-.082zm12.625 211.862a1.072 1.072 0 00-1.052 1.284 1.074 1.074 0 101.81-.969 1.07 1.07 0 00-.758-.315zm0 14.611a1.072 1.072 0 00-1.052 1.285 1.074 1.074 0 001.944.387 1.077 1.077 0 00-.134-1.357 1.07 1.07 0 00-.758-.315zM52.5 81.286a1.071 1.071 0 00-.991.664 1.078 1.078 0 00.782 1.465 1.07 1.07 0 001.101-.457 1.077 1.077 0 00-.892-1.672zm0 14.611a1.07 1.07 0 00-.991.664 1.076 1.076 0 00.782 1.466 1.07 1.07 0 001.101-.457 1.077 1.077 0 00-.892-1.673zm0 14.611a1.074 1.074 0 10.892 1.673 1.078 1.078 0 00-.481-1.591 1.072 1.072 0 00-.411-.082zm0 14.611a1.074 1.074 0 10.892 1.673 1.078 1.078 0 00-.481-1.591 1.072 1.072 0 00-.411-.082zm0-58.444a1.07 1.07 0 00-.991.664 1.076 1.076 0 00.782 1.466 1.07 1.07 0 001.101-.458 1.077 1.077 0 00-.892-1.672zm0-14.611a1.07 1.07 0 00-.991.664 1.077 1.077 0 00.782 1.466 1.071 1.071 0 001.282-1.055 1.076 1.076 0 00-1.073-1.075zm-37.875 51.139a1.072 1.072 0 00-1.052 1.285 1.075 1.075 0 001.463.783 1.07 1.07 0 00.662-.993 1.083 1.083 0 00-.314-.761 1.07 1.07 0 00-.76-.314zm227.25-43.834a1.07 1.07 0 00-.991.664 1.082 1.082 0 00.233 1.172 1.07 1.07 0 001.831-.76 1.077 1.077 0 00-1.073-1.076zm0-29.222a1.07 1.07 0 00-.991.664 1.082 1.082 0 00.233 1.172 1.071 1.071 0 001.831-.76 1.077 1.077 0 00-1.073-1.076zm0 14.611a1.071 1.071 0 00-.991.664 1.083 1.083 0 00.233 1.172 1.071 1.071 0 001.831-.76 1.076 1.076 0 00-1.073-1.076zm0-29.222a1.072 1.072 0 00-1.052 1.285 1.074 1.074 0 001.463.783 1.072 1.072 0 00.58-1.404 1.054 1.054 0 00-.58-.582 1.073 1.073 0 00-.411-.082zM254.5 256.619a1.074 1.074 0 00-.759 1.836 1.078 1.078 0 001.169.233 1.078 1.078 0 00.663-.994 1.074 1.074 0 00-1.073-1.075zm0-14.611a1.074 1.074 0 00-.759 1.836 1.07 1.07 0 001.651-.163 1.077 1.077 0 00-.892-1.673zM241.875 73.98a1.071 1.071 0 00-.991.664 1.083 1.083 0 00.233 1.172 1.071 1.071 0 001.831-.76 1.076 1.076 0 00-1.073-1.076zm0 58.445a1.071 1.071 0 00-1.052 1.285 1.077 1.077 0 00.843.845 1.07 1.07 0 001.101-.458 1.072 1.072 0 00.099-1.009 1.06 1.06 0 00-.58-.582 1.075 1.075 0 00-.411-.081zm0 14.611a1.071 1.071 0 00-1.052 1.285 1.073 1.073 0 101.811-.97 1.075 1.075 0 00-.759-.315zm12.625 80.361a1.074 1.074 0 00-.759 1.835 1.072 1.072 0 001.832-.76 1.074 1.074 0 00-1.073-1.075zm0-204.556a1.073 1.073 0 00-1.052 1.285 1.073 1.073 0 101.81-.97 1.07 1.07 0 00-.758-.315zm-12.625 65.75a1.071 1.071 0 00-.991.664 1.082 1.082 0 00.233 1.172 1.071 1.071 0 001.831-.76 1.076 1.076 0 00-1.073-1.076zm0 14.612a1.071 1.071 0 00-1.052 1.285 1.08 1.08 0 00.843.844 1.07 1.07 0 001.282-1.054 1.081 1.081 0 00-.662-.994 1.075 1.075 0 00-.411-.081zm12.625 65.75a1.074 1.074 0 10.001 2.148 1.074 1.074 0 00-.001-2.148zm0-102.278a1.072 1.072 0 00-1.052 1.285 1.073 1.073 0 002.125-.21 1.073 1.073 0 00-1.073-1.075zm0 14.61a1.072 1.072 0 00-1.052 1.285 1.073 1.073 0 101.81-.969 1.07 1.07 0 00-.758-.315zm0 14.612a1.072 1.072 0 00-1.052 1.285 1.073 1.073 0 002.125-.21 1.073 1.073 0 00-1.073-1.075zm0-43.833a1.07 1.07 0 00-.991.663 1.073 1.073 0 102.064.411 1.073 1.073 0 00-1.073-1.074zm0-14.611a1.072 1.072 0 00-1.052 1.284 1.073 1.073 0 002.125-.21 1.074 1.074 0 00-1.073-1.074zm0 73.055a1.074 1.074 0 00-.759 1.836 1.07 1.07 0 001.651-.163 1.078 1.078 0 00-.134-1.358 1.072 1.072 0 00-.758-.315zm0 87.667a1.074 1.074 0 00-.759 1.835 1.072 1.072 0 001.832-.76 1.074 1.074 0 00-1.073-1.075zm-12.625-36.528a1.071 1.071 0 00-1.052 1.285 1.078 1.078 0 001.463.784 1.082 1.082 0 00.662-.994 1.073 1.073 0 00-.662-.993 1.076 1.076 0 00-.411-.082zm12.625-36.528a1.074 1.074 0 00-.759 1.836 1.078 1.078 0 001.169.233 1.078 1.078 0 00.663-.994 1.074 1.074 0 00-1.073-1.075zm0 87.667a1.074 1.074 0 10.001 2.148 1.074 1.074 0 00-.001-2.148zm0-29.222a1.071 1.071 0 00-1.052 1.285 1.072 1.072 0 002.125-.21 1.072 1.072 0 00-1.073-1.075zm0-43.834a1.074 1.074 0 00-.759 1.836 1.07 1.07 0 001.651-.163 1.077 1.077 0 00-.892-1.673zm0 14.611a1.074 1.074 0 00-.759 1.836 1.07 1.07 0 001.651-.163 1.077 1.077 0 00-.892-1.673zm-12.625-36.527a1.071 1.071 0 00-1.052 1.285 1.078 1.078 0 00.843.845 1.07 1.07 0 001.101-.458 1.077 1.077 0 00-.481-1.591 1.075 1.075 0 00-.411-.081zm-12.625 51.139a1.071 1.071 0 00-1.052 1.285c.041.208.143.4.294.55.15.151.341.253.549.294a1.07 1.07 0 001.282-1.054 1.081 1.081 0 00-.663-.994 1.067 1.067 0 00-.41-.081zm0 29.222a1.071 1.071 0 00-1.052 1.285 1.072 1.072 0 102.043-.621 1.058 1.058 0 00-.233-.349 1.068 1.068 0 00-.758-.315zm0-43.834a1.072 1.072 0 00-.991.664 1.077 1.077 0 00.782 1.466 1.07 1.07 0 001.282-1.054 1.078 1.078 0 00-1.073-1.076zm0 29.223a1.071 1.071 0 00-1.052 1.285 1.076 1.076 0 00.843.845 1.07 1.07 0 001.101-.458 1.077 1.077 0 00-.482-1.59 1.068 1.068 0 00-.41-.082zm0-58.445a1.07 1.07 0 00-1.052 1.285 1.069 1.069 0 00.843.845 1.076 1.076 0 10.209-2.13zm0-14.611a1.07 1.07 0 00-1.052 1.285 1.07 1.07 0 001.944.388 1.078 1.078 0 00-.482-1.591 1.068 1.068 0 00-.41-.082zm0 29.222a1.08 1.08 0 00-.991.664 1.077 1.077 0 00.782 1.466 1.07 1.07 0 001.282-1.054 1.078 1.078 0 00-1.073-1.076zM216.625 15.536a1.072 1.072 0 00-1.052 1.284 1.073 1.073 0 101.81-.969 1.07 1.07 0 00-.758-.315zm0 14.611a1.072 1.072 0 00-1.052 1.285 1.073 1.073 0 002.125-.21 1.073 1.073 0 00-1.073-1.075zm12.625 226.472a1.07 1.07 0 00-1.052 1.285 1.07 1.07 0 001.944.388 1.078 1.078 0 00-.482-1.591 1.068 1.068 0 00-.41-.082zm0-29.222a1.071 1.071 0 00-1.052 1.285 1.069 1.069 0 00.843.845c.208.041.424.02.62-.061a1.082 1.082 0 00.662-.994 1.073 1.073 0 00-.663-.993 1.068 1.068 0 00-.41-.082zm0-14.611a1.071 1.071 0 00-1.052 1.285 1.072 1.072 0 002.125-.21 1.076 1.076 0 00-1.073-1.075zm12.625-36.528a1.076 1.076 0 00-.209 2.13 1.07 1.07 0 001.282-1.054 1.074 1.074 0 00-1.073-1.076zm-12.625 65.75a1.07 1.07 0 00-1.052 1.285 1.07 1.07 0 001.944.388 1.077 1.077 0 00-.892-1.673zm12.625-7.305a1.071 1.071 0 00-1.052 1.285 1.08 1.08 0 00.843.844 1.07 1.07 0 001.282-1.054 1.081 1.081 0 00-.662-.994 1.075 1.075 0 00-.411-.081zM229.25 95.897a1.07 1.07 0 00-.991.664 1.074 1.074 0 10.991-.664zm12.625 153.417a1.071 1.071 0 00-1.052 1.285 1.078 1.078 0 00.843.845 1.07 1.07 0 001.101-.458 1.077 1.077 0 00-.481-1.591 1.075 1.075 0 00-.411-.081zm0-58.445a1.076 1.076 0 00-.209 2.13 1.076 1.076 0 10.209-2.13zM229.25 8.23a1.07 1.07 0 00-.991.664 1.074 1.074 0 10.991-.664zm-12.625 36.528a1.073 1.073 0 00-1.052 1.285 1.073 1.073 0 101.81-.97 1.07 1.07 0 00-.758-.315zm25.25 175.333a1.072 1.072 0 00-.991.664 1.08 1.08 0 00.782 1.466 1.07 1.07 0 001.282-1.054 1.069 1.069 0 00-.662-.994 1.076 1.076 0 00-.411-.082zM229.25 66.675a1.07 1.07 0 00-.991.664 1.074 1.074 0 10.991-.664zm0 14.61a1.07 1.07 0 00-.991.665 1.074 1.074 0 10.991-.664zm0-43.832a1.07 1.07 0 00-.991.664 1.074 1.074 0 10.991-.664zm0 14.61a1.07 1.07 0 00-.991.665 1.074 1.074 0 001.883 1.008 1.077 1.077 0 00-.892-1.672zm0-29.222a1.071 1.071 0 00-.991.664 1.074 1.074 0 10.991-.664zm12.625 182.639a1.08 1.08 0 00-.991.664 1.08 1.08 0 00.782 1.466 1.07 1.07 0 001.282-1.054 1.078 1.078 0 00-1.073-1.076zm50.5 43.834a1.071 1.071 0 00-1.052 1.285 1.072 1.072 0 002.125-.21 1.072 1.072 0 00-1.073-1.075zm0-14.611a1.074 1.074 0 10.001 2.148 1.074 1.074 0 00-.001-2.148zM279.75 8.23a1.07 1.07 0 00-.991.664 1.082 1.082 0 00.233 1.172 1.072 1.072 0 001.749-1.172 1.077 1.077 0 00-.991-.664zm12.625 182.639a1.074 1.074 0 00-.759 1.836 1.078 1.078 0 001.169.233 1.078 1.078 0 00.663-.994 1.074 1.074 0 00-1.073-1.075zm0 14.611a1.074 1.074 0 00-.759 1.836 1.07 1.07 0 001.651-.163 1.077 1.077 0 00-.892-1.673zM279.75 22.841a1.071 1.071 0 00-.991.664 1.083 1.083 0 00.233 1.172 1.071 1.071 0 001.831-.76 1.076 1.076 0 00-1.073-1.076zm12.625 197.25a1.074 1.074 0 00-.759 1.836 1.07 1.07 0 001.651-.163 1.077 1.077 0 00-.892-1.673zM279.75 95.897a1.07 1.07 0 00-.991.664 1.082 1.082 0 00.233 1.172 1.07 1.07 0 001.831-.76 1.077 1.077 0 00-1.073-1.076zm0-58.444a1.071 1.071 0 00-.991.664 1.082 1.082 0 00.233 1.171 1.071 1.071 0 001.831-.76 1.077 1.077 0 00-1.073-1.075zm0 73.055a1.076 1.076 0 00-.209 2.13 1.07 1.07 0 001.282-1.055 1.073 1.073 0 00-.662-.993 1.076 1.076 0 00-.411-.082zm0-29.222a1.07 1.07 0 00-.991.664 1.082 1.082 0 00.233 1.171 1.071 1.071 0 001.749-1.171 1.054 1.054 0 00-.58-.582 1.074 1.074 0 00-.411-.082zm0-14.611a1.07 1.07 0 00-.991.664 1.082 1.082 0 00.233 1.171 1.071 1.071 0 001.831-.76 1.077 1.077 0 00-1.073-1.075zm0-14.611a1.071 1.071 0 00-.991.664 1.083 1.083 0 00.233 1.172 1.072 1.072 0 001.749-1.173 1.068 1.068 0 00-.991-.663zm12.625-21.917a1.072 1.072 0 00-1.052 1.285 1.073 1.073 0 101.81-.97 1.07 1.07 0 00-.758-.315zm0 29.222a1.073 1.073 0 00-1.052 1.285 1.073 1.073 0 101.81-.97 1.07 1.07 0 00-.758-.315zm0 29.222a1.073 1.073 0 00-1.052 1.285 1.073 1.073 0 101.81-.97 1.07 1.07 0 00-.758-.315zm0-14.61a1.072 1.072 0 00-1.052 1.284 1.073 1.073 0 101.81-.97 1.07 1.07 0 00-.758-.315zm0-29.223a1.072 1.072 0 00-1.052 1.285 1.073 1.073 0 101.81-.97 1.07 1.07 0 00-.758-.315zM279.75 125.12a1.076 1.076 0 00-.209 2.13 1.076 1.076 0 10.209-2.13zm12.625 51.139a1.074 1.074 0 00-.759 1.836 1.07 1.07 0 001.651-.163 1.078 1.078 0 00-.134-1.358 1.072 1.072 0 00-.758-.315zm0-160.722a1.072 1.072 0 00-1.052 1.284 1.073 1.073 0 101.81-.969 1.07 1.07 0 00-.758-.315zm0 131.5a1.074 1.074 0 10.001 2.148 1.074 1.074 0 00-.001-2.148zm0-43.833a1.074 1.074 0 10.001 2.148 1.074 1.074 0 00-.001-2.148zm0 58.444a1.074 1.074 0 00-.759 1.835 1.072 1.072 0 001.832-.76 1.074 1.074 0 00-1.073-1.075zm0-29.222a1.074 1.074 0 00-.759 1.835 1.072 1.072 0 001.832-.76 1.074 1.074 0 00-1.073-1.075zm0-14.611a1.071 1.071 0 00-1.052 1.285 1.072 1.072 0 002.125-.21 1.072 1.072 0 00-1.073-1.075zm-25.25-102.278a1.07 1.07 0 00-.991.664 1.074 1.074 0 10.991-.664zm0 102.278a1.069 1.069 0 00-.991.664 1.073 1.073 0 10.991-.664zm0 14.611a1.069 1.069 0 00-.991.664 1.073 1.073 0 00.233 1.171 1.072 1.072 0 001.749-1.172 1.093 1.093 0 00-.232-.349 1.085 1.085 0 00-.759-.314zm0 14.611a1.071 1.071 0 00-1.052 1.285 1.072 1.072 0 002.125-.21 1.073 1.073 0 00-.314-.76 1.067 1.067 0 00-.759-.315zm0-43.833a1.069 1.069 0 00-.991.664 1.073 1.073 0 00.782 1.465 1.07 1.07 0 001.282-1.054 1.081 1.081 0 00-.663-.994 1.067 1.067 0 00-.41-.081zm0-14.612a1.069 1.069 0 00-.991.664 1.074 1.074 0 10.991-.664zm0 73.056a1.069 1.069 0 00-.991.664 1.073 1.073 0 10.991-.664zm0 29.222a1.07 1.07 0 00-1.052 1.285 1.069 1.069 0 00.843.845 1.076 1.076 0 10.209-2.13zm0 43.834a1.069 1.069 0 00-.991.664 1.073 1.073 0 00.782 1.465 1.07 1.07 0 001.282-1.054 1.081 1.081 0 00-.663-.994 1.067 1.067 0 00-.41-.081zm12.625-94.973a1.072 1.072 0 00-.991.664 1.08 1.08 0 00.782 1.466 1.07 1.07 0 001.282-1.054 1.078 1.078 0 00-1.073-1.076zm-12.625 80.361a1.07 1.07 0 00-.991.664 1.077 1.077 0 00.782 1.466 1.07 1.07 0 001.282-1.054 1.074 1.074 0 00-1.073-1.076zm0-14.611a1.078 1.078 0 00-1.052 1.286 1.07 1.07 0 001.944.387 1.077 1.077 0 00-.892-1.673zm0-131.5a1.069 1.069 0 00-.991.664 1.074 1.074 0 10.991-.664zm0 102.278a1.07 1.07 0 00-1.052 1.285 1.07 1.07 0 001.944.388 1.078 1.078 0 00-.482-1.591 1.068 1.068 0 00-.41-.082zm0 73.056a1.069 1.069 0 00-.991.664 1.073 1.073 0 10.991-.664zm12.625-21.917a1.071 1.071 0 00-1.052 1.285 1.078 1.078 0 001.463.784 1.082 1.082 0 00.662-.994 1.073 1.073 0 00-.662-.993 1.076 1.076 0 00-.411-.082zm0-29.222a1.071 1.071 0 00-1.052 1.285 1.077 1.077 0 00.843.845 1.07 1.07 0 001.101-.458 1.072 1.072 0 00-.133-1.357 1.078 1.078 0 00-.759-.315zm0 14.611a1.071 1.071 0 00-1.052 1.285 1.073 1.073 0 101.811-.97 1.075 1.075 0 00-.759-.315zm0-29.222a1.071 1.071 0 00-1.052 1.285 1.078 1.078 0 00.843.845 1.07 1.07 0 001.101-.458 1.077 1.077 0 00-.481-1.591 1.075 1.075 0 00-.411-.081zm0-14.611a1.071 1.071 0 00-1.052 1.285 1.08 1.08 0 00.843.844 1.07 1.07 0 001.282-1.054 1.081 1.081 0 00-.662-.994 1.075 1.075 0 00-.411-.081zm0-14.612a1.072 1.072 0 00-.991.664 1.08 1.08 0 00.782 1.466 1.07 1.07 0 001.282-1.054 1.074 1.074 0 00-1.073-1.076zM267.125 44.758a1.071 1.071 0 00-.991.664 1.074 1.074 0 001.883 1.009 1.076 1.076 0 00-.892-1.673zm12.625 197.25a1.076 1.076 0 00-.209 2.13 1.07 1.07 0 001.282-1.054 1.074 1.074 0 00-1.073-1.076zM267.125 59.369a1.07 1.07 0 00-.991.664 1.074 1.074 0 001.883 1.009 1.076 1.076 0 00-.892-1.673zm0-29.222a1.07 1.07 0 00-.991.664 1.074 1.074 0 10.991-.664zm12.625 226.472a1.076 1.076 0 00-.209 2.13 1.076 1.076 0 10.209-2.13zM254.5 8.23a1.072 1.072 0 00-1.052 1.285 1.073 1.073 0 101.81-.97 1.07 1.07 0 00-.758-.315zm-75.75 175.334a1.071 1.071 0 00-1.052 1.285 1.072 1.072 0 002.125-.21 1.076 1.076 0 00-1.073-1.075zm0 73.055a1.071 1.071 0 00-1.052 1.285 1.075 1.075 0 00.842.845 1.078 1.078 0 001.102-.457 1.078 1.078 0 00-.134-1.358 1.072 1.072 0 00-.758-.315zm0-14.611a1.071 1.071 0 00-1.052 1.285 1.075 1.075 0 00.842.845 1.07 1.07 0 001.102-.457 1.077 1.077 0 00-.892-1.673zM166.125 15.536a1.072 1.072 0 00-1.052 1.285 1.074 1.074 0 001.463.783 1.072 1.072 0 00.58-1.404 1.054 1.054 0 00-.58-.582 1.073 1.073 0 00-.411-.082zm0 14.611a1.07 1.07 0 00-.991.664 1.082 1.082 0 00.233 1.172 1.071 1.071 0 001.831-.76 1.077 1.077 0 00-1.073-1.076zm12.625 197.25a1.071 1.071 0 00-1.052 1.285 1.072 1.072 0 002.125-.21 1.074 1.074 0 00-1.073-1.075zm0-14.611a1.074 1.074 0 10.001 2.148 1.074 1.074 0 00-.001-2.148zM166.125 88.591a1.071 1.071 0 00-.991.664 1.082 1.082 0 00.233 1.172 1.071 1.071 0 001.831-.76 1.076 1.076 0 00-1.073-1.076zm0-43.833a1.071 1.071 0 00-.991.664 1.083 1.083 0 00.233 1.172 1.071 1.071 0 001.831-.76 1.076 1.076 0 00-1.073-1.076zm0 58.445a1.071 1.071 0 00-1.052 1.285 1.08 1.08 0 00.843.844 1.07 1.07 0 001.282-1.054 1.081 1.081 0 00-.662-.994 1.075 1.075 0 00-.411-.081zm0 14.611a1.071 1.071 0 00-1.052 1.285 1.078 1.078 0 00.843.845 1.07 1.07 0 001.101-.458 1.077 1.077 0 00-.481-1.591 1.075 1.075 0 00-.411-.081zm12.625 80.361a1.071 1.071 0 00-1.052 1.285 1.072 1.072 0 002.125-.21 1.074 1.074 0 00-1.073-1.075zm-12.625-65.75a1.071 1.071 0 00-1.052 1.285 1.077 1.077 0 00.843.845 1.07 1.07 0 001.101-.458 1.072 1.072 0 00.099-1.009 1.06 1.06 0 00-.58-.582 1.075 1.075 0 00-.411-.081zm0-73.056a1.07 1.07 0 00-.991.664 1.082 1.082 0 00.233 1.172 1.07 1.07 0 001.831-.76 1.077 1.077 0 00-1.073-1.076zm0 14.611a1.071 1.071 0 00-.991.664 1.083 1.083 0 00.233 1.172 1.071 1.071 0 001.831-.76 1.076 1.076 0 00-1.073-1.076zm12.625-7.305a1.07 1.07 0 00-.991.663 1.073 1.073 0 102.064.412 1.073 1.073 0 00-1.073-1.075zm0-14.611a1.07 1.07 0 00-.991.663 1.073 1.073 0 102.064.411 1.077 1.077 0 00-1.073-1.074zm0 43.833a1.07 1.07 0 00-.991.663 1.073 1.073 0 102.064.412 1.073 1.073 0 00-1.073-1.075zm0-14.611a1.072 1.072 0 00-1.052 1.284 1.073 1.073 0 101.81-.969 1.07 1.07 0 00-.758-.315zm0-58.445a1.07 1.07 0 00-.991.664 1.073 1.073 0 101.749-.348 1.07 1.07 0 00-.758-.316zm0 14.612a1.07 1.07 0 00-.991.663 1.073 1.073 0 102.064.412 1.074 1.074 0 00-1.073-1.075zM153.5 256.619a1.07 1.07 0 00-1.052 1.285 1.07 1.07 0 001.944.388 1.078 1.078 0 00-.482-1.591 1.068 1.068 0 00-.41-.082zm25.25-102.278a1.071 1.071 0 00-1.052 1.285 1.075 1.075 0 00.842.845 1.07 1.07 0 001.102-.457 1.077 1.077 0 00-.892-1.673zm0-43.833a1.071 1.071 0 00-1.052 1.285 1.075 1.075 0 00.842.845 1.07 1.07 0 001.102-.457 1.078 1.078 0 00-.134-1.358 1.072 1.072 0 00-.758-.315zm0 58.445a1.071 1.071 0 00-1.052 1.284 1.07 1.07 0 001.944.388 1.075 1.075 0 00-.892-1.672zm0-29.223a1.071 1.071 0 00-1.052 1.285 1.075 1.075 0 00.842.845 1.07 1.07 0 001.102-.457 1.077 1.077 0 00-.892-1.673zm0-14.611a1.071 1.071 0 00-1.052 1.285 1.075 1.075 0 00.842.845 1.078 1.078 0 001.102-.457 1.078 1.078 0 00-.134-1.358 1.072 1.072 0 00-.758-.315zm-12.625 80.361a1.08 1.08 0 00-.991.664 1.08 1.08 0 00.782 1.466 1.07 1.07 0 001.282-1.054 1.078 1.078 0 00-1.073-1.076zM153.5 125.119a1.07 1.07 0 00-1.052 1.285 1.069 1.069 0 00.843.845 1.076 1.076 0 10.209-2.13zm0 14.611a1.08 1.08 0 00-.991.664 1.077 1.077 0 00.782 1.466 1.07 1.07 0 001.282-1.054 1.078 1.078 0 00-1.073-1.076zm0 14.611a1.072 1.072 0 00-.991.664 1.077 1.077 0 00.782 1.466 1.07 1.07 0 001.282-1.054 1.078 1.078 0 00-1.073-1.076zm0 14.612a1.071 1.071 0 00-1.052 1.285c.041.208.143.4.294.55.15.151.341.253.549.294a1.07 1.07 0 001.282-1.054 1.081 1.081 0 00-.663-.994 1.067 1.067 0 00-.41-.081zm0-58.445a1.07 1.07 0 00-1.052 1.285 1.07 1.07 0 001.944.388 1.078 1.078 0 00-.482-1.591 1.068 1.068 0 00-.41-.082zm0-14.611a1.07 1.07 0 00-.991.664 1.074 1.074 0 10.991-.664zm0 116.889a1.071 1.071 0 00-1.052 1.285 1.072 1.072 0 002.125-.21 1.072 1.072 0 00-1.073-1.075zm0-29.222a1.069 1.069 0 00-.991.664 1.073 1.073 0 10.991-.664zm0 43.833a1.071 1.071 0 00-1.052 1.285 1.069 1.069 0 00.843.845c.208.041.424.02.62-.061a1.082 1.082 0 00.662-.994 1.073 1.073 0 00-.663-.993 1.068 1.068 0 00-.41-.082zm0 14.611a1.07 1.07 0 00-1.052 1.285 1.07 1.07 0 001.944.388 1.077 1.077 0 00-.892-1.673zm0-43.833a1.071 1.071 0 00-1.052 1.285 1.072 1.072 0 102.043-.621 1.058 1.058 0 00-.233-.349 1.068 1.068 0 00-.758-.315zm0-116.89a1.072 1.072 0 00-1.052 1.286 1.073 1.073 0 002.125-.21 1.074 1.074 0 00-1.073-1.075zm0-14.61a1.071 1.071 0 00-.991.664 1.074 1.074 0 10.991-.664zm12.625 168.028a1.071 1.071 0 00-1.052 1.285 1.08 1.08 0 00.843.844 1.07 1.07 0 001.282-1.054 1.081 1.081 0 00-.662-.994 1.075 1.075 0 00-.411-.081zm0-43.834a1.076 1.076 0 00-.209 2.13 1.076 1.076 0 10.209-2.13zm0-43.833a1.071 1.071 0 00-1.052 1.285 1.073 1.073 0 101.811-.97 1.075 1.075 0 00-.759-.315zM178.75 8.23a1.07 1.07 0 00-.991.664 1.073 1.073 0 101.749-.348 1.07 1.07 0 00-.758-.316zm-12.625 168.028a1.076 1.076 0 00-.209 2.13 1.07 1.07 0 001.282-1.054 1.074 1.074 0 00-1.073-1.076zm0-14.611a1.071 1.071 0 00-1.052 1.285 1.078 1.078 0 001.463.784 1.082 1.082 0 00.662-.994 1.073 1.073 0 00-.662-.993 1.076 1.076 0 00-.411-.082zm0 58.444a1.072 1.072 0 00-.991.664 1.08 1.08 0 00.782 1.466 1.07 1.07 0 001.282-1.054 1.074 1.074 0 00-1.073-1.076zM153.5 52.064a1.068 1.068 0 00-.991.664 1.074 1.074 0 10.991-.664zm0-14.611a1.071 1.071 0 00-.991.664 1.074 1.074 0 10.991-.664zm0-14.612a1.071 1.071 0 00-.991.664 1.074 1.074 0 001.883 1.009 1.076 1.076 0 00-.892-1.673zm0-14.61a1.07 1.07 0 00-.991.663 1.074 1.074 0 10.991-.664zm12.625 241.083a1.071 1.071 0 00-1.052 1.285 1.078 1.078 0 00.843.845 1.07 1.07 0 001.101-.458 1.077 1.077 0 00-.481-1.591 1.075 1.075 0 00-.411-.081zm25.25-43.834a1.08 1.08 0 00-.991.664 1.077 1.077 0 00.782 1.466 1.07 1.07 0 001.282-1.054 1.078 1.078 0 00-1.073-1.076zM204 52.064a1.07 1.07 0 00-.991.664 1.082 1.082 0 00.233 1.172 1.071 1.071 0 001.831-.761A1.076 1.076 0 00204 52.064zm0-14.611a1.071 1.071 0 00-.991.664 1.082 1.082 0 00.233 1.171 1.072 1.072 0 001.749-1.172 1.077 1.077 0 00-.991-.664zm0 43.833a1.071 1.071 0 00-.991.664 1.082 1.082 0 00.233 1.171 1.072 1.072 0 001.749-1.171 1.054 1.054 0 00-.58-.582 1.074 1.074 0 00-.411-.082zm0-14.611a1.071 1.071 0 00-.991.664 1.082 1.082 0 00.233 1.171 1.071 1.071 0 001.831-.76A1.077 1.077 0 00204 66.675zm0-58.445a1.07 1.07 0 00-.991.664 1.082 1.082 0 00.233 1.172 1.072 1.072 0 001.749-1.172A1.077 1.077 0 00204 8.23zm0 14.611a1.071 1.071 0 00-.991.664 1.083 1.083 0 00.233 1.172 1.071 1.071 0 001.831-.76A1.076 1.076 0 00204 22.84zm0 146.112a1.071 1.071 0 00-1.052 1.285 1.08 1.08 0 00.843.844 1.07 1.07 0 001.282-1.054 1.081 1.081 0 00-.662-.994 1.075 1.075 0 00-.411-.081zm0-14.612a1.072 1.072 0 00-.991.664 1.08 1.08 0 00.782 1.466 1.07 1.07 0 001.282-1.054 1.074 1.074 0 00-1.073-1.076zm12.625 94.973a1.071 1.071 0 00-1.052 1.285 1.072 1.072 0 002.125-.21 1.072 1.072 0 00-1.073-1.075zM204 95.897a1.07 1.07 0 00-.991.664 1.082 1.082 0 00.233 1.172 1.071 1.071 0 001.831-.76A1.077 1.077 0 00204 95.896zm0 43.833a1.08 1.08 0 00-.991.664 1.08 1.08 0 00.782 1.466 1.07 1.07 0 001.282-1.054A1.078 1.078 0 00204 139.73zm0-29.222a1.076 1.076 0 00-.209 2.13 1.07 1.07 0 001.282-1.055 1.073 1.073 0 00-.662-.993 1.076 1.076 0 00-.411-.082zm12.625 21.917a1.074 1.074 0 00-.759 1.835 1.072 1.072 0 001.832-.76 1.074 1.074 0 00-1.073-1.075zm0-14.611a1.071 1.071 0 00-1.052 1.285 1.072 1.072 0 002.125-.21 1.072 1.072 0 00-1.073-1.075zM204 183.564a1.071 1.071 0 00-1.052 1.285 1.078 1.078 0 00.843.845 1.07 1.07 0 001.101-.458 1.077 1.077 0 00-.481-1.591 1.075 1.075 0 00-.411-.081zm12.625-80.361a1.074 1.074 0 10.001 2.148 1.074 1.074 0 00-.001-2.148zm0 131.5a1.074 1.074 0 10.001 2.148 1.074 1.074 0 00-.001-2.148zm0-87.667a1.074 1.074 0 10.001 2.148 1.074 1.074 0 00-.001-2.148zm0-73.056a1.073 1.073 0 00-1.052 1.285 1.073 1.073 0 101.81-.97 1.07 1.07 0 00-.758-.315zm0 14.611a1.073 1.073 0 00-1.052 1.285 1.073 1.073 0 101.81-.97 1.07 1.07 0 00-.758-.315zm0 116.889a1.074 1.074 0 00-.759 1.836 1.07 1.07 0 001.651-.163 1.077 1.077 0 00-.892-1.673zm0 14.611a1.074 1.074 0 00-.759 1.836 1.07 1.07 0 001.651-.163 1.077 1.077 0 00-.892-1.673zm0-43.833a1.074 1.074 0 00-.759 1.836 1.07 1.07 0 001.651-.163 1.077 1.077 0 00-.892-1.673zm0 14.611a1.074 1.074 0 00-.759 1.836 1.078 1.078 0 001.169.233 1.078 1.078 0 00.663-.994 1.074 1.074 0 00-1.073-1.075zm0-29.222a1.074 1.074 0 00-.759 1.835 1.072 1.072 0 001.832-.76 1.074 1.074 0 00-1.073-1.075zM204 125.119a1.076 1.076 0 00-.209 2.13 1.076 1.076 0 10.209-2.13zm-12.625-21.916a1.071 1.071 0 00-1.052 1.285c.041.208.143.4.294.55.15.151.341.253.549.294a1.07 1.07 0 001.282-1.054 1.081 1.081 0 00-.663-.994 1.067 1.067 0 00-.41-.081zm0 87.666a1.07 1.07 0 00-1.052 1.285 1.069 1.069 0 00.843.845 1.076 1.076 0 10.209-2.13zm0 29.222a1.072 1.072 0 00-.991.664 1.077 1.077 0 00.782 1.466 1.07 1.07 0 001.282-1.054 1.078 1.078 0 00-1.073-1.076zm25.25-160.722a1.072 1.072 0 00-1.052 1.285 1.073 1.073 0 101.81-.97 1.07 1.07 0 00-.758-.315zm-25.25 175.334a1.071 1.071 0 00-1.052 1.285c.041.208.143.4.294.55.15.151.341.253.549.294a1.07 1.07 0 001.282-1.054 1.081 1.081 0 00-.663-.994 1.067 1.067 0 00-.41-.081zm0-146.112a1.071 1.071 0 00-.991.664 1.074 1.074 0 001.883 1.009 1.076 1.076 0 00-.892-1.673zm0-14.61a1.071 1.071 0 00-.991.663 1.074 1.074 0 001.883 1.009 1.076 1.076 0 00-.892-1.673zm0 87.666a1.071 1.071 0 00-1.052 1.285 1.069 1.069 0 00.843.845c.208.041.424.02.62-.061a1.082 1.082 0 00.662-.994 1.073 1.073 0 00-.663-.993 1.068 1.068 0 00-.41-.082zm0-14.611a1.071 1.071 0 00-1.052 1.285 1.072 1.072 0 002.125-.21 1.076 1.076 0 00-1.073-1.075zm0-29.222a1.071 1.071 0 00-1.052 1.285 1.076 1.076 0 00.843.845 1.07 1.07 0 001.101-.458 1.077 1.077 0 00-.482-1.59 1.068 1.068 0 00-.41-.082zm0 14.611a1.071 1.071 0 00-1.052 1.285 1.072 1.072 0 102.043-.621 1.058 1.058 0 00-.233-.349 1.068 1.068 0 00-.758-.315zM204 198.175a1.071 1.071 0 00-1.052 1.285 1.077 1.077 0 00.843.845 1.07 1.07 0 001.101-.458 1.072 1.072 0 00-.133-1.357 1.078 1.078 0 00-.759-.315zM191.375 44.758a1.071 1.071 0 00-.991.664 1.074 1.074 0 001.883 1.009 1.076 1.076 0 00-.892-1.673zM204 242.008a1.076 1.076 0 00-.209 2.13 1.07 1.07 0 001.282-1.054 1.074 1.074 0 00-1.073-1.076zm-12.625 7.306a1.071 1.071 0 00-1.052 1.285 1.076 1.076 0 00.843.845 1.07 1.07 0 001.101-.458 1.077 1.077 0 00-.482-1.59 1.068 1.068 0 00-.41-.082zM204 256.619a1.076 1.076 0 00-.209 2.13 1.076 1.076 0 10.209-2.13zm0-43.833a1.071 1.071 0 00-1.052 1.285 1.073 1.073 0 101.811-.97 1.075 1.075 0 00-.759-.315zm0 14.611a1.071 1.071 0 00-1.052 1.285 1.078 1.078 0 001.463.784 1.082 1.082 0 00.662-.994 1.073 1.073 0 00-.662-.993 1.076 1.076 0 00-.411-.082zM191.375 15.536a1.072 1.072 0 00-1.052 1.285 1.072 1.072 0 002.125-.21 1.077 1.077 0 00-1.073-1.075zm0 43.833a1.07 1.07 0 00-.991.664 1.074 1.074 0 001.883 1.009 1.076 1.076 0 00-.892-1.673zm0 116.889a1.07 1.07 0 00-1.052 1.285 1.07 1.07 0 001.944.388 1.077 1.077 0 00-.892-1.673zm0-146.111a1.07 1.07 0 00-.991.664 1.074 1.074 0 10.991-.664zm-75.75 233.778a1.071 1.071 0 00-1.052 1.285 1.072 1.072 0 102.043-.622 1.064 1.064 0 00-.581-.581 1.068 1.068 0 00-.41-.082zm151.5 0a1.071 1.071 0 00-1.052 1.285 1.072 1.072 0 102.043-.622 1.077 1.077 0 00-.991-.663zm-227.25 0a1.072 1.072 0 00-1.052 1.285 1.075 1.075 0 001.462.783 1.07 1.07 0 00.663-.993 1.077 1.077 0 00-1.073-1.075zm176.75 0a1.074 1.074 0 00-.759 1.835 1.072 1.072 0 001.832-.76 1.074 1.074 0 00-1.073-1.075zm25.25 0a1.071 1.071 0 00-1.052 1.285 1.077 1.077 0 00.843.845 1.07 1.07 0 001.101-.458 1.072 1.072 0 00.099-1.009 1.06 1.06 0 00-.58-.582 1.075 1.075 0 00-.411-.081zm-151.5 0a1.071 1.071 0 00-1.052 1.285 1.071 1.071 0 001.944.387 1.073 1.073 0 00-.133-1.358 1.071 1.071 0 00-.759-.314zm101 0a1.071 1.071 0 00-1.052 1.285 1.072 1.072 0 102.043-.622 1.064 1.064 0 00-.581-.581 1.068 1.068 0 00-.41-.082zm-25.25 0a1.071 1.071 0 00-1.052 1.285 1.077 1.077 0 00.843.845 1.07 1.07 0 001.101-.458 1.072 1.072 0 00.099-1.009 1.06 1.06 0 00-.58-.582 1.075 1.075 0 00-.411-.081zm-101 0a1.072 1.072 0 00-1.052 1.285 1.075 1.075 0 001.462.783 1.07 1.07 0 00.663-.993 1.077 1.077 0 00-1.073-1.075zm75.75 0a1.071 1.071 0 00-1.052 1.285 1.072 1.072 0 002.125-.21 1.074 1.074 0 00-1.073-1.075zm-126.25 0a1.072 1.072 0 00-1.052 1.285 1.071 1.071 0 001.944.387 1.073 1.073 0 00-.133-1.358 1.071 1.071 0 00-.759-.314zm277.75 0a1.074 1.074 0 00-.759 1.835 1.072 1.072 0 001.832-.76 1.074 1.074 0 00-1.073-1.075zM465.985 1h4.279L607 79.823v2.467L466.311 1.189 465.985 1zm126.25 0L607 9.513V7.046L596.514 1h-4.279zm-100.674.189L607 67.734v-2.467L495.513 1h-4.278l.326.189zm25.25 0L607 53.179v-2.466L520.764 1h-4.28l.327.189zm50.5 0L607 24.069V21.6L571.264 1h-4.279l.326.189zm-25.25 0L607 38.624v-2.467L546.014 1h-4.279l.326.189z"/><path d="M606.891 198.671L304 24.066v-2.465l.109.063L607 196.266v2.468l-.109-.063zm.109 14.618v-2.467L304.109 36.218l-.109-.063v2.467l302.891 174.604.109.063zm0-29.11v-2.468L304.109 7.108 304 7.045V9.51l302.891 174.606.109.063zm0 43.665v-2.466L304.109 50.774 304 50.71v2.466L606.891 227.78l.109.063zm0 14.556v-2.467L304.109 65.329l-.109-.063v2.467l302.891 174.604.109.063zm0 14.556v-2.467L304.109 79.885l-.109-.063v2.467l302.891 174.604.109.063zm74.89-190.031L606 23.155v-2.476l76 43.834L793.854 0h4.293l-.328.19L682 66.987l-.11-.063zm.11-14.548L772.486.188l.327-.189h-4.293L682 49.902 606 6.068v2.476l75.89 43.77.11.063zm0 73.054L899.153.189 899.48 0h-4.293L682 122.957l-76-43.833V81.6l75.89 43.769.11.062zm0-29.22L848.486.188l.328-.189h-4.293L682 93.734l-76-43.833v2.477l75.89 43.77.11.062zm0 14.611L873.819.189l.328-.189h-4.293L682 108.345l-76-43.832v2.476l75.89 43.77.11.063zm0-29.223L823.153.189 823.48 0h-4.293L682 79.124 606 35.29v2.476l75.89 43.77.11.063zM1177.26 1h-4.27L910 152.6v2.467L1176.94 1.189l.32-.189zm24.93.189L910 169.622v-2.466L1198.24 1h4.27l-.32.189zm-75.75 0L910 125.957v-2.467L1122.49 1h4.27l-.32.189zm25.25 0L910 140.512v-2.466L1147.74 1h4.27l-.32.189zm-50.5 0L910 111.4v-2.467L1097.24 1h4.27l-.32.189zm-25.25 0L910 96.847V94.38L1071.99 1h4.27l-.32.189zm136.95 64.14L910 239.934v2.465l.109-.063L1213 67.734v-2.468l-.11.063zm.11-14.618v2.467L910.109 227.782l-.109.063v-2.467l302.89-174.604.11-.063zm0 29.11v2.469L910.109 256.892l-.109.063v-2.465l302.89-174.606.11-.063zm0-43.665v2.467L910.109 213.226l-.109.063v-2.466l302.89-174.604.11-.063zm0-14.556v2.467L910.109 198.67l-.109.063v-2.467l302.89-174.604.11-.063zm0-14.556v2.467L910.109 184.115l-.109.063v-2.467L1212.89 7.107l.11-.063z"/></g></svg>