<?xml version="1.0" encoding="UTF-8"?>
<svg width="28px" height="32px" viewBox="0 0 28 32" version="1.1" xmlns="http://www.w3.org/2000/svg" xmlns:xlink="http://www.w3.org/1999/xlink">
    <title>icon</title>
    <defs>
        <linearGradient x1="72.4575676%" y1="21.6179979%" x2="11.71875%" y2="100%" id="linearGradient-1">
            <stop stop-color="#32C5FF" offset="0%"></stop>
            <stop stop-color="#20CEE0" offset="51.2583893%"></stop>
            <stop stop-color="#2700F7" offset="100%"></stop>
        </linearGradient>
    </defs>
    <g id="Page-1" stroke="none" stroke-width="1" fill="none" fill-rule="evenodd">
        <g id="icon" fill-rule="nonzero">
            <path d="M18.3076923,9.42222222 L18.3076923,5.33333333 C20.1384615,5.33333333 21.5384615,4.17777778 21.5384615,2.66666667 C21.5384615,1.15555556 20.1384615,0 18.3076923,0 L9.69230769,0 C7.96923077,0 6.46153846,1.15555556 6.46153846,2.66666667 C6.46153846,4.17777778 7.96923077,5.33333333 9.69230769,5.33333333 L9.69230769,9.42222222 C4.09230769,10.9333333 0,15.2888889 0,20.4444444 C0,26.8444444 6.24615385,32 14,32 C21.7538462,32 28,26.8444444 28,20.4444444 C28,15.2888889 23.9076923,10.9333333 18.3076923,9.42222222 Z M8.61538462,2.66666667 C8.61538462,2.22222222 9.15384615,1.77777778 9.69230769,1.77777778 L18.3076923,1.77777778 C18.8461538,1.77777778 19.3846154,2.22222222 19.3846154,2.66666667 C19.3846154,3.11111111 18.8461538,3.55555556 18.3076923,3.55555556 L9.69230769,3.55555556 C9.15384615,3.55555556 8.61538462,3.11111111 8.61538462,2.66666667 Z M10.3384615,11.1111111 L11.8461538,10.7555556 L11.8461538,5.33333333 L16.1538462,5.33333333 L16.1538462,10.7555556 L17.6615385,11.1111111 C19.9230769,11.7333333 21.7538462,12.8 23.1538462,14.2222222 L4.84615385,14.2222222 C6.24615385,12.8 8.18461538,11.7333333 10.3384615,11.1111111 L10.3384615,11.1111111 Z M14,30.2222222 C7.43076923,30.2222222 2.15384615,25.8666667 2.15384615,20.4444444 C2.15384615,18.8444444 2.58461538,17.3333333 3.44615385,16 L24.5538462,16 C25.4153846,17.3333333 25.8461538,18.8444444 25.8461538,20.4444444 C25.8461538,25.8666667 20.5692308,30.2222222 14,30.2222222 Z" id="Shape" fill="url(#linearGradient-1)"></path>
            <path d="M22.0181568,22.2282122 C21.4897628,22.0497015 20.85569,22.2282122 20.6443324,22.6744891 C19.7989019,24.1025752 18.4250775,25.1736398 16.8398954,25.8876829 C16.3115014,26.0661936 16.1001438,26.6017259 16.3115014,27.0480028 C16.522859,27.4050243 16.8398954,27.5835351 17.2626107,27.5835351 C17.3682895,27.5835351 17.5796471,27.5835351 17.6853259,27.4942797 C19.6932231,26.6017259 21.384084,25.1736398 22.440872,23.4777876 C22.7579084,23.0315107 22.5465508,22.4959784 22.0181568,22.2282122 L22.0181568,22.2282122 Z" id="Path" fill="#1296DB"></path>
        </g>
    </g>
</svg>