<svg width="1048" height="670" viewBox="0 0 1048 670" fill="none" xmlns="http://www.w3.org/2000/svg"><g clip-path="url(#clip0_6962_26909)"><path fill="#000" d="M0 0h1048v670H0z"/><g opacity=".8" filter="url(#filter0_b_6962_26909)"><path transform="matrix(.86603 .5 -.86603 .5 545.506 362.388)" fill="url(#paint0_radial_6962_26909)" d="M0 0h364.432v766.151H0z"/></g><g filter="url(#filter1_d_6962_26909)"><path d="M878.711 91.652L432.836 349.055l158.428 91.461 445.876-257.404-158.429-91.46z" fill="url(#paint1_linear_6962_26909)" shape-rendering="crispEdges"/></g><path d="M1034.37 183.112L591.264 438.918l-155.66-89.863L878.711 93.25l155.659 89.862z" stroke="url(#paint2_linear_6962_26909)" stroke-opacity=".8" stroke-width="2.768"/><g filter="url(#filter2_f_6962_26909)"><path d="M585.637 343.664l78.127-55.199-38.17 3.575c-20.104 8.547-73.342 32.375-73.342 32.375l33.385 19.249z" fill="url(#paint3_linear_6962_26909)"/></g><g opacity=".9"><ellipse rx="30.055" ry="30.108" transform="matrix(-.86603 -.5 -.86603 .5 571.468 339.382)" fill="url(#paint4_radial_6962_26909)"/><path d="M479.745 286.425c-50.747 29.298-50.82 76.759-.163 106.006 50.657 29.247 132.862 29.205 183.609-.094 50.747-29.298 50.82-76.759.163-106.006-50.657-29.247-132.862-29.205-183.609.094z" fill="url(#paint5_radial_6962_26909)" fill-opacity=".6"/><path opacity=".2" fill-rule="evenodd" clip-rule="evenodd" d="M624.908 310.854c-13.7-7.91-31.636-11.854-49.55-11.854-17.915 0-35.848 3.944-49.551 11.854-13.699 7.91-20.631 18.324-20.631 28.816 0 7.661 3.695 15.281 11.022 21.913a.366.366 0 10.491-.542c-7.21-6.525-10.784-13.97-10.784-21.371 0-10.136 6.701-20.35 20.265-28.183 13.564-7.829 31.365-11.755 49.184-11.755s35.62 3.926 49.184 11.755c13.564 7.833 20.265 18.047 20.265 28.183s-6.698 20.35-20.265 28.182c-13.564 7.83-31.365 11.755-49.184 11.755-11.704 0-23.396-1.691-33.888-5.071l-.857.49c10.737 3.545 22.745 5.314 34.745 5.314 17.914 0 35.847-3.944 49.55-11.854 13.7-7.91 20.632-18.325 20.632-28.816 0-10.492-6.932-20.91-20.632-28.816h.004z" fill="url(#paint6_linear_6962_26909)"/><path opacity=".35" fill-rule="evenodd" clip-rule="evenodd" d="M522.555 358.921a.37.37 0 01-.406-.066c-6.262-5.83-9.422-12.487-9.422-19.185 0-9.375 6.196-18.676 18.419-25.733 12.228-7.06 28.227-10.575 44.208-10.575 15.981 0 31.983 3.519 44.211 10.575 12.223 7.057 18.419 16.358 18.419 25.733s-6.196 18.676-18.419 25.733c-12.228 7.056-28.227 10.576-44.211 10.576-10.02 0-20.05-1.385-29.15-4.157l.876-.501c8.843 2.614 18.555 3.925 28.274 3.925 15.885 0 31.753-3.501 43.845-10.48 12.091-6.98 18.053-16.076 18.053-25.1 0-9.023-5.962-18.119-18.053-25.099-12.089-6.98-27.956-10.48-43.845-10.48-15.89 0-31.753 3.5-43.842 10.48-12.091 6.98-18.053 16.076-18.053 25.099 0 6.445 3.043 12.931 9.188 18.651a.365.365 0 01-.095.6l.003.004z" fill="url(#paint7_linear_6962_26909)"/><path opacity=".5" fill-rule="evenodd" clip-rule="evenodd" d="M528.894 356.021a.376.376 0 01-.41-.07c-5.134-4.973-7.73-10.609-7.73-16.281 0-8.188 5.412-16.303 16.069-22.455 10.66-6.152 24.604-9.221 38.535-9.221 13.93 0 27.875 3.065 38.531 9.221 10.656 6.152 16.069 14.267 16.069 22.455 0 8.188-5.413 16.303-16.069 22.455-10.66 6.152-24.605 9.221-38.531 9.221-7.907 0-15.816-.989-23.129-2.966l.904-.516c7.042 1.834 14.63 2.75 22.225 2.75 13.831 0 27.644-3.047 38.165-9.122 10.524-6.076 15.702-13.985 15.702-21.822s-5.178-15.747-15.702-21.822c-10.521-6.075-24.334-9.122-38.165-9.122-13.832 0-27.645 3.047-38.169 9.122-10.525 6.075-15.703 13.985-15.703 21.822 0 5.427 2.483 10.891 7.507 15.754a.362.362 0 01-.099.593v.004z" fill="url(#paint8_linear_6962_26909)"/><path opacity=".6" fill-rule="evenodd" clip-rule="evenodd" d="M535.053 353.201a.37.37 0 01-.417-.077c-4.054-4.138-6.109-8.778-6.109-13.454 0-7.042 4.651-14.007 13.791-19.284 9.141-5.277 21.097-7.906 33.035-7.906 11.938 0 23.894 2.629 33.035 7.906 9.136 5.277 13.791 12.242 13.791 19.284 0 7.042-4.651 14.007-13.791 19.28-9.141 5.277-21.097 7.906-33.035 7.906-5.83 0-11.667-.626-17.175-1.882l.945-.542c5.218 1.128 10.722 1.692 16.23 1.692 11.843 0 23.664-2.607 32.669-7.807 9.004-5.2 13.424-11.96 13.424-18.647 0-6.687-4.42-13.451-13.424-18.647-9.005-5.196-20.826-7.807-32.669-7.807-11.843 0-23.664 2.607-32.668 7.807-9.005 5.2-13.425 11.96-13.425 18.647 0 4.442 1.948 8.917 5.896 12.941a.366.366 0 01-.107.59h.004z" fill="url(#paint9_linear_6962_26909)"/><path opacity=".7" fill-rule="evenodd" clip-rule="evenodd" d="M541.478 350.264a.377.377 0 01-.429-.088c-2.948-3.259-4.445-6.87-4.445-10.506 0-5.852 3.867-11.627 11.432-15.995 7.566-4.369 17.464-6.544 27.34-6.544 9.877 0 19.772 2.175 27.341 6.544 7.565 4.368 11.432 10.143 11.432 15.995 0 5.852-3.867 11.627-11.432 15.996-7.569 4.368-17.464 6.544-27.341 6.544-3.64 0-7.283-.297-10.81-.887l1.015-.578c3.204.487 6.5.732 9.795.732 9.782 0 19.544-2.157 26.975-6.445 7.433-4.292 11.066-9.862 11.066-15.362s-3.633-11.07-11.066-15.362c-7.431-4.288-17.193-6.445-26.975-6.445-9.781 0-19.543 2.157-26.974 6.445-7.433 4.292-11.066 9.862-11.066 15.362 0 3.417 1.406 6.866 4.255 10.016a.366.366 0 01-.113.578z" fill="url(#paint10_linear_6962_26909)"/><path d="M550.905 325.032c0 12.358 10.019 22.376 22.377 22.376 12.358 0 22.376-10.018 22.376-22.376s-10.018-22.377-22.376-22.377-22.377 10.019-22.377 22.377z" fill="url(#paint11_radial_6962_26909)"/><path d="M550.905 325.032c0 12.358 10.019 22.376 22.377 22.376 12.358 0 22.376-10.018 22.376-22.376s-10.018-22.377-22.376-22.377-22.377 10.019-22.377 22.377z" fill="url(#paint12_radial_6962_26909)" fill-opacity=".5"/><path d="M550.905 325.032c0 12.358 10.019 22.376 22.377 22.376 12.358 0 22.376-10.018 22.376-22.376s-10.018-22.377-22.376-22.377-22.377 10.019-22.377 22.377z" fill="url(#paint13_radial_6962_26909)"/><path d="M550.905 325.032c0 12.358 10.019 22.376 22.377 22.376 12.358 0 22.376-10.018 22.376-22.376s-10.018-22.377-22.376-22.377-22.377 10.019-22.377 22.377z" fill="url(#paint14_radial_6962_26909)" fill-opacity=".5"/><path d="M550.904 325.032c0 12.358 10.019 22.376 22.377 22.376 12.358 0 22.376-10.018 22.376-22.376s-10.018-22.377-22.376-22.377-22.377 10.019-22.377 22.377z" fill="url(#paint15_radial_6962_26909)" fill-opacity=".8"/><path d="M550.904 325.032c0 12.358 10.019 22.376 22.377 22.376 12.358 0 22.376-10.018 22.376-22.376s-10.018-22.377-22.376-22.377-22.377 10.019-22.377 22.377z" fill="url(#paint16_radial_6962_26909)" fill-opacity=".5"/><path d="M550.904 325.032c0 12.358 10.019 22.376 22.377 22.376 12.358 0 22.376-10.018 22.376-22.376s-10.018-22.377-22.376-22.377-22.377 10.019-22.377 22.377z" fill="url(#paint17_radial_6962_26909)" fill-opacity=".8"/><path d="M550.904 325.032c0 12.358 10.019 22.376 22.377 22.376 12.358 0 22.376-10.018 22.376-22.376s-10.018-22.377-22.376-22.377-22.377 10.019-22.377 22.377z" fill="url(#paint18_radial_6962_26909)" fill-opacity=".5"/></g><g filter="url(#filter3_d_6962_26909)"><path d="M1074.53-98.79L615.568 166.169l158.429 91.461L1232.96-7.33l-158.43-91.46z" fill="url(#paint19_linear_6962_26909)" shape-rendering="crispEdges"/></g><path d="M1075.22-99.989l-.69-.399-.69.4L614.876 164.97l-2.075 1.198 2.075 1.199 158.429 91.461.692.399.692-.399L1233.65-6.131l2.08-1.198-2.08-1.199-158.43-91.46z" stroke="url(#paint20_linear_6962_26909)" stroke-opacity=".6" stroke-width="2.768"/><path opacity=".2" transform="scale(1.22477 .70706) rotate(-45 548.19 -521.238)" fill="url(#paint21_linear_6962_26909)" d="M0 0h36.352v36.352H0z"/><path opacity=".3" transform="scale(1.22477 .70706) rotate(-45 614.917 -548.281)" stroke="#D3FDEB" stroke-width="1.153" d="M.999 0h35.198v35.198H.999z"/><path opacity=".3" transform="scale(1.22477 .70706) rotate(-45 676.806 -571.916)" stroke="#D3FDEB" stroke-width="1.153" d="M.999 0h35.198v35.198H.999z"/><path opacity=".3" d="M696.288 138.869l30.483-17.598 30.483 17.598-30.483 17.598-30.483-17.598z" stroke="#D3FDEB" stroke-width="1.153"/><path opacity=".2" transform="scale(1.22477 .70706) rotate(-45 493.661 -652.882)" fill="url(#paint22_linear_6962_26909)" d="M0 0h36.352v36.352H0z"/><path d="M710.93 166.725l-31.341 18.094v-62.753l31.341-18.095v62.754z" fill="url(#paint23_linear_6962_26909)" fill-opacity=".65"/><path d="M648.248 166.725l31.341 18.094V98.297l-31.341-18.095v86.523z" fill="url(#paint24_linear_6962_26909)" fill-opacity=".65"/><path d="M805.105 111.575l-31.341 18.095V66.916l31.341-18.094v62.753z" fill="url(#paint25_linear_6962_26909)" fill-opacity=".65"/><path d="M742.424 111.575l31.341 18.095V43.148l-31.341-18.095v86.522z" fill="url(#paint26_linear_6962_26909)" fill-opacity=".65"/><g opacity=".8" filter="url(#filter4_b_6962_26909)"><path transform="scale(-1.22477 .70706) rotate(45 290.735 -467.738)" fill="url(#paint27_radial_6962_26909)" d="M0 0h349.62v496.473H0z"/></g><path d="M679.738 106.441l24.339-14.052v150.508l-24.339 14.052V106.441z" fill="url(#paint28_linear_6962_26909)" fill-opacity=".7"/><path d="M679.738 106.441L655.4 92.389v149.677l24.338 14.052V106.441z" fill="url(#paint29_linear_6962_26909)" fill-opacity=".65"/><path d="M655.178 64.527l24.448-14.116v28.231l-24.448 14.116V64.527z" fill="#0CC" fill-opacity=".38"/><path d="M704.076 64.527L679.628 50.41v28.231l24.448 14.116v-28.23z" fill="#009A9A" fill-opacity=".38"/><path transform="matrix(-.86603 -.5 .86603 -.5 679.551 78.68)" fill="url(#paint30_linear_6962_26909)" fill-opacity=".9" d="M0 0h28.231v28.231H0z"/><path d="M679.635 78.642l-24.449-14.116v28.231l24.449 14.116V78.642z" fill="url(#paint31_linear_6962_26909)" fill-opacity=".9"/><path d="M679.627 78.635l24.449-14.115v28.23l-24.449 14.116v-28.23z" fill="url(#paint32_linear_6962_26909)" fill-opacity=".9"/><g opacity=".7"><path d="M595.268 138.389l10.087-5.824v62.38l-10.087 5.824v-62.38z" fill="url(#paint33_linear_6962_26909)" fill-opacity=".7"/><path d="M595.268 138.389l-10.088-5.824v62.036l10.088 5.824v-62.036z" fill="url(#paint34_linear_6962_26909)" fill-opacity=".65"/><path d="M585.088 121.017l10.133-5.85v11.7l-10.133 5.851v-11.701z" fill="#0CC" fill-opacity=".38"/><path d="M605.354 121.017l-10.134-5.85v11.7l10.134 5.851v-11.701z" fill="#009A9A" fill-opacity=".38"/><path transform="matrix(-.86603 -.5 .86603 -.5 595.189 126.883)" fill="url(#paint35_linear_6962_26909)" fill-opacity=".9" d="M0 0h11.701v11.701H0z"/><path d="M595.225 126.867l-10.133-5.85v11.701l10.133 5.85v-11.701z" fill="url(#paint36_linear_6962_26909)" fill-opacity=".9"/><path d="M595.221 126.865l10.133-5.851v11.701l-10.133 5.85v-11.7z" fill="url(#paint37_linear_6962_26909)" fill-opacity=".9"/></g><g filter="url(#filter5_d_6962_26909)"><path d="M960.651 258.734L1320.86 466.7 724.01 811.29 363.803 603.324l596.848-344.59z" fill="url(#paint38_linear_6962_26909)" shape-rendering="crispEdges"/></g><path d="M961.343 257.535l-.692-.399-.692.399-596.848 344.591-2.076 1.198 2.076 1.199 360.207 207.966.692.399.692-.399 596.848-344.591 2.08-1.198-2.08-1.199-360.207-207.966z" stroke="url(#paint39_linear_6962_26909)" stroke-opacity=".8" stroke-width="2.768"/><path d="M525.258 523.606l12.194-7.041v75.409l-12.194 7.041v-75.409z" fill="url(#paint40_linear_6962_26909)" fill-opacity=".7"/><path d="M525.258 523.606l-12.195-7.041v74.993l12.195 7.04v-74.992z" fill="url(#paint41_linear_6962_26909)" fill-opacity=".65"/><path d="M513.029 502.429l12.229-7.06v14.12l-12.229 7.06v-14.12z" fill="#5A00CC" fill-opacity=".38"/><path d="M537.486 502.429l-12.228-7.06v14.12l12.228 7.06v-14.12z" fill="#56009A" fill-opacity=".38"/><path transform="matrix(-.86603 -.5 .86603 -.5 525.221 509.51)" fill="url(#paint42_linear_6962_26909)" d="M0 0h14.12v14.12H0z"/><path transform="matrix(-.86603 -.5 .86603 -.5 525.221 523.592)" fill="url(#paint43_linear_6962_26909)" fill-opacity=".9" d="M0 0h14.12v14.12H0z"/><path d="M525.264 509.49l-12.229-7.06v14.12l12.229 7.06v-14.12z" fill="url(#paint44_linear_6962_26909)" fill-opacity=".9"/><path d="M525.26 509.487l12.228-7.061v14.121l-12.228 7.06v-14.12z" fill="url(#paint45_linear_6962_26909)" fill-opacity=".9"/><g filter="url(#filter6_d_6962_26909)"><path d="M994.979 158.9l392.371 226.535-379.09 218.869-392.373-226.535L994.979 158.9z" fill="url(#paint46_linear_6962_26909)" shape-rendering="crispEdges"/></g><path d="M995.671 157.702l-.692-.4-.692.4-379.092 218.869-2.076 1.198 2.076 1.199 392.365 226.535.7.399.69-.399 379.09-218.869 2.08-1.199-2.08-1.198-392.369-226.535z" stroke="url(#paint47_linear_6962_26909)" stroke-opacity=".8" stroke-width="2.768"/><g filter="url(#filter7_f_6962_26909)"><path d="M866.504 319.036l-56.845 61.225-34.986-20.173-36.37 20.173 35.838-20.48.532.307 66.855-37.082 24.976-3.97z" fill="url(#paint48_linear_6962_26909)"/></g><path d="M691.029 332.355c-45.903 26.502-45.969 69.433-.147 95.888 45.822 26.456 120.18 26.417 166.083-.085 45.904-26.502 45.969-69.433.147-95.888s-120.18-26.417-166.083.085z" fill="url(#paint49_radial_6962_26909)" fill-opacity=".5"/><path opacity=".4" transform="matrix(-.86603 -.5 .86603 -.5 773.758 400.622)" fill="url(#paint50_linear_6962_26909)" d="M0 0h40.526v40.526H0z"/><g opacity=".9" fill-rule="evenodd" clip-rule="evenodd"><path d="M738.66 380.422l35.078-36.644v56.86l-35.078-20.216z" fill="url(#paint51_linear_6962_26909)"/><path d="M738.66 380.422l35.078-36.644v56.86l-35.078-20.216z" fill="url(#paint52_linear_6962_26909)" fill-opacity=".1"/></g><g opacity=".9" fill-rule="evenodd" clip-rule="evenodd"><path d="M808.824 380.422l-35.078-36.644v56.86l35.078-20.216z" fill="url(#paint53_linear_6962_26909)"/><path d="M808.824 380.422l-35.078-36.644v56.86l35.078-20.216z" fill="url(#paint54_linear_6962_26909)" fill-opacity=".1"/></g><path opacity=".6" fill-rule="evenodd" clip-rule="evenodd" d="M598.751 543.962l-82.148-48.183-.556.947 81.604 47.863-26.446 15.075.544.953 101.826-58.046-.544-.953-43.742 24.935-48.146-28.382-.557.945 47.604 28.064-29.439 16.782zm124.227 36.054l-27.017 15.057 46.204 29.527-.615.91-46.678-29.83-64.079 35.711-.534-.958 180.997-100.871.534.959-87.699 48.875 77.326 45.327-.555.947-77.884-45.654zm-33.783 46.327l-22.468-14.358.615-.91 22.468 14.358-.615.91z" fill="url(#paint55_radial_6962_26909)"/><g opacity=".5" stroke-width="1.153"><path d="M911.641 260.21l134.549-77.683" stroke="url(#paint56_linear_6962_26909)"/><circle r="2.623" transform="scale(1.22477 .70706) rotate(-45 817.535 -710.823)" stroke="#fff"/></g><g opacity=".5" stroke-width="1.153"><path d="M908.676 426.449l134.554 77.683" stroke="url(#paint57_linear_6962_26909)"/><path d="M908.296 426.692c1.254-.725 1.254-1.899 0-2.623-1.255-.724-3.289-.724-4.543 0-1.255.724-1.255 1.898 0 2.623 1.254.724 3.288.724 4.543 0z" stroke="#fff"/></g><g opacity=".6" stroke-width="1.153"><path d="M1045.13 396.507l-139.442-81.602-36.733 22.417" stroke="url(#paint58_linear_6962_26909)"/><circle r="2.623" transform="scale(1.22477 .70706) rotate(-45 931.94 -615.057)" stroke="#fff"/></g><path d="M666.758 562.748l28.454-16.428v175.954l-28.454 16.428V562.748z" fill="url(#paint59_linear_6962_26909)" fill-opacity=".7"/><path d="M666.758 562.748l-28.454-16.428v174.983l28.454 16.428V562.748z" fill="url(#paint60_linear_6962_26909)" fill-opacity=".65"/><path d="M638.221 513.34l28.533-16.474v32.948l-28.533 16.474V513.34z" fill="#5A00CC" fill-opacity=".38"/><path d="M695.289 513.34l-28.533-16.474v32.948l28.533 16.474V513.34z" fill="#56009A" fill-opacity=".38"/><path transform="matrix(-.86603 -.5 .86603 -.5 666.666 529.86)" fill="url(#paint61_linear_6962_26909)" d="M0 0h32.948v32.948H0z"/><path transform="matrix(-.86603 -.5 .86603 -.5 666.666 562.718)" fill="url(#paint62_linear_6962_26909)" fill-opacity=".9" d="M0 0h32.948v32.948H0z"/><path d="M666.766 529.814l-28.534-16.473v32.947l28.534 16.474v-32.948z" fill="url(#paint63_linear_6962_26909)" fill-opacity=".9"/><path d="M666.754 529.806l28.533-16.474v32.948l-28.533 16.474v-32.948z" fill="url(#paint64_linear_6962_26909)" fill-opacity=".9"/><path fill="url(#paint65_linear_6962_26909)" d="M957.85-15.715h90.41V687.27h-90.41z"/></g><defs><linearGradient id="paint1_linear_6962_26909" x1="779.058" y1="152.595" x2="407.953" y2="370.529" gradientUnits="userSpaceOnUse"><stop stop-color="#313131" stop-opacity="0"/><stop offset=".432" stop-color="#1C1C1C" stop-opacity=".76"/><stop offset="1" stop-color="#1F1F1F" stop-opacity=".86"/></linearGradient><linearGradient id="paint2_linear_6962_26909" x1="697.809" y1="221.905" x2="536.881" y2="404.666" gradientUnits="userSpaceOnUse"><stop stop-color="#F4538E" stop-opacity="0"/><stop offset=".255" stop-color="#F4538E" stop-opacity=".42"/><stop offset=".684" stop-color="#FB78A7" stop-opacity=".805"/><stop offset="1" stop-color="#FF7485"/></linearGradient><linearGradient id="paint3_linear_6962_26909" x1="579.161" y1="320.295" x2="621.521" y2="278.201" gradientUnits="userSpaceOnUse"><stop/><stop offset=".349" stop-opacity=".37"/><stop offset=".542" stop-opacity=".23"/><stop offset=".766" stop-opacity=".12"/><stop offset="1" stop-opacity="0"/></linearGradient><linearGradient id="paint6_linear_6962_26909" x1="551.112" y1="317.533" x2="576.321" y2="340.549" gradientUnits="userSpaceOnUse"><stop stop-color="#fff" stop-opacity=".4"/><stop offset="1" stop-color="#DC477D" stop-opacity=".26"/></linearGradient><linearGradient id="paint7_linear_6962_26909" x1="553.719" y1="319.914" x2="576.218" y2="340.454" gradientUnits="userSpaceOnUse"><stop stop-color="#fff" stop-opacity=".4"/><stop offset="1" stop-color="#DC477D" stop-opacity=".26"/></linearGradient><linearGradient id="paint8_linear_6962_26909" x1="556.495" y1="322.437" x2="576.112" y2="340.347" gradientUnits="userSpaceOnUse"><stop stop-color="#fff" stop-opacity=".4"/><stop offset="1" stop-color="#DC477D" stop-opacity=".26"/></linearGradient><linearGradient id="paint9_linear_6962_26909" x1="559.185" y1="324.876" x2="576.012" y2="340.241" gradientUnits="userSpaceOnUse"><stop stop-color="#fff" stop-opacity=".4"/><stop offset="1" stop-color="#DC477D" stop-opacity=".26"/></linearGradient><linearGradient id="paint10_linear_6962_26909" x1="562.007" y1="327.391" x2="575.944" y2="340.117" gradientUnits="userSpaceOnUse"><stop stop-color="#fff" stop-opacity=".4"/><stop offset="1" stop-color="#DC477D" stop-opacity=".26"/></linearGradient><linearGradient id="paint19_linear_6962_26909" x1="676.627" y1="212.012" x2="1055.83" y2="-35.87" gradientUnits="userSpaceOnUse"><stop stop-color="#292929"/><stop offset=".418" stop-color="#262626" stop-opacity=".88"/><stop offset="1" stop-color="#1F1F1F" stop-opacity="0"/></linearGradient><linearGradient id="paint20_linear_6962_26909" x1="979.624" y1="23.176" x2="587.959" y2="181.77" gradientUnits="userSpaceOnUse"><stop stop-color="#147DC2" stop-opacity="0"/><stop offset=".505" stop-color="#14B3C2" stop-opacity=".7"/><stop offset="1" stop-color="#01CE9D"/></linearGradient><linearGradient id="paint21_linear_6962_26909" x1="-.006" y1="18.175" x2="36.353" y2="18.175" gradientUnits="userSpaceOnUse"><stop stop-color="#59F5FF" stop-opacity=".62"/><stop offset="0" stop-color="#BBFBFF" stop-opacity=".62"/><stop offset="1" stop-color="#B8FFE1" stop-opacity=".02"/></linearGradient><linearGradient id="paint22_linear_6962_26909" x1="-.006" y1="18.175" x2="36.353" y2="18.175" gradientUnits="userSpaceOnUse"><stop stop-color="#59F5FF" stop-opacity=".62"/><stop offset="0" stop-color="#BBFBFF" stop-opacity=".62"/><stop offset="1" stop-color="#B8FFE1" stop-opacity=".02"/></linearGradient><linearGradient id="paint23_linear_6962_26909" x1="690.273" y1="197.212" x2="707.778" y2="150.001" gradientUnits="userSpaceOnUse"><stop stop-color="#56C0A7"/><stop offset="1" stop-color="#008196" stop-opacity="0"/></linearGradient><linearGradient id="paint24_linear_6962_26909" x1="665.339" y1="194.712" x2="664.851" y2="138.459" gradientUnits="userSpaceOnUse"><stop stop-color="#9EFED5"/><stop offset="1" stop-color="#008196" stop-opacity="0"/></linearGradient><linearGradient id="paint25_linear_6962_26909" x1="784.448" y1="142.062" x2="801.953" y2="94.852" gradientUnits="userSpaceOnUse"><stop stop-color="#56C0A7"/><stop offset="1" stop-color="#008196" stop-opacity="0"/></linearGradient><linearGradient id="paint26_linear_6962_26909" x1="759.515" y1="139.563" x2="759.027" y2="83.31" gradientUnits="userSpaceOnUse"><stop stop-color="#9EFED5"/><stop offset="1" stop-color="#008196" stop-opacity="0"/></linearGradient><linearGradient id="paint28_linear_6962_26909" x1="689.8" y1="51.88" x2="630.305" y2="161.846" gradientUnits="userSpaceOnUse"><stop stop-color="#2A7D4C"/><stop offset="1" stop-color="#04183E" stop-opacity="0"/></linearGradient><linearGradient id="paint29_linear_6962_26909" x1="676.981" y1="63.758" x2="668.403" y2="181.59" gradientUnits="userSpaceOnUse"><stop stop-color="#65D592"/><stop offset="1" stop-color="#31526A" stop-opacity="0"/></linearGradient><linearGradient id="paint30_linear_6962_26909" x1="28.177" y1="4.587" x2="-.944" y2="27.005" gradientUnits="userSpaceOnUse"><stop stop-color="#DFFFF1"/><stop offset=".5" stop-color="#4DECBC" stop-opacity=".83"/><stop offset=".987" stop-color="#0694AB" stop-opacity=".8"/></linearGradient><linearGradient id="paint31_linear_6962_26909" x1="655.186" y1="63.413" x2="675.915" y2="108.165" gradientUnits="userSpaceOnUse"><stop stop-color="#A5FFDE" stop-opacity=".99"/><stop offset=".781" stop-color="#086E67" stop-opacity=".998"/><stop offset="1" stop-color="#005459"/></linearGradient><linearGradient id="paint32_linear_6962_26909" x1="691.851" y1="76.153" x2="701.312" y2="93.305" gradientUnits="userSpaceOnUse"><stop stop-color="#3DEBC1" stop-opacity=".31"/><stop offset="1" stop-color="#016862" stop-opacity=".81"/></linearGradient><linearGradient id="paint33_linear_6962_26909" x1="599.438" y1="115.775" x2="574.779" y2="161.352" gradientUnits="userSpaceOnUse"><stop stop-color="#2A7D4C"/><stop offset="1" stop-color="#04183E" stop-opacity="0"/></linearGradient><linearGradient id="paint34_linear_6962_26909" x1="594.125" y1="120.698" x2="590.569" y2="169.535" gradientUnits="userSpaceOnUse"><stop stop-color="#65D592"/><stop offset="1" stop-color="#31526A" stop-opacity="0"/></linearGradient><linearGradient id="paint35_linear_6962_26909" x1="11.678" y1="1.901" x2="-.391" y2="11.193" gradientUnits="userSpaceOnUse"><stop stop-color="#DFFFF1"/><stop offset=".5" stop-color="#4DECBC" stop-opacity=".83"/><stop offset=".987" stop-color="#0694AB" stop-opacity=".8"/></linearGradient><linearGradient id="paint36_linear_6962_26909" x1="585.092" y1="120.555" x2="593.683" y2="139.104" gradientUnits="userSpaceOnUse"><stop stop-color="#A5FFDE" stop-opacity=".99"/><stop offset=".781" stop-color="#086E67" stop-opacity=".998"/><stop offset="1" stop-color="#005459"/></linearGradient><linearGradient id="paint37_linear_6962_26909" x1="600.287" y1="125.835" x2="604.208" y2="132.944" gradientUnits="userSpaceOnUse"><stop stop-color="#3DEBC1" stop-opacity=".31"/><stop offset="1" stop-color="#016862" stop-opacity=".81"/></linearGradient><linearGradient id="paint38_linear_6962_26909" x1="314.057" y1="613.466" x2="1273.68" y2="778.994" gradientUnits="userSpaceOnUse"><stop stop-color="#2D2D2D"/><stop offset=".418" stop-color="#181818" stop-opacity=".74"/><stop offset="1" stop-color="#1F1F1F" stop-opacity=".13"/></linearGradient><linearGradient id="paint39_linear_6962_26909" x1="1316.39" y1="458.409" x2="357.291" y2="611.274" gradientUnits="userSpaceOnUse"><stop stop-color="#171234"/><stop offset=".568" stop-color="#5811B5"/><stop offset="1" stop-color="#4CACDA"/></linearGradient><linearGradient id="paint40_linear_6962_26909" x1="530.299" y1="496.269" x2="500.49" y2="551.365" gradientUnits="userSpaceOnUse"><stop stop-color="#532A7D"/><stop offset="1" stop-color="#33197C" stop-opacity="0"/></linearGradient><linearGradient id="paint41_linear_6962_26909" x1="523.876" y1="502.22" x2="519.578" y2="561.257" gradientUnits="userSpaceOnUse"><stop stop-color="#9C65D5"/><stop offset="1" stop-color="#522AC2" stop-opacity="0"/></linearGradient><linearGradient id="paint42_linear_6962_26909" x1="14.711" y1="3.081" x2="-.928" y2="12.247" gradientUnits="userSpaceOnUse"><stop stop-color="#DAEBFF" stop-opacity=".86"/><stop offset=".5" stop-color="#A35BFF" stop-opacity=".88"/><stop offset=".987" stop-color="#3A07CD" stop-opacity=".8"/></linearGradient><linearGradient id="paint43_linear_6962_26909" x1="15.796" y1="-.413" x2="-1.94" y2="13.713" gradientUnits="userSpaceOnUse"><stop stop-color="#D1DBFF"/><stop offset=".479" stop-color="#A975FF" stop-opacity=".45"/><stop offset=".987" stop-color="#552ACE" stop-opacity=".65"/></linearGradient><linearGradient id="paint44_linear_6962_26909" x1="513.035" y1="501.872" x2="524.638" y2="523.61" gradientUnits="userSpaceOnUse"><stop stop-color="#A5B3FF" stop-opacity=".84"/><stop offset=".596" stop-color="#7622CA" stop-opacity=".998"/><stop offset="1" stop-color="#2E2C9F"/></linearGradient><linearGradient id="paint45_linear_6962_26909" x1="537.906" y1="502.426" x2="525.26" y2="524.035" gradientUnits="userSpaceOnUse"><stop stop-color="#863BE7" stop-opacity=".76"/><stop offset="1" stop-color="#0F1B5C" stop-opacity=".81"/></linearGradient><linearGradient id="paint46_linear_6962_26909" x1="609.795" y1="409.711" x2="944.9" y2="298.436" gradientUnits="userSpaceOnUse"><stop stop-color="#313131"/><stop offset="1" stop-opacity=".74"/></linearGradient><linearGradient id="paint47_linear_6962_26909" x1="996.545" y1="273.736" x2="599.045" y2="361.798" gradientUnits="userSpaceOnUse"><stop stop-color="#EC585D" stop-opacity="0"/><stop offset=".505" stop-color="#EC585D" stop-opacity=".57"/><stop offset="1" stop-color="#FFD976"/></linearGradient><linearGradient id="paint48_linear_6962_26909" x1="776.701" y1="364.261" x2="847.836" y2="310.615" gradientUnits="userSpaceOnUse"><stop/><stop offset=".349" stop-opacity=".37"/><stop offset=".542" stop-opacity=".23"/><stop offset=".766" stop-opacity=".12"/><stop offset="1" stop-opacity="0"/></linearGradient><linearGradient id="paint50_linear_6962_26909" x1="0" y1="40.526" x2="44.13" y2="4.402" gradientUnits="userSpaceOnUse"><stop stop-color="#FFF4D4"/><stop offset="1" stop-color="#EC585D"/></linearGradient><linearGradient id="paint51_linear_6962_26909" x1="738.66" y1="400.638" x2="788.688" y2="374.396" gradientUnits="userSpaceOnUse"><stop stop-color="#FFF6B7"/><stop offset="1" stop-color="#EC585D"/></linearGradient><linearGradient id="paint52_linear_6962_26909" x1="771.807" y1="338.385" x2="756.154" y2="395.274" gradientUnits="userSpaceOnUse"><stop/><stop offset="1" stop-opacity="0"/></linearGradient><linearGradient id="paint53_linear_6962_26909" x1="808.824" y1="400.638" x2="758.797" y2="374.396" gradientUnits="userSpaceOnUse"><stop stop-color="#EC585D"/><stop offset="1" stop-color="#FFF6B7"/></linearGradient><linearGradient id="paint54_linear_6962_26909" x1="811.399" y1="378.437" x2="773.779" y2="353.248" gradientUnits="userSpaceOnUse"><stop/><stop offset="1" stop-opacity="0"/></linearGradient><linearGradient id="paint56_linear_6962_26909" x1="911.641" y1="260.21" x2="969.485" y2="225.427" gradientUnits="userSpaceOnUse"><stop stop-color="#fff"/><stop offset="1" stop-color="#fff" stop-opacity="0"/></linearGradient><linearGradient id="paint57_linear_6962_26909" x1="908.676" y1="426.449" x2="999.744" y2="478.407" gradientUnits="userSpaceOnUse"><stop stop-color="#fff"/><stop offset="1" stop-color="#fff" stop-opacity="0"/></linearGradient><linearGradient id="paint58_linear_6962_26909" x1="871.773" y1="335.958" x2="981.352" y2="357.691" gradientUnits="userSpaceOnUse"><stop stop-color="#fff"/><stop offset="1" stop-color="#fff" stop-opacity="0"/></linearGradient><linearGradient id="paint59_linear_6962_26909" x1="678.52" y1="498.962" x2="631.598" y2="593.872" gradientUnits="userSpaceOnUse"><stop stop-color="#532A7D"/><stop offset="1" stop-color="#33197C" stop-opacity="0"/></linearGradient><linearGradient id="paint60_linear_6962_26909" x1="663.534" y1="512.848" x2="661.379" y2="621.804" gradientUnits="userSpaceOnUse"><stop stop-color="#9C65D5"/><stop offset="1" stop-color="#522AC2" stop-opacity="0"/></linearGradient><linearGradient id="paint61_linear_6962_26909" x1="34.327" y1="7.188" x2="-2.165" y2="28.576" gradientUnits="userSpaceOnUse"><stop stop-color="#DAEBFF" stop-opacity=".86"/><stop offset=".5" stop-color="#A35BFF" stop-opacity=".88"/><stop offset=".987" stop-color="#3A07CD" stop-opacity=".8"/></linearGradient><linearGradient id="paint62_linear_6962_26909" x1="36.858" y1="-.964" x2="-4.527" y2="31.998" gradientUnits="userSpaceOnUse"><stop stop-color="#D1DBFF"/><stop offset=".479" stop-color="#A975FF" stop-opacity=".45"/><stop offset=".987" stop-color="#552ACE" stop-opacity=".65"/></linearGradient><linearGradient id="paint63_linear_6962_26909" x1="638.232" y1="512.041" x2="665.306" y2="562.762" gradientUnits="userSpaceOnUse"><stop stop-color="#A5B3FF" stop-opacity=".84"/><stop offset=".596" stop-color="#7622CA" stop-opacity=".998"/><stop offset="1" stop-color="#2E2C9F"/></linearGradient><linearGradient id="paint64_linear_6962_26909" x1="696.262" y1="513.332" x2="666.754" y2="563.752" gradientUnits="userSpaceOnUse"><stop stop-color="#863BE7" stop-opacity=".76"/><stop offset="1" stop-color="#0F1B5C" stop-opacity=".81"/></linearGradient><linearGradient id="paint65_linear_6962_26909" x1="1048.26" y1="244.874" x2="964.477" y2="250.26" gradientUnits="userSpaceOnUse"><stop/><stop offset="1" stop-opacity="0"/></linearGradient><radialGradient id="paint0_radial_6962_26909" cx="0" cy="0" r="1" gradientUnits="userSpaceOnUse" gradientTransform="matrix(-22.32244 -721.1356 802.5446 -24.84242 28.106 672.901)"><stop stop-color="#484848" stop-opacity=".88"/><stop offset=".47" stop-color="#242424"/><stop offset="1" stop-color="#131313" stop-opacity=".34"/></radialGradient><radialGradient id="paint4_radial_6962_26909" cx="0" cy="0" r="1" gradientUnits="userSpaceOnUse" gradientTransform="matrix(-3.27424 37.92783 -34.4949 -2.97788 30.055 30.161)"><stop stop-opacity=".8"/><stop offset=".365" stop-opacity=".4"/><stop offset=".844" stop-opacity="0"/></radialGradient><radialGradient id="paint5_radial_6962_26909" cx="0" cy="0" r="1" gradientUnits="userSpaceOnUse" gradientTransform="rotate(141.935 227.1 268.277) scale(113.818 98.0499)"><stop stop-color="#CA3066" stop-opacity=".8"/><stop offset=".295" stop-color="#CA3066" stop-opacity=".4"/><stop offset=".599" stop-color="#D63F75" stop-opacity=".095"/><stop offset=".754" stop-color="#DC477D" stop-opacity="0"/></radialGradient><radialGradient id="paint11_radial_6962_26909" cx="0" cy="0" r="1" gradientUnits="userSpaceOnUse" gradientTransform="matrix(-3.61415 33.6031 -33.6038 -3.61423 576.895 313.805)"><stop offset=".135" stop-color="#DC477D" stop-opacity=".4"/><stop offset=".748" stop-color="#8A143F"/></radialGradient><radialGradient id="paint12_radial_6962_26909" cx="0" cy="0" r="1" gradientUnits="userSpaceOnUse" gradientTransform="matrix(-3.22956 18.07037 -18.07067 -3.22962 576.588 313.805)"><stop stop-color="#F98DB4"/><stop offset=".969" stop-color="#DC477D" stop-opacity="0"/></radialGradient><radialGradient id="paint13_radial_6962_26909" cx="0" cy="0" r="1" gradientUnits="userSpaceOnUse" gradientTransform="matrix(-3.84503 33.06479 -33.06548 -3.8451 577.204 316.652)"><stop stop-color="#DC477D" stop-opacity="0"/><stop offset=".391" stop-color="#CA3066" stop-opacity="0"/><stop offset=".734" stop-color="#64112F"/><stop offset=".844" stop-color="#500B24"/><stop offset=".969" stop-color="#6C0E30" stop-opacity=".17"/></radialGradient><radialGradient id="paint14_radial_6962_26909" cx="0" cy="0" r="1" gradientUnits="userSpaceOnUse" gradientTransform="rotate(97.109 150.342 411.728) scale(34.1734 34.1741)"><stop offset=".219" stop-color="#D1EBFF"/><stop offset="1" stop-color="#CA3066"/></radialGradient><radialGradient id="paint15_radial_6962_26909" cx="0" cy="0" r="1" gradientUnits="userSpaceOnUse" gradientTransform="rotate(83.861 110.15 474.012) scale(33.7969)"><stop offset=".135" stop-color="#DC477D" stop-opacity=".4"/><stop offset=".748" stop-color="#8A143F"/></radialGradient><radialGradient id="paint16_radial_6962_26909" cx="0" cy="0" r="1" gradientUnits="userSpaceOnUse" gradientTransform="rotate(79.867 97.555 497.338) scale(18.3567)"><stop stop-color="#F9BFD4"/><stop offset=".969" stop-color="#DC477D" stop-opacity="0"/></radialGradient><radialGradient id="paint17_radial_6962_26909" cx="0" cy="0" r="1" gradientUnits="userSpaceOnUse" gradientTransform="rotate(83.368 106.877 478.024) scale(33.2876)"><stop stop-color="#DC477D" stop-opacity="0"/><stop offset=".391" stop-color="#CA3066" stop-opacity="0"/><stop offset=".734" stop-color="#64112F"/><stop offset=".844" stop-color="#500B24"/><stop offset=".969" stop-color="#6C0E30" stop-opacity=".17"/></radialGradient><radialGradient id="paint18_radial_6962_26909" cx="0" cy="0" r="1" gradientUnits="userSpaceOnUse" gradientTransform="rotate(82.891 107.013 478.963) scale(34.1734)"><stop offset=".219" stop-color="#FE689E"/><stop offset="1" stop-color="#BE30CA"/></radialGradient><radialGradient id="paint27_radial_6962_26909" cx="0" cy="0" r="1" gradientUnits="userSpaceOnUse" gradientTransform="matrix(-339.84456 -557.5422 3963.59916 -2415.97426 462.007 682.337)"><stop stop-color="#484848" stop-opacity=".88"/><stop offset=".47" stop-color="#242424" stop-opacity=".76"/><stop offset="1" stop-color="#131313" stop-opacity=".34"/></radialGradient><radialGradient id="paint49_radial_6962_26909" cx="0" cy="0" r="1" gradientUnits="userSpaceOnUse" gradientTransform="matrix(-86.5977 66.32876 -57.13932 -74.60012 773.849 380.342)"><stop stop-color="#F73F3F" stop-opacity=".8"/><stop offset=".295" stop-color="#FF6635" stop-opacity=".33"/><stop offset=".521" stop-color="#FFC06D" stop-opacity=".12"/><stop offset=".745" stop-color="#FFE974" stop-opacity=".02"/><stop offset=".953" stop-color="#FFDF38" stop-opacity="0"/></radialGradient><radialGradient id="paint55_radial_6962_26909" cx="0" cy="0" r="1" gradientUnits="userSpaceOnUse" gradientTransform="matrix(112.6165 10.7666 -6.58255 68.85226 675.819 559.361)"><stop offset=".375" stop-color="#EADDFF"/><stop offset="1" stop-color="#E3D2FF" stop-opacity="0"/></radialGradient><filter id="filter0_b_6962_26909" x="-119.585" y="360.803" width="982.283" height="568.462" filterUnits="userSpaceOnUse" color-interpolation-filters="sRGB"><feFlood flood-opacity="0" result="BackgroundImageFix"/><feGaussianBlur in="BackgroundImage" stdDeviation=".793"/><feComposite in2="SourceAlpha" operator="in" result="effect1_backgroundBlur_6962_26909"/><feBlend in="SourceGraphic" in2="effect1_backgroundBlur_6962_26909" result="shape"/></filter><filter id="filter1_d_6962_26909" x="379.944" y="91.652" width="710.088" height="473.159" filterUnits="userSpaceOnUse" color-interpolation-filters="sRGB"><feFlood flood-opacity="0" result="BackgroundImageFix"/><feColorMatrix in="SourceAlpha" values="0 0 0 0 0 0 0 0 0 0 0 0 0 0 0 0 0 0 127 0" result="hardAlpha"/><feOffset dy="71.403"/><feGaussianBlur stdDeviation="26.446"/><feComposite in2="hardAlpha" operator="out"/><feColorMatrix values="0 0 0 0 0 0 0 0 0 0 0 0 0 0 0 0 0 0 0.55 0"/><feBlend in2="BackgroundImageFix" result="effect1_dropShadow_6962_26909"/><feBlend in="SourceGraphic" in2="effect1_dropShadow_6962_26909" result="shape"/></filter><filter id="filter2_f_6962_26909" x="550.285" y="286.498" width="115.446" height="59.132" filterUnits="userSpaceOnUse" color-interpolation-filters="sRGB"><feFlood flood-opacity="0" result="BackgroundImageFix"/><feBlend in="SourceGraphic" in2="BackgroundImageFix" result="shape"/><feGaussianBlur stdDeviation=".983" result="effect1_foregroundBlur_6962_26909"/></filter><filter id="filter3_d_6962_26909" x="562.677" y="-98.79" width="723.176" height="480.715" filterUnits="userSpaceOnUse" color-interpolation-filters="sRGB"><feFlood flood-opacity="0" result="BackgroundImageFix"/><feColorMatrix in="SourceAlpha" values="0 0 0 0 0 0 0 0 0 0 0 0 0 0 0 0 0 0 127 0" result="hardAlpha"/><feOffset dy="71.403"/><feGaussianBlur stdDeviation="26.446"/><feComposite in2="hardAlpha" operator="out"/><feColorMatrix values="0 0 0 0 0 0 0 0 0 0 0 0 0 0 0 0 0 0 0.55 0"/><feBlend in2="BackgroundImageFix" result="effect1_dropShadow_6962_26909"/><feBlend in="SourceGraphic" in2="effect1_dropShadow_6962_26909" result="shape"/></filter><filter id="filter4_b_6962_26909" x="-3.585" y="-243.808" width="735.924" height="426.189" filterUnits="userSpaceOnUse" color-interpolation-filters="sRGB"><feFlood flood-opacity="0" result="BackgroundImageFix"/><feGaussianBlur in="BackgroundImage" stdDeviation=".793"/><feComposite in2="SourceAlpha" operator="in" result="effect1_backgroundBlur_6962_26909"/><feBlend in="SourceGraphic" in2="effect1_backgroundBlur_6962_26909" result="shape"/></filter><filter id="filter5_d_6962_26909" x="363.803" y="258.734" width="957.057" height="623.959" filterUnits="userSpaceOnUse" color-interpolation-filters="sRGB"><feFlood flood-opacity="0" result="BackgroundImageFix"/><feColorMatrix in="SourceAlpha" values="0 0 0 0 0 0 0 0 0 0 0 0 0 0 0 0 0 0 127 0" result="hardAlpha"/><feOffset dy="71.403"/><feComposite in2="hardAlpha" operator="out"/><feColorMatrix values="0 0 0 0 0 0 0 0 0 0 0 0 0 0 0 0 0 0 0.15 0"/><feBlend in2="BackgroundImageFix" result="effect1_dropShadow_6962_26909"/><feBlend in="SourceGraphic" in2="effect1_dropShadow_6962_26909" result="shape"/></filter><filter id="filter6_d_6962_26909" x="562.995" y="158.9" width="877.246" height="569.698" filterUnits="userSpaceOnUse" color-interpolation-filters="sRGB"><feFlood flood-opacity="0" result="BackgroundImageFix"/><feColorMatrix in="SourceAlpha" values="0 0 0 0 0 0 0 0 0 0 0 0 0 0 0 0 0 0 127 0" result="hardAlpha"/><feOffset dy="71.403"/><feGaussianBlur stdDeviation="26.446"/><feComposite in2="hardAlpha" operator="out"/><feColorMatrix values="0 0 0 0 0 0 0 0 0 0 0 0 0 0 0 0 0 0 0.55 0"/><feBlend in2="BackgroundImageFix" result="effect1_dropShadow_6962_26909"/><feBlend in="SourceGraphic" in2="effect1_dropShadow_6962_26909" result="shape"/></filter><filter id="filter7_f_6962_26909" x="736.336" y="317.069" width="132.135" height="65.158" filterUnits="userSpaceOnUse" color-interpolation-filters="sRGB"><feFlood flood-opacity="0" result="BackgroundImageFix"/><feBlend in="SourceGraphic" in2="BackgroundImageFix" result="shape"/><feGaussianBlur stdDeviation=".983" result="effect1_foregroundBlur_6962_26909"/></filter><clipPath id="clip0_6962_26909"><path fill="#fff" d="M0 0h1048v670H0z"/></clipPath></defs></svg>