<?xml version="1.0" encoding="UTF-8"?>
<svg width="3275px" height="2758px" viewBox="0 0 3275 2758" version="1.1" xmlns="http://www.w3.org/2000/svg" xmlns:xlink="http://www.w3.org/1999/xlink">
    <title>5e7ceb09657a698e65054bb9_bg-index</title>
    <defs>
        <linearGradient x1="33.128%" y1="40.8855078%" x2="19.4%" y2="55.9079672%" id="linearGradient-1">
            <stop stop-color="#FFC500" stop-opacity="0" offset="0%"></stop>
            <stop stop-color="#FFC500" stop-opacity="0.1" offset="100%"></stop>
        </linearGradient>
        <linearGradient x1="78.3317845%" y1="-20.622%" x2="33.4693024%" y2="75.738%" id="linearGradient-2">
            <stop stop-color="#FFC500" offset="0%"></stop>
            <stop stop-color="#FFF3CC" offset="100%"></stop>
        </linearGradient>
        <linearGradient x1="66.5306976%" y1="100%" x2="33.4693024%" y2="0%" id="linearGradient-3">
            <stop stop-color="#FB6E00" offset="0%"></stop>
            <stop stop-color="#FFC500" offset="100%"></stop>
        </linearGradient>
        <linearGradient x1="100%" y1="66.8049057%" x2="0%" y2="33.1950943%" id="linearGradient-4">
            <stop stop-color="#FB6E00" offset="0%"></stop>
            <stop stop-color="#FFC500" offset="100%"></stop>
        </linearGradient>
        <linearGradient x1="78.3237234%" y1="-20.622%" x2="33.4740058%" y2="75.738%" id="linearGradient-5">
            <stop stop-color="#FFC500" offset="0%"></stop>
            <stop stop-color="#FFF3CC" offset="100%"></stop>
        </linearGradient>
        <linearGradient x1="66.5259942%" y1="100%" x2="33.4740058%" y2="0%" id="linearGradient-6">
            <stop stop-color="#FB6E00" offset="0%"></stop>
            <stop stop-color="#FFC500" offset="100%"></stop>
        </linearGradient>
        <linearGradient x1="100%" y1="66.8096884%" x2="0%" y2="33.1903116%" id="linearGradient-7">
            <stop stop-color="#FB6E00" offset="0%"></stop>
            <stop stop-color="#FFC500" offset="100%"></stop>
        </linearGradient>
        <linearGradient x1="73.6529875%" y1="106.845%" x2="23.775927%" y2="32.293%" id="linearGradient-8">
            <stop stop-color="#FFC500" offset="0%"></stop>
            <stop stop-color="#FB6E00" offset="63.248%"></stop>
            <stop stop-color="#DD2222" offset="100%"></stop>
        </linearGradient>
        <linearGradient x1="99.7964904%" y1="106.845%" x2="-5.20871783%" y2="32.293%" id="linearGradient-9">
            <stop stop-color="#FFC500" offset="0%"></stop>
            <stop stop-color="#FB6E00" offset="63.248%"></stop>
            <stop stop-color="#DD2222" offset="100%"></stop>
        </linearGradient>
        <linearGradient x1="69.8110214%" y1="106.845%" x2="28.0363447%" y2="32.293%" id="linearGradient-10">
            <stop stop-color="#FFC500" offset="0%"></stop>
            <stop stop-color="#FB6E00" offset="63.248%"></stop>
            <stop stop-color="#DD2222" offset="100%"></stop>
        </linearGradient>
        <linearGradient x1="0%" y1="67.2982405%" x2="100%" y2="32.7017595%" id="linearGradient-11">
            <stop stop-color="#FB6E00" offset="0%"></stop>
            <stop stop-color="#FFC500" offset="100%"></stop>
        </linearGradient>
        <linearGradient x1="76.0508385%" y1="100%" x2="23.9491615%" y2="0%" id="linearGradient-12">
            <stop stop-color="#FFC500" offset="0%"></stop>
            <stop stop-color="#FB6E00" offset="100%"></stop>
        </linearGradient>
        <linearGradient x1="58.7489343%" y1="20.253%" x2="14.2319459%" y2="40.554%" id="linearGradient-13">
            <stop stop-color="#FB6E00" stop-opacity="0" offset="0%"></stop>
            <stop stop-color="#FB6E00" stop-opacity="0.5" offset="100%"></stop>
        </linearGradient>
        <linearGradient x1="33.128%" y1="35.5718186%" x2="-7.556%" y2="57.4772111%" id="linearGradient-14">
            <stop stop-color="#FFC500" stop-opacity="0" offset="0%"></stop>
            <stop stop-color="#FFC500" stop-opacity="0.4" offset="100%"></stop>
        </linearGradient>
        <linearGradient x1="29.166%" y1="44.4303339%" x2="64.558%" y2="67.3869315%" id="linearGradient-15">
            <stop stop-color="#FFC500" stop-opacity="0.1" offset="0%"></stop>
            <stop stop-color="#FFC500" offset="100%"></stop>
        </linearGradient>
        <linearGradient x1="100%" y1="91.8118587%" x2="0%" y2="8.1881413%" id="linearGradient-16">
            <stop stop-color="#FB6E00" offset="0%"></stop>
            <stop stop-color="#FFF3CC" offset="100%"></stop>
        </linearGradient>
        <linearGradient x1="-2.65%" y1="63.9943079%" x2="50%" y2="41.001587%" id="linearGradient-17">
            <stop stop-color="#FFE799" stop-opacity="0.5" offset="0%"></stop>
            <stop stop-color="#FFE799" stop-opacity="0" offset="100%"></stop>
        </linearGradient>
        <linearGradient x1="-53.0039171%" y1="45.7%" x2="72.9113067%" y2="33.791%" id="linearGradient-18">
            <stop stop-color="#FFE799" stop-opacity="0.5" offset="0%"></stop>
            <stop stop-color="#FFE799" stop-opacity="0" offset="100%"></stop>
        </linearGradient>
        <linearGradient x1="100%" y1="39.8816937%" x2="0%" y2="60.1183063%" id="linearGradient-19">
            <stop stop-color="#FF0000" offset="0%"></stop>
            <stop stop-color="#720096" offset="100%"></stop>
        </linearGradient>
        <linearGradient x1="0%" y1="23.2081889%" x2="275.639%" y2="76.7918111%" id="linearGradient-20">
            <stop stop-color="#DD2222" offset="0%"></stop>
            <stop stop-color="#720096" offset="100%"></stop>
        </linearGradient>
        <linearGradient x1="100%" y1="32.3444655%" x2="6.147%" y2="56.3581925%" id="linearGradient-21">
            <stop stop-color="#FB6E00" offset="0%"></stop>
            <stop stop-color="#FFC500" offset="100%"></stop>
        </linearGradient>
        <linearGradient x1="100%" y1="66.8065088%" x2="51.729%" y2="50.5810176%" id="linearGradient-22">
            <stop stop-color="#FB6E00" offset="0%"></stop>
            <stop stop-color="#FFC500" offset="100%"></stop>
        </linearGradient>
        <path d="M1043.20208,305.257855 C1047.89305,302.538408 1048.40294,298.412498 1044.34508,296.037232 L536.993297,1.59342561 C532.935435,-0.764844291 525.818242,-0.471653979 521.127268,2.25204152 L3.90914498,301.790561 C-0.815821561,304.514256 -1.32146097,308.640166 2.7491487,311.011183 L510.088182,605.45499 C514.158792,607.830256 521.271736,607.537066 525.966959,604.817619 L1043.20208,305.257855 Z" id="path-23"></path>
        <path d="M1043.20208,305.257855 C1047.89305,302.538408 1048.40294,298.412498 1044.34508,296.037232 L536.993297,1.59342561 C532.935435,-0.764844291 525.818242,-0.471653979 521.127268,2.25204152 L3.90914498,301.790561 C-0.815821561,304.514256 -1.32146097,308.640166 2.7491487,311.011183 L510.088182,605.45499 C514.158792,607.830256 521.271736,607.537066 525.966959,604.817619 L1043.20208,305.257855 Z" id="path-25"></path>
        <path d="M1043.20208,305.257855 C1047.89305,302.538408 1048.40294,298.412498 1044.34508,296.037232 L536.993297,1.59342561 C532.935435,-0.764844291 525.818242,-0.471653979 521.127268,2.25204152 L3.90914498,301.790561 C-0.815821561,304.514256 -1.32146097,308.640166 2.7491487,311.011183 L510.088182,605.45499 C514.158792,607.830256 521.271736,607.537066 525.966959,604.817619 L1043.20208,305.257855 Z" id="path-27"></path>
        <path d="M1043.20208,305.257855 C1047.89305,302.538408 1048.40294,298.412498 1044.34508,296.037232 L536.993297,1.59342561 C532.935435,-0.764844291 525.818242,-0.471653979 521.127268,2.25204152 L3.90914498,301.790561 C-0.815821561,304.514256 -1.32146097,308.640166 2.7491487,311.011183 L510.088182,605.45499 C514.158792,607.830256 521.271736,607.537066 525.966959,604.817619 L1043.20208,305.257855 Z" id="path-29"></path>
        <path d="M1043.20208,305.257855 C1047.89305,302.538408 1048.40294,298.412498 1044.34508,296.037232 L536.993297,1.59342561 C532.935435,-0.764844291 525.818242,-0.471653979 521.127268,2.25204152 L3.90914498,301.790561 C-0.815821561,304.514256 -1.32146097,308.640166 2.7491487,311.011183 L510.088182,605.45499 C514.158792,607.830256 521.271736,607.537066 525.966959,604.817619 L1043.20208,305.257855 Z" id="path-31"></path>
        <path d="M1043.20208,305.257855 C1047.89305,302.538408 1048.40294,298.412498 1044.34508,296.037232 L536.993297,1.59342561 C532.935435,-0.764844291 525.818242,-0.471653979 521.127268,2.25204152 L3.90914498,301.790561 C-0.815821561,304.514256 -1.32146097,308.640166 2.7491487,311.011183 L510.088182,605.45499 C514.158792,607.830256 521.271736,607.537066 525.966959,604.817619 L1043.20208,305.257855 Z" id="path-33"></path>
        <path d="M1043.20208,305.257855 C1047.89305,302.538408 1048.40294,298.412498 1044.34508,296.037232 L536.993297,1.59342561 C532.935435,-0.764844291 525.818242,-0.471653979 521.127268,2.25204152 L3.90914498,301.790561 C-0.815821561,304.514256 -1.32146097,308.640166 2.7491487,311.011183 L510.088182,605.45499 C514.158792,607.830256 521.271736,607.537066 525.966959,604.817619 L1043.20208,305.257855 Z" id="path-35"></path>
        <path d="M1043.20208,305.257855 C1047.89305,302.538408 1048.40294,298.412498 1044.34508,296.037232 L536.993297,1.59342561 C532.935435,-0.764844291 525.818242,-0.471653979 521.127268,2.25204152 L3.90914498,301.790561 C-0.815821561,304.514256 -1.32146097,308.640166 2.7491487,311.011183 L510.088182,605.45499 C514.158792,607.830256 521.271736,607.537066 525.966959,604.817619 L1043.20208,305.257855 Z" id="path-37"></path>
        <path d="M1043.20208,305.257855 C1047.89305,302.538408 1048.40294,298.412498 1044.34508,296.037232 L536.993297,1.59342561 C532.935435,-0.764844291 525.818242,-0.471653979 521.127268,2.25204152 L3.90914498,301.790561 C-0.815821561,304.514256 -1.32146097,308.640166 2.7491487,311.011183 L510.088182,605.45499 C514.158792,607.830256 521.271736,607.537066 525.966959,604.817619 L1043.20208,305.257855 Z" id="path-39"></path>
        <linearGradient x1="42.474%" y1="62.4787105%" x2="7.942%" y2="40.742826%" id="linearGradient-41">
            <stop stop-color="#DD2222" offset="0%"></stop>
            <stop stop-color="#FFC500" offset="100%"></stop>
        </linearGradient>
        <linearGradient x1="0%" y1="31.8341691%" x2="100%" y2="68.1658309%" id="linearGradient-42">
            <stop stop-color="#FF0000" offset="0%"></stop>
            <stop stop-color="#720096" offset="100%"></stop>
        </linearGradient>
        <linearGradient x1="83.45%" y1="35.3562892%" x2="-41.805%" y2="82.2702888%" id="linearGradient-43">
            <stop stop-color="#010101" stop-opacity="0" offset="0%"></stop>
            <stop stop-color="#010101" offset="95%"></stop>
        </linearGradient>
        <linearGradient x1="42.474%" y1="65.1270412%" x2="7.942%" y2="38.7775489%" id="linearGradient-44">
            <stop stop-color="#DD2222" offset="0%"></stop>
            <stop stop-color="#FFC500" offset="100%"></stop>
        </linearGradient>
        <linearGradient x1="36.3541195%" y1="47.773%" x2="104.918986%" y2="72.519%" id="linearGradient-45">
            <stop stop-color="#FFFFFF" offset="0%"></stop>
            <stop stop-color="#E5E5E5" offset="100%"></stop>
        </linearGradient>
        <linearGradient x1="83.174%" y1="83.6024431%" x2="-100.069%" y2="-112.87733%" id="linearGradient-46">
            <stop stop-color="#010101" stop-opacity="0" offset="0%"></stop>
            <stop stop-color="#010101" offset="95%"></stop>
        </linearGradient>
    </defs>
    <g id="Page-1" stroke="none" stroke-width="1" fill="none" fill-rule="evenodd">
        <g id="5e7ceb09657a698e65054bb9_bg-index">
            <polygon id="Path" fill-opacity="0.1" fill="#FFE799" fill-rule="nonzero" points="1551 45 1551 1007.51895 2583 1604 2583 641.481046"></polygon>
            <polygon id="Path" fill="url(#linearGradient-1)" fill-rule="nonzero" points="2586.56655 643 3107 359.634706 2195.81022 0 1601 77.3529042"></polygon>
            <g id="Group" opacity="0.4" transform="translate(1713.000000, 408.000000)" fill="#FFC500" fill-rule="nonzero">
                <path d="M77.4710448,55.25 L0.783432836,15.78875 L0.622074627,0 L77.2799627,39.4485 L77.4710448,55.25 Z M143.054664,89.25 L104.141858,70.363 L104.137612,55.25 L143.046172,74.12425 L143.054664,89.25 Z M98.9274403,102 L68.4944328,84.4645 L67.9721418,68 L98.4136418,85.52275 L98.9274403,102 Z M155.041881,131.75 L116.133321,112.863 L116.124828,97.75 L155.033388,116.62425 L155.041881,131.75 Z M214.260343,199.75 L66.8553731,122.08125 L66.6090896,106.25 L214.005567,183.9315 L214.260343,199.75 Z M155.360351,505.75 L7.9553806,428.08125 L7.70909701,412.25 L155.101328,489.91875 L155.360351,505.75 Z M211.610672,535.5 L172.706358,516.6215 L172.697866,501.5 L211.606425,520.3785 L211.610672,535.5 Z M100.133381,178.5 L69.6961269,160.97725 L69.1695896,144.5 L99.6153358,162.0355 L100.133381,178.5 Z M155.466507,204 L116.553701,185.113 L116.562194,170 L155.458015,188.87425 L155.466507,204 Z M149.012179,238 L67.326709,194.582 L67.0294701,178.5 L148.740418,221.918 L149.012179,238 Z M205.29647,267.75 L166.38791,248.8715 L166.379418,233.75 L205.287978,252.6285 L205.29647,267.75 Z M256.663582,293.25 L217.742284,274.363 L217.733791,259.25 L256.642351,278.12425 L256.663582,293.25 Z M345.920149,340 L274.128485,304.1725 L274.035067,289 L345.830978,324.8275 L345.920149,340 Z M304.196313,391 L265.275015,372.113 L265.266522,357 L304.179328,375.887 L304.196313,391 Z M393.457127,437.75 L321.661216,401.9225 L321.567799,386.75 L393.367955,422.5945 L393.457127,437.75 Z M107.258619,289 L68.3458134,270.113 L68.3415672,255 L107.250127,273.87425 L107.258619,289 Z M162.859261,314.5 L123.946455,295.613 L123.942209,280.5 L162.850769,299.387 L162.859261,314.5 Z M247.882299,361.25 L176.086388,325.414 L176.009955,310.25 L247.793127,346.086 L247.882299,361.25 Z M357.835179,382.5 L318.926619,363.613 L318.922373,348.5 L357.826687,367.37425 L357.835179,382.5 Z M409.966619,412.25 L371.053813,393.363 L371.049567,378.25 L409.958127,397.137 L409.966619,412.25 Z M498.463104,454.75 L426.667194,418.9225 L426.573776,403.75 L498.373933,439.5945 L498.463104,454.75 Z M272.234649,565.25 L233.32609,546.3715 L233.317597,531.25 L272.230403,550.1285 L272.234649,565.25 Z M357.257687,612 L285.466022,576.1725 L285.372604,561 L357.172761,596.8445 L357.257687,612 Z M107.683246,361.25 L68.7746866,342.3715 L68.7746866,327.25 L107.670507,346.1285 L107.683246,361.25 Z M196.952552,408 L125.156642,372.1725 L125.063224,357 L196.863381,392.8275 L196.952552,408 Z M326.888373,259.25 L287.979813,240.3715 L287.975567,225.25 L326.884127,244.1285 L326.888373,259.25 Z M270.51491,229.5 L231.606351,210.613 L231.597858,195.5 L270.506418,214.37425 L270.51491,229.5 Z M415.389104,301.75 L343.588948,265.9225 L343.499776,250.75 L415.295687,286.5945 L415.389104,301.75 Z M104.596209,250.75 L70.0315821,232.7385 L69.8022836,216.75 L104.36691,234.7615 L104.596209,250.75 Z M203.139366,301.75 L121.373216,258.1705 L121.080224,242.25 L202.846373,285.84225 L203.139366,301.75 Z M302.374664,357 L220.608515,313.40775 L220.315522,297.5 L302.085918,341.09225 L302.374664,357 Z M467.50356,331.5 L432.934687,313.48 L432.709634,297.5 L467.274261,315.5115 L467.50356,331.5 Z M566.046716,382.5 L484.276321,338.91625 L483.987575,323 L565.749478,366.58375 L566.046716,382.5 Z M152.205373,348.5 L70.4434701,304.91625 L70.1462313,289 L151.916627,332.58375 L152.205373,348.5 Z M195.050224,374 L169.725478,360.41275 L169.407007,344.25 L194.731754,357.83725 L195.050224,374 Z M241.385507,395.25 L216.056515,381.66275 L215.742291,365.5 L241.067037,379.08725 L241.385507,395.25 Z M320.510478,433.5 L257.975679,401.9735 L257.856784,386.75 L320.391582,418.2765 L320.510478,433.5 Z M388.055873,361.25 L362.731127,347.66275 L362.412657,331.5 L387.737403,345.08725 L388.055873,361.25 Z M467.945172,403.75 L405.418866,372.2235 L405.29997,357 L467.834769,388.51375 L467.945172,403.75 Z" id="Shape"></path>
                <path d="M482.246604,412.25 L419.70756,380.7235 L419.588664,365.5 L482.123463,397.01375 L482.246604,412.25 Z M31.3820448,361.25 L6.0445597,347.66275 L5.72608955,331.5 L31.0508358,345.08725 L31.3820448,361.25 Z M114.732052,399.5 L52.2057463,367.9735 L52.0868507,352.75 L114.621649,384.26375 L114.732052,399.5 Z M194.672306,442 L132.137507,410.482 L132.018612,395.25 L194.55341,426.768 L194.672306,442 Z" id="Shape"></path>
            </g>
            <g id="c-link" transform="translate(1453.000000, 369.000000)" fill="#000000" fill-rule="nonzero">
                <polygon id="c" points="94.8378667 110.834444 0 55.7409259 94.8378667 0.638888889 189.671489 55.7366667"></polygon>
            </g>
            <g id="Group" opacity="0.8" transform="translate(1453.000000, 195.000000)" fill-rule="nonzero">
                <polygon id="Path" fill="url(#linearGradient-2)" points="94.8378667 219.91625 0 164.92975 0 54.978 94.8378667 109.9645"></polygon>
                <polygon id="Path" fill="url(#linearGradient-3)" points="189.667244 164.934 94.8293778 219.9205 94.8293778 109.956 189.667244 54.98225"></polygon>
                <polygon id="Path" fill="url(#linearGradient-4)" points="94.8378667 109.96025 0 54.97375 94.8378667 0 189.671489 54.9865"></polygon>
            </g>
            <g id="Group" opacity="0.5" transform="translate(285.000000, 1168.000000)" fill-rule="nonzero">
                <g opacity="0.3" transform="translate(0.000000, 255.000000)" id="Path">
                    <polygon fill="url(#linearGradient-2)" points="94.8378667 219.91625 0 164.92975 0 54.978 94.8378667 109.9645"></polygon>
                    <polygon fill="url(#linearGradient-3)" points="189.667244 164.934 94.8293778 219.9205 94.8293778 109.956 189.667244 54.98225"></polygon>
                    <polygon fill="url(#linearGradient-4)" points="94.8378667 109.96025 0 54.97375 94.8378667 0 189.671489 54.9865"></polygon>
                </g>
                <g id="h-link" transform="translate(0.000000, 174.250000)" fill="#000000">
                    <polygon id="h" points="94.8378667 110.5935 0 55.61975 94.8378667 0.6375 189.671489 55.6155"></polygon>
                </g>
                <polygon id="Path" fill="url(#linearGradient-2)" points="94.8378667 219.91625 0 164.92975 0 54.978 94.8378667 109.9645"></polygon>
                <polygon id="Path" fill="url(#linearGradient-3)" points="189.667244 164.934 94.8293778 219.9205 94.8293778 109.956 189.667244 54.98225"></polygon>
                <polygon id="Path" fill="url(#linearGradient-4)" points="94.8378667 109.96025 0 54.97375 94.8378667 0 189.671489 54.9865"></polygon>
            </g>
            <g id="Group" opacity="0.3" transform="translate(0.000000, 212.000000)" fill-rule="nonzero">
                <g opacity="0.8" id="Path">
                    <polygon fill="url(#linearGradient-2)" points="94.8378667 219.91625 0 164.92975 0 54.978 94.8378667 109.9645"></polygon>
                    <polygon fill="url(#linearGradient-3)" points="189.667244 164.934 94.8293778 219.9205 94.8293778 109.956 189.667244 54.98225"></polygon>
                    <polygon fill="url(#linearGradient-4)" points="94.8378667 109.96025 0 54.97375 94.8378667 0 189.671489 54.9865"></polygon>
                </g>
            </g>
            <g id="Group" opacity="0.2" transform="translate(3062.000000, 300.000000)" fill-rule="nonzero">
                <polygon id="Path" fill="url(#linearGradient-5)" points="95.2672826 220.492925 0.548152174 165.567453 0.548152174 55.7377358 95.2672826 110.663208"></polygon>
                <polygon id="Path" fill="url(#linearGradient-6)" points="189.977935 165.571698 95.2588043 220.49717 95.2588043 110.654717 189.977935 55.7419811"></polygon>
                <polygon id="Path" fill="url(#linearGradient-7)" points="95.2672826 110.658962 0.548152174 55.7334906 95.2672826 0.820754717 189.982174 55.7462264"></polygon>
            </g>
            <path d="M2158.78372,2293 L1811.8304,2075.56745 C1730.87689,2028.7438 1665,1914.47199 1665,1820.82469 L1665,1376 L1670.54494,1376 L1670.54494,1820.82469 C1670.54494,1912.70442 1735.16509,2024.8305 1814.60712,2070.76611 L2161,2287.846 L2158.79222,2293 L2158.78372,2293 Z" id="Path" fill="url(#linearGradient-8)" fill-rule="nonzero" transform="translate(1913.000000, 1834.500000) scale(-1, 1) translate(-1913.000000, -1834.500000) "></path>
            <g id="Group" transform="translate(2149.000000, 1885.000000) scale(-1, 1) translate(-2149.000000, -1885.000000) translate(2141.000000, 1877.000000)" fill-rule="nonzero">
                <g id="k-link" fill="#000000">
                    <path d="M0.657498732,8.1345 C0.659018379,10.7347236 2.04762421,13.1366193 4.30024311,14.4354161 C6.55286201,15.734213 9.32726759,15.7325929 11.5783681,14.4311661 C13.8294686,13.1297394 15.2152684,10.7262236 15.2137512,8.126 C15.2114028,4.10640256 11.9509724,0.84977779 7.931375,0.852123732 C3.91177756,0.85447221 0.65515279,4.11490256 0.657498732,8.1345" id="k"></path>
                </g>
                <g id="k-link" fill="#FFD64D" stroke="#FFC500">
                    <path d="M0.657498732,8.1345 C0.659018379,10.7347236 2.04762421,13.1366193 4.30024311,14.4354161 C6.55286201,15.734213 9.32726759,15.7325929 11.5783681,14.4311661 C13.8294686,13.1297394 15.2152684,10.7262236 15.2137512,8.126 C15.2114028,4.10640256 11.9509724,0.84977779 7.931375,0.852123732 C3.91177756,0.85447221 0.65515279,4.11490256 0.657498732,8.1345" id="k"></path>
                </g>
            </g>
            <g id="Group" transform="translate(1963.500000, 2105.500000) scale(-1, 1) translate(-1963.500000, -2105.500000) translate(1949.000000, 2091.000000)" fill-rule="nonzero">
                <g id="m-link" fill="#000000">
                    <path d="M0.231425928,14.776 C0.226692501,22.5623856 6.58675584,28.8789613 14.4385714,28.886 C22.2944275,28.886 28.6628571,22.5706406 28.6628571,14.78025 C28.6628571,6.98985939 22.2944275,0.6745 14.4385714,0.6745 C6.59010378,0.681537131 0.231425928,6.99293307 0.231425928,14.776" id="m"></path>
                </g>
                <g id="m-link" fill="#FFD64D" stroke="#FFC500">
                    <path d="M0.231425928,14.776 C0.226692501,22.5623856 6.58675584,28.8789613 14.4385714,28.886 C22.2944275,28.886 28.6628571,22.5706406 28.6628571,14.78025 C28.6628571,6.98985939 22.2944275,0.6745 14.4385714,0.6745 C6.59010378,0.681537131 0.231425928,6.99293307 0.231425928,14.776" id="m"></path>
                </g>
            </g>
            <path d="M1903.78372,2123 L1556.8304,1905.67714 C1475.87689,1858.87711 1410,1744.66296 1410,1651.0629 L1410,1491 L1415.54494,1491 L1415.54494,1651.0629 C1415.54494,1742.89628 1480.16509,1854.96578 1559.60712,1900.87823 L1906,2117.8486 L1903.79222,2123 L1903.78372,2123 Z" id="Path" fill="url(#linearGradient-9)" fill-rule="nonzero" transform="translate(1658.000000, 1807.000000) scale(-1, 1) translate(-1658.000000, -1807.000000) "></path>
            <g id="Group" transform="translate(1878.500000, 1750.500000) scale(-1, 1) translate(-1878.500000, -1750.500000) translate(1865.000000, 1737.000000)" fill-rule="nonzero">
                <g id="p-link" fill="#000000">
                    <path d="M0.671428571,13.7271429 C0.678524357,20.8229252 6.4327855,26.5714286 13.5285714,26.5714286 C16.9339512,26.5702921 20.199404,25.2164203 22.6065675,22.8076494 C25.0137309,20.3988785 26.3654225,17.1325226 26.3642923,13.7271429 C26.371393,6.62968013 20.6260279,0.868968409 13.5285714,0.857142857 C6.43571429,0.857142857 0.671428571,6.62571429 0.671428571,13.7271429" id="p"></path>
                </g>
                <g id="p-link" fill="#FFD64D" stroke="#FFC500">
                    <path d="M0.671428571,13.7271429 C0.678524357,20.8229252 6.4327855,26.5714286 13.5285714,26.5714286 C16.9339512,26.5702921 20.199404,25.2164203 22.6065675,22.8076494 C25.0137309,20.3988785 26.3654225,17.1325226 26.3642923,13.7271429 C26.371393,6.62968013 20.6260279,0.868968409 13.5285714,0.857142857 C6.43571429,0.857142857 0.671428571,6.62571429 0.671428571,13.7271429" id="p"></path>
                </g>
            </g>
            <g id="Group" transform="translate(1708.500000, 1935.500000) scale(-1, 1) translate(-1708.500000, -1935.500000) translate(1694.000000, 1921.000000)" fill-rule="nonzero">
                <g id="r-link" fill="#000000">
                    <path d="M0.231425928,14.776 C0.226692501,22.5623856 6.58675584,28.8789613 14.4385714,28.886 C22.2944275,28.886 28.6628571,22.5706406 28.6628571,14.78025 C28.6628571,6.98985939 22.2944275,0.6745 14.4385714,0.6745 C6.59010378,0.681537131 0.231425928,6.99293307 0.231425928,14.776" id="r"></path>
                </g>
                <g id="r-link" fill="#FFD64D" stroke="#FFC500">
                    <path d="M0.231425928,14.776 C0.226692501,22.5623856 6.58675584,28.8789613 14.4385714,28.886 C22.2944275,28.886 28.6628571,22.5706406 28.6628571,14.78025 C28.6628571,6.98985939 22.2944275,0.6745 14.4385714,0.6745 C6.59010378,0.681537131 0.231425928,6.99293307 0.231425928,14.776" id="r"></path>
                </g>
            </g>
            <path d="M1627.78372,2021 L1280.8304,1803.56298 C1199.87689,1756.73836 1134,1642.46421 1134,1548.81498 L1134,1019 L1139.54494,1019 L1139.54494,1548.81498 C1139.54494,1640.6966 1204.16509,1752.82498 1283.60712,1798.76154 L1630,2015.84589 L1627.79222,2021 L1627.78372,2021 Z" id="Path" fill="url(#linearGradient-10)" fill-rule="nonzero" transform="translate(1382.000000, 1520.000000) scale(-1, 1) translate(-1382.000000, -1520.000000) "></path>
            <g id="Group" opacity="0.4" transform="translate(2205.000000, 2154.000000)" fill-rule="nonzero">
                <g id="u-link" transform="translate(0.000000, 174.250000)" fill="#000000">
                    <polygon id="u" points="94.8378667 110.5935 0 55.61975 94.8378667 0.6375 189.671489 55.6155"></polygon>
                </g>
                <polygon id="Path" fill="url(#linearGradient-2)" points="94.8378667 219.91625 0 164.92975 0 54.978 94.8378667 109.9645"></polygon>
                <polygon id="Path" fill="url(#linearGradient-3)" points="189.667244 164.934 94.8293778 219.9205 94.8293778 109.956 189.667244 54.98225"></polygon>
                <polygon id="Path" fill="url(#linearGradient-4)" points="94.8378667 109.96025 0 54.97375 94.8378667 0 189.671489 54.9865"></polygon>
            </g>
            <path d="M1758.42967,967.841706 L843.784754,1507.90579 C837.166711,1511.7297 833.526363,1516.86224 833.526363,1522.38567 C833.526363,1529.29421 839.031487,1536.42793 848.610233,1541.95986 L1171.123,1728.37565 C1190.23801,1739.43951 1219.15265,1740.64617 1235.57033,1731.16286 L2150.21949,1191.09878 C2156.83329,1187.28337 2160.47788,1182.13383 2160.47788,1176.62315 C2160.47788,1169.71036 2154.97276,1162.58938 2145.38977,1157.04471 L1822.88975,970.633163 C1812.39773,964.570135 1798.94501,961.45577 1786.2314,961.45577 C1775.79035,961.45577 1765.84205,963.550425 1758.42967,967.841706 L1758.42967,967.841706 Z M1168.35344,1733.17679 L845.84068,1546.761 C834.503353,1540.20936 828,1531.31663 828,1522.38567 C828,1514.80583 832.617338,1507.96102 841.015201,1503.10465 L1755.65162,963.032072 C1773.61974,952.65652 1805.00659,953.905665 1825.6593,965.832027 L2148.15082,1152.24357 C2159.49665,1158.79521 2166,1167.68793 2166,1176.62315 C2166,1184.19874 2161.38266,1191.04355 2152.98905,1195.89992 L1238.33988,1735.964 C1230.15865,1740.68016 1219.19938,1743 1207.75586,1743 C1194.02703,1743 1179.58882,1739.68594 1168.34495,1733.17679 L1168.35344,1733.17679 Z" id="Shape" fill="url(#linearGradient-11)" fill-rule="nonzero" transform="translate(1497.000000, 1349.500000) scale(-1, 1) translate(-1497.000000, -1349.500000) "></path>
            <polygon id="Path" fill="url(#linearGradient-12)" fill-rule="nonzero" points="828 257 828 1053.83333 1814 1623 1814 826.162418"></polygon>
            <polygon id="Path" fill="url(#linearGradient-13)" fill-rule="nonzero" points="1812 826.596493 2346 535 2346 1320.27471 1812 1623"></polygon>
            <polygon id="Path" fill="url(#linearGradient-14)" fill-rule="nonzero" points="1813.56655 825 2334 541.857854 1327.79354 16 828 259.802578"></polygon>
            <g id="Group" opacity="0.9" transform="translate(888.000000, 540.000000)">
                <path d="M271.712653,398.4915 L401.575942,451.0895 L271.712653,398.4915 Z M13.1243684,210.225 L273.649453,401.36025 L13.1243684,210.225 Z M271.347379,399.061 L406.188584,263.52 L271.347379,399.061 Z M273.237458,402.58 L251.388995,39.001 L273.237458,402.58425 L273.237458,402.58 Z" id="Shape" stroke="#FFD64D" stroke-width="2" stroke-linecap="round" stroke-linejoin="round"></path>
                <path d="M13.4344263,213.51025 L252.1068,41.07075 L13.4344263,213.51025 Z" id="Path" stroke="#FFDF73" stroke-width="2" stroke-linecap="round" stroke-linejoin="round"></path>
                <polygon id="Path" stroke="#FFC500" stroke-width="2" stroke-linecap="round" stroke-linejoin="round" points="583.269868 309.88325 476.529253 123.202 583.269868 309.88325"></polygon>
                <path d="M402.268263,266.51625 L249.783489,39.069 L402.268263,266.51625 Z" id="Path" stroke="#FFD64D" stroke-width="2" stroke-linecap="round" stroke-linejoin="round"></path>
                <path d="M402.705742,267.498 L474.456537,123.083 L402.705742,267.498 Z M583.269868,309.88325 L476.529253,123.202 L583.269868,309.88325 L583.269868,309.88325 Z M582.292974,310.64825 L800.3019,560.187 L582.292974,310.64825 L582.292974,310.64825 Z M582.229263,309.90025 L515.796174,416.435 L582.225016,309.90025 L582.229263,309.90025 Z M506.626105,723.1915 L514.9467,419.64375 L506.621858,723.1915 L506.626105,723.1915 Z M514.105721,731.292 L690.099679,730.29325 L514.105721,731.292 Z M407.560484,259.219 L584.280742,314.112 L407.560484,259.219 Z M410.750258,267.5575 L521.627811,424.77775 L410.750258,267.5575 Z M505.092805,726.855 L397.553684,454.226 L505.092805,726.855 L505.092805,726.855 Z" id="Shape" stroke="#FFC500" stroke-width="2" stroke-linecap="round" stroke-linejoin="round"></path>
                <path d="M402.055895,283.529 C413.243463,288.20825 423.454137,283.89025 424.855768,273.89 C426.261647,263.8855 418.331811,251.98125 407.144242,247.302 C395.956674,242.627 385.750247,246.94075 384.344368,256.9495 C382.942737,266.94975 390.872574,278.84975 402.055895,283.529 Z M535.469984,430.358 C533.9112,441.4675 523.356489,446.355 511.875853,441.26775 C500.407958,436.189 492.380432,423.065 493.939216,411.9555 C495.502247,400.84175 506.061205,395.9585 517.5291,401.0415 C529.005489,406.1245 537.033016,419.2485 535.469984,430.358 L535.469984,430.358 Z M711.774,742.92 C710.372368,752.899 701.117353,757.23825 691.119047,752.627 C681.108,748.0115 674.121079,736.188 675.522711,726.209 C676.924342,716.23 686.179358,711.895 696.190405,716.5105 C706.192958,721.12175 713.179879,732.94525 711.778247,742.92425 L711.774,742.92 Z M803.083926,552.5965 C801.992353,560.36975 793.8459,563.689 784.883953,559.99575 C775.922005,556.30675 769.550953,547.012 770.646774,539.23875 C771.738347,531.4655 779.880553,528.14625 788.838253,531.83525 C797.8002,535.52425 804.171253,544.82325 803.083926,552.5965 Z M473.921368,139.607 C482.815358,143.772 491.029768,139.981 492.27,131.13675 C493.514479,122.29675 487.313321,111.744 478.423579,107.579 C469.533837,103.414 461.319426,107.205 460.074947,116.045 C458.834716,124.88925 465.035874,135.43775 473.921368,139.607 Z M248.067553,84.527 C270.366237,94.455 290.965974,84.45475 294.096284,62.189 C297.222347,39.9275 281.685474,13.8325 259.395284,3.90875 C237.0966,-6.01925 216.488368,3.981 213.362305,26.2425 C210.236242,48.50825 225.773116,74.599 248.067553,84.527 L248.067553,84.527 Z M268.731,438.1525 C291.169847,447.05625 311.468021,439.2575 314.067411,420.73175 C316.671047,402.21025 300.590511,379.97425 278.155911,371.06625 C255.717063,362.15825 235.418889,369.957 232.815253,388.48275 C230.215863,407.0085 246.2964,429.2445 268.731,438.1525 L268.731,438.1525 Z M16.7346316,229.01 C26.7371842,233.6935 35.9752105,229.43075 37.3768421,219.4815 C38.7742263,209.53225 31.7958,197.66625 21.7974947,192.9785 C11.7949421,188.29075 2.55691579,192.5535 1.15528421,202.50275 C-0.2421,212.452 6.73632632,224.318 16.7346316,229.00575 L16.7346316,229.01 Z M503.546763,756.74525 C523.462674,764.884 541.632916,757.0215 544.138863,739.18425 C546.644811,721.347 532.535053,700.28825 512.623389,692.1495 C492.707479,684.01075 474.532989,691.87325 472.027042,709.7105 C469.521095,727.54775 483.6351,748.6065 503.546763,756.74525 Z M582.526579,342.0345 C598.190874,348.58375 612.483268,342.54025 614.4498,328.5365 C616.416332,314.5285 605.317958,297.8685 589.653663,291.315 C573.993616,284.77 559.701221,290.80925 557.734689,304.81725 C555.768158,318.821 566.866532,335.48525 582.530826,342.0345 L582.526579,342.0345 Z M402.051647,474.83425 C413.251958,479.4115 423.475374,474.9915 424.881253,464.95725 C426.291379,454.92725 418.353047,443.07825 407.152737,438.501 C395.952426,433.9195 385.729011,438.34375 384.318884,448.378 C382.913005,458.408 390.847089,470.257 402.051647,474.83425 L402.051647,474.83425 Z" id="Shape" fill="#FFE799" fill-rule="nonzero"></path>
            </g>
            <path d="M2676.48457,1248.84545 L1655.78263,1835.83155 C1649.16548,1839.65667 1645.52562,1844.79083 1645.52562,1850.31601 C1645.52562,1857.22673 1651.03,1864.3627 1660.60746,1869.89638 L1983.07678,2056.37104 C2002.18922,2067.43839 2031.09997,2068.64543 2047.51543,2059.15912 L3068.22162,1472.17302 C3074.83452,1468.3564 3078.47863,1463.20524 3078.47863,1457.69281 C3078.47863,1450.77784 3072.97425,1443.65462 3063.39254,1438.10819 L2740.93596,1251.63778 C2730.44536,1245.57284 2716.99445,1242.45749 2704.28255,1242.45749 C2693.84291,1242.45749 2683.89595,1244.55281 2676.48457,1248.84545 Z M1980.3076,2061.17369 L1657.83828,1874.69903 C1646.50248,1868.14532 1640,1859.24979 1640,1850.31601 C1640,1842.73377 1644.61672,1835.8868 1653.01345,1831.0289 L2673.7069,1244.03429 C2691.67259,1233.65546 2723.05521,1234.905 2743.70514,1246.83513 L3066.15323,1433.30554 C3077.49752,1439.85925 3084,1448.75478 3084,1457.69281 C3084,1465.2708 3079.38328,1472.11777 3070.9908,1476.97568 L2050.28461,2063.96178 C2042.10449,2068.67943 2031.14669,2071 2019.70471,2071 C2005.97773,2071 1991.54147,2067.68489 1980.2991,2061.17369 L1980.3076,2061.17369 Z" id="Shape" fill="url(#linearGradient-15)" fill-rule="nonzero" transform="translate(2362.000000, 1654.000000) scale(-1, 1) translate(-2362.000000, -1654.000000) "></path>
            <g id="Group" transform="translate(1657.000000, 667.000000)">
                <polygon id="Path" fill="url(#linearGradient-16)" fill-rule="nonzero" points="0 331.306931 0 683.694327 1040.44619 1282.75248 1040.44619 930.365079"></polygon>
                <path d="M996.263328,1069.46727 C944.419381,1079.14738 875.444168,1054.40979 811.768861,1003.02749 C779.808052,977.236515 749.681827,945.592455 718.621323,916.785743 C687.565066,887.97903 654.262294,861.194139 622.390667,849.449733 C582.768777,834.86798 550.315349,845.219198 511.614997,834.761792 C468.438604,823.081099 429.101244,787.652495 388.910294,748.868347 C364.168908,724.984515 336.565234,712.416089 311.509591,705.785703 C286.466688,699.146822 262.871916,697.583733 237.875727,691.097762 C205.49874,682.708901 170.947433,666.016129 137.101081,642.395644 C108.860399,622.708366 79.5155696,596.267525 60.7450709,563.119842" id="Path" stroke="#FB6E00" stroke-width="3" stroke-linecap="round"></path>
                <path d="M997.150892,1102.94626 C947.464278,1056.75443 902.062604,999.765386 850.133722,959.62203 C798.468136,919.695297 741.481412,905.17301 697.31978,905.776158 C678.931486,906.03101 660.466751,907.445436 639.436997,898.644564 C608.40622,885.655634 577.689701,853.149327 548.896945,822.877218 C508.073234,779.934743 472.918892,750.792475 431.887092,747.759743 C397.675522,745.236713 367.056677,752.079475 330.704761,743.81804 C285.383774,733.513545 234.86905,700.14499 188.877081,658.260149 C142.9021,616.371059 100.744919,566.186554 60.2269711,515.309703" id="Path" stroke="#DD2222" stroke-width="3" stroke-linecap="round"></path>
                <path d="M997.779407,1126.78337 C970.81274,1113.71798 942.975496,1090.88753 919.690735,1062.66698 C896.134184,1034.12361 877.894525,1001.32423 857.285197,970.342782 C836.675869,939.369832 811.424877,908.099554 784.025045,892.804218 C753.249071,875.635723 727.152982,882.656881 707.405738,895.33999 C687.645753,908.023099 671.096289,926.083574 646.380383,930.399059 C629.253365,933.406307 606.631092,928.347505 586.416709,909.203911 C563.093727,887.116782 550.497958,854.393851 537.876709,824.996733 C527.459507,800.722129 515.241696,775.967554 498.675244,753.880426 C482.12578,731.801792 460.569433,712.577495 440.996304,706.681931 C411.545307,697.821594 395.386541,719.772802 380.017664,738.011673 C364.636047,756.263287 341.058262,771.29103 310.532845,750.652307 C296.433738,741.108119 283.723307,725.540941 272.630877,709.867574 C241.001312,665.153881 222.362462,602.001683 176.119937,573.373366 C159.731848,563.234525 143.900079,561.229693 130.960325,563.931119 C100.553816,570.289663 77.7914016,599.669792 62.3418373,626.412208" id="Path" stroke="#FFFFFF" stroke-width="3" opacity="0.7" stroke-linecap="round"></path>
                <polyline id="Path" stroke-opacity="0.4" stroke="#FFFFFF" points="36.1140997 441.033238 41.4309921 642.663238 997.745433 1183.84037"></polyline>
                <polygon id="Path" fill="url(#linearGradient-17)" fill-rule="nonzero" points="1040.44619 930.207921 1618 637.128713 598.787402 0 0 329.191663"></polygon>
                <polygon id="Path" fill="url(#linearGradient-18)" fill-rule="nonzero" points="1040.44619 930.207921 1469.36483 717.831683 1469.36483 1069.33984 1040.44619 1287"></polygon>
            </g>
            <g id="Group" transform="translate(637.000000, 1529.000000)">
                <path d="M593.565424,555.472415 L1134.10245,865.565785 C1142.5411,870.40555 1145.49845,881.236595 1140.7055,889.76036 C1139.1856,892.465392 1136.97999,894.722332 1134.31065,896.304028 L586.184788,1220.69574 C569.487025,1230.59233 548.679832,1230.4189 532.149357,1220.24533 L24.003,908.069882 C12.9511673,901.279765 9.43718587,886.726478 16.1634647,875.559751 C18.235386,872.114616 21.1552274,869.257634 24.6446097,867.26119 L570.467476,555.45117 C577.624522,551.356884 586.415921,551.36497 593.565424,555.472415 L593.565424,555.472415 Z" id="Path" stroke="#FC994D" stroke-linecap="square"></path>
                <path d="M193.753372,619.511128 L58.293,697.487003 L329.783119,854.322574 L566.095182,983.011875 L586.44823,982.021827 L981.089164,761.810408 L1004.7055,749.640886 C1026.53325,774.394928 1047.29331,800.070374 1066.92889,826.596969 L611.619725,1088.69636 C593.705643,1099.0515 562.360249,1097.78526 541.633283,1085.87918 L19.7794238,786.089965 C8.3196803,779.53355 2.54519331,771.08627 2.647171,763.102145 L2.6046803,763.144637 L2.6046803,669.221758 L20.4762714,685.130519 L35.8579071,676.245578 C34.1795242,674.295225 33.028026,672.595571 33.3509554,672.072927 C34.2517584,670.475253 40.9737881,658.841121 40.9737881,658.841121 L155.762431,591.262879 C168.831375,600.121246 181.507105,609.546313 193.753372,619.511128" id="Path"></path>
                <path d="M1068.29074,697.487003 L796.800619,854.322574 L560.488555,983.011875 L540.135507,982.021827 L2.78103864,675.306519 C2.78103864,708.313799 2.4241167,725.119128 2.72580072,781.250201 C2.78103864,792.242713 8.60651447,792.242713 8.60651447,792.242713 L514.959764,1088.69636 C532.878094,1099.0515 564.219239,1097.78526 584.950455,1085.87918 L1106.80431,786.089965 C1118.26406,779.53355 1124.03854,771.08627 1123.93657,763.102145 L1123.97906,763.144637 L1123.97906,669.221758 L1106.10747,685.130519 L1090.72583,676.245578 C1092.40421,674.295225 1093.55571,672.595571 1093.23278,672.072927 C1092.32773,670.475253 1085.60995,658.841121 1085.60995,658.841121 L970.821306,591.262879 C957.752363,600.121246 945.076632,609.546313 932.830366,619.511128 L1068.29074,697.487003 L1068.29074,697.487003 Z" id="Path" fill="url(#linearGradient-19)" fill-rule="nonzero" transform="translate(563.291869, 843.484367) scale(-1, 1) translate(-563.291869, -843.484367) "></path>
                <path d="M7.54634944,1092.09567 L7.60583643,996.128955 L32.305684,996.766325 L255.522112,861.95827 L525.346595,704.799765 L516.393803,699.586076 C524.751725,694.763308 572.026885,681.506007 580.707736,676.47928 L580.707736,763.731017 L580.69074,770.59337 L580.665245,770.550879 C580.767223,778.564747 575.013981,787.012028 563.639219,793.598187 L44.9721636,1088.15247 C34.2347621,1094.35621 20.6547323,1095.74567 7.57184387,1096.03887 L7.54634944,1092.09567 Z" id="Path" fill="url(#linearGradient-20)" fill-rule="nonzero" transform="translate(294.127043, 886.259073) scale(-1, 1) translate(-294.127043, -886.259073) "></path>
                <path d="M165.344086,600.776692 L48.8770595,667.594339 C44.8022007,669.952609 45.3120892,674.053024 50.0285576,676.755474 L569.80887,974.322394 C574.525338,977.033343 581.672275,977.322284 585.76413,974.959765 L993.776888,740.883419 C1000.52617,748.300797 1007.17095,755.812592 1013.70928,763.416581 L610.808152,994.586519 C592.915316,1004.89067 561.62516,1003.62018 540.919439,991.78209 L19.6859442,693.369592 C-1.00278067,681.514505 -3.25903717,663.570408 14.6337993,653.266256 L137.814357,582.598893 C147.189435,588.35421 156.372406,594.416764 165.348335,600.776692" id="Path"></path>
                <path d="M578.087984,348.0169 L1115.52318,654.507003 C1120.9554,657.618061 1124.32327,663.383317 1124.36568,669.643251 C1124.4073,675.903184 1121.11711,681.713126 1115.72714,684.896817 L570.754088,1005.52379 C554.137546,1015.30691 533.482209,1015.13701 517.028839,1005.08188 L11.7930954,696.526699 C0.80499879,689.813066 -2.68773727,675.425495 4.0002999,664.390491 C6.06413307,660.981978 8.96635455,658.158706 12.430456,656.189661 L555.121757,347.995654 C562.244415,343.948966 570.972825,343.95704 578.087984,348.0169 Z" id="Path" fill="url(#linearGradient-21)" fill-rule="nonzero" transform="translate(562.484434, 678.855129) scale(-1, 1) translate(-562.484434, -678.855129) "></path>
                <g transform="translate(568.130126, 675.629343) scale(-1, 1) translate(-568.130126, -675.629343) translate(44.130126, 371.629343)">
                    <g id="G-link" fill="url(#linearGradient-22)" fill-rule="nonzero">
                        <path d="M1043.20208,305.257855 C1047.89305,302.538408 1048.40294,298.412498 1044.34508,296.037232 L536.993297,1.59342561 C532.935435,-0.764844291 525.818242,-0.471653979 521.127268,2.25204152 L3.90914498,301.790561 C-0.815821561,304.514256 -1.32146097,308.640166 2.7491487,311.011183 L510.088182,605.45499 C514.158792,607.830256 521.271736,607.537066 525.966959,604.817619 L1043.20208,305.257855 Z" id="G"></path>
                    </g>
                    <g id="Clipped">
                        <mask id="mask-24" fill="white">
                            <use xlink:href="#path-23"></use>
                        </mask>
                        <g id="G"></g>
                        <path d="M1043.20208,398.80681 C1047.89305,396.087363 1048.40294,391.961453 1044.34508,389.586187 L536.993297,95.1381315 C532.935435,92.7798616 525.818242,93.0730519 521.127268,95.7967474 L3.90914498,395.339516 C-0.815821561,398.063211 -1.32146097,402.189121 2.7491487,404.560138 L510.088182,699.003945 C514.158792,701.379211 521.271736,701.086021 525.966959,698.366574 L1043.20208,398.80681 Z" id="Path" fill-opacity="0.6" fill="#FFE799" fill-rule="nonzero" mask="url(#mask-24)"></path>
                    </g>
                    <g id="Clipped">
                        <mask id="mask-26" fill="white">
                            <use xlink:href="#path-25"></use>
                        </mask>
                        <g id="G"></g>
                        <path d="M1043.20208,410.500429 C1047.89305,407.780983 1048.40294,403.655073 1044.34508,401.279806 L536.993297,106.836 C532.935435,104.47773 525.818242,104.77092 521.127268,107.494616 L3.90914498,407.033135 C-0.815821561,409.75683 -1.32146097,413.88274 2.7491487,416.253758 L510.088182,710.697564 C514.158792,713.07283 521.271736,712.77964 525.966959,710.060194 L1043.20208,410.500429 Z" id="Path" fill-opacity="0.6" fill="#FFE799" fill-rule="nonzero" mask="url(#mask-26)"></path>
                    </g>
                    <g id="Clipped">
                        <mask id="mask-28" fill="white">
                            <use xlink:href="#path-27"></use>
                        </mask>
                        <g id="G"></g>
                        <path d="M1043.20208,504.049384 C1047.89305,501.329938 1048.40294,497.204028 1044.34508,494.828761 L536.993297,200.384955 C532.935435,198.026685 525.818242,198.319875 521.127268,201.043571 L3.90914498,500.58209 C-0.815821561,503.305785 -1.32146097,507.431696 2.7491487,509.802713 L510.088182,804.246519 C514.158792,806.621785 521.271736,806.328595 525.966959,803.609149 L1043.20208,504.049384 Z" id="Path" fill-opacity="0.6" fill="#FFE799" fill-rule="nonzero" mask="url(#mask-28)"></path>
                    </g>
                </g>
                <path d="M562.109554,367.031779 C566.163167,364.656512 572.133112,370.796512 576.824086,373.520208 L1094.06345,673.075723 C1097.85787,675.276775 1098.88615,678.39564 1096.98681,680.75391 C1096.20013,679.70517 1095.20294,678.832434 1094.0592,678.191682 L576.824086,384.495723 C572.133112,381.772028 565.015918,381.478837 560.962305,383.841356 L50.7508996,677.991972 C49.5866543,677.991972 48.2269517,677.014671 46.6717918,675.068567 C44.3433011,672.145163 44.8574387,669.026298 47.7850483,667.322394 L562.109554,367.036028 L562.109554,367.031779 Z" id="Path" fill="#FB6E00" fill-rule="nonzero"></path>
                <path d="M130.888372,805.699723 C130.888372,812.222145 135.443375,820.159529 141.073394,823.418616 C146.720409,826.681952 151.271164,824.03474 151.271164,817.512318 C151.271164,810.985647 146.720409,803.048263 141.073394,799.784927 C135.443375,796.521592 130.888372,799.173052 130.888372,805.699723 M95.349145,785.104166 C95.349145,791.626588 99.9041487,799.563972 105.546914,802.827308 C111.181182,806.090644 115.736186,803.439183 115.736186,796.929509 C115.736186,790.39009 111.181182,782.452706 105.546914,779.18937 C99.9041487,775.943031 95.349145,778.577495 95.349145,785.104166 M59.8099182,764.512858 C59.8099182,771.03528 64.3776691,778.972664 70.0076877,782.231751 C75.6377063,785.495087 80.1969591,782.847875 80.1969591,776.338201 C80.1969591,769.794533 75.6377063,761.874145 70.0076877,758.598062 C64.3776691,755.351723 59.8099182,757.986187 59.8099182,764.512858" id="Shape" fill="#FFE799" fill-rule="nonzero"></path>
                <g transform="translate(0.000000, 174.214533)">
                    <path d="M193.753372,275.331197 L58.293,353.307073 L329.783119,510.142644 L566.095182,638.831945 L586.44823,637.841896 L981.089164,417.630478 L1004.7055,405.460955 C1026.53325,430.214997 1047.29331,455.890443 1066.92889,482.417038 L611.619725,744.516429 C593.705643,754.871571 562.360249,753.605329 541.633283,741.699253 L19.7794238,441.910035 C8.3196803,435.353619 2.54519331,426.906339 2.647171,418.922215 L2.6046803,418.964706 L2.6046803,325.041827 L20.4762714,340.950588 L35.8579071,332.065647 C34.1795242,330.115294 33.028026,328.41564 33.3509554,327.892997 C34.2517584,326.295322 40.9737881,314.66119 40.9737881,314.66119 L155.762431,247.082948 C168.831375,255.941315 181.507105,265.366383 193.753372,275.331197" id="Path"></path>
                    <path d="M1068.29074,353.307073 L796.800619,510.142644 L560.488555,638.831945 L540.135507,637.841896 L2.78103864,331.126588 C2.78103864,364.133869 2.4241167,380.939197 2.72580072,437.07027 C2.78103864,448.062782 8.60651447,448.062782 8.60651447,448.062782 L514.959764,744.516429 C532.878094,754.871571 564.219239,753.605329 584.950455,741.699253 L1106.80431,441.910035 C1118.26406,435.353619 1124.03854,426.906339 1123.93657,418.922215 L1123.97906,418.964706 L1123.97906,325.041827 L1106.10747,340.950588 L1090.72583,332.065647 C1092.40421,330.115294 1093.55571,328.41564 1093.23278,327.892997 C1092.32773,326.295322 1085.60995,314.66119 1085.60995,314.66119 L970.821306,247.082948 C957.752363,255.941315 945.076632,265.366383 932.830366,275.331197 L1068.29074,353.307073 L1068.29074,353.307073 Z" id="Path" fill="url(#linearGradient-19)" fill-rule="nonzero" transform="translate(563.291869, 499.304436) scale(-1, 1) translate(-563.291869, -499.304436) "></path>
                    <path d="M7.54634944,747.915737 L7.60583643,651.949024 L32.305684,652.586394 L255.522112,517.778339 L525.346595,360.619834 L516.393803,355.406145 C524.751725,350.583377 572.026885,337.326076 580.707736,332.299349 L580.707736,419.551087 L580.69074,426.413439 L580.665245,426.370948 C580.767223,434.384817 575.013981,442.832097 563.639219,449.418256 L44.9721636,743.97254 C34.2347621,750.176277 20.6547323,751.565744 7.57184387,751.858934 L7.54634944,747.915737 Z" id="Path" fill="url(#linearGradient-20)" fill-rule="nonzero" transform="translate(294.127043, 542.079142) scale(-1, 1) translate(-294.127043, -542.079142) "></path>
                    <path d="M165.344086,256.596761 L48.8770595,323.414408 C44.8022007,325.772678 45.3120892,329.873093 50.0285576,332.575543 L569.80887,630.142464 C574.525338,632.853412 581.672275,633.142353 585.76413,630.779834 L993.776888,396.703488 C1000.52617,404.120866 1007.17095,411.632661 1013.70928,419.236651 L610.808152,650.406588 C592.915316,660.71074 561.62516,659.440249 540.919439,647.602159 L19.6859442,349.189661 C-1.00278067,337.334574 -3.25903717,319.390478 14.6337993,309.086325 L137.814357,238.418962 C147.189435,244.17428 156.372406,250.236833 165.348335,256.596761" id="Path"></path>
                    <path d="M578.087984,3.83696886 L1115.52318,310.327073 C1120.9554,313.43813 1124.32327,319.203387 1124.36568,325.46332 C1124.4073,331.723253 1121.11711,337.533195 1115.72714,340.716886 L570.754088,661.343862 C554.137546,671.126976 533.482209,670.957078 517.028839,660.901952 L11.7930954,352.346768 C0.80499879,345.633135 -2.68773727,331.245564 4.0002999,320.210561 C6.06413307,316.802047 8.96635455,313.978775 12.430456,312.00973 L555.121757,3.81572318 C562.244415,-0.230964827 570.972825,-0.22289032 578.087984,3.83696886 Z" id="Path" fill="url(#linearGradient-21)" fill-rule="nonzero" transform="translate(562.484434, 334.675198) scale(-1, 1) translate(-562.484434, -334.675198) "></path>
                    <g transform="translate(568.130126, 331.449412) scale(-1, 1) translate(-568.130126, -331.449412) translate(44.130126, 27.449412)">
                        <g id="J-link" fill="url(#linearGradient-22)" fill-rule="nonzero">
                            <path d="M1043.20208,305.257855 C1047.89305,302.538408 1048.40294,298.412498 1044.34508,296.037232 L536.993297,1.59342561 C532.935435,-0.764844291 525.818242,-0.471653979 521.127268,2.25204152 L3.90914498,301.790561 C-0.815821561,304.514256 -1.32146097,308.640166 2.7491487,311.011183 L510.088182,605.45499 C514.158792,607.830256 521.271736,607.537066 525.966959,604.817619 L1043.20208,305.257855 Z" id="J"></path>
                        </g>
                        <g id="Clipped">
                            <mask id="mask-30" fill="white">
                                <use xlink:href="#path-29"></use>
                            </mask>
                            <g id="J"></g>
                            <path d="M1043.20208,398.80681 C1047.89305,396.087363 1048.40294,391.961453 1044.34508,389.586187 L536.993297,95.1381315 C532.935435,92.7798616 525.818242,93.0730519 521.127268,95.7967474 L3.90914498,395.339516 C-0.815821561,398.063211 -1.32146097,402.189121 2.7491487,404.560138 L510.088182,699.003945 C514.158792,701.379211 521.271736,701.086021 525.966959,698.366574 L1043.20208,398.80681 Z" id="Path" fill-opacity="0.6" fill="#FFE799" fill-rule="nonzero" mask="url(#mask-30)"></path>
                        </g>
                        <g id="Clipped">
                            <mask id="mask-32" fill="white">
                                <use xlink:href="#path-31"></use>
                            </mask>
                            <g id="J"></g>
                            <path d="M1043.20208,410.500429 C1047.89305,407.780983 1048.40294,403.655073 1044.34508,401.279806 L536.993297,106.836 C532.935435,104.47773 525.818242,104.77092 521.127268,107.494616 L3.90914498,407.033135 C-0.815821561,409.75683 -1.32146097,413.88274 2.7491487,416.253758 L510.088182,710.697564 C514.158792,713.07283 521.271736,712.77964 525.966959,710.060194 L1043.20208,410.500429 Z" id="Path" fill-opacity="0.6" fill="#FFE799" fill-rule="nonzero" mask="url(#mask-32)"></path>
                        </g>
                        <g id="Clipped">
                            <mask id="mask-34" fill="white">
                                <use xlink:href="#path-33"></use>
                            </mask>
                            <g id="J"></g>
                            <path d="M1043.20208,504.049384 C1047.89305,501.329938 1048.40294,497.204028 1044.34508,494.828761 L536.993297,200.384955 C532.935435,198.026685 525.818242,198.319875 521.127268,201.043571 L3.90914498,500.58209 C-0.815821561,503.305785 -1.32146097,507.431696 2.7491487,509.802713 L510.088182,804.246519 C514.158792,806.621785 521.271736,806.328595 525.966959,803.609149 L1043.20208,504.049384 Z" id="Path" fill-opacity="0.6" fill="#FFE799" fill-rule="nonzero" mask="url(#mask-34)"></path>
                        </g>
                    </g>
                    <path d="M562.109554,22.8518478 C566.163167,20.4765813 572.133112,26.6165813 576.824086,29.3402768 L1094.06345,328.895792 C1097.85787,331.096844 1098.88615,334.215709 1096.98681,336.573979 C1096.20013,335.525239 1095.20294,334.652503 1094.0592,334.011751 L576.824086,40.3157924 C572.133112,37.5920969 565.015918,37.2989066 560.962305,39.6614256 L50.7508996,333.812042 C49.5866543,333.812042 48.2269517,332.83474 46.6717918,330.888637 C44.3433011,327.965232 44.8574387,324.846367 47.7850483,323.142464 L562.109554,22.8560969 L562.109554,22.8518478 Z" id="Path" fill="#FB6E00" fill-rule="nonzero"></path>
                    <path d="M130.888372,461.519792 C130.888372,468.042215 135.443375,475.979599 141.073394,479.238685 C146.720409,482.502021 151.271164,479.85481 151.271164,473.332388 C151.271164,466.805716 146.720409,458.868332 141.073394,455.604997 C135.443375,452.341661 130.888372,454.993121 130.888372,461.519792 M95.349145,440.924235 C95.349145,447.446657 99.9041487,455.384042 105.546914,458.647377 C111.181182,461.910713 115.736186,459.259253 115.736186,452.749578 C115.736186,446.210159 111.181182,438.272775 105.546914,435.009439 C99.9041487,431.7631 95.349145,434.397564 95.349145,440.924235 M59.8099182,420.332927 C59.8099182,426.855349 64.3776691,434.792734 70.0076877,438.05182 C75.6377063,441.315156 80.1969591,438.667945 80.1969591,432.15827 C80.1969591,425.614602 75.6377063,417.694215 70.0076877,414.418131 C64.3776691,411.171792 59.8099182,413.806256 59.8099182,420.332927" id="Shape" fill="#FFE799" fill-rule="nonzero"></path>
                </g>
                <g>
                    <path d="M193.753372,275.331197 L58.293,353.307073 L329.783119,510.142644 L566.095182,638.831945 L586.44823,637.841896 L981.089164,417.630478 L1004.7055,405.460955 C1026.53325,430.214997 1047.29331,455.890443 1066.92889,482.417038 L611.619725,744.516429 C593.705643,754.871571 562.360249,753.605329 541.633283,741.699253 L19.7794238,441.910035 C8.3196803,435.353619 2.54519331,426.906339 2.647171,418.922215 L2.6046803,418.964706 L2.6046803,325.041827 L20.4762714,340.950588 L35.8579071,332.065647 C34.1795242,330.115294 33.028026,328.41564 33.3509554,327.892997 C34.2517584,326.295322 40.9737881,314.66119 40.9737881,314.66119 L155.762431,247.082948 C168.831375,255.941315 181.507105,265.366383 193.753372,275.331197" id="Path"></path>
                    <path d="M1068.29074,353.307073 L796.800619,510.142644 L560.488555,638.831945 L540.135507,637.841896 L2.78103864,331.126588 C2.78103864,364.133869 2.4241167,380.939197 2.72580072,437.07027 C2.78103864,448.062782 8.60651447,448.062782 8.60651447,448.062782 L514.959764,744.516429 C532.878094,754.871571 564.219239,753.605329 584.950455,741.699253 L1106.80431,441.910035 C1118.26406,435.353619 1124.03854,426.906339 1123.93657,418.922215 L1123.97906,418.964706 L1123.97906,325.041827 L1106.10747,340.950588 L1090.72583,332.065647 C1092.40421,330.115294 1093.55571,328.41564 1093.23278,327.892997 C1092.32773,326.295322 1085.60995,314.66119 1085.60995,314.66119 L970.821306,247.082948 C957.752363,255.941315 945.076632,265.366383 932.830366,275.331197 L1068.29074,353.307073 L1068.29074,353.307073 Z" id="Path" fill="url(#linearGradient-19)" fill-rule="nonzero" transform="translate(563.291869, 499.304436) scale(-1, 1) translate(-563.291869, -499.304436) "></path>
                    <path d="M7.54634944,747.915737 L7.60583643,651.949024 L32.305684,652.586394 L255.522112,517.778339 L525.346595,360.619834 L516.393803,355.406145 C524.751725,350.583377 572.026885,337.326076 580.707736,332.299349 L580.707736,419.551087 L580.69074,426.413439 L580.665245,426.370948 C580.767223,434.384817 575.013981,442.832097 563.639219,449.418256 L44.9721636,743.97254 C34.2347621,750.176277 20.6547323,751.565744 7.57184387,751.858934 L7.54634944,747.915737 Z" id="Path" fill="url(#linearGradient-20)" fill-rule="nonzero" transform="translate(294.127043, 542.079142) scale(-1, 1) translate(-294.127043, -542.079142) "></path>
                    <path d="M165.344086,256.596761 L48.8770595,323.414408 C44.8022007,325.772678 45.3120892,329.873093 50.0285576,332.575543 L569.80887,630.142464 C574.525338,632.853412 581.672275,633.142353 585.76413,630.779834 L993.776888,396.703488 C1000.52617,404.120866 1007.17095,411.632661 1013.70928,419.236651 L610.808152,650.406588 C592.915316,660.71074 561.62516,659.440249 540.919439,647.602159 L19.6859442,349.189661 C-1.00278067,337.334574 -3.25903717,319.390478 14.6337993,309.086325 L137.814357,238.418962 C147.189435,244.17428 156.372406,250.236833 165.348335,256.596761" id="Path"></path>
                    <path d="M578.087984,3.83696886 L1115.52318,310.327073 C1120.9554,313.43813 1124.32327,319.203387 1124.36568,325.46332 C1124.4073,331.723253 1121.11711,337.533195 1115.72714,340.716886 L570.754088,661.343862 C554.137546,671.126976 533.482209,670.957078 517.028839,660.901952 L11.7930954,352.346768 C0.80499879,345.633135 -2.68773727,331.245564 4.0002999,320.210561 C6.06413307,316.802047 8.96635455,313.978775 12.430456,312.00973 L555.121757,3.81572318 C562.244415,-0.230964827 570.972825,-0.22289032 578.087984,3.83696886 Z" id="Path" fill="url(#linearGradient-21)" fill-rule="nonzero" transform="translate(562.484434, 334.675198) scale(-1, 1) translate(-562.484434, -334.675198) "></path>
                    <g transform="translate(568.130126, 331.449412) scale(-1, 1) translate(-568.130126, -331.449412) translate(44.130126, 27.449412)">
                        <g id="L-link" fill="url(#linearGradient-22)" fill-rule="nonzero">
                            <path d="M1043.20208,305.257855 C1047.89305,302.538408 1048.40294,298.412498 1044.34508,296.037232 L536.993297,1.59342561 C532.935435,-0.764844291 525.818242,-0.471653979 521.127268,2.25204152 L3.90914498,301.790561 C-0.815821561,304.514256 -1.32146097,308.640166 2.7491487,311.011183 L510.088182,605.45499 C514.158792,607.830256 521.271736,607.537066 525.966959,604.817619 L1043.20208,305.257855 Z" id="L"></path>
                        </g>
                        <g id="Clipped">
                            <mask id="mask-36" fill="white">
                                <use xlink:href="#path-35"></use>
                            </mask>
                            <g id="L"></g>
                            <path d="M1043.20208,398.80681 C1047.89305,396.087363 1048.40294,391.961453 1044.34508,389.586187 L536.993297,95.1381315 C532.935435,92.7798616 525.818242,93.0730519 521.127268,95.7967474 L3.90914498,395.339516 C-0.815821561,398.063211 -1.32146097,402.189121 2.7491487,404.560138 L510.088182,699.003945 C514.158792,701.379211 521.271736,701.086021 525.966959,698.366574 L1043.20208,398.80681 Z" id="Path" fill-opacity="0.6" fill="#FFE799" fill-rule="nonzero" mask="url(#mask-36)"></path>
                        </g>
                        <g id="Clipped">
                            <mask id="mask-38" fill="white">
                                <use xlink:href="#path-37"></use>
                            </mask>
                            <g id="L"></g>
                            <path d="M1043.20208,410.500429 C1047.89305,407.780983 1048.40294,403.655073 1044.34508,401.279806 L536.993297,106.836 C532.935435,104.47773 525.818242,104.77092 521.127268,107.494616 L3.90914498,407.033135 C-0.815821561,409.75683 -1.32146097,413.88274 2.7491487,416.253758 L510.088182,710.697564 C514.158792,713.07283 521.271736,712.77964 525.966959,710.060194 L1043.20208,410.500429 Z" id="Path" fill-opacity="0.6" fill="#FFE799" fill-rule="nonzero" mask="url(#mask-38)"></path>
                        </g>
                        <g id="Clipped">
                            <mask id="mask-40" fill="white">
                                <use xlink:href="#path-39"></use>
                            </mask>
                            <g id="L"></g>
                            <path d="M1043.20208,504.049384 C1047.89305,501.329938 1048.40294,497.204028 1044.34508,494.828761 L536.993297,200.384955 C532.935435,198.026685 525.818242,198.319875 521.127268,201.043571 L3.90914498,500.58209 C-0.815821561,503.305785 -1.32146097,507.431696 2.7491487,509.802713 L510.088182,804.246519 C514.158792,806.621785 521.271736,806.328595 525.966959,803.609149 L1043.20208,504.049384 Z" id="Path" fill-opacity="0.6" fill="#FFE799" fill-rule="nonzero" mask="url(#mask-40)"></path>
                        </g>
                    </g>
                    <path d="M562.109554,22.8518478 C566.163167,20.4765813 572.133112,26.6165813 576.824086,29.3402768 L1094.06345,328.895792 C1097.85787,331.096844 1098.88615,334.215709 1096.98681,336.573979 C1096.20013,335.525239 1095.20294,334.652503 1094.0592,334.011751 L576.824086,40.3157924 C572.133112,37.5920969 565.015918,37.2989066 560.962305,39.6614256 L50.7508996,333.812042 C49.5866543,333.812042 48.2269517,332.83474 46.6717918,330.888637 C44.3433011,327.965232 44.8574387,324.846367 47.7850483,323.142464 L562.109554,22.8560969 L562.109554,22.8518478 Z" id="Path" fill="#FB6E00" fill-rule="nonzero"></path>
                    <path d="M130.888372,461.519792 C130.888372,468.042215 135.443375,475.979599 141.073394,479.238685 C146.720409,482.502021 151.271164,479.85481 151.271164,473.332388 C151.271164,466.805716 146.720409,458.868332 141.073394,455.604997 C135.443375,452.341661 130.888372,454.993121 130.888372,461.519792 M95.349145,440.924235 C95.349145,447.446657 99.9041487,455.384042 105.546914,458.647377 C111.181182,461.910713 115.736186,459.259253 115.736186,452.749578 C115.736186,446.210159 111.181182,438.272775 105.546914,435.009439 C99.9041487,431.7631 95.349145,434.397564 95.349145,440.924235 M59.8099182,420.332927 C59.8099182,426.855349 64.3776691,434.792734 70.0076877,438.05182 C75.6377063,441.315156 80.1969591,438.667945 80.1969591,432.15827 C80.1969591,425.614602 75.6377063,417.694215 70.0076877,414.418131 C64.3776691,411.171792 59.8099182,413.806256 59.8099182,420.332927" id="Shape" fill="#FFE799" fill-rule="nonzero"></path>
                </g>
            </g>
            <g id="Group" transform="translate(1261.000000, 1502.000000)" fill-rule="nonzero">
                <path d="M350.590294,373.826482 L288.009044,363.247059 C288.009044,363.247059 121.209294,429.925882 104.664044,453.930259 C88.1187941,477.934635 79.1725441,655.342776 79.1725441,655.342776 C79.1725441,655.342776 45.4530441,684.282235 51.7940441,693.082141 C58.1307941,701.886294 116.759544,667.302494 116.759544,667.302494 L162.574544,530.080024 L424.999294,382.405541 L350.590294,373.826482 Z" id="Path" fill="url(#linearGradient-41)" transform="translate(237.999647, 528.882126) scale(-1, 1) translate(-237.999647, -528.882126) "></path>
                <path d="M193.5195,267.785918 C201.212,275.201282 211.84125,277.452224 220.40925,283.521271 C228.973,289.590318 238,293.412671 245.37375,299.617624 C252.823625,305.944493 256.318723,315.769679 254.53675,325.376035 C254.392022,326.62155 253.825113,327.780062 252.93025,328.659012 C251.301506,329.475644 249.382494,329.475644 247.75375,328.659012 C239.165598,325.397322 231.155074,320.783311 224.026,314.991976 C223.15852,314.169129 221.953953,313.802501 220.77475,314.002412 C219.4445,314.495071 219.12575,316.206635 218.20775,317.285388 C217.340352,318.153693 216.163003,318.641628 214.93525,318.641628 C213.707497,318.641628 212.530148,318.153693 211.66275,317.285388 C209.983722,315.583657 208.713582,313.522923 207.94825,311.258812 C202.40625,298.445435 183.48525,297.545059 170.4335,298.670529 C154.49175,300.021094 159.8935,292.690671 157.743,290.711541 C155.58825,288.736659 161.092,227.6682 162.60075,224.083682 C170.7055,208.259141 177.395,232.760424 179.2735,238.876188 C182.478,248.945965 185.4105,260.005306 193.5195,267.785918 L193.5195,267.785918 Z" id="Path" fill="#FEE2CC"></path>
                <path d="M182.342,213.198471 C182.886,214.982235 182.886,216.893412 182.342,218.677176 C181.6535,220.206118 180.5655,221.497224 179.2055,222.406094 C174.208785,226.25598 168.526706,229.123876 162.4605,230.857741 C160.66275,231.477812 158.763,231.707153 156.88025,231.528776 C153.43143,230.732393 150.384296,228.722978 148.29525,225.867447 C137.0965,212.523188 130.254,195.789776 128.758,178.096529 C127.942,170.188506 125.27725,141.249047 131.5885,135.498529 C138.67325,129.026012 147.475,143.992647 152.2435,150.235824 C166.4895,168.710529 176.7575,190.183659 182.342,213.194224 L182.342,213.198471 Z" id="Path" fill="#FFFFFF"></path>
                <path d="M142.05625,156.823012 C160.79875,202.236812 168.28725,251.727788 168.64425,300.866259 C168.64425,316.639835 191.4625,355.763741 179.05675,365.553212 C171.61075,371.448129 170.8585,371.091376 161.33425,372.467424 C139.179,375.656965 63.852,422.047588 42.143,418.237976 C20.42975,414.424118 -0.306,287.0888 0.00425,269.803271 C0.7565,221.777529 4.9215,163.953824 42.143,128.728718 C56.45275,115.218824 74.664,99.5301882 95.3105,105.467576 C119.6375,112.560165 132.9315,134.933671 142.0605,156.823012 L142.05625,156.823012 Z" id="Path" fill="#FFFFFF"></path>
                <polygon id="Path" fill="url(#linearGradient-42)" transform="translate(257.125000, 342.011765) scale(-1, 1) translate(-257.125000, -342.011765) " points="199.8945 373.376294 285.3195 422.705882 391 374.259682 367.6845 359.492659 297.0665 309.411341 239.96775 337.038459 222.41525 307.024494 123.25 261.317647"></polygon>
                <path d="M148.75,336.172059 C148.75,336.172059 191.981,399.155941 192.24025,401.377153 C192.50375,403.594118 276.25,365.816529 276.25,365.816529 L205.105,308.035294 L148.75,336.172059 Z" id="Path" fill="url(#linearGradient-43)" transform="translate(212.500000, 354.753171) scale(-1, 1) translate(-212.500000, -354.753171) "></path>
                <path d="M76.5,289.174106 C90.9585,302.819906 107.91175,308.621388 127.5765,312.630612 C144.340786,316.053703 161.290052,318.499889 178.3385,319.956788 C190.03875,321.001565 202.18525,321.655612 212.687,326.887988 C223.1845,332.120365 231.5485,343.502482 229.058,354.752941 C189.788,352.714353 150.518,350.391212 111.248,347.775024 C90.3805,346.381988 69.207,344.853047 49.453,338.185165 C35.61925,333.517647 21.73875,325.363294 16.26475,312.023282 C14.2914824,306.652768 13.2090721,300.996282 13.06025,295.277129 C12.4375655,281.072662 12.7491654,266.842652 13.99525,252.679129 C13.9732579,243.080616 15.926183,233.580066 19.73275,224.767459 C29.96675,204.712847 65.64125,205.583494 69.24525,227.383647 C73.11275,250.712741 55.63675,269.505976 76.5,289.174106 L76.5,289.174106 Z" id="Path" fill="#FEE2CC"></path>
                <path d="M284.458639,375.988235 L77.980889,485.078188 L61.890389,677.563388 C61.890389,677.563388 29.747639,706.995506 29.747639,715.574565 C29.747639,724.153624 47.049389,719.261012 73.050889,709.437565 C87.1816449,704.462437 100.503421,697.437677 112.588639,688.588753 L148.450139,526.775812 C148.450139,526.775812 362.322889,497.347941 378.417639,453.204012 C388.150139,428.520106 380.058139,400.430059 358.646639,384.571541 L284.458639,375.988235 Z" id="Path" fill="url(#linearGradient-44)" transform="translate(206.123820, 547.994446) scale(-1, 1) translate(-206.123820, -547.994446) "></path>
                <path d="M14.1417522,169.810518 C14.1417522,169.810518 1.51925222,248.933224 4.79175222,254.806906 C8.07275222,260.684835 24.7327522,267.790165 24.7327522,267.790165 C24.7327522,267.790165 80.2080022,280.947553 80.7520022,240.141812 C60.4115022,132.763424 14.1417522,169.810518 14.1417522,169.810518 L14.1417522,169.810518 Z" id="Path" fill="url(#linearGradient-45)" transform="translate(42.501001, 216.723570) scale(-1, 1) translate(-42.501001, -216.723570) "></path>
                <polygon id="Path" fill="url(#linearGradient-46)" transform="translate(312.375000, 346.258824) scale(-1, 1) translate(-312.375000, -346.258824) " points="307.5215 371.443882 386.75 418.458824 319.09 317.599671 238 274.058824"></polygon>
                <path d="M147.78525,123.589776 C145.393073,128.949363 142.297367,133.966764 138.57975,138.509694 C127.515496,150.520017 110.073271,154.249457 95.05975,147.815 C84.5878447,142.670852 76.5077759,133.685011 72.505,122.731871 C68.5375184,111.873287 67.1608383,100.239229 68.4845,88.7554 C69.3242959,72.4632579 75.8560349,56.9815906 86.94225,45.0064471 C95.3897059,37.3576736 105.547021,31.8412774 116.56475,28.9185882 C121.712599,27.1214936 127.189073,26.4607724 132.617,26.9819294 C137.7595,28.0564353 142.65975,30.0610471 147.07125,32.9023294 C152.060082,35.515322 156.681572,38.7755446 160.81575,42.5983647 C180.557,62.5255647 157.34775,104.265659 147.78525,123.589776 Z" id="Path" fill="#FEE2CC"></path>
                <path d="M84.201,87.0565765 C81.9648345,85.5509983 80.6249107,83.03222 80.62675,80.3377294 C80.43975,77.6790706 80.869,75.0841176 80.6735,72.3235294 C80.6704926,71.6007545 80.4801411,70.8910884 80.121,70.2637059 C78.863,68.2081294 75.58625,69.3760706 74.20075,71.3594471 C70.567,76.8508941 73.661,84.0199294 73.92025,90.5986235 C74.0518022,95.4427906 72.49544,100.182207 69.51725,104.006588 C60.163,82.9241882 60.88975,58.6012824 71.47225,38.2366353 C72.6325,36.4104 73.50375,34.4057882 74.05625,32.295 C74.97425,27.9375176 72.981,23.4653647 73.38475,19.0399294 C73.97975,11.5608588 81.192,6.34122353 88.35325,4.74008235 C95.5145,3.13894118 102.95625,4.08603529 110.2195,3.21114118 C115.25575,2.49763529 120.22825,0.892247059 125.0265,0.399588235 C130.336887,0.0505788806 135.670064,0.436462871 140.87475,1.54629412 C153.238,3.77175294 166.005,7.43696471 175.0745,16.3897647 C185.99275,26.9904235 189.55425,43.0315647 191.437,58.2487765 C192.508,67.0274471 192.7545,77.0632471 186.73225,83.3488941 C182.006,87.5372976 175.802867,89.6682922 169.4985,89.2692941 C162.861483,89.6813661 156.288184,87.7696105 150.909,83.8627882 C145.891456,78.6393115 141.863824,72.5495215 139.02175,65.8892353 C138.674291,65.1827535 138.117917,64.6000761 137.428,64.2201412 C136.722683,64.0337555 135.975454,64.0860253 135.303,64.3687882 C130.70875,65.9826706 125.96575,67.1166353 121.1505,67.7664353 C116.203032,68.3440126 111.244149,66.783362 107.52075,63.4769059 C107.001932,62.8122825 106.269271,62.347185 105.44675,62.1603176 C104.81513,62.1545797 104.200448,62.364326 103.70425,62.7549059 C98.9513615,64.8456238 94.4748572,67.5145471 90.37625,70.7011529 C87.5276155,75.8199196 85.4469829,81.3291364 84.201,87.0523294 L84.201,87.0565765 Z" id="Path" fill="#FB6E00"></path>
            </g>
            <g id="Group" transform="translate(2358.000000, 692.000000)" fill-rule="nonzero">
                <g opacity="0.2" transform="translate(0.000000, 255.000000)" id="Path">
                    <polygon fill="url(#linearGradient-2)" points="94.8378667 219.91625 0 164.92975 0 54.978 94.8378667 109.9645"></polygon>
                    <polygon fill="url(#linearGradient-3)" points="189.667244 164.934 94.8293778 219.9205 94.8293778 109.956 189.667244 54.98225"></polygon>
                    <polygon fill="url(#linearGradient-4)" points="94.8378667 109.96025 0 54.97375 94.8378667 0 189.671489 54.9865"></polygon>
                </g>
                <g id="U-link" transform="translate(0.000000, 174.250000)" fill="#000000">
                    <polygon id="U" points="94.8378667 110.5935 0 55.61975 94.8378667 0.6375 189.671489 55.6155"></polygon>
                </g>
                <polygon id="Path" fill="url(#linearGradient-2)" points="94.8378667 219.91625 0 164.92975 0 54.978 94.8378667 109.9645"></polygon>
                <polygon id="Path" fill="url(#linearGradient-3)" points="189.667244 164.934 94.8293778 219.9205 94.8293778 109.956 189.667244 54.98225"></polygon>
                <polygon id="Path" fill="url(#linearGradient-4)" points="94.8378667 109.96025 0 54.97375 94.8378667 0 189.671489 54.9865"></polygon>
            </g>
        </g>
    </g>
</svg>