<?xml version="1.0" encoding="UTF-8"?>
<svg width="812px" height="593px" viewBox="0 0 812 593" version="1.1" xmlns="http://www.w3.org/2000/svg" xmlns:xlink="http://www.w3.org/1999/xlink">
    <title>mortalmesh-ground</title>
    <defs>
        <linearGradient x1="41.5068869%" y1="35.7393095%" x2="39.508323%" y2="54.9107356%" id="linearGradient-1">
            <stop stop-color="#1C1C1C" offset="0%"></stop>
            <stop stop-color="#000000" stop-opacity="0" offset="100%"></stop>
        </linearGradient>
        <radialGradient cx="85.9899471%" cy="19.2445906%" fx="85.9899471%" fy="19.2445906%" r="137.699724%" gradientTransform="translate(0.859899,0.192446),scale(0.581294,1.000000),rotate(81.976000),translate(-0.859899,-0.192446)" id="radialGradient-2">
            <stop stop-color="#FFEC6A" offset="0%"></stop>
            <stop stop-color="#FF4E54" stop-opacity="0.49" offset="33.9%"></stop>
            <stop stop-color="#000637" stop-opacity="0" offset="100%"></stop>
        </radialGradient>
        <linearGradient x1="42.1588877%" y1="41.2272028%" x2="48.0178863%" y2="53.3393943%" id="linearGradient-3">
            <stop stop-color="#000000" offset="0%"></stop>
            <stop stop-color="#000000" stop-opacity="0" offset="100%"></stop>
        </linearGradient>
        <radialGradient cx="152.204751%" cy="100.923745%" fx="152.204751%" fy="100.923745%" r="281.55363%" gradientTransform="translate(1.522048,1.009237),scale(0.302661,1.000000),rotate(-178.359000),translate(-1.522048,-1.009237)" id="radialGradient-4">
            <stop stop-color="#131313" offset="47.1%"></stop>
            <stop stop-color="#000000" stop-opacity="0" offset="100%"></stop>
        </radialGradient>
        <radialGradient cx="70.0040515%" cy="-3.68310458%" fx="70.0040515%" fy="-3.68310458%" r="108.054694%" gradientTransform="translate(0.700041,-0.036831),scale(0.991174,1.000000),rotate(114.380000),translate(-0.700041,0.036831)" id="radialGradient-5">
            <stop stop-color="#343536" offset="13.5%"></stop>
            <stop stop-color="#1D1E1F" offset="66.1%"></stop>
            <stop stop-color="#111111" offset="95.7%"></stop>
        </radialGradient>
        <radialGradient cx="72.6861516%" cy="14.5581668%" fx="72.6861516%" fy="14.5581668%" r="77.6398943%" gradientTransform="translate(0.726862,0.145582),scale(0.991174,1.000000),rotate(131.765000),translate(-0.726862,-0.145582)" id="radialGradient-6">
            <stop stop-color="#FFA463" offset="0%"></stop>
            <stop stop-color="#000000" stop-opacity="0" offset="93.2%"></stop>
        </radialGradient>
        <radialGradient cx="74.2440635%" cy="27.4819028%" fx="74.2440635%" fy="27.4819028%" r="87.2747987%" gradientTransform="translate(0.742441,0.274819),scale(0.991174,1.000000),rotate(133.085992),translate(-0.742441,-0.274819)" id="radialGradient-7">
            <stop stop-color="#C4C4C4" stop-opacity="0" offset="0%"></stop>
            <stop stop-color="#171717" stop-opacity="0" offset="39.1%"></stop>
            <stop stop-color="#1A1A1A" offset="73.4%"></stop>
            <stop stop-color="#171717" offset="84.4%"></stop>
            <stop stop-color="#171313" offset="96.9%"></stop>
        </radialGradient>
        <linearGradient x1="41.6154991%" y1="35.6645321%" x2="39.6116869%" y2="54.9365267%" id="linearGradient-8">
            <stop stop-color="#1C1C1C" offset="0%"></stop>
            <stop stop-color="#000000" stop-opacity="0" offset="100%"></stop>
        </linearGradient>
        <radialGradient cx="48.4234709%" cy="-0.0120128725%" fx="48.4234709%" fy="-0.0120128725%" r="124.159908%" gradientTransform="translate(0.484235,-0.000120),scale(0.582816,1.000000),rotate(79.696000),translate(-0.484235,0.000120)" id="radialGradient-9">
            <stop stop-color="#FFEC6A" offset="0%"></stop>
            <stop stop-color="#FF4E54" stop-opacity="0.49" offset="33.9%"></stop>
            <stop stop-color="#000637" stop-opacity="0" offset="100%"></stop>
        </radialGradient>
        <linearGradient x1="86.0635772%" y1="46.0618699%" x2="75.9486501%" y2="42.1833527%" id="linearGradient-10">
            <stop stop-color="#000000" offset="0%"></stop>
            <stop stop-color="#000000" stop-opacity="0.51" offset="43.8%"></stop>
            <stop stop-color="#000000" stop-opacity="0" offset="100%"></stop>
        </linearGradient>
        <radialGradient cx="94.9451744%" cy="-1.28615634%" fx="94.9451744%" fy="-1.28615634%" r="143.037811%" gradientTransform="translate(0.949452,-0.012862),scale(1.000000,0.681892),rotate(119.347000),translate(-0.949452,0.012862)" id="radialGradient-11">
            <stop stop-color="#131313" offset="47.1%"></stop>
            <stop stop-color="#000000" stop-opacity="0" offset="100%"></stop>
        </radialGradient>
        <radialGradient cx="69.999277%" cy="-3.68355875%" fx="69.999277%" fy="-3.68355875%" r="108.03171%" gradientTransform="translate(0.699993,-0.036836),scale(0.992505,1.000000),rotate(114.351003),translate(-0.699993,0.036836)" id="radialGradient-12">
            <stop stop-color="#343536" offset="13.5%"></stop>
            <stop stop-color="#1D1E1F" offset="66.1%"></stop>
            <stop stop-color="#111111" offset="95.7%"></stop>
        </radialGradient>
        <radialGradient cx="67.1109076%" cy="3.85960226%" fx="67.1109076%" fy="3.85960226%" r="69.5969276%" gradientTransform="translate(0.671109,0.038596),scale(0.992505,1.000000),rotate(111.928002),translate(-0.671109,-0.038596)" id="radialGradient-13">
            <stop stop-color="#FF9B63" offset="0%"></stop>
            <stop stop-color="#000000" stop-opacity="0" offset="93.2%"></stop>
        </radialGradient>
        <radialGradient cx="50.00482%" cy="28.3296506%" fx="50.00482%" fy="28.3296506%" r="76.8219902%" gradientTransform="translate(0.500048,0.283297),scale(0.992505,1.000000),rotate(90.133000),translate(-0.500048,-0.283297)" id="radialGradient-14">
            <stop stop-color="#C4C4C4" stop-opacity="0" offset="0%"></stop>
            <stop stop-color="#171717" stop-opacity="0" offset="39.1%"></stop>
            <stop stop-color="#1A1A1A" offset="73.4%"></stop>
            <stop stop-color="#171717" offset="84.4%"></stop>
            <stop stop-color="#171313" offset="96.9%"></stop>
        </radialGradient>
        <radialGradient cx="2.82413068%" cy="-7.96207653%" fx="2.82413068%" fy="-7.96207653%" r="167.247255%" gradientTransform="translate(0.028241,-0.079621),scale(0.659778,1.000000),rotate(48.032399),translate(-0.028241,0.079621)" id="radialGradient-15">
            <stop stop-color="#131313" offset="39.6%"></stop>
            <stop stop-color="#000000" stop-opacity="0.37" offset="65.4%"></stop>
            <stop stop-color="#000000" stop-opacity="0" offset="100%"></stop>
        </radialGradient>
        <radialGradient cx="1.93496009%" cy="18.8747245%" fx="1.93496009%" fy="18.8747245%" r="107.872486%" gradientTransform="translate(0.019350,0.188747),scale(1.000000,0.999983),rotate(36.683000),translate(-0.019350,-0.188747)" id="radialGradient-16">
            <stop stop-color="#FFB49C" offset="13.5%"></stop>
            <stop stop-color="#1E1A03" offset="95.7%"></stop>
        </radialGradient>
        <radialGradient cx="8.66118032%" cy="23.3178146%" fx="8.66118032%" fy="23.3178146%" r="69.5102828%" gradientTransform="translate(0.086612,0.233178),scale(1.000000,0.999983),rotate(34.272003),translate(-0.086612,-0.233178)" id="radialGradient-17">
            <stop stop-color="#FFCC69" offset="0%"></stop>
            <stop stop-color="#871010" stop-opacity="0" offset="93.2%"></stop>
        </radialGradient>
        <linearGradient x1="56.9125239%" y1="37.0690069%" x2="44.4775478%" y2="43.2848821%" id="linearGradient-18">
            <stop stop-color="#000000" offset="0%"></stop>
            <stop stop-color="#000000" stop-opacity="0" offset="100%"></stop>
        </linearGradient>
        <linearGradient x1="52.654208%" y1="37.06896%" x2="47.7792758%" y2="39.50576%" id="linearGradient-19">
            <stop stop-color="#000000" offset="0%"></stop>
            <stop stop-color="#000000" stop-opacity="0" offset="100%"></stop>
        </linearGradient>
        <linearGradient x1="50.4853309%" y1="37.0689655%" x2="49.5842898%" y2="37.519335%" id="linearGradient-20">
            <stop stop-color="#000000" offset="0%"></stop>
            <stop stop-color="#000000" stop-opacity="0" offset="100%"></stop>
        </linearGradient>
    </defs>
    <g id="mortalmesh-ground" stroke="none" stroke-width="1" fill="none" fill-rule="evenodd">
        <g id="mortalmesh" transform="translate(-416.000000, -45.000000)" fill-rule="nonzero">
            <polygon id="Path" fill="#000000" points="416 45 1228 45 1228 639 416 639"></polygon>
            <g id="Group" opacity="0.6">
                <polygon id="Path" fill="url(#linearGradient-1)" points="392.762 445.242 765.95 224.597 450.875 42.843 377.343 0 318.145 34.8 0 218.48 392.762 445.241"></polygon>
                <polygon id="Path" fill-opacity="0.5" fill="url(#radialGradient-2)" points="392.762 445.242 765.95 224.597 450.875 42.843 377.343 0 318.145 34.8 0 218.48 392.762 445.241"></polygon>
                <polygon id="Path" fill="url(#linearGradient-3)" points="392.762 445.242 765.95 224.597 450.875 42.843 377.343 0 318.145 34.8 0 218.48 392.762 445.241"></polygon>
            </g>
            <ellipse id="Oval" fill-opacity="0.5" fill="url(#radialGradient-4)" transform="translate(691.994815, 272.826126) scale(-1, 1) rotate(-148.789000) translate(-691.994815, -272.826126) " cx="691.994815" cy="272.826126" rx="53.294" ry="16.13"></ellipse>
            <g id="Group" opacity="0.7" transform="translate(713.236000, 226.872000)">
                <path d="M0,17.406 C0,27.019 7.863,34.812 17.561,34.812 C27.26,34.812 35.122,27.019 35.122,17.406 C35.122,7.793 27.26,0 17.561,0 C7.863,0 0,7.793 0,17.406 Z" id="Path" fill="url(#radialGradient-5)"></path>
                <path d="M0,17.406 C0,27.019 7.863,34.812 17.561,34.812 C27.26,34.812 35.122,27.019 35.122,17.406 C35.122,7.793 27.26,0 17.561,0 C7.863,0 0,7.793 0,17.406 Z" id="Path" fill-opacity="0.5" fill="url(#radialGradient-6)"></path>
                <path d="M0,17.406 C0,27.019 7.863,34.812 17.561,34.812 C27.26,34.812 35.122,27.019 35.122,17.406 C35.122,7.793 27.26,0 17.561,0 C7.863,0 0,7.793 0,17.406 Z" id="Path" fill="url(#radialGradient-7)"></path>
            </g>
            <polygon id="Path" fill="url(#linearGradient-8)" points="926.049 715.367 1402.979 430.581 1000.717 198.335 906.238 143.287 830.176 188 421.4 424.007"></polygon>
            <polygon id="Path" fill-opacity="0.6" fill="url(#radialGradient-9)" points="926.049 715.367 1402.979 430.581 1000.717 198.335 906.238 143.287 830.176 188 421.4 424.007"></polygon>
            <polygon id="Path" fill="url(#linearGradient-10)" points="926.049 715.367 1402.979 430.581 1000.717 198.335 906.238 143.287 830.176 188 421.4 424.007"></polygon>
            <path d="M851.364,386.176 C830.835,373.738 784.849,412.087 748.651,471.831 C712.454,531.576 699.753,590.091 720.282,602.529 C740.812,614.968 786.798,576.619 822.995,516.874 C859.193,457.13 871.894,398.615 851.364,386.176 L851.364,386.176 Z" id="Path" fill-opacity="0.5" fill="url(#radialGradient-11)"></path>
            <path d="M796.536,376.865 C796.536,399.61 815.114,418.048 838.03,418.048 C860.946,418.048 879.524,399.61 879.524,376.865 C879.524,354.12 860.946,335.682 838.03,335.682 C815.114,335.682 796.536,354.12 796.536,376.865 L796.536,376.865 Z" id="Path" fill="url(#radialGradient-12)"></path>
            <path d="M796.536,376.865 C796.536,399.61 815.114,418.048 838.03,418.048 C860.946,418.048 879.524,399.61 879.524,376.865 C879.524,354.12 860.946,335.682 838.03,335.682 C815.114,335.682 796.536,354.12 796.536,376.865 L796.536,376.865 Z" id="Path" fill-opacity="0.5" fill="url(#radialGradient-13)"></path>
            <path d="M796.536,376.865 C796.536,399.61 815.114,418.048 838.03,418.048 C860.946,418.048 879.524,399.61 879.524,376.865 C879.524,354.12 860.946,335.682 838.03,335.682 C815.114,335.682 796.536,354.12 796.536,376.865 L796.536,376.865 Z" id="Path" fill="url(#radialGradient-14)"></path>
            <path d="M1016.207,263.237 C1010.489,272.664 1032.844,296.678 1066.139,316.873 C1099.433,337.068 1131.059,345.797 1136.778,336.37 C1142.496,326.943 1120.141,302.929 1086.846,282.734 C1053.551,262.539 1021.925,253.81 1016.207,263.237 L1016.207,263.237 Z" id="Path" fill-opacity="0.5" fill="url(#radialGradient-15)"></path>
            <path d="M1022.825,272.657 C1033.048,274.922 1043.172,268.47 1045.437,258.247 C1047.703,248.024 1041.251,237.9 1031.028,235.635 C1020.805,233.37 1010.681,239.821 1008.416,250.044 C1006.151,260.268 1012.602,270.391 1022.825,272.657 Z" id="Path" fill="url(#radialGradient-16)"></path>
            <path d="M1022.825,272.657 C1033.048,274.922 1043.172,268.47 1045.437,258.247 C1047.703,248.024 1041.251,237.9 1031.028,235.635 C1020.805,233.37 1010.681,239.821 1008.416,250.044 C1006.151,260.268 1012.602,270.391 1022.825,272.657 Z" id="Path" fill-opacity="0.5" fill="url(#radialGradient-17)"></path>
            <polygon id="Path" fill="url(#linearGradient-18)" transform="translate(522.110500, 345.273000) rotate(-180.000000) translate(-522.110500, -345.273000) " points="406.001 33 638.22 33 638.22 657.546 406.001 657.546"></polygon>
            <polygon id="Path" fill="url(#linearGradient-19)" points="1084 33 1228 33 1228 658 1084 658"></polygon>
            <polygon id="Path" fill="url(#linearGradient-20)" transform="translate(822.000000, 598.000000) rotate(90.000000) translate(-822.000000, -598.000000) " points="782 192 862 192 862 1004 782 1004"></polygon>
        </g>
    </g>
</svg>