<?xml version="1.0" encoding="UTF-8"?>
<svg width="1048px" height="670px" viewBox="0 0 1048 670" version="1.1" xmlns="http://www.w3.org/2000/svg" xmlns:xlink="http://www.w3.org/1999/xlink">
    <title>stealthward-ground</title>
    <defs>
        <linearGradient x1="57.2926871%" y1="39.15826%" x2="-4.11762954%" y2="59.9777558%" id="linearGradient-1">
            <stop stop-color="#313131" stop-opacity="0" offset="0%"></stop>
            <stop stop-color="#1C1C1C" stop-opacity="0.76" offset="43.2%"></stop>
            <stop stop-color="#1F1F1F" stop-opacity="0.86" offset="100%"></stop>
        </linearGradient>
        <linearGradient x1="43.7908966%" y1="45.7404787%" x2="16.9142871%" y2="63.361393%" id="linearGradient-2">
            <stop stop-color="#F4538E" stop-opacity="0" offset="0%"></stop>
            <stop stop-color="#F4538E" stop-opacity="0.42" offset="25.5%"></stop>
            <stop stop-color="#FB78A7" stop-opacity="0.805" offset="68.4%"></stop>
            <stop stop-color="#FF7485" offset="100%"></stop>
        </linearGradient>
        <linearGradient x1="9.88982688%" y1="62.3981644%" x2="71.3099619%" y2="39.2196786%" id="linearGradient-3">
            <stop stop-color="#292929" offset="0%"></stop>
            <stop stop-color="#262626" stop-opacity="0.88" offset="41.8%"></stop>
            <stop stop-color="#1F1F1F" stop-opacity="0" offset="100%"></stop>
        </linearGradient>
        <linearGradient x1="58.8868073%" y1="44.7876564%" x2="-3.98793442%" y2="59.4852912%" id="linearGradient-4">
            <stop stop-color="#147DC2" stop-opacity="0" offset="0%"></stop>
            <stop stop-color="#14B3C2" stop-opacity="0.7" offset="50.5%"></stop>
            <stop stop-color="#01CE9D" offset="100%"></stop>
        </linearGradient>
        <linearGradient x1="-0.0165052817%" y1="49.9972491%" x2="100.002751%" y2="49.9972491%" id="linearGradient-5">
            <stop stop-color="#59F5FF" stop-opacity="0.62" offset="0%"></stop>
            <stop stop-color="#BBFBFF" stop-opacity="0.62" offset="0%"></stop>
            <stop stop-color="#B8FFE1" stop-opacity="0.02" offset="100%"></stop>
        </linearGradient>
        <linearGradient x1="47.6090521%" y1="115.328765%" x2="56.0024228%" y2="56.9339996%" id="linearGradient-6">
            <stop stop-color="#56C0A7" offset="0%"></stop>
            <stop stop-color="#008196" stop-opacity="0" offset="100%"></stop>
        </linearGradient>
        <linearGradient x1="50.4067706%" y1="109.456398%" x2="50.2670282%" y2="55.6859784%" id="linearGradient-7">
            <stop stop-color="#9EFED5" offset="0%"></stop>
            <stop stop-color="#008196" stop-opacity="0" offset="100%"></stop>
        </linearGradient>
        <linearGradient x1="47.6090521%" y1="115.327528%" x2="56.0024228%" y2="56.9339996%" id="linearGradient-8">
            <stop stop-color="#56C0A7" offset="0%"></stop>
            <stop stop-color="#008196" stop-opacity="0" offset="100%"></stop>
        </linearGradient>
        <linearGradient x1="49.8105818%" y1="-24.6165532%" x2="44.4632806%" y2="42.2077054%" id="linearGradient-9">
            <stop stop-color="#2A7D4C" offset="0%"></stop>
            <stop stop-color="#04183E" stop-opacity="0" offset="100%"></stop>
        </linearGradient>
        <linearGradient x1="50.8545069%" y1="-17.4868227%" x2="50.0757181%" y2="54.48088%" id="linearGradient-10">
            <stop stop-color="#65D592" offset="0%"></stop>
            <stop stop-color="#31526A" stop-opacity="0" offset="100%"></stop>
        </linearGradient>
        <linearGradient x1="33.333404%" y1="-2.62828536%" x2="61.5948354%" y2="103.050984%" id="linearGradient-11">
            <stop stop-color="#A5FFDE" stop-opacity="0.99" offset="0%"></stop>
            <stop stop-color="#086E67" stop-opacity="0.998" offset="78.1%"></stop>
            <stop stop-color="#005459" offset="100%"></stop>
        </linearGradient>
        <linearGradient x1="49.9993183%" y1="27.4713078%" x2="62.8988325%" y2="67.9757238%" id="linearGradient-12">
            <stop stop-color="#3DEBC1" stop-opacity="0.31" offset="0%"></stop>
            <stop stop-color="#016862" stop-opacity="0.81" offset="100%"></stop>
        </linearGradient>
        <linearGradient x1="49.810589%" y1="-24.6173245%" x2="44.4634953%" y2="42.2072019%" id="linearGradient-13">
            <stop stop-color="#2A7D4C" offset="0%"></stop>
            <stop stop-color="#04183E" stop-opacity="0" offset="100%"></stop>
        </linearGradient>
        <linearGradient x1="50.8545812%" y1="-17.4874742%" x2="50.0755782%" y2="54.4798114%" id="linearGradient-14">
            <stop stop-color="#65D592" offset="0%"></stop>
            <stop stop-color="#31526A" stop-opacity="0" offset="100%"></stop>
        </linearGradient>
        <linearGradient x1="99.8034356%" y1="16.2464747%" x2="-3.34159474%" y2="95.6584907%" id="linearGradient-15">
            <stop stop-color="#DFFFF1" offset="0%"></stop>
            <stop stop-color="#4DECBC" stop-opacity="0.83" offset="50%"></stop>
            <stop stop-color="#0694AB" stop-opacity="0.8" offset="98.7%"></stop>
        </linearGradient>
        <linearGradient x1="33.3335786%" y1="-2.63232864%" x2="61.5939607%" y2="103.053957%" id="linearGradient-16">
            <stop stop-color="#A5FFDE" stop-opacity="0.99" offset="0%"></stop>
            <stop stop-color="#086E67" stop-opacity="0.998" offset="78.1%"></stop>
            <stop stop-color="#005459" offset="100%"></stop>
        </linearGradient>
        <linearGradient x1="49.9983552%" y1="27.4685203%" x2="62.896616%" y2="67.9733349%" id="linearGradient-17">
            <stop stop-color="#3DEBC1" stop-opacity="0.31" offset="0%"></stop>
            <stop stop-color="#016862" stop-opacity="0.81" offset="100%"></stop>
        </linearGradient>
        <linearGradient x1="-5.19780953%" y1="54.7327742%" x2="95.0703041%" y2="64.718328%" id="linearGradient-18">
            <stop stop-color="#2D2D2D" offset="0%"></stop>
            <stop stop-color="#181818" stop-opacity="0.74" offset="41.8%"></stop>
            <stop stop-color="#1F1F1F" stop-opacity="0.13" offset="100%"></stop>
        </linearGradient>
        <linearGradient x1="49.8105787%" y1="-24.616131%" x2="44.4635529%" y2="42.2073984%" id="linearGradient-19">
            <stop stop-color="#532A7D" offset="0%"></stop>
            <stop stop-color="#33197C" stop-opacity="0" offset="100%"></stop>
        </linearGradient>
        <linearGradient x1="50.8545399%" y1="-17.486865%" x2="50.0756591%" y2="54.4805139%" id="linearGradient-20">
            <stop stop-color="#9C65D5" offset="0%"></stop>
            <stop stop-color="#522AC2" stop-opacity="0" offset="100%"></stop>
        </linearGradient>
        <linearGradient x1="104.185552%" y1="21.8201133%" x2="-6.57223796%" y2="86.7351275%" id="linearGradient-21">
            <stop stop-color="#DAEBFF" stop-opacity="0.86" offset="0%"></stop>
            <stop stop-color="#A35BFF" stop-opacity="0.88" offset="50%"></stop>
            <stop stop-color="#3A07CD" stop-opacity="0.8" offset="98.7%"></stop>
        </linearGradient>
        <linearGradient x1="111.869688%" y1="-2.92492918%" x2="-13.7393768%" y2="97.1175637%" id="linearGradient-22">
            <stop stop-color="#D1DBFF" offset="0%"></stop>
            <stop stop-color="#A975FF" stop-opacity="0.45" offset="47.9%"></stop>
            <stop stop-color="#552ACE" stop-opacity="0.65" offset="98.7%"></stop>
        </linearGradient>
        <linearGradient x1="33.3313671%" y1="-2.63456091%" x2="64.9621051%" y2="100%" id="linearGradient-23">
            <stop stop-color="#A5B3FF" stop-opacity="0.84" offset="0%"></stop>
            <stop stop-color="#7622CA" stop-opacity="0.998" offset="59.6%"></stop>
            <stop stop-color="#2E2C9F" offset="100%"></stop>
        </linearGradient>
        <linearGradient x1="67.8036351%" y1="-2.68369854e-13%" x2="33.3356667%" y2="102.020679%" id="linearGradient-24">
            <stop stop-color="#863BE7" stop-opacity="0.76" offset="0%"></stop>
            <stop stop-color="#0F1B5C" stop-opacity="0.81" offset="100%"></stop>
        </linearGradient>
        <linearGradient x1="-0.789668461%" y1="52.1036298%" x2="42.64793%" y2="43.775998%" id="linearGradient-25">
            <stop stop-color="#313131" offset="0%"></stop>
            <stop stop-color="#000000" stop-opacity="0.74" offset="100%"></stop>
        </linearGradient>
        <linearGradient x1="29.9514044%" y1="55.4434031%" x2="85.4384911%" y2="35.459362%" id="linearGradient-26">
            <stop stop-color="#000000" offset="0%"></stop>
            <stop stop-color="#000000" stop-opacity="0.37" offset="34.9%"></stop>
            <stop stop-color="#000000" stop-opacity="0.23" offset="54.2%"></stop>
            <stop stop-color="#000000" stop-opacity="0.12" offset="76.6%"></stop>
            <stop stop-color="#000000" stop-opacity="0" offset="100%"></stop>
        </linearGradient>
        <radialGradient cx="49.9369086%" cy="50.0629118%" fx="49.9369086%" fy="50.0629118%" r="80.4395549%" gradientTransform="translate(0.499369,0.500629),scale(0.577349,1.000000),rotate(142.550003),translate(-0.499369,-0.500629)" id="radialGradient-27">
            <stop stop-color="#F73F3F" stop-opacity="0.8" offset="0%"></stop>
            <stop stop-color="#FF6635" stop-opacity="0.33" offset="29.5%"></stop>
            <stop stop-color="#FFC06D" stop-opacity="0.12" offset="52.1%"></stop>
            <stop stop-color="#FFE974" stop-opacity="0.02" offset="74.5%"></stop>
            <stop stop-color="#FFDF38" stop-opacity="0" offset="95.3%"></stop>
        </radialGradient>
        <linearGradient x1="0%" y1="100%" x2="108.893056%" y2="10.8621626%" id="linearGradient-28">
            <stop stop-color="#FFF4D4" offset="0%"></stop>
            <stop stop-color="#EC585D" offset="100%"></stop>
        </linearGradient>
        <radialGradient cx="54.0239329%" cy="46.8852314%" fx="54.0239329%" fy="46.8852314%" r="83.4218173%" gradientTransform="translate(0.540239,0.468852),scale(0.458547,1.000000),rotate(5.461114),translate(-0.540239,-0.468852)" id="radialGradient-29">
            <stop stop-color="#EADDFF" offset="37.5%"></stop>
            <stop stop-color="#E3D2FF" stop-opacity="0" offset="100%"></stop>
        </radialGradient>
        <linearGradient x1="0%" y1="66.6671381%" x2="42.9910293%" y2="51.7415285%" id="linearGradient-30">
            <stop stop-color="#FFFFFF" offset="0%"></stop>
            <stop stop-color="#FFFFFF" stop-opacity="0" offset="100%"></stop>
        </linearGradient>
        <linearGradient x1="0%" y1="33.3341006%" x2="67.681377%" y2="55.6279564%" id="linearGradient-31">
            <stop stop-color="#FFFFFF" offset="0%"></stop>
            <stop stop-color="#FFFFFF" stop-opacity="0" offset="100%"></stop>
        </linearGradient>
        <linearGradient x1="1.59954591%" y1="44.8079919%" x2="63.7984958%" y2="50.5218825%" id="linearGradient-32">
            <stop stop-color="#FFFFFF" offset="0%"></stop>
            <stop stop-color="#FFFFFF" stop-opacity="0" offset="100%"></stop>
        </linearGradient>
        <linearGradient x1="49.8104903%" y1="-24.6166481%" x2="46.203118%" y2="24.7174892%" id="linearGradient-33">
            <stop stop-color="#532A7D" offset="0%"></stop>
            <stop stop-color="#33197C" stop-opacity="0" offset="100%"></stop>
        </linearGradient>
        <linearGradient x1="50.8545169%" y1="-17.4869783%" x2="50.6871549%" y2="39.4355601%" id="linearGradient-34">
            <stop stop-color="#9C65D5" offset="0%"></stop>
            <stop stop-color="#522AC2" stop-opacity="0" offset="100%"></stop>
        </linearGradient>
        <linearGradient x1="111.867185%" y1="-2.92582251%" x2="-13.7398325%" y2="97.1166687%" id="linearGradient-35">
            <stop stop-color="#D1DBFF" offset="0%"></stop>
            <stop stop-color="#A975FF" stop-opacity="0.45" offset="47.9%"></stop>
            <stop stop-color="#552ACE" stop-opacity="0.65" offset="98.7%"></stop>
        </linearGradient>
        <linearGradient x1="33.332431%" y1="-2.63046074%" x2="64.961909%" y2="100%" id="linearGradient-36">
            <stop stop-color="#A5B3FF" stop-opacity="0.84" offset="0%"></stop>
            <stop stop-color="#7622CA" stop-opacity="0.998" offset="59.6%"></stop>
            <stop stop-color="#2E2C9F" offset="100%"></stop>
        </linearGradient>
        <linearGradient x1="50.8270101%" y1="37.0689275%" x2="49.2942286%" y2="37.8350889%" id="linearGradient-37">
            <stop stop-color="#000000" offset="0%"></stop>
            <stop stop-color="#000000" stop-opacity="0" offset="100%"></stop>
        </linearGradient>
    </defs>
    <g id="stealthward-ground" stroke="none" stroke-width="1" fill="none" fill-rule="evenodd">
        <g id="stealward" transform="translate(0.167397, -100.535366)">
            <polygon id="Path" fill="#000000" fill-rule="nonzero" points="0 100.388 1048 100.388 1048 770.388 0 770.388"></polygon>
            <polygon id="Path" fill="url(#linearGradient-1)" fill-rule="nonzero" points="878.711 192.04 432.836 449.443 591.264 540.904 1037.14 283.5 878.711 192.04"></polygon>
            <polygon id="Path" stroke="url(#linearGradient-2)" stroke-width="2.768" points="1034.37 283.5 591.264 539.306 435.604 449.443 878.711 193.638"></polygon>
            <polygon id="Path" fill="url(#linearGradient-3)" fill-rule="nonzero" points="1074.53 1.598 615.568 266.557 773.997 358.018 1232.96 93.058"></polygon>
            <polygon id="Path" stroke="url(#linearGradient-4)" stroke-width="2.768" points="1075.22 0.399 1074.53 0 1073.84 0.4 614.876 265.358 612.801 266.556 614.876 267.755 773.305 359.216 773.997 359.615 774.689 359.216 1233.65 94.257 1235.73 93.059 1233.65 91.86 1075.22 0.4"></polygon>
            <polygon id="Path" fill="url(#linearGradient-5)" fill-rule="nonzero" opacity="0.2" transform="translate(679.547472, 266.520084) rotate(-45.000000) translate(-679.547472, -266.520084) " points="661.371493 248.344105 697.723451 248.344105 697.723451 284.696063 661.371493 284.696063"></polygon>
            <polygon id="Path" stroke="#D3FDEB" stroke-width="1.15299867" opacity="0.3" transform="translate(726.770406, 293.781491) rotate(-45.000000) translate(-726.770406, -293.781491) " points="709.171426 276.182512 744.369386 276.182512 744.369386 311.380471 709.171426 311.380471"></polygon>
            <polygon id="Path" stroke="#D3FDEB" stroke-width="1.15299867" opacity="0.3" transform="translate(769.440581, 319.829299) rotate(-45.000000) translate(-769.440581, -319.829299) " points="751.841601 302.230319 787.039561 302.230319 787.039561 337.428279 751.841601 337.428279"></polygon>
            <polygon id="Path" stroke="#D3FDEB" stroke-width="1.153" opacity="0.3" points="696.288 239.257 726.771 221.659 757.254 239.257 726.771 256.855 696.288 239.257"></polygon>
            <polygon id="Path" fill="url(#linearGradient-5)" fill-rule="nonzero" opacity="0.2" transform="translate(773.995844, 211.994826) rotate(-45.000000) translate(-773.995844, -211.994826) " points="755.819865 193.818847 792.171823 193.818847 792.171823 230.170805 755.819865 230.170805"></polygon>
            <polygon id="Path" fill-opacity="0.65" fill="url(#linearGradient-6)" fill-rule="nonzero" points="710.93 267.113 679.589 285.207 679.589 222.454 710.93 204.359"></polygon>
            <polygon id="Path" fill-opacity="0.65" fill="url(#linearGradient-7)" fill-rule="nonzero" points="648.248 267.113 679.589 285.207 679.589 198.685 648.248 180.59"></polygon>
            <polygon id="Path" fill-opacity="0.65" fill="url(#linearGradient-8)" fill-rule="nonzero" points="805.105 211.963 773.764 230.058 773.764 167.304 805.105 149.21 805.105 211.963"></polygon>
            <polygon id="Path" fill-opacity="0.65" fill="url(#linearGradient-7)" fill-rule="nonzero" points="742.424 211.963 773.765 230.058 773.765 143.536 742.424 125.441 742.424 211.963"></polygon>
            <polygon id="Path" fill-opacity="0.7" fill="url(#linearGradient-9)" fill-rule="nonzero" points="679.738 206.829 704.077 192.777 704.077 343.285 679.738 357.337"></polygon>
            <polygon id="Path" fill-opacity="0.65" fill="url(#linearGradient-10)" fill-rule="nonzero" points="679.738 206.829 655.4 192.777 655.4 342.454 679.738 356.506 679.738 206.829"></polygon>
            <polygon id="Path" fill-opacity="0.38" fill="#00CCCC" fill-rule="nonzero" points="655.178 164.915 679.626 150.799 679.626 179.03 655.178 193.146"></polygon>
            <polygon id="Path" fill-opacity="0.38" fill="#009A9A" fill-rule="nonzero" points="704.076 164.915 679.628 150.798 679.628 179.029 704.076 193.145 704.076 164.915"></polygon>
            <polygon id="Path" fill-opacity="0.9" fill="url(#linearGradient-11)" fill-rule="nonzero" points="679.635 179.03 655.186 164.914 655.186 193.145 679.635 207.261"></polygon>
            <polygon id="Path" fill-opacity="0.9" fill="url(#linearGradient-12)" fill-rule="nonzero" points="679.627 179.023 704.076 164.908 704.076 193.138 679.627 207.254 679.627 179.024"></polygon>
            <g id="Group" opacity="0.7" transform="translate(585.088000, 213.146611)" fill-rule="nonzero">
                <polygon id="Path" fill-opacity="0.7" fill="url(#linearGradient-13)" points="10.18 25.6303894 20.267 19.8063894 20.267 82.1863894 10.18 88.0103894"></polygon>
                <polygon id="Path" fill-opacity="0.65" fill="url(#linearGradient-14)" points="10.18 25.6303894 0.092 19.8063894 0.092 81.8423894 10.18 87.6663894"></polygon>
                <polygon id="Path" fill-opacity="0.38" fill="#00CCCC" points="0 8.25838938 10.133 2.40838938 10.133 14.1083894 0 19.9593894 0 8.25838938"></polygon>
                <polygon id="Path" fill-opacity="0.38" fill="#009A9A" points="20.266 8.25838938 10.132 2.40838938 10.132 14.1083894 20.266 19.9593894 20.266 8.25838938"></polygon>
                <polygon id="Path" fill-opacity="0.9" fill="url(#linearGradient-15)" transform="translate(10.101000, 8.273889) rotate(-135.000000) translate(-10.101000, -8.273889) " points="4.25047671 2.42336609 15.9515233 2.42336609 15.9515233 14.1244127 4.25047671 14.1244127"></polygon>
                <polygon id="Path" fill-opacity="0.9" fill="url(#linearGradient-16)" points="10.137 14.1083894 0.004 8.25838938 0.004 19.9593894 10.137 25.8093894 10.137 14.1083894"></polygon>
                <polygon id="Path" fill-opacity="0.9" fill="url(#linearGradient-17)" points="10.133 14.1063894 20.266 8.25538938 20.266 19.9563894 10.133 25.8063894"></polygon>
            </g>
            <polygon id="Path" fill="url(#linearGradient-18)" fill-rule="nonzero" points="960.651 359.122 1320.86 567.088 724.01 911.678 363.803 703.712"></polygon>
            <polygon id="Path" fill-opacity="0.7" fill="url(#linearGradient-19)" fill-rule="nonzero" points="525.258 623.994 537.452 616.953 537.452 692.362 525.258 699.403"></polygon>
            <polygon id="Path" fill-opacity="0.65" fill="url(#linearGradient-20)" fill-rule="nonzero" points="525.258 623.994 513.063 616.953 513.063 691.946 525.258 698.986"></polygon>
            <polygon id="Path" fill-opacity="0.38" fill="#5A00CC" fill-rule="nonzero" points="513.029 602.817 525.258 595.757 525.258 609.877 513.029 616.937"></polygon>
            <polygon id="Path" fill-opacity="0.38" fill="#56009A" fill-rule="nonzero" points="537.486 602.817 525.258 595.757 525.258 609.877 537.486 616.937"></polygon>
            <polygon id="Path" fill="url(#linearGradient-21)" fill-rule="nonzero" transform="translate(525.221000, 602.838000) rotate(-135.000000) translate(-525.221000, -602.838000) " points="518.160972 595.777972 532.281028 595.777972 532.281028 609.898028 518.160972 609.898028"></polygon>
            <polygon id="Path" fill-opacity="0.9" fill="url(#linearGradient-22)" fill-rule="nonzero" transform="translate(525.221000, 616.920000) rotate(-135.000000) translate(-525.221000, -616.920000) " points="518.160972 609.859972 532.281028 609.859972 532.281028 623.980028 518.160972 623.980028"></polygon>
            <polygon id="Path" fill-opacity="0.9" fill="url(#linearGradient-23)" fill-rule="nonzero" points="525.264 609.878 513.035 602.818 513.035 616.938 525.264 623.998 525.264 609.878"></polygon>
            <polygon id="Path" fill-opacity="0.9" fill="url(#linearGradient-24)" fill-rule="nonzero" points="525.26 609.875 537.488 602.814 537.488 616.935 525.26 623.995 525.26 609.875"></polygon>
            <polygon id="Path" fill="url(#linearGradient-25)" fill-rule="nonzero" points="994.979 259.288 1387.35 485.823 1008.26 704.692 615.887 478.157"></polygon>
            <polygon id="Path" fill="url(#linearGradient-26)" fill-rule="nonzero" points="866.504 419.424 809.659 480.649 774.673 460.476 738.303 480.649 774.141 460.169 774.673 460.476 841.528 423.394"></polygon>
            <path d="M691.029,432.743 C645.126,459.245 645.06,502.176 690.882,528.631 C736.704,555.087 811.062,555.048 856.965,528.546 C902.869,502.044 902.934,459.113 857.112,432.658 C811.29,406.203 736.932,406.241 691.029,432.743 L691.029,432.743 Z" id="Path" fill-opacity="0.5" fill="url(#radialGradient-27)" fill-rule="nonzero"></path>
            <polygon id="Path" fill="url(#linearGradient-28)" fill-rule="nonzero" opacity="0.4" transform="translate(773.758000, 480.747000) rotate(-135.000000) translate(-773.758000, -480.747000) " points="753.494919 460.483919 794.021081 460.483919 794.021081 501.010081 753.494919 501.010081"></polygon>
            <path d="M598.751,644.35 L516.603,596.167 L516.047,597.114 L597.651,644.977 L571.205,660.052 L571.749,661.005 L673.575,602.959 L673.031,602.006 L629.289,626.941 L581.143,598.559 L580.586,599.504 L628.19,627.568 L598.751,644.35 L598.751,644.35 Z M722.978,680.404 L695.961,695.461 L742.165,724.988 L741.55,725.898 L694.872,696.068 L630.793,731.779 L630.259,730.821 L811.256,629.95 L811.79,630.909 L724.091,679.784 L801.417,725.111 L800.862,726.058 L722.978,680.404 Z M689.195,726.731 L666.727,712.373 L667.342,711.463 L689.81,725.821 L689.195,726.731 Z" id="Shape" fill="url(#radialGradient-29)" opacity="0.6"></path>
            <g id="Group" opacity="0.5" transform="translate(905.165665, 282.915000)">
                <line x1="6.47533497" y1="77.683" x2="141.024335" y2="0" id="Path" stroke="url(#linearGradient-30)"></line>
                <circle id="Oval" stroke="#FFFFFF" stroke-width="0.999998849" transform="translate(3.709478, 79.006933) rotate(-45.000000) translate(-3.709478, -79.006933) " cx="3.7094779" cy="79.0069326" r="2.62299698"></circle>
            </g>
            <g id="Group" opacity="0.5" transform="translate(902.811750, 523.914000)">
                <line x1="5.86425" y1="2.923" x2="140.41825" y2="80.606" id="Path" stroke="url(#linearGradient-31)"></line>
                <path d="M5.48425,3.166 C6.73825,2.441 6.73825,1.267 5.48425,0.543 C4.22925,-0.181 2.19525,-0.181 0.94125,0.543 C-0.31375,1.267 -0.31375,2.441 0.94125,3.166 C2.19525,3.89 4.22925,3.89 5.48425,3.166 Z" id="Path" stroke="#FFFFFF"></path>
            </g>
            <g id="Group" opacity="0.6" transform="translate(863.268317, 415.293000)">
                <polyline id="Path" stroke="url(#linearGradient-32)" points="181.861683 81.602 42.4196827 0 5.6866827 22.417"></polyline>
                <circle id="Oval" stroke="#FFFFFF" stroke-width="0.999998849" transform="translate(3.709478, 23.660124) rotate(-45.000000) translate(-3.709478, -23.660124) " cx="3.7094779" cy="23.660124" r="2.62299698"></circle>
            </g>
            <polygon id="Path" fill-opacity="0.7" fill="url(#linearGradient-33)" fill-rule="nonzero" points="666.758 663.136 695.212 646.708 695.212 822.662 666.758 839.09"></polygon>
            <polygon id="Path" fill-opacity="0.65" fill="url(#linearGradient-34)" fill-rule="nonzero" points="666.758 663.136 638.304 646.708 638.304 821.691 666.758 838.119"></polygon>
            <polygon id="Path" fill-opacity="0.38" fill="#5A00CC" fill-rule="nonzero" points="638.221 613.728 666.754 597.254 666.754 630.202 638.221 646.676"></polygon>
            <polygon id="Path" fill-opacity="0.38" fill="#56009A" fill-rule="nonzero" points="695.289 613.728 666.756 597.254 666.756 630.202 695.289 646.676"></polygon>
            <polygon id="Path" fill-opacity="0.9" fill="url(#linearGradient-35)" fill-rule="nonzero" transform="translate(666.666000, 646.632000) rotate(-135.000000) translate(-666.666000, -646.632000) " points="650.191934 630.157934 683.140066 630.157934 683.140066 663.106066 650.191934 663.106066"></polygon>
            <polygon id="Path" fill-opacity="0.9" fill="url(#linearGradient-36)" fill-rule="nonzero" points="666.766 630.202 638.232 613.729 638.232 646.676 666.766 663.15 666.766 630.202"></polygon>
            <polygon id="Path" fill="url(#linearGradient-37)" fill-rule="nonzero" points="957.85 84.673 1048.26 84.673 1048.26 787.658 957.85 787.658"></polygon>
        </g>
    </g>
</svg>