<svg width="28" height="32" viewBox="0 0 28 32" xmlns="http://www.w3.org/2000/svg"><title>icon</title><defs><linearGradient x1="72.458%" y1="21.618%" x2="11.719%" y2="100%" id="a"><stop stop-color="#32C5FF" offset="0%"/><stop stop-color="#20CEE0" offset="51.258%"/><stop stop-color="#2700F7" offset="100%"/></linearGradient></defs><g fill="none"><path d="M18.308 9.422V5.333c1.83 0 3.23-1.155 3.23-2.666S20.138 0 18.308 0H9.692c-1.723 0-3.23 1.156-3.23 2.667 0 1.51 1.507 2.666 3.23 2.666v4.09C4.092 10.932 0 15.288 0 20.443 0 26.844 6.246 32 14 32s14-5.156 14-11.556c0-5.155-4.092-9.51-9.692-11.022zM8.615 2.667c0-.445.539-.89 1.077-.89h8.616c.538 0 1.077.445 1.077.89 0 .444-.539.889-1.077.889H9.692c-.538 0-1.077-.445-1.077-.89zm1.723 8.444l1.508-.355V5.333h4.308v5.423l1.508.355c2.261.622 4.092 1.689 5.492 3.111H4.846c1.4-1.422 3.339-2.489 5.492-3.11zM14 30.222c-6.57 0-11.846-4.355-11.846-9.778 0-1.6.43-3.11 1.292-4.444h21.108c.861 1.333 1.292 2.844 1.292 4.444 0 5.423-5.277 9.778-11.846 9.778z" fill="url(#a)"/><path d="M22.018 22.228c-.528-.178-1.162 0-1.374.446-.845 1.429-2.219 2.5-3.804 3.214-.528.178-.74.714-.528 1.16.21.357.528.536.95.536.106 0 .318 0 .423-.09 2.008-.892 3.7-2.32 4.756-4.016.317-.446.106-.982-.423-1.25z" fill="#1296DB"/></g></svg>