<?xml version="1.0" encoding="UTF-8"?>
<svg width="129px" height="133px" viewBox="0 0 129 133" version="1.1" xmlns="http://www.w3.org/2000/svg" xmlns:xlink="http://www.w3.org/1999/xlink">
    <title>airflow</title>
    <g id="Mage-Data-Center" stroke="none" stroke-width="1" fill="none" fill-rule="evenodd">
        <g id="bigdata-ecosystem" transform="translate(-2556, -756)" fill-rule="nonzero">
            <g id="Group" transform="translate(101, 81)">
                <g id="airflow" transform="translate(2455, 675)">
                    <path d="M2.07635543,132.618046 L63.7503993,67.0608907 C64.1433319,66.6583063 64.2013946,66.0215185 63.8881907,65.5496971 C60.1379265,60.1201254 53.2170847,59.1785246 50.6528237,55.5300664 C43.0559104,44.7229474 41.1283763,38.605838 37.8638187,38.9847943 C37.635948,39.0187458 37.4264108,39.1333693 37.2707313,39.3092324 L14.9921562,62.9926761 C2.17497418,76.6064249 0.332657906,106.613471 0,131.742009 C-0.00211220741,132.253479 0.295858336,132.714916 0.752734801,132.907641 C1.20961126,133.100366 1.73359112,132.985654 2.07635543,132.617868 L2.07635543,132.618046 Z" id="Path" fill="#017CEE"></path>
                    <path d="M128.636442,130.865989 L65.0476094,67.2738117 C64.6567867,66.8674318 64.0376601,66.8075179 63.5795462,67.1317451 C58.3130091,71.0006694 57.3996818,78.1339376 53.8607763,80.7777587 C43.3781643,88.6103771 37.4447343,90.5978933 37.8123119,93.9635614 C37.845737,94.1976795 37.9568795,94.4128279 38.127008,94.5727476 L61.0993053,117.542548 C74.3042717,130.757579 103.410292,132.657056 127.784464,133 C128.27801,133 128.722656,132.694424 128.909519,132.226187 C129.096381,131.75795 128.988318,131.220369 128.636097,130.865989 L128.636442,130.865989 Z" id="Path" fill="#00AD46"></path>
                    <path d="M60.8577764,117.751595 C53.7250971,110.549378 50.4195883,96.3022351 64.0891768,66.9235782 C41.8668959,77.2027148 34.0795353,90.7137653 37.9090966,94.5828008 L60.8577764,117.751595 Z" id="Path" fill="#04D659"></path>
                    <path d="M126.921464,0.381134432 L65.2503776,65.9387118 C64.8565212,66.340824 64.798324,66.9783044 65.112416,67.4499192 C68.8648696,72.8795407 75.7811632,73.8211501 78.3476277,77.4698199 C85.9444522,88.2768596 87.8743685,94.3940251 91.1366547,94.0152436 C91.3645339,93.9815207 91.5740474,93.8667785 91.7293914,93.690624 L114.007705,70.0069635 C126.82508,56.3932682 128.667375,26.3859471 129,1.25700048 C129.000824,0.745625728 128.702329,0.284885274 128.245481,0.0923753716 C127.788633,-0.100134531 127.264835,0.0141022131 126.921464,0.381134432 L126.921464,0.381134432 Z" id="Path" fill="#00C7D4"></path>
                    <path d="M114.210191,70.2553321 C107.224897,77.6091332 93.4068632,81.0169407 64.9108327,66.9235782 C74.880201,89.8349528 87.9843125,97.8637317 91.7368171,93.9154486 L114.210191,70.2553321 Z" id="Path" fill="#11E1EE"></path>
                    <path d="M0.372984753,2.14307501 L63.956694,65.7271626 C64.3471606,66.132279 64.964781,66.1921419 65.4224006,65.8692266 C70.6885419,62.0005514 71.6018005,54.8672383 75.1404402,52.2234664 C85.6222648,44.3909933 91.5552485,42.4036914 91.1876988,39.0379086 C91.1542141,38.8032084 91.0431301,38.5874103 90.873026,38.4266083 L67.9024552,15.4572345 C54.6986536,2.24227177 25.5946477,0.342830219 1.22230666,0 C0.72524799,-0.00305762711 0.276477804,0.304545048 0.0893866714,0.776612544 C-0.0977044608,1.24868004 0.0146338904,1.78996064 0.372984753,2.14307501 Z" id="Path" fill="#E43921"></path>
                    <path d="M68.1423717,15.2484279 C75.2749798,22.4504716 78.5804557,36.6969208 64.9108327,66.0764447 C87.1330624,55.7979852 94.9203455,42.2854719 91.0909932,38.4187452 L68.1423717,15.2484279 Z" id="Path" fill="#FF7557"></path>
                    <path d="M14.7898187,62.7448583 C21.77526,55.3908624 35.5932456,51.9828702 64.0891768,66.0764447 C54.1198432,43.1651876 41.0157773,35.1363887 37.2631144,39.0845049 L14.7898187,62.7448583 Z" id="Path" fill="#0CB6FF"></path>
                    <path d="M61.6242089,66.5000115 C61.6242089,68.1375179 62.9117466,69.4649791 64.5000048,69.4649791 C66.088263,69.4649791 67.3758007,68.1375179 67.3758007,66.5000115 C67.3758007,64.862505 66.088263,63.5350438 64.5000048,63.5350438 C62.9117466,63.5350438 61.6242089,64.862505 61.6242089,66.5000115 L61.6242089,66.5000115 Z" id="Path" fill="#4A4848"></path>
                </g>
            </g>
        </g>
    </g>
</svg>