<?xml version="1.0" encoding="UTF-8"?>
<svg width="125px" height="113px" viewBox="0 0 125 113" version="1.1" xmlns="http://www.w3.org/2000/svg" xmlns:xlink="http://www.w3.org/1999/xlink">
    <title>BigQuery</title>
    <g id="Mage-Data-Center" stroke="none" stroke-width="1" fill="none" fill-rule="evenodd">
        <g id="bigdata-ecosystem" transform="translate(-3983, -429)" fill-rule="nonzero">
            <g id="Group" transform="translate(101, 81)">
                <g id="BigQuery" transform="translate(3882, 348)">
                    <path d="M28.2635163,108.839567 L1.08960333,60.6724744 C-0.36320111,58.0985455 -0.36320111,54.9225276 1.08960333,52.3485987 L28.2635163,4.16043264 C29.71338,1.58951407 32.3925395,0.00602088662 35.3216757,0 L89.7077333,0 C92.5986378,0.0150522165 95.2660338,1.59553495 96.7070746,4.16043264 L123.910397,52.3516092 C125.363201,54.9255381 125.363201,58.1015558 123.910397,60.6754849 L96.6776656,108.839567 C95.2278021,111.410486 92.5486425,112.993979 89.6195063,113 L35.2422713,113 C32.348426,112.990969 29.6780892,111.404465 28.2282255,108.839567 L28.2635163,108.839567 Z" id="Path" fill="#4386FA"></path>
                    <path d="M79.8022608,40.7819549 C79.8022608,40.7819549 87.3577746,59.3735154 77.0593448,69.9153708 C66.7609148,80.4572261 48.013245,73.7079044 48.013245,73.7079044 L86.1524203,113 L90.0242536,113 C92.922984,112.993966 95.6012225,111.406955 97.0799865,108.830325 L115.066225,76.8668405 L79.8022608,40.7819549 Z" id="Path" fill="#000000" opacity="0.1"></path>
                    <path d="M88.9956681,78.6848603 L80.6545161,70.1361968 C80.5649368,70.040338 80.462141,69.9586918 80.3490655,69.894282 C83.873496,65.1926682 85.5249853,59.2848069 84.967538,53.3736194 C84.4097968,47.4624318 81.6851183,41.9924362 77.3477193,38.0770455 C73.0103201,34.161655 67.386504,32.0954003 61.6217106,32.299516 C55.8566236,32.503329 50.3840641,34.9614857 46.3177527,39.1741291 C37.8796787,47.9284201 37.5066765,61.9534294 45.4718893,71.1371191 C49.31205,75.5693002 54.6471565,78.3301527 60.393153,78.858434 C66.1391493,79.3870179 71.8648803,77.6437195 76.4075775,73.9826417 C76.4680801,74.0927129 76.5420933,74.1943171 76.6278543,74.2850352 L84.9690065,82.8730098 C85.0900118,82.997596 85.2336325,83.0961762 85.3919381,83.1633075 C85.5502438,83.2301364 85.7200038,83.2643069 85.8912323,83.2631579 C86.2363328,83.2618879 86.5673356,83.1218797 86.8134583,82.8730098 L89.0250385,80.595987 C89.1460438,80.4714009 89.241791,80.3232281 89.3069928,80.160238 C89.3719011,79.9972478 89.4050895,79.8227668 89.4039734,79.6464715 C89.40274,79.2911591 89.2667556,78.9503617 89.0250385,78.6969559 L88.9956681,78.6848603 Z M62.4243996,73.1329161 C59.050345,73.132009 55.7526528,72.1014519 52.9475,70.1712744 C50.142347,68.2410969 47.9557317,65.4980857 46.6643217,62.2890861 C44.0209988,55.7271478 45.4836373,48.167311 50.3649735,43.1475793 C52.7516003,40.6930515 55.791128,39.0220252 59.099687,38.3452686 C62.408246,37.6685119 65.8375168,38.0168694 68.9539945,39.3458886 C72.0704721,40.6749079 74.7346478,42.9250178 76.6096448,45.8119682 C78.4846418,48.6992211 79.4864611,52.0938903 79.4885171,55.5668792 C79.482643,65.2646379 71.8522511,73.1238443 62.4302738,73.1298922 L62.4243996,73.1329161 Z M51.5221615,54.6294595 L51.5221615,61.8869028 C52.608861,63.8615322 54.1801695,65.5035288 56.080425,66.655648 L56.080425,54.6143398 L51.5221615,54.6294595 Z M60.0395351,48.6118293 L60.0395351,68.2280939 C61.5462291,68.5123438 63.0940415,68.5123438 64.5977985,68.2280939 L64.5977985,48.58159 L60.0395351,48.6118293 Z M73.232653,61.877831 L73.232653,57.5838437 L68.6743896,57.5838437 L68.6743896,66.6375043 C70.5717081,65.4884091 72.1400796,63.8554843 73.232653,61.8838789 L73.232653,61.877831 Z" id="Shape" fill="#FFFFFF"></path>
                </g>
            </g>
        </g>
    </g>
</svg>