<?xml version="1.0" encoding="UTF-8"?>
<svg width="135px" height="133px" viewBox="0 0 135 133" version="1.1" xmlns="http://www.w3.org/2000/svg" xmlns:xlink="http://www.w3.org/1999/xlink">
    <title>dagster_logo_primary</title>
    <g id="Mage-Data-Center" stroke="none" stroke-width="1" fill="none" fill-rule="evenodd">
        <g id="bigdata-ecosystem" transform="translate(-590, -786)" fill-rule="nonzero">
            <g id="Group" transform="translate(101, 81)">
                <g id="dagster_logo_primary" transform="translate(489, 705)">
                    <path d="M44.9218187,127.61005 C44.9240697,128.353004 45.0816317,129.08783 45.385126,129.767979 C45.6882452,130.448497 46.1309193,131.059929 46.6846372,131.564222 C47.23873,132.068514 47.8922372,132.454954 48.6046423,132.699158 C49.3166723,132.94373 50.0725948,133.040894 50.8247655,132.984369 C79.4121352,130.969045 106.412256,111.045238 115.032396,79.9261338 C115.485199,78.1361721 116.848861,77.2387897 118.665701,77.2387897 C119.596817,77.2757343 120.475787,77.6728879 121.112038,78.3438003 C121.748287,79.0147126 122.090422,79.9058143 122.064537,80.823516 C122.064537,87.7624351 113.007725,105.896281 100.056505,116.419926 C99.3962457,116.966705 98.8702888,117.653504 98.5168998,118.428599 C98.1635107,119.203696 97.9924435,120.047508 98.0160778,120.896863 C98.029208,121.587725 98.1807675,122.268982 98.461753,122.901841 C98.7423633,123.534701 99.1475228,124.106602 99.6532217,124.585033 C100.159296,125.063465 100.75578,125.438451 101.409288,125.689305 C102.062794,125.940158 102.759819,126.060967 103.46097,126.045819 C104.595416,126.045819 106.412256,125.374168 108.681898,123.358475 C117.738711,115.296813 135,92.685661 135,67.8334551 C135,31.3972964 106.396123,0 66.4770473,0 C30.8570867,0 0,28.6575282 0,61.792288 C0,83.7314189 17.6980732,100.296231 41.0645515,100.296231 C58.991728,100.296231 75.555243,87.7624351 80.0941533,70.5204297 C80.5469565,68.7308374 81.905741,67.8334551 83.7222055,67.8334551 C84.654072,67.8703997 85.5334178,68.2671838 86.1707937,68.9377266 C86.8077942,69.6086391 87.1510542,70.4997408 87.1266697,71.4181813 C87.1266697,79.2541131 72.1507788,106.583818 41.7465698,106.583818 C34.4851385,106.583818 25.412345,104.568495 19.0565948,100.983769 C18.2057603,100.577379 17.2789583,100.348692 16.3342241,100.311748 C15.6108646,100.284409 14.8895684,100.404848 14.2156908,100.665307 C13.5418132,100.925766 12.9299852,101.321072 12.418584,101.825734 C11.9072203,102.330766 11.5073506,102.93407 11.2442221,103.598702 C10.981056,104.262964 10.860296,104.973776 10.8894825,105.686436 C10.9188566,106.599335 11.184311,107.489698 11.6607484,108.272922 C12.1371482,109.056515 12.8087374,109.707108 13.6118533,110.163373 C22.0080683,114.887098 31.9918705,117.328022 42.1993728,117.328022 C67.6118687,117.328022 90.7547215,100.311748 97.5632747,75.2389832 C98.0160778,73.449391 99.3797392,72.5516391 101.191327,72.5516391 C102.123193,72.5885837 103.002539,72.9853678 103.63954,73.6562803 C104.276915,74.3271925 104.620175,75.2182943 104.595416,76.1367349 C104.595416,86.4342796 85.9918482,119.569077 50.1427473,122.256421 C48.7558268,122.357649 47.4555653,122.960214 46.4921865,123.94848 C45.5284323,124.936376 44.9690873,126.240517 44.9218187,127.61005 Z" id="Path" fill="#4F43DD"></path>
                    <path d="M81.093531,42.0098001 C86.0167402,41.9745976 90.8493588,43.2699081 95.0304818,45.7452229 C95.4528595,43.543626 95.6861297,41.3129331 95.7272727,39.0754152 C95.7272727,28.7413083 87.4507102,19.4840765 77.3732865,19.4840765 C69.5364647,19.4840765 64.6370357,25.6640657 64.6370357,33.2984953 C64.599667,37.4226909 66.1219627,41.4221329 68.9253572,44.5662964 C72.7237358,42.8420894 76.8856083,41.9677726 81.093531,42.0098001 Z" id="Path" fill="#FFFFFF"></path>
                    <path d="M104.243459,80.4721634 C105.715154,75.4543475 106.363636,71.9721291 106.363636,69.7103107 C106.318763,68.7338323 105.899016,67.8119987 105.191761,67.1352747 C104.484108,66.4589466 103.542954,66.079601 102.562883,66.0764332 C101.649527,66.0934601 100.768734,66.4142012 100.059493,66.9879713 C99.3502523,67.5621375 98.853863,68.3556746 98.6489535,69.2434543 C98.2486653,70.8919048 97.3913018,75.3585212 96.5454545,78.1937138 C96.8949125,77.1324964 97.2145872,76.0542521 97.5040815,74.9589809 C97.9833948,73.0353264 99.4272918,72.0786469 101.344546,72.0786469 C102.330573,72.1170566 103.261402,72.5411475 103.936095,73.2590531 C104.61039,73.9773547 104.974144,74.9316584 104.948331,75.9156602 C104.903061,77.461949 104.654469,78.9959625 104.209307,80.4777071 L104.243459,80.4721634 Z" id="Path" fill="#352D8E"></path>
                    <path d="M123.545455,76.2004096 C123.4991,75.3021388 123.08111,74.4545623 122.376671,73.8320092 C121.672231,73.2090916 120.735223,72.8589739 119.758595,72.8535031 C118.848924,72.8702796 117.97095,73.1660562 117.264528,73.6945152 C116.558108,74.2229741 116.063652,74.9538447 115.859611,75.7704213 C115.4543,77.3247982 114.582268,81.5010459 113.727273,84.1072346 L113.766496,84.1072346 C114.182901,82.9463755 114.571175,81.7705636 114.891698,80.5735987 C115.369909,78.8014925 116.810485,77.9207277 118.729272,77.9207277 C119.712239,77.9557393 120.640531,78.3467042 121.312483,79.0082807 C121.984435,79.6698573 122.346164,80.5487987 122.318826,81.4543635 C122.291488,82.5543167 122.127066,83.6477051 121.829125,84.7133759 C123.022077,80.8584341 123.545455,78.0709864 123.545455,76.2004096 Z" id="Path" fill="#352D8E"></path>
                    <path d="M81.1673148,42.2156649 C83.5669395,42.2108026 85.9561987,42.5343286 88.2699375,43.1772663 C89.4849278,41.5031597 90.0916827,39.4569048 89.9887677,37.3833464 C89.8862228,35.3098254 89.0795608,33.3353446 87.7053852,31.7922566 C86.3312095,30.2491312 84.4728145,29.2316513 82.443388,28.9109679 C80.4135913,28.5902846 78.3367795,28.985996 76.5620493,30.0315271 L80.2421895,36.1528255 L73.3498397,33.1399947 C72.4161997,34.6625491 71.9482692,36.4297863 72.0045393,38.2200257 C72.0604393,40.010452 72.6383187,41.7440276 73.6652485,43.2038218 C76.111148,42.5376947 78.6344188,42.2051923 81.1673148,42.2156649 Z" id="Path" fill="#163B36"></path>
                    <path d="M27,81.3248407 C30.1630828,81.3248407 32.7272727,78.8594353 32.7272727,75.8184714 C32.7272727,72.7775075 30.1630828,70.312102 27,70.312102 C23.8369172,70.312102 21.2727273,72.7775075 21.2727273,75.8184714 C21.2727273,78.8594353 23.8369172,81.3248407 27,81.3248407 Z" id="Path" fill="#352D8E"></path>
                    <path d="M27,59.2993631 C30.1630828,59.2993631 32.7272727,56.8342584 32.7272727,53.7927999 C32.7272727,50.7517289 30.1630828,48.2866242 27,48.2866242 C23.8369172,48.2866242 21.2727273,50.7517289 21.2727273,53.7927999 C21.2727273,56.8342584 23.8369172,59.2993631 27,59.2993631 Z" id="Path" fill="#352D8E"></path>
                    <path d="M15.5454546,70.312102 C18.7085373,70.312102 21.2727273,67.8469973 21.2727273,64.8059263 C21.2727273,61.7644678 18.7085373,59.2993631 15.5454546,59.2993631 C12.3823717,59.2993631 9.81818182,61.7644678 9.81818182,64.8059263 C9.81818182,67.8469973 12.3823717,70.312102 15.5454546,70.312102 Z" id="Path" fill="#352D8E"></path>
                    <path d="M40.0489142,99.9617835 L41.1153732,99.9617835 C59.0600475,99.9617835 75.6397293,87.6216824 80.1830698,70.645632 C80.636315,68.8836438 81.9960502,67.9997398 83.8146632,67.9997398 C84.7474392,68.0361145 85.6276435,68.4267783 86.2652657,69.0873418 C86.9032635,69.7479055 87.2468585,70.6252622 87.2224502,71.5295362 C87.1409637,73.333355 86.7200128,75.1073469 85.9798752,76.7642123 C86.108301,76.5717905 86.2209552,76.3695474 86.3155845,76.1596657 C87.6651808,73.1711242 88.3621343,69.9443287 88.3636363,66.6822499 C88.3636363,61.6127145 84.7264105,58.305531 79.5056432,58.305531 C70.402815,58.305531 68.5789448,66.0053174 64.739317,74.2372652 C60.7558675,82.7845812 53.439358,92.029563 34.9881157,92.029563 C15.8169009,92.029563 -3.88221108,79.0227145 0.922569627,52.5743407 C0.981228625,52.2436951 1.02921928,51.9490604 1.0665491,51.6751593 C0.362515692,55.0921941 0.00529688393,58.5674285 0,62.0517565 C0.053327455,83.3425683 17.2194072,99.465997 40.0489142,99.9617835 Z" id="Path" fill="#352D8E"></path>
                </g>
            </g>
        </g>
    </g>
</svg>