<?xml version="1.0" encoding="UTF-8"?>
<svg width="163px" height="184px" viewBox="0 0 163 184" version="1.1" xmlns="http://www.w3.org/2000/svg" xmlns:xlink="http://www.w3.org/1999/xlink">
    <title>darkseal</title>
    <g id="Page-1" stroke="none" stroke-width="1" fill="none" fill-rule="evenodd">
        <g id="darkseal" fill="#7B42BC" fill-rule="nonzero">
            <path d="M150.4,115.1 L150.4,66.3 C157.1,65.1 162.5,58.8 162.5,51.7 C162.5,43.4 155.8,37.1 147.9,37.1 C143.7,37.1 139.6,39.2 137.1,42.1 L95.4,18.8 C95.8,17.6 96.2,16.3 96.2,14.6 C96.2,6.3 89.5,0 81.6,0 C73.7,0 67,6.7 67,14.6 C67,15.8 67.4,17.1 67.4,18.4 L25.8,42.2 C22.5,38.9 18.7,36.8 14.6,36.8 C6.3,36.8 0,43.5 0,51.4 C0,58.5 5,64.3 11.7,66 L11.7,115.2 C5,116.9 0,122.7 0,129.8 C0,138.1 6.7,144.4 14.6,144.4 C18.8,144.4 22.9,142.3 25.4,139.4 L67.5,162.7 C66.7,164.4 66.3,166.5 66.3,168.5 C66.3,176.8 73,183.1 80.9,183.1 C88.8,183.1 95.5,176.4 95.5,168.5 C95.5,166.4 95.1,164.3 94.3,162.3 L136.4,139.4 C139.3,142.3 143.1,144.4 147.6,144.4 C155.9,144.4 162.2,137.7 162.2,129.8 C162.5,122.1 157.5,116.3 150.4,115.1 Z M90,156.7 C88.3,155.5 86.7,154.6 85,154.2 L85,117.1 L77.9,117.1 L77.9,154.2 C75.8,154.6 73.7,155.9 72.1,157.1 L29.2,133.3 C29.6,132.1 29.6,130.8 29.6,129.5 C29.6,122.8 25,117 18.8,115.3 L18.8,65.9 C21.3,65.1 23.4,64.2 25,62.1 L56.2,81.3 L60,75.5 L28.7,56.3 C29.1,54.6 29.5,53.4 29.5,51.7 C29.5,50.5 29.1,49.2 29.1,47.9 L70.8,24.2 C73.3,27.1 77.5,28.8 81.6,28.8 C85.8,28.8 89.5,27.1 92,24.2 L133.7,48 C133.3,49.2 133.3,50.5 133.3,51.8 C133.3,53.5 133.7,54.7 134.1,56.4 L102.9,75.6 L106.7,81.4 L137.5,62.6 C139.2,64.3 141.3,65.5 143.7,66.4 L143.7,115.9 C137.5,117.6 133.3,123.4 133.3,130.1 C133.3,131.3 133.3,132.6 133.7,133.4 L90,156.7 Z" id="Shape"></path>
            <path d="M67.4,104.9 C74.9,112.4 87,112.4 94.5,104.9 C102,97.4 102,85.3 94.5,77.8 C87,70.3 74.9,70.3 67.4,77.8 C59.9,85.2 59.9,97.4 67.4,104.9 Z" id="Path"></path>
        </g>
    </g>
</svg>