<?xml version="1.0" encoding="UTF-8"?>
<svg width="102px" height="113px" viewBox="0 0 102 113" version="1.1" xmlns="http://www.w3.org/2000/svg" xmlns:xlink="http://www.w3.org/1999/xlink">
    <title>Databricks</title>
    <g id="Mage-Data-Center" stroke="none" stroke-width="1" fill="none" fill-rule="evenodd">
        <g id="bigdata-ecosystem" transform="translate(-2548, -108)" fill="#FF3621" fill-rule="nonzero">
            <g id="Group" transform="translate(101, 81)">
                <g id="Databricks" transform="translate(2447, 27)">
                    <polygon id="Path" points="96.6314074 46.5203407 50.9234189 72.9233244 2.30074359 44.7914942 0 46.0486194 0 66.4801381 50.9234189 96.0266533 96.6314074 69.6231909 96.6314074 80.4675128 50.9234189 106.870975 2.30074359 78.7386663 0 79.9962705 0 83.4534848 50.9234189 113 102 83.4534848 102 63.022445 99.6993076 61.7648407 50.9234189 89.8971498 5.36826669 63.4936873 5.36826669 52.8069251 50.9234189 79.0528279 102 49.5063127 102 29.3894345 99.3925176 27.9752283 50.9234189 55.9499777 7.82230751 30.9612003 50.9234189 6.1295035 86.5078024 26.5605433 89.7293303 24.8316968 89.7293303 22.3169672 50.9234189 0 0 29.3894345 0 32.532966 50.9234189 62.0794812 96.6314074 35.6760187"></polygon>
                </g>
            </g>
        </g>
    </g>
</svg>