<?xml version="1.0" encoding="UTF-8"?>
<svg width="188px" height="187px" viewBox="0 0 188 187" version="1.1" xmlns="http://www.w3.org/2000/svg" xmlns:xlink="http://www.w3.org/1999/xlink">
    <title>Dremio</title>
    <g id="Mage-Data-Center" stroke="none" stroke-width="1" fill="none" fill-rule="evenodd">
        <g id="bigdata-ecosystem" transform="translate(-2037, -381)" fill-rule="nonzero">
            <g id="Group" transform="translate(101, 81)">
                <g id="Dremio" transform="translate(1936, 300)">
                    <path d="M41.8328425,119.338255 C36.2966128,122.181399 25.2234596,127.86667 25.7772957,134.690216 C27.43811,138.67011 31.8673615,134.690216 33.5281758,132.98433 C37.4035415,129.004437 40.1720282,123.886777 41.8328425,119.338255 Z M76.1590324,104.554923 C72.2837164,114.789224 61.2104641,119.338255 58.4420271,117.632369 C56.7814605,116.49562 58.4420271,113.652476 58.4420271,111.37796 C56.2272775,112.514709 52.3519613,114.221104 50.1377074,114.789224 C55.67359,118.770135 58.4420271,126.161293 58.4420271,132.98433 C58.4420271,139.807367 55.67359,146.061776 50.6913947,150.610807 C60.1030892,164.825001 55.1203983,176.765698 42.3866786,186.431371 L41.8328425,187 L41.8328425,185.863251 C40.1720282,179.040213 37.4035415,173.353926 32.9742902,168.237283 C30.7596891,165.394139 27.9919461,163.119624 25.7772957,160.845108 C22.454973,157.433844 19.1334433,154.5907 16.3650064,151.179436 C3.63106359,137.533361 -1.35205859,113.652476 0.309479481,95.4573699 C1.41641312,85.7916972 4.18490962,76.6941443 8.06033976,68.7343582 C11.3818693,61.9113209 15.8111207,55.6569123 20.7942081,50.5392525 C31.8673615,38.5990644 46.8159299,28.9328828 62.3173431,23.8152229 C76.1590324,19.8353298 91.6607927,18.6985812 104.948795,25.5216185 C107.163049,26.6583673 110.484677,28.3642538 112.146235,30.0696313 C113.253114,31.2073982 114.360985,32.3441468 115.467864,33.4814046 C115.467864,33.4814046 115.467864,33.4814046 116.021551,34.0505426 L176.922704,2.20926027 C181.905891,-0.633680453 185.781207,-0.633782266 187.442269,1.6406314 C189.102836,3.91494325 186.888086,8.46371968 183.012769,10.7380315 L130.416433,49.9701145 C131.523312,52.813768 129.862745,57.36229 127.647996,60.2054344 C134.845436,62.4799498 128.75537,73.2828801 125.433246,76.6941443 C116.575735,87.4975838 100.519295,95.4573699 86.1244144,101.711778 C81.6954109,102.849545 79.4806613,103.418174 76.1590324,104.554923 Z" id="Shape" fill="#393C42"></path>
                    <path d="M124.263732,68.0151606 C128.13041,62.8778643 125.368144,60.023811 122.605877,62.8778643 C117.081839,68.5859713 109.348482,70.2978924 101.614136,69.1562709 C91.1180179,67.4438388 90.5665538,65.7319179 92.2234191,64.0194858 C104.928856,68.5849492 119.844105,62.3065426 125.920597,52.0329723 C128.682863,48.0378086 119.844105,45.1837552 114.319572,37.7642383 C89.4611526,2.94713693 11.0190174,33.1982638 3.83735218,94.2704081 C1.62766266,112.534817 6.59963839,133.082469 18.7525721,147.351714 C28.1431899,158.196095 37.5345991,162.762581 43.6110411,179.315069 C54.659563,169.611798 53.0022031,158.766906 44.7155027,149.064657 C58.5262414,141.644118 56.3164283,122.808899 46.9251674,117.100792 C42.5065798,134.223579 26.4861269,146.781414 22.6193494,134.794901 C20.4096352,122.238088 39.7442639,114.247249 71.2316778,102.260736 C97.1954987,91.4163548 114.319572,82.8547054 124.263732,68.0151606 Z" id="Path" fill="#55BFCE"></path>
                    <path d="M124.528546,67.708565 C128.406536,62.6033035 125.636189,59.7670471 122.865841,62.6033035 C118.434277,67.708565 111.231373,69.4098109 105.137104,69.4098109 C94.0562098,68.8425597 85.7461589,66.5735545 77.9896816,67.1408059 C62.476727,68.8425597 46.9636235,79.0525748 39.2074933,87.5608362 C25.3570945,101.740595 10.3982094,131.802881 25.3570945,137.474886 C24.2486083,136.908142 23.1409156,135.206389 22.5866973,133.504127 C20.3705184,121.026122 39.7617118,113.085112 71.3413433,101.173343 C97.3811229,90.963836 114.555294,82.4555746 124.528546,67.708565 Z" id="Path" fill="#FFFFFF"></path>
                    <path d="M56.7660949,92.053532 C65.0133845,96.0678056 63.3643203,110.405818 62.2651083,114.420091 C77.6589985,109.832277 72.711314,86.3186352 79.858407,79.4366563 C71.0622499,78.8631154 54.5671787,88.0392582 56.7660949,92.053532 Z" id="Path" fill="#55BFCE"></path>
                    <path d="M82.3315126,49.2587021 C84.5570086,48.0839778 87.3395014,48.6710771 88.4520003,51.0194746 C89.5654957,53.367872 89.0089971,56.3023174 86.7830029,57.4770417 C84.5570086,58.6507148 81.7755121,58.064141 80.6620168,55.7162692 C78.9930193,53.367872 80.1055184,50.4323753 82.3315126,49.2587021 Z" id="Path" fill="#393C42"></path>
                    <path d="M119.802983,50.7238574 L181.26375,7.38668546 C182.924972,6.26101649 185.139936,3.44697005 184.5857,2.32130107 C183.478714,1.1956825 180.71001,1.75854218 178.495046,2.88421116 L112.051603,39.4671676 C109.83664,43.970045 114.265575,53.5381556 119.802983,50.7238574 Z" id="Path" fill="#55BFCE"></path>
                    <path d="M114.24203,42.0823107 L178.316117,3.19304503 C181.078659,1.47732029 182.182984,1.47732029 183.840708,1.47732029 C182.735394,0.33353794 179.973345,0.905480321 178.316117,2.04931389 L112.032392,39.2225988 C110.375657,42.6547651 112.584801,48.9451071 115.898765,51.2328767 C114.793451,47.8012224 114.24203,44.9420225 114.24203,42.0823107 Z" id="Path" fill="#FFFFFF"></path>
                    <path d="M19.5486726,59.8867523 C21.6878601,59.2932082 23.2920354,61.073309 23.2920354,63.4474854 C23.2920354,65.8216616 21.6878601,68.1953065 19.5486726,68.1953065 C17.4095329,68.7893819 15.8053097,67.0082184 15.8053097,64.6340421 C15.8053097,62.2598659 17.4095329,59.8867523 19.5486726,59.8867523 Z" id="Path" fill="#25ABAD"></path>
                    <path d="M32.4428503,46.2178693 C34.106356,45.666113 35.7699115,47.3203952 35.7699115,48.9741839 C35.7699115,50.6274791 34.106356,52.8325306 32.4428503,52.8325306 C30.7793444,53.3837937 29.1150442,51.7295113 29.1150442,50.0762163 C29.1150442,48.422921 30.2245446,46.2178693 32.4428503,46.2178693 Z" id="Path" fill="#25ABAD"></path>
                    <path d="M70.6436229,27.3242009 C72.1800314,27.3242009 73.2035398,29.0315812 73.2035398,30.7394712 C72.691098,32.4468515 71.1556063,34.1552511 69.1076728,34.1552511 C67.572181,34.1552511 66.5486725,32.4468515 66.5486725,30.7394712 C67.0601975,28.4622846 69.1076728,27.3242009 70.6436229,27.3242009 Z" id="Path" fill="#25ABAD"></path>
                    <path d="M81.3580143,25.6164383 C82.9826882,26.1288588 83.5244078,27.1532412 82.9826882,28.690044 C82.4414536,30.2277643 80.8158096,30.7397261 79.1911357,30.7397261 C77.5659768,30.2273056 77.024257,29.2029232 77.5659768,27.6656617 C78.1081814,26.1288588 79.7328554,25.6164383 81.3580143,25.6164383 Z" id="Path" fill="#25ABAD"></path>
                    <path d="M32.7198191,54.6484018 C33.8292836,54.6484018 34.9380531,55.2176561 34.9380531,56.9249089 C34.9380531,58.6331811 33.8292836,59.7716894 32.1650868,59.7716894 C31.0563176,59.7716894 29.9469027,59.2019257 29.9469027,57.4946728 C30.501635,56.3566739 31.6110993,55.2176561 32.7198191,54.6484018 Z" id="Path" fill="#25ABAD"></path>
                    <path d="M13.3097792,71.7260273 C14.8068294,71.7260273 15.8053097,72.2379433 15.8053097,73.7755259 C15.8053097,75.3126499 14.8068294,76.3369404 13.3097792,76.849315 C11.8126843,76.849315 10.8141593,76.3369404 10.8141593,74.7998165 C10.8141593,73.2631512 11.8126843,72.2379433 13.3097792,71.7260273 Z" id="Path" fill="#25ABAD"></path>
                    <path d="M128.368097,30.5555782 L125.610619,32.2892041 C125.610619,36.9135862 129.470594,42.1154987 131.676577,42.6940638 C129.470594,39.8038251 127.816108,34.0238649 128.368097,30.5555782 Z M143.807997,21.8853793 L141.051507,23.0409572 C141.603002,27.0878092 144.359986,31.7116738 146.013979,31.7116738 C144.911482,29.977013 143.257489,24.7756181 143.807997,21.8853793 Z M158.697389,13.2153354 L157.043396,14.3712757 C157.043396,16.6829493 158.697389,20.7287661 160.903371,21.3073315 C159.800874,19.5731882 158.146881,16.6829493 158.697389,13.2153354 Z M173.036273,5.12328767 L171.381292,6.27922797 C171.381292,8.01321603 173.58678,10.9032996 174.690265,11.4812439 C174.13877,10.3252001 173.036273,7.43527175 173.036273,5.12328767 Z" id="Shape" fill="#25ABAD"></path>
                </g>
            </g>
        </g>
    </g>
</svg>