<?xml version="1.0" encoding="UTF-8"?>
<svg width="144px" height="110px" viewBox="0 0 144 110" version="1.1" xmlns="http://www.w3.org/2000/svg" xmlns:xlink="http://www.w3.org/1999/xlink">
    <title>druid</title>
    <g id="Mage-Data-Center" stroke="none" stroke-width="1" fill="none" fill-rule="evenodd">
        <g id="bigdata-ecosystem" transform="translate(-589, -116)" fill="#2AEEF8" fill-rule="nonzero">
            <g id="Group" transform="translate(101, 81)">
                <g id="druid" transform="translate(488, 35)">
                    <path d="M15.8553828,34.4436158 L4.69235019,34.4436158 C2.10334027,34.4436158 0,32.1181188 0,29.253058 C0,26.3857268 2.10334027,24.0625 4.69235019,24.0625 L15.8553828,24.0625 C18.4473407,24.0625 20.5440482,26.3857268 20.5440482,29.253058 C20.5440482,32.1181188 18.4473407,34.4436158 15.8553828,34.4436158 Z M77.461733,87.6530777 L22.4867267,87.6530777 C19.891084,87.6530777 17.7943765,85.3237963 17.7943765,82.4572225 C17.7943765,79.5898909 19.891084,77.2659078 22.4867267,77.2659078 L77.461733,77.2659078 C83.5435156,77.3485475 89.5362187,75.7600145 94.8190806,72.6648588 C101.61256,68.5458611 106.078658,64.9739946 106.078658,53.6219668 C106.463992,48.4441655 104.897336,43.3122446 101.702471,39.2868248 C99.0733888,36.5817542 95.5374455,35.0098401 91.8173616,34.8923694 L30.0245559,34.8923694 C27.4355459,34.8923694 25.3322056,32.5691425 25.3322056,29.7018116 C25.3322056,26.8344804 27.4355459,24.5067132 30.0245559,24.5067132 L91.7274501,24.5067132 C97.8797572,24.6156854 103.767488,27.2423693 108.266013,31.8820123 C113.294426,37.7264035 115.903335,45.6087261 115.492837,53.6537502 C115.492837,71.9989181 105.392529,78.1278474 99.3559278,81.8026327 C92.6983819,85.72735 85.1378953,87.7476212 77.461733,87.6530777 Z" id="Shape"></path>
                    <path d="M87.4412515,109.968172 L66.4852084,109.968172 C63.6758384,109.968172 61.4037272,107.724275 61.4037272,104.952939 C61.4037272,102.186149 63.6758384,99.942253 66.4852084,99.942253 L87.4412515,99.942253 C104.535516,99.942253 133.548232,88.9084384 133.783329,47.6354538 C134.478301,35.4921949 128.862509,23.8430326 118.887477,16.7150063 C112.416633,12.2496573 104.775819,9.91859139 96.9836767,10.0325765 L33.5465975,10.0325765 C30.7379644,10.0325765 28.4651163,7.78868047 28.4651163,5.01658606 C28.4651163,2.24979636 30.7372275,0.00590035831 33.5465975,0.00590035831 L96.9844133,0.00590035831 C106.885436,-0.15062706 116.596159,2.81049835 124.813538,8.49193462 C137.527927,17.5296596 144.731175,32.3184575 143.941132,47.7627671 C143.706036,90.4831825 114.489914,109.968172 87.4412515,109.968172 L87.4412515,109.968172 Z M50.7049798,110 L39.8418857,110 C37.0339897,110 34.7604045,107.757619 34.7604045,104.986283 C34.7604045,102.219493 37.0339897,99.9755977 39.8418857,99.9755977 L50.7042429,99.9755977 C53.5136129,99.9755977 55.7871986,102.219493 55.7871986,104.986283 C55.787935,107.757619 53.5136129,110 50.7049798,110 Z" id="Shape"></path>
                </g>
            </g>
        </g>
    </g>
</svg>