<?xml version="1.0" encoding="UTF-8"?>
<svg width="152px" height="158px" viewBox="0 0 152 158" version="1.1" xmlns="http://www.w3.org/2000/svg" xmlns:xlink="http://www.w3.org/1999/xlink">
    <title>duckdb</title>
    <g id="Mage-Data-Center" stroke="none" stroke-width="1" fill="none" fill-rule="evenodd">
        <g id="bigdata-ecosystem" transform="translate(-3003, -731)" fill="#FFEF00" fill-rule="nonzero">
            <g id="Group" transform="translate(101, 81)">
                <g id="duckdb" transform="translate(2902, 650)">
                    <path d="M76,0 C33.937107,0 0,35.4487178 0,79 C0,122.551282 33.937107,158 76,158 C118.062893,158 152,122.551282 152,79 C152,35.4487178 118.062893,0 76,0 Z M60.2264151,111.916667 C43.018868,111.916667 28.6792452,97.2307692 28.6792452,79 C28.6792452,60.7692308 43.018868,46.0833332 60.2264151,46.0833332 C77.4339622,46.0833332 91.7735849,60.7692308 91.7735849,79 C91.7735849,97.2307692 77.4339622,111.916667 60.2264151,111.916667 Z M116.62893,90.6474358 L101.811321,90.6474358 L101.811321,67.3525642 L116.62893,67.3525642 C122.842767,67.3525642 128.100629,72.4166668 128.100629,79 C128.100629,85.5833334 122.842767,90.6474358 116.62893,90.6474358 Z" id="Shape"></path>
                </g>
            </g>
        </g>
    </g>
</svg>