<?xml version="1.0" encoding="UTF-8"?>
<svg width="135px" height="158px" viewBox="0 0 135 158" version="1.1" xmlns="http://www.w3.org/2000/svg" xmlns:xlink="http://www.w3.org/1999/xlink">
    <title>elasticsearch</title>
    <g id="Mage-Data-Center" stroke="none" stroke-width="1" fill="none" fill-rule="evenodd">
        <g id="bigdata-ecosystem" transform="translate(-1120, -413)" fill-rule="nonzero">
            <g id="Group" transform="translate(101, 81)">
                <g id="elasticsearch" transform="translate(1019, 332)">
                    <path d="M63.0885402,44.3260664 L7.66235895,44.3260664 L7.66235895,44.4197791 L107.376019,44.4197791 C118.336502,44.4197791 128.227669,39.1718729 134.821781,30.9251627 C121.0989,12.0889273 99.4452633,0 75.207448,0 C61.4845672,0 48.5636728,3.93592987 37.4249707,10.683238 C48.474563,19.3985111 57.2964152,31.0188753 63.0885402,44.3260664 Z" id="Path" fill="#EFBF1B"></path>
                    <path d="M135,126.793167 C128.405889,118.640169 118.692941,113.485976 107.732457,113.485976 L7.57324943,113.485976 L7.57324943,113.579688 L64.3360747,113.579688 C58.9894977,127.355442 50.345865,139.256944 39.5636015,148.534493 C26.5535977,141.224909 15.8604437,129.885683 8.82078408,116.109929 C21.4743497,141.037484 46.425042,157.999467 75.207448,157.999467 C99.6234823,158.09318 121.27712,145.816827 135,126.793167 Z" id="Path" fill="#40BEB0"></path>
                    <path d="M65.9400478,101.209623 L98.8214962,101.209623 C110.494855,101.209623 119.940475,91.2760862 120.029585,78.9997336 C120.029585,66.8170938 110.583965,56.7898441 98.9106053,56.7898441 L65.7618287,56.7898441 C67.3658017,63.4434398 68.3460073,70.8467362 68.3460073,78.9997336 C68.3460073,87.152731 67.4549113,94.5560276 65.9400478,101.209623 Z" id="Path" fill="#0AA5DE"></path>
                    <path d="M68.3460073,78.9997336 C68.3460073,70.7530236 67.3658017,63.4434398 65.7618287,56.7898441 L3.02865892,56.7898441 C-1.00955297,71.2919213 -1.00955297,86.7075462 3.02865892,101.209623 L65.9400478,101.209623 C67.4549113,94.5560276 68.3460073,87.152731 68.3460073,78.9997336 L68.3460073,78.9997336 Z" id="Path" fill="#231F20"></path>
                    <path d="M37.4249707,10.683238 C24.593186,18.5550976 14.167361,30.2691743 7.57324943,44.3260664 L63.0885402,44.3260664 C57.2964152,31.0188753 48.474563,19.3985111 37.4249707,10.683238 Z" id="Path" fill="#D7A229"></path>
                    <path d="M39.6527112,148.534493 C50.4349747,139.350657 59.0786073,127.355442 64.4251843,113.579688 L7.66235895,113.579688 C8.01879748,114.423102 8.46434553,115.266515 8.9098936,116.109929 C15.8604436,129.885683 26.5535975,141.224909 39.6527112,148.534493 Z" id="Path" fill="#009B8F"></path>
                </g>
            </g>
        </g>
    </g>
</svg>