<?xml version="1.0" encoding="UTF-8"?>
<svg width="700px" height="700px" viewBox="0 0 700 700" version="1.1" xmlns="http://www.w3.org/2000/svg" xmlns:xlink="http://www.w3.org/1999/xlink">
    <title>elixirnote</title>
    <g id="elixirnote" stroke="none" stroke-width="1" fill="none" fill-rule="evenodd">
        <rect fill="#288ED7" x="0" y="0" width="700" height="700"></rect>
        <g transform="translate(82.000000, 82.000000)" fill="#FFFFFF" fill-rule="nonzero" id="Shape">
            <path d="M266.400373,0 C289.418985,0 298.050965,14.8934376 309.560271,29.7868737 L312.437597,32.765562 L528.23709,461.69655 C536.86907,479.568675 542.62372,497.440798 528.23709,515.312923 C508.095802,542.12111 473.567884,539.14242 456.303925,506.376861 L436.162636,464.67524 L393.00274,381.271989 C390.125413,375.314617 384.37076,366.378555 378.616108,357.442492 L332.578882,449.781798 C323.946903,470.632612 312.437597,488.504737 303.805617,509.355551 C286.541658,542.12111 249.136414,545.0998 231.872454,515.312923 C220.363149,497.440798 226.117801,479.568675 234.74978,461.69655 L295.173638,345.527741 C303.805617,324.676929 315.314923,306.804805 323.946903,285.953992 C332.578882,271.060554 332.578882,259.145805 323.946903,244.252367 C303.805617,208.508119 289.418984,172.76387 269.277699,137.019621 C260.645719,142.976996 257.768393,151.913058 254.891065,160.84912 L168.57127,330.634306 L85.128801,500.419489 C76.4968213,515.312923 67.8648417,530.206358 47.7235547,536.163738 C18.9502898,542.12111 -6.94564909,515.312923 1.68633054,485.526047 C4.56365662,476.589984 7.44098406,470.632612 10.3183101,464.67524 C82.2514731,321.698241 151.30731,181.699932 223.240475,38.7229359 C231.872454,14.8934361 243.38176,0 266.400373,0 L266.400373,0 Z"></path>
        </g>
    </g>
</svg>