<?xml version="1.0" encoding="UTF-8"?>
<svg width="700px" height="700px" viewBox="0 0 700 700" version="1.1" xmlns="http://www.w3.org/2000/svg" xmlns:xlink="http://www.w3.org/1999/xlink">
    <title>elixirnote</title>
    <g id="elixirnote" stroke="none" stroke-width="1" fill="none" fill-rule="evenodd">
        <rect fill="#288ED7" x="0" y="0" width="700" height="700"></rect>
        <g id="Group" transform="translate(103.000000, 129.000000)" fill="#FFFFFF">
            <path d="M253.448738,0 L0,442 L146.645122,442 C159.168861,440.25515 168.862149,436.581328 175.724986,430.978536 C182.587823,425.375744 192.858011,412.751465 206.535549,393.105699 L338,165.484096 L253.448738,0 Z" id="Path-5"></path>
            <path d="M368.843875,221 L295.871458,349.772754 C292.409836,358.941431 290.230066,365.375651 289.332149,369.075413 C287.637284,376.058901 286.697572,381.411958 286.513013,385.134583 C285.780021,399.919306 290.986236,410.520859 294.803454,417.113009 C301.208059,428.173452 319.093613,436.469116 348.460115,442 L494,442 L368.843875,221 Z" id="Path-6"></path>
        </g>
    </g>
</svg>