<?xml version="1.0" encoding="UTF-8"?>
<svg width="168px" height="158px" viewBox="0 0 168 158" version="1.1" xmlns="http://www.w3.org/2000/svg" xmlns:xlink="http://www.w3.org/1999/xlink">
    <title>hive</title>
    <g id="Mage-Data-Center" stroke="none" stroke-width="1" fill="none" fill-rule="evenodd">
        <g id="bigdata-ecosystem" transform="translate(-590, -413)" fill-rule="nonzero">
            <g id="Group" transform="translate(101, 81)">
                <g id="hive" transform="translate(489, 332)">
                    <path d="M100.526228,124.059259 L100.526228,158 L108.458829,158 L108.458829,142.395062 L110.138674,142.395062 L110.138674,158 L118.1646,158 L118.1646,124.059259 L110.138674,124.059259 L110.138674,136.640741 L108.458829,136.640741 L108.458829,124.059259 L100.526228,124.059259 L100.526228,124.059259 Z M128.150345,124.059259 L120.404393,124.059259 L120.404393,158 L128.150345,158 L128.150345,124.059259 L128.150345,124.059259 Z M129.363566,124.059259 L135.522998,158 L144.762145,158 L150.921577,124.059259 L142.709001,124.059259 L140.655858,138.591358 C140.469208,139.176543 139.90926,139.176543 139.815935,138.591358 L137.762791,124.059259 L129.363566,124.059259 Z M168,124.059259 L152.601421,124.059259 L152.601421,158 L168,158 L168,149.124691 L159.414125,149.02716 L159.414125,145.223457 L163.520413,145.223457 L163.520413,136.348148 L159.414125,136.348148 L159.414125,132.934568 L168,132.934568 L168,124.059259 L168,124.059259 Z" id="Shape" fill="#000000"></path>
                    <path d="M84.7543507,21.0666668 C83.4478047,17.3604938 38.7452644,-0.780246913 38.1853162,1.17037037 C29.9727411,3.41358024 26.6130512,13.2641975 21.013568,19.5061728 L8.5080557,18.725926 C3.00189731,26.1382716 0.108831038,33.7456791 2.06865012,41.5481481 C9.16132874,51.691358 17.373904,60.274074 22.4134388,72.8555555 C22.7867376,78.8049382 46.9578398,73.4407407 52.1840241,72.2703704 C45.0913453,77.537037 38.9319139,85.7296296 41.6383308,109.42963 C44.0647734,120.548148 45.7446184,132.934568 67.115979,145.418519 C69.9157205,147.076543 75.7951779,149.02716 79.3415171,150.392593 C82.7945316,152.050617 86.8074945,152.733333 98.1931099,149.124691 C104.819166,146.198765 111.911844,144.345679 118.351249,141.419753 L110.605298,141.809877 C99.9662802,142.004938 91.66038,142.882716 89.1406125,139.761728 L79.3415171,121.91358 L85.0343249,110.307407 C92.9669259,111.185185 95.5800181,117.914815 102.579372,120.450617 L110.791947,114.111111 C134.683075,128.838272 144.202196,104.748148 146.908613,86.0222221 C146.628639,78.4148149 131.043412,88.4604938 132.069983,84.8518519 C132.443281,76.6592593 126.003877,65.9308642 121.897589,57.5432099 L126.657149,38.1345678 C128.803618,36.0864197 116.57808,14.5320988 106.592335,11.8987654 C97.9131364,9.46049382 84.7543507,21.0666668 84.7543507,21.0666668 Z" id="Path" fill="#FDEE21"></path>
                    <path d="M124.044058,62.2246913 C124.137382,64.2728394 124.137382,66.808642 124.324031,68.3691358 C124.324031,69.5395062 123.390785,69.637037 122.737512,69.8320988 L127.403747,71.5876543 C128.336994,73.2456791 129.083592,74.8061728 129.83019,76.4641976 C130.670112,80.462963 130.016839,80.5604938 129.456891,80.8530863 C127.777046,80.8530863 126.097201,80.8530863 124.510681,80.5604938 C125.257279,80.9506173 125.350604,81.2432099 125.443928,81.7308642 C125.537253,82.608642 124.977304,83.8765433 124.044058,85.1444445 C125.443928,85.9246913 127.963696,86.7049382 129.83019,87.4851851 L131.976658,82.5111111 C130.950087,75.2938272 128.05702,68.6617284 124.044058,62.2246913 L124.044058,62.2246913 Z M132.723256,86.6074074 C135.336348,87.7777779 138.882687,87.3876543 143.828898,84.7543209 C144.575496,84.1691358 145.228769,84.5592593 143.922223,85.437037 C137.389492,91.4839505 134.309777,88.4604938 132.723256,86.6074074 L132.723256,86.6074074 Z" id="Shape" fill="#C8C037"></path>
                    <path d="M144.295521,83.974074 C145.042119,85.5345678 144.575496,86.7049382 144.295521,88.0703704 C143.455598,94.702469 141.495779,99.8716048 137.669466,105.333333 C125.163954,126.4 112.471793,113.233333 102.392722,104.650617 L98.1931099,115.574074 C98.0064612,116.549383 97.0732137,117.232099 103.605944,120.255556 L110.231999,115.379012 C135.616323,135.47037 153.534669,87.0950618 144.295521,83.974074 L144.295521,83.974074 Z M105.472439,102.797531 C103.792593,102.895062 98.6597343,104.748148 98.4730844,105.820988 L100.806203,102.212346 L105.472439,102.797531 Z M102.112749,80.462963 C102.392722,80.462963 103.885918,80.8530863 103.792593,80.7555555 C103.605944,80.6580247 103.792593,82.9987654 104.259216,84.1691358 L102.392722,88.362963 C105.939062,84.1691358 111.44522,84.3641976 116.57808,83.8765433 L114.151637,82.3160495 C114.61826,80.8530863 114.058312,79.6827159 113.871664,78.4148149 L102.112749,80.462963 Z M110.791947,67.8814815 C107.058958,69.0518519 103.419295,71.1 100.992852,75.2938272 C102.859347,68.3691358 103.232645,68.6617284 103.792593,68.2716048 C106.405685,67.0037036 108.552154,67.7839505 110.791947,67.8814815 Z" id="Shape" fill="#C8C037"></path>
                    <path d="M90.6338081,149.124691 C86.0608968,154.391358 75.8885025,148.734568 67.4892779,145.808642 C46.0245925,131.569136 41.8249803,118.109877 41.5450061,104.94321 C40.4251095,86.0222221 46.0245925,75.0987654 53.0239465,72.4654322 C48.3577105,81.8283952 46.2112421,98.6037036 48.3577105,111.087654 C50.1308803,118.012346 50.1308803,129.716049 61.2365216,136.055556 C66.6493553,139.274074 65.2494847,141.712346 68.8891486,144.735802 C72.9021115,148.051852 84.1944025,151.17284 90.6338081,149.124691 Z M97.4465122,61.9320988 C89.7005609,50.5209877 78.8748936,46.2296296 66.6493553,45.7419753 C69.0757981,44.8641976 71.5955654,44.474074 74.0220081,43.2061728 C74.5819565,42.5234567 74.3953071,41.3530863 74.2086576,40.1827159 C62.449743,36.9641976 54.9837656,32.9654322 45.557969,29.2592593 L70.9422924,35.6962964 C88.1140406,36.3790123 86.6208452,40.8654322 97.4465122,61.9320988 Z" id="Shape" fill="#FCF6A0"></path>
                    <path d="M105.752412,56.3728394 C100.059605,47.8876543 94.5534462,37.5493827 86.994144,30.9172841 C68.8891486,22.4320988 50.877478,16.0925926 29.8794162,10.3382716 L36.598796,1.3654321 C58.9034037,6.72962964 79.8081408,15.6049383 98.5664094,30.2345678 C101.832774,38.6222221 103.885918,47.0098765 105.752412,56.3728394 L105.752412,56.3728394 Z M117.231353,41.3530863 C117.231353,41.3530863 114.058312,33.8432099 112.471793,31.0148149 C108.832128,26.8209877 107.058958,19.0185185 99.5929808,15.3123457 C101.926099,15.9950617 103.51262,15.2148148 108.27218,19.7012346 L115.831482,34.6234567 L117.231353,41.3530863 Z" id="Shape" fill="#FCF6A0"></path>
                    <path d="M121.244316,54.3246913 C121.990914,47.7901235 123.390785,37.4518519 121.804264,33.2580247 C117.324677,27.0160495 112.845091,20.4814815 108.365505,14.5320988 C107.618907,13.8493827 107.058958,12.7765432 106.49901,12.0938272 C112.845091,13.8493827 119.471146,18.4333332 128.336994,36.574074 L121.244316,54.3246913 Z" id="Path" fill="#FCF6A0"></path>
                    <path d="M94.5534462,55.1049382 C92.0336789,53.0567901 89.7938857,45.7419753 85.9675722,44.1814815 C82.4212328,43.8888889 81.1146869,42.7185185 76.4484509,43.6938272 C78.1282957,42.8160495 79.7148159,41.6456791 81.4879855,41.0604938 C82.701207,40.7679012 83.8211035,41.0604938 85.0343249,41.2555555 C85.3142991,41.1580247 85.5009485,40.962963 85.4076238,40.6703704 C80.7413878,37.6469137 71.1289419,37.6469137 64.5962115,35.891358 C72.1555138,36.1839505 80.4614136,35.6962964 86.1542215,37.6469137 C90.7271328,41.8407407 92.2203282,49.8382716 94.5534462,55.1049382 L94.5534462,55.1049382 Z M108.365505,19.7012346 C109.392076,19.7987654 114.99156,29.0641976 115.271533,30.6246913 C115.738157,34.0382716 116.858054,37.7444445 117.231353,41.3530863 C116.298106,37.9395062 115.271533,34.525926 114.058312,31.2098765 C113.685014,30.2345678 112.751766,28.1864197 110.138674,25.162963 C108.925453,23.0172841 108.645479,21.3592593 108.365505,19.7012346 L108.365505,19.7012346 Z M127.403747,70.3197531 L124.977304,70.3197531 L127.590397,71.002469 L127.403747,70.3197531 Z M110.978597,67.8814815 C108.552154,67.5888889 106.125712,67.491358 103.699268,68.0765433 C102.672697,69.4419753 102.672697,70.9049382 102.206073,72.1728394 C105.099139,68.7592593 106.312361,68.5641976 110.978597,67.8814815 Z M144.015547,85.3395062 C142.709001,86.4123457 142.522352,87.4851851 138.509389,88.7530863 C135.616323,89.4358024 133.936477,88.2654322 132.629931,86.6074074 C134.683075,87.1925926 135.056374,88.8506173 140.562533,86.997531 L144.015547,85.3395062 L144.015547,85.3395062 Z M131.976658,86.0222221 C131.043412,88.8506173 129.923515,91.5814815 128.896943,94.2148149 C126.377175,97.3358024 127.497072,95.5802469 123.670758,100.261728 C124.883979,98.3111111 126.4705,96.4580247 127.217098,94.4098765 C127.777046,93.0444445 128.523644,91.6790123 128.803618,90.508642 C127.777046,90.0209877 125.817227,89.9234567 125.537253,90.1185185 C122.177563,92.1666668 121.617614,94.3123457 119.657795,96.4580247 C121.057666,94.1172841 122.270887,91.4839505 123.950733,89.3382716 C124.137382,89.0456791 125.350604,89.0456791 126.097201,88.8506173 C124.883979,88.6555555 122.737512,88.1679012 122.550862,88.2654322 C120.404393,88.8506173 119.191172,90.8012346 117.511327,92.0691358 C118.724548,90.3135803 119.75112,88.4604938 121.244316,86.9 C121.430966,86.7049382 125.443928,87.0950618 127.497072,87.9728394 L127.497072,88.8506173 L128.710293,89.3382716 L129.643541,86.997531 L131.976658,86.0222221 Z M105.565763,102.797531 C105.005814,102.602469 100.246254,101.919753 100.246254,102.114815 C98.3797596,103.480247 98.1931099,104.748148 98.1931099,105.918519 C101.179501,102.797531 101.086176,102.797531 105.565763,102.797531 L105.565763,102.797531 Z M101.926099,80.3654322 C101.926099,80.3654322 105.379114,79.8777779 105.285789,80.1703704 C105.005814,81.4382716 105.752412,84.4617284 105.752412,83.974074 L103.792593,85.6320988 C107.805556,83.4864197 112.098493,83.974074 116.391431,83.5839505 C116.391431,83.5839505 112.751766,82.5111111 113.031741,82.5111111 C113.871664,82.4135803 112.845091,78.6098765 112.565117,78.5123457 C113.218389,78.3172839 113.964987,78.1222221 114.61826,77.9271606 C109.392076,76.5617284 106.405685,77.3419753 101.926099,80.3654322 L101.926099,80.3654322 Z" id="Shape" fill="#000000"></path>
                    <path d="M131.510035,83.0962964 L130.763437,83.4864197 C130.670112,81.1456791 128.24367,81.3407407 126.28385,81.3407407 L124.604006,80.9506173 C125.070629,81.4382716 126.657149,81.4382716 126.003877,82.4135803 C125.443928,82.7061728 125.257279,83.974074 124.977304,85.0469137 L124.044058,85.0469137 C125.630577,85.7296296 127.123773,86.2172841 128.803618,86.997531 L129.83019,87.1925926 L132.256633,85.8271606 L131.510035,83.0962964 L131.510035,83.0962964 Z" id="Path" fill="#000000"></path>
                    <path d="M108.832128,81.4382716 C108.458829,80.6580247 106.49901,80.7555555 106.125712,81.2432099 C105.752412,81.6333332 106.125712,84.3641976 106.49901,83.8765433 C107.152283,83.291358 107.992206,83.0962964 108.925453,83.0962964 C109.112102,82.608642 109.018778,82.0234567 108.832128,81.4382716 Z M127.403747,85.437037 C127.590397,85.3395062 127.963696,83.974074 127.870371,83.5839505 C127.590397,82.608642 125.817227,82.8037036 125.817227,82.8037036 C125.350604,83.0962964 124.977304,84.5592593 125.163954,85.0469137 C125.257279,85.5345678 127.123773,85.6320988 127.403747,85.437037 L127.403747,85.437037 Z" id="Shape" fill="#FFFFFF"></path>
                    <path d="M50.4108543,131.959259 L51.5307509,132.05679 C58.2501308,135.47037 69.3557723,140.639506 85.5009485,137.908642 L88.0207159,142.102469 C80.9280373,145.711111 73.2754104,144.833333 66.1827318,145.125926 L50.4108543,131.959259 Z M40.7050837,104.553086 L44.0647734,119.377778 C53.1172711,125.32716 68.6091744,132.05679 81.4879855,131.471605 L78.5949194,124.644444 C51.7174004,118.792593 49.4776071,111.185185 40.7050837,104.553086 Z M49.1043084,74.2209877 C50.7841532,85.7296296 52.9306218,94.4098765 62.5430677,101.724691 C68.4225249,106.11358 74.2086576,110.502469 81.3013362,114.111111 C81.3013362,114.111111 80.6480632,117.524691 80.1814395,117.42716 C59.0900532,114.988889 43.6914746,96.7506173 41.8249803,88.362963 C43.5981499,82.0234567 46.2112421,78.0246913 49.1043084,74.2209877 L49.1043084,74.2209877 Z M59.1833778,67.6864197 C61.9831195,80.462963 68.7024991,93.337037 75.3285542,105.040741 C77.754997,108.259259 78.4082699,109.722222 82.1412588,111.67284 C87.1807936,113.330864 90.8204576,112.940741 94.4601215,112.648148 C93.4335496,110.697531 92.5936272,108.649383 91.3804058,106.796296 C83.1678306,99.9691358 86.9008194,93.7271606 89.1406125,89.825926 C84.5677014,88.6555555 78.5015947,86.0222221 77.6616721,82.608642 C76.3551261,71.6851851 77.1017238,68.2716048 78.4082699,62.6148149 C72.2488385,63.9802469 65.9027576,65.3456791 59.1833778,67.6864197 L59.1833778,67.6864197 Z" id="Shape" fill="#000000"></path>
                    <path d="M36.4121465,0 C34.3590027,1.3654321 32.3991837,3.41358024 30.2527151,5.65679012 C26.7063759,9.46049382 24.3732579,13.1666667 20.8269185,15.8975309 C20.0803208,16.5802469 18.1205017,17.5555555 15.6007343,17.7506173 C14.387513,17.8481481 13.6409153,18.0432099 11.4944467,17.7506173 C9.53462761,16.6777778 7.76145796,17.3604938 5.98828831,19.6037036 C4.02846921,22.5296296 1.50870182,28.0888889 0.482129914,31.697531 C-1.66433861,40.5728394 3.74849506,47.9851851 8.9746793,53.6419753 C13.6409153,58.3234567 16.2540074,61.3469137 18.1205017,65.6382716 C19.5203724,68.4666668 20.6402692,72.2703704 21.7601657,75.0012346 C22.1334646,75.8790123 22.1334646,75.8790123 23.2533613,76.074074 C25.679804,76.6592593 29.0394938,76.6592593 32.0258849,76.8543209 C33.3324308,76.8543209 35.1056005,76.8543209 36.7854455,76.6592593 C39.1185635,76.1716048 41.8249803,75.7814815 44.0647734,74.9037036 C46.3045667,74.3185185 48.2643858,73.5382716 50.0375555,72.8555555 C49.8509061,73.6358024 48.0777365,74.4160495 47.4244633,75.4888889 C41.3583566,84.5592593 39.6785117,92.6543209 40.7984082,105.333333 C41.3583566,110.990123 42.6649027,115.671605 44.5313971,121.035802 C45.3713195,123.474074 47.237814,127.375309 48.9176589,129.911111 C54.143843,137.616049 65.7161082,147.369136 81.8612846,151.17284 C84.6610261,151.562963 87.8340664,151.367901 90.9137821,150.490123 C98.8463829,147.954321 115.178209,142.004938 115.178209,142.004938 C115.178209,142.004938 100.712878,143.27284 94.1801473,142.590123 C92.6869519,142.297531 91.007107,142.297531 89.8872102,141.12716 C89.7005609,140.932099 89.0472878,139.566667 89.5139115,139.469136 C90.0738597,139.469136 91.7537047,138.78642 94.273472,138.493827 C88.8606383,137.908642 88.9539632,137.908642 88.5806643,136.835802 C87.8340664,134.885185 86.994144,133.032099 86.0608968,131.179012 C88.3940148,131.374074 93.7135238,131.666667 95.4866934,129.81358 C95.4866934,129.81358 92.4069777,130.203704 89.6072362,129.81358 C88.673989,129.716049 87.0874687,129.130864 86.6208452,128.935802 C85.4076238,128.448148 84.3810519,128.253086 84.1010777,127.960494 C83.6344542,126.790123 83.35448,126.4 82.8878565,124.937037 C82.1412588,122.888889 82.1412588,120.645679 81.9546092,118.597531 C83.7277788,120.938272 86.0608968,122.888889 89.0472878,123.864198 C89.0472878,123.766667 92.9669259,125.619753 95.8599926,124.644444 L96.4199406,124.449383 C96.4199406,124.546914 94.5534462,124.644444 93.8068485,124.254321 C88.0207159,121.718519 87.1807936,119.475309 86.2475463,118.304938 L83.7277788,114.403704 C84.4743766,112.84321 84.9410003,112.745679 85.8742475,112.745679 C88.8606383,113.135802 90.2605092,113.330864 92.0336789,112.940741 C93.2469001,115.671605 93.6201991,118.304938 96.4199406,120.255556 C105.845737,123.181481 107.898881,119.377778 110.231999,116.061728 C117.044704,121.328395 128.150345,122.888889 135.802972,116.159259 C145.602067,104.358025 148.681783,85.7296296 147.84186,84.6567901 C146.628639,82.5111111 145.042119,80.2679012 143.642248,80.5604938 C138.696038,81.925926 136.922868,84.5592593 132.069983,83.974074 C132.629931,83.974074 133.656504,83.974074 133.656504,83.8765433 C134.029802,79.5851851 133.656504,77.537037 133.469854,77.1469137 C131.976658,73.7333332 130.016839,70.1246913 128.710293,67.491358 C128.336994,66.9061728 127.310423,62.7123457 125.630577,61.0543209 C124.883979,60.3716048 123.11081,58.7135803 123.11081,58.7135803 L122.92416,60.5666668 C122.92416,60.5666668 123.670758,60.6641976 123.857408,61.8345678 C124.883979,66.125926 130.016839,76.3666668 130.390138,76.8543209 C132.256633,79.9753087 130.576787,83.7790123 131.976658,85.9246913 C132.069983,86.2172841 134.7764,85.9246913 136.922868,86.0222221 C140.375883,85.2419753 140.189233,83.6814815 143.175625,83.3888889 C145.228769,83.1938272 145.415418,87.1925926 145.322093,87.4851851 C144.948794,91.874074 143.642248,96.8481481 141.775754,101.52963 C137.762791,109.624691 133.283204,116.939506 126.843799,117.914815 C119.004523,119.377778 114.99156,115.769136 110.791947,113.525926 L109.205427,114.988889 C103.699268,120.74321 97.1665385,120.158025 94.5534462,112.745679 C93.2469001,109.819753 91.4737305,108.064198 89.9805351,105.625926 L82.1412588,111.575309 C81.4879855,112.940741 80.6480632,115.183951 79.7148159,117.622222 C79.0615431,119.377778 78.5015947,122.303704 78.5015947,124.741975 C77.4750228,126.497531 81.9546092,133.812346 84.8476754,138.201235 C85.687598,139.469136 87.2741182,141.809877 87.2741182,141.907407 C87.8340664,143.467901 89.0472878,144.833333 89.1406125,144.930864 C94.4601215,152.148148 82.5145574,150.490123 79.9947901,150.002469 C75.1419048,149.222222 70.3823442,147.076543 65.9027576,144.248148 C65.6227834,144.053086 65.3428092,143.955556 65.1561599,143.760494 C59.8366509,140.249383 54.9837656,135.762963 50.7841532,131.374074 C48.2643858,128.448148 45.9312679,122.401235 44.1580983,118.207407 C41.5450061,107.966667 37.8120174,90.2160495 47.9844117,76.7567901 C48.6376847,75.9765433 49.2909577,74.708642 49.9442308,74.4160495 C52.9306218,72.2703704 56.2903117,70.8074074 59.7433262,70.0271606 L59.3700274,67.6864197 C57.5968578,68.0765433 51.7174004,70.4172839 50.0375555,71.2950618 C46.2112421,72.4654322 43.0382015,73.6358024 38.1853162,74.9037036 C36.598796,75.0987654 35.1056005,75.0987654 33.5190803,74.9037036 C30.0660657,74.4160495 24.0932837,74.8061728 23.7199848,74.5135803 C21.3868669,71.1 20.7335938,64.8580247 18.5871254,61.5419753 C17.2805793,59.7864197 15.8807085,58.3234567 14.387513,56.8604938 C9.25465346,51.4962964 4.77506697,46.3271606 3.56184563,40.7679012 C3.28187147,39.1098765 2.441949,37.4518519 2.90857259,32.6728394 C4.12179393,28.1864197 6.17493774,24.4802469 9.62795234,20.8716048 C13.1742916,20.9691358 16.720631,20.9691358 19.5203724,21.5543209 C20.8269185,21.7493827 23.4400107,22.1395062 26.1464275,23.2123457 C33.0524568,25.8456791 42.1049543,30.3320988 42.1049543,30.3320988 C35.2922501,26.4308642 27.6396231,21.3592593 22.8800623,20.2864197 C22.1334646,20.1888889 21.7601657,19.7987654 21.4801917,19.2135803 C28.7595197,14.7271605 30.0660657,9.55802469 34.8256264,4.87654322 C36.9720948,3.90123457 37.8120174,3.41358024 39.6785117,3.21851851 C56.7569352,6.04691358 67.5826025,13.1666667 76.0751519,17.9456791 C79.5281666,19.8962964 82.701207,21.3592593 85.687598,23.2123457 C88.3006901,24.0901235 96.2332909,30.3320988 98.5664094,33.7456791 C100.899527,38.9148149 102.672697,44.5716048 104.259216,50.0333332 C105.379114,55.5925926 106.405685,57.8358024 106.405685,57.8358024 C106.405685,57.8358024 105.472439,53.2518519 105.565763,52.374074 C106.592335,52.7641976 108.925453,53.5444445 109.8587,53.4469137 C109.8587,53.4469137 105.472439,51.1061728 104.91249,49.0580247 C103.045995,42.425926 101.272826,31.9901235 100.712878,31.502469 C99.3130071,29.6493827 93.5268743,25.0654322 89.9805351,22.9197531 C88.673989,22.1395062 87.9273913,21.5543209 87.8340664,21.2617284 C88.9539632,20.091358 90.3538339,18.4333332 91.66038,17.4580247 C92.8736014,16.4827161 93.9934978,15.4098765 95.6733429,14.7271605 C103.045995,11.2160494 107.338933,16.0925926 108.27218,15.117284 C108.27218,15.117284 106.68566,13.1666667 107.432257,13.5567901 C108.178855,13.9469136 110.511973,14.4345679 110.791947,14.7271605 C113.498364,16.9703704 120.591043,24.9679012 124.790655,33.5506173 C125.817227,35.5987654 126.190526,36.9641976 125.723902,39.5 C125.257279,42.0358024 124.883979,43.4012346 124.324031,45.0592593 C123.857408,46.1320988 121.244316,53.837037 121.244316,54.9098765 C120.684368,59.1037036 123.017485,64.3703704 123.017485,64.3703704 C123.017485,62.9074074 122.92416,62.1271606 123.017485,61.1518519 L123.204135,59.2987654 C123.204135,59.2987654 123.11081,58.8111111 123.11081,58.6160495 C123.204135,57.3481481 123.484109,56.2753087 123.577433,55.5925926 C124.417356,50.1308642 125.910552,46.1320988 127.590397,41.2555555 C128.05702,40.0851851 128.710293,39.402469 128.710293,38.4271606 C128.710293,36.7691358 127.310423,34.6234567 126.28385,32.3802469 C125.163954,29.9419753 123.857408,27.5037036 122.457537,25.162963 C118.817873,19.6037036 115.644833,15.3123457 109.952025,12.5814815 C108.365505,11.8012346 102.019424,11.1185185 99.8729553,11.508642 C97.2598633,12.0938272 94.9267452,12.6790123 93.1535754,13.8493827 C90.2605092,15.8 88.0207159,18.725926 85.4076238,20.4814815 C79.6214913,17.4580247 76.8217498,15.117284 76.2618014,14.8246914 C72.8087868,12.8740741 68.6091744,10.6308642 64.2229127,8.48518519 C61.8897948,6.04691358 48.6376847,0.975308642 36.4121465,0 Z M110.885272,113.525926 C107.338933,110.6 104.259216,107.576543 102.299397,104.455556 C101.646125,108.064198 99.3130071,110.697531 97.4465122,113.233333 C97.0732137,113.818519 96.7932391,114.696296 98.5664094,117.232099 C99.0330326,117.914815 100.806203,118.012346 101.926099,118.012346 C100.712878,117.037037 98.9397078,116.061728 98.6597343,115.183951 C100.806203,116.646914 102.672697,117.134568 104.445866,116.841975 C104.819166,116.841975 105.379114,116.354321 105.752412,115.671605 C106.49901,113.916049 107.152283,113.525926 107.805556,113.038272 L109.205427,114.891358 L110.885272,113.525926 L110.885272,113.525926 Z" id="Shape" fill="#000000"></path>
                </g>
            </g>
        </g>
    </g>
</svg>