<?xml version="1.0" encoding="UTF-8"?>
<svg width="1935px" height="700px" viewBox="0 0 1935 700" version="1.1" xmlns="http://www.w3.org/2000/svg" xmlns:xlink="http://www.w3.org/1999/xlink">
    <title>irelia-black</title>
    <g id="irelia-black" stroke="none" stroke-width="1" fill="none" fill-rule="evenodd">
        <path d="M805.609375,524 L805.609375,190.748047 L761.664062,190.748047 L761.664062,524 L805.609375,524 Z M947.699219,524 L947.699219,412.916016 C947.699219,388.013672 954.819987,368.563802 969.061523,354.566406 C983.30306,340.56901 1003.11914,333.570312 1028.50977,333.570312 C1032.09049,333.570312 1036.56641,333.814453 1041.9375,334.302734 L1041.9375,334.302734 L1041.9375,284.986328 L1036.81055,284.986328 C1007.35091,284.986328 979.111979,304.354818 952.09375,343.091797 C951.117188,344.39388 949.652344,346.428385 947.699219,349.195312 L947.699219,349.195312 L947.699219,291.333984 L907.660156,291.333984 L907.660156,524 L947.699219,524 Z M1204.04688,534.253906 C1228.6237,534.253906 1250.23014,528.272461 1268.86621,516.30957 C1287.50228,504.34668 1299.42448,488.68099 1304.63281,469.3125 L1304.63281,469.3125 L1305.36523,467.115234 L1263.61719,467.115234 L1261.9082,471.265625 C1252.95638,492.91276 1233.34375,503.736328 1203.07031,503.736328 C1157.4974,503.736328 1134.71094,475.497396 1134.71094,419.019531 L1134.71094,419.019531 L1134.71094,411.939453 L1312.44531,411.939453 L1312.44531,405.591797 C1312.44531,366.854818 1302.88314,336.744141 1283.75879,315.259766 C1264.63444,293.775391 1237.90104,283.033203 1203.55859,283.033203 C1168.5651,283.033203 1141.26204,294.345052 1121.64941,316.96875 C1102.03678,339.592448 1092.23047,371.086589 1092.23047,411.451172 C1092.23047,449.69987 1102.15885,479.729167 1122.01562,501.539062 C1141.8724,523.348958 1169.21615,534.253906 1204.04688,534.253906 Z M1268.98828,384.107422 L1135.93164,384.107422 C1144.06966,335.442057 1166.85612,311.109375 1204.29102,311.109375 C1244.6556,311.109375 1266.05859,332.837891 1268.5,376.294922 L1268.5,376.294922 L1268.98828,384.107422 Z M1430.36523,524 L1430.36523,165.601562 L1390.32617,165.601562 L1390.32617,524 L1430.36523,524 Z M1565.86328,234.449219 L1565.86328,184.400391 L1525.82422,184.400391 L1525.82422,234.449219 L1565.86328,234.449219 Z M1566.10742,524 L1566.10742,291.333984 L1526.06836,291.333984 L1526.06836,524 L1566.10742,524 Z M1718.20703,530.347656 C1747.50391,530.347656 1772.89453,519.117188 1794.37891,496.65625 C1796.00651,495.028646 1798.44792,492.505859 1801.70312,489.087891 C1802.19141,490.878255 1802.51693,492.261719 1802.67969,493.238281 C1805.44661,504.46875 1808.86458,514.722656 1812.93359,524 L1812.93359,524 L1849.06641,524 C1841.09115,505.933594 1837.10352,487.053385 1837.10352,467.359375 L1837.10352,467.359375 L1837.10352,357.496094 C1837.10352,308.016927 1807.88802,283.277344 1749.45703,283.277344 C1694.60677,283.277344 1663.68229,303.215495 1656.68359,343.091797 L1656.68359,343.091797 L1656.19531,345.777344 L1697.94336,345.777344 L1698.91992,341.626953 C1704.29102,321.281901 1721.2181,311.109375 1749.70117,311.109375 C1783.22982,311.109375 1799.99414,328.361979 1799.99414,362.867188 L1799.99414,362.867188 L1799.99414,384.107422 L1766.05859,383.863281 C1685.49219,383.863281 1645.20898,409.986328 1645.20898,462.232422 C1645.20898,482.902995 1651.88216,499.423177 1665.22852,511.792969 C1678.57487,524.16276 1696.23438,530.347656 1718.20703,530.347656 Z M1734.80859,499.585938 C1702.09375,499.585938 1685.73633,485.751302 1685.73633,458.082031 C1685.73633,424.716146 1714.2194,408.033203 1771.18555,408.033203 L1771.18555,408.033203 L1799.99414,408.521484 L1799.75,428.052734 C1799.75,475.741536 1778.10286,499.585938 1734.80859,499.585938 Z" id="Irelia" fill="#000000" fill-rule="nonzero"></path>
        <g id="Group" transform="translate(142.000000, 128.000000)" fill="#000000">
            <polygon id="Path-8" points="201.033227 0 7.23309932e-15 221.99781 0 443 145.642988 443 145.642988 157.975278 409 157.975278 409 0"></polygon>
            <polygon id="Path-9" points="291.51155 185 171 311.258157 291.51155 443 409 311.258157"></polygon>
        </g>
    </g>
</svg>