<?xml version="1.0" encoding="UTF-8"?>
<svg width="159px" height="184px" viewBox="0 0 159 184" version="1.1" xmlns="http://www.w3.org/2000/svg" xmlns:xlink="http://www.w3.org/1999/xlink">
    <title>kayle</title>
    <g id="Page-1" stroke="none" stroke-width="1" fill="none" fill-rule="evenodd">
        <g id="kayle" transform="translate(0.000000, 0.000000)" fill="#2DA7C9" fill-rule="nonzero">
            <path d="M110.833333,59.5833332 C116.666667,59.9999998 121.25,64.9999998 120.833333,71.25 C120.416667,77.0833334 115.416667,81.25 109.166667,81.25 C102.916667,80.8333334 98.3333332,76.25 98.75,70 C98.75,63.75 104.166667,59.1666666 110.833333,59.5833332 Z M80.4166666,-7.10542736e-15 L99.1666666,11.6666666 L92.9166666,22.5 L80,14.5833332 L12.9166666,52.0833332 L12.9166666,100 L0.416666602,100 L0.833333203,44.5833332 L80.4166666,-7.10542736e-15 Z M76.25,54.1666666 C79.5833334,54.1666666 80.8333334,56.25 82.5,58.3333332 L82.9166666,58.75 L114.166667,118.75 C115.416667,121.25 116.25,123.75 114.166667,126.25 C111.25,130 106.25,129.583333 103.75,125 L100.833333,119.166667 L94.5833332,107.5 C94.1666666,106.666667 93.3333332,105.416667 92.5,104.166667 L85.8333332,117.083333 C84.5833332,120 82.9166666,122.5 81.6666666,125.416667 C79.1666666,130 73.75,130.416667 71.25,126.25 C69.5833334,123.75 70.4166666,121.25 71.6666666,118.75 L80.4166666,102.5 C81.6666666,99.5833334 83.3333332,97.0833334 84.5833332,94.1666666 C85.8333332,92.0833332 85.8333332,90.4166666 84.5833332,88.3333332 C81.6666666,83.3333332 79.5833332,78.3333332 76.6666666,73.3333332 C75.4166666,74.1666666 75,75.4166666 74.5833332,76.6666666 L62.0833332,100.416667 L50,124.166667 C48.75,126.25 47.5,128.333333 44.5833332,129.166667 C40.4166666,130 36.6666666,126.25 37.9166666,122.083333 C38.3333332,120.833333 38.75,120 39.1666666,119.166667 C49.5833332,99.1666666 59.5833332,79.5833332 70,59.5833332 C71.25,56.2499998 72.9166666,54.1666666 76.25,54.1666666 L76.25,54.1666666 Z M111.25,17.9166666 L158.333333,46.25 L157.5,137.916667 L138.75,149.166667 L132.5,137.916667 L145.416667,130.416667 L146.25,53.75 L104.583333,28.3333332 L111.25,17.9166666 Z M0.416666602,113.75 L12.9166666,114.166667 L12.5,129.583333 L79.1666666,168.75 L120.833333,144.583333 L127.083333,155.833333 L126.666667,156.25 L78.75,183.333333 L78.3333332,183.333333 L0,136.666667 L0.416666602,113.75 L0.416666602,113.75 Z" id="Shape"></path>
        </g>
    </g>
</svg>