<?xml version="1.0" encoding="UTF-8"?>
<svg width="3426px" height="613px" viewBox="0 0 3426 613" version="1.1" xmlns="http://www.w3.org/2000/svg" xmlns:xlink="http://www.w3.org/1999/xlink">
    <title>morgana-black</title>
    <g id="guinsoolab-logos" stroke="none" stroke-width="1" fill="none" fill-rule="evenodd">
        <g id="morgana-black" fill="#000000" fill-rule="nonzero">
            <path d="M529.159558,418.955564 C528.514207,420.246266 527.79715,421.536968 527.151799,422.82767 L509.225386,413.57764 C509.942443,412.286939 510.587794,410.996237 511.233144,409.777241 C527.151799,378.298459 536.115006,342.732456 535.971595,305.158694 C535.756478,250.590693 516.467657,200.540147 484.41523,161.173744 L454.442268,185.9839 C453.5818,184.836609 452.649626,183.761025 451.717453,182.68544 C419.378204,144.609738 372.411001,119.369349 319.49223,115.71236 L316.624004,164.687321 C315.189891,164.54391 313.684072,164.472204 312.321665,164.472204 C310.027084,164.328793 307.875914,164.328793 305.581333,164.328793 C227.278761,164.615615 164.034375,228.290235 164.321198,306.664513 C164.608021,384.967085 228.28264,448.211471 306.656918,447.924648 C353.409003,447.781237 394.783165,424.907134 420.525494,389.986481 C421.385962,388.83919 422.24643,387.620194 423.035192,386.472904 L462.97524,414.868342 L494.740844,437.383917 L511.233144,449.071938 C510.444382,450.219229 509.583914,451.438225 508.723447,452.585515 C463.47718,515.041139 389.978886,555.913361 307.087152,556.203541 C169.268888,556.702123 56.6910138,444.984716 56.1857159,307.094747 C55.6871346,169.276483 167.404541,56.6986084 305.294511,56.1966689 C309.811967,56.1966689 314.329423,56.2683745 318.775173,56.5551971 C320.209286,56.6269028 321.643399,56.6986084 323.149218,56.7703141 C392.847112,61.4311815 454.872502,94.8460155 497.322248,145.111678 C498.254421,146.258968 499.186595,147.334553 500.047063,148.410138 C534.967715,190.93159 556.049177,245.499591 556.26738,304.943577 C556.407705,345.95921 546.655737,384.680263 529.159558,418.955564 Z" id="Path" transform="translate(306.226548, 306.200105) rotate(-15.000000) translate(-306.226548, -306.200105) "></path>
            <path d="M1084.6,422.4 C1086.46667,422.4 1087.86667,421.733333 1088.8,420.4 C1089.73333,419.066667 1090.2,417.6 1090.2,416 C1090.2,414.4 1089.73333,412.866667 1088.8,411.4 C1087.86667,409.933333 1086.6,409.066667 1085,408.8 C1077,408 1070.46667,407 1065.4,405.8 C1060.33333,404.6 1056.4,402.666667 1053.6,400 C1050.8,397.333333 1048.86667,393.533333 1047.8,388.6 C1046.73333,383.666667 1046.2,376.8 1046.2,368 L1046.2,368 L1046.2004,219.551012 C1046.21198,207.16293 1046.47852,197.579259 1047,190.8 C1047.53333,183.866667 1049,178.6 1051.4,175 C1053.8,171.4 1057.53333,168.933333 1062.6,167.6 C1067.66667,166.266667 1074.73333,164.8 1083.8,163.2 C1085.13333,162.933333 1086.2,162.133333 1087,160.8 C1087.8,159.466667 1088.2,158 1088.2,156.4 C1088.2,154.8 1087.86667,153.333333 1087.2,152 C1086.53333,150.666667 1085.4,150 1083.8,150 C1078.46667,150 1071.33333,150.133333 1062.4,150.4 C1053.46667,150.666667 1044.66667,151 1036,151.4 C1027.33333,151.8 1019.73333,152.333333 1013.2,153 C1006.66667,153.666667 1003.26667,154.533333 1003,155.6 L1003,155.6 L923,346.4 C922.466667,347.2 921.8,347.6 921,347.6 C920.466667,347.6 919.933333,347.2 919.4,346.4 L919.4,346.4 L838.2,155.6 C837.666667,154.533333 835.6,153.666667 832,153 C828.4,152.333333 823.933333,151.8 818.6,151.4 C813.266667,151 807.333333,150.733333 800.8,150.6 C794.266667,150.466667 787.933333,150.333333 781.8,150.2 C775.666667,150.066667 770.066667,150 765,150 L765,150 L754.2,150 C752.6,150 751.333333,150.666667 750.4,152 C749.466667,153.333333 749,154.8 749,156.4 C749,158 749.466667,159.533333 750.4,161 C751.333333,162.466667 752.6,163.2 754.2,163.2 C761.133333,163.733333 766.866667,164.466667 771.4,165.4 C775.933333,166.333333 779.6,168.066667 782.4,170.6 C785.2,173.133333 787.2,176.666667 788.4,181.2 C789.6,185.733333 790.2,192 790.2,200 L790.2,200 L790.2,366.8 C790.2,376.4 789.6,383.866667 788.4,389.2 C787.2,394.533333 785.2,398.533333 782.4,401.2 C779.6,403.866667 775.866667,405.666667 771.2,406.6 C766.533333,407.533333 760.733333,408.4 753.8,409.2 C752.2,409.466667 751,410.266667 750.2,411.6 C749.4,412.933333 749.066667,414.4 749.2,416 C749.333333,417.6 749.8,419.066667 750.6,420.4 C751.4,421.733333 752.466667,422.4 753.8,422.4 C759.133333,422.4 765.733333,421.866667 773.6,420.8 C781.466667,419.733333 790.466667,419.2 800.6,419.2 C810.2,419.2 818.533333,419.733333 825.6,420.8 C832.666667,421.866667 839.133333,422.4 845,422.4 C846.6,422.4 847.733333,421.733333 848.4,420.4 C849.066667,419.066667 849.4,417.6 849.4,416 C849.4,414.4 849.066667,412.933333 848.4,411.6 C847.733333,410.266667 846.733333,409.466667 845.4,409.2 C839.266667,408.4 833.933333,407.533333 829.4,406.6 C824.866667,405.666667 821.066667,403.866667 818,401.2 C814.933333,398.533333 812.6,394.533333 811,389.2 C809.4,383.866667 808.6,376.4 808.6,366.8 L808.6,366.8 L808.6,218 C808.6,215.866667 809.466667,214.933333 811.2,215.2 C812.933333,215.466667 814.066667,216.266667 814.6,217.6 L814.6,217.6 L902.6,419.2 C902.866667,420 903.6,420.6 904.8,421 C906,421.4 907.266667,421.6 908.6,421.6 C909.933333,421.6 911.2,421.4 912.4,421 C913.6,420.6 914.333333,420 914.6,419.2 C918.333333,408 922.133333,396.866667 926,385.8 C929.866667,374.733333 933.8,364.533333 937.8,355.2 L937.8,355.2 L995.4,219.6 C995.933333,218 997.266667,217.133333 999.4,217 C1001.53333,216.866667 1002.6,217.733333 1002.6,219.6 L1002.6,219.6 L1002.6,368 C1002.6,376.8 1002.13333,383.666667 1001.2,388.6 C1000.26667,393.533333 998.4,397.333333 995.6,400 C992.8,402.666667 988.933333,404.6 984,405.8 C979.066667,407 972.466667,408 964.2,408.8 C962.6,409.066667 961.4,409.933333 960.6,411.4 C959.8,412.866667 959.4,414.4 959.4,416 C959.4,417.6 959.8,419.066667 960.6,420.4 C961.4,421.733333 962.6,422.4 964.2,422.4 C973,422.4 982.8,421.866667 993.6,420.8 C1004.4,419.733333 1014.86667,419.2 1025,419.2 C1034.6,419.2 1044.26667,419.733333 1054,420.8 C1063.73333,421.866667 1073.93333,422.4 1084.6,422.4 Z M1203,424 C1217.4,424 1230.46667,421.8 1242.2,417.4 C1253.93333,413 1264,406.533333 1272.4,398 C1280.8,389.466667 1287.26667,378.933333 1291.8,366.4 C1296.33333,353.866667 1298.6,339.466667 1298.6,323.2 C1298.6,308.533333 1296.33333,295.6 1291.8,284.4 C1287.26667,273.2 1281,263.8 1273,256.2 C1265,248.6 1255.46667,242.8 1244.4,238.8 C1233.33333,234.8 1221.26667,232.8 1208.2,232.8 C1194.6,232.8 1182.06667,235.066667 1170.6,239.6 C1159.13333,244.133333 1149.33333,250.4 1141.2,258.4 C1133.06667,266.4 1126.73333,276.066667 1122.2,287.4 C1117.66667,298.733333 1115.4,311.2 1115.4,324.8 C1115.4,341.6 1117.66667,356.2 1122.2,368.6 C1126.73333,381 1132.86667,391.266667 1140.6,399.4 C1148.33333,407.533333 1157.53333,413.666667 1168.2,417.8 C1178.86667,421.933333 1190.46667,424 1203,424 Z M1207.4,409.2 C1197.26667,409.2 1188.93333,406.666667 1182.4,401.6 C1175.86667,396.533333 1170.73333,390.133333 1167,382.4 C1163.26667,374.666667 1160.73333,366 1159.4,356.4 C1158.06667,346.8 1157.4,337.466667 1157.4,328.4 C1157.4,318 1158.13333,308 1159.6,298.4 C1161.06667,288.8 1163.73333,280.2 1167.6,272.6 C1171.46667,265 1176.73333,258.933333 1183.4,254.4 C1190.06667,249.866667 1198.73333,247.6 1209.4,247.6 C1219,247.6 1226.86667,249.866667 1233,254.4 C1239.13333,258.933333 1243.93333,264.933333 1247.4,272.4 C1250.86667,279.866667 1253.26667,288.4 1254.6,298 C1255.93333,307.6 1256.6,317.466667 1256.6,327.6 C1256.6,337.466667 1256,347.266667 1254.8,357 C1253.6,366.733333 1251.2,375.466667 1247.6,383.2 C1244,390.933333 1239,397.2 1232.6,402 C1226.2,406.8 1217.8,409.2 1207.4,409.2 Z M1429.4,422 C1431,422 1432.2,421.4 1433,420.2 C1433.8,419 1434.2,417.733333 1434.2,416.4 C1434.2,414.8 1433.8,413.4 1433,412.2 C1432.2,411 1431,410.266667 1429.4,410 C1419.8,409.2 1412.46667,408 1407.4,406.4 C1402.33333,404.8 1398.6,402.533333 1396.2,399.6 C1393.8,396.666667 1392.4,392.933333 1392,388.4 C1391.6,383.866667 1391.4,378.266667 1391.4,371.6 L1391.4,371.6 L1391.4,296.4 C1391.4,293.733333 1392.2,290 1393.8,285.2 C1395.4,280.4 1397.66667,275.733333 1400.6,271.2 C1403.53333,266.666667 1407.06667,262.733333 1411.2,259.4 C1415.33333,256.066667 1419.93333,254.4 1425,254.4 C1429.8,254.4 1432.93333,255.466667 1434.4,257.6 C1435.86667,259.733333 1436.6,262.666667 1436.6,266.4 C1436.6,269.866667 1437.8,273.066667 1440.2,276 C1442.6,278.933333 1446.86667,280.4 1453,280.4 C1459.4,280.4 1464.33333,278.533333 1467.8,274.8 C1471.26667,271.066667 1473,266.933333 1473,262.4 C1473,254.133333 1470.33333,247.133333 1465,241.4 C1459.66667,235.666667 1451.4,232.8 1440.2,232.8 C1426.6,232.8 1415.73333,236.133333 1407.6,242.8 C1399.46667,249.466667 1392.6,258.4 1387,269.6 C1386.46667,270.133333 1386.06667,270.333333 1385.8,270.2 C1385.53333,270.066667 1385.4,269.733333 1385.4,269.2 L1385.4,269.2 L1386.2,243.6 C1386.46667,239.866667 1385.4,237.6 1383,236.8 C1380.6,236 1377.53333,236.133333 1373.8,237.2 C1363.93333,239.866667 1354.26667,241.533333 1344.8,242.2 C1335.33333,242.866667 1327.93333,243.466667 1322.6,244 C1321,244 1319.86667,244.666667 1319.2,246 C1318.53333,247.333333 1318.2,248.666667 1318.2,250 C1318.2,251.333333 1318.53333,252.666667 1319.2,254 C1319.86667,255.333333 1320.86667,256 1322.2,256 C1329.66667,256.533333 1335.53333,257.466667 1339.8,258.8 C1344.06667,260.133333 1347.2,262.866667 1349.2,267 C1351.2,271.133333 1352.46667,277 1353,284.6 C1353.53333,292.2 1353.8,302.533333 1353.8,315.6 L1353.8,315.6 L1353.8,374 C1353.8,380.133333 1353.6,385.266667 1353.2,389.4 C1352.8,393.533333 1351.66667,397 1349.8,399.8 C1347.93333,402.6 1344.93333,404.8 1340.8,406.4 C1336.66667,408 1330.86667,409.2 1323.4,410 C1321.8,410.266667 1320.6,411 1319.8,412.2 C1319,413.4 1318.6,414.8 1318.6,416.4 C1318.6,417.733333 1319,419 1319.8,420.2 C1320.6,421.4 1321.66667,422 1323,422 C1331.53333,422 1340,421.533333 1348.4,420.6 C1356.8,419.666667 1365.26667,419.2 1373.8,419.2 C1381.8,419.2 1390.2,419.666667 1399,420.6 C1407.8,421.533333 1417.93333,422 1429.4,422 Z M1576.2,546 C1593.53333,546 1608.8,543.933333 1622,539.8 C1635.2,535.666667 1646.33333,530 1655.4,522.8 C1664.46667,515.6 1671.26667,507.066667 1675.8,497.2 C1680.33333,487.333333 1682.6,476.666667 1682.6,465.2 C1682.6,452.133333 1679.8,441.533333 1674.2,433.4 C1668.6,425.266667 1660.53333,418.933333 1650,414.4 C1639.46667,409.866667 1626.6,406.6 1611.4,404.6 C1596.2,402.6 1579,400.933333 1559.8,399.6 C1557.4,399.6 1554.26667,399.4 1550.4,399 C1546.53333,398.6 1542.66667,397.933333 1538.8,397 C1534.93333,396.066667 1531.66667,394.8 1529,393.2 C1526.33333,391.6 1525,389.6 1525,387.2 C1525,384 1526.66667,381.533333 1530,379.8 C1533.33333,378.066667 1537.4,376.8 1542.2,376 C1547,375.2 1551.93333,374.666667 1557,374.4 C1562.06667,374.133333 1566.2,374 1569.4,374 C1580.6,374 1591.13333,372.4 1601,369.2 C1610.86667,366 1619.6,361.333333 1627.2,355.2 C1634.8,349.066667 1640.8,341.533333 1645.2,332.6 C1649.6,323.666667 1651.8,313.333333 1651.8,301.6 C1651.53333,295.2 1650.53333,288.866667 1648.8,282.6 C1647.06667,276.333333 1644.33333,270.4 1640.6,264.8 C1642.73333,261.333333 1645.93333,258.533333 1650.2,256.4 C1654.46667,254.266667 1658.73333,253.2 1663,253.2 C1667,253.2 1669.53333,254.266667 1670.6,256.4 C1671.66667,258.533333 1672.6,260.8 1673.4,263.2 C1674.2,265.6 1675.4,267.866667 1677,270 C1678.6,272.133333 1681.93333,273.2 1687,273.2 C1693.93333,273.2 1698.6,271.4 1701,267.8 C1703.4,264.2 1704.6,260.133333 1704.6,255.6 C1704.6,251.6 1703.6,248.4 1701.6,246 C1699.6,243.6 1697.06667,241.666667 1694,240.2 C1690.93333,238.733333 1687.6,237.733333 1684,237.2 C1680.4,236.666667 1677.13333,236.4 1674.2,236.4 C1665.66667,236.4 1657.93333,238.133333 1651,241.6 C1644.06667,245.066667 1638.06667,249.333333 1633,254.4 C1626.06667,248 1618.4,242.8 1610,238.8 C1601.6,234.8 1590.33333,232.8 1576.2,232.8 C1563.66667,232.8 1552.2,234.533333 1541.8,238 C1531.4,241.466667 1522.53333,246.333333 1515.2,252.6 C1507.86667,258.866667 1502.2,266.466667 1498.2,275.4 C1494.2,284.333333 1492.2,294.266667 1492.2,305.2 C1492.2,321.2 1496.06667,333.933333 1503.8,343.4 C1511.53333,352.866667 1522.2,360.266667 1535.8,365.6 C1536.06667,365.6 1536.2,365.733333 1536.2,366 C1536.2,366.266667 1536.06667,366.4 1535.8,366.4 C1530.2,366.666667 1524.53333,367.4 1518.8,368.6 C1513.06667,369.8 1507.86667,371.733333 1503.2,374.4 C1498.53333,377.066667 1494.8,380.533333 1492,384.8 C1489.2,389.066667 1487.8,394.266667 1487.8,400.4 C1487.8,408.933333 1490.33333,415.133333 1495.4,419 C1500.46667,422.866667 1506.06667,425.866667 1512.2,428 C1507.93333,430.133333 1503.8,432.866667 1499.8,436.2 C1495.8,439.533333 1492.2,443.333333 1489,447.6 C1485.8,451.866667 1483.26667,456.733333 1481.4,462.2 C1479.53333,467.666667 1478.6,473.733333 1478.6,480.4 C1478.6,491.866667 1480.93333,501.733333 1485.6,510 C1490.26667,518.266667 1496.93333,525.066667 1505.6,530.4 C1514.26667,535.733333 1524.6,539.666667 1536.6,542.2 C1548.6,544.733333 1561.8,546 1576.2,546 Z M1570.6,359.2 C1558.86667,359.2 1549.93333,354.666667 1543.8,345.6 C1537.66667,336.533333 1534.6,323.2 1534.6,305.6 C1534.6,298.933333 1535.13333,292.133333 1536.2,285.2 C1537.26667,278.266667 1539.26667,272 1542.2,266.4 C1545.13333,260.8 1549.2,256.2 1554.4,252.6 C1559.6,249 1566.46667,247.2 1575,247.2 C1581.93333,247.2 1587.6,248.6 1592,251.4 C1596.4,254.2 1599.93333,258.2 1602.6,263.4 C1605.26667,268.6 1607.06667,274.8 1608,282 C1608.93333,289.2 1609.4,297.2 1609.4,306 C1609.4,323.333333 1606.4,336.533333 1600.4,345.6 C1594.4,354.666667 1584.46667,359.2 1570.6,359.2 Z M1589.4,528 C1580.33333,528 1571.46667,526.8 1562.8,524.4 C1554.13333,522 1546.46667,518.333333 1539.8,513.4 C1533.13333,508.466667 1527.73333,502.333333 1523.6,495 C1519.46667,487.666667 1517.4,479.066667 1517.4,469.2 C1517.4,462.266667 1518.73333,455.333333 1521.4,448.4 C1524.06667,441.466667 1527.66667,436.133333 1532.2,432.4 C1548.46667,432.933333 1563.66667,433.866667 1577.8,435.2 C1591.93333,436.533333 1604.2,438.8 1614.6,442 C1625,445.2 1633.2,449.6 1639.2,455.2 C1645.2,460.8 1648.2,468.133333 1648.2,477.2 C1648.2,484.4 1646.6,491.066667 1643.4,497.2 C1640.2,503.333333 1635.93333,508.666667 1630.6,513.2 C1625.26667,517.733333 1619.06667,521.333333 1612,524 C1604.93333,526.666667 1597.4,528 1589.4,528 Z M1850.6,424 C1864.73333,424 1877,417.733333 1887.4,405.2 C1888.2,404.4 1888.46667,403.4 1888.2,402.2 C1887.93333,401 1887.46667,399.933333 1886.8,399 C1886.13333,398.066667 1885.33333,397.333333 1884.4,396.8 C1883.46667,396.266667 1882.6,396.266667 1881.8,396.8 C1878.33333,398.933333 1875.66667,400.333333 1873.8,401 C1871.93333,401.666667 1869.53333,402 1866.6,402 C1861.53333,402 1858.13333,400.133333 1856.4,396.4 C1854.66667,392.666667 1853.8,386.133333 1853.8,376.8 L1853.8,376.8 L1853.8,296.8 C1853.8,273.866667 1847.66667,257.466667 1835.4,247.6 C1823.13333,237.733333 1806.33333,232.8 1785,232.8 C1775.66667,232.8 1766.73333,234.066667 1758.2,236.6 C1749.66667,239.133333 1742.2,242.533333 1735.8,246.8 C1729.4,251.066667 1724.33333,256.2 1720.6,262.2 C1716.86667,268.2 1715,274.533333 1715,281.2 C1715,286.8 1716.53333,291.533333 1719.6,295.4 C1722.66667,299.266667 1727.8,301.2 1735,301.2 C1740.33333,301.2 1744.86667,299.466667 1748.6,296 C1752.33333,292.533333 1754.2,288.933333 1754.2,285.2 C1754.2,282.266667 1753.26667,279.4 1751.4,276.6 C1749.53333,273.8 1748.6,270.933333 1748.6,268 C1748.6,261.866667 1751.66667,256.866667 1757.8,253 C1763.93333,249.133333 1771.93333,247.2 1781.8,247.2 C1788.46667,247.2 1794.06667,248.466667 1798.6,251 C1803.13333,253.533333 1806.66667,257 1809.2,261.4 C1811.73333,265.8 1813.53333,270.933333 1814.6,276.8 C1815.66667,282.666667 1816.2,288.933333 1816.2,295.6 L1816.2,295.6 L1816.2,306.4 C1816.2,311.2 1816.06667,314.266667 1815.8,315.6 C1815.53333,316.933333 1815.13333,317.6 1814.6,317.6 C1780.46667,317.6 1754.46667,322.733333 1736.6,333 C1718.73333,343.266667 1709.8,358 1709.8,377.2 C1709.8,392.133333 1713.93333,403.666667 1722.2,411.8 C1730.46667,419.933333 1742.2,424 1757.4,424 C1771.26667,424 1782.8,422 1792,418 C1801.2,414 1809.26667,408.933333 1816.2,402.8 C1817.26667,401.733333 1818.06667,401.866667 1818.6,403.2 C1821.26667,408.8 1825.33333,413.666667 1830.8,417.8 C1836.26667,421.933333 1842.86667,424 1850.6,424 Z M1775.4,401.2 C1766.06667,401.2 1759.4,398.466667 1755.4,393 C1751.4,387.533333 1749.4,380.8 1749.4,372.8 C1749.4,361.333333 1754.66667,351.933333 1765.2,344.6 C1775.73333,337.266667 1791.93333,332.666667 1813.8,330.8 C1814.86667,330.8 1815.53333,331.133333 1815.8,331.8 C1816.06667,332.466667 1816.2,334.266667 1816.2,337.2 L1816.2,337.2 L1816.2,380.8 C1816.2,382.933333 1815.13333,385.066667 1813,387.2 C1807.66667,391.733333 1801.6,395.2 1794.8,397.6 C1788,400 1781.53333,401.2 1775.4,401.2 Z M1988.6,422 C1990.2,422 1991.4,421.4 1992.2,420.2 C1993,419 1993.4,417.733333 1993.4,416.4 C1993.4,414.8 1993,413.4 1992.2,412.2 C1991.4,411 1990.2,410.266667 1988.6,410 C1983.53333,409.2 1979.6,408 1976.8,406.4 C1974,404.8 1972,402.533333 1970.8,399.6 C1969.6,396.666667 1968.86667,392.933333 1968.6,388.4 C1968.33333,383.866667 1968.2,378.266667 1968.2,371.6 L1968.2,304 C1968.2,297.6 1969.26667,291.533333 1971.4,285.8 C1973.53333,280.066667 1976.66667,275.066667 1980.8,270.8 C1984.93333,266.533333 1990,263.133333 1996,260.6 C2002,258.066667 2009,256.8 2017,256.8 C2025,256.8 2031.26667,258.533333 2035.8,262 C2040.33333,265.466667 2043.8,269.866667 2046.2,275.2 C2048.6,280.533333 2050.06667,286.533333 2050.6,293.2 C2051.13333,299.866667 2051.4,306.533333 2051.4,313.2 L2051.4,313.2 L2051.4,374 C2051.4,380.133333 2051.26667,385.266667 2051,389.4 C2050.73333,393.533333 2049.86667,397 2048.4,399.8 C2046.93333,402.6 2044.66667,404.8 2041.6,406.4 C2038.53333,408 2034.06667,409.2 2028.2,410 C2026.6,410.266667 2025.4,411 2024.6,412.2 C2023.8,413.4 2023.4,414.8 2023.4,416.4 C2023.4,417.733333 2023.8,419 2024.6,420.2 C2025.4,421.4 2026.46667,422 2027.8,422 C2032.86667,422 2039.26667,421.533333 2047,420.6 C2054.73333,419.666667 2062.86667,419.2 2071.4,419.2 C2079.4,419.2 2087.33333,419.666667 2095.2,420.6 C2096.05045,420.700901 2096.87519,420.796348 2097.67421,420.88634 L2098.85347,421.017239 C2104.84665,421.672413 2109.2955,422 2112.2,422 C2113.8,422 2115,421.4 2115.8,420.2 C2116.6,419 2117,417.733333 2117,416.4 C2117,414.8 2116.6,413.4 2115.8,412.2 C2115,411 2113.8,410.266667 2112.2,410 C2106.6,409.2 2102.26667,408.066667 2099.2,406.6 C2096.13333,405.133333 2093.86667,403 2092.4,400.2 C2090.93333,397.4 2090,393.733333 2089.6,389.2 C2089.2,384.666667 2089,378.8 2089,371.6 L2089,303.2 C2089,278.4 2083.33333,260.466667 2072,249.4 C2060.66667,238.333333 2045,232.8 2025,232.8 C2017.8,232.8 2011.26667,233.866667 2005.4,236 C1999.53333,238.133333 1994.26667,240.8 1989.6,244 C1984.93333,247.2 1980.93333,250.6 1977.6,254.2 C1974.26667,257.8 1971.66667,261.066667 1969.8,264 C1969.53333,264.533333 1969.2,264.733333 1968.8,264.6 C1968.4,264.466667 1968.2,264.133333 1968.2,263.6 L1968.2,263.6 L1968.2,247.6 C1968.2,244.4 1967.26667,241.533333 1965.4,239 C1963.53333,236.466667 1960.73333,235.733333 1957,236.8 C1946.86667,239.733333 1936.93333,242 1927.2,243.6 C1917.46667,245.2 1910.06667,246 1905,246 C1903.4,246 1902.13333,246.533333 1901.2,247.6 C1900.26667,248.666667 1899.8,250 1899.8,251.6 C1899.8,252.933333 1900.26667,254.133333 1901.2,255.2 C1902.13333,256.266667 1903.4,256.8 1905,256.8 C1911.4,256.8 1916.33333,257.8 1919.8,259.8 C1923.26667,261.8 1925.8,265.333333 1927.4,270.4 C1929,275.466667 1929.93333,282.333333 1930.2,291 C1930.46667,299.666667 1930.6,310.533333 1930.6,323.6 L1930.6,323.6 L1930.6,374 C1930.6,380.666667 1930.46667,386.133333 1930.2,390.4 C1929.93333,394.666667 1928.93333,398.133333 1927.2,400.8 C1925.46667,403.466667 1922.8,405.466667 1919.2,406.8 C1915.6,408.133333 1910.46667,409.2 1903.8,410 C1902.2,410.266667 1901,411 1900.2,412.2 C1899.4,413.4 1899,414.8 1899,416.4 C1899,417.733333 1899.4,419 1900.2,420.2 C1901,421.4 1902.06667,422 1903.4,422 C1910.33333,422 1917.8,421.533333 1925.8,420.6 C1933.8,419.666667 1942.06667,419.2 1950.6,419.2 C1958.6,419.2 1966.26667,419.666667 1973.6,420.6 C1980.93333,421.533333 1985.93333,422 1988.6,422 Z M2282.2,424 C2296.33333,424 2308.6,417.733333 2319,405.2 C2319.8,404.4 2320.06667,403.4 2319.8,402.2 C2319.53333,401 2319.06667,399.933333 2318.4,399 C2317.73333,398.066667 2316.93333,397.333333 2316,396.8 C2315.06667,396.266667 2314.2,396.266667 2313.4,396.8 C2309.93333,398.933333 2307.26667,400.333333 2305.4,401 C2303.53333,401.666667 2301.13333,402 2298.2,402 C2293.13333,402 2289.73333,400.133333 2288,396.4 C2286.26667,392.666667 2285.4,386.133333 2285.4,376.8 L2285.4,376.8 L2285.4,296.8 C2285.4,273.866667 2279.26667,257.466667 2267,247.6 C2254.73333,237.733333 2237.93333,232.8 2216.6,232.8 C2207.26667,232.8 2198.33333,234.066667 2189.8,236.6 C2181.26667,239.133333 2173.8,242.533333 2167.4,246.8 C2161,251.066667 2155.93333,256.2 2152.2,262.2 C2148.46667,268.2 2146.6,274.533333 2146.6,281.2 C2146.6,286.8 2148.13333,291.533333 2151.2,295.4 C2154.26667,299.266667 2159.4,301.2 2166.6,301.2 C2171.93333,301.2 2176.46667,299.466667 2180.2,296 C2183.93333,292.533333 2185.8,288.933333 2185.8,285.2 C2185.8,282.266667 2184.86667,279.4 2183,276.6 C2181.13333,273.8 2180.2,270.933333 2180.2,268 C2180.2,261.866667 2183.26667,256.866667 2189.4,253 C2195.53333,249.133333 2203.53333,247.2 2213.4,247.2 C2220.06667,247.2 2225.66667,248.466667 2230.2,251 C2234.73333,253.533333 2238.26667,257 2240.8,261.4 C2243.33333,265.8 2245.13333,270.933333 2246.2,276.8 C2247.26667,282.666667 2247.8,288.933333 2247.8,295.6 L2247.8,295.6 L2247.8,306.4 C2247.8,311.2 2247.66667,314.266667 2247.4,315.6 C2247.13333,316.933333 2246.73333,317.6 2246.2,317.6 C2212.06667,317.6 2186.06667,322.733333 2168.2,333 C2150.33333,343.266667 2141.4,358 2141.4,377.2 C2141.4,392.133333 2145.53333,403.666667 2153.8,411.8 C2162.06667,419.933333 2173.8,424 2189,424 C2202.86667,424 2214.4,422 2223.6,418 C2232.8,414 2240.86667,408.933333 2247.8,402.8 C2248.86667,401.733333 2249.66667,401.866667 2250.2,403.2 C2252.86667,408.8 2256.93333,413.666667 2262.4,417.8 C2267.86667,421.933333 2274.46667,424 2282.2,424 Z M2207,401.2 C2197.66667,401.2 2191,398.466667 2187,393 C2183,387.533333 2181,380.8 2181,372.8 C2181,361.333333 2186.26667,351.933333 2196.8,344.6 C2207.33333,337.266667 2223.53333,332.666667 2245.4,330.8 C2246.46667,330.8 2247.13333,331.133333 2247.4,331.8 C2247.66667,332.466667 2247.8,334.266667 2247.8,337.2 L2247.8,337.2 L2247.8,380.8 C2247.8,382.933333 2246.73333,385.066667 2244.6,387.2 C2239.26667,391.733333 2233.2,395.2 2226.4,397.6 C2219.6,400 2213.13333,401.2 2207,401.2 Z M2512.6,422.4 C2514.46667,422.4 2515.86667,421.733333 2516.8,420.4 C2517.73333,419.066667 2518.2,417.6 2518.2,416 C2518.2,414.4 2517.73333,412.866667 2516.8,411.4 C2515.86667,409.933333 2514.6,409.066667 2513,408.8 C2504.46667,408 2497.66667,407 2492.6,405.8 C2487.53333,404.6 2483.6,402.666667 2480.8,400 C2478,397.333333 2476.2,393.533333 2475.4,388.6 C2474.6,383.666667 2474.2,376.8 2474.2,368 L2474.2,368 L2474.2,190.4 C2474.2,180.533333 2476.86667,174.333333 2482.2,171.8 C2487.53333,169.266667 2496.2,168 2508.2,168 C2517,168 2524.6,168.733333 2531,170.2 C2537.4,171.666667 2542.8,174.333333 2547.2,178.2 C2551.6,182.066667 2555.13333,187.4 2557.8,194.2 C2560.46667,201 2562.6,209.733333 2564.2,220.4 C2564.46667,222 2565.33333,223.066667 2566.8,223.6 C2568.26667,224.133333 2569.8,224.333333 2571.4,224.2 C2573,224.066667 2574.46667,223.533333 2575.8,222.6 C2577.13333,221.666667 2577.8,220.666667 2577.8,219.6 C2577.26667,214.266667 2576.8,208.666667 2576.4,202.8 C2576,196.933333 2575.8,191.2 2575.8,185.6 C2575.8,180 2576,174.866667 2576.4,170.2 C2576.8,165.533333 2577.26667,161.6 2577.8,158.4 C2577.8,155.466667 2576.13333,153.533333 2572.8,152.6 C2569.46667,151.666667 2565.26667,151.2 2560.2,151.2 L2560.2,151.2 L2346.2,151.2 C2341.66667,151.2 2337.53333,151.733333 2333.8,152.8 C2330.06667,153.866667 2328.2,155.866667 2328.2,158.8 C2329.53333,168.933333 2330.13333,179.133333 2330,189.4 C2329.86667,199.666667 2329.26667,209.733333 2328.2,219.6 C2328.2,220.666667 2328.8,221.6 2330,222.4 C2331.2,223.2 2332.53333,223.666667 2334,223.8 C2335.46667,223.933333 2336.93333,223.733333 2338.4,223.2 C2339.86667,222.666667 2340.73333,221.6 2341,220 C2343.13333,209.333333 2345.46667,200.666667 2348,194 C2350.53333,187.333333 2353.86667,182.066667 2358,178.2 C2362.13333,174.333333 2367.4,171.666667 2373.8,170.2 C2380.2,168.733333 2388.33333,168 2398.2,168 C2409.93333,168 2418.26667,169.266667 2423.2,171.8 C2428.13333,174.333333 2430.6,180.533333 2430.6,190.4 L2430.6,190.4 L2430.6,368 C2430.6,376.8 2430.13333,383.666667 2429.2,388.6 C2428.26667,393.533333 2426.4,397.333333 2423.6,400 C2420.8,402.666667 2416.93333,404.6 2412,405.8 C2407.06667,407 2400.46667,408 2392.2,408.8 C2390.6,409.066667 2389.4,409.933333 2388.6,411.4 C2387.8,412.866667 2387.4,414.4 2387.4,416 C2387.4,417.6 2387.8,419.066667 2388.6,420.4 C2389.4,421.733333 2390.6,422.4 2392.2,422.4 C2401,422.4 2410.8,421.866667 2421.6,420.8 C2432.4,419.733333 2442.86667,419.2 2453,419.2 C2462.6,419.2 2472.26667,419.733333 2482,420.8 C2491.73333,421.866667 2501.93333,422.4 2512.6,422.4 Z M2665,424 C2679.4,424 2692.46667,421.8 2704.2,417.4 C2715.93333,413 2726,406.533333 2734.4,398 C2742.8,389.466667 2749.26667,378.933333 2753.8,366.4 C2758.33333,353.866667 2760.6,339.466667 2760.6,323.2 C2760.6,308.533333 2758.33333,295.6 2753.8,284.4 C2749.26667,273.2 2743,263.8 2735,256.2 C2727,248.6 2717.46667,242.8 2706.4,238.8 C2695.33333,234.8 2683.26667,232.8 2670.2,232.8 C2656.6,232.8 2644.06667,235.066667 2632.6,239.6 C2621.13333,244.133333 2611.33333,250.4 2603.2,258.4 C2595.06667,266.4 2588.73333,276.066667 2584.2,287.4 C2579.66667,298.733333 2577.4,311.2 2577.4,324.8 C2577.4,341.6 2579.66667,356.2 2584.2,368.6 C2588.73333,381 2594.86667,391.266667 2602.6,399.4 C2610.33333,407.533333 2619.53333,413.666667 2630.2,417.8 C2640.86667,421.933333 2652.46667,424 2665,424 Z M2669.4,409.2 C2659.26667,409.2 2650.93333,406.666667 2644.4,401.6 C2637.86667,396.533333 2632.73333,390.133333 2629,382.4 C2625.26667,374.666667 2622.73333,366 2621.4,356.4 C2620.06667,346.8 2619.4,337.466667 2619.4,328.4 C2619.4,318 2620.13333,308 2621.6,298.4 C2623.06667,288.8 2625.73333,280.2 2629.6,272.6 C2633.46667,265 2638.73333,258.933333 2645.4,254.4 C2652.06667,249.866667 2660.73333,247.6 2671.4,247.6 C2681,247.6 2688.86667,249.866667 2695,254.4 C2701.13333,258.933333 2705.93333,264.933333 2709.4,272.4 C2712.86667,279.866667 2715.26667,288.4 2716.6,298 C2717.93333,307.6 2718.6,317.466667 2718.6,327.6 C2718.6,337.466667 2718,347.266667 2716.8,357 C2715.6,366.733333 2713.2,375.466667 2709.6,383.2 C2706,390.933333 2701,397.2 2694.6,402 C2688.2,406.8 2679.8,409.2 2669.4,409.2 Z M2992.2,422 C2993.8,422 2995,421.4 2995.8,420.2 C2996.6,419 2997,417.733333 2997,416.4 C2997,414.8 2996.6,413.333333 2995.8,412 C2995,410.666667 2993.8,410 2992.2,410 C2989.26667,409.733333 2986.4,409.2 2983.6,408.4 C2980.8,407.6 2978.46667,406.533333 2976.6,405.2 C2970.2,400.133333 2964.93333,394.6 2960.8,388.6 C2956.66667,382.6 2952.93333,376.466667 2949.6,370.2 C2946.26667,363.933333 2942.93333,357.866667 2939.6,352 C2936.26667,346.133333 2932.2,340.866667 2927.4,336.2 C2922.6,331.533333 2916.66667,327.666667 2909.6,324.6 C2902.53333,321.533333 2893.66667,319.733333 2883,319.2 C2882.2,319.2 2881.66667,318.8 2881.4,318 C2881.13333,317.2 2881.53333,316.4 2882.6,315.6 C2885.8,313.2 2889.6,310.133333 2894,306.4 C2898.4,302.666667 2902.93333,298.733333 2907.6,294.6 C2912.26667,290.466667 2916.6,286.533333 2920.6,282.8 C2924.6,279.066667 2927.8,276.133333 2930.2,274 C2933.93333,270.533333 2937.13333,267.533333 2939.8,265 C2942.46667,262.466667 2945.26667,260.266667 2948.2,258.4 C2951.13333,256.533333 2954.33333,255.066667 2957.8,254 C2961.26667,252.933333 2965.66667,252.133333 2971,251.6 C2972.33333,251.333333 2973.33333,250.6 2974,249.4 C2974.66667,248.2 2975,246.933333 2975,245.6 C2975,244 2974.6,242.6 2973.8,241.4 C2973,240.2 2972.06667,239.6 2971,239.6 C2964.86667,239.6 2958.6,240.066667 2952.2,241 C2945.8,241.933333 2939.53333,242.4 2933.4,242.4 C2930.2,242.4 2927.4,242.266667 2925,242 C2922.6,241.733333 2920.13333,241.4 2917.6,241 C2915.06667,240.6 2912.26667,240.266667 2909.2,240 C2906.13333,239.733333 2902.46667,239.6 2898.2,239.6 C2896.86667,239.6 2895.8,240.2 2895,241.4 C2894.2,242.6 2893.8,244 2893.8,245.6 C2893.8,246.933333 2894.2,248.266667 2895,249.6 C2895.8,250.933333 2896.86667,251.6 2898.2,251.6 C2906.73333,252.133333 2911.33333,253.933333 2912,257 C2912.66667,260.066667 2910.33333,265.066667 2905,272 C2902.6,274.933333 2899.8,278.4 2896.6,282.4 C2893.4,286.4 2889.93333,290.533333 2886.2,294.8 C2882.46667,299.066667 2878.33333,303.2 2873.8,307.2 C2869.26667,311.2 2864.46667,314.8 2859.4,318 L2859.4,318 L2859.4,147.6 C2859.13333,146 2858.4,144.466667 2857.2,143 C2856,141.533333 2853.53333,141.333333 2849.8,142.4 C2839.93333,145.333333 2829.2,147.333333 2817.6,148.4 C2806,149.466667 2795.4,150.266667 2785.8,150.8 C2784.2,150.8 2783.06667,151.466667 2782.4,152.8 C2781.73333,154.133333 2781.46667,155.466667 2781.6,156.8 C2781.73333,158.133333 2782.13333,159.466667 2782.8,160.8 C2783.46667,162.133333 2784.46667,162.8 2785.8,162.8 C2794.33333,163.6 2801,164.666667 2805.8,166 C2810.6,167.333333 2814.2,169.866667 2816.6,173.6 C2819,177.333333 2820.46667,182.6 2821,189.4 C2821.53333,196.2 2821.8,205.333333 2821.8,216.8 L2821.8,216.8 L2821.8,374 C2821.8,380.133333 2821.66667,385.266667 2821.4,389.4 C2821.13333,393.533333 2820.06667,397 2818.2,399.8 C2816.33333,402.6 2813.33333,404.8 2809.2,406.4 C2805.06667,408 2799.26667,409.2 2791.8,410 C2790.2,410.266667 2789,411 2788.2,412.2 C2787.4,413.4 2787,414.8 2787,416.4 C2787,417.733333 2787.4,419 2788.2,420.2 C2789,421.4 2790.06667,422 2791.4,422 C2799.93333,422 2808.33333,421.533333 2816.6,420.6 C2824.86667,419.666667 2833.26667,419.2 2841.8,419.2 C2849.8,419.2 2856.86667,419.666667 2863,420.6 C2869.13333,421.533333 2875.93333,422 2883.4,422 C2885,422 2886.2,421.4 2887,420.2 C2887.8,419 2888.2,417.733333 2888.2,416.4 C2888.2,415.066667 2887.8,413.733333 2887,412.4 C2886.2,411.066667 2885,410.266667 2883.4,410 C2877.26667,408.933333 2872.6,407.466667 2869.4,405.6 C2866.2,403.733333 2863.86667,401.2 2862.4,398 C2860.93333,394.8 2860.06667,390.666667 2859.8,385.6 C2859.53333,380.533333 2859.4,374.133333 2859.4,366.4 L2859.4,335.2 C2866.6,335.2 2873.86667,337.333333 2881.2,341.6 C2888.53333,345.866667 2895.4,351.733333 2901.8,359.2 C2908.2,366.666667 2913.86667,375.266667 2918.8,385 C2923.73333,394.733333 2927.26667,405.2 2929.4,416.4 C2929.66667,417.466667 2930.2,418.666667 2931,420 C2931.8,421.333333 2933.13333,422 2935,422 C2939.53333,422 2944.4,421.8 2949.6,421.4 C2954.8,421 2960.06667,420.8 2965.4,420.8 C2970.2,420.8 2974.8,420.933333 2979.2,421.2 C2983.6,421.466667 2987.93333,421.733333 2992.2,422 Z M3102.6,424 C3118.33333,424 3131.53333,421.866667 3142.2,417.6 C3152.86667,413.333333 3162.46667,405.6 3171,394.4 C3171.8,393.333333 3172.06667,392.133333 3171.8,390.8 C3171.53333,389.466667 3170.93333,388.266667 3170,387.2 C3169.06667,386.133333 3167.86667,385.466667 3166.4,385.2 C3164.93333,384.933333 3163.53333,385.333333 3162.2,386.4 C3156.06667,391.466667 3148.73333,394.733333 3140.2,396.2 C3131.66667,397.666667 3122.86667,398.4 3113.8,398.4 C3105,398.4 3096.8,397.066667 3089.2,394.4 C3081.6,391.733333 3075.06667,387.4 3069.6,381.4 C3064.13333,375.4 3059.86667,367.6 3056.8,358 C3053.73333,348.4 3052.2,336.666667 3052.2,322.8 C3052.2,321.466667 3052.26667,320.333333 3052.4,319.4 C3052.53333,318.466667 3053.26667,318 3054.6,318 L3054.6,318 L3168.6,318 C3172.6,318 3174.6,315.2 3174.6,309.6 C3174.6,298.666667 3172.8,288.466667 3169.2,279 C3165.6,269.533333 3160.6,261.4 3154.2,254.6 C3147.8,247.8 3140,242.466667 3130.8,238.6 C3121.6,234.733333 3111.4,232.8 3100.2,232.8 C3086.86667,232.8 3074.73333,235.333333 3063.8,240.4 C3052.86667,245.466667 3043.4,252.266667 3035.4,260.8 C3027.4,269.333333 3021.2,279.466667 3016.8,291.2 C3012.4,302.933333 3010.2,315.333333 3010.2,328.4 C3010.2,342 3012,354.6 3015.6,366.2 C3019.2,377.8 3024.8,387.933333 3032.4,396.6 C3040,405.266667 3049.6,412 3061.2,416.8 C3072.8,421.6 3086.6,424 3102.6,424 Z M3127.8,304 L3055,304 C3053.93333,304 3053.33333,303 3053.2,301 C3053.06667,299 3053.26667,296.4 3053.8,293.2 C3054.6,287.066667 3055.93333,281.2 3057.8,275.6 C3059.66667,270 3062.4,265.133333 3066,261 C3069.6,256.866667 3074,253.533333 3079.2,251 C3084.4,248.466667 3090.6,247.2 3097.8,247.2 C3103.66667,247.2 3108.86667,248.4 3113.4,250.8 C3117.93333,253.2 3121.8,256.4 3125,260.4 C3128.2,264.4 3130.66667,269 3132.4,274.2 C3134.13333,279.4 3135,284.8 3135,290.4 C3135,294.133333 3134.73333,297.333333 3134.2,300 C3133.66667,302.666667 3131.53333,304 3127.8,304 L3127.8,304 Z M3286.2,422 C3287.8,422 3289,421.4 3289.8,420.2 C3290.6,419 3291,417.733333 3291,416.4 C3291,414.8 3290.6,413.4 3289.8,412.2 C3289,411 3287.8,410.266667 3286.2,410 C3281.13333,409.2 3277.2,408 3274.4,406.4 C3271.6,404.8 3269.6,402.533333 3268.4,399.6 C3267.2,396.666667 3266.46667,392.933333 3266.2,388.4 C3265.93333,383.866667 3265.8,378.266667 3265.8,371.6 L3265.8,304 C3265.8,297.6 3266.86667,291.533333 3269,285.8 C3271.13333,280.066667 3274.26667,275.066667 3278.4,270.8 C3282.53333,266.533333 3287.6,263.133333 3293.6,260.6 C3299.6,258.066667 3306.6,256.8 3314.6,256.8 C3322.6,256.8 3328.86667,258.533333 3333.4,262 C3337.93333,265.466667 3341.4,269.866667 3343.8,275.2 C3346.2,280.533333 3347.66667,286.533333 3348.2,293.2 C3348.73333,299.866667 3349,306.533333 3349,313.2 L3349,313.2 L3349,374 C3349,380.133333 3348.86667,385.266667 3348.6,389.4 C3348.33333,393.533333 3347.46667,397 3346,399.8 C3344.53333,402.6 3342.26667,404.8 3339.2,406.4 C3336.13333,408 3331.66667,409.2 3325.8,410 C3324.2,410.266667 3323,411 3322.2,412.2 C3321.4,413.4 3321,414.8 3321,416.4 C3321,417.733333 3321.4,419 3322.2,420.2 C3323,421.4 3324.06667,422 3325.4,422 C3330.46667,422 3336.86667,421.533333 3344.6,420.6 C3352.33333,419.666667 3360.46667,419.2 3369,419.2 C3377,419.2 3384.93333,419.666667 3392.8,420.6 C3393.65045,420.700901 3394.47519,420.796348 3395.27421,420.88634 L3396.45347,421.017239 C3402.44665,421.672413 3406.8955,422 3409.8,422 C3411.4,422 3412.6,421.4 3413.4,420.2 C3414.2,419 3414.6,417.733333 3414.6,416.4 C3414.6,414.8 3414.2,413.4 3413.4,412.2 C3412.6,411 3411.4,410.266667 3409.8,410 C3404.2,409.2 3399.86667,408.066667 3396.8,406.6 C3393.73333,405.133333 3391.46667,403 3390,400.2 C3388.53333,397.4 3387.6,393.733333 3387.2,389.2 C3386.8,384.666667 3386.6,378.8 3386.6,371.6 L3386.6,303.2 C3386.6,278.4 3380.93333,260.466667 3369.6,249.4 C3358.26667,238.333333 3342.6,232.8 3322.6,232.8 C3315.4,232.8 3308.86667,233.866667 3303,236 C3297.13333,238.133333 3291.86667,240.8 3287.2,244 C3282.53333,247.2 3278.53333,250.6 3275.2,254.2 C3271.86667,257.8 3269.26667,261.066667 3267.4,264 C3267.13333,264.533333 3266.8,264.733333 3266.4,264.6 C3266,264.466667 3265.8,264.133333 3265.8,263.6 L3265.8,263.6 L3265.8,247.6 C3265.8,244.4 3264.86667,241.533333 3263,239 C3261.13333,236.466667 3258.33333,235.733333 3254.6,236.8 C3244.46667,239.733333 3234.53333,242 3224.8,243.6 C3215.06667,245.2 3207.66667,246 3202.6,246 C3201,246 3199.73333,246.533333 3198.8,247.6 C3197.86667,248.666667 3197.4,250 3197.4,251.6 C3197.4,252.933333 3197.86667,254.133333 3198.8,255.2 C3199.73333,256.266667 3201,256.8 3202.6,256.8 C3209,256.8 3213.93333,257.8 3217.4,259.8 C3220.86667,261.8 3223.4,265.333333 3225,270.4 C3226.6,275.466667 3227.53333,282.333333 3227.8,291 C3228.06667,299.666667 3228.2,310.533333 3228.2,323.6 L3228.2,323.6 L3228.2,374 C3228.2,380.666667 3228.06667,386.133333 3227.8,390.4 C3227.53333,394.666667 3226.53333,398.133333 3224.8,400.8 C3223.06667,403.466667 3220.4,405.466667 3216.8,406.8 C3213.2,408.133333 3208.06667,409.2 3201.4,410 C3199.8,410.266667 3198.6,411 3197.8,412.2 C3197,413.4 3196.6,414.8 3196.6,416.4 C3196.6,417.733333 3197,419 3197.8,420.2 C3198.6,421.4 3199.66667,422 3201,422 C3207.93333,422 3215.4,421.533333 3223.4,420.6 C3231.4,419.666667 3239.66667,419.2 3248.2,419.2 C3256.2,419.2 3263.86667,419.666667 3271.2,420.6 C3278.53333,421.533333 3283.53333,422 3286.2,422 Z" id="MorganaToken"></path>
        </g>
    </g>
</svg>