<?xml version="1.0" encoding="UTF-8"?>
<svg width="600px" height="600px" viewBox="0 0 600 600" version="1.1" xmlns="http://www.w3.org/2000/svg" xmlns:xlink="http://www.w3.org/1999/xlink">
    <title>morganax</title>
    <g id="morganax" stroke="none" stroke-width="1" fill="none" fill-rule="evenodd">
        <rect fill="#FF9933" x="0" y="0" width="600" height="600"></rect>
        <path d="M522.896604,412.699657 C522.251359,413.990148 521.534419,415.280638 520.889174,416.571129 L502.965688,407.322611 C503.682628,406.03212 504.327873,404.741629 504.973119,403.522832 C520.889174,372.049191 529.850917,336.488995 529.707529,298.921369 C529.492447,244.362279 510.206776,194.319907 478.159584,154.959932 L448.191516,179.766036 C447.331189,178.618933 446.399167,177.543524 445.467146,176.468115 C413.133178,138.398631 366.173645,113.162364 313.263516,109.505973 L310.395758,158.472935 C308.961879,158.329548 307.456306,158.257854 306.094121,158.257854 C303.799915,158.114466 301.649097,158.114466 299.354891,158.114466 C221.065105,158.401241 157.831048,222.065463 158.117823,300.426942 C158.404599,378.716728 222.06882,441.950785 300.4303,441.664009 C347.174751,441.520622 388.542156,418.650254 414.280281,383.735304 C415.140608,382.588201 416.000936,381.369404 416.789569,380.2223 L456.723095,408.613102 L488.483512,431.125 L504.973119,442.811113 C504.184485,443.958216 503.324158,445.177013 502.463831,446.324116 C457.224953,508.76954 383.738661,549.635087 300.860464,549.925221 C163.064706,550.423721 50.5052154,438.724558 50,300.857106 C49.5015002,163.061348 161.200663,50.5018576 299.068115,50 C303.584833,50 308.101552,50.0716939 312.546576,50.3584697 C313.980455,50.4301637 315.414334,50.5018576 316.919907,50.5735515 C386.606419,55.2336578 448.62168,88.6430352 491.064494,138.900489 C491.996515,140.047592 492.928536,141.123001 493.788864,142.19841 C528.703814,184.712918 549.781833,239.272009 550,298.706288 C550.140303,339.715223 540.389926,378.429952 522.896604,412.699657 Z" id="Path" fill="#FFFFFF" fill-rule="nonzero" transform="translate(300.000000, 299.962610) rotate(-15.000000) translate(-300.000000, -299.962610) "></path>
    </g>
</svg>