<?xml version="1.0" encoding="UTF-8"?>
<svg width="147px" height="158px" viewBox="0 0 147 158" version="1.1" xmlns="http://www.w3.org/2000/svg" xmlns:xlink="http://www.w3.org/1999/xlink">
    <title>postgresql</title>
    <g id="Mage-Data-Center" stroke="none" stroke-width="1" fill="none" fill-rule="evenodd">
        <g id="bigdata-ecosystem" transform="translate(-101, -413)" fill-rule="nonzero">
            <g id="Group" transform="translate(101, 81)">
                <g id="postgresql" transform="translate(0, 332)">
                    <path d="M146.927134,94.7661074 C145.935028,91.9661695 143.525737,89.9772231 140.682398,89.6108791 C139.045044,89.3153222 137.371092,89.3153222 135.733739,89.6108791 C133.220844,90.2162839 130.653917,90.545401 128.0751,90.5928272 C134.953855,78.6048102 140.188898,65.6732448 143.628028,52.1741006 C148.812337,31.3076995 146.102358,21.8564473 142.803252,17.5604235 C134.276971,6.308257 121.215543,-0.177577624 107.455688,0.00809798399 C101.153723,-0.0965890067 94.8741001,0.814287567 88.8393042,2.70845576 C85.0158569,2.12673165 81.1564326,1.83955118 77.2924333,1.84925101 C70.6180563,1.63134208 64.0147048,3.32985872 58.2047489,6.75899244 C53.8341551,5.17169196 49.3400851,3.98074239 44.7726747,3.19942991 C34.0299433,0.524644436 22.7067895,2.42434431 13.3133431,8.47740194 C3.2804354,17.1338881 -1.60535227,30.6753791 0.470394887,44.0730273 C1.8741393,56.5658508 4.39878452,68.8941179 8.01120849,80.8960878 C10.1258545,88.4218331 12.886239,95.7340982 16.2589734,102.744437 C18.7137645,109.126256 23.4422813,114.272059 29.4553971,117.105431 C33.9334481,118.600029 38.8370013,117.475279 42.2983453,114.159586 C43.0643656,115.129151 43.9802588,115.958825 45.0083252,116.614457 C46.5868206,117.599984 48.2930928,118.344052 50.0748093,118.823841 C55.9968635,120.536428 62.2975664,120.147787 67.9842416,117.719149 C67.9228444,118.618132 67.9228444,119.520524 67.9842416,120.419507 C67.9234667,121.646126 67.9234667,122.875194 67.9842416,124.101813 C67.8822976,130.407847 68.6763943,136.694904 70.3407459,142.75883 C70.3000337,143.084772 70.3000337,143.414836 70.3407459,143.740778 C71.326901,147.436269 73.1909232,150.813367 75.7607057,153.560261 C78.9643946,156.612844 83.2069289,158.20391 87.5432269,157.979029 C89.3264651,157.97035 91.1037883,157.764626 92.8453616,157.365311 C99.3222185,156.360274 105.161223,152.745893 109.10524,147.300341 C114.331492,137.796275 116.864462,126.94355 116.410404,116.000739 C116.468477,115.593831 116.468477,115.180213 116.410404,114.773304 L116.410404,113.914099 L117.706482,113.914099 C123.546222,114.171459 129.371294,113.125213 134.791137,110.845511 C138.325893,109.249845 149.283638,103.235412 146.573658,95.1343381 L146.927134,94.7661074 Z" id="Path" fill="#000000"></path>
                    <path d="M137.029816,96.23903 C119.945161,99.9213359 118.766908,93.9069027 118.766908,93.9069027 C136.794165,65.9213765 144.452804,30.0802643 137.854593,21.8564473 C120.062985,-1.71031152 89.3106051,9.58209376 88.8393042,9.58209376 C84.9553252,8.80392295 81.0117704,8.39310607 77.056783,8.3546584 C70.60151,8.00645114 64.2301979,10.0019693 59.0295255,14.0008611 C59.0295255,14.0008611 4.24080168,-9.44315426 6.83295637,43.8275401 C6.83295637,55.1199454 22.3858843,129.748015 40.2953168,106.917718 C46.8935286,98.6939006 53.138265,91.4520321 53.138265,91.4520321 C56.3094004,93.7174388 60.1567674,94.7194302 63.9781844,94.2751334 C63.8603155,95.3353674 63.8603155,96.4062311 63.9781844,97.4664651 C59.3830012,102.867181 60.6790785,103.849129 51.488712,105.813026 C42.2983453,107.776922 47.60048,111.336485 51.488712,112.318433 C59.2826236,114.931775 67.8047237,112.005561 72.5794249,105.076565 L72.5794249,106.181256 C75.0770635,111.599775 76.0960989,117.629507 75.5250552,123.610839 C74.8968209,129.277504 75.2560609,135.015783 76.5854821,140.549447 C77.9993847,144.599983 79.4132874,153.683005 91.5492841,150.982647 C100.482998,150.11257 107.373199,142.406974 107.573513,133.062091 C108.162639,126.065709 109.340891,127.170401 109.458716,120.787737 L110.283493,117.841892 C111.461745,108.39064 110.283493,105.567539 116.763879,106.794974 L118.295607,106.794974 C123.122432,107.031042 127.942212,106.194214 132.434633,104.340103 C139.975447,100.657797 144.217154,94.5206204 137.029816,96.1162863 L137.029816,96.23903 Z" id="Path" fill="#0A5C82"></path>
                    <path d="M66.0990381,51.4376395 C66.0990381,49.9647169 64.3316601,49.1055122 62.4464566,48.7372816 C61.1985538,48.4421958 59.8894389,48.6621571 58.7938751,49.3509993 C58.5211873,49.5713405 58.3163887,49.8700268 58.2047489,50.210204 C58.2743546,50.8797185 58.5188719,51.5165285 58.9117003,52.0513571 C59.4809495,53.3694306 60.6184542,54.3265354 61.9751558,54.6289712 C63.6410655,54.7337665 65.1748976,53.6851719 65.7455626,52.0513571 L66.0990381,51.4376395 Z M109.812192,47.6325899 C108.044814,47.6325899 106.277436,48.7372816 106.395261,49.8419733 C106.97149,51.2721968 108.323389,52.1948961 109.812192,52.1741006 C110.737987,51.9625184 111.592414,51.4962793 112.286522,50.8239216 C112.785124,50.2843792 113.113946,49.5992826 113.229123,48.8600252 C113.229123,47.7553333 111.226095,47.3871027 109.458716,47.6325899 L109.812192,47.6325899 Z" id="Shape" fill="#FFFFFF"></path>
                    <path d="M142.803252,95.8707993 C142.803252,93.7841591 140.093271,93.1704415 136.676341,93.9069027 C126.307722,95.9935427 122.537315,94.5206204 121.359063,93.9069027 C129.558065,80.6654992 135.72006,66.1705021 139.621971,50.9466652 C141.154696,44.9698154 142.063291,38.8379977 142.331951,32.6578784 C142.69407,28.3550712 141.701433,24.0464341 139.504146,20.3835248 C131.618963,10.0545435 119.53013,4.1897227 106.866562,4.5496088 C100.420333,4.41922071 94.0014352,5.45754972 87.8967026,7.61819719 C84.444422,6.52673706 80.8890245,5.82712872 77.2924333,5.53155708 C70.825984,5.26901265 64.4419279,7.11400196 59.0295255,10.8095291 C54.2221077,8.94963711 49.2489416,7.59277176 44.1835488,6.75899244 C34.5149853,4.28236361 24.2977682,5.91646012 15.7876725,11.3005033 C6.81931422,19.223017 2.59604066,31.5324347 4.71210253,43.5820531 C6.10061323,55.6650503 8.58607152,67.5836251 12.1350909,79.1776785 C17.9085264,98.9393876 23.9176121,110.10905 30.8692998,112.441177 C31.72839,112.57759 32.6023641,112.57759 33.4614543,112.441177 C36.8636474,112.25102 39.9925006,110.44021 41.9448698,107.531435 C45.7152764,102.744437 49.6035085,98.2029265 53.727391,93.7841591 C56.2179024,95.4240194 59.0427015,96.4329498 61.9751558,96.730004 L60.443428,98.571157 C58.4403994,101.271515 58.0869237,101.885233 51.488712,103.235412 C49.6035085,103.235412 44.6548495,104.708334 44.6548495,108.267897 C44.6548495,111.827459 50.428285,113.914099 51.1352363,114.036843 C53.3315599,114.609419 55.5872216,114.897993 57.8512734,114.896048 C62.8334477,115.038875 67.6800258,113.194934 71.4011728,109.740819 C70.8934411,120.52089 71.6851165,131.324746 73.7576772,141.899625 C75.3418611,149.053254 81.4385847,154.134227 88.4858285,154.173979 C90.1064198,153.938892 91.6907365,153.485019 93.1988371,152.8238 C102.400306,152.053803 109.670461,144.37571 110.283493,134.7805 C111.226095,129.011554 112.875648,115.141535 113.700424,107.776922 C115.661689,108.307576 117.683575,108.555374 119.70951,108.513384 C124.355118,108.578913 128.965049,107.6602 133.259409,105.813026 C137.147641,103.971873 144.099329,99.4303619 142.803252,95.5025687 L142.803252,95.8707993 Z M107.455688,8.72288902 C118.632248,8.60360812 129.238054,13.8561827 136.20504,22.9611392 C141.507175,29.9575207 135.615914,61.8708399 118.884734,89.4881355 L118.295607,88.8744176 C121.648311,82.1074645 122.567711,74.3146357 120.887762,66.9033248 C120.736872,64.4509705 120.736872,61.9910672 120.887762,59.5387127 C120.887762,56.9610984 120.887762,54.8744584 121.594713,52.7878182 C122.089665,49.9947437 122.326398,47.1586651 122.301664,44.3185144 C122.361518,43.9117447 122.361518,43.4978486 122.301664,43.091079 C120.529989,35.5669093 117.009743,28.6118939 112.050871,22.8383956 C107.311284,17.3132154 101.484037,12.9173431 94.9662153,9.95032436 C98.844184,9.12998831 102.791626,8.7187665 106.748737,8.72288902 L107.455688,8.72288902 Z M116.763879,67.6397861 C117.90531,73.2483781 117.496758,79.079174 115.585628,84.4556504 C115.12271,83.6759956 114.728356,82.8543655 114.407376,82.0007797 L112.522172,78.1957302 C108.751765,71.3220921 100.73965,55.242689 104.627883,48.6145382 C105.92396,46.6506416 109.223066,44.6867448 117.588656,45.7914367 C117.573763,47.8923075 117.376585,49.9874745 116.99953,52.0513571 C116.558833,54.4387948 116.322256,56.8622444 116.292579,59.2932257 C116.0544,62.0698805 116.0544,64.8631313 116.292579,67.6397861 L116.763879,67.6397861 Z M38.4101133,105.322052 C34.9931821,109.495332 32.6366779,108.758871 31.9297265,108.39064 C26.8632426,106.672231 21.089807,96.1162863 15.9054978,78.0729866 C12.5761074,66.7392927 10.249178,55.1120152 8.95381018,43.3365661 C7.12604385,32.9526856 10.6589532,22.3308239 18.2620019,15.35104 C30.0445232,7.12722304 47.8361303,12.0369645 55.1412935,14.4918352 C47.1883088,24.5648503 43.0031178,37.295733 43.3587722,50.3329476 L43.3587722,52.5423312 C43.9238533,58.5833721 43.9238533,64.6673335 43.3587722,70.7083744 C42.3588031,77.7132501 44.4850463,84.8102847 49.1322078,89.9791095 L50.1926345,91.4520321 C48.0717807,93.7841591 43.5944228,98.816644 38.4101133,104.953821 L38.4101133,105.322052 Z M51.3708866,87.2787519 C47.5980499,83.1044979 45.8623169,77.363504 46.6578782,71.6903227 C47.3339446,65.3681272 47.3339446,58.9872703 46.6578782,52.6650748 L46.6578782,51.3148959 C51.3856563,47.6209081 57.2732179,45.9123394 63.1534079,46.527898 C65.8406579,47.1090869 67.8486649,49.4499403 68.1020668,52.2968442 C71.0887382,62.0201655 70.3715629,72.5676281 66.0990381,81.7552927 C66.0990381,82.982728 65.1564366,84.0874198 64.8029609,85.1921117 L64.8029609,86.0513164 C63.7314433,88.0720777 62.7868592,90.1631063 61.9751558,92.3112368 C57.8535021,92.2474509 53.9365271,90.4289763 51.1352363,87.2787519 L51.3708866,87.2787519 Z M71.1655224,103.726386 C66.8265824,109.895378 59.1528156,112.427667 52.1956632,109.986306 C51.1782727,109.797392 50.2130109,109.378411 49.3678581,108.758871 C50.348507,108.307524 51.3767272,107.977942 52.4313136,107.776922 C60.0899524,106.181256 61.2682045,105.076565 64.213835,101.639746 L66.3346887,98.816644 C67.7485911,97.2209782 68.4555425,97.4664651 69.5159695,97.9574393 C70.6354025,98.5567102 71.451599,99.6307312 71.7546485,100.903284 C72.1586371,101.797265 72.1586371,102.832406 71.7546485,103.726386 L71.1655224,103.726386 Z M109.812192,103.726386 C109.812192,107.899666 107.220038,127.415888 106.15961,134.289526 C105.862864,142.110017 99.8783877,148.397586 92.3740605,148.773263 C89.343261,149.803468 86.0410795,149.510271 83.2213544,147.960604 C80.4016295,146.410938 78.305059,143.737085 77.4102587,140.549447 C75.5645024,127.797672 75.0509274,114.875051 75.8785309,102.007976 C75.9336557,101.765848 75.9336557,101.513644 75.8785309,101.271515 C75.9340179,100.823311 75.9340179,100.36954 75.8785309,99.9213359 C75.2049767,97.3367672 73.4843948,95.1858834 71.1655224,94.0296462 C69.7916541,93.53395 68.2976831,93.53395 66.9238147,94.0296462 C67.4028665,92.0719334 67.9930302,90.1455646 68.6911929,88.2607001 L68.6911929,87.4014953 C68.6911929,86.419547 69.5159695,85.4375987 69.9872702,84.332907 C74.557715,74.2358968 75.3557792,62.7278819 72.2259494,52.0513571 C71.8037391,48.8697853 70.127602,46.0155391 67.6007514,44.1752391 C65.0739009,42.3349391 61.9250537,41.6751596 58.9117003,42.3546178 C55.3315225,42.8094128 51.8591989,43.9320128 48.6609067,45.6686933 L47.4826548,45.6686933 C47.8946031,35.4440395 51.5399709,25.6481261 57.8512734,17.8059107 C63.0181122,12.6402933 70.0276858,9.9687673 77.1746081,10.4412985 C89.5364313,10.3252711 101.281034,16.0589473 109.10524,26.0297275 C112.78998,30.5294064 115.663951,35.6856331 117.588656,41.2499259 C111.787323,39.7128743 105.643165,41.5954125 101.564427,46.1596673 C95.6731665,54.9972018 104.863533,72.1812969 109.223066,80.4051138 L110.990444,83.7191893 C111.958235,86.4857894 113.307759,89.0907578 114.996501,91.4520321 L116.174754,92.9249544 C113.700424,93.6614155 109.458716,95.3798251 109.812192,103.726386 L109.812192,103.726386 Z M131.492031,102.13072 C128.183011,103.481114 124.675663,104.228473 121.123412,104.340103 C118.735193,104.691913 116.300238,104.395977 114.0539,103.480899 C114.0539,98.32567 115.703452,97.7119523 117.588656,97.2209782 L118.531258,97.2209782 C124.335853,99.7461101 130.81956,100.007569 136.794165,97.9574393 C135.017743,99.6415337 132.987646,101.009958 130.78508,102.007976 L131.492031,102.13072 Z" id="Shape" fill="#FFFFFF"></path>
                </g>
            </g>
        </g>
    </g>
</svg>