<?xml version="1.0" encoding="UTF-8"?>
<svg width="2279px" height="700px" viewBox="0 0 2279 700" version="1.1" xmlns="http://www.w3.org/2000/svg" xmlns:xlink="http://www.w3.org/1999/xlink">
    <title>spotrix-black</title>
    <defs>
        <path d="M38.4765625,373.148438 L38.4765625,271.976562 C55.1432292,291.247396 76.0416667,300.882812 101.171875,300.882812 C128.255208,300.882812 150.097656,290.108073 166.699219,268.558594 C183.300781,247.009115 191.601562,218.65625 191.601562,183.5 C191.601562,151.208333 184.277344,125.752604 169.628906,107.132812 C154.980469,88.5130208 134.895833,79.203125 109.375,79.203125 C77.8645833,79.203125 54.2317708,94.046875 38.4765625,123.734375 L38.4765625,123.734375 L38.4765625,83.890625 L0,83.890625 L0,373.148438 L38.4765625,373.148438 Z M95.1171875,271.976562 C77.1484375,271.976562 58.2682292,263.122396 38.4765625,245.414062 L38.4765625,245.414062 L38.4765625,147.757812 C58.9192708,124.450521 79.8828125,112.796875 101.367188,112.796875 C134.179688,112.796875 150.585938,137.666667 150.585938,187.40625 C150.585938,243.786458 132.096354,271.976562 95.1171875,271.976562 Z M334.765625,300.882812 C366.666667,300.882812 391.731771,290.986979 409.960938,271.195312 C428.190104,251.403646 437.304688,224.190104 437.304688,189.554688 C437.304688,155.700521 428.222656,128.845052 410.058594,108.988281 C391.894531,89.1315104 367.252604,79.203125 336.132812,79.203125 C305.013021,79.203125 280.371094,89.1315104 262.207031,108.988281 C244.042969,128.845052 234.960938,155.830729 234.960938,189.945312 C234.960938,223.669271 244.010417,250.589844 262.109375,270.707031 C280.208333,290.824219 304.427083,300.882812 334.765625,300.882812 Z M335.351562,271.976562 C295.768229,271.976562 275.976562,244.632812 275.976562,189.945312 C275.976562,135.388021 296.028646,108.109375 336.132812,108.109375 C376.367188,108.109375 396.484375,135.257812 396.484375,189.554688 C396.484375,244.502604 376.106771,271.976562 335.351562,271.976562 Z M561.132812,300.882812 C569.856771,300.882812 580.143229,299.255208 591.992188,296 L591.992188,296 L591.992188,269.4375 C584.700521,271.130208 578.515625,271.976562 573.4375,271.976562 C549.479167,271.976562 537.5,258.109375 537.5,230.375 L537.5,230.375 L537.5,112.796875 L592.96875,112.796875 L592.96875,83.890625 L537.5,83.890625 L537.5,41.703125 L499.023438,45.4140625 L499.023438,83.890625 L472.460938,83.890625 L472.460938,112.796875 L499.023438,112.796875 L499.023438,237.40625 C499.023438,257.328125 504.492188,272.888021 515.429688,284.085938 C526.367188,295.283854 541.601562,300.882812 561.132812,300.882812 Z M685.546875,296 L685.546875,156.15625 C701.953125,127.25 722.330729,112.796875 746.679688,112.796875 C751.757812,112.796875 757.617188,113.903646 764.257812,116.117188 L764.257812,116.117188 L764.257812,80.1796875 C759.960938,79.5286458 755.859375,79.203125 751.953125,79.203125 C722.916667,79.203125 700.78125,94.046875 685.546875,123.734375 L685.546875,123.734375 L685.546875,83.890625 L647.070312,83.890625 L647.070312,296 L685.546875,296 Z M849.21875,45.4140625 L849.21875,6.9375 L810.742188,6.9375 L810.742188,45.4140625 L849.21875,45.4140625 Z M849.21875,296 L849.21875,83.890625 L810.742188,83.890625 L810.742188,296 L849.21875,296 Z" id="path-1"></path>
        <polygon id="path-2" points="1010.08789 300 1090.45742 203.856 1158.62305 300 1260.57617 300 1145.53742 137.966 1260.86914 0 1196.12305 0 1115.80242 96.083 1047.58789 0 945.927734 0 1060.74542 161.947 945.341796 300"></polygon>
    </defs>
    <g id="spotrix-black" stroke="none" stroke-width="1" fill="none" fill-rule="evenodd">
        <g id="Group" transform="translate(666.000000, 135.000000)">
            <g id="spotrix" transform="translate(277.514649, 58.000000)" fill-rule="nonzero">
                <g id="S-potrix">
                    <g id="potri">
                        <use fill="#000000" xlink:href="#path-1"></use>
                        <use fill="#3F3F3F" xlink:href="#path-1"></use>
                    </g>
                    <g id="x">
                        <use fill="#000000" xlink:href="#path-2"></use>
                        <use fill="#3F3F3F" xlink:href="#path-2"></use>
                    </g>
                </g>
            </g>
            <text id="S" font-family="SIL-Hei-Med-Jian, Hei" font-size="400" font-weight="normal" fill="#000000">
                <tspan x="0" y="320">S</tspan>
            </text>
        </g>
        <path d="M545.42447,134.938409 L294.757357,134.938409 C267.041847,141.35281 247.378154,146.95587 235.766278,151.747588 C208.728983,162.904709 186.810787,178.473049 172.984082,192.424317 C159.317086,206.214437 136.009391,231.814129 122.639309,261.058074 C116.725915,273.992249 111.184217,295.433527 106.014216,325.381907 L106.014216,565.938409 L336.611485,565.938409 C352.49589,565.132588 363.638512,564.192176 370.039349,563.117171 C377.912763,561.794851 387.343581,558.194403 391.645107,557.023386 C404.874802,553.421827 413.614882,546.590842 420.815168,543.346224 C449.491859,530.423835 467.892222,509.647181 481.302898,496.82175 C496.027091,482.740124 510.86671,463.25464 521.283467,435.809516 C525.624719,424.37158 530.538557,404.177529 536.024981,375.227361 L536.024981,299.605482 L359.705359,299.605482 L260.806545,398.050164 L425.258872,398.050164 C421.328953,407.550006 418.11908,414.216871 415.629252,418.050758 C407.80999,430.091016 398.55899,438.343259 391.645107,443.793423 C381.428921,451.846769 363.08438,459.89238 336.611485,467.930258 L204.113898,467.930258 L204.113898,325.381907 C211.998143,306.641754 218.202863,293.797895 222.728058,286.850328 C227.691485,279.229941 235.467992,271.428851 239.969941,267.039329 C246.00533,261.15466 252.684065,253.302242 263.595517,247.661283 C269.167805,244.780544 279.555085,241.227473 294.757357,237.002071 L451.278206,237.002071 L545.42447,134.938409 Z" id="Path-7" fill="#000000"></path>
    </g>
</svg>