<?xml version="1.0" encoding="UTF-8"?>
<svg width="700px" height="700px" viewBox="0 0 700 700" version="1.1" xmlns="http://www.w3.org/2000/svg" xmlns:xlink="http://www.w3.org/1999/xlink">
    <title>spotrix</title>
    <g id="spotrix" stroke="none" stroke-width="1" fill="none" fill-rule="evenodd">
        <rect fill="#007CAC" x="0" y="0" width="700" height="700"></rect>
        <g transform="translate(202.000000, 44.000000)" fill="#FFFFFF" fill-rule="nonzero" id="Group">
            <g>
                <path d="M285.958195,595 C281.347711,595 278.017917,594.003392 277.505641,593.505089 L33.1499677,553.142493 L37.2481761,553.142493 C25.7219651,553.142493 16.2448583,545.667938 9.3291317,531.217132 C-1.68480322,507.298557 0.108162933,473.912211 0.108162933,472.4173 L0.108162933,67.7947307 C0.108162933,46.865977 3.69409524,30.4219563 10.3536838,18.4626686 C21.6237567,-1.4694777 37.7604521,0.025433268 39.5534183,0.025433268 L287.751162,36.8999039 C298.25282,37.8965112 318.743862,56.3337466 318.743862,120.116615 L318.743862,212.801095 L302.094891,212.801095 L302.094891,119.120007 C302.094891,68.7913377 286.982747,66.7981231 286.470471,66.7981231 L38.7850042,29.9236527 C38.7850042,29.9236527 28.0272073,28.9270454 21.8798948,39.8897258 C18.5501005,45.8693697 17.0132724,54.8388356 17.0132724,66.2998197 L17.0132724,475.905426 C17.0132724,477.400337 15.9887203,499.325698 22.1360328,512.281593 C25.7219651,519.756148 31.3570016,523.742577 38.7850042,523.742577 L280.835435,564.603477 C284.677505,566.098388 292.873922,567.593299 297.484406,559.620441 C300.8142,554.637404 302.351029,545.169634 302.351029,531.715435 L302.351029,439.030955 L319,439.030955 L319,529.223917 C319,552.644189 315.157929,570.084817 307.729927,581.047498 C300.558062,593.006785 292.105508,595 285.958195,595 Z" id="Path"></path>
            </g>
        </g>
        <path d="M360.523438,499.568359 C379.729167,499.568359 396.57487,497.126953 411.060547,492.244141 C425.546224,487.361328 437.671875,480.728841 447.4375,472.34668 C457.203125,463.964518 464.527344,454.117513 469.410156,442.805664 C474.292969,431.493815 476.734375,419.408854 476.734375,406.550781 C476.734375,395.157552 474.130208,384.862956 468.921875,375.666992 C463.713542,366.471029 456.796224,358.007487 448.169922,350.276367 C439.54362,342.545247 429.737305,335.424479 418.750977,328.914062 C407.764648,322.403646 396.57487,316.13737 385.181641,310.115234 C373.788411,304.093099 362.598633,298.152344 351.612305,292.292969 C340.625977,286.433594 330.819661,280.370768 322.193359,274.104492 C313.567057,267.838216 306.64974,261.165039 301.441406,254.084961 C296.233073,247.004883 293.628906,239.233073 293.628906,230.769531 C293.628906,224.747396 294.890299,218.847331 297.413086,213.069336 C299.935872,207.291341 303.760742,202.083008 308.887695,197.444336 C314.014648,192.805664 320.402995,189.062174 328.052734,186.213867 C335.702474,183.36556 344.654297,181.941406 354.908203,181.941406 C366.464193,181.941406 376.840169,183.52832 386.036133,186.702148 C395.232096,189.875977 403.329427,194.392578 410.328125,200.251953 C417.326823,206.111328 423.348958,213.150716 428.394531,221.370117 C433.440104,229.589518 437.590495,238.663411 440.845703,248.591797 L440.845703,248.591797 L468.677734,235.896484 C464.771484,223.689453 459.644531,212.947266 453.296875,203.669922 C446.949219,194.392578 439.218099,186.580078 430.103516,180.232422 C420.988932,173.884766 410.409505,169.083333 398.365234,165.828125 C386.320964,162.572917 372.649089,160.945312 357.349609,160.945312 C340.422526,160.945312 325.407878,163.142578 312.305664,167.537109 C299.203451,171.931641 288.176432,177.994466 279.224609,185.725586 C270.272786,193.456706 263.477539,202.611979 258.838867,213.191406 C254.200195,223.770833 251.880859,235.245443 251.880859,247.615234 C251.880859,259.985026 254.444336,270.930664 259.571289,280.452148 C264.698242,289.973633 271.412109,298.599935 279.712891,306.331055 C288.013672,314.062174 297.494466,321.060872 308.155273,327.327148 C318.816081,333.593424 329.680339,339.57487 340.748047,345.271484 C351.815755,350.968099 362.680013,356.664714 373.34082,362.361328 C384.001628,368.057943 393.482422,374.120768 401.783203,380.549805 C410.083984,386.978841 416.797852,394.058919 421.924805,401.790039 C427.051758,409.521159 429.615234,418.350911 429.615234,428.279297 C429.615234,436.580078 427.74349,443.863607 424,450.129883 C420.25651,456.396159 415.292318,461.685872 409.107422,465.999023 C402.922526,470.312174 395.923828,473.567383 388.111328,475.764648 C380.298828,477.961914 372.404948,479.060547 364.429688,479.060547 C353.85026,479.060547 343.881185,477.514323 334.522461,474.421875 C325.163737,471.329427 316.659505,466.894206 309.009766,461.116211 C301.360026,455.338216 294.646159,448.298828 288.868164,439.998047 C283.090169,431.697266 278.492188,422.257161 275.074219,411.677734 L275.074219,411.677734 L246.021484,423.640625 C250.253255,435.684896 255.705729,446.386393 262.378906,455.745117 C269.052083,465.103841 277.068034,473.038411 286.426758,479.548828 C295.785482,486.059245 306.568359,491.023438 318.775391,494.441406 C330.982422,497.859375 344.898438,499.568359 360.523438,499.568359 Z" id="S" fill="#FFFFFF" fill-rule="nonzero"></path>
    </g>
</svg>