<?xml version="1.0" encoding="UTF-8"?>
<svg width="1735px" height="560px" viewBox="0 0 1735 560" version="1.1" xmlns="http://www.w3.org/2000/svg" xmlns:xlink="http://www.w3.org/1999/xlink">
    <title>taric-black</title>
    <g id="guinsoolab-logos" stroke="none" stroke-width="1" fill="none" fill-rule="evenodd">
        <g id="taric-black" fill="#000000">
            <g id="Group" transform="translate(0.000000, 81.000000)">
                <path d="M408.864201,0.772184865 L263.836357,34.6304426 L263.836357,34.6304426 C259.266207,39.3057139 256.981132,42.5681074 256.981132,44.4176231 C256.981132,46.2671388 256.981132,47.9863874 256.981132,49.5753688 L300.867928,200.195122 C362.808955,184.533931 403.089606,167.545942 421.709881,149.231156 C440.330155,130.91637 451.093528,97.6977747 454,49.5753688 C451.219181,32.5021253 447.349479,21.0270145 442.390895,15.1500364 C437.812897,9.72413347 428.875408,5.00312405 415.578431,0.987008161 C413.397828,0.328392655 411.082446,0.254312511 408.864201,0.772184865 Z" id="Path-2"></path>
                <path d="M13.786627,41.343199 C10.3758913,52.2064728 8.08636397,60.7454438 6.91804495,66.9601119 C0.329156597,102.008548 -0.423865189,135.84617 0.159580274,152.479668 C1.99743673,204.875278 22.866698,244.263123 34.4081426,272.64121 C53.2121081,318.876372 100.729052,371.995969 176.958973,432 C225.966152,414.194387 260.34977,399.135841 280.109828,386.824362 C330.7757,355.257054 367.607966,313.429155 388.551692,284.450335 C408.446695,256.922582 436.215434,213.717729 447.835514,162.865666 C453.014671,140.200518 454.930336,102.328428 453.582509,49.2493962 C421.323935,95.4629367 398.064571,125.700337 383.804417,139.961597 C368.914836,154.852334 311.915923,195.188753 296.204167,202.207427 C250.068056,222.81711 204.083258,237.340543 158.249773,245.777727 L201.516206,86.8268598 C202.67664,82.563695 200.161379,78.1669997 195.898215,77.006566 C195.815034,76.9839243 195.731493,76.9626286 195.647625,76.9426873 L23.2698303,35.9565937 C19.1850009,34.9853457 15.0443583,37.3372952 13.786627,41.343199 Z" id="Path"></path>
            </g>
            <path d="M755.8,424 L755.8,175.6 L851,175.6 L851,138.4 L617,138.4 L617,175.6 L712.6,175.6 L712.6,424 L755.8,424 Z M943.4,429.6 C961.8,429.6 977.8,426 991.4,419.6 C1003.4,413.6 1013.4,405.2 1021.4,394.8 L1021.4,424 L1060.6,424 L1060.6,292 C1060.6,266.8 1054.2,247.6 1041.8,234.4 C1027.4,219.2 1005,211.6 974.6,211.6 C949,211.6 928.2,216 913,225.6 C895.4,236 884.2,252.8 879.8,275.2 L921.8,278.8 C924.2,267.2 930.2,258.8 939.8,253.2 C947.8,248.4 958.6,246 971.8,246 C1003,246 1018.6,260.4 1018.6,289.2 L1018.6,297.6 L972.2,298.8 C941.8,299.6 917.8,305.6 901,317.6 C882.6,330 873.4,348 873.4,371.2 C873.4,388.4 879.8,402.4 893,413.2 C905,424 921.8,429.6 943.4,429.6 Z M953,397.2 C942.2,397.2 933.4,394.4 927,389.2 C920.2,384 917,377.6 917,369.6 C917,344 936.2,330.4 975,329.6 L1018.6,328.4 L1018.6,340.4 C1018.6,356.4 1011.8,370 999,380.8 C986.2,391.6 971,397.2 953,397.2 Z M1151.4,424 L1151.4,314.4 C1151.4,296.4 1156.6,281.6 1167.4,270.4 C1177.4,260 1189,254.8 1201.8,254.8 C1211.4,254.8 1221.4,256 1231.8,259.2 L1231.8,216.8 C1224.6,213.2 1215.4,211.6 1205,211.6 C1192.2,211.6 1181,215.2 1171.4,223.2 C1163.4,228.8 1156.6,237.2 1151.4,248.4 L1151.4,217.2 L1109,217.2 L1109,424 L1151.4,424 Z M1287.8,191.6 C1295.8,191.6 1303,188.8 1308.6,183.6 C1314.2,178 1317.4,171.2 1317.4,162.8 C1317.4,154.4 1314.6,147.6 1309,142.4 C1303.4,136.8 1296.2,134.4 1287.8,134.4 C1279.4,134.4 1272.6,136.8 1267,142.4 C1261.4,147.6 1258.6,154.4 1258.6,162.8 C1258.6,170.8 1261.4,178 1267,183.6 C1272.6,188.8 1279.4,191.6 1287.8,191.6 Z M1309,424 L1309,217.2 L1266.6,217.2 L1266.6,424 L1309,424 Z M1457.4,429.6 C1483.8,429.6 1505.4,422.8 1521.4,409.6 C1537.4,396 1548.2,375.2 1553,347.6 L1511,347.6 C1507,378.8 1489.4,394.8 1457.8,394.8 C1439.4,394.8 1425.8,388 1416.6,375.2 C1406.6,362 1401.8,343.6 1401.8,320.4 C1401.8,297.2 1406.6,278.8 1417,266 C1427,252.8 1440.6,246.4 1458.2,246.4 C1472.6,246.4 1484.2,249.6 1493,256.4 C1501.8,262.8 1507.4,273.2 1510.2,287.2 L1552.2,287.2 C1548.2,261.6 1537.8,242.4 1521.8,229.6 C1505.8,217.6 1484.6,211.6 1458.2,211.6 C1426.2,211.6 1401.4,222.4 1383.4,244 C1366.6,264 1358.2,289.6 1358.2,320.8 C1358.2,352.8 1366.6,378.4 1383.8,398.4 C1401.4,419.2 1425.8,429.6 1457.4,429.6 Z" id="Taric" fill-rule="nonzero"></path>
        </g>
    </g>
</svg>