<?xml version="1.0" encoding="UTF-8"?>
<svg width="1494px" height="419px" viewBox="0 0 1494 419" version="1.1" xmlns="http://www.w3.org/2000/svg" xmlns:xlink="http://www.w3.org/1999/xlink">
    <title>taric-black</title>
    <g id="guinsoolab-logos" stroke="none" stroke-width="1" fill="none" fill-rule="evenodd">
        <g id="taric-black" fill="#000000">
            <g id="Group">
                <polygon id="Path-22" fill-opacity="0.85" points="2.73405452e-17 0 2.73405452e-17 164.54314 167.841303 82.2715702 167.841303 0"></polygon>
                <polygon id="Path-28" points="336.369817 0 167.841303 82.2715702 167.841303 251.240257 -3.28913203e-15 335.248257 167.841303 419 336.369817 335.248257"></polygon>
            </g>
            <path d="M696.8,351 L696.8,102.6 L792,102.6 L792,65.4 L558,65.4 L558,102.6 L653.6,102.6 L653.6,351 L696.8,351 Z M884.4,356.6 C902.8,356.6 918.8,353 932.4,346.6 C944.4,340.6 954.4,332.2 962.4,321.8 L962.4,351 L1001.6,351 L1001.6,219 C1001.6,193.8 995.2,174.6 982.8,161.4 C968.4,146.2 946,138.6 915.6,138.6 C890,138.6 869.2,143 854,152.6 C836.4,163 825.2,179.8 820.8,202.2 L862.8,205.8 C865.2,194.2 871.2,185.8 880.8,180.2 C888.8,175.4 899.6,173 912.8,173 C944,173 959.6,187.4 959.6,216.2 L959.6,224.6 L913.2,225.8 C882.8,226.6 858.8,232.6 842,244.6 C823.6,257 814.4,275 814.4,298.2 C814.4,315.4 820.8,329.4 834,340.2 C846,351 862.8,356.6 884.4,356.6 Z M894,324.2 C883.2,324.2 874.4,321.4 868,316.2 C861.2,311 858,304.6 858,296.6 C858,271 877.2,257.4 916,256.6 L959.6,255.4 L959.6,267.4 C959.6,283.4 952.8,297 940,307.8 C927.2,318.6 912,324.2 894,324.2 Z M1092.4,351 L1092.4,241.4 C1092.4,223.4 1097.6,208.6 1108.4,197.4 C1118.4,187 1130,181.8 1142.8,181.8 C1152.4,181.8 1162.4,183 1172.8,186.2 L1172.8,143.8 C1165.6,140.2 1156.4,138.6 1146,138.6 C1133.2,138.6 1122,142.2 1112.4,150.2 C1104.4,155.8 1097.6,164.2 1092.4,175.4 L1092.4,144.2 L1050,144.2 L1050,351 L1092.4,351 Z M1228.8,118.6 C1236.8,118.6 1244,115.8 1249.6,110.6 C1255.2,105 1258.4,98.2 1258.4,89.8 C1258.4,81.4 1255.6,74.6 1250,69.4 C1244.4,63.8 1237.2,61.4 1228.8,61.4 C1220.4,61.4 1213.6,63.8 1208,69.4 C1202.4,74.6 1199.6,81.4 1199.6,89.8 C1199.6,97.8 1202.4,105 1208,110.6 C1213.6,115.8 1220.4,118.6 1228.8,118.6 Z M1250,351 L1250,144.2 L1207.6,144.2 L1207.6,351 L1250,351 Z M1398.4,356.6 C1424.8,356.6 1446.4,349.8 1462.4,336.6 C1478.4,323 1489.2,302.2 1494,274.6 L1452,274.6 C1448,305.8 1430.4,321.8 1398.8,321.8 C1380.4,321.8 1366.8,315 1357.6,302.2 C1347.6,289 1342.8,270.6 1342.8,247.4 C1342.8,224.2 1347.6,205.8 1358,193 C1368,179.8 1381.6,173.4 1399.2,173.4 C1413.6,173.4 1425.2,176.6 1434,183.4 C1442.8,189.8 1448.4,200.2 1451.2,214.2 L1493.2,214.2 C1489.2,188.6 1478.8,169.4 1462.8,156.6 C1446.8,144.6 1425.6,138.6 1399.2,138.6 C1367.2,138.6 1342.4,149.4 1324.4,171 C1307.6,191 1299.2,216.6 1299.2,247.8 C1299.2,279.8 1307.6,305.4 1324.8,325.4 C1342.4,346.2 1366.8,356.6 1398.4,356.6 Z" id="Taric" fill-rule="nonzero"></path>
        </g>
    </g>
</svg>