<?xml version="1.0" encoding="UTF-8"?>
<svg width="153px" height="175px" viewBox="0 0 153 175" version="1.1" xmlns="http://www.w3.org/2000/svg" xmlns:xlink="http://www.w3.org/1999/xlink">
    <title>tristana</title>
    <g id="Page-1" stroke="none" stroke-width="1" fill="none" fill-rule="evenodd">
        <g id="tristana" fill="#2688C7" fill-rule="nonzero">
            <path d="M68.3333332,0 L84.5833332,9.5833334 L84.5833332,29.5833334 L100.833333,19.1666666 L117.083333,28.75 L117.083333,49.1666666 L133.333333,38.3333334 L149.583333,47.9166666 L149.583333,113.333333 C151.25,115.416667 152.5,117.916667 152.5,120.416667 C152.5,126.25 147.5,131.25 141.666667,131.25 C135.833333,131.25 130.833333,126.25 130.833333,120.416667 C130.833333,117.5 131.666667,115 133.75,113.333333 L133.75,57.5 L117.5,68.3333334 L117.5,134.583333 C119.583333,136.666667 121.25,139.583333 121.25,142.916667 C121.25,149.166667 116.25,154.583333 109.583333,154.583333 C102.916666,154.583334 97.9166666,149.583333 97.9166666,142.916667 C97.9166666,140 99.1666666,137.083333 100.833333,135 L100.833333,38.75 L84.5833332,49.1666666 L84.5833332,155 C86.6666666,157.083333 88.3333332,160 88.3333332,163.333333 C88.3333332,169.583333 83.3333332,175 76.6666666,175 C70.4166666,175 65,170 65,163.333333 C65,160.416667 66.25,157.5 67.9166666,155.416667 L67.9166666,59.1666666 L51.6666666,69.5833334 L51.6666666,135 C53.3333332,137.083333 54.5833332,139.583333 54.5833332,142.083333 C54.5833332,147.916667 49.5833332,152.916667 43.75,152.916667 C37.9166668,152.916666 32.9166666,147.916667 32.9166666,142.083333 C32.9166666,139.166667 33.75,136.666667 35.8333332,135 L35.8333332,60 L68.75,39.5833334 L68.75,19.5833334 L19.1666666,50.4166666 L19.1666666,112.916667 C20.8333332,115 22.0833332,117.5 22.0833332,120 C22.0833332,125.833333 17.0833332,130.833333 11.25,130.833333 C5.4166668,130.833333 -2.77555756e-15,126.25 -2.77555756e-15,120.416667 C-2.77555756e-15,117.5 0.833333398,115 2.9166666,113.333333 L2.9166666,41.25 L68.3333332,0 Z" id="Path"></path>
        </g>
    </g>
</svg>