<?xml version="1.0" encoding="UTF-8"?>
<svg width="1179px" height="683px" viewBox="0 0 1179 683" version="1.1" xmlns="http://www.w3.org/2000/svg" xmlns:xlink="http://www.w3.org/1999/xlink">
    <title>bg-feature-1</title>
    <defs>
        <linearGradient x1="20.5345123%" y1="77.005053%" x2="43.1768625%" y2="40.7266922%" id="linearGradient-1">
            <stop stop-color="#FF5E8F" stop-opacity="0.64" offset="0%"></stop>
            <stop stop-color="#C21CB4" stop-opacity="0" offset="100%"></stop>
        </linearGradient>
        <linearGradient x1="52.8794519%" y1="-6.75831042%" x2="39.7646372%" y2="55.1212197%" id="linearGradient-2">
            <stop stop-color="#7D2A52" offset="0%"></stop>
            <stop stop-color="#57197C" stop-opacity="0" offset="100%"></stop>
        </linearGradient>
        <linearGradient x1="38.9999613%" y1="2.69490338%" x2="52.7110081%" y2="51.7037911%" id="linearGradient-3">
            <stop stop-color="#D565AF" offset="0%"></stop>
            <stop stop-color="#762AC2" stop-opacity="0" offset="100%"></stop>
        </linearGradient>
        <radialGradient cx="50.400189%" cy="50.2350035%" fx="50.400189%" fy="50.2350035%" r="103.135056%" gradientTransform="translate(0.504002,0.502350),scale(0.482447,1.000000),rotate(-0.835659),translate(-0.504002,-0.502350)" id="radialGradient-4">
            <stop stop-color="#CA3066" stop-opacity="0.8" offset="0%"></stop>
            <stop stop-color="#CA3066" stop-opacity="0.4" offset="29%"></stop>
            <stop stop-color="#D63F75" stop-opacity="0.09" offset="60%"></stop>
            <stop stop-color="#DC477D" stop-opacity="0" offset="75%"></stop>
        </radialGradient>
        <linearGradient x1="32.7271779%" y1="43.5928789%" x2="50.687469%" y2="50.254377%" id="linearGradient-5">
            <stop stop-color="#FFFFFF" stop-opacity="0.4" offset="0%"></stop>
            <stop stop-color="#DC477D" stop-opacity="0.26" offset="100%"></stop>
        </linearGradient>
        <linearGradient x1="32.7262096%" y1="43.6414138%" x2="50.6884958%" y2="50.252222%" id="linearGradient-6">
            <stop stop-color="#FFFFFF" stop-opacity="0.4" offset="0%"></stop>
            <stop stop-color="#DC477D" stop-opacity="0.26" offset="100%"></stop>
        </linearGradient>
        <linearGradient x1="32.7286141%" y1="43.6396888%" x2="50.692465%" y2="50.2500335%" id="linearGradient-7">
            <stop stop-color="#FFFFFF" stop-opacity="0.4" offset="0%"></stop>
            <stop stop-color="#DC477D" stop-opacity="0.26" offset="100%"></stop>
        </linearGradient>
        <linearGradient x1="32.7363729%" y1="43.6332367%" x2="50.7038398%" y2="50.2466638%" id="linearGradient-8">
            <stop stop-color="#FFFFFF" stop-opacity="0.4" offset="0%"></stop>
            <stop stop-color="#DC477D" stop-opacity="0.26" offset="100%"></stop>
        </linearGradient>
        <linearGradient x1="32.7587835%" y1="43.5255334%" x2="50.7319607%" y2="50.2355756%" id="linearGradient-9">
            <stop stop-color="#FFFFFF" stop-opacity="0.4" offset="0%"></stop>
            <stop stop-color="#DC477D" stop-opacity="0.26" offset="100%"></stop>
        </linearGradient>
    </defs>
    <g id="bg-feature-1" stroke="none" stroke-width="1" fill="none" fill-rule="evenodd">
        <g id="graphic-d31a42c16763ac79a45d37cbdf7614b2" transform="translate(898.527361, 485.650176) scale(-1, 1) rotate(35.000000) translate(-898.527361, -485.650176) translate(400.027361, 114.343964)">
            <polygon id="Path" fill-opacity="0.7" fill="url(#linearGradient-2)" fill-rule="nonzero" points="305.440512 97.9430804 241.440512 66.6932928 241.440512 146.443505 305.440512 177.693293"></polygon>
            <polygon id="Path" fill-opacity="0.55" fill="url(#linearGradient-3)" fill-rule="nonzero" points="306.201537 98.6632121 370.201537 67.5092808 370.201537 156.35535 306.201537 187.509281"></polygon>
            <path d="M498.952446,481 C774.267095,480.637065 997.250192,372.669878 997,239.845694 C996.750711,107.021509 773.3622,-0.360013086 498.048876,3.56467999e-13 C222.734228,0.362934516 -0.248869525,108.330122 -4.413778e-13,241.154306 C0.250611341,373.978491 223.639123,481.360013 498.952446,481 Z" id="Path" fill-opacity="0.6" fill="url(#radialGradient-4)" fill-rule="nonzero"></path>
            <path d="M773.870682,146.291263 C724.386297,122.369059 659.597599,110.441182 594.888267,110.441182 C530.178935,110.441182 465.403464,122.369059 415.905852,146.291263 C366.421466,170.213467 341.381653,201.711036 341.381653,233.441182 C341.381653,256.61028 354.728284,279.657552 381.196676,299.714548 C381.593503,300.013575 382.162289,300.091101 382.638482,299.902824 C383.498275,299.570571 383.670234,298.607038 382.969172,298.075434 C356.924062,278.339615 344.013942,255.823948 344.013942,233.441182 C344.013942,202.78532 368.220418,171.896882 417.215382,148.207254 C466.210347,124.528702 530.509624,112.656201 594.875039,112.656201 C659.240455,112.656201 723.539732,124.528702 772.534697,148.207254 C821.529661,171.896882 845.736137,202.78532 845.736137,233.441182 C845.736137,264.097044 821.542889,294.985482 772.534697,318.67511 C723.539732,342.353662 659.240455,354.226163 594.875039,354.226163 C552.599687,354.226163 510.364016,349.109469 472.466993,338.887157 L469.371739,340.37122 C508.15501,351.091911 551.528252,356.441182 594.875039,356.441182 C659.584372,356.441182 724.359842,344.513305 773.857455,320.591101 C823.34184,296.668897 848.381653,265.171328 848.381653,233.441182 C848.381653,201.711036 823.34184,170.202392 773.857455,146.291263 L773.870682,146.291263 L773.870682,146.291263 Z" id="Path" fill="url(#linearGradient-5)" opacity="0.2"></path>
            <path d="M404.214473,291.908398 C403.724457,292.096144 403.141735,292.018837 402.744425,291.709608 C380.097735,274.127763 368.668441,254.050002 368.668441,233.850758 C368.668441,205.578443 391.076744,177.527006 435.284141,156.245463 C479.504781,134.952876 537.36641,124.350758 595.16182,124.350758 C652.95723,124.350758 710.832102,134.96392 755.052742,156.245463 C799.260139,177.527006 821.668441,205.578443 821.668441,233.850758 C821.668441,262.123073 799.260139,290.17451 755.052742,311.456053 C710.832102,332.737596 652.970473,343.350758 595.16182,343.350758 C558.927117,343.350758 522.652684,339.176174 489.742144,330.815962 L492.907383,329.302952 C524.890865,337.188277 560.013099,341.141983 595.16182,341.141983 C652.612894,341.141983 709.99775,330.584041 753.728374,309.534419 C797.458998,288.484797 819.019706,261.051817 819.019706,233.839714 C819.019706,206.627611 797.458998,179.194631 753.728374,158.145009 C710.010994,137.095387 652.626138,126.537445 595.16182,126.537445 C537.697502,126.537445 480.325889,137.095387 436.608509,158.145009 C392.877885,179.194631 371.317177,206.627611 371.317177,233.839714 C371.317177,253.27693 382.322673,272.835629 404.545565,290.086159 C405.234236,290.627309 405.062068,291.566038 404.201229,291.897354 L404.214473,291.908398 L404.214473,291.908398 Z" id="Path" fill="url(#linearGradient-6)" opacity="0.35"></path>
            <path d="M427.932783,282.572846 C427.429447,282.760534 426.846636,282.67221 426.449265,282.363078 C407.878794,267.37013 398.487594,250.378858 398.487594,233.277182 C398.487594,208.590708 418.064737,184.125043 456.609722,165.577066 C495.167953,147.029089 545.607576,137.777182 595.994216,137.777182 C646.380857,137.777182 696.82048,147.018049 735.365465,165.577066 C773.91045,184.125043 793.487594,208.590708 793.487594,233.277182 C793.487594,257.963656 773.91045,282.42932 735.365465,300.977297 C696.807234,319.525274 646.367611,328.777182 595.994216,328.777182 C567.396752,328.777182 538.786041,325.796257 512.334379,319.834407 L515.606067,318.277702 C541.077547,323.808973 568.522636,326.569089 595.994216,326.569089 C646.023223,326.569089 695.986001,317.383424 734.040895,299.067297 C772.109035,280.75117 790.838454,256.903771 790.838454,233.277182 C790.838454,209.650592 772.109035,185.803193 734.040895,167.487066 C695.986001,149.170939 646.023223,139.985274 595.994216,139.985274 C545.96521,139.985274 496.002432,149.170939 457.934292,167.487066 C419.866152,185.803193 401.136733,209.650592 401.136733,233.277182 C401.136733,249.639147 410.117318,266.111517 428.290417,280.773251 C427.907554,280.319134 427.993813,279.69794 428.491004,279.328723 C428.988195,278.959507 429.738442,278.959507 430.235633,279.328723 C430.732824,279.69794 430.819083,280.319134 430.43622,280.773251 L430.43622,280.784291 L427.932783,282.572846 Z" id="Path" fill="url(#linearGradient-7)" opacity="0.5"></path>
            <path d="M449.576798,275.075338 C449.073084,275.27414 448.463324,275.174739 448.065654,274.843404 C433.39165,262.363102 425.95523,248.369702 425.95523,234.265856 C425.95523,213.027254 442.791231,192.020587 475.877334,176.105441 C508.963437,160.190296 552.24181,152.260334 595.45523,152.260334 C638.66865,152.260334 681.948348,160.190296 715.034451,176.105441 C748.107298,192.020587 764.95523,213.027254 764.95523,234.265856 C764.95523,255.504458 748.120554,276.511125 715.034451,292.415227 C681.948348,308.330372 638.66865,316.260334 595.45523,316.260334 C574.352234,316.260334 553.224054,314.371722 533.287556,310.583453 L536.707513,308.948865 C555.596815,312.350576 575.518732,314.051431 595.45523,314.051431 C638.324003,314.051431 681.113242,306.187737 713.708886,290.504526 C746.30453,274.821315 762.3041,254.43314 762.3041,234.265856 C762.3041,214.098572 746.30453,193.699353 713.708886,178.027187 C681.113242,162.355021 638.324003,154.480281 595.45523,154.480281 C552.586457,154.480281 509.798543,162.343976 477.202899,178.027187 C444.607255,193.710398 428.60636,214.098572 428.60636,234.265856 C428.60636,247.662853 435.659691,261.15925 449.949282,273.297172 C450.598809,273.849397 450.398649,274.755047 449.563543,275.075338 L449.576798,275.075338 L449.576798,275.075338 Z" id="Path" fill="url(#linearGradient-8)" opacity="0.6"></path>
            <path d="M473.149617,265.473851 C472.618827,265.674176 471.995149,265.562884 471.597057,265.206751 C460.914917,255.301796 455.487594,244.328441 455.487594,233.277182 C455.487594,215.492779 469.500438,197.942088 496.91572,184.664996 C524.331001,171.387905 560.199107,164.777182 595.987594,164.777182 C631.776081,164.777182 667.630916,171.387905 695.059467,184.664996 C722.474749,197.942088 736.487594,215.492779 736.487594,233.277182 C736.487594,251.061584 722.474749,268.612275 695.059467,281.889367 C667.630916,295.166459 631.776081,301.777182 595.987594,301.777182 C582.797473,301.777182 569.594082,300.875719 556.815323,299.083924 L560.491041,297.325516 C572.102063,298.805695 584.044828,299.551349 595.987594,299.551349 C631.431067,299.551349 666.808192,292.996272 693.732493,279.964022 C720.670064,266.920642 733.833646,249.993185 733.833646,233.277182 C733.833646,216.561178 720.670064,199.633721 693.732493,186.590342 C666.808192,173.558091 631.431067,167.003014 595.987594,167.003014 C560.54412,167.003014 525.166995,173.558091 498.242694,186.590342 C471.305123,199.633721 458.141541,216.561178 458.141541,233.277182 C458.141541,243.660691 463.237121,254.144363 473.560979,263.715443 C474.158117,264.271901 473.959071,265.162234 473.149617,265.473851 Z" id="Path" fill="url(#linearGradient-9)" opacity="0.7"></path>
        </g>
    </g>
</svg>