<?xml version="1.0" encoding="UTF-8"?>
<svg width="812px" height="594px" viewBox="0 0 812 594" version="1.1" xmlns="http://www.w3.org/2000/svg" xmlns:xlink="http://www.w3.org/1999/xlink">
    <title>darkseal-ground</title>
    <defs>
        <linearGradient x1="-8.25625951%" y1="87.1447399%" x2="47.2066702%" y2="57.7019819%" id="linearGradient-1">
            <stop stop-color="#00B589" stop-opacity="0.94" offset="9.2%"></stop>
            <stop stop-color="#1379C2" stop-opacity="0.4" offset="57.8%"></stop>
            <stop stop-color="#1379C2" stop-opacity="0" offset="100%"></stop>
        </linearGradient>
        <linearGradient x1="99.254097%" y1="94.0095637%" x2="103.673288%" y2="-29.6246241%" id="linearGradient-2">
            <stop stop-color="#89DCFF" stop-opacity="0.15" offset="0%"></stop>
            <stop stop-color="#C2FBFF" stop-opacity="0.26" offset="100%"></stop>
        </linearGradient>
        <linearGradient x1="9.85274526%" y1="100.806412%" x2="97.0802532%" y2="-21.966086%" id="linearGradient-3">
            <stop stop-color="#85FFE9" stop-opacity="0.8" offset="0%"></stop>
            <stop stop-color="#B8FFE1" stop-opacity="0.02" offset="100%"></stop>
        </linearGradient>
        <polygon id="path-4" points="65.621 81.886 18.211 63.267 5.68434189e-14 40.775 22.166 19.062 75.214 0 245.709 60.2 65.621 81.886"></polygon>
        <polygon id="path-6" points="65.367 82.092 18.212 63.267 0 40.775 22.166 19.062 75.215 0 245.71 60.2 65.367 82.092"></polygon>
        <linearGradient x1="-55.2164202%" y1="-31.0730995%" x2="98.4772438%" y2="-44.0835865%" id="linearGradient-8">
            <stop stop-color="#BFECFF" stop-opacity="0.13" offset="0%"></stop>
            <stop stop-color="#E2F8FA" stop-opacity="0.19" offset="100%"></stop>
        </linearGradient>
        <linearGradient x1="-0.0153158902%" y1="49.9987237%" x2="100.005105%" y2="49.9987237%" id="linearGradient-9">
            <stop stop-color="#59F5FF" stop-opacity="0.62" offset="0%"></stop>
            <stop stop-color="#BBFBFF" stop-opacity="0.62" offset="0%"></stop>
            <stop stop-color="#B8FFE1" stop-opacity="0.02" offset="100%"></stop>
        </linearGradient>
        <linearGradient x1="-7.10912572%" y1="63.063178%" x2="112.663689%" y2="44.6356094%" id="linearGradient-10">
            <stop stop-color="#79F5D7" offset="0%"></stop>
            <stop stop-color="#8DEAFF" stop-opacity="0.253" offset="95.8%"></stop>
            <stop stop-color="#CEFCF2" stop-opacity="0.22" offset="100%"></stop>
        </linearGradient>
        <linearGradient x1="47.6091788%" y1="115.329347%" x2="56.0023026%" y2="56.9341306%" id="linearGradient-11">
            <stop stop-color="#56C0A7" offset="0%"></stop>
            <stop stop-color="#008196" stop-opacity="0" offset="100%"></stop>
        </linearGradient>
        <linearGradient x1="50.4066841%" y1="109.45699%" x2="50.2669155%" y2="55.6855475%" id="linearGradient-12">
            <stop stop-color="#9EFED5" offset="0%"></stop>
            <stop stop-color="#008196" stop-opacity="0" offset="100%"></stop>
        </linearGradient>
        <linearGradient x1="47.6088856%" y1="115.328199%" x2="56.0027027%" y2="56.9341306%" id="linearGradient-13">
            <stop stop-color="#56C0A7" offset="0%"></stop>
            <stop stop-color="#008196" stop-opacity="0" offset="100%"></stop>
        </linearGradient>
        <linearGradient x1="99.8087982%" y1="16.2477742%" x2="-3.34238258%" y2="95.6578218%" id="linearGradient-14">
            <stop stop-color="#DFFFF1" offset="0%"></stop>
            <stop stop-color="#4DECBC" stop-opacity="0.83" offset="50%"></stop>
            <stop stop-color="#0694AB" stop-opacity="0.8" offset="98.7%"></stop>
        </linearGradient>
        <linearGradient x1="33.3332572%" y1="-2.63109243%" x2="61.594952%" y2="103.051444%" id="linearGradient-15">
            <stop stop-color="#A5FFDE" stop-opacity="0.99" offset="0%"></stop>
            <stop stop-color="#086E67" stop-opacity="0.998" offset="78.1%"></stop>
            <stop stop-color="#005459" offset="100%"></stop>
        </linearGradient>
        <linearGradient x1="49.9997191%" y1="27.4698115%" x2="62.8988539%" y2="67.9754016%" id="linearGradient-16">
            <stop stop-color="#3DEBC1" stop-opacity="0.31" offset="0%"></stop>
            <stop stop-color="#016862" stop-opacity="0.81" offset="100%"></stop>
        </linearGradient>
        <linearGradient x1="17.3043464%" y1="15.2968632%" x2="90.1650395%" y2="74.9349109%" id="linearGradient-17">
            <stop stop-color="#FFFFFF" stop-opacity="0.67" offset="0%"></stop>
            <stop stop-color="#FFFFFF" stop-opacity="0" offset="100%"></stop>
        </linearGradient>
        <linearGradient x1="11.6067609%" y1="17.9831735%" x2="90.4223753%" y2="71.866169%" id="linearGradient-18">
            <stop stop-color="#FFFFFF" stop-opacity="0.67" offset="0%"></stop>
            <stop stop-color="#FFFFFF" stop-opacity="0" offset="100%"></stop>
        </linearGradient>
        <linearGradient x1="94.7336304%" y1="55.0817163%" x2="40.7243109%" y2="44.8648877%" id="linearGradient-19">
            <stop stop-color="#FFFFFF" stop-opacity="0.67" offset="0%"></stop>
            <stop stop-color="#FFFFFF" stop-opacity="0" offset="100%"></stop>
        </linearGradient>
        <linearGradient x1="94.7338644%" y1="55.0817374%" x2="40.7242838%" y2="44.864883%" id="linearGradient-20">
            <stop stop-color="#FFFFFF" stop-opacity="0.67" offset="0%"></stop>
            <stop stop-color="#FFFFFF" stop-opacity="0" offset="100%"></stop>
        </linearGradient>
        <linearGradient x1="51.7916306%" y1="37.0689295%" x2="48.4869%" y2="38.7208877%" id="linearGradient-21">
            <stop stop-color="#000000" offset="0%"></stop>
            <stop stop-color="#000000" stop-opacity="0" offset="100%"></stop>
        </linearGradient>
        <linearGradient x1="51.1552%" y1="37.06896%" x2="49.0176666%" y2="38.13744%" id="linearGradient-22">
            <stop stop-color="#000000" offset="0%"></stop>
            <stop stop-color="#000000" stop-opacity="0" offset="100%"></stop>
        </linearGradient>
        <linearGradient x1="50%" y1="0%" x2="50%" y2="100%" id="linearGradient-23">
            <stop stop-color="#000000" stop-opacity="0" offset="0%"></stop>
            <stop stop-color="#000000" offset="100%"></stop>
        </linearGradient>
        <linearGradient x1="50%" y1="0%" x2="50%" y2="100%" id="linearGradient-24">
            <stop stop-color="#000000" stop-opacity="0" offset="0%"></stop>
            <stop stop-color="#000000" offset="100%"></stop>
        </linearGradient>
    </defs>
    <g id="darkseal-ground" stroke="none" stroke-width="1" fill="none" fill-rule="evenodd">
        <g id="darkseal" transform="translate(-427.000000, -142.000000)">
            <polygon id="Path" fill="#000000" fill-rule="nonzero" points="427 142.031374 1239 142.031374 1239 736.031374 427 736.031374"></polygon>
            <polygon id="Path" stroke="#000000" stroke-width="1.00000398" fill="url(#linearGradient-1)" fill-rule="nonzero" transform="translate(1178.987985, 486.627874) rotate(45.000000) translate(-1178.987985, -486.627874) " points="834.890115 142.530004 1523.08585 142.530004 1523.08585 830.725744 834.890115 830.725744"></polygon>
            <g id="Group" opacity="0.5" transform="translate(1051.165612, 280.415226)">
                <g fill="url(#linearGradient-2)" fill-rule="nonzero" id="Path">
                    <polygon transform="translate(137.078856, 137.078856) rotate(-135.000000) translate(-137.078856, -137.078856) " points="40.1494673 40.1494673 234.008244 40.1494673 234.008244 234.008244 40.1494673 234.008244"></polygon>
                </g>
                <path d="M168.824858,88.7576699 L207.113767,88.7576699 L207.113767,127.04658 L168.824858,127.04658 L168.824858,88.7576699 Z" id="Path" stroke="#D3FDEB" stroke-width="0.88599791" opacity="0.6" stroke-dasharray="1.769995805934135" transform="translate(187.969313, 107.902125) scale(-1, 1) rotate(135.000000) translate(-187.969313, -107.902125) "></path>
                <path d="M35.2963883,156.868148 L1.36938827,137.282148 L35.2963883,117.695148 L69.2243883,137.282148 L35.2963883,156.868148 Z M86.1883883,127.488148 L52.2613883,107.902148 L86.1883883,88.3161478 L120.115388,107.902148 L86.1883883,127.488148 Z M104.308388,78.2991478 L103.924388,78.0781478 L103.920388,78.0801478 L103.536388,78.3011478 L103.153388,78.5231478 L103.536388,78.7441478 L103.920388,78.9661478 L103.924388,78.9681478 L104.308388,78.7461478 L104.691388,78.5251478 L104.688388,78.5231478 L104.691388,78.5211478 L104.308388,78.2991478 Z M107.008388,80.7491478 L105.466388,79.8581478 L105.850388,79.6371478 L106.233388,79.4151478 L107.776388,80.3061478 L107.392388,80.5271478 L107.008388,80.7491478 Z M108.550388,81.6391478 L108.934388,81.4171478 L109.318388,81.1961478 L110.860388,82.0861478 L110.476388,82.3081478 L110.092388,82.5291478 L108.550388,81.6391478 Z M111.635388,83.4191478 L112.018388,83.1981478 L112.402388,82.9761478 L113.944388,83.8671478 L113.560388,84.0881478 L113.177388,84.3101478 L111.635388,83.4191478 Z M114.719388,85.2001478 L115.103388,84.9781478 L115.486388,84.7571478 L117.028388,85.6471478 L116.645388,85.8691478 L116.261388,86.0901478 L114.719388,85.2001478 Z M117.803388,86.9811478 L118.187388,86.7591478 L118.571388,86.5371478 L120.113388,87.4281478 L119.729388,87.6491478 L119.345388,87.8711478 L117.803388,86.9811478 Z M120.887388,88.7611478 L121.271388,88.5401478 L121.655388,88.3181478 L123.197388,89.2081478 L122.813388,89.4301478 L122.430388,89.6511478 L120.887388,88.7611478 Z M123.972388,90.5421478 L124.355388,90.3201478 L124.739388,90.0991478 L126.281388,90.9891478 L125.898388,91.2101478 L125.514388,91.4321478 L123.972388,90.5421478 Z M127.056388,92.3221478 L127.440388,92.1011478 L127.824388,91.8791478 L129.366388,92.7691478 L128.982388,92.9911478 L128.598388,93.2131478 L127.056388,92.3221478 Z M130.140388,94.1031478 L130.524388,93.8811478 L130.908388,93.6601478 L132.450388,94.5501478 L132.066388,94.7721478 L131.682388,94.9931478 L130.140388,94.1031478 Z M133.225388,95.8831478 L133.608388,95.6621478 L133.992388,95.4401478 L135.534388,96.3311478 L135.151388,96.5521478 L134.767388,96.7741478 L133.225388,95.8831478 Z M136.309388,97.6641478 L136.693388,97.4421478 L137.076388,97.2211478 L137.080388,97.2231478 L137.083388,97.2211478 L137.467388,97.4421478 L137.851388,97.6641478 L137.847388,97.6661478 L137.464388,97.8881478 L137.080388,98.1091478 L136.696388,97.8881478 L136.312388,97.6661478 L136.309388,97.6641478 Z M139.393388,96.7741478 L139.009388,96.5521478 L138.626388,96.3311478 L140.168388,95.4401478 L140.552388,95.6621478 L140.935388,95.8831478 L139.393388,96.7741478 Z M142.477388,94.9931478 L142.094388,94.7721478 L141.710388,94.5501478 L143.252388,93.6601478 L143.636388,93.8811478 L144.020388,94.1031478 L142.477388,94.9931478 Z M145.562388,93.2131478 L145.178388,92.9911478 L144.794388,92.7691478 L146.336388,91.8791478 L146.720388,92.1011478 L147.104388,92.3221478 L145.562388,93.2131478 Z M148.646388,91.4321478 L148.262388,91.2101478 L147.879388,90.9891478 L149.421388,90.0991478 L149.804388,90.3201478 L150.188388,90.5421478 L148.646388,91.4321478 Z M151.730388,89.6511478 L151.347388,89.4301478 L150.963388,89.2081478 L152.505388,88.3181478 L152.889388,88.5401478 L153.273388,88.7611478 L151.730388,89.6511478 Z M154.815388,87.8711478 L154.431388,87.6491478 L154.047388,87.4281478 L155.589388,86.5371478 L155.973388,86.7591478 L156.357388,86.9811478 L154.815388,87.8711478 Z M157.899388,86.0901478 L157.515388,85.8691478 L157.131388,85.6471478 L158.674388,84.7571478 L159.057388,84.9781478 L159.441388,85.2001478 L157.899388,86.0901478 Z M160.983388,84.3101478 L160.599388,84.0881478 L160.216388,83.8671478 L161.758388,82.9761478 L162.142388,83.1981478 L162.525388,83.4191478 L160.983388,84.3101478 Z M164.068388,82.5291478 L163.684388,82.3081478 L163.300388,82.0861478 L164.842388,81.1961478 L165.226388,81.4171478 L165.610388,81.6391478 L164.068388,82.5291478 Z M167.152388,80.7491478 L166.768388,80.5271478 L166.384388,80.3051478 L167.926388,79.4151478 L168.310388,79.6371478 L168.694388,79.8581478 L167.152388,80.7491478 Z M170.236388,78.9681478 L169.852388,78.7461478 L169.469388,78.5251478 L169.472388,78.5231478 L169.469388,78.5211478 L169.852388,78.2991478 L170.236388,78.0781478 L170.240388,78.0801478 L170.623388,78.3011478 L171.007388,78.5231478 L170.623388,78.7441478 L170.240388,78.9661478 L170.236388,78.9681478 Z M168.694388,77.1871478 L168.310388,77.4091478 L167.926388,77.6311478 L166.384388,76.7401478 L166.768388,76.5191478 L167.152388,76.2971478 L168.694388,77.1871478 Z M165.610388,75.4071478 L165.226388,75.6281478 L164.842388,75.8501478 L163.300388,74.9601478 L163.684388,74.7381478 L164.068388,74.5171478 L165.610388,75.4071478 Z M162.525388,73.6261478 L162.142388,73.8481478 L161.758388,74.0691478 L160.216388,73.1791478 L160.599388,72.9581478 L160.983388,72.7361478 L162.525388,73.6261478 Z M159.441388,71.8461478 L159.057388,72.0671478 L158.674388,72.2891478 L157.131388,71.3991478 L157.515388,71.1771478 L157.899388,70.9551478 L159.441388,71.8461478 Z M156.357388,70.0651478 L155.973388,70.2871478 L155.589388,70.5081478 L154.047388,69.6181478 L154.431388,69.3961478 L154.815388,69.1751478 L156.357388,70.0651478 Z M153.273388,68.2851478 L152.889388,68.5061478 L152.505388,68.7281478 L150.963388,67.8371478 L151.347388,67.6161478 L151.730388,67.3941478 L153.273388,68.2851478 Z M150.188388,66.5041478 L149.804388,66.7261478 L149.421388,66.9471478 L147.879388,66.0571478 L148.262388,65.8351478 L148.646388,65.6141478 L150.188388,66.5041478 Z M147.104388,64.7241478 L146.720388,64.9451478 L146.336388,65.1671478 L144.794388,64.2761478 L145.178388,64.0551478 L145.562388,63.8331478 L147.104388,64.7241478 Z M144.020388,62.9431478 L143.636388,63.1651478 L143.252388,63.3861478 L141.710388,62.4961478 L142.094388,62.2741478 L142.477388,62.0531478 L144.020388,62.9431478 Z M140.935388,61.1621478 L140.552388,61.3841478 L140.168388,61.6051478 L138.626388,60.7151478 L139.009388,60.4941478 L139.393388,60.2721478 L140.935388,61.1621478 Z M137.851388,59.3821478 L137.467388,59.6031478 L137.083388,59.8251478 L137.080388,59.8231478 L137.076388,59.8251478 L136.693388,59.6031478 L136.309388,59.3821478 L136.312388,59.3801478 L136.696388,59.1581478 L137.080388,58.9371478 L137.464388,59.1581478 L137.847388,59.3801478 L137.851388,59.3821478 Z M134.767388,60.2721478 L135.151388,60.4941478 L135.534388,60.7151478 L133.992388,61.6051478 L133.608388,61.3841478 L133.225388,61.1621478 L134.767388,60.2721478 Z M131.682388,62.0531478 L132.066388,62.2741478 L132.450388,62.4961478 L130.908388,63.3861478 L130.524388,63.1651478 L130.140388,62.9431478 L131.682388,62.0531478 Z M128.598388,63.8331478 L128.982388,64.0551478 L129.366388,64.2761478 L127.824388,65.1671478 L127.440388,64.9451478 L127.056388,64.7241478 L128.598388,63.8331478 Z M125.514388,65.6141478 L125.898388,65.8351478 L126.281388,66.0571478 L124.739388,66.9471478 L124.355388,66.7261478 L123.972388,66.5041478 L125.514388,65.6141478 Z M122.430388,67.3941478 L122.813388,67.6161478 L123.197388,67.8371478 L121.655388,68.7281478 L121.271388,68.5061478 L120.887388,68.2851478 L122.430388,67.3941478 Z M119.345388,69.1751478 L119.729388,69.3961478 L120.113388,69.6181478 L118.571388,70.5081478 L118.187388,70.2871478 L117.803388,70.0651478 L119.345388,69.1751478 Z M116.261388,70.9551478 L116.645388,71.1771478 L117.028388,71.3991478 L115.486388,72.2891478 L115.103388,72.0671478 L114.719388,71.8461478 L116.261388,70.9551478 Z M113.177388,72.7361478 L113.560388,72.9581478 L113.944388,73.1791478 L112.402388,74.0691478 L112.018388,73.8481478 L111.635388,73.6261478 L113.177388,72.7361478 Z M110.092388,74.5171478 L110.476388,74.7381478 L110.860388,74.9601478 L109.318388,75.8501478 L108.934388,75.6281478 L108.550388,75.4071478 L110.092388,74.5171478 Z M107.008388,76.2971478 L107.392388,76.5191478 L107.776388,76.7401478 L106.233388,77.6311478 L105.850388,77.4091478 L105.466388,77.1871478 L107.008388,76.2971478 Z M86.1883883,186.247148 L52.2613883,166.661148 L86.1883883,147.074148 L120.115388,166.661148 L86.1883883,186.247148 Z M104.308388,137.058148 L103.924388,136.836148 L103.920388,136.838148 L103.536388,137.060148 L103.153388,137.282148 L103.536388,137.503148 L103.920388,137.725148 L103.924388,137.727148 L104.308388,137.505148 L104.691388,137.284148 L104.688388,137.282148 L104.691388,137.279148 L104.308388,137.058148 Z M107.008388,139.507148 L105.466388,138.617148 L105.850388,138.395148 L106.233388,138.174148 L107.776388,139.064148 L107.392388,139.286148 L107.008388,139.507148 Z M108.550388,140.398148 L108.934388,140.176148 L109.318388,139.954148 L110.860388,140.845148 L110.476388,141.066148 L110.092388,141.288148 L108.550388,140.398148 L108.550388,140.398148 Z M111.635388,142.178148 L112.018388,141.957148 L112.402388,141.735148 L113.944388,142.625148 L113.560388,142.847148 L113.177388,143.068148 L111.635388,142.178148 Z M114.719388,143.959148 L115.103388,143.737148 L115.486388,143.516148 L117.028388,144.406148 L116.645388,144.627148 L116.261388,144.849148 L114.719388,143.959148 Z M117.803388,145.739148 L118.187388,145.518148 L118.571388,145.296148 L120.113388,146.186148 L119.729388,146.408148 L119.345388,146.629148 L117.803388,145.739148 Z M120.887388,147.520148 L121.271388,147.298148 L121.655388,147.077148 L123.197388,147.967148 L122.813388,148.189148 L122.430388,148.410148 L120.887388,147.520148 Z M123.972388,149.300148 L124.355388,149.079148 L124.739388,148.857148 L126.281388,149.748148 L125.898388,149.969148 L125.514388,150.191148 L123.972388,149.300148 Z M127.056388,151.081148 L127.440388,150.859148 L127.824388,150.638148 L129.366388,151.528148 L128.982388,151.750148 L128.598388,151.971148 L127.056388,151.081148 Z M130.140388,152.861148 L130.524388,152.640148 L130.908388,152.418148 L132.450388,153.309148 L132.066388,153.530148 L131.682388,153.752148 L130.140388,152.861148 Z M133.225388,154.642148 L133.608388,154.420148 L133.992388,154.199148 L135.534388,155.089148 L135.150388,155.311148 L134.767388,155.532148 L133.225388,154.642148 Z M136.309388,156.423148 L136.693388,156.201148 L137.076388,155.979148 L137.080388,155.982148 L137.083388,155.979148 L137.467388,156.201148 L137.851388,156.423148 L137.847388,156.425148 L137.464388,156.646148 L137.080388,156.868148 L136.696388,156.646148 L136.312388,156.425148 L136.309388,156.423148 Z M139.393388,155.532148 L139.009388,155.311148 L138.626388,155.089148 L140.168388,154.199148 L140.552388,154.420148 L140.935388,154.642148 L139.393388,155.532148 Z M142.477388,153.752148 L142.094388,153.530148 L141.710388,153.309148 L143.252388,152.418148 L143.636388,152.640148 L144.020388,152.861148 L142.477388,153.752148 Z M145.562388,151.971148 L145.178388,151.750148 L144.794388,151.528148 L146.336388,150.638148 L146.720388,150.859148 L147.104388,151.081148 L145.562388,151.971148 Z M148.646388,150.191148 L148.262388,149.969148 L147.879388,149.748148 L149.421388,148.857148 L149.804388,149.079148 L150.188388,149.300148 L148.646388,150.191148 Z M151.730388,148.410148 L151.347388,148.189148 L150.963388,147.967148 L152.505388,147.077148 L152.889388,147.298148 L153.273388,147.520148 L151.730388,148.410148 Z M154.815388,146.629148 L154.431388,146.408148 L154.047388,146.186148 L155.589388,145.296148 L155.973388,145.518148 L156.357388,145.739148 L154.815388,146.629148 Z M157.899388,144.849148 L157.515388,144.627148 L157.131388,144.406148 L158.674388,143.516148 L159.057388,143.737148 L159.441388,143.959148 L157.899388,144.849148 Z M160.983388,143.068148 L160.599388,142.847148 L160.216388,142.625148 L161.758388,141.735148 L162.142388,141.957148 L162.525388,142.178148 L160.983388,143.068148 Z M164.068388,141.288148 L163.684388,141.066148 L163.300388,140.845148 L164.842388,139.954148 L165.226388,140.176148 L165.610388,140.398148 L164.068388,141.288148 L164.068388,141.288148 Z M167.152388,139.507148 L166.768388,139.286148 L166.384388,139.064148 L167.926388,138.174148 L168.310388,138.395148 L168.694388,138.617148 L167.152388,139.507148 Z M170.236388,137.727148 L169.852388,137.505148 L169.469388,137.284148 L169.472388,137.282148 L169.469388,137.279148 L169.852388,137.058148 L170.236388,136.836148 L170.240388,136.838148 L170.623388,137.060148 L171.007388,137.282148 L170.623388,137.503148 L170.240388,137.725148 L170.236388,137.727148 Z M168.694388,135.946148 L168.310388,136.168148 L167.926388,136.389148 L166.384388,135.499148 L166.768388,135.277148 L167.152388,135.056148 L168.694388,135.946148 Z M165.610388,134.166148 L165.226388,134.387148 L164.842388,134.609148 L163.300388,133.718148 L163.684388,133.497148 L164.068388,133.275148 L165.610388,134.166148 Z M162.525388,132.385148 L162.142388,132.607148 L161.758388,132.828148 L160.216388,131.938148 L160.599388,131.716148 L160.983388,131.495148 L162.525388,132.385148 Z M159.441388,130.604148 L159.057388,130.826148 L158.674388,131.048148 L157.131388,130.157148 L157.515388,129.936148 L157.899388,129.714148 L159.441388,130.604148 L159.441388,130.604148 Z M156.357388,128.824148 L155.973388,129.045148 L155.589388,129.267148 L154.047388,128.377148 L154.431388,128.155148 L154.815388,127.934148 L156.357388,128.824148 Z M153.273388,127.043148 L152.889388,127.265148 L152.505388,127.486148 L150.963388,126.596148 L151.347388,126.375148 L151.730388,126.153148 L153.273388,127.043148 Z M150.188388,125.263148 L149.804388,125.484148 L149.421388,125.706148 L147.879388,124.816148 L148.262388,124.594148 L148.646388,124.372148 L150.188388,125.263148 L150.188388,125.263148 Z M147.104388,123.482148 L146.720388,123.704148 L146.336388,123.925148 L144.794388,123.035148 L145.178388,122.813148 L145.562388,122.592148 L147.104388,123.482148 Z M144.020388,121.702148 L143.636388,121.923148 L143.252388,122.145148 L141.710388,121.254148 L142.094388,121.033148 L142.477388,120.811148 L144.020388,121.702148 Z M140.935388,119.921148 L140.552388,120.143148 L140.168388,120.364148 L138.626388,119.474148 L139.009388,119.252148 L139.393388,119.031148 L140.935388,119.921148 Z M137.851388,118.140148 L137.467388,118.362148 L137.083388,118.584148 L137.080388,118.582148 L137.076388,118.584148 L136.693388,118.362148 L136.309388,118.140148 L136.312388,118.138148 L136.696388,117.917148 L137.080388,117.695148 L137.464388,117.917148 L137.847388,118.138148 L137.851388,118.140148 Z M134.767388,119.031148 L135.150388,119.252148 L135.534388,119.474148 L133.992388,120.364148 L133.608388,120.143148 L133.225388,119.921148 L134.767388,119.031148 Z M131.682388,120.811148 L132.066388,121.033148 L132.450388,121.254148 L130.908388,122.145148 L130.524388,121.923148 L130.140388,121.702148 L131.682388,120.811148 Z M128.598388,122.592148 L128.982388,122.813148 L129.366388,123.035148 L127.824388,123.925148 L127.440388,123.704148 L127.056388,123.482148 L128.598388,122.592148 Z M125.514388,124.372148 L125.898388,124.594148 L126.281388,124.816148 L124.739388,125.706148 L124.355388,125.484148 L123.972388,125.263148 L125.514388,124.372148 L125.514388,124.372148 Z M122.430388,126.153148 L122.813388,126.375148 L123.197388,126.596148 L121.655388,127.486148 L121.271388,127.265148 L120.887388,127.043148 L122.430388,126.153148 Z M119.345388,127.934148 L119.729388,128.155148 L120.113388,128.377148 L118.571388,129.267148 L118.187388,129.045148 L117.803388,128.824148 L119.345388,127.934148 Z M116.261388,129.714148 L116.645388,129.936148 L117.028388,130.157148 L115.486388,131.048148 L115.103388,130.826148 L114.719388,130.604148 L116.261388,129.714148 L116.261388,129.714148 Z M113.177388,131.495148 L113.560388,131.716148 L113.944388,131.938148 L112.402388,132.828148 L112.018388,132.607148 L111.635388,132.385148 L113.177388,131.495148 Z M110.092388,133.275148 L110.476388,133.497148 L110.860388,133.718148 L109.318388,134.609148 L108.934388,134.387148 L108.550388,134.166148 L110.092388,133.275148 Z M107.008388,135.056148 L107.392388,135.277148 L107.776388,135.499148 L106.233388,136.389148 L105.850388,136.168148 L105.466388,135.946148 L107.008388,135.056148 Z M103.923388,195.595148 L104.307388,195.817148 L104.690388,196.039148 L104.687388,196.041148 L104.690388,196.043148 L104.307388,196.264148 L103.923388,196.486148 L103.919388,196.484148 L103.536388,196.262148 L103.152388,196.041148 L103.536388,195.819148 L103.919388,195.598148 L103.923388,195.595148 Z M105.465388,197.376148 L107.007388,198.266148 L107.391388,198.045148 L107.775388,197.823148 L106.233388,196.933148 L105.849388,197.154148 L105.465388,197.376148 Z M108.933388,198.935148 L108.549388,199.157148 L110.091388,200.047148 L110.475388,199.825148 L110.859388,199.604148 L109.317388,198.714148 L108.933388,198.935148 Z M112.017388,200.716148 L111.634388,200.937148 L113.176388,201.827148 L113.560388,201.606148 L113.943388,201.384148 L112.401388,200.494148 L112.017388,200.716148 Z M115.102388,202.496148 L114.718388,202.718148 L116.260388,203.608148 L116.644388,203.386148 L117.028388,203.165148 L115.485388,202.275148 L115.102388,202.496148 Z M118.186388,204.277148 L117.802388,204.498148 L119.344388,205.389148 L119.728388,205.167148 L120.112388,204.945148 L118.570388,204.055148 L118.186388,204.277148 L118.186388,204.277148 Z M121.270388,206.057148 L120.887388,206.279148 L122.429388,207.169148 L122.812388,206.948148 L123.196388,206.726148 L121.654388,205.836148 L121.270388,206.057148 Z M124.355388,207.838148 L123.971388,208.059148 L125.513388,208.950148 L125.897388,208.728148 L126.280388,208.507148 L124.738388,207.616148 L124.355388,207.838148 Z M127.439388,209.618148 L127.055388,209.840148 L128.597388,210.730148 L128.981388,210.509148 L129.365388,210.287148 L127.823388,209.397148 L127.439388,209.618148 Z M130.523388,211.399148 L130.139388,211.621148 L131.682388,212.511148 L132.065388,212.289148 L132.449388,212.068148 L130.907388,211.177148 L130.523388,211.399148 L130.523388,211.399148 Z M133.607388,213.180148 L133.224388,213.401148 L134.766388,214.291148 L135.150388,214.070148 L135.533388,213.848148 L133.991388,212.958148 L133.607388,213.180148 Z M136.692388,214.960148 L136.308388,215.182148 L136.312388,215.184148 L136.695388,215.405148 L137.079388,215.627148 L137.463388,215.405148 L137.847388,215.184148 L137.850388,215.182148 L137.466388,214.960148 L137.083388,214.739148 L137.079388,214.741148 L137.076388,214.739148 L136.692388,214.960148 Z M139.009388,214.070148 L139.392388,214.291148 L140.934388,213.401148 L140.551388,213.180148 L140.167388,212.958148 L138.625388,213.848148 L139.009388,214.070148 Z M142.093388,212.289148 L142.477388,212.511148 L144.019388,211.621148 L143.635388,211.399148 L143.251388,211.177148 L141.709388,212.068148 L142.093388,212.289148 L142.093388,212.289148 Z M145.177388,210.509148 L145.561388,210.730148 L147.103388,209.840148 L146.719388,209.618148 L146.335388,209.397148 L144.793388,210.287148 L145.177388,210.509148 Z M148.261388,208.728148 L148.645388,208.950148 L150.187388,208.059148 L149.804388,207.838148 L149.420388,207.616148 L147.878388,208.507148 L148.261388,208.728148 Z M151.346388,206.948148 L151.729388,207.169148 L153.272388,206.279148 L152.888388,206.057148 L152.504388,205.836148 L150.962388,206.726148 L151.346388,206.948148 Z M154.430388,205.167148 L154.814388,205.389148 L156.356388,204.498148 L155.972388,204.277148 L155.588388,204.055148 L154.046388,204.945148 L154.430388,205.167148 L154.430388,205.167148 Z M157.514388,203.386148 L157.898388,203.608148 L159.440388,202.718148 L159.056388,202.496148 L158.673388,202.275148 L157.131388,203.165148 L157.514388,203.386148 Z M160.599388,201.606148 L160.982388,201.827148 L162.525388,200.937148 L162.141388,200.716148 L161.757388,200.494148 L160.215388,201.384148 L160.599388,201.606148 Z M163.683388,199.825148 L164.067388,200.047148 L165.609388,199.157148 L165.225388,198.935148 L164.841388,198.714148 L163.299388,199.604148 L163.683388,199.825148 Z M166.767388,198.045148 L167.151388,198.266148 L168.693388,197.376148 L168.309388,197.154148 L167.926388,196.933148 L166.383388,197.823148 L166.767388,198.045148 Z M169.851388,196.264148 L170.235388,196.486148 L170.239388,196.484148 L170.623388,196.262148 L171.006388,196.041148 L170.623388,195.819148 L170.239388,195.598148 L170.235388,195.595148 L169.851388,195.817148 L169.468388,196.039148 L169.471388,196.041148 L169.468388,196.043148 L169.851388,196.264148 Z M168.309388,194.927148 L168.693388,194.705148 L167.151388,193.815148 L166.767388,194.036148 L166.383388,194.258148 L167.926388,195.148148 L168.309388,194.927148 Z M165.225388,193.146148 L165.609388,192.925148 L164.067388,192.034148 L163.683388,192.256148 L163.299388,192.477148 L164.841388,193.368148 L165.225388,193.146148 Z M162.141388,191.366148 L162.525388,191.144148 L160.982388,190.254148 L160.599388,190.475148 L160.215388,190.697148 L161.757388,191.587148 L162.141388,191.366148 Z M159.056388,189.585148 L159.440388,189.363148 L157.898388,188.473148 L157.514388,188.695148 L157.131388,188.916148 L158.673388,189.807148 L159.056388,189.585148 L159.056388,189.585148 Z M155.972388,187.804148 L156.356388,187.583148 L154.814388,186.693148 L154.430388,186.914148 L154.046388,187.136148 L155.588388,188.026148 L155.972388,187.804148 Z M152.888388,186.024148 L153.272388,185.802148 L151.729388,184.912148 L151.346388,185.134148 L150.962388,185.355148 L152.504388,186.245148 L152.888388,186.024148 Z M149.804388,184.243148 L150.187388,184.022148 L148.645388,183.132148 L148.261388,183.353148 L147.878388,183.575148 L149.420388,184.465148 L149.804388,184.243148 Z M146.719388,182.463148 L147.103388,182.241148 L145.561388,181.351148 L145.177388,181.573148 L144.793388,181.794148 L146.335388,182.684148 L146.719388,182.463148 Z M143.635388,180.682148 L144.019388,180.461148 L142.477388,179.570148 L142.093388,179.792148 L141.709388,180.013148 L143.251388,180.904148 L143.635388,180.682148 Z M140.551388,178.902148 L140.934388,178.680148 L139.392388,177.790148 L139.009388,178.011148 L138.625388,178.233148 L140.167388,179.123148 L140.551388,178.902148 Z M137.466388,177.121148 L137.850388,176.900148 L137.847388,176.898148 L137.463388,176.676148 L137.079388,176.454148 L136.695388,176.676148 L136.312388,176.898148 L136.308388,176.900148 L136.692388,177.121148 L137.076388,177.343148 L137.079388,177.341148 L137.083388,177.343148 L137.466388,177.121148 Z M135.150388,178.011148 L134.766388,177.790148 L133.224388,178.680148 L133.607388,178.902148 L133.991388,179.123148 L135.533388,178.233148 L135.150388,178.011148 Z M132.065388,179.792148 L131.682388,179.570148 L130.139388,180.461148 L130.523388,180.682148 L130.907388,180.904148 L132.449388,180.013148 L132.065388,179.792148 Z M128.981388,181.573148 L128.597388,181.351148 L127.055388,182.241148 L127.439388,182.463148 L127.823388,182.684148 L129.365388,181.794148 L128.981388,181.573148 Z M125.897388,183.353148 L125.513388,183.132148 L123.971388,184.022148 L124.355388,184.243148 L124.738388,184.465148 L126.280388,183.575148 L125.897388,183.353148 Z M122.812388,185.134148 L122.429388,184.912148 L120.887388,185.802148 L121.270388,186.024148 L121.654388,186.245148 L123.196388,185.355148 L122.812388,185.134148 Z M119.728388,186.914148 L119.344388,186.693148 L117.802388,187.583148 L118.186388,187.804148 L118.570388,188.026148 L120.112388,187.136148 L119.728388,186.914148 Z M116.644388,188.695148 L116.260388,188.473148 L114.718388,189.363148 L115.102388,189.585148 L115.485388,189.807148 L117.028388,188.916148 L116.644388,188.695148 L116.644388,188.695148 Z M113.560388,190.475148 L113.176388,190.254148 L111.634388,191.144148 L112.017388,191.366148 L112.401388,191.587148 L113.943388,190.697148 L113.560388,190.475148 Z M110.475388,192.256148 L110.091388,192.034148 L108.549388,192.925148 L108.933388,193.146148 L109.317388,193.368148 L110.859388,192.477148 L110.475388,192.256148 Z M107.391388,194.036148 L107.007388,193.815148 L105.465388,194.705148 L105.849388,194.927148 L106.233388,195.148148 L107.775388,194.258148 L107.391388,194.036148 Z" id="Shape" fill="url(#linearGradient-3)"></path>
                <path d="M168.829221,147.514113 L207.118177,147.514113 L207.118177,185.803069 L168.829221,185.803069 L168.829221,147.514113 Z" id="Path" stroke="#D3FDEB" stroke-width="0.88599898" opacity="0.6" stroke-dasharray="1.769997943876613" transform="translate(187.973699, 166.658591) scale(-1, 1) rotate(135.000000) translate(-187.973699, -166.658591) "></path>
            </g>
            <g id="Group" opacity="0.6" transform="translate(578.325000, 439.524374)">
                <g id="Clipped">
                    <mask id="mask-5" fill="white">
                        <use xlink:href="#path-4"></use>
                    </mask>
                    <g id="Path"></g>
                    <polygon id="Path" fill="#000000" fill-rule="nonzero" mask="url(#mask-5)" points="122.611 47.031 63.166 81.354 163.288 139.12 288.385 63.097 122.611 -21.765 122.611 47.031"></polygon>
                </g>
            </g>
            <g id="Clipped" transform="translate(578.327000, 439.524374)">
                <mask id="mask-7" fill="white">
                    <use xlink:href="#path-6"></use>
                </mask>
                <g id="Path"></g>
                <polygon id="Path" fill="#000000" fill-rule="nonzero" mask="url(#mask-7)" points="122.61 47.031 63.165 81.354 163.287 139.12 288.384 63.097 122.61 -21.765 122.61 47.031"></polygon>
            </g>
            <polygon id="Path" fill="url(#linearGradient-8)" fill-rule="nonzero" transform="translate(879.240973, 380.192393) scale(-1, 1) rotate(45.000000) translate(-879.240973, -380.192393) " points="782.311585 283.263005 976.170362 283.263005 976.170362 477.121782 782.311585 477.121782"></polygon>
            <path d="M910.988684,390.223994 L949.27764,390.223994 L949.27764,428.512949 L910.988684,428.512949 L910.988684,390.223994 Z" id="Path" stroke="#D3FDEB" stroke-width="0.88599898" opacity="0.3" stroke-dasharray="1.769997943876613" transform="translate(930.133162, 409.368471) rotate(-45.000000) translate(-930.133162, -409.368471) "></path>
            <polygon id="Path" fill="url(#linearGradient-9)" fill-rule="nonzero" transform="translate(777.458827, 379.989128) rotate(-45.000000) translate(-777.458827, -379.989128) " points="757.87135 360.401651 797.046305 360.401651 797.046305 399.576606 757.87135 399.576606"></polygon>
            <polygon id="Path" fill="url(#linearGradient-10)" fill-rule="nonzero" opacity="0.2" transform="translate(828.350478, 409.368473) rotate(-45.000000) translate(-828.350478, -409.368473) " points="808.763 389.780996 847.937955 389.780996 847.937955 428.95595 808.763 428.95595"></polygon>
            <polygon id="Path" fill="url(#linearGradient-10)" fill-rule="nonzero" opacity="0.2" transform="translate(879.240903, 438.747525) rotate(-45.000000) translate(-879.240903, -438.747525) " points="859.653426 419.160047 898.828381 419.160047 898.828381 458.335002 859.653426 458.335002"></polygon>
            <polygon id="Path" fill="url(#linearGradient-10)" fill-rule="nonzero" opacity="0.7" transform="translate(828.349756, 350.609367) rotate(-45.000000) translate(-828.349756, -350.609367) " points="808.762278 331.021889 847.937233 331.021889 847.937233 370.196844 808.762278 370.196844"></polygon>
            <polygon id="Path" fill="url(#linearGradient-10)" fill-rule="nonzero" opacity="0.7" transform="translate(879.240899, 379.989419) rotate(-45.000000) translate(-879.240899, -379.989419) " points="859.653422 360.401941 898.828376 360.401941 898.828376 399.576896 859.653422 399.576896"></polygon>
            <polygon id="Path" fill="url(#linearGradient-9)" fill-rule="nonzero" transform="translate(879.240177, 321.230312) rotate(-45.000000) translate(-879.240177, -321.230312) " points="859.6527 301.642835 898.827655 301.642835 898.827655 340.81779 859.6527 340.81779"></polygon>
            <path d="M910.987813,331.466094 L949.276769,331.466094 L949.276769,369.75505 L910.987813,369.75505 L910.987813,331.466094 Z" id="Path" stroke="#D3FDEB" stroke-width="0.88599898" opacity="0.3" stroke-dasharray="1.769997943876613" transform="translate(930.132291, 350.610572) rotate(-45.000000) translate(-930.132291, -350.610572) "></path>
            <polygon id="Path" fill-opacity="0.65" fill="url(#linearGradient-11)" fill-rule="nonzero" points="811.279 380.625374 777.504 400.125374 777.504 332.498374 811.279 312.998374"></polygon>
            <polygon id="Path" fill-opacity="0.65" fill="url(#linearGradient-12)" fill-rule="nonzero" points="743.729 380.625374 777.504 400.125374 777.504 306.883374 743.729 287.383374"></polygon>
            <polygon id="Path" fill-opacity="0.65" fill="url(#linearGradient-13)" fill-rule="nonzero" points="912.77 321.191374 878.994 340.691374 878.994 273.064374 912.77 253.564374 912.77 321.191374"></polygon>
            <polygon id="Path" fill-opacity="0.65" fill="url(#linearGradient-12)" fill-rule="nonzero" points="845.219 321.191374 878.994 340.691374 878.994 247.449374 845.219 227.949374"></polygon>
            <polygon id="Path" fill-opacity="0.38" fill="#00CCCC" fill-rule="nonzero" points="583.846 418.113374 643.181 383.856374 643.181 452.370374 583.846 486.627374"></polygon>
            <polygon id="Path" fill-opacity="0.38" fill="#009A9A" fill-rule="nonzero" points="702.515 418.113374 643.18 383.856374 643.18 452.370374 702.515 486.627374"></polygon>
            <polygon id="Path" fill-opacity="0.9" fill="url(#linearGradient-14)" fill-rule="nonzero" transform="translate(642.990000, 418.113374) rotate(-135.000000) translate(-642.990000, -418.113374) " points="608.732864 383.856238 677.247136 383.856238 677.247136 452.37051 608.732864 452.37051"></polygon>
            <polygon id="Path" fill-opacity="0.9" fill="url(#linearGradient-15)" fill-rule="nonzero" points="643.202 452.277374 583.867 418.020374 583.867 486.534374 643.202 520.791374"></polygon>
            <polygon id="Path" fill-opacity="0.9" fill="url(#linearGradient-16)" fill-rule="nonzero" points="643.179 452.260374 702.514 418.003374 702.514 486.517374 643.179 520.774374"></polygon>
            <path d="M959.658,857.804374 L575.742,636.169374 C525.906,607.399374 525.906,560.754374 575.742,531.984374 L619.326,506.823374" id="Path" stroke="url(#linearGradient-17)" stroke-width="1.621"></path>
            <path d="M920.348,780.542374 L616.23,604.975374 C576.753,582.185374 576.753,545.235374 616.23,522.445374 L631.15,513.831374" id="Path" stroke="url(#linearGradient-18)" stroke-width="1.653"></path>
            <path d="M0,303.204374 L383.916,524.839374 C433.752,553.609374 514.551,553.609374 564.386,524.839374 L607.971,499.678374" id="Path" stroke="url(#linearGradient-19)" stroke-width="1.621"></path>
            <path d="M220.163,371.786374 L456.785,508.389374 C487.501,526.121374 537.3,526.121374 568.016,508.389374 L594.878,492.881374" id="Path" stroke="url(#linearGradient-20)" stroke-width="1.668"></path>
            <polygon id="Path" fill="url(#linearGradient-21)" fill-rule="nonzero" points="1093.849 92.0313741 1238.849 92.0313741 1238.849 858.031374 1093.849 858.031374"></polygon>
            <polygon id="Path" fill="url(#linearGradient-22)" fill-rule="nonzero" transform="translate(474.500000, 442.531374) rotate(-180.000000) translate(-474.500000, -442.531374) " points="427 130.031374 522 130.031374 522 755.031374 427 755.031374"></polygon>
            <polygon id="Path" fill="url(#linearGradient-23)" fill-rule="nonzero" points="427 663.031374 1239 663.031374 1239 736.031374 427 736.031374"></polygon>
            <polygon id="Path" fill="url(#linearGradient-24)" fill-rule="nonzero" transform="translate(833.000000, 165.031374) rotate(-180.000000) translate(-833.000000, -165.031374) " points="427 142.031374 1239 142.031374 1239 188.031374 427 188.031374"></polygon>
        </g>
    </g>
</svg>