<svg width="24" height="24" viewBox="0 0 24 24" fill="none" xmlns="http://www.w3.org/2000/svg">
<path d="M15.5277 10.9449C15.341 10.9099 15.1659 10.8982 15.0026 10.8982C14.5008 10.8982 14.0224 11.0033 13.5789 11.2133C13.2756 12.1702 12.5871 12.952 11.6886 13.3487C11.4552 14.0956 11.4785 14.9124 11.7586 15.6242C12.132 16.511 12.8088 17.1995 13.649 17.5613L17.8731 15.1341C18.1882 14.9591 18.3866 14.609 18.3866 14.2473V13.5121C18.3632 13.4071 18.3282 13.2904 18.2816 13.1854C17.8148 11.9601 16.7879 11.12 15.5277 10.9449ZM17.8731 5.21543L10.7434 1.13128C10.4283 0.956241 10.0432 0.956241 9.72817 1.13128L2.5984 5.21543C2.28333 5.39047 2.08496 5.74054 2.08496 6.10228V14.2473C2.08496 14.609 2.28333 14.9591 2.5984 15.1341L9.72817 19.2183C9.89154 19.3116 10.0899 19.3583 10.2766 19.3466C9.73984 18.8565 9.28475 18.2614 8.93468 17.5963C8.18786 16.196 7.98949 14.5857 8.28121 13.0804C7.34769 12.4502 6.72923 11.3883 6.72923 10.1748C6.72923 8.23771 8.30455 6.67406 10.2299 6.67406C11.2801 6.67406 12.2137 7.12915 12.8671 7.8643C13.7306 7.57258 14.6642 7.45589 15.5977 7.51423C16.5896 7.60758 17.5464 7.89931 18.3866 8.37774V6.10228C18.3866 5.74054 18.1882 5.39047 17.8731 5.21543Z" fill="url(#paint0_radial_213_73380)"/>
<path d="M21.6425 20.4202L20.3589 18.7049C22.3309 16.2777 22.4243 12.812 20.5339 10.2565C19.9505 9.48634 19.227 8.84455 18.3868 8.37779V13.5122C18.4685 13.7922 18.5035 14.0723 18.5035 14.3757C18.5035 15.1575 18.2468 15.916 17.7683 16.5111C16.9632 17.503 15.7496 17.9814 14.501 17.8064C14.1976 17.7597 13.9176 17.678 13.6492 17.5613L10.7436 19.2183C10.6036 19.3 10.4285 19.335 10.2768 19.3467C11.0587 20.0935 12.0039 20.6419 13.0541 20.957C14.5477 21.4004 16.1814 21.3071 17.6283 20.7236L18.8886 22.4273C19.0986 22.7307 19.4137 22.9291 19.8688 22.9991H20.0088C20.3005 23.0107 20.5922 22.9174 20.8373 22.7307L21.3624 22.3456C21.9692 21.9022 22.0976 21.0387 21.6425 20.4202ZM12.2372 12.2869C12.599 11.8085 13.0657 11.4467 13.5792 11.2134C13.6725 10.8866 13.7309 10.5366 13.7309 10.1748C13.7309 9.28797 13.4041 8.48281 12.8674 7.86435C11.9222 8.16774 11.047 8.68118 10.2885 9.38132C9.22662 10.3732 8.53815 11.6918 8.28143 13.0804C8.84155 13.4538 9.50668 13.6755 10.2302 13.6755C10.7553 13.6755 11.2454 13.5588 11.6888 13.3488C11.8055 12.9637 11.9922 12.602 12.2372 12.2869Z" fill="url(#paint1_radial_213_73380)"/>
<g filter="url(#filter0_i_213_73380)">
<path d="M13.6493 17.5613L10.7437 19.2183C10.6037 19.3 10.4287 19.335 10.277 19.3466C9.7402 18.8566 9.2851 18.2614 8.93503 17.5963C8.18822 16.196 7.98984 14.5857 8.28157 13.0804C8.84168 13.4538 9.50681 13.6755 10.2303 13.6755C10.7554 13.6755 11.2455 13.5588 11.6889 13.3488C11.4555 14.0956 11.4789 14.9124 11.7589 15.6242C12.1323 16.5111 12.8091 17.1995 13.6493 17.5613Z" fill="#0026AC"/>
</g>
<g filter="url(#filter1_i_213_73380)">
<path d="M18.3868 8.37779V13.5122C18.3634 13.4071 18.3284 13.2904 18.2817 13.1854C17.815 11.9602 16.7881 11.12 15.5278 10.945C15.3411 10.91 15.1661 10.8983 15.0027 10.8983C14.501 10.8983 14.0225 11.0033 13.5791 11.2134C13.6725 10.8866 13.7308 10.5366 13.7308 10.1748C13.7308 9.28797 13.4041 8.48281 12.8673 7.86435C13.7308 7.57263 14.6643 7.45594 15.5979 7.51428C16.5897 7.60763 17.5466 7.89936 18.3868 8.37779Z" fill="#0026AC"/>
</g>
<defs>
<filter id="filter0_i_213_73380" x="8.15283" y="13.0804" width="6.18552" height="6.95533" filterUnits="userSpaceOnUse" color-interpolation-filters="sRGB">
<feFlood flood-opacity="0" result="BackgroundImageFix"/>
<feBlend mode="normal" in="SourceGraphic" in2="BackgroundImageFix" result="shape"/>
<feColorMatrix in="SourceAlpha" type="matrix" values="0 0 0 0 0 0 0 0 0 0 0 0 0 0 0 0 0 0 127 0" result="hardAlpha"/>
<feOffset dx="0.689061" dy="0.689061"/>
<feGaussianBlur stdDeviation="0.689061"/>
<feComposite in2="hardAlpha" operator="arithmetic" k2="-1" k3="1"/>
<feColorMatrix type="matrix" values="0 0 0 0 0 0 0 0 0 0 0 0 0 0 0 0 0 0 0.1 0"/>
<feBlend mode="multiply" in2="shape" result="effect1_innerShadow_213_73380"/>
</filter>
<filter id="filter1_i_213_73380" x="12.8673" y="7.49969" width="6.20853" height="6.70151" filterUnits="userSpaceOnUse" color-interpolation-filters="sRGB">
<feFlood flood-opacity="0" result="BackgroundImageFix"/>
<feBlend mode="normal" in="SourceGraphic" in2="BackgroundImageFix" result="shape"/>
<feColorMatrix in="SourceAlpha" type="matrix" values="0 0 0 0 0 0 0 0 0 0 0 0 0 0 0 0 0 0 127 0" result="hardAlpha"/>
<feOffset dx="0.689061" dy="0.689061"/>
<feGaussianBlur stdDeviation="0.689061"/>
<feComposite in2="hardAlpha" operator="arithmetic" k2="-1" k3="1"/>
<feColorMatrix type="matrix" values="0 0 0 0 0 0 0 0 0 0 0 0 0 0 0 0 0 0 0.1 0"/>
<feBlend mode="multiply" in2="shape" result="effect1_innerShadow_213_73380"/>
</filter>
<radialGradient id="paint0_radial_213_73380" cx="0" cy="0" r="1" gradientUnits="userSpaceOnUse" gradientTransform="translate(3.36886 -12.9195) rotate(64.6731) scale(127.633 541.085)">
<stop stop-color="#715BF9"/>
<stop offset="0.591893" stop-color="#1378EF"/>
<stop offset="1" stop-color="#38ABD7"/>
</radialGradient>
<radialGradient id="paint1_radial_213_73380" cx="0" cy="0" r="1" gradientUnits="userSpaceOnUse" gradientTransform="translate(9.35522 -3.61792) rotate(64.3666) scale(105.554 451.384)">
<stop stop-color="#00F2FF"/>
<stop offset="0.591893" stop-color="#5913EF"/>
<stop offset="1" stop-color="#3B38D7"/>
</radialGradient>
</defs>
</svg>
