<?xml version="1.0" encoding="UTF-8"?>
<svg width="2867px" height="700px" viewBox="0 0 2867 700" version="1.1" xmlns="http://www.w3.org/2000/svg" xmlns:xlink="http://www.w3.org/1999/xlink">
    <title>elixirnote-black</title>
    <g id="elixirnote-black" stroke="none" stroke-width="1" fill="none" fill-rule="evenodd">
        <path d="M798.59375,499.6875 C830.234375,499.6875 854.518229,495.16276 871.445312,486.113281 C888.372396,477.063802 902.825521,462.122396 914.804688,441.289062 L914.804688,441.289062 L836.484375,434.0625 C831.536458,440.3125 826.914062,444.674479 822.617188,447.148438 C815.585938,451.054688 808.164062,453.007812 800.351562,453.007812 C787.981771,453.007812 777.955729,448.515625 770.273438,439.53125 C764.804688,433.28125 761.354167,423.776042 759.921875,411.015625 L759.921875,411.015625 L919.296875,411.015625 L919.296875,402.03125 C919.296875,374.6875 914.804688,352.486979 905.820312,335.429688 C896.835938,318.372396 883.75,305.351562 866.5625,296.367188 C849.375,287.382812 825.9375,282.890625 796.25,282.890625 C759.661458,282.890625 730.983073,292.916667 710.214844,312.96875 C689.446615,333.020833 679.0625,359.257812 679.0625,391.679688 C679.0625,414.466146 684.238281,434.290365 694.589844,451.152344 C704.941406,468.014323 717.994792,480.31901 733.75,488.066406 C749.505208,495.813802 771.119792,499.6875 798.59375,499.6875 Z M838.4375,372.929688 L760.117188,372.929688 C761.419271,360.559896 764.479167,351.25 769.296875,345 C776.848958,334.973958 786.940104,329.960938 799.570312,329.960938 C810.507812,329.960938 819.329427,333.28125 826.035156,339.921875 C832.740885,346.5625 836.875,357.565104 838.4375,372.929688 L838.4375,372.929688 Z M1038.24219,495 L1038.24219,208.671875 L958.554688,208.671875 L958.554688,495 L1038.24219,495 Z M1171.44531,262.773438 L1171.44531,208.671875 L1091.95312,208.671875 L1091.95312,262.773438 L1171.44531,262.773438 Z M1171.44531,495 L1171.44531,287.578125 L1091.95312,287.578125 L1091.95312,495 L1171.44531,495 Z M1286.48438,495 L1331.60156,428.203125 L1369.88281,495 L1462.65625,495 L1386.875,386.40625 L1457.57812,287.578125 L1369.88281,287.578125 L1331.60156,345.390625 L1298.59375,287.578125 L1204.25781,287.578125 L1275.74219,386.40625 L1200.35156,495 L1286.48438,495 Z M1571.44531,262.773438 L1571.44531,208.671875 L1491.95312,208.671875 L1491.95312,262.773438 L1571.44531,262.773438 Z M1571.44531,495 L1571.44531,287.578125 L1491.95312,287.578125 L1491.95312,495 L1571.44531,495 Z M1702.89062,495 L1702.89062,425.46875 C1702.89062,392.265625 1706.99219,369.609375 1715.19531,357.5 C1720.92448,348.90625 1728.9974,344.609375 1739.41406,344.609375 C1744.88281,344.609375 1752.30469,346.5625 1761.67969,350.46875 L1761.67969,350.46875 L1786.28906,293.828125 C1772.35677,286.536458 1759.53125,282.890625 1747.8125,282.890625 C1736.61458,282.890625 1727.20703,285.657552 1719.58984,291.191406 C1711.97266,296.72526 1704.58333,306.848958 1697.42188,321.5625 L1697.42188,321.5625 L1697.42188,287.578125 L1623.00781,287.578125 L1623.00781,495 L1702.89062,495 Z M1899.17969,495 L1899.17969,395.390625 C1899.17969,376.510417 1902.17448,363.424479 1908.16406,356.132812 C1914.15365,348.841146 1921.96615,345.195312 1931.60156,345.195312 C1940.32552,345.195312 1947.09635,347.897135 1951.91406,353.300781 C1956.73177,358.704427 1959.14062,367.916667 1959.14062,380.9375 L1959.14062,380.9375 L1959.14062,495 L2039.02344,495 L2039.02344,363.164062 C2039.02344,335.820312 2032.80599,315.605469 2020.37109,302.519531 C2007.9362,289.433594 1990.71615,282.890625 1968.71094,282.890625 C1952.4349,282.890625 1938.63281,285.852865 1927.30469,291.777344 C1915.97656,297.701823 1904.77865,307.565104 1893.71094,321.367188 L1893.71094,321.367188 L1893.71094,287.578125 L1819.6875,287.578125 L1819.6875,495 L1899.17969,495 Z M2195.46875,499.6875 C2232.83854,499.6875 2262.10286,489.498698 2283.26172,469.121094 C2304.42057,448.74349 2315,422.604167 2315,390.703125 C2315,362.317708 2306.47135,338.424479 2289.41406,319.023438 C2268.1901,294.934896 2236.8099,282.890625 2195.27344,282.890625 C2158.94531,282.890625 2130.10417,293.144531 2108.75,313.652344 C2087.39583,334.160156 2076.71875,360.234375 2076.71875,391.875 C2076.71875,425.859375 2089.34896,453.333333 2114.60938,474.296875 C2135.18229,491.223958 2162.13542,499.6875 2195.46875,499.6875 Z M2195.85938,445.976562 C2184.53125,445.976562 2175.1237,441.549479 2167.63672,432.695312 C2160.14974,423.841146 2156.40625,410.169271 2156.40625,391.679688 C2156.40625,373.450521 2160.18229,359.876302 2167.73438,350.957031 C2175.28646,342.03776 2184.85677,337.578125 2196.44531,337.578125 C2207.38281,337.578125 2216.5625,341.972656 2223.98438,350.761719 C2231.40625,359.550781 2235.11719,372.929688 2235.11719,390.898438 C2235.11719,410.169271 2231.4388,424.166667 2224.08203,432.890625 C2216.72526,441.614583 2207.31771,445.976562 2195.85938,445.976562 Z M2440.78125,499.6875 C2457.83854,499.6875 2476.19792,497.539062 2495.85938,493.242188 L2495.85938,493.242188 L2490,438.359375 C2479.45312,441.744792 2471.25,443.4375 2465.39062,443.4375 C2458.88021,443.4375 2454.32292,441.223958 2451.71875,436.796875 C2450.02604,433.932292 2449.17969,428.072917 2449.17969,419.21875 L2449.17969,419.21875 L2449.17969,345.585938 L2492.92969,345.585938 L2492.92969,287.578125 L2449.17969,287.578125 L2449.17969,208.671875 L2369.49219,249.492188 L2369.49219,287.578125 L2340.19531,287.578125 L2340.19531,345.585938 L2369.49219,345.585938 L2369.49219,418.632812 C2369.49219,441.809896 2371.73828,458.574219 2376.23047,468.925781 C2380.72266,479.277344 2387.65625,486.992188 2397.03125,492.070312 C2406.40625,497.148438 2420.98958,499.6875 2440.78125,499.6875 Z M2640.39062,499.6875 C2672.03125,499.6875 2696.3151,495.16276 2713.24219,486.113281 C2730.16927,477.063802 2744.6224,462.122396 2756.60156,441.289062 L2756.60156,441.289062 L2678.28125,434.0625 C2673.33333,440.3125 2668.71094,444.674479 2664.41406,447.148438 C2657.38281,451.054688 2649.96094,453.007812 2642.14844,453.007812 C2629.77865,453.007812 2619.7526,448.515625 2612.07031,439.53125 C2606.60156,433.28125 2603.15104,423.776042 2601.71875,411.015625 L2601.71875,411.015625 L2761.09375,411.015625 L2761.09375,402.03125 C2761.09375,374.6875 2756.60156,352.486979 2747.61719,335.429688 C2738.63281,318.372396 2725.54688,305.351562 2708.35938,296.367188 C2691.17188,287.382812 2667.73438,282.890625 2638.04688,282.890625 C2601.45833,282.890625 2572.77995,292.916667 2552.01172,312.96875 C2531.24349,333.020833 2520.85938,359.257812 2520.85938,391.679688 C2520.85938,414.466146 2526.03516,434.290365 2536.38672,451.152344 C2546.73828,468.014323 2559.79167,480.31901 2575.54688,488.066406 C2591.30208,495.813802 2612.91667,499.6875 2640.39062,499.6875 Z M2680.23438,372.929688 L2601.91406,372.929688 C2603.21615,360.559896 2606.27604,351.25 2611.09375,345 C2618.64583,334.973958 2628.73698,329.960938 2641.36719,329.960938 C2652.30469,329.960938 2661.1263,333.28125 2667.83203,339.921875 C2674.53776,346.5625 2678.67188,357.565104 2680.23438,372.929688 L2680.23438,372.929688 Z" id="elixirnote" fill="#000000" fill-rule="nonzero"></path>
        <g id="Group" transform="translate(103.000000, 129.000000)" fill="#000000">
            <path d="M253.448738,0 L0,442 L146.645122,442 C159.168861,440.25515 168.862149,436.581328 175.724986,430.978536 C182.587823,425.375744 192.858011,412.751465 206.535549,393.105699 L338,165.484096 L253.448738,0 Z" id="Path-5"></path>
            <path d="M368.843875,221 L295.871458,349.772754 C292.409836,358.941431 290.230066,365.375651 289.332149,369.075413 C287.637284,376.058901 286.697572,381.411958 286.513013,385.134583 C285.780021,399.919306 290.986236,410.520859 294.803454,417.113009 C301.208059,428.173452 319.093613,436.469116 348.460115,442 L494,442 L368.843875,221 Z" id="Path-6"></path>
        </g>
    </g>
</svg>