<?xml version="1.0" encoding="UTF-8"?>
<svg width="800px" height="678px" viewBox="0 0 800 678" version="1.1" xmlns="http://www.w3.org/2000/svg" xmlns:xlink="http://www.w3.org/1999/xlink">
    <title>ff_3</title>
    <defs>
        <linearGradient x1="0%" y1="14.0871875%" x2="100%" y2="85.9128125%" id="linearGradient-1">
            <stop stop-color="#FFC500" offset="0%"></stop>
            <stop stop-color="#FB6E00" offset="32.9878827%"></stop>
            <stop stop-color="#720096" offset="100%"></stop>
        </linearGradient>
        <linearGradient x1="0%" y1="88.8726149%" x2="100%" y2="10.7815238%" id="linearGradient-2">
            <stop stop-color="#FFC500" offset="0%"></stop>
            <stop stop-color="#DD2222" offset="32.9878827%"></stop>
            <stop stop-color="#720096" offset="100%"></stop>
        </linearGradient>
    </defs>
    <g id="Page-1" stroke="none" stroke-width="1" fill="none" fill-rule="evenodd">
        <g id="ff_3" fill-rule="nonzero">
            <path d="M281.942715,0 C410.431982,0 518.846425,86.272855 552.827442,204.256119 C556.485972,204.085874 560.17571,204 563.88543,204 C694.287906,204 800,310.108514 800,441 C800,571.891486 694.287906,678 563.88543,678 C474.970079,678 397.533876,628.667623 357.261499,555.783864 C333.289804,562.443696 308.030017,566 281.942715,566 C126.230053,566 0,439.296584 0,283 C0,126.703416 126.230053,0 281.942715,0 Z" id="Combined-Shape-Copy" fill-opacity="0.15" fill="url(#linearGradient-1)"></path>
            <g id="Group" transform="translate(144.000000, 145.000000)">
                <path d="M32,17 L481,17 C489.836556,17 497,24.163444 497,33 L497,356 C497,364.836556 489.836556,372 481,372 L32,372 C23.163444,372 16,364.836556 16,356 L16,33 C16,24.163444 23.163444,17 32,17 Z" id="Path" fill="#F9F9F9"></path>
                <path d="M0,24 C0,10.745166 10.745166,0 24,0 L488,0 C501.254834,0 512,10.745166 512,24 L512.001647,25.0381213 C512.599129,27.3714754 512.940121,29.8075556 512.992804,32.3145422 L513,33 L513,356 C513,373.496381 498.958217,387.713128 481.529179,387.995713 L481,388 L32,388 C14.5036191,388 0.286872383,373.958217 0,356.529179 L0,356 L0,24 Z M497,95 L16,95 L16,356 C16,364.731359 22.993901,371.829205 31.6851293,371.996964 L32,372 L481,372 C489.731359,372 496.829205,365.006099 497,356.314871 L497,356 L497,95 Z" id="Shape" fill="url(#linearGradient-2)"></path>
                <path d="M254.00539,0 L486,0 C500.359403,0 512,11.6405965 512,26 L512,362 C512,376.359403 500.359403,388 486,388 L255.038802,388 C253.936333,388 253.041776,387.107846 253.038809,386.005382 L252.00539,2.00538233 C252.002424,0.900816835 252.895442,0 254.000007,0 C254.001801,0 254.003595,0 254.00539,0 Z" id="Rectangle-2" fill-opacity="0.05" fill="#231F20"></path>
                <circle id="Oval" fill="#FAFAFA" cx="52" cy="47" r="12"></circle>
                <circle id="Oval" fill="#FAFAFA" cx="92" cy="47" r="12"></circle>
                <circle id="Oval" fill="#FAFAFA" cx="132" cy="47" r="12"></circle>
                <path d="M273.708754,166.499252 C275.642164,161.920123 280.92162,159.775344 285.500748,161.708754 C289.99662,163.607011 292.145859,168.730746 290.39267,173.250307 L290.291246,173.500748 L233.291246,308.500748 C231.357836,313.079877 226.07838,315.224656 221.499252,313.291246 C217.00338,311.392989 214.854141,306.269254 216.60733,301.749693 L216.708754,301.499252 L273.708754,166.499252 Z" id="Path" fill="#F7B500"></path>
                <path d="M197.783537,183.470698 C201.235493,186.922653 201.297135,192.48108 197.968463,196.008267 L197.783537,196.19862 L157.371019,236.609777 L197.783537,277.022697 C201.235493,280.474653 201.297135,286.03308 197.968463,289.560267 L197.783537,289.750619 C194.331581,293.202575 188.773154,293.264217 185.245967,289.935545 L185.055615,289.750619 L141.226135,245.921139 C136.157556,240.85256 136.085147,232.679759 141.00891,227.522488 L141.226135,227.300178 L185.055615,183.470698 C188.570333,179.955979 194.268818,179.955979 197.783537,183.470698 Z" id="Path" fill="#F7B500"></path>
                <path d="M307.157525,185.190443 C303.70557,188.642399 303.643928,194.200825 306.972599,197.728012 L307.157525,197.918365 L347.57016,238.329765 L307.157525,278.742442 C303.70557,282.194398 303.643928,287.752825 306.972599,291.280012 L307.157525,291.470365 C310.609481,294.92232 316.167908,294.983962 319.695095,291.655291 L319.885448,291.470365 L363.714928,247.640884 C368.783506,242.572306 368.855915,234.399504 363.932152,229.242233 L363.714928,229.019923 L319.885448,185.190443 C316.370729,181.675724 310.672244,181.675724 307.157525,185.190443 Z" id="Path" fill="#F7B500"></path>
            </g>
        </g>
    </g>
</svg>