<?xml version="1.0" encoding="UTF-8"?>
<svg width="880px" height="413px" viewBox="0 0 880 413" version="1.1" xmlns="http://www.w3.org/2000/svg" xmlns:xlink="http://www.w3.org/1999/xlink">
    <title>glib-logo-footer</title>
    <defs>
        <linearGradient x1="75.5102041%" y1="0%" x2="24.4897959%" y2="100%" id="linearGradient-1">
            <stop stop-color="#32C5FF" offset="0%"></stop>
            <stop stop-color="#B620E0" offset="51.2583893%"></stop>
            <stop stop-color="#F7B500" offset="100%"></stop>
        </linearGradient>
    </defs>
    <g id="glib-logo-footer" stroke="none" stroke-width="1" fill="none" fill-rule="evenodd" transform="translate(0.000000, 0.000000)">
        <g id="glib-logo" transform="translate(53.000000, 0.000000)" fill-rule="nonzero">
            <path d="M192.884615,121.605556 L192.884615,68.8333333 C212.173077,68.8333333 226.923077,53.9194444 226.923077,34.4166667 C226.923077,14.9138889 212.173077,0 192.884615,0 L102.115385,0 C83.9615385,0 68.0769231,14.9138889 68.0769231,34.4166667 C68.0769231,53.9194444 83.9615385,68.8333333 102.115385,68.8333333 L102.115385,121.605556 C43.1153846,141.108333 0,197.322222 0,263.861111 C0,346.461111 65.8076923,413 147.5,413 C229.192308,413 295,346.461111 295,263.861111 C295,197.322222 251.884615,141.108333 192.884615,121.605556 Z M90.7692308,34.4166667 C90.7692308,28.6805556 96.4423077,22.9444444 102.115385,22.9444444 L192.884615,22.9444444 C198.557692,22.9444444 204.230769,28.6805556 204.230769,34.4166667 C204.230769,40.1527778 198.557692,45.8888889 192.884615,45.8888889 L102.115385,45.8888889 C96.4423077,45.8888889 90.7692308,40.1527778 90.7692308,34.4166667 Z M108.923077,143.402778 L124.807692,138.813889 L124.807692,68.8333333 L170.192308,68.8333333 L170.192308,138.813889 L186.076923,143.402778 C209.903846,151.433333 229.192308,165.2 243.942308,183.555556 L51.0576923,183.555556 C65.8076923,165.2 86.2307692,151.433333 108.923077,143.402778 L108.923077,143.402778 Z M147.5,390.055556 C78.2884615,390.055556 22.6923077,333.841667 22.6923077,263.861111 C22.6923077,243.211111 27.2307692,223.708333 36.3076923,206.5 L258.692308,206.5 C267.769231,223.708333 272.307692,243.211111 272.307692,263.861111 C272.307692,333.841667 216.711538,390.055556 147.5,390.055556 Z" id="Shape" fill="url(#linearGradient-1)"></path>
            <path d="M231.977009,286.882864 C226.410001,284.57896 219.729591,286.882864 217.502787,292.642625 C208.595574,311.073862 194.121352,324.897289 177.420327,334.112907 C171.853319,336.416811 169.626515,343.328525 171.853319,349.088286 C174.080122,353.696095 177.420327,356 181.873934,356 C182.987335,356 185.214139,356 186.32754,354.848048 C207.482172,343.328525 225.296599,324.897289 236.430616,303.010196 C239.770821,297.250434 237.544018,290.338721 231.977009,286.882864 L231.977009,286.882864 Z" id="Path" fill="#1296DB"></path>
        </g>
        <text id="GLib" font-family="PingFangSC-Semibold, PingFang SC" font-size="200" font-weight="500" fill="#FFFFFF">
            <tspan x="421" y="345">GLib</tspan>
        </text>
    </g>
</svg>