<svg width="1728" height="1211" viewBox="0 0 1728 1211" fill="none" xmlns="http://www.w3.org/2000/svg">
<g opacity="0.25">
<g filter="url(#filter0_f_86_68011)">
<ellipse cx="743.928" cy="49.0636" rx="573.43" ry="316.475" transform="rotate(173.519 743.928 49.0636)" fill="#8349FF"/>
</g>
<g filter="url(#filter1_f_86_68011)">
<path d="M340.954 243.874C288.712 317.891 285.726 374.384 259.657 461.149C209.336 628.633 246.398 738.621 186.587 902.956C64.5478 1238.27 -146.489 182.766 153.682 -10.1769C342.378 -131.467 894.535 -160.544 728.079 -10.1768C661.603 49.8746 597.978 43.5343 522.903 92.4115C445.423 142.854 394.267 168.341 340.954 243.874Z" fill="url(#paint0_linear_86_68011)" fill-opacity="0.6"/>
</g>
<g filter="url(#filter2_f_86_68011)">
<path d="M1389.21 193.116C1526.45 184.086 1616.03 133.426 1703.15 15.5595C1879.65 -223.217 848.437 -299.068 992.052 -36.7456C1082.6 128.654 1213.91 204.649 1389.21 193.116Z" fill="#0013FF"/>
</g>
<g filter="url(#filter3_f_86_68011)">
<path d="M1383.44 126.908C1497.56 119.4 1572.04 77.2773 1644.48 -20.7261C1791.23 -219.263 933.803 -282.331 1053.21 -64.2166C1128.51 73.309 1237.68 136.497 1383.44 126.908Z" fill="#00FFFF"/>
</g>
</g>
<defs>
<filter id="filter0_f_86_68011" x="-117.32" y="-562.389" width="1722.5" height="1222.91" filterUnits="userSpaceOnUse" color-interpolation-filters="sRGB">
<feFlood flood-opacity="0" result="BackgroundImageFix"/>
<feBlend mode="normal" in="SourceGraphic" in2="BackgroundImageFix" result="shape"/>
<feGaussianBlur stdDeviation="145.172" result="effect1_foregroundBlur_86_68011"/>
</filter>
<filter id="filter1_f_86_68011" x="-241.954" y="-354.291" width="1242.85" height="1564.5" filterUnits="userSpaceOnUse" color-interpolation-filters="sRGB">
<feFlood flood-opacity="0" result="BackgroundImageFix"/>
<feBlend mode="normal" in="SourceGraphic" in2="BackgroundImageFix" result="shape"/>
<feGaussianBlur stdDeviation="120.977" result="effect1_foregroundBlur_86_68011"/>
</filter>
<filter id="filter2_f_86_68011" x="687.939" y="-491.877" width="1325.95" height="976.476" filterUnits="userSpaceOnUse" color-interpolation-filters="sRGB">
<feFlood flood-opacity="0" result="BackgroundImageFix"/>
<feBlend mode="normal" in="SourceGraphic" in2="BackgroundImageFix" result="shape"/>
<feGaussianBlur stdDeviation="145.172" result="effect1_foregroundBlur_86_68011"/>
</filter>
<filter id="filter3_f_86_68011" x="848.203" y="-394.797" width="1006.79" height="716.216" filterUnits="userSpaceOnUse" color-interpolation-filters="sRGB">
<feFlood flood-opacity="0" result="BackgroundImageFix"/>
<feBlend mode="normal" in="SourceGraphic" in2="BackgroundImageFix" result="shape"/>
<feGaussianBlur stdDeviation="96.7814" result="effect1_foregroundBlur_86_68011"/>
</filter>
<linearGradient id="paint0_linear_86_68011" x1="237.881" y1="595.675" x2="428.541" y2="43.053" gradientUnits="userSpaceOnUse">
<stop stop-color="#FF0095"/>
<stop offset="1" stop-color="#FFCDFF"/>
</linearGradient>
</defs>
</svg>
