<?xml version="1.0" encoding="UTF-8"?>
<svg xmlns:xlink="http://www.w3.org/1999/xlink" width="187px" height="181px" viewBox="0 0 187 181" version="1.1" xmlns="http://www.w3.org/2000/svg">
    <title>guinsoovm</title>
    <g id="Page-1" stroke="none" stroke-width="1" fill="none" fill-rule="evenodd">
        <g id="guinsoovm" fill-rule="nonzero">
            <path d="M183.054586,114.193726 C185.913723,118.482432 187.343292,124.200707 184.484155,128.489412 C183.054586,131.34855 181.625017,132.778118 178.76588,134.207687 L98.7100377,178.524314 C94.4213319,181.383451 90.1326261,181.383451 85.8439201,178.524314 L7.21764628,135.637255 C0.0698032668,131.34855 -1.35976534,124.200706 1.49937169,117.052863 C1.49937169,117.052863 1.49937169,115.623295 2.92894047,115.623295 L80.1256457,158.510353 C88.7030574,162.799059 97.2804691,162.799059 105.857881,158.510353 L183.054586,114.193726 L183.054586,114.193726 Z" id="Path" fill="#007AFE"></path>
            <path d="M183.054586,81.3087854 C185.913723,85.5974912 187.343292,91.3157658 184.484155,95.6044716 C183.054586,98.4636088 181.625017,99.8931774 178.76588,101.322746 L98.7100377,145.639373 C94.4213319,148.49851 90.1326261,148.49851 85.8439201,145.639373 L7.21764628,102.752315 C0.0698032668,98.463609 -1.35976534,91.3157658 1.49937169,84.1679228 C1.49937169,84.1679228 1.49937169,82.7383542 2.92894047,82.738354 L80.1256457,125.625413 C88.7030574,129.914118 97.2804691,129.914118 105.857881,125.625413 L183.054586,81.3087854 L183.054586,81.3087854 Z" id="Path" fill="#29C8F2"></path>
            <path d="M100.139606,1.2480804 L178.76588,44.1351388 C185.913723,48.4238446 187.343292,55.5716878 184.484155,62.7195309 C183.054586,65.5786681 181.625017,67.0082367 178.76588,68.4378054 L98.7100377,112.754432 C94.4213319,115.61357 90.1326261,115.61357 85.8439201,112.754432 L7.21764628,69.867374 C0.0698032668,65.5786682 -1.35976534,58.430825 1.49937169,51.282982 C2.92894029,48.4238448 4.35850889,46.9942762 7.21764628,45.5647074 L87.2734887,1.2480804 C90.132626,-0.181488203 95.8509004,-0.181488203 100.139606,1.2480804 Z" id="Path" fill="#32C5FF"></path>
        </g>
    </g>
</svg>