<?xml version="1.0" encoding="UTF-8"?>
<svg xmlns:xlink="http://www.w3.org/1999/xlink" width="123px" height="140px" viewBox="0 0 123 140" version="1.1" xmlns="http://www.w3.org/2000/svg">
    <title>guinsoodb</title>
    <g id="Page-1" stroke="none" stroke-width="1" fill="none" fill-rule="evenodd">
        <g id="guinsoodb" fill-rule="nonzero">
            <path d="M61.123798,0.103966406 C31.7007211,0.103966406 0.046875,8.96935098 0.046875,28.469351 L0.046875,111.373197 C0.046875,130.853966 31.7007211,139.738582 61.123798,139.738582 C90.546875,139.738582 122.20073,130.853966 122.20073,111.373197 L122.20073,28.469351 C122.219952,8.98858184 90.546875,0.103966406 61.123798,0.103966406 Z M113.489183,111.373197 C113.489183,122.219351 90.046875,131.007812 61.123798,131.007812 C32.2007211,131.007812 8.75841348,122.219351 8.75841348,111.373197 L8.75841348,95.0655049 C17.7776443,104.353966 39.5276443,109.180889 61.123798,109.180889 C82.7199518,109.180889 104.469952,104.353966 113.489183,95.0655049 L113.489183,111.373197 Z M113.489183,85.2001201 C113.469952,85.2385816 113.489183,85.296274 113.489183,85.3347355 C113.489183,96.1039664 90.046875,104.834736 61.123798,104.834736 C32.2007211,104.834736 8.75841348,96.1039664 8.75841348,85.3347355 C8.75841348,85.296274 8.77764434,85.2385816 8.77764414,85.2001201 L8.75841348,85.2001201 L8.75841348,68.8924279 C17.7776443,78.1808895 39.5276443,83.0078125 61.123798,83.0078125 C82.7199518,83.0078125 104.469952,78.1808895 113.489183,68.8924279 L113.489183,85.2001201 L113.489183,85.2001201 Z M113.489183,59.0270434 C113.469952,59.0655049 113.489183,59.1231973 113.489183,59.1616586 C113.489183,69.9308895 90.046875,78.6616586 61.123798,78.6616586 C32.2007211,78.6616586 8.75841348,69.9308895 8.75841348,59.1616586 C8.75841348,59.1231971 8.77764434,59.0655047 8.77764414,59.0270434 L8.75841348,59.0270434 L8.75841348,44.0270434 C20.2007211,52.7385818 41.1622596,56.8347357 61.123798,56.8347355 C81.0853365,56.8347354 102.046875,52.7385816 113.489183,44.0270434 L113.489183,59.0270434 L113.489183,59.0270434 Z M61.123798,48.1039664 C32.2007211,48.1039664 8.75841348,39.3155049 8.75841348,28.469351 C8.75841348,17.6231971 32.2007211,8.83473555 61.123798,8.83473555 C90.046875,8.83473555 113.489183,17.6231971 113.489183,28.469351 C113.489183,39.3155049 90.046875,48.1039664 61.123798,48.1039664 Z" id="Shape" fill="#168CF7"></path>
            <path d="M95.5853365,113.565505 C95.5858716,116.220342 97.738192,118.372228 100.393029,118.372228 C103.047866,118.372228 105.200186,116.220342 105.200721,113.565505 C105.200186,110.910668 103.047866,108.758782 100.393029,108.758782 C97.738192,108.758782 95.5858716,110.910668 95.5853365,113.565505 Z M95.5853365,87.3731971 C95.5858716,90.0280338 97.738192,92.1799204 100.393029,92.1799204 C103.047866,92.1799204 105.200186,90.0280338 105.200721,87.3731971 C105.200186,84.7183604 103.047866,82.5664737 100.393029,82.5664737 C97.738192,82.5664737 95.5858716,84.7183604 95.5853365,87.3731971 Z M95.5853365,61.2001201 C95.5858716,63.8549568 97.738192,66.0068435 100.393029,66.0068435 C103.047866,66.0068435 105.200186,63.8549568 105.200721,61.2001201 C105.200186,58.5452834 103.047866,56.3933968 100.393029,56.3933968 C97.738192,56.3933968 95.5858716,58.5452834 95.5853365,61.2001201 Z" id="Shape" fill="#29C8F2"></path>
        </g>
    </g>
</svg>