<svg viewBox="0 0 480 418" xmlns="http://www.w3.org/2000/svg" fill-rule="evenodd" clip-rule="evenodd"
     stroke-linejoin="round" stroke-miterlimit="2">
    <g transform="translate(239 207)">
        <clipPath id="prefix__a">
            <path d="M0 0h241v210H0z"/>
        </clipPath>
        <g clip-path="url(#prefix__a)">
            <path d="M1 133.039a.854.854 0 00-.85.851c0 .466.383.85.85.85.467 0 .85-.384.85-.85a.854.854 0 00-.85-.851zm0-11.556a.854.854 0 00-.85.85c0 .467.383.851.85.851.467 0 .85-.384.85-.851a.854.854 0 00-.85-.85zm0 23.111a.844.844 0 00-.472.144.846.846 0 00-.361.873.85.85 0 101.434-.768.842.842 0 00-.601-.249zm0-46.222a.854.854 0 00-.85.85c0 .467.383.851.85.851.467 0 .85-.384.85-.851a.854.854 0 00-.85-.85zm0 11.555a.856.856 0 00-.84.852.856.856 0 00.845.85.85.85 0 00-.005-1.702zm0 80.889a.852.852 0 00-.849.85c0 .466.384.85.85.85.467 0 .85-.384.85-.85a.854.854 0 00-.85-.85H1zm0-11.555a.854.854 0 00-.85.85c0 .467.383.851.85.851.467 0 .85-.384.85-.851a.854.854 0 00-.85-.85zm0-23.111a.854.854 0 00-.85.85c0 .467.383.851.85.851.467 0 .85-.384.85-.851a.854.854 0 00-.85-.85zm0 11.555a.854.854 0 00-.85.851c0 .466.383.85.85.85.467 0 .85-.384.85-.85a.854.854 0 00-.85-.851zm0-92.444a.854.854 0 00-.85.85c0 .467.383.851.85.851.467 0 .85-.384.85-.851a.854.854 0 00-.85-.85zm0-46.222a.855.855 0 00-.851.85c0 .467.384.851.851.851a.855.855 0 00.851-.851.855.855 0 00-.851-.85zm0-11.556a.855.855 0 00-.851.85c0 .467.384.851.851.851a.855.855 0 00.851-.851.855.855 0 00-.851-.85zM1 5.927a.856.856 0 00-.84.852.856.856 0 00.845.85A.85.85 0 001 5.927zm0 34.667a.844.844 0 00-.472.144.846.846 0 00-.361.873.843.843 0 00.838.685A.85.85 0 001 40.594zm0 23.111a.854.854 0 00-.85.85c0 .467.383.851.85.851a.855.855 0 00.851-.851.855.855 0 00-.851-.85zM1 52.15a.855.855 0 00-.851.851c0 .466.384.85.851.85a.855.855 0 00.851-.85A.855.855 0 001 52.15zm0 150.222a.854.854 0 00-.85.851c0 .466.383.85.85.85.467 0 .85-.384.85-.85a.854.854 0 00-.85-.851zM1 86.816a.852.852 0 00-.849.85c0 .466.384.85.85.85.467 0 .85-.384.85-.85a.854.854 0 00-.85-.85H1zM241 52.15a.855.855 0 00-.851.851c0 .466.384.85.851.85a.855.855 0 00.851-.85.855.855 0 00-.851-.851zm0 34.666a.852.852 0 00-.849.85c0 .466.384.85.85.85.467 0 .85-.384.85-.85a.854.854 0 00-.85-.85H241zm0-23.111a.855.855 0 00-.851.85c0 .467.384.851.851.851a.855.855 0 00.851-.851.855.855 0 00-.851-.85zm0 11.556a.855.855 0 00-.851.85c0 .467.384.851.851.851a.855.855 0 00.851-.851.855.855 0 00-.851-.85zm0 34.666a.856.856 0 00-.84.852.856.856 0 00.845.85.85.85 0 00-.005-1.702zm0-102.299a.855.855 0 00.85-.85.854.854 0 00-.85-.85.854.854 0 00-.85.85c0 .466.383.85.85.85zm0 113.855a.855.855 0 00-.851.85c0 .467.384.851.851.851a.855.855 0 00.851-.851.855.855 0 00-.851-.85zm0-104a.855.855 0 00-.851.85c0 .467.384.851.851.851a.855.855 0 00.851-.851.855.855 0 00-.851-.85zm0 23.111a.852.852 0 00-.849.85c0 .466.384.85.85.85.467 0 .85-.384.85-.85a.854.854 0 00-.85-.85H241zm0-11.555a.855.855 0 00-.851.85c0 .467.384.851.851.851a.855.855 0 00.851-.851.855.855 0 00-.851-.85zm0 69.333a.855.855 0 00-.851.85c0 .467.384.851.851.851a.855.855 0 00.851-.851.855.855 0 00-.851-.85zm0 104a.855.855 0 00-.851.85c0 .467.384.851.851.851a.855.855 0 00.851-.851.855.855 0 00-.851-.85zm0-23.111a.855.855 0 00-.851.85c0 .467.384.851.851.851a.855.855 0 00.851-.851.855.855 0 00-.851-.85zm0-46.222a.855.855 0 00-.851.851c0 .466.384.85.851.85.467 0 .85-.384.85-.85a.854.854 0 00-.85-.851zm0 34.666a.855.855 0 00-.851.851c0 .466.384.85.851.85.467 0 .85-.384.85-.85a.854.854 0 00-.85-.851zm0 23.111a.852.852 0 00-.849.85c0 .466.384.85.85.85.467 0 .85-.384.85-.85a.854.854 0 00-.85-.85H241zm0-46.222a.844.844 0 00-.472.144.846.846 0 00-.361.873.85.85 0 101.434-.768.842.842 0 00-.601-.249zm0 11.556a.855.855 0 00-.851.85c0 .467.384.851.851.851.467 0 .85-.384.85-.851a.854.854 0 00-.85-.85zM91 .15a.854.854 0 00-.85.85c0 .467.383.851.85.851A.855.855 0 0091.851 1 .855.855 0 0091 .15zm20 0a.848.848 0 00-.85.85c0 .466.384.85.85.85.466 0 .85-.384.85-.85a.854.854 0 00-.85-.85zm20 0a.855.855 0 00-.85.85c0 .466.384.85.85.85.467 0 .85-.384.85-.85a.854.854 0 00-.85-.85zm100 0a.848.848 0 00-.85.85c0 .466.384.85.85.85.466 0 .85-.384.85-.85a.854.854 0 00-.85-.85zm-180 0a.848.848 0 00-.85.85c0 .466.384.85.85.85.466 0 .85-.384.85-.85A.854.854 0 0051 .15zm160 0a.855.855 0 00-.851.85c0 .467.384.851.851.851a.855.855 0 00.851-.851.855.855 0 00-.851-.85zm-180 0a.848.848 0 00-.785.524A.852.852 0 0031 1.85c.466 0 .85-.384.85-.85A.854.854 0 0031 .15zm120 0a.854.854 0 00-.85.85c0 .467.383.851.85.851a.855.855 0 00.851-.851.855.855 0 00-.851-.85zm-80 0a.855.855 0 00-.85.85c0 .466.384.85.85.85.467 0 .85-.384.85-.85A.854.854 0 0071 .15zm100 0a.848.848 0 00-.785.524A.852.852 0 00171 1.85c.466 0 .85-.384.85-.85a.854.854 0 00-.85-.85zm-160 0a.855.855 0 00-.85.85c0 .466.384.85.85.85.467 0 .85-.384.85-.85A.854.854 0 0011 .15zm180 0a.855.855 0 00-.85.85c0 .466.384.85.85.85.467 0 .85-.384.85-.85a.854.854 0 00-.85-.85zM81 121.483a.857.857 0 00-.834 1.016.848.848 0 001.682-.166.853.853 0 00-.848-.85zm0 69.333a.847.847 0 00-.849.85c0 .404.287.755.683.835a.846.846 0 00.872-.362.848.848 0 00-.706-1.323zm0-34.666a.848.848 0 00-.785.524.852.852 0 00.785 1.176c.466 0 .85-.384.85-.85a.854.854 0 00-.85-.85zm0 23.111a.848.848 0 00-.785.524.852.852 0 00.785 1.176c.466 0 .85-.384.85-.85a.854.854 0 00-.85-.85zm0-34.667a.857.857 0 00-.834 1.016.857.857 0 00.827.684c.466 0 .85-.384.85-.85a.854.854 0 00-.843-.85zm0-11.555h-.006a.848.848 0 00-.828 1.016c.079.396.43.684.834.684.466 0 .85-.384.85-.85a.854.854 0 00-.85-.85zm0 34.666a.857.857 0 00-.834 1.016.856.856 0 00.832.684c.466 0 .85-.384.85-.85a.853.853 0 00-.848-.85zM81 5.927a.847.847 0 00-.785.525.848.848 0 101.634.325.854.854 0 00-.849-.85zm10 190.667a.844.844 0 00-.472.144.846.846 0 00-.361.873.856.856 0 001.159.619.85.85 0 00-.324-1.636H91zM81 17.483a.857.857 0 00-.834 1.016.856.856 0 00.832.684c.466 0 .85-.384.85-.85a.853.853 0 00-.848-.85zm10 156a.854.854 0 00-.85.851c0 .466.383.85.85.85.467 0 .85-.384.85-.85a.854.854 0 00-.85-.851zM81 29.039a.848.848 0 00-.785.524.852.852 0 00.785 1.176c.466 0 .85-.384.85-.85a.854.854 0 00-.85-.85zm10 156a.854.854 0 00-.85.851c0 .466.383.85.85.85.467 0 .85-.384.85-.85a.854.854 0 00-.85-.851zM81 40.594a.857.857 0 00-.834 1.016.857.857 0 00.837.686.85.85 0 00.847-.847v-.005a.857.857 0 00-.85-.85zm0 46.222a.847.847 0 00-.785.525.848.848 0 101.634.325.854.854 0 00-.849-.85zm0 23.111a.847.847 0 00-.785.525.848.848 0 101.634.325.854.854 0 00-.849-.85zm0-34.666a.857.857 0 00-.834 1.016c.079.396.43.684.834.684.466 0 .85-.384.85-.85a.854.854 0 00-.85-.85zm0 23.111a.847.847 0 00-.85.85c0 .466.384.85.85.85.467 0 .85-.384.85-.85a.854.854 0 00-.85-.85zm0-34.667a.857.857 0 00-.834 1.016c.079.396.43.684.834.684.466 0 .85-.384.85-.85a.854.854 0 00-.85-.85zm0-11.555a.848.848 0 00-.785.524A.852.852 0 0081 53.85c.466 0 .85-.384.85-.85a.854.854 0 00-.85-.85zM61 17.483a.855.855 0 00-.85.85c0 .466.384.85.85.85.467 0 .85-.384.85-.85a.854.854 0 00-.85-.85zm10 179.111a.847.847 0 00-.785.525.856.856 0 00.185.927.847.847 0 001.307-.129.856.856 0 00-.106-1.074.842.842 0 00-.601-.249zm0-23.111a.855.855 0 00-.85.85c0 .466.384.85.85.85.467 0 .85-.384.85-.85a.854.854 0 00-.85-.85zm0-34.667a.847.847 0 00-.849.85c0 .466.384.85.85.85.466 0 .85-.384.85-.85a.854.854 0 00-.85-.85H71zm0 11.556a.855.855 0 00-.85.85c0 .466.384.85.85.85.467 0 .85-.384.85-.85a.854.854 0 00-.85-.85zm0 11.555a.855.855 0 00-.849.85c0 .466.384.85.85.85.466 0 .85-.384.85-.85a.854.854 0 00-.85-.85H71zm0 23.112a.855.855 0 00-.85.85c0 .466.384.85.85.85.467 0 .85-.384.85-.85a.854.854 0 00-.85-.85zM61 5.927a.847.847 0 00-.785.525.848.848 0 101.634.325.854.854 0 00-.849-.85zm0 46.223a.848.848 0 00-.785.524A.852.852 0 0061 53.85c.466 0 .85-.384.85-.85a.854.854 0 00-.85-.85zm0 11.555a.855.855 0 00-.85.85c0 .466.384.85.85.85.467 0 .85-.384.85-.85a.854.854 0 00-.85-.85zm0-34.666a.848.848 0 00-.785.524.852.852 0 00.785 1.176c.466 0 .85-.384.85-.85a.854.854 0 00-.85-.85zm0 11.555a.855.855 0 00-.85.85c0 .466.384.85.85.85.467 0 .85-.384.85-.85a.854.854 0 00-.85-.85zm10 52a.847.847 0 00-.785.525.856.856 0 00.185.927.847.847 0 001.307-.129.856.856 0 00-.106-1.074.842.842 0 00-.601-.249zm0-57.778a.847.847 0 00-.849.85c0 .466.384.85.85.85.466 0 .85-.384.85-.85a.854.854 0 00-.85-.85H71zm0 92.445a.855.855 0 00-.85.85c0 .466.384.85.85.85.467 0 .85-.384.85-.85a.854.854 0 00-.85-.85zm0-104a.855.855 0 00-.85.85c0 .466.384.85.85.85.467 0 .85-.384.85-.85a.854.854 0 00-.85-.85zm0 34.667a.847.847 0 00-.85.85c0 .466.384.85.85.85.467 0 .85-.384.85-.85a.854.854 0 00-.85-.85zm0-46.223a.847.847 0 00-.847.843.851.851 0 001.554.48.851.851 0 00-.707-1.323zm0 34.667a.855.855 0 00-.85.85c0 .466.384.85.85.85.467 0 .85-.384.85-.85a.854.854 0 00-.85-.85zm0 57.778a.855.855 0 00-.85.85c0 .466.384.85.85.85.467 0 .85-.384.85-.85a.854.854 0 00-.85-.85zm0 11.555a.855.855 0 00-.85.85c0 .466.384.85.85.85.467 0 .85-.384.85-.85a.854.854 0 00-.85-.85zm0-46.222a.855.855 0 00-.85.85c0 .466.384.85.85.85.467 0 .85-.384.85-.85a.854.854 0 00-.85-.85zm0 11.556a.855.855 0 00-.85.85c0 .466.384.85.85.85.467 0 .85-.384.85-.85a.854.854 0 00-.85-.85zm10 121.333a.857.857 0 00-.834 1.016c.079.396.43.684.834.684.466 0 .85-.384.85-.85a.854.854 0 00-.85-.85zm20-57.778a.847.847 0 00-.785.525.856.856 0 00.185.927.847.847 0 001.307-.129.856.856 0 00-.106-1.074.842.842 0 00-.601-.249zm10 28.889a.857.857 0 00-.834 1.016.848.848 0 001.682-.166.853.853 0 00-.848-.85zm0-46.222a.848.848 0 00-.785.524.852.852 0 00.785 1.176c.466 0 .85-.384.85-.85a.854.854 0 00-.85-.85zm0 34.666a.847.847 0 00-.785.525.848.848 0 101.634.325.854.854 0 00-.849-.85zm0-11.555a.857.857 0 00-.834 1.016c.079.396.43.684.834.684.466 0 .85-.384.85-.85a.854.854 0 00-.85-.85zm0 46.222a.857.857 0 00-.834 1.016.857.857 0 00.827.684c.466 0 .85-.384.85-.85a.854.854 0 00-.843-.85zm0-57.778a.847.847 0 00-.785.525.848.848 0 101.634.325.854.854 0 00-.849-.85zm0 46.223h-.006a.848.848 0 00-.828 1.016c.079.396.43.684.834.684.466 0 .85-.384.85-.85a.854.854 0 00-.85-.85zM101 5.927a.855.855 0 00-.849.85c0 .466.384.85.85.85.466 0 .85-.384.85-.85a.854.854 0 00-.85-.85H101zm0 46.223a.855.855 0 00-.85.85c0 .466.384.85.85.85.467 0 .85-.384.85-.85a.854.854 0 00-.85-.85zm0 11.555a.847.847 0 00-.85.85c0 .466.384.85.85.85.467 0 .85-.384.85-.85a.854.854 0 00-.85-.85zm0-46.222a.855.855 0 00-.85.85c0 .466.384.85.85.85.467 0 .85-.384.85-.85a.854.854 0 00-.85-.85zm0 23.111a.847.847 0 00-.785.525.856.856 0 00.185.927.847.847 0 001.307-.129.859.859 0 00-.106-1.074.842.842 0 00-.601-.249zm10-5.778a.847.847 0 00-.785.525.848.848 0 101.634.325.854.854 0 00-.849-.85zm0 80.889a.855.855 0 00-.785.525.856.856 0 00.793 1.177.855.855 0 00.851-.851.855.855 0 00-.851-.851H111zm0-92.444a.857.857 0 00-.834 1.016c.079.396.43.684.834.684.466 0 .85-.384.85-.85a.854.854 0 00-.85-.85zm-10 52a.855.855 0 00-.85.85c0 .466.384.85.85.85.467 0 .85-.384.85-.85a.854.854 0 00-.85-.85zm-10 86.666a.856.856 0 00-.84.852.856.856 0 00.845.85.85.85 0 00-.005-1.702zM61 75.261a.855.855 0 00-.85.85c0 .466.384.85.85.85.467 0 .85-.384.85-.85a.854.854 0 00-.85-.85zm50-28.889a.857.857 0 00-.834 1.016c.079.396.43.684.834.684.466 0 .85-.384.85-.85a.854.854 0 00-.85-.85zm0 57.778a.848.848 0 00-.785.524.852.852 0 00.785 1.176c.466 0 .85-.384.85-.85a.854.854 0 00-.85-.85zm0-11.556a.857.857 0 00-.834 1.016.857.857 0 00.831.685.857.857 0 00.853-.851.857.857 0 00-.85-.85zm0-23.111a.857.857 0 00-.834 1.016.856.856 0 00.832.684c.466 0 .85-.384.85-.85a.853.853 0 00-.848-.85zm0 11.556a.848.848 0 00-.785.524.852.852 0 00.785 1.176c.466 0 .85-.384.85-.85a.854.854 0 00-.85-.85zm0-23.111h-.006a.848.848 0 00-.828 1.016c.079.396.43.684.834.684.466 0 .85-.384.85-.85a.854.854 0 00-.85-.85zm0-46.223a.855.855 0 00-.785.525.856.856 0 00.619 1.159.845.845 0 00.872-.361.848.848 0 00-.706-1.323zM91 69.483a.854.854 0 00-.85.851c0 .466.383.85.85.85a.855.855 0 00.851-.85.855.855 0 00-.851-.851zm0 11.556a.854.854 0 00-.85.851c0 .466.383.85.85.85a.855.855 0 00.851-.85.855.855 0 00-.851-.851zm0-23.111a.844.844 0 00-.85.85c0 .466.384.85.85.85.467 0 .85-.384.85-.85a.854.854 0 00-.85-.85zm0-11.556a.854.854 0 00-.85.85c0 .467.383.851.85.851a.855.855 0 00.851-.851.855.855 0 00-.851-.85zm0-11.556a.852.852 0 00-.849.85c0 .466.384.85.85.85.467 0 .85-.384.85-.85a.854.854 0 00-.85-.85H91zm0 57.778a.844.844 0 00-.472.144.846.846 0 00-.361.873.856.856 0 001.159.619.85.85 0 00-.324-1.636H91zm0 57.778a.854.854 0 00-.85.85c0 .467.383.851.85.851a.855.855 0 00.851-.851.855.855 0 00-.851-.85zm0-11.556a.852.852 0 00-.849.85c0 .466.384.85.85.85.467 0 .85-.384.85-.85a.854.854 0 00-.85-.85H91zm0-23.111a.855.855 0 00-.85.85c0 .466.384.85.85.85.467 0 .85-.384.85-.85a.854.854 0 00-.85-.85zm0-11.555a.854.854 0 00-.85.85c0 .467.383.851.85.851a.855.855 0 00.851-.851.855.855 0 00-.851-.85zm0 23.111a.855.855 0 00-.851.85c0 .467.384.851.851.851a.855.855 0 00.851-.851.855.855 0 00-.851-.85zm10-28.889a.855.855 0 00-.85.85c0 .466.384.85.85.85.467 0 .85-.384.85-.85a.854.854 0 00-.85-.85zm0 57.778a.855.855 0 00-.85.85c0 .466.384.85.85.85.467 0 .85-.384.85-.85a.854.854 0 00-.85-.85zm0-34.667a.855.855 0 00-.85.85c0 .466.384.85.85.85.467 0 .85-.384.85-.85a.854.854 0 00-.85-.85zm0 11.556a.855.855 0 00-.85.85c0 .466.384.85.85.85.467 0 .85-.384.85-.85a.854.854 0 00-.85-.85zM91 23.261a.854.854 0 00-.85.851c0 .466.383.85.85.85a.855.855 0 00.851-.85.855.855 0 00-.851-.851zm10 86.666a.855.855 0 00-.849.85c0 .466.384.85.85.85.466 0 .85-.384.85-.85a.854.854 0 00-.85-.85H101zm0-23.111a.847.847 0 00-.849.85c0 .466.384.85.85.85.466 0 .85-.384.85-.85a.854.854 0 00-.85-.85H101zm0 80.889a.855.855 0 00-.85.85c0 .466.384.85.85.85.467 0 .85-.384.85-.85a.854.854 0 00-.85-.85zm-10-156a.855.855 0 00-.785.525.856.856 0 00.789 1.169.851.851 0 00.703-.371.855.855 0 00-.106-1.074.853.853 0 00-.601-.249zm10 190.667a.855.855 0 00-.85.85c0 .466.384.85.85.85.467 0 .85-.384.85-.85a.854.854 0 00-.85-.85zm0-11.556a.847.847 0 00-.849.85c0 .466.384.85.85.85.466 0 .85-.384.85-.85a.854.854 0 00-.85-.85H101zm0-11.555a.855.855 0 00-.85.85c0 .466.384.85.85.85.467 0 .85-.384.85-.85a.854.854 0 00-.85-.85zm0-150.222a.855.855 0 00-.85.85c0 .466.384.85.85.85.467 0 .85-.384.85-.85a.854.854 0 00-.85-.85zM31 46.372a.855.855 0 00-.85.85c0 .466.384.85.85.85.467 0 .85-.384.85-.85a.854.854 0 00-.85-.85zm-10 75.111a.855.855 0 00-.85.85c0 .466.384.85.85.85.467 0 .85-.384.85-.85a.854.854 0 00-.85-.85zm0-80.889a.847.847 0 00-.785.525.848.848 0 001.492.798.859.859 0 00-.106-1.074.852.852 0 00-.601-.249zm0-34.667a.855.855 0 00-.849.85c0 .466.384.85.85.85.466 0 .85-.384.85-.85a.854.854 0 00-.85-.85H21zm0 46.223a.855.855 0 00-.85.85c0 .466.384.85.85.85.467 0 .85-.384.85-.85a.854.854 0 00-.85-.85zm10 144.444a.855.855 0 00-.85.85c0 .466.384.85.85.85.467 0 .85-.384.85-.85a.854.854 0 00-.85-.85zM21 63.705a.855.855 0 00-.85.85c0 .466.384.85.85.85.467 0 .85-.384.85-.85a.854.854 0 00-.85-.85zm0 34.667a.855.855 0 00-.85.85c0 .466.384.85.85.85.467 0 .85-.384.85-.85a.854.854 0 00-.85-.85zm10.001 86.667h-.006a.848.848 0 00-.828 1.016c.079.396.43.684.834.684.466 0 .85-.384.85-.85a.854.854 0 00-.85-.85zM61 86.816a.847.847 0 00-.785.525.848.848 0 101.634.325.854.854 0 00-.849-.85zM21 75.261a.855.855 0 00-.85.85c0 .466.384.85.85.85.467 0 .85-.384.85-.85a.854.854 0 00-.85-.85zm0 11.555a.847.847 0 00-.849.85c0 .466.384.85.85.85.466 0 .85-.384.85-.85a.854.854 0 00-.85-.85H21zm0-57.777a.855.855 0 00-.85.85c0 .466.384.85.85.85.467 0 .85-.384.85-.85a.854.854 0 00-.85-.85zm10 75.111a.848.848 0 00-.785.524.852.852 0 00.785 1.176c.466 0 .85-.384.85-.85a.854.854 0 00-.85-.85zm0-11.556a.855.855 0 00-.85.85c0 .466.384.85.85.85.467 0 .85-.384.85-.85a.854.854 0 00-.85-.85zm0-11.555a.848.848 0 00-.785.524.852.852 0 00.785 1.176c.466 0 .85-.384.85-.85a.854.854 0 00-.85-.85zm0-11.556a.855.855 0 00-.85.85c0 .466.384.85.85.85.467 0 .85-.384.85-.85a.854.854 0 00-.85-.85zm.001-11.555h-.006a.848.848 0 00-.828 1.016c.079.396.43.684.834.684.466 0 .85-.384.85-.85a.854.854 0 00-.85-.85zM31 173.483a.855.855 0 00-.85.85c0 .466.384.85.85.85.467 0 .85-.384.85-.85a.854.854 0 00-.85-.85zm0-23.111a.855.855 0 00-.85.85c0 .466.384.85.85.85.467 0 .85-.384.85-.85a.854.854 0 00-.85-.85zm0 11.555a.847.847 0 00-.785.525.848.848 0 101.634.325.854.854 0 00-.849-.85zm0-23.111a.847.847 0 00-.848.847.856.856 0 001.173.789.855.855 0 00.525-.785v-.001a.854.854 0 00-.85-.85zm0-11.555a.848.848 0 00-.785.524.852.852 0 00.785 1.176c.466 0 .85-.384.85-.85a.854.854 0 00-.85-.85zm0-11.556a.855.855 0 00-.85.85c0 .466.384.85.85.85.467 0 .85-.384.85-.85a.854.854 0 00-.85-.85zM21 17.483a.855.855 0 00-.85.85c0 .466.384.85.85.85.467 0 .85-.384.85-.85a.854.854 0 00-.85-.85zm-10 98.222a.855.855 0 00-.85.85c0 .466.384.85.85.85.467 0 .85-.384.85-.85a.854.854 0 00-.85-.85zm0 11.556a.855.855 0 00-.85.85c0 .466.384.85.85.85.467 0 .85-.384.85-.85a.854.854 0 00-.85-.85zm0-34.667a.847.847 0 00-.785.525.856.856 0 00.185.927.847.847 0 001.307-.129.856.856 0 00-.106-1.074.842.842 0 00-.601-.249zm0 46.222a.847.847 0 00-.849.85c0 .466.384.85.85.85.466 0 .85-.384.85-.85a.854.854 0 00-.85-.85H11zm0-34.666a.855.855 0 00-.85.85c0 .466.384.85.85.85.467 0 .85-.384.85-.85a.854.854 0 00-.85-.85zm0 80.889a.855.855 0 00-.85.85c0 .466.384.85.85.85.467 0 .85-.384.85-.85a.854.854 0 00-.85-.85zm0-115.556a.855.855 0 00-.85.85c0 .466.384.85.85.85.467 0 .85-.384.85-.85a.854.854 0 00-.85-.85zm0 127.111a.847.847 0 00-.785.525.856.856 0 00.185.927.847.847 0 001.307-.129.856.856 0 00-.106-1.074.842.842 0 00-.601-.249zm0-34.667a.855.855 0 00-.849.85c0 .466.384.85.85.85.466 0 .85-.384.85-.85a.854.854 0 00-.85-.85H11zm0-11.555a.855.855 0 00-.85.85c0 .466.384.85.85.85.467 0 .85-.384.85-.85a.854.854 0 00-.85-.85zm0 23.111a.855.855 0 00-.85.85c0 .466.384.85.85.85.467 0 .85-.384.85-.85a.854.854 0 00-.85-.85zm10-17.333a.855.855 0 00-.85.85c0 .466.384.85.85.85.467 0 .85-.384.85-.85a.854.854 0 00-.85-.85zm0 34.666a.847.847 0 00-.849.85c0 .466.384.85.85.85.466 0 .85-.384.85-.85a.854.854 0 00-.85-.85H21zm0-11.555a.855.855 0 00-.85.85c0 .466.384.85.85.85.467 0 .85-.384.85-.85a.854.854 0 00-.85-.85zm0-11.556a.855.855 0 00-.85.85c0 .466.384.85.85.85.467 0 .85-.384.85-.85a.854.854 0 00-.85-.85zm0-23.111a.847.847 0 00-.785.525.848.848 0 101.635.325.854.854 0 00-.85-.85zM11 57.928a.847.847 0 00-.85.85c0 .466.384.85.85.85.467 0 .85-.384.85-.85a.854.854 0 00-.85-.85zm10 75.111a.855.855 0 00-.85.85c0 .466.384.85.85.85.467 0 .85-.384.85-.85a.854.854 0 00-.85-.85zM11 34.816a.847.847 0 00-.849.85c0 .466.384.85.85.85.466 0 .85-.384.85-.85a.854.854 0 00-.85-.85H11zm0 11.556a.855.855 0 00-.85.85c0 .466.384.85.85.85.467 0 .85-.384.85-.85a.854.854 0 00-.85-.85zm10 156a.855.855 0 00-.85.85c0 .466.384.85.85.85.467 0 .85-.384.85-.85a.854.854 0 00-.85-.85zM11 11.705a.847.847 0 00-.847.843.851.851 0 001.554.48.851.851 0 00-.707-1.323zm0 11.556a.855.855 0 00-.85.85c0 .466.384.85.85.85.467 0 .85-.384.85-.85a.854.854 0 00-.85-.85zm10 86.666a.855.855 0 00-.849.85c0 .466.384.85.85.85.466 0 .85-.384.85-.85a.854.854 0 00-.85-.85H21zm30-51.999h-.006a.848.848 0 00-.828 1.016c.079.396.43.684.834.684.466 0 .85-.384.85-.85a.854.854 0 00-.85-.85zm0 103.999a.847.847 0 00-.85.85c0 .466.384.85.85.85.467 0 .85-.384.85-.85a.854.854 0 00-.85-.85zm0-80.888a.848.848 0 00-.85.85c0 .466.384.85.85.85.466 0 .85-.384.85-.85a.854.854 0 00-.85-.85zm0-34.667a.855.855 0 00-.85.85c0 .466.384.85.85.85.467 0 .85-.384.85-.85a.854.854 0 00-.85-.85zm0-11.556a.847.847 0 00-.85.85c0 .466.384.85.85.85.467 0 .85-.384.85-.85a.854.854 0 00-.85-.85zm0 57.778a.857.857 0 00-.834 1.016.857.857 0 00.837.686.85.85 0 00.847-.847v-.005a.857.857 0 00-.85-.85zm0 11.556a.848.848 0 00-.85.85c0 .466.384.85.85.85.466 0 .85-.384.85-.85a.854.854 0 00-.85-.85zm0 34.666a.847.847 0 00-.848.848.846.846 0 001.554.475.848.848 0 00-.706-1.323zm0 11.556a.855.855 0 00-.85.85c0 .466.384.85.85.85.467 0 .85-.384.85-.85a.854.854 0 00-.85-.85zm0-34.667a.855.855 0 00-.785.525.856.856 0 00.783 1.175c.466 0 .85-.384.85-.85a.853.853 0 00-.848-.85zm0-92.444a.855.855 0 00-.85.85c0 .466.384.85.85.85.467 0 .85-.384.85-.85a.854.854 0 00-.85-.85zm0 104a.848.848 0 00-.85.85c0 .466.384.85.85.85.466 0 .85-.384.85-.85a.854.854 0 00-.85-.85zm0-57.778a.855.855 0 00-.785.525.856.856 0 00.783 1.175c.466 0 .85-.384.85-.85a.853.853 0 00-.848-.85zm0-57.778a.855.855 0 00-.785.525.856.856 0 00.619 1.159.843.843 0 00.872-.361.848.848 0 00-.706-1.323zm10.001 121.334h-.006a.848.848 0 00-.828 1.016c.079.396.43.684.834.684.466 0 .85-.384.85-.85a.854.854 0 00-.85-.85zM61 144.594a.855.855 0 00-.85.85c0 .466.384.85.85.85.467 0 .85-.384.85-.85a.854.854 0 00-.85-.85zm0-46.222a.855.855 0 00-.85.85c0 .466.384.85.85.85.467 0 .85-.384.85-.85a.854.854 0 00-.85-.85zm0 11.555a.847.847 0 00-.785.525.848.848 0 101.634.325.854.854 0 00-.849-.85zm0 11.556a.855.855 0 00-.85.85c0 .466.384.85.85.85.467 0 .85-.384.85-.85a.854.854 0 00-.85-.85zm0 34.667a.848.848 0 00-.785.524.852.852 0 00.785 1.176c.466 0 .85-.384.85-.85a.854.854 0 00-.85-.85zm0 34.666a.847.847 0 00-.848.847.856.856 0 001.173.789.855.855 0 00.525-.785v-.001a.854.854 0 00-.85-.85zm0 11.556a.855.855 0 00-.85.85c0 .466.384.85.85.85.467 0 .85-.384.85-.85a.854.854 0 00-.85-.85zm0-34.667a.855.855 0 00-.85.85c0 .466.384.85.85.85.467 0 .85-.384.85-.85a.854.854 0 00-.85-.85zm0 11.556a.848.848 0 00-.785.524.852.852 0 00.785 1.176c.466 0 .85-.384.85-.85a.854.854 0 00-.85-.85zm-20-11.556a.855.855 0 00-.85.85c0 .466.384.85.85.85.467 0 .85-.384.85-.85a.854.854 0 00-.85-.85zm0-23.111a.847.847 0 00-.785.525.856.856 0 00.185.927.847.847 0 001.307-.129.856.856 0 00-.106-1.074.842.842 0 00-.601-.249zm0 11.556a.855.855 0 00-.85.85c0 .466.384.85.85.85.467 0 .85-.384.85-.85a.854.854 0 00-.85-.85zm0-46.223a.855.855 0 00-.849.85c0 .466.384.85.85.85.466 0 .85-.384.85-.85a.854.854 0 00-.85-.85H41zm0 11.556a.855.855 0 00-.85.85c0 .466.384.85.85.85.467 0 .85-.384.85-.85a.854.854 0 00-.85-.85zM31 34.816a.847.847 0 00-.849.848c0 .404.287.756.683.837a.848.848 0 001.009-.835.854.854 0 00-.843-.85zm10 98.223a.855.855 0 00-.85.85c0 .466.384.85.85.85.467 0 .85-.384.85-.85a.854.854 0 00-.85-.85zM31 23.261a.855.855 0 00-.85.85c0 .466.384.85.85.85.467 0 .85-.384.85-.85a.854.854 0 00-.85-.85zm0-11.556a.855.855 0 00-.85.85c0 .466.384.85.85.85.467 0 .85-.384.85-.85a.854.854 0 00-.85-.85zm10 167.556a.855.855 0 00-.85.85c0 .466.384.85.85.85.467 0 .85-.384.85-.85a.854.854 0 00-.85-.85zm0 11.555a.847.847 0 00-.849.85c0 .466.384.85.85.85.466 0 .85-.384.85-.85a.854.854 0 00-.85-.85H41zm0 11.556a.855.855 0 00-.85.85c0 .466.384.85.85.85.467 0 .85-.384.85-.85a.854.854 0 00-.85-.85zm0-173.333a.855.855 0 00-.85.85c0 .466.384.85.85.85.467 0 .85-.384.85-.85a.854.854 0 00-.85-.85zm10 144.444a.855.855 0 00-.851.853.85.85 0 00.849.847c.466 0 .85-.384.85-.85a.853.853 0 00-.848-.85zM41 5.927a.855.855 0 00-.849.85c0 .466.384.85.85.85.466 0 .85-.384.85-.85a.854.854 0 00-.85-.85H41zm0 11.556a.855.855 0 00-.85.85c0 .466.384.85.85.85.467 0 .85-.384.85-.85a.854.854 0 00-.85-.85zm10 167.556h-.006a.848.848 0 00-.828 1.016c.079.396.43.684.834.684.466 0 .85-.384.85-.85a.854.854 0 00-.85-.85zm0 11.555a.855.855 0 00-.849.848c0 .404.287.756.683.837a.848.848 0 001.009-.835.854.854 0 00-.843-.85zM41 63.705a.847.847 0 00-.85.85c0 .466.384.85.85.85.467 0 .85-.384.85-.85a.854.854 0 00-.85-.85zm0 11.556a.855.855 0 00-.85.85c0 .466.384.85.85.85.467 0 .85-.384.85-.85a.854.854 0 00-.85-.85zm0 11.555a.847.847 0 00-.849.85c0 .466.384.85.85.85.466 0 .85-.384.85-.85a.854.854 0 00-.85-.85H41zm0 11.556a.855.855 0 00-.85.85c0 .466.384.85.85.85.467 0 .85-.384.85-.85a.854.854 0 00-.85-.85zm0-46.222a.855.855 0 00-.85.85c0 .466.384.85.85.85.467 0 .85-.384.85-.85a.854.854 0 00-.85-.85zm0-11.556a.847.847 0 00-.785.525.856.856 0 00.185.927.847.847 0 001.307-.129.859.859 0 00-.106-1.074.842.842 0 00-.601-.249zM11 81.039a.855.855 0 00-.85.85c0 .466.384.85.85.85.467 0 .85-.384.85-.85a.854.854 0 00-.85-.85zm180-34.667a.855.855 0 00-.85.85c0 .466.384.85.85.85.467 0 .85-.384.85-.85a.854.854 0 00-.85-.85zm0-23.111a.855.855 0 00-.85.85c0 .466.384.85.85.85.467 0 .85-.384.85-.85a.854.854 0 00-.85-.85zm0 11.555a.847.847 0 00-.849.85c0 .466.384.85.85.85.466 0 .85-.384.85-.85a.854.854 0 00-.85-.85H191zm0-23.111a.847.847 0 00-.847.843.851.851 0 001.554.48.851.851 0 00-.707-1.323zm10 190.667a.857.857 0 00-.834 1.016c.079.396.43.684.834.684.466 0 .85-.384.85-.85a.854.854 0 00-.85-.85zm0-11.556a.847.847 0 00-.785.525.848.848 0 101.634.325.854.854 0 00-.849-.85zM191 57.928a.847.847 0 00-.85.85c0 .466.384.85.85.85.467 0 .85-.384.85-.85a.854.854 0 00-.85-.85zm0 46.222a.855.855 0 00-.85.85c0 .466.384.85.85.85.467 0 .85-.384.85-.85a.854.854 0 00-.85-.85zm0 11.555a.855.855 0 00-.85.85c0 .466.384.85.85.85.467 0 .85-.384.85-.85a.854.854 0 00-.85-.85zm10 63.556a.848.848 0 00-.785.524.852.852 0 00.785 1.176c.466 0 .85-.384.85-.85a.854.854 0 00-.85-.85zm0-161.778a.857.857 0 00-.834 1.016.856.856 0 00.832.684c.466 0 .85-.384.85-.85a.853.853 0 00-.848-.85zm-10 52a.855.855 0 00-.85.85c0 .466.384.85.85.85.467 0 .85-.384.85-.85a.854.854 0 00-.85-.85zm0 11.556a.855.855 0 00-.85.85c0 .466.384.85.85.85.467 0 .85-.384.85-.85a.854.854 0 00-.85-.85zm10 52h-.006a.848.848 0 00-.828 1.016c.079.396.43.684.834.684.466 0 .85-.384.85-.85a.854.854 0 00-.85-.85zm0-80.889a.848.848 0 00-.785.524.852.852 0 00.785 1.176c.466 0 .85-.384.85-.85a.854.854 0 00-.85-.85zm0 11.555a.855.855 0 00-.851.853.85.85 0 10.851-.853zm0 11.556a.857.857 0 00-.834 1.016c.079.396.43.684.834.684.466 0 .85-.384.85-.85a.854.854 0 00-.85-.85zm0-34.667a.857.857 0 00-.834 1.016.857.857 0 00.831.685.857.857 0 00.853-.851.857.857 0 00-.85-.85zm0-11.555a.848.848 0 00-.785.524.852.852 0 00.785 1.176c.466 0 .85-.384.85-.85a.854.854 0 00-.85-.85zm0 57.777a.847.847 0 00-.785.525.848.848 0 101.634.325.854.854 0 00-.849-.85zm0 69.334a.848.848 0 00-.785.524.852.852 0 00.785 1.176c.466 0 .85-.384.85-.85a.854.854 0 00-.85-.85zm-10-28.889a.855.855 0 00-.85.85c0 .466.384.85.85.85.467 0 .85-.384.85-.85a.854.854 0 00-.85-.85zm10-28.889a.857.857 0 00-.834 1.016c.079.396.43.684.834.684.466 0 .85-.384.85-.85a.854.854 0 00-.85-.85zm0 69.333a.855.855 0 00-.785.525.856.856 0 00.793 1.177.855.855 0 00.851-.851.855.855 0 00-.851-.851H201zm0-23.111a.857.857 0 00-.834 1.016.857.857 0 00.827.684c.466 0 .85-.384.85-.85a.854.854 0 00-.843-.85zm0-34.667a.847.847 0 00-.785.525.848.848 0 101.634.325.854.854 0 00-.849-.85zm0 11.556a.857.857 0 00-.834 1.016.848.848 0 001.682-.166.853.853 0 00-.848-.85zm-10-28.889a.847.847 0 00-.785.525.856.856 0 00.185.927.847.847 0 001.307-.129.856.856 0 00-.106-1.074.842.842 0 00-.601-.249zm-10 40.445a.855.855 0 00-.851.851c0 .466.384.85.851.85a.855.855 0 00.851-.85.855.855 0 00-.851-.851zm0 23.111a.855.855 0 00-.851.851c0 .466.384.85.851.85a.855.855 0 00.851-.85.855.855 0 00-.851-.851zm0-34.667a.855.855 0 00-.851.851c0 .466.384.85.851.85a.855.855 0 00.851-.85.855.855 0 00-.851-.851zm0 23.111a.844.844 0 00-.472.144.846.846 0 00-.361.873.85.85 0 10.833-1.017zm0-46.222a.855.855 0 00-.851.851c0 .466.384.85.851.85a.855.855 0 00.851-.85.855.855 0 00-.851-.851zm0-11.556a.852.852 0 00-.849.85c0 .466.384.85.85.85.467 0 .85-.384.85-.85a.854.854 0 00-.85-.85H181zm0 23.111a.856.856 0 00-.84.852.856.856 0 00.845.85.85.85 0 00-.005-1.702zm-10-98.222a.855.855 0 00-.785.525.856.856 0 00.619 1.159.845.845 0 00.872-.361.848.848 0 00-.706-1.323zm0 11.556a.855.855 0 00-.85.85c0 .466.384.85.85.85.467 0 .85-.384.85-.85a.854.854 0 00-.85-.85zm10 179.111a.855.855 0 00-.851.851c0 .466.384.85.851.85a.855.855 0 00.851-.85.855.855 0 00-.851-.851zm0-23.111a.855.855 0 00-.851.851c0 .466.384.85.851.85a.855.855 0 00.851-.85.855.855 0 00-.851-.851zm0-11.556a.855.855 0 00-.851.851c0 .466.384.85.851.85.467 0 .85-.384.85-.85a.854.854 0 00-.85-.851zm10-28.889a.847.847 0 00-.849.85c0 .466.384.85.85.85.466 0 .85-.384.85-.85a.854.854 0 00-.85-.85H191zm-10 52a.852.852 0 00-.849.85c0 .466.384.85.85.85.467 0 .85-.384.85-.85a.854.854 0 00-.85-.85H181zm10-5.777a.855.855 0 00-.85.85c0 .466.384.85.85.85.467 0 .85-.384.85-.85a.854.854 0 00-.85-.85zM181 75.261a.855.855 0 00-.851.85c0 .467.384.851.851.851a.855.855 0 00.851-.851.855.855 0 00-.851-.85zm10 121.333a.847.847 0 00-.785.525.856.856 0 00.185.927.847.847 0 001.307-.129.856.856 0 00-.106-1.074.842.842 0 00-.601-.249zm0-46.222a.855.855 0 00-.85.85c0 .466.384.85.85.85.467 0 .85-.384.85-.85a.854.854 0 00-.85-.85zM181 5.927a.856.856 0 00-.84.852.856.856 0 00.845.85.85.85 0 00-.005-1.702zm-10 28.889a.847.847 0 00-.85.85c0 .466.384.85.85.85.467 0 .85-.384.85-.85a.854.854 0 00-.85-.85zm20 138.667a.855.855 0 00-.85.85c0 .466.384.85.85.85.467 0 .85-.384.85-.85a.854.854 0 00-.85-.85zM181 52.15a.855.855 0 00-.851.851c0 .466.384.85.851.85a.855.855 0 00.851-.85.855.855 0 00-.851-.851zm0 11.555a.855.855 0 00-.851.85c0 .467.384.851.851.851a.855.855 0 00.851-.851.855.855 0 00-.851-.85zm0-34.666a.855.855 0 00-.851.851c0 .466.384.85.851.85a.855.855 0 00.851-.85.855.855 0 00-.851-.851zm0 11.555a.844.844 0 00-.472.144.846.846 0 00-.361.873.843.843 0 00.838.685.85.85 0 00-.005-1.702zm0-23.111a.855.855 0 00-.851.851c0 .466.384.85.851.85a.855.855 0 00.851-.85.855.855 0 00-.851-.851zm10 144.444a.855.855 0 00-.849.85c0 .466.384.85.85.85.466 0 .85-.384.85-.85a.854.854 0 00-.85-.85H191zm40 34.667a.857.857 0 00-.834 1.016.857.857 0 00.827.684c.466 0 .85-.384.85-.85a.854.854 0 00-.843-.85zm0-11.555h-.006a.848.848 0 00-.828 1.016c.079.396.43.684.834.684.466 0 .85-.384.85-.85a.854.854 0 00-.85-.85zM221 5.927a.855.855 0 00-.849.85c0 .466.384.85.85.85.466 0 .85-.384.85-.85a.854.854 0 00-.85-.85H221zm10 144.445a.857.857 0 00-.834 1.016c.079.396.43.684.834.684.466 0 .85-.384.85-.85a.854.854 0 00-.85-.85zm0 11.555a.847.847 0 00-.785.525.848.848 0 101.634.325.854.854 0 00-.849-.85zM221 17.483a.855.855 0 00-.85.85c0 .466.384.85.85.85.467 0 .85-.384.85-.85a.854.854 0 00-.85-.85zm10 156a.857.857 0 00-.834 1.016.848.848 0 001.682-.166.853.853 0 00-.848-.85zm-10-98.222a.855.855 0 00-.85.85c0 .466.384.85.85.85.467 0 .85-.384.85-.85a.854.854 0 00-.85-.85zm0-46.222a.855.855 0 00-.85.85c0 .466.384.85.85.85.467 0 .85-.384.85-.85a.854.854 0 00-.85-.85zm0 57.777a.847.847 0 00-.849.85c0 .466.384.85.85.85.466 0 .85-.384.85-.85a.854.854 0 00-.85-.85H221zm0-23.111a.855.855 0 00-.85.85c0 .466.384.85.85.85.467 0 .85-.384.85-.85a.854.854 0 00-.85-.85zm0-11.555a.855.855 0 00-.85.85c0 .466.384.85.85.85.467 0 .85-.384.85-.85a.854.854 0 00-.85-.85zm0-11.556a.847.847 0 00-.785.525.856.856 0 00.185.927.847.847 0 001.307-.129.859.859 0 00-.106-1.074.842.842 0 00-.601-.249zm10-17.333a.857.857 0 00-.834 1.016c.079.396.43.684.834.684.466 0 .85-.384.85-.85a.854.854 0 00-.85-.85zm0 23.111a.857.857 0 00-.834 1.016c.079.396.43.684.834.684.466 0 .85-.384.85-.85a.854.854 0 00-.85-.85zm0 23.111a.857.857 0 00-.834 1.016.856.856 0 00.832.684c.466 0 .85-.384.85-.85a.853.853 0 00-.848-.85zm0-11.555h-.006a.848.848 0 00-.828 1.016c.079.396.43.684.834.684.466 0 .85-.384.85-.85a.854.854 0 00-.85-.85zm0-23.112a.847.847 0 00-.785.525.848.848 0 101.634.325.854.854 0 00-.849-.85zm-10 63.556a.855.855 0 00-.85.85c0 .466.384.85.85.85.467 0 .85-.384.85-.85a.854.854 0 00-.85-.85zm10 40.444a.847.847 0 00-.849.85c0 .404.287.755.683.835a.846.846 0 00.872-.362.848.848 0 00-.706-1.323zm0-127.111a.855.855 0 00-.785.525.856.856 0 00.619 1.159.845.845 0 00.872-.361.848.848 0 00-.706-1.323zm0 104a.855.855 0 00-.785.525.856.856 0 00.793 1.177.855.855 0 00.851-.851.855.855 0 00-.851-.851H231zm0-34.666a.848.848 0 00-.785.524.852.852 0 00.785 1.176c.466 0 .85-.384.85-.85a.854.854 0 00-.85-.85zm0 46.222a.848.848 0 00-.785.524.852.852 0 00.785 1.176c.466 0 .85-.384.85-.85a.854.854 0 00-.85-.85zm0-23.111a.848.848 0 00-.785.524.852.852 0 00.785 1.176c.466 0 .85-.384.85-.85a.854.854 0 00-.85-.85zm0-11.556a.857.857 0 00-.834 1.016.857.857 0 00.831.685.857.857 0 00.853-.851.857.857 0 00-.85-.85zm-20-80.889a.855.855 0 00-.851.85c0 .467.384.851.851.851a.855.855 0 00.851-.851.855.855 0 00-.851-.85zm0 80.889a.844.844 0 00-.472.144.846.846 0 00-.361.873.843.843 0 00.838.685.85.85 0 00-.005-1.702zm0 11.556a.855.855 0 00-.851.85c0 .467.384.851.851.851a.855.855 0 00.851-.851.855.855 0 00-.851-.85zm0 11.555a.855.855 0 00-.851.85c0 .467.384.851.851.851a.855.855 0 00.851-.851.855.855 0 00-.851-.85zm0-34.666a.855.855 0 00-.851.85c0 .467.384.851.851.851a.855.855 0 00.851-.851.855.855 0 00-.851-.85zm0-11.556a.855.855 0 00-.851.85c0 .467.384.851.851.851a.855.855 0 00.851-.851.855.855 0 00-.851-.85zm0 57.778a.855.855 0 00-.851.85c0 .467.384.851.851.851a.855.855 0 00.851-.851.855.855 0 00-.851-.85zm0 23.111a.855.855 0 00-.851.85c0 .467.384.851.851.851a.855.855 0 00.851-.851.855.855 0 00-.851-.85zm0 34.667a.855.855 0 00-.851.851c0 .466.384.85.851.85.467 0 .85-.384.85-.85a.854.854 0 00-.85-.851zm10-75.112a.855.855 0 00-.849.85c0 .466.384.85.85.85.466 0 .85-.384.85-.85a.854.854 0 00-.85-.85H221zm-10 63.556a.855.855 0 00-.851.851c0 .466.384.85.851.85.467 0 .85-.384.85-.85a.854.854 0 00-.85-.851zm0-11.556a.856.856 0 00-.84.852.856.856 0 00.845.85.85.85 0 00-.005-1.702zm0-103.999a.844.844 0 00-.85.85c0 .466.384.85.85.85.467 0 .85-.384.85-.85a.854.854 0 00-.85-.85zm0 80.888a.852.852 0 00-.849.85c0 .466.384.85.85.85.467 0 .85-.384.85-.85a.854.854 0 00-.85-.85H211zm0 57.778a.844.844 0 00-.472.144.846.846 0 00-.361.873.85.85 0 101.434-.768.842.842 0 00-.601-.249zm10-17.333a.855.855 0 00-.85.85c0 .466.384.85.85.85.467 0 .85-.384.85-.85a.854.854 0 00-.85-.85zm0-23.111a.855.855 0 00-.85.85c0 .466.384.85.85.85.467 0 .85-.384.85-.85a.854.854 0 00-.85-.85zm0 11.555a.855.855 0 00-.85.85c0 .466.384.85.85.85.467 0 .85-.384.85-.85a.854.854 0 00-.85-.85zm0-23.111a.847.847 0 00-.785.525.856.856 0 00.185.927.847.847 0 001.307-.129.859.859 0 00-.106-1.074.842.842 0 00-.601-.249zm0-11.555a.855.855 0 00-.85.85c0 .466.384.85.85.85.467 0 .85-.384.85-.85a.854.854 0 00-.85-.85zm0-11.556a.855.855 0 00-.85.85c0 .466.384.85.85.85.467 0 .85-.384.85-.85a.854.854 0 00-.85-.85zm-10-86.667a.852.852 0 00-.849.85c0 .466.384.85.85.85.467 0 .85-.384.85-.85a.854.854 0 00-.85-.85H211zm10 156a.847.847 0 00-.849.85c0 .466.384.85.85.85.466 0 .85-.384.85-.85a.854.854 0 00-.85-.85H221zM211 46.372a.855.855 0 00-.851.85c0 .467.384.851.851.851a.855.855 0 00.851-.851.855.855 0 00-.851-.85zm0-23.111a.855.855 0 00-.851.851c0 .466.384.85.851.85a.855.855 0 00.851-.85.855.855 0 00-.851-.851zm10 179.111a.855.855 0 00-.85.85c0 .466.384.85.85.85.467 0 .85-.384.85-.85a.854.854 0 00-.85-.85zM201 5.927a.847.847 0 00-.785.525.848.848 0 101.634.325.854.854 0 00-.849-.85zm-60 138.667a.857.857 0 00-.834 1.016.857.857 0 00.827.684c.466 0 .85-.384.85-.85a.854.854 0 00-.843-.85zm0 57.778a.857.857 0 00-.834 1.016c.079.396.43.684.834.684.466 0 .85-.384.85-.85a.854.854 0 00-.85-.85zm0-11.556a.847.847 0 00-.785.525.848.848 0 101.634.325.854.854 0 00-.849-.85zM131 11.705a.847.847 0 00-.847.843.851.851 0 001.554.48.851.851 0 00-.707-1.323zm0 11.556a.855.855 0 00-.85.85c0 .466.384.85.85.85.467 0 .85-.384.85-.85a.854.854 0 00-.85-.85zm10 156a.848.848 0 00-.785.524.852.852 0 00.785 1.176c.466 0 .85-.384.85-.85a.854.854 0 00-.85-.85zm0-11.556a.855.855 0 00-.785.525.856.856 0 00.793 1.177.855.855 0 00.851-.851.855.855 0 00-.851-.851H141zm-10-98.222a.855.855 0 00-.85.85c0 .466.384.85.85.85.467 0 .85-.384.85-.85a.854.854 0 00-.85-.85zm0-34.667a.847.847 0 00-.849.85c0 .466.384.85.85.85.466 0 .85-.384.85-.85a.854.854 0 00-.85-.85H131zm0 46.223a.855.855 0 00-.85.85c0 .466.384.85.85.85.467 0 .85-.384.85-.85a.854.854 0 00-.85-.85zm0 11.555a.847.847 0 00-.785.525.856.856 0 00.185.927.847.847 0 001.307-.129.856.856 0 00-.106-1.074.842.842 0 00-.601-.249zm10 63.556a.848.848 0 00-.785.524.852.852 0 00.785 1.176c.466 0 .85-.384.85-.85a.854.854 0 00-.85-.85zm-10-52a.855.855 0 00-.85.85c0 .466.384.85.85.85.467 0 .85-.384.85-.85a.854.854 0 00-.85-.85zm0-57.778a.855.855 0 00-.85.85c0 .466.384.85.85.85.467 0 .85-.384.85-.85a.854.854 0 00-.85-.85zm0 11.556a.847.847 0 00-.85.85c0 .466.384.85.85.85.467 0 .85-.384.85-.85a.854.854 0 00-.85-.85zm10-5.778a.848.848 0 00-.785.524.852.852 0 00.785 1.176c.466 0 .85-.384.85-.85a.854.854 0 00-.85-.85zm0-11.556a.857.857 0 00-.834 1.016.857.857 0 00.831.685.857.857 0 00.853-.851.857.857 0 00-.85-.85zm0 34.667a.857.857 0 00-.834 1.016c.079.396.43.684.834.684.466 0 .85-.384.85-.85a.854.854 0 00-.85-.85zm0-11.556a.855.855 0 00-.851.853.85.85 0 10.851-.853zm0-46.222a.857.857 0 00-.834 1.016.856.856 0 00.832.684c.466 0 .85-.384.85-.85a.853.853 0 00-.848-.85zm0 11.556a.848.848 0 00-.785.524.852.852 0 00.785 1.176c.466 0 .85-.384.85-.85a.854.854 0 00-.85-.85zm-20 173.333a.854.854 0 00-.85.85c0 .467.383.851.85.851a.855.855 0 00.851-.851.855.855 0 00-.851-.85zm20-80.889a.857.857 0 00-.834 1.016.848.848 0 001.682-.166.853.853 0 00-.848-.85zm0-34.667a.847.847 0 00-.785.525.848.848 0 101.634.325.854.854 0 00-.849-.85zm0 46.223h-.006a.848.848 0 00-.828 1.016c.079.396.43.684.834.684.466 0 .85-.384.85-.85a.854.854 0 00-.85-.85zm0-23.112a.847.847 0 00-.785.525.848.848 0 101.634.325.854.854 0 00-.849-.85zm0-11.555a.857.857 0 00-.834 1.016c.079.396.43.684.834.684.466 0 .85-.384.85-.85a.854.854 0 00-.85-.85zm-10 63.555a.855.855 0 00-.849.85c0 .466.384.85.85.85.466 0 .85-.384.85-.85a.854.854 0 00-.85-.85H131zm-10-63.555a.854.854 0 00-.85.85c0 .467.383.851.85.851a.855.855 0 00.851-.851.855.855 0 00-.851-.85zm0 11.555a.856.856 0 00-.84.852.856.856 0 00.845.85.85.85 0 00-.005-1.702zm0 11.556a.854.854 0 00-.85.85c0 .467.383.851.85.851a.855.855 0 00.851-.851.855.855 0 00-.851-.85zm0 11.556a.854.854 0 00-.85.851c0 .466.383.85.85.85.467 0 .85-.384.85-.85a.854.854 0 00-.85-.851zm0-46.223a.852.852 0 00-.849.85c0 .466.384.85.85.85.467 0 .85-.384.85-.85a.854.854 0 00-.85-.85H121zm0-11.555a.854.854 0 00-.85.85c0 .467.383.851.85.851a.855.855 0 00.851-.851.855.855 0 00-.851-.85zm0 92.444a.854.854 0 00-.85.851c0 .466.383.85.85.85.467 0 .85-.384.85-.85a.854.854 0 00-.85-.851zm0-23.111a.844.844 0 00-.472.144.846.846 0 00-.361.873.85.85 0 10.833-1.017zm0 34.667a.854.854 0 00-.85.85c0 .467.383.851.85.851a.855.855 0 00.851-.851.855.855 0 00-.851-.85zm0 11.555a.852.852 0 00-.849.85c0 .466.384.85.85.85.467 0 .85-.384.85-.85a.854.854 0 00-.85-.85H121zm0-34.666a.854.854 0 00-.85.85c0 .467.383.851.85.851a.855.855 0 00.851-.851.855.855 0 00-.851-.85zm0-92.445a.854.854 0 00-.85.851c0 .466.383.85.85.85a.855.855 0 00.851-.85.855.855 0 00-.851-.851zm0-11.555a.854.854 0 00-.85.851c0 .466.383.85.85.85a.855.855 0 00.851-.85.855.855 0 00-.851-.851zm10 132.889a.855.855 0 00-.85.85c0 .466.384.85.85.85.467 0 .85-.384.85-.85a.854.854 0 00-.85-.85zm0-34.667a.855.855 0 00-.85.85c0 .466.384.85.85.85.467 0 .85-.384.85-.85a.854.854 0 00-.85-.85zm0-34.667a.855.855 0 00-.85.85c0 .466.384.85.85.85.467 0 .85-.384.85-.85a.854.854 0 00-.85-.85zM141 5.927a.847.847 0 00-.785.525.848.848 0 101.634.325.854.854 0 00-.849-.85zm-10 132.889a.847.847 0 00-.849.85c0 .466.384.85.85.85.466 0 .85-.384.85-.85a.854.854 0 00-.85-.85H131zm0-11.555a.855.855 0 00-.85.85c0 .466.384.85.85.85.467 0 .85-.384.85-.85a.854.854 0 00-.85-.85zm0 46.222a.855.855 0 00-.85.85c0 .466.384.85.85.85.467 0 .85-.384.85-.85a.854.854 0 00-.85-.85zM121 40.594a.844.844 0 00-.472.144.846.846 0 00-.361.873.843.843 0 00.838.685.85.85 0 00-.005-1.702zm0-11.555a.854.854 0 00-.85.851c0 .466.383.85.85.85a.855.855 0 00.851-.85.855.855 0 00-.851-.851zm0-11.556a.854.854 0 00-.85.851c0 .466.383.85.85.85a.855.855 0 00.851-.85.855.855 0 00-.851-.851zm0-11.556a.856.856 0 00-.84.852.856.856 0 00.845.85.85.85 0 00-.005-1.702zm10 190.667a.847.847 0 00-.785.525.856.856 0 00.185.927.847.847 0 001.307-.129.856.856 0 00-.106-1.074.842.842 0 00-.601-.249zm20-34.667a.856.856 0 00-.84.852.856.856 0 00.845.85.85.85 0 00-.005-1.702zm10-121.333a.847.847 0 00-.785.525.856.856 0 00.185.927.847.847 0 001.307-.129.859.859 0 00-.106-1.074.842.842 0 00-.601-.249zm0-11.555a.855.855 0 00-.85.85c0 .466.384.85.85.85.467 0 .85-.384.85-.85a.854.854 0 00-.85-.85zm0 34.666a.847.847 0 00-.85.85c0 .466.384.85.85.85.467 0 .85-.384.85-.85a.854.854 0 00-.85-.85zm0-11.555a.855.855 0 00-.85.85c0 .466.384.85.85.85.467 0 .85-.384.85-.85a.854.854 0 00-.85-.85zm0-46.223a.855.855 0 00-.849.85c0 .466.384.85.85.85.466 0 .85-.384.85-.85a.854.854 0 00-.85-.85H161zm0 11.556a.855.855 0 00-.85.85c0 .466.384.85.85.85.467 0 .85-.384.85-.85a.854.854 0 00-.85-.85zm0 115.556a.855.855 0 00-.85.85c0 .466.384.85.85.85.467 0 .85-.384.85-.85a.854.854 0 00-.85-.85zm0-11.556a.855.855 0 00-.85.85c0 .466.384.85.85.85.467 0 .85-.384.85-.85a.854.854 0 00-.85-.85zm10 75.111a.857.857 0 00-.834 1.016.857.857 0 00.827.684c.466 0 .85-.384.85-.85a.854.854 0 00-.843-.85zM161 75.261a.855.855 0 00-.85.85c0 .466.384.85.85.85.467 0 .85-.384.85-.85a.854.854 0 00-.85-.85zm0 34.666a.855.855 0 00-.849.85c0 .466.384.85.85.85.466 0 .85-.384.85-.85a.854.854 0 00-.85-.85H161zm0-23.111a.847.847 0 00-.849.85c0 .466.384.85.85.85.466 0 .85-.384.85-.85a.854.854 0 00-.85-.85H161zm10 17.334a.848.848 0 00-.785.524.852.852 0 00.785 1.176c.466 0 .85-.384.85-.85a.854.854 0 00-.85-.85zm0-11.556a.857.857 0 00-.834 1.016.857.857 0 00.831.685.857.857 0 00.853-.851.857.857 0 00-.85-.85zm-10 52a.847.847 0 00-.785.525.856.856 0 00.185.927.847.847 0 001.307-.129.856.856 0 00-.106-1.074.842.842 0 00-.601-.249zm10-63.555a.848.848 0 00-.785.524.852.852 0 00.785 1.176c.466 0 .85-.384.85-.85a.854.854 0 00-.85-.85zm0 104h-.006a.848.848 0 00-.828 1.016c.079.396.43.684.834.684.466 0 .85-.384.85-.85a.854.854 0 00-.85-.85zm0-69.334a.855.855 0 00-.785.525.856.856 0 00.793 1.177.855.855 0 00.851-.851.855.855 0 00-.851-.851H171zm0-57.777h-.006a.848.848 0 00-.828 1.016c.079.396.43.684.834.684.466 0 .85-.384.85-.85a.854.854 0 00-.85-.85zm0 11.555a.857.857 0 00-.834 1.016.856.856 0 00.832.684c.466 0 .85-.384.85-.85a.853.853 0 00-.848-.85zm0 92.444a.847.847 0 00-.785.525.848.848 0 101.634.325.854.854 0 00-.849-.85zm0 11.556a.857.857 0 00-.834 1.016.848.848 0 001.682-.166.853.853 0 00-.848-.85zm0-34.667a.847.847 0 00-.785.525.848.848 0 101.634.325.854.854 0 00-.849-.85zm0 11.556a.857.857 0 00-.834 1.016c.079.396.43.684.834.684.466 0 .85-.384.85-.85a.854.854 0 00-.85-.85zm0-23.111a.848.848 0 00-.785.524.852.852 0 00.785 1.176c.466 0 .85-.384.85-.85a.854.854 0 00-.85-.85zm-10-28.889a.855.855 0 00-.85.85c0 .466.384.85.85.85.467 0 .85-.384.85-.85a.854.854 0 00-.85-.85zm-10-17.333a.854.854 0 00-.85.85c0 .467.383.851.85.851a.855.855 0 00.851-.851.855.855 0 00-.851-.85zm0 69.333a.854.854 0 00-.85.85c0 .467.383.851.85.851a.855.855 0 00.851-.851.855.855 0 00-.851-.85zm0 23.111a.854.854 0 00-.85.85c0 .467.383.851.85.851a.855.855 0 00.851-.851.855.855 0 00-.851-.85zm20-127.111a.855.855 0 00-.85.85c0 .466.384.85.85.85.467 0 .85-.384.85-.85a.854.854 0 00-.85-.85zm-20 138.667a.854.854 0 00-.85.851c0 .466.383.85.85.85.467 0 .85-.384.85-.85a.854.854 0 00-.85-.851zm0-115.556a.854.854 0 00-.85.85c0 .467.383.851.85.851a.855.855 0 00.851-.851.855.855 0 00-.851-.85zm0-11.555a.844.844 0 00-.85.85c0 .466.384.85.85.85.467 0 .85-.384.85-.85a.854.854 0 00-.85-.85zm0 69.333a.854.854 0 00-.85.85c0 .467.383.851.85.851a.855.855 0 00.851-.851.855.855 0 00-.851-.85zm0-11.556a.854.854 0 00-.85.85c0 .467.383.851.85.851a.855.855 0 00.851-.851.855.855 0 00-.851-.85zm0-23.111a.844.844 0 00-.472.144.846.846 0 00-.361.873.843.843 0 00.838.685.85.85 0 00-.005-1.702zm0 11.556a.854.854 0 00-.85.85c0 .467.383.851.85.851a.855.855 0 00.851-.851.855.855 0 00-.851-.85zm10 52a.855.855 0 00-.85.85c0 .466.384.85.85.85.467 0 .85-.384.85-.85a.854.854 0 00-.85-.85zM151 34.816a.852.852 0 00-.849.85c0 .466.384.85.85.85.467 0 .85-.384.85-.85a.854.854 0 00-.85-.85H151zm10 156a.847.847 0 00-.849.85c0 .466.384.85.85.85.466 0 .85-.384.85-.85a.854.854 0 00-.85-.85H161zm-10 5.778a.844.844 0 00-.472.144.846.846 0 00-.361.873.85.85 0 10.833-1.017zm10 5.778a.855.855 0 00-.85.85c0 .466.384.85.85.85.467 0 .85-.384.85-.85a.854.854 0 00-.85-.85zm0-34.667a.855.855 0 00-.85.85c0 .466.384.85.85.85.467 0 .85-.384.85-.85a.854.854 0 00-.85-.85zm0 11.556a.855.855 0 00-.85.85c0 .466.384.85.85.85.467 0 .85-.384.85-.85a.854.854 0 00-.85-.85zM151 11.705a.854.854 0 00-.85.851c0 .466.383.85.85.85a.855.855 0 00.851-.85.855.855 0 00-.851-.851zm0 34.667a.854.854 0 00-.85.85c0 .467.383.851.85.851a.855.855 0 00.851-.851.855.855 0 00-.851-.85zm0 92.444a.852.852 0 00-.849.85c0 .466.384.85.85.85.467 0 .85-.384.85-.85a.854.854 0 00-.85-.85H151zm0-115.555a.854.854 0 00-.85.85c0 .467.383.851.85.851a.855.855 0 00.851-.851.855.855 0 00-.851-.85zM91 208.15a.854.854 0 00-.85.85c0 .467.383.851.85.851a.855.855 0 00.851-.851.855.855 0 00-.851-.85zm120 0a.855.855 0 00-.851.85c0 .467.384.851.851.851a.855.855 0 00.851-.851.855.855 0 00-.851-.85zm-180 0a.848.848 0 00-.785.524.852.852 0 00.785 1.176c.466 0 .85-.384.85-.85a.854.854 0 00-.85-.85zm140 0a.848.848 0 00-.785.524.852.852 0 00.785 1.176c.466 0 .85-.384.85-.85a.854.854 0 00-.85-.85zm20 0a.855.855 0 00-.85.85c0 .466.384.85.85.85.467 0 .85-.384.85-.85a.854.854 0 00-.85-.85zm-120 0a.855.855 0 00-.85.85c0 .466.384.85.85.85.467 0 .85-.384.85-.85a.854.854 0 00-.85-.85zm80 0a.854.854 0 00-.85.85c0 .467.383.851.85.851a.855.855 0 00.851-.851.855.855 0 00-.851-.85zm-20 0a.855.855 0 00-.85.85c0 .466.384.85.85.85.467 0 .85-.384.85-.85a.854.854 0 00-.85-.85zm-80 0a.848.848 0 00-.85.85c0 .466.384.85.85.85.466 0 .85-.384.85-.85a.854.854 0 00-.85-.85zm60 0a.848.848 0 00-.785.524.852.852 0 00.785 1.176c.466 0 .85-.384.85-.85a.854.854 0 00-.85-.85zm-100 0a.855.855 0 00-.85.85c0 .466.384.85.85.85.467 0 .85-.384.85-.85a.854.854 0 00-.85-.85zm220 0a.848.848 0 00-.785.524.852.852 0 00.785 1.176c.466 0 .85-.384.85-.85a.854.854 0 00-.85-.85z"
                  fill="#727274" fill-opacity=".75" fill-rule="nonzero"/>
        </g>
    </g>
    <path d="M.096 132.023a.854.854 0 00-.85.85c0 .467.383.851.85.851.467 0 .85-.384.85-.851a.854.854 0 00-.85-.85zm0-11.556a.854.854 0 00-.85.851c0 .466.383.85.85.85.467 0 .85-.384.85-.85a.854.854 0 00-.85-.851zm0 23.111a.844.844 0 00-.472.144.846.846 0 00-.361.873.85.85 0 101.434-.768.842.842 0 00-.601-.249zm0-46.222a.854.854 0 00-.85.85c0 .467.383.851.85.851.467 0 .85-.384.85-.851a.854.854 0 00-.85-.85zm0 11.555a.856.856 0 00-.84.852.856.856 0 00.845.85.85.85 0 00-.005-1.702zm0 80.889a.852.852 0 00-.849.85c0 .466.384.85.85.85.467 0 .85-.384.85-.85a.854.854 0 00-.85-.85H.096zm0-11.555a.854.854 0 00-.85.851c0 .466.383.85.85.85.467 0 .85-.384.85-.85a.854.854 0 00-.85-.851zm0-23.111a.854.854 0 00-.85.851c0 .466.383.85.85.85.467 0 .85-.384.85-.85a.854.854 0 00-.85-.851zm0 11.555a.854.854 0 00-.85.851c0 .466.383.85.85.85.467 0 .85-.384.85-.85a.854.854 0 00-.85-.851zm0-92.444a.854.854 0 00-.85.851c0 .466.383.85.85.85.467 0 .85-.384.85-.85a.854.854 0 00-.85-.851zm0-46.222a.855.855 0 00-.851.851c0 .466.384.85.851.85a.855.855 0 00.851-.85.855.855 0 00-.851-.851zm0-11.556a.855.855 0 00-.851.851c0 .466.384.85.851.85a.855.855 0 00.851-.85.855.855 0 00-.851-.851zm0-11.556a.856.856 0 00-.84.852.856.856 0 00.845.85.85.85 0 00-.005-1.702zm0 34.667a.844.844 0 00-.472.144.846.846 0 00-.361.873.843.843 0 00.838.685.85.85 0 00-.005-1.702zm0 23.111a.854.854 0 00-.85.851c0 .466.383.85.85.85a.855.855 0 00.851-.85.855.855 0 00-.851-.851zm0-11.555a.855.855 0 00-.851.851c0 .466.384.85.851.85a.855.855 0 00.851-.85.855.855 0 00-.851-.851zm0 150.222a.854.854 0 00-.85.851c0 .466.383.85.85.85.467 0 .85-.384.85-.85a.854.854 0 00-.85-.851zm0-115.556a.852.852 0 00-.849.85c0 .466.384.85.85.85.467 0 .85-.384.85-.85a.854.854 0 00-.85-.85H.096zm240-34.666a.854.854 0 00-.85.851c0 .466.383.85.85.85a.855.855 0 00.851-.85.855.855 0 00-.851-.851zm0 34.666a.852.852 0 00-.849.85c0 .466.384.85.85.85.467 0 .85-.384.85-.85a.854.854 0 00-.85-.85h-.001zm0-23.111a.854.854 0 00-.85.851c0 .466.383.85.85.85a.855.855 0 00.851-.85.855.855 0 00-.851-.851zm0 11.556a.854.854 0 00-.85.851c0 .466.383.85.85.85a.855.855 0 00.851-.85.855.855 0 00-.851-.851zm0 34.666a.856.856 0 00-.84.852.856.856 0 00.845.85.85.85 0 00-.005-1.702zm0-102.299a.855.855 0 00.85-.85.854.854 0 00-.85-.85.854.854 0 00-.85.85c0 .466.383.85.85.85zm0 113.855a.854.854 0 00-.85.851c0 .466.383.85.85.85a.855.855 0 00.851-.85.855.855 0 00-.851-.851zm0-104a.854.854 0 00-.85.851c0 .466.383.85.85.85a.855.855 0 00.851-.85.855.855 0 00-.851-.851zm0 23.111a.852.852 0 00-.849.85c0 .466.384.85.85.85.467 0 .85-.384.85-.85a.854.854 0 00-.85-.85h-.001zm0-11.555a.854.854 0 00-.85.851c0 .466.383.85.85.85a.855.855 0 00.851-.85.855.855 0 00-.851-.851zm0 69.333a.854.854 0 00-.85.851c0 .466.383.85.85.85a.855.855 0 00.851-.85.855.855 0 00-.851-.851zm0 104a.854.854 0 00-.85.851c0 .466.383.85.85.85a.855.855 0 00.851-.85.855.855 0 00-.851-.851zm0-23.111a.854.854 0 00-.85.851c0 .466.383.85.85.85a.855.855 0 00.851-.85.855.855 0 00-.851-.851zm0-46.222a.854.854 0 00-.85.851c0 .466.383.85.85.85.467 0 .85-.384.85-.85a.854.854 0 00-.85-.851zm0 34.666a.854.854 0 00-.85.851c0 .466.383.85.85.85.467 0 .85-.384.85-.85a.854.854 0 00-.85-.851zm0 23.111a.852.852 0 00-.849.85c0 .466.384.85.85.85.467 0 .85-.384.85-.85a.854.854 0 00-.85-.85h-.001zm0-46.222a.844.844 0 00-.472.144.846.846 0 00-.361.873.85.85 0 101.434-.768.842.842 0 00-.601-.249zm0 11.556a.854.854 0 00-.85.851c0 .466.383.85.85.85.467 0 .85-.384.85-.85a.854.854 0 00-.85-.851zm-150-156a.854.854 0 00-.85.851c0 .466.383.85.85.85a.855.855 0 00.851-.85.855.855 0 00-.851-.851zm20 0a.848.848 0 00-.85.85c0 .466.384.85.85.85.466 0 .85-.384.85-.85a.854.854 0 00-.85-.85zm20 0a.855.855 0 00-.85.85c0 .466.384.85.85.85.467 0 .85-.384.85-.85a.854.854 0 00-.85-.85zm100 0a.848.848 0 00-.85.85c0 .466.384.85.85.85.466 0 .85-.384.85-.85a.854.854 0 00-.85-.85zm-180 0a.848.848 0 00-.85.85c0 .466.384.85.85.85.466 0 .85-.384.85-.85a.854.854 0 00-.85-.85zm160 0a.854.854 0 00-.85.851c0 .466.383.85.85.85a.855.855 0 00.851-.85.855.855 0 00-.851-.851zm-180 0a.848.848 0 00-.785.524.852.852 0 00.785 1.176c.466 0 .85-.384.85-.85a.854.854 0 00-.85-.85zm120 0a.854.854 0 00-.85.851c0 .466.383.85.85.85a.855.855 0 00.851-.85.855.855 0 00-.851-.851zm-80 0a.855.855 0 00-.85.85c0 .466.384.85.85.85.467 0 .85-.384.85-.85a.854.854 0 00-.85-.85zm100 0a.848.848 0 00-.785.524.852.852 0 00.785 1.176c.466 0 .85-.384.85-.85a.854.854 0 00-.85-.85zm-160 0a.855.855 0 00-.85.85c0 .466.384.85.85.85.467 0 .85-.384.85-.85a.854.854 0 00-.85-.85zm180 0a.855.855 0 00-.85.85c0 .466.384.85.85.85.467 0 .85-.384.85-.85a.854.854 0 00-.85-.85zm-110 121.333a.857.857 0 00-.834 1.016.848.848 0 001.682-.166.853.853 0 00-.848-.85zm0 69.333a.847.847 0 00-.849.85c0 .404.287.755.683.835a.846.846 0 00.872-.362.848.848 0 00-.706-1.323zm0-34.666a.848.848 0 00-.785.524.852.852 0 00.785 1.176c.466 0 .85-.384.85-.85a.854.854 0 00-.85-.85zm0 23.111a.848.848 0 00-.785.524.852.852 0 00.785 1.176c.466 0 .85-.384.85-.85a.854.854 0 00-.85-.85zm0-34.667a.857.857 0 00-.834 1.016.857.857 0 00.827.684c.466 0 .85-.384.85-.85a.854.854 0 00-.843-.85zm0-11.555h-.006a.848.848 0 00-.828 1.016c.079.396.43.684.834.684.466 0 .85-.384.85-.85a.854.854 0 00-.85-.85zm0 34.666a.857.857 0 00-.834 1.016.856.856 0 00.832.684c.466 0 .85-.384.85-.85a.853.853 0 00-.848-.85zm0-161.778a.847.847 0 00-.785.525.848.848 0 101.634.325.854.854 0 00-.849-.85zm10 190.667a.844.844 0 00-.472.144.846.846 0 00-.361.873.856.856 0 001.159.619.85.85 0 00-.324-1.636h-.002zm-10-179.111a.857.857 0 00-.834 1.016.856.856 0 00.832.684c.466 0 .85-.384.85-.85a.853.853 0 00-.848-.85zm10 156a.854.854 0 00-.85.851c0 .466.383.85.85.85a.855.855 0 00.851-.85.855.855 0 00-.851-.851zm-10-144.444a.848.848 0 00-.785.524.852.852 0 00.785 1.176c.466 0 .85-.384.85-.85a.854.854 0 00-.85-.85zm10 156a.854.854 0 00-.85.851c0 .466.383.85.85.85.467 0 .85-.384.85-.85a.854.854 0 00-.85-.851zm-10-144.445a.857.857 0 00-.834 1.016.857.857 0 00.837.686.85.85 0 00.847-.847v-.005a.857.857 0 00-.85-.85zm0 46.222a.847.847 0 00-.785.525.848.848 0 101.634.325.854.854 0 00-.849-.85zm0 23.111a.847.847 0 00-.785.525.848.848 0 101.634.325.854.854 0 00-.849-.85zm0-34.666a.857.857 0 00-.834 1.016c.079.396.43.684.834.684.466 0 .85-.384.85-.85a.854.854 0 00-.85-.85zm0 23.111a.847.847 0 00-.85.85c0 .466.384.85.85.85.467 0 .85-.384.85-.85a.854.854 0 00-.85-.85zm0-34.667a.857.857 0 00-.834 1.016c.079.396.43.684.834.684.466 0 .85-.384.85-.85a.854.854 0 00-.85-.85zm0-11.555a.848.848 0 00-.785.524.852.852 0 00.785 1.176c.466 0 .85-.384.85-.85a.854.854 0 00-.85-.85zm-20-34.667a.855.855 0 00-.85.85c0 .466.384.85.85.85.467 0 .85-.384.85-.85a.854.854 0 00-.85-.85zm10 179.111a.847.847 0 00-.785.525.856.856 0 00.185.927.847.847 0 001.307-.129.856.856 0 00-.106-1.074.842.842 0 00-.601-.249zm0-23.111a.855.855 0 00-.85.85c0 .466.384.85.85.85.467 0 .85-.384.85-.85a.854.854 0 00-.85-.85zm0-34.667a.847.847 0 00-.849.85c0 .466.384.85.85.85.466 0 .85-.384.85-.85a.854.854 0 00-.85-.85h-.001zm0 11.556a.855.855 0 00-.85.85c0 .466.384.85.85.85.467 0 .85-.384.85-.85a.854.854 0 00-.85-.85zm0 11.555a.855.855 0 00-.849.85c0 .466.384.85.85.85.466 0 .85-.384.85-.85a.854.854 0 00-.85-.85h-.001zm0 23.112a.855.855 0 00-.85.85c0 .466.384.85.85.85.467 0 .85-.384.85-.85a.854.854 0 00-.85-.85zm-10-179.112a.847.847 0 00-.785.525.848.848 0 101.634.325.854.854 0 00-.849-.85zm0 46.223a.848.848 0 00-.785.524.852.852 0 00.785 1.176c.466 0 .85-.384.85-.85a.854.854 0 00-.85-.85zm0 11.555a.855.855 0 00-.85.85c0 .466.384.85.85.85.467 0 .85-.384.85-.85a.854.854 0 00-.85-.85zm0-34.666a.848.848 0 00-.785.524.852.852 0 00.785 1.176c.466 0 .85-.384.85-.85a.854.854 0 00-.85-.85zm0 11.555a.855.855 0 00-.85.85c0 .466.384.85.85.85.467 0 .85-.384.85-.85a.854.854 0 00-.85-.85zm10 52a.847.847 0 00-.785.525.856.856 0 00.185.927.847.847 0 001.307-.129.856.856 0 00-.106-1.074.842.842 0 00-.601-.249zm0-57.778a.847.847 0 00-.849.85c0 .466.384.85.85.85.466 0 .85-.384.85-.85a.854.854 0 00-.85-.85h-.001zm0 92.445a.855.855 0 00-.85.85c0 .466.384.85.85.85.467 0 .85-.384.85-.85a.854.854 0 00-.85-.85zm0-104a.855.855 0 00-.85.85c0 .466.384.85.85.85.467 0 .85-.384.85-.85a.854.854 0 00-.85-.85zm0 34.667a.847.847 0 00-.85.85c0 .466.384.85.85.85.467 0 .85-.384.85-.85a.854.854 0 00-.85-.85zm0-46.223a.847.847 0 00-.847.843.851.851 0 001.554.48.851.851 0 00-.707-1.323zm0 34.667a.855.855 0 00-.85.85c0 .466.384.85.85.85.467 0 .85-.384.85-.85a.854.854 0 00-.85-.85zm0 57.778a.855.855 0 00-.85.85c0 .466.384.85.85.85.467 0 .85-.384.85-.85a.854.854 0 00-.85-.85zm0 11.555a.855.855 0 00-.85.85c0 .466.384.85.85.85.467 0 .85-.384.85-.85a.854.854 0 00-.85-.85zm0-46.222a.855.855 0 00-.85.85c0 .466.384.85.85.85.467 0 .85-.384.85-.85a.854.854 0 00-.85-.85zm0 11.556a.855.855 0 00-.85.85c0 .466.384.85.85.85.467 0 .85-.384.85-.85a.854.854 0 00-.85-.85zm10 121.333a.857.857 0 00-.834 1.016c.079.396.43.684.834.684.466 0 .85-.384.85-.85a.854.854 0 00-.85-.85zm20-57.778a.847.847 0 00-.785.525.856.856 0 00.185.927.847.847 0 001.307-.129.856.856 0 00-.106-1.074.842.842 0 00-.601-.249zm10 28.889a.857.857 0 00-.834 1.016.848.848 0 001.682-.166.853.853 0 00-.848-.85zm0-46.222a.848.848 0 00-.785.524.852.852 0 00.785 1.176c.466 0 .85-.384.85-.85a.854.854 0 00-.85-.85zm0 34.666a.847.847 0 00-.785.525.848.848 0 101.634.325.854.854 0 00-.849-.85zm0-11.555a.857.857 0 00-.834 1.016c.079.396.43.684.834.684.466 0 .85-.384.85-.85a.854.854 0 00-.85-.85zm0 46.222a.857.857 0 00-.834 1.016.857.857 0 00.827.684c.466 0 .85-.384.85-.85a.854.854 0 00-.843-.85zm0-57.778a.847.847 0 00-.785.525.848.848 0 101.634.325.854.854 0 00-.849-.85zm0 46.223h-.006a.848.848 0 00-.828 1.016c.079.396.43.684.834.684.466 0 .85-.384.85-.85a.854.854 0 00-.85-.85zm-10-179.112a.855.855 0 00-.849.85c0 .466.384.85.85.85.466 0 .85-.384.85-.85a.854.854 0 00-.85-.85h-.001zm0 46.223a.855.855 0 00-.85.85c0 .466.384.85.85.85.467 0 .85-.384.85-.85a.854.854 0 00-.85-.85zm0 11.555a.847.847 0 00-.85.85c0 .466.384.85.85.85.467 0 .85-.384.85-.85a.854.854 0 00-.85-.85zm0-46.222a.855.855 0 00-.85.85c0 .466.384.85.85.85.467 0 .85-.384.85-.85a.854.854 0 00-.85-.85zm0 23.111a.847.847 0 00-.785.525.856.856 0 00.185.927.847.847 0 001.307-.129.859.859 0 00-.106-1.074.842.842 0 00-.601-.249zm10-5.778a.847.847 0 00-.785.525.848.848 0 101.634.325.854.854 0 00-.849-.85zm0 80.889a.855.855 0 00-.785.525.856.856 0 00.793 1.177.855.855 0 00.851-.851.855.855 0 00-.851-.851h-.008zm0-92.444a.857.857 0 00-.834 1.016c.079.396.43.684.834.684.466 0 .85-.384.85-.85a.854.854 0 00-.85-.85zm-10 52a.855.855 0 00-.85.85c0 .466.384.85.85.85.467 0 .85-.384.85-.85a.854.854 0 00-.85-.85zm-10 86.666a.856.856 0 00-.84.852.856.856 0 00.845.85.85.85 0 00-.005-1.702zm-30-86.666a.855.855 0 00-.85.85c0 .466.384.85.85.85.467 0 .85-.384.85-.85a.854.854 0 00-.85-.85zm50-28.889a.857.857 0 00-.834 1.016c.079.396.43.684.834.684.466 0 .85-.384.85-.85a.854.854 0 00-.85-.85zm0 57.778a.848.848 0 00-.785.524.852.852 0 00.785 1.176c.466 0 .85-.384.85-.85a.854.854 0 00-.85-.85zm0-11.556a.857.857 0 00-.834 1.016.857.857 0 00.831.685.857.857 0 00.853-.851.857.857 0 00-.85-.85zm0-23.111a.857.857 0 00-.834 1.016.856.856 0 00.832.684c.466 0 .85-.384.85-.85a.853.853 0 00-.848-.85zm0 11.556a.848.848 0 00-.785.524.852.852 0 00.785 1.176c.466 0 .85-.384.85-.85a.854.854 0 00-.85-.85zm0-23.111h-.006a.848.848 0 00-.828 1.016c.079.396.43.684.834.684.466 0 .85-.384.85-.85a.854.854 0 00-.85-.85zm0-46.223a.855.855 0 00-.785.525.856.856 0 00.619 1.159.845.845 0 00.872-.361.848.848 0 00-.706-1.323zm-20 57.778a.854.854 0 00-.85.851c0 .466.383.85.85.85a.855.855 0 00.851-.85.855.855 0 00-.851-.851zm0 11.556a.854.854 0 00-.85.851c0 .466.383.85.85.85a.855.855 0 00.851-.85.855.855 0 00-.851-.851zm0-23.111a.844.844 0 00-.85.85c0 .466.384.85.85.85.467 0 .85-.384.85-.85a.854.854 0 00-.85-.85zm0-11.556a.854.854 0 00-.85.851c0 .466.383.85.85.85a.855.855 0 00.851-.85.855.855 0 00-.851-.851zm0-11.556a.852.852 0 00-.849.85c0 .466.384.85.85.85.467 0 .85-.384.85-.85a.854.854 0 00-.85-.85h-.001zm0 57.778a.844.844 0 00-.472.144.846.846 0 00-.361.873.856.856 0 001.159.619.85.85 0 00-.324-1.636h-.002zm0 57.778a.854.854 0 00-.85.851c0 .466.383.85.85.85.467 0 .85-.384.85-.85a.854.854 0 00-.85-.851zm0-11.556a.852.852 0 00-.849.85c0 .466.384.85.85.85.467 0 .85-.384.85-.85a.854.854 0 00-.85-.85h-.001zm0-23.111a.855.855 0 00-.85.85c0 .466.384.85.85.85.467 0 .85-.384.85-.85a.854.854 0 00-.85-.85zm0-11.555a.854.854 0 00-.85.851c0 .466.383.85.85.85a.855.855 0 00.851-.85.855.855 0 00-.851-.851zm0 23.111a.854.854 0 00-.85.851c0 .466.383.85.85.85a.855.855 0 00.851-.85.855.855 0 00-.851-.851zm10-28.889a.855.855 0 00-.85.85c0 .466.384.85.85.85.467 0 .85-.384.85-.85a.854.854 0 00-.85-.85zm0 57.778a.855.855 0 00-.85.85c0 .466.384.85.85.85.467 0 .85-.384.85-.85a.854.854 0 00-.85-.85zm0-34.667a.855.855 0 00-.85.85c0 .466.384.85.85.85.467 0 .85-.384.85-.85a.854.854 0 00-.85-.85zm0 11.556a.855.855 0 00-.85.85c0 .466.384.85.85.85.467 0 .85-.384.85-.85a.854.854 0 00-.85-.85zm-10-109.778a.854.854 0 00-.85.851c0 .466.383.85.85.85a.855.855 0 00.851-.85.855.855 0 00-.851-.851zm10 86.666a.855.855 0 00-.849.85c0 .466.384.85.85.85.466 0 .85-.384.85-.85a.854.854 0 00-.85-.85h-.001zm0-23.111a.847.847 0 00-.849.85c0 .466.384.85.85.85.466 0 .85-.384.85-.85a.854.854 0 00-.85-.85h-.001zm0 80.889a.855.855 0 00-.85.85c0 .466.384.85.85.85.467 0 .85-.384.85-.85a.854.854 0 00-.85-.85zm-10-156a.855.855 0 00-.785.525.856.856 0 00.789 1.169.851.851 0 00.703-.371.855.855 0 00-.106-1.074.853.853 0 00-.601-.249zm10 190.667a.855.855 0 00-.85.85c0 .466.384.85.85.85.467 0 .85-.384.85-.85a.854.854 0 00-.85-.85zm0-11.556a.847.847 0 00-.849.85c0 .466.384.85.85.85.466 0 .85-.384.85-.85a.854.854 0 00-.85-.85h-.001zm0-11.555a.855.855 0 00-.85.85c0 .466.384.85.85.85.467 0 .85-.384.85-.85a.854.854 0 00-.85-.85zm0-150.222a.855.855 0 00-.85.85c0 .466.384.85.85.85.467 0 .85-.384.85-.85a.854.854 0 00-.85-.85zm-70 17.333a.855.855 0 00-.85.85c0 .466.384.85.85.85.467 0 .85-.384.85-.85a.854.854 0 00-.85-.85zm-10 75.111a.855.855 0 00-.85.85c0 .466.384.85.85.85.467 0 .85-.384.85-.85a.854.854 0 00-.85-.85zm0-80.889a.847.847 0 00-.785.525.848.848 0 001.492.798.859.859 0 00-.106-1.074.852.852 0 00-.601-.249zm0-34.667a.855.855 0 00-.849.85c0 .466.384.85.85.85.466 0 .85-.384.85-.85a.854.854 0 00-.85-.85h-.001zm0 46.223a.855.855 0 00-.85.85c0 .466.384.85.85.85.467 0 .85-.384.85-.85a.854.854 0 00-.85-.85zm10 144.444a.855.855 0 00-.85.85c0 .466.384.85.85.85.467 0 .85-.384.85-.85a.854.854 0 00-.85-.85zm-10-132.889a.855.855 0 00-.85.85c0 .466.384.85.85.85.467 0 .85-.384.85-.85a.854.854 0 00-.85-.85zm0 34.667a.855.855 0 00-.85.85c0 .466.384.85.85.85.467 0 .85-.384.85-.85a.854.854 0 00-.85-.85zm10.001 86.667h-.006a.848.848 0 00-.828 1.016c.079.396.43.684.834.684.466 0 .85-.384.85-.85a.854.854 0 00-.85-.85zM60.096 85.8a.847.847 0 00-.785.525.848.848 0 101.634.325.854.854 0 00-.849-.85zm-40-11.555a.855.855 0 00-.85.85c0 .466.384.85.85.85.467 0 .85-.384.85-.85a.854.854 0 00-.85-.85zm0 11.555a.847.847 0 00-.849.85c0 .466.384.85.85.85.466 0 .85-.384.85-.85a.854.854 0 00-.85-.85h-.001zm0-57.777a.855.855 0 00-.85.85c0 .466.384.85.85.85.467 0 .85-.384.85-.85a.854.854 0 00-.85-.85zm10 75.111a.848.848 0 00-.785.524.852.852 0 00.785 1.176c.466 0 .85-.384.85-.85a.854.854 0 00-.85-.85zm0-11.556a.855.855 0 00-.85.85c0 .466.384.85.85.85.467 0 .85-.384.85-.85a.854.854 0 00-.85-.85zm0-11.555a.848.848 0 00-.785.524.852.852 0 00.785 1.176c.466 0 .85-.384.85-.85a.854.854 0 00-.85-.85zm0-11.556a.855.855 0 00-.85.85c0 .466.384.85.85.85.467 0 .85-.384.85-.85a.854.854 0 00-.85-.85zm.001-11.555h-.006a.848.848 0 00-.828 1.016c.079.396.43.684.834.684.466 0 .85-.384.85-.85a.854.854 0 00-.85-.85zm-.001 115.555a.855.855 0 00-.85.85c0 .466.384.85.85.85.467 0 .85-.384.85-.85a.854.854 0 00-.85-.85zm0-23.111a.855.855 0 00-.85.85c0 .466.384.85.85.85.467 0 .85-.384.85-.85a.854.854 0 00-.85-.85zm0 11.555a.847.847 0 00-.785.525.848.848 0 101.634.325.854.854 0 00-.849-.85zm0-23.111a.847.847 0 00-.848.847.856.856 0 001.173.789.855.855 0 00.525-.785v-.001a.854.854 0 00-.85-.85zm0-11.555a.848.848 0 00-.785.524.852.852 0 00.785 1.176c.466 0 .85-.384.85-.85a.854.854 0 00-.85-.85zm0-11.556a.855.855 0 00-.85.85c0 .466.384.85.85.85.467 0 .85-.384.85-.85a.854.854 0 00-.85-.85zm-10-98.222a.855.855 0 00-.85.85c0 .466.384.85.85.85.467 0 .85-.384.85-.85a.854.854 0 00-.85-.85zm-10 98.222a.855.855 0 00-.85.85c0 .466.384.85.85.85.467 0 .85-.384.85-.85a.854.854 0 00-.85-.85zm0 11.556a.855.855 0 00-.85.85c0 .466.384.85.85.85.467 0 .85-.384.85-.85a.854.854 0 00-.85-.85zm0-34.667a.847.847 0 00-.785.525.856.856 0 00.185.927.847.847 0 001.307-.129.856.856 0 00-.106-1.074.842.842 0 00-.601-.249zm0 46.222a.847.847 0 00-.849.85c0 .466.384.85.85.85.466 0 .85-.384.85-.85a.854.854 0 00-.85-.85h-.001zm0-34.666a.855.855 0 00-.85.85c0 .466.384.85.85.85.467 0 .85-.384.85-.85a.854.854 0 00-.85-.85zm0 80.889a.855.855 0 00-.85.85c0 .466.384.85.85.85.467 0 .85-.384.85-.85a.854.854 0 00-.85-.85zm0-115.556a.855.855 0 00-.85.85c0 .466.384.85.85.85.467 0 .85-.384.85-.85a.854.854 0 00-.85-.85zm0 127.111a.847.847 0 00-.785.525.856.856 0 00.185.927.847.847 0 001.307-.129.856.856 0 00-.106-1.074.842.842 0 00-.601-.249zm0-34.667a.855.855 0 00-.849.85c0 .466.384.85.85.85.466 0 .85-.384.85-.85a.854.854 0 00-.85-.85h-.001zm0-11.555a.855.855 0 00-.85.85c0 .466.384.85.85.85.467 0 .85-.384.85-.85a.854.854 0 00-.85-.85zm0 23.111a.855.855 0 00-.85.85c0 .466.384.85.85.85.467 0 .85-.384.85-.85a.854.854 0 00-.85-.85zm10-17.333a.855.855 0 00-.85.85c0 .466.384.85.85.85.467 0 .85-.384.85-.85a.854.854 0 00-.85-.85zm0 34.666a.847.847 0 00-.849.85c0 .466.384.85.85.85.466 0 .85-.384.85-.85a.854.854 0 00-.85-.85h-.001zm0-11.555a.855.855 0 00-.85.85c0 .466.384.85.85.85.467 0 .85-.384.85-.85a.854.854 0 00-.85-.85zm0-11.556a.855.855 0 00-.85.85c0 .466.384.85.85.85.467 0 .85-.384.85-.85a.854.854 0 00-.85-.85zm0-23.111a.847.847 0 00-.785.525.848.848 0 101.635.325.854.854 0 00-.85-.85zm-10-86.666a.847.847 0 00-.85.85c0 .466.384.85.85.85.467 0 .85-.384.85-.85a.854.854 0 00-.85-.85zm10 75.111a.855.855 0 00-.85.85c0 .466.384.85.85.85.467 0 .85-.384.85-.85a.854.854 0 00-.85-.85zm-10-98.223a.847.847 0 00-.849.85c0 .466.384.85.85.85.466 0 .85-.384.85-.85a.854.854 0 00-.85-.85h-.001zm0 11.556a.855.855 0 00-.85.85c0 .466.384.85.85.85.467 0 .85-.384.85-.85a.854.854 0 00-.85-.85zm10 156a.855.855 0 00-.85.85c0 .466.384.85.85.85.467 0 .85-.384.85-.85a.854.854 0 00-.85-.85zm-10-190.667a.847.847 0 00-.847.843.851.851 0 001.554.48.851.851 0 00-.707-1.323zm0 11.556a.855.855 0 00-.85.85c0 .466.384.85.85.85.467 0 .85-.384.85-.85a.854.854 0 00-.85-.85zm10 86.666a.855.855 0 00-.849.85c0 .466.384.85.85.85.466 0 .85-.384.85-.85a.854.854 0 00-.85-.85h-.001zm30-51.999h-.006a.848.848 0 00-.828 1.016c.079.396.43.684.834.684.466 0 .85-.384.85-.85a.854.854 0 00-.85-.85zm0 103.999a.847.847 0 00-.85.85c0 .466.384.85.85.85.467 0 .85-.384.85-.85a.854.854 0 00-.85-.85zm0-80.888a.848.848 0 00-.85.85c0 .466.384.85.85.85.466 0 .85-.384.85-.85a.854.854 0 00-.85-.85zm0-34.667a.855.855 0 00-.85.85c0 .466.384.85.85.85.467 0 .85-.384.85-.85a.854.854 0 00-.85-.85zm0-11.556a.847.847 0 00-.85.85c0 .466.384.85.85.85.467 0 .85-.384.85-.85a.854.854 0 00-.85-.85zm0 57.778a.857.857 0 00-.834 1.016.857.857 0 00.837.686.85.85 0 00.847-.847v-.005a.857.857 0 00-.85-.85zm0 11.556a.848.848 0 00-.85.85c0 .466.384.85.85.85.466 0 .85-.384.85-.85a.854.854 0 00-.85-.85zm0 34.666a.847.847 0 00-.848.848.846.846 0 001.554.475.848.848 0 00-.706-1.323zm0 11.556a.855.855 0 00-.85.85c0 .466.384.85.85.85.467 0 .85-.384.85-.85a.854.854 0 00-.85-.85zm0-34.667a.855.855 0 00-.785.525.856.856 0 00.783 1.175c.466 0 .85-.384.85-.85a.853.853 0 00-.848-.85zm0-92.444a.855.855 0 00-.85.85c0 .466.384.85.85.85.467 0 .85-.384.85-.85a.854.854 0 00-.85-.85zm0 104a.848.848 0 00-.85.85c0 .466.384.85.85.85.466 0 .85-.384.85-.85a.854.854 0 00-.85-.85zm0-57.778a.855.855 0 00-.785.525.856.856 0 00.783 1.175c.466 0 .85-.384.85-.85a.853.853 0 00-.848-.85zm0-57.778a.855.855 0 00-.785.525.856.856 0 00.619 1.159.843.843 0 00.872-.361.848.848 0 00-.706-1.323zm10.001 121.334h-.006a.848.848 0 00-.828 1.016c.079.396.43.684.834.684.466 0 .85-.384.85-.85a.854.854 0 00-.85-.85zm-.001 11.555a.855.855 0 00-.85.85c0 .466.384.85.85.85.467 0 .85-.384.85-.85a.854.854 0 00-.85-.85zm0-46.222a.855.855 0 00-.85.85c0 .466.384.85.85.85.467 0 .85-.384.85-.85a.854.854 0 00-.85-.85zm0 11.555a.847.847 0 00-.785.525.848.848 0 101.634.325.854.854 0 00-.849-.85zm0 11.556a.855.855 0 00-.85.85c0 .466.384.85.85.85.467 0 .85-.384.85-.85a.854.854 0 00-.85-.85zm0 34.667a.848.848 0 00-.785.524.852.852 0 00.785 1.176c.466 0 .85-.384.85-.85a.854.854 0 00-.85-.85zm0 34.666a.847.847 0 00-.848.847.856.856 0 001.173.789.855.855 0 00.525-.785v-.001a.854.854 0 00-.85-.85zm0 11.556a.855.855 0 00-.85.85c0 .466.384.85.85.85.467 0 .85-.384.85-.85a.854.854 0 00-.85-.85zm0-34.667a.855.855 0 00-.85.85c0 .466.384.85.85.85.467 0 .85-.384.85-.85a.854.854 0 00-.85-.85zm0 11.556a.848.848 0 00-.785.524.852.852 0 00.785 1.176c.466 0 .85-.384.85-.85a.854.854 0 00-.85-.85zm-20-11.556a.855.855 0 00-.85.85c0 .466.384.85.85.85.467 0 .85-.384.85-.85a.854.854 0 00-.85-.85zm0-23.111a.847.847 0 00-.785.525.856.856 0 00.185.927.847.847 0 001.307-.129.856.856 0 00-.106-1.074.842.842 0 00-.601-.249zm0 11.556a.855.855 0 00-.85.85c0 .466.384.85.85.85.467 0 .85-.384.85-.85a.854.854 0 00-.85-.85zm0-46.223a.855.855 0 00-.849.85c0 .466.384.85.85.85.466 0 .85-.384.85-.85a.854.854 0 00-.85-.85h-.001zm0 11.556a.855.855 0 00-.85.85c0 .466.384.85.85.85.467 0 .85-.384.85-.85a.854.854 0 00-.85-.85zm-10-86.667a.847.847 0 00-.849.848c0 .404.287.756.683.837a.848.848 0 001.009-.835.854.854 0 00-.843-.85zm10 98.223a.855.855 0 00-.85.85c0 .466.384.85.85.85.467 0 .85-.384.85-.85a.854.854 0 00-.85-.85zm-10-109.778a.855.855 0 00-.85.85c0 .466.384.85.85.85.467 0 .85-.384.85-.85a.854.854 0 00-.85-.85zm0-11.556a.855.855 0 00-.85.85c0 .466.384.85.85.85.467 0 .85-.384.85-.85a.854.854 0 00-.85-.85zm10 167.556a.855.855 0 00-.85.85c0 .466.384.85.85.85.467 0 .85-.384.85-.85a.854.854 0 00-.85-.85zm0 11.555a.847.847 0 00-.849.85c0 .466.384.85.85.85.466 0 .85-.384.85-.85a.854.854 0 00-.85-.85h-.001zm0 11.556a.855.855 0 00-.85.85c0 .466.384.85.85.85.467 0 .85-.384.85-.85a.854.854 0 00-.85-.85zm0-173.333a.855.855 0 00-.85.85c0 .466.384.85.85.85.467 0 .85-.384.85-.85a.854.854 0 00-.85-.85zm10 144.444a.855.855 0 00-.851.853.85.85 0 00.849.847c.466 0 .85-.384.85-.85a.853.853 0 00-.848-.85zm-10-167.556a.855.855 0 00-.849.85c0 .466.384.85.85.85.466 0 .85-.384.85-.85a.854.854 0 00-.85-.85h-.001zm0 11.556a.855.855 0 00-.85.85c0 .466.384.85.85.85.467 0 .85-.384.85-.85a.854.854 0 00-.85-.85zm10 167.556h-.006a.848.848 0 00-.828 1.016c.079.396.43.684.834.684.466 0 .85-.384.85-.85a.854.854 0 00-.85-.85zm0 11.555a.855.855 0 00-.849.848c0 .404.287.756.683.837a.848.848 0 001.009-.835.854.854 0 00-.843-.85zm-10-132.889a.847.847 0 00-.85.85c0 .466.384.85.85.85.467 0 .85-.384.85-.85a.854.854 0 00-.85-.85zm0 11.556a.855.855 0 00-.85.85c0 .466.384.85.85.85.467 0 .85-.384.85-.85a.854.854 0 00-.85-.85zm0 11.555a.847.847 0 00-.849.85c0 .466.384.85.85.85.466 0 .85-.384.85-.85a.854.854 0 00-.85-.85h-.001zm0 11.556a.855.855 0 00-.85.85c0 .466.384.85.85.85.467 0 .85-.384.85-.85a.854.854 0 00-.85-.85zm0-46.222a.855.855 0 00-.85.85c0 .466.384.85.85.85.467 0 .85-.384.85-.85a.854.854 0 00-.85-.85zm0-11.556a.847.847 0 00-.785.525.856.856 0 00.185.927.847.847 0 001.307-.129.859.859 0 00-.106-1.074.842.842 0 00-.601-.249zm-30 40.445a.855.855 0 00-.85.85c0 .466.384.85.85.85.467 0 .85-.384.85-.85a.854.854 0 00-.85-.85zm180-34.667a.855.855 0 00-.85.85c0 .466.384.85.85.85.467 0 .85-.384.85-.85a.854.854 0 00-.85-.85zm0-23.111a.855.855 0 00-.85.85c0 .466.384.85.85.85.467 0 .85-.384.85-.85a.854.854 0 00-.85-.85zm0 11.555a.847.847 0 00-.849.85c0 .466.384.85.85.85.466 0 .85-.384.85-.85a.854.854 0 00-.85-.85h-.001zm0-23.111a.847.847 0 00-.847.843.851.851 0 001.554.48.851.851 0 00-.707-1.323zm10 190.667a.857.857 0 00-.834 1.016c.079.396.43.684.834.684.466 0 .85-.384.85-.85a.854.854 0 00-.85-.85zm0-11.556a.847.847 0 00-.785.525.848.848 0 101.634.325.854.854 0 00-.849-.85zm-10-132.888a.847.847 0 00-.85.85c0 .466.384.85.85.85.467 0 .85-.384.85-.85a.854.854 0 00-.85-.85zm0 46.222a.855.855 0 00-.85.85c0 .466.384.85.85.85.467 0 .85-.384.85-.85a.854.854 0 00-.85-.85zm0 11.555a.855.855 0 00-.85.85c0 .466.384.85.85.85.467 0 .85-.384.85-.85a.854.854 0 00-.85-.85zm10 63.556a.848.848 0 00-.785.524.852.852 0 00.785 1.176c.466 0 .85-.384.85-.85a.854.854 0 00-.85-.85zm0-161.778a.857.857 0 00-.834 1.016.856.856 0 00.832.684c.466 0 .85-.384.85-.85a.853.853 0 00-.848-.85zm-10 52a.855.855 0 00-.85.85c0 .466.384.85.85.85.467 0 .85-.384.85-.85a.854.854 0 00-.85-.85zm0 11.556a.855.855 0 00-.85.85c0 .466.384.85.85.85.467 0 .85-.384.85-.85a.854.854 0 00-.85-.85zm10 52h-.006a.848.848 0 00-.828 1.016c.079.396.43.684.834.684.466 0 .85-.384.85-.85a.854.854 0 00-.85-.85zm0-80.889a.848.848 0 00-.785.524.852.852 0 00.785 1.176c.466 0 .85-.384.85-.85a.854.854 0 00-.85-.85zm0 11.555a.855.855 0 00-.851.853.85.85 0 10.851-.853zm0 11.556a.857.857 0 00-.834 1.016c.079.396.43.684.834.684.466 0 .85-.384.85-.85a.854.854 0 00-.85-.85zm0-34.667a.857.857 0 00-.834 1.016.857.857 0 00.831.685.857.857 0 00.853-.851.857.857 0 00-.85-.85zm0-11.555a.848.848 0 00-.785.524.852.852 0 00.785 1.176c.466 0 .85-.384.85-.85a.854.854 0 00-.85-.85zm0 57.777a.847.847 0 00-.785.525.848.848 0 101.634.325.854.854 0 00-.849-.85zm0 69.334a.848.848 0 00-.785.524.852.852 0 00.785 1.176c.466 0 .85-.384.85-.85a.854.854 0 00-.85-.85zm-10-28.889a.855.855 0 00-.85.85c0 .466.384.85.85.85.467 0 .85-.384.85-.85a.854.854 0 00-.85-.85zm10-28.889a.857.857 0 00-.834 1.016c.079.396.43.684.834.684.466 0 .85-.384.85-.85a.854.854 0 00-.85-.85zm0 69.333a.855.855 0 00-.785.525.856.856 0 00.793 1.177.855.855 0 00.851-.851.855.855 0 00-.851-.851h-.008zm0-23.111a.857.857 0 00-.834 1.016.857.857 0 00.827.684c.466 0 .85-.384.85-.85a.854.854 0 00-.843-.85zm0-34.667a.847.847 0 00-.785.525.848.848 0 101.634.325.854.854 0 00-.849-.85zm0 11.556a.857.857 0 00-.834 1.016.848.848 0 001.682-.166.853.853 0 00-.848-.85zm-10-28.889a.847.847 0 00-.785.525.856.856 0 00.185.927.847.847 0 001.307-.129.856.856 0 00-.106-1.074.842.842 0 00-.601-.249zm-10 40.445a.854.854 0 00-.85.851c0 .466.383.85.85.85a.855.855 0 00.851-.85.855.855 0 00-.851-.851zm0 23.111a.854.854 0 00-.85.851c0 .466.383.85.85.85a.855.855 0 00.851-.85.855.855 0 00-.851-.851zm0-34.667a.854.854 0 00-.85.851c0 .466.383.85.85.85a.855.855 0 00.851-.85.855.855 0 00-.851-.851zm0 23.111a.844.844 0 00-.472.144.846.846 0 00-.361.873.85.85 0 10.833-1.017zm0-46.222a.854.854 0 00-.85.851c0 .466.383.85.85.85a.855.855 0 00.851-.85.855.855 0 00-.851-.851zm0-11.556a.852.852 0 00-.849.85c0 .466.384.85.85.85.467 0 .85-.384.85-.85a.854.854 0 00-.85-.85h-.001zm0 23.111a.856.856 0 00-.84.852.856.856 0 00.845.85.85.85 0 00-.005-1.702zm-10-98.222a.855.855 0 00-.785.525.856.856 0 00.619 1.159.845.845 0 00.872-.361.848.848 0 00-.706-1.323zm0 11.556a.855.855 0 00-.85.85c0 .466.384.85.85.85.467 0 .85-.384.85-.85a.854.854 0 00-.85-.85zm10 179.111a.854.854 0 00-.85.851c0 .466.383.85.85.85a.855.855 0 00.851-.85.855.855 0 00-.851-.851zm0-23.111a.854.854 0 00-.85.851c0 .466.383.85.85.85a.855.855 0 00.851-.85.855.855 0 00-.851-.851zm0-11.556a.854.854 0 00-.85.851c0 .466.383.85.85.85.467 0 .85-.384.85-.85a.854.854 0 00-.85-.851zm10-28.889a.847.847 0 00-.849.85c0 .466.384.85.85.85.466 0 .85-.384.85-.85a.854.854 0 00-.85-.85h-.001zm-10 52a.852.852 0 00-.849.85c0 .466.384.85.85.85.467 0 .85-.384.85-.85a.854.854 0 00-.85-.85h-.001zm10-5.777a.855.855 0 00-.85.85c0 .466.384.85.85.85.467 0 .85-.384.85-.85a.854.854 0 00-.85-.85zm-10-109.778a.854.854 0 00-.85.851c0 .466.383.85.85.85a.855.855 0 00.851-.85.855.855 0 00-.851-.851zm10 121.333a.847.847 0 00-.785.525.856.856 0 00.185.927.847.847 0 001.307-.129.856.856 0 00-.106-1.074.842.842 0 00-.601-.249zm0-46.222a.855.855 0 00-.85.85c0 .466.384.85.85.85.467 0 .85-.384.85-.85a.854.854 0 00-.85-.85zm-10-144.445a.856.856 0 00-.84.852.856.856 0 00.845.85.85.85 0 00-.005-1.702zm-10 28.889a.847.847 0 00-.85.85c0 .466.384.85.85.85.467 0 .85-.384.85-.85a.854.854 0 00-.85-.85zm20 138.667a.855.855 0 00-.85.85c0 .466.384.85.85.85.467 0 .85-.384.85-.85a.854.854 0 00-.85-.85zm-10-121.333a.854.854 0 00-.85.851c0 .466.383.85.85.85a.855.855 0 00.851-.85.855.855 0 00-.851-.851zm0 11.555a.854.854 0 00-.85.851c0 .466.383.85.85.85a.855.855 0 00.851-.85.855.855 0 00-.851-.851zm0-34.666a.854.854 0 00-.85.851c0 .466.383.85.85.85a.855.855 0 00.851-.85.855.855 0 00-.851-.851zm0 11.555a.844.844 0 00-.472.144.846.846 0 00-.361.873.843.843 0 00.838.685.85.85 0 00-.005-1.702zm0-23.111a.854.854 0 00-.85.851c0 .466.383.85.85.85a.855.855 0 00.851-.85.855.855 0 00-.851-.851zm10 144.444a.855.855 0 00-.849.85c0 .466.384.85.85.85.466 0 .85-.384.85-.85a.854.854 0 00-.85-.85h-.001zm40 34.667a.857.857 0 00-.834 1.016.857.857 0 00.827.684c.466 0 .85-.384.85-.85a.854.854 0 00-.843-.85zm0-11.555h-.006a.848.848 0 00-.828 1.016c.079.396.43.684.834.684.466 0 .85-.384.85-.85a.854.854 0 00-.85-.85zm-10-179.112a.855.855 0 00-.849.85c0 .466.384.85.85.85.466 0 .85-.384.85-.85a.854.854 0 00-.85-.85h-.001zm10 144.445a.857.857 0 00-.834 1.016c.079.396.43.684.834.684.466 0 .85-.384.85-.85a.854.854 0 00-.85-.85zm0 11.555a.847.847 0 00-.785.525.848.848 0 101.634.325.854.854 0 00-.849-.85zm-10-144.444a.855.855 0 00-.85.85c0 .466.384.85.85.85.467 0 .85-.384.85-.85a.854.854 0 00-.85-.85zm10 156a.857.857 0 00-.834 1.016.848.848 0 001.682-.166.853.853 0 00-.848-.85zm-10-98.222a.855.855 0 00-.85.85c0 .466.384.85.85.85.467 0 .85-.384.85-.85a.854.854 0 00-.85-.85zm0-46.222a.855.855 0 00-.85.85c0 .466.384.85.85.85.467 0 .85-.384.85-.85a.854.854 0 00-.85-.85zm0 57.777a.847.847 0 00-.849.85c0 .466.384.85.85.85.466 0 .85-.384.85-.85a.854.854 0 00-.85-.85h-.001zm0-23.111a.855.855 0 00-.85.85c0 .466.384.85.85.85.467 0 .85-.384.85-.85a.854.854 0 00-.85-.85zm0-11.555a.855.855 0 00-.85.85c0 .466.384.85.85.85.467 0 .85-.384.85-.85a.854.854 0 00-.85-.85zm0-11.556a.847.847 0 00-.785.525.856.856 0 00.185.927.847.847 0 001.307-.129.859.859 0 00-.106-1.074.842.842 0 00-.601-.249zm10-17.333a.857.857 0 00-.834 1.016c.079.396.43.684.834.684.466 0 .85-.384.85-.85a.854.854 0 00-.85-.85zm0 23.111a.857.857 0 00-.834 1.016c.079.396.43.684.834.684.466 0 .85-.384.85-.85a.854.854 0 00-.85-.85zm0 23.111a.857.857 0 00-.834 1.016.856.856 0 00.832.684c.466 0 .85-.384.85-.85a.853.853 0 00-.848-.85zm0-11.555h-.006a.848.848 0 00-.828 1.016c.079.396.43.684.834.684.466 0 .85-.384.85-.85a.854.854 0 00-.85-.85zm0-23.112a.847.847 0 00-.785.525.848.848 0 101.634.325.854.854 0 00-.849-.85zm-10 63.556a.855.855 0 00-.85.85c0 .466.384.85.85.85.467 0 .85-.384.85-.85a.854.854 0 00-.85-.85zm10 40.444a.847.847 0 00-.849.85c0 .404.287.755.683.835a.846.846 0 00.872-.362.848.848 0 00-.706-1.323zm0-127.111a.855.855 0 00-.785.525.856.856 0 00.619 1.159.845.845 0 00.872-.361.848.848 0 00-.706-1.323zm0 104a.855.855 0 00-.785.525.856.856 0 00.793 1.177.855.855 0 00.851-.851.855.855 0 00-.851-.851h-.008zm0-34.666a.848.848 0 00-.785.524.852.852 0 00.785 1.176c.466 0 .85-.384.85-.85a.854.854 0 00-.85-.85zm0 46.222a.848.848 0 00-.785.524.852.852 0 00.785 1.176c.466 0 .85-.384.85-.85a.854.854 0 00-.85-.85zm0-23.111a.848.848 0 00-.785.524.852.852 0 00.785 1.176c.466 0 .85-.384.85-.85a.854.854 0 00-.85-.85zm0-11.556a.857.857 0 00-.834 1.016.857.857 0 00.831.685.857.857 0 00.853-.851.857.857 0 00-.85-.85zm-20-80.889a.854.854 0 00-.85.851c0 .466.383.85.85.85a.855.855 0 00.851-.85.855.855 0 00-.851-.851zm0 80.889a.844.844 0 00-.472.144.846.846 0 00-.361.873.843.843 0 00.838.685.85.85 0 00-.005-1.702zm0 11.556a.854.854 0 00-.85.851c0 .466.383.85.85.85a.855.855 0 00.851-.85.855.855 0 00-.851-.851zm0 11.555a.854.854 0 00-.85.851c0 .466.383.85.85.85a.855.855 0 00.851-.85.855.855 0 00-.851-.851zm0-34.666a.854.854 0 00-.85.851c0 .466.383.85.85.85a.855.855 0 00.851-.85.855.855 0 00-.851-.851zm0-11.556a.854.854 0 00-.85.851c0 .466.383.85.85.85a.855.855 0 00.851-.85.855.855 0 00-.851-.851zm0 57.778a.854.854 0 00-.85.851c0 .466.383.85.85.85a.855.855 0 00.851-.85.855.855 0 00-.851-.851zm0 23.111a.854.854 0 00-.85.851c0 .466.383.85.85.85a.855.855 0 00.851-.85.855.855 0 00-.851-.851zm0 34.667a.854.854 0 00-.85.851c0 .466.383.85.85.85.467 0 .85-.384.85-.85a.854.854 0 00-.85-.851zm10-75.112a.855.855 0 00-.849.85c0 .466.384.85.85.85.466 0 .85-.384.85-.85a.854.854 0 00-.85-.85h-.001zm-10 63.556a.854.854 0 00-.85.851c0 .466.383.85.85.85.467 0 .85-.384.85-.85a.854.854 0 00-.85-.851zm0-11.556a.856.856 0 00-.84.852.856.856 0 00.845.85.85.85 0 00-.005-1.702zm0-103.999a.844.844 0 00-.85.85c0 .466.384.85.85.85.467 0 .85-.384.85-.85a.854.854 0 00-.85-.85zm0 80.888a.852.852 0 00-.849.85c0 .466.384.85.85.85.467 0 .85-.384.85-.85a.854.854 0 00-.85-.85h-.001zm0 57.778a.844.844 0 00-.472.144.846.846 0 00-.361.873.85.85 0 101.434-.768.842.842 0 00-.601-.249zm10-17.333a.855.855 0 00-.85.85c0 .466.384.85.85.85.467 0 .85-.384.85-.85a.854.854 0 00-.85-.85zm0-23.111a.855.855 0 00-.85.85c0 .466.384.85.85.85.467 0 .85-.384.85-.85a.854.854 0 00-.85-.85zm0 11.555a.855.855 0 00-.85.85c0 .466.384.85.85.85.467 0 .85-.384.85-.85a.854.854 0 00-.85-.85zm0-23.111a.847.847 0 00-.785.525.856.856 0 00.185.927.847.847 0 001.307-.129.859.859 0 00-.106-1.074.842.842 0 00-.601-.249zm0-11.555a.855.855 0 00-.85.85c0 .466.384.85.85.85.467 0 .85-.384.85-.85a.854.854 0 00-.85-.85zm0-11.556a.855.855 0 00-.85.85c0 .466.384.85.85.85.467 0 .85-.384.85-.85a.854.854 0 00-.85-.85zm-10-86.667a.852.852 0 00-.849.85c0 .466.384.85.85.85.467 0 .85-.384.85-.85a.854.854 0 00-.85-.85h-.001zm10 156a.847.847 0 00-.849.85c0 .466.384.85.85.85.466 0 .85-.384.85-.85a.854.854 0 00-.85-.85h-.001zm-10-144.444a.854.854 0 00-.85.851c0 .466.383.85.85.85a.855.855 0 00.851-.85.855.855 0 00-.851-.851zm0-23.111a.854.854 0 00-.85.851c0 .466.383.85.85.85a.855.855 0 00.851-.85.855.855 0 00-.851-.851zm10 179.111a.855.855 0 00-.85.85c0 .466.384.85.85.85.467 0 .85-.384.85-.85a.854.854 0 00-.85-.85zm-20-196.445a.847.847 0 00-.785.525.848.848 0 101.634.325.854.854 0 00-.849-.85zm-60 138.667a.857.857 0 00-.834 1.016.857.857 0 00.827.684c.466 0 .85-.384.85-.85a.854.854 0 00-.843-.85zm0 57.778a.857.857 0 00-.834 1.016c.079.396.43.684.834.684.466 0 .85-.384.85-.85a.854.854 0 00-.85-.85zm0-11.556a.847.847 0 00-.785.525.848.848 0 101.634.325.854.854 0 00-.849-.85zm-10-179.111a.847.847 0 00-.847.843.851.851 0 001.554.48.851.851 0 00-.707-1.323zm0 11.556a.855.855 0 00-.85.85c0 .466.384.85.85.85.467 0 .85-.384.85-.85a.854.854 0 00-.85-.85zm10 156a.848.848 0 00-.785.524.852.852 0 00.785 1.176c.466 0 .85-.384.85-.85a.854.854 0 00-.85-.85zm0-11.556a.855.855 0 00-.785.525.856.856 0 00.793 1.177.855.855 0 00.851-.851.855.855 0 00-.851-.851h-.008zm-10-98.222a.855.855 0 00-.85.85c0 .466.384.85.85.85.467 0 .85-.384.85-.85a.854.854 0 00-.85-.85zm0-34.667a.847.847 0 00-.849.85c0 .466.384.85.85.85.466 0 .85-.384.85-.85a.854.854 0 00-.85-.85h-.001zm0 46.223a.855.855 0 00-.85.85c0 .466.384.85.85.85.467 0 .85-.384.85-.85a.854.854 0 00-.85-.85zm0 11.555a.847.847 0 00-.785.525.856.856 0 00.185.927.847.847 0 001.307-.129.856.856 0 00-.106-1.074.842.842 0 00-.601-.249zm10 63.556a.848.848 0 00-.785.524.852.852 0 00.785 1.176c.466 0 .85-.384.85-.85a.854.854 0 00-.85-.85zm-10-52a.855.855 0 00-.85.85c0 .466.384.85.85.85.467 0 .85-.384.85-.85a.854.854 0 00-.85-.85zm0-57.778a.855.855 0 00-.85.85c0 .466.384.85.85.85.467 0 .85-.384.85-.85a.854.854 0 00-.85-.85zm0 11.556a.847.847 0 00-.85.85c0 .466.384.85.85.85.467 0 .85-.384.85-.85a.854.854 0 00-.85-.85zm10-5.778a.848.848 0 00-.785.524.852.852 0 00.785 1.176c.466 0 .85-.384.85-.85a.854.854 0 00-.85-.85zm0-11.556a.857.857 0 00-.834 1.016.857.857 0 00.831.685.857.857 0 00.853-.851.857.857 0 00-.85-.85zm0 34.667a.857.857 0 00-.834 1.016c.079.396.43.684.834.684.466 0 .85-.384.85-.85a.854.854 0 00-.85-.85zm0-11.556a.855.855 0 00-.851.853.85.85 0 10.851-.853zm0-46.222a.857.857 0 00-.834 1.016.856.856 0 00.832.684c.466 0 .85-.384.85-.85a.853.853 0 00-.848-.85zm0 11.556a.848.848 0 00-.785.524.852.852 0 00.785 1.176c.466 0 .85-.384.85-.85a.854.854 0 00-.85-.85zm-20 173.333a.854.854 0 00-.85.851c0 .466.383.85.85.85a.855.855 0 00.851-.85.855.855 0 00-.851-.851zm20-80.889a.857.857 0 00-.834 1.016.848.848 0 001.682-.166.853.853 0 00-.848-.85zm0-34.667a.847.847 0 00-.785.525.848.848 0 101.634.325.854.854 0 00-.849-.85zm0 46.223h-.006a.848.848 0 00-.828 1.016c.079.396.43.684.834.684.466 0 .85-.384.85-.85a.854.854 0 00-.85-.85zm0-23.112a.847.847 0 00-.785.525.848.848 0 101.634.325.854.854 0 00-.849-.85zm0-11.555a.857.857 0 00-.834 1.016c.079.396.43.684.834.684.466 0 .85-.384.85-.85a.854.854 0 00-.85-.85zm-10 63.555a.855.855 0 00-.849.85c0 .466.384.85.85.85.466 0 .85-.384.85-.85a.854.854 0 00-.85-.85h-.001zm-10-63.555a.854.854 0 00-.85.851c0 .466.383.85.85.85a.855.855 0 00.851-.85.855.855 0 00-.851-.851zm0 11.555a.856.856 0 00-.84.852.856.856 0 00.845.85.85.85 0 00-.005-1.702zm0 11.556a.854.854 0 00-.85.851c0 .466.383.85.85.85a.855.855 0 00.851-.85.855.855 0 00-.851-.851zm0 11.556a.854.854 0 00-.85.851c0 .466.383.85.85.85.467 0 .85-.384.85-.85a.854.854 0 00-.85-.851zm0-46.223a.852.852 0 00-.849.85c0 .466.384.85.85.85.467 0 .85-.384.85-.85a.854.854 0 00-.85-.85h-.001zm0-11.555a.854.854 0 00-.85.851c0 .466.383.85.85.85a.855.855 0 00.851-.85.855.855 0 00-.851-.851zm0 92.444a.854.854 0 00-.85.851c0 .466.383.85.85.85.467 0 .85-.384.85-.85a.854.854 0 00-.85-.851zm0-23.111a.844.844 0 00-.472.144.846.846 0 00-.361.873.85.85 0 10.833-1.017zm0 34.667a.854.854 0 00-.85.851c0 .466.383.85.85.85a.855.855 0 00.851-.85.855.855 0 00-.851-.851zm0 11.555a.852.852 0 00-.849.85c0 .466.384.85.85.85.467 0 .85-.384.85-.85a.854.854 0 00-.85-.85h-.001zm0-34.666a.854.854 0 00-.85.851c0 .466.383.85.85.85a.855.855 0 00.851-.85.855.855 0 00-.851-.851zm0-92.445a.854.854 0 00-.85.851c0 .466.383.85.85.85a.855.855 0 00.851-.85.855.855 0 00-.851-.851zm0-11.555a.854.854 0 00-.85.851c0 .466.383.85.85.85a.855.855 0 00.851-.85.855.855 0 00-.851-.851zm10 132.889a.855.855 0 00-.85.85c0 .466.384.85.85.85.467 0 .85-.384.85-.85a.854.854 0 00-.85-.85zm0-34.667a.855.855 0 00-.85.85c0 .466.384.85.85.85.467 0 .85-.384.85-.85a.854.854 0 00-.85-.85zm0-34.667a.855.855 0 00-.85.85c0 .466.384.85.85.85.467 0 .85-.384.85-.85a.854.854 0 00-.85-.85zm10-109.778a.847.847 0 00-.785.525.848.848 0 101.634.325.854.854 0 00-.849-.85zm-10 132.889a.847.847 0 00-.849.85c0 .466.384.85.85.85.466 0 .85-.384.85-.85a.854.854 0 00-.85-.85h-.001zm0-11.555a.855.855 0 00-.85.85c0 .466.384.85.85.85.467 0 .85-.384.85-.85a.854.854 0 00-.85-.85zm0 46.222a.855.855 0 00-.85.85c0 .466.384.85.85.85.467 0 .85-.384.85-.85a.854.854 0 00-.85-.85zm-10-132.889a.844.844 0 00-.472.144.846.846 0 00-.361.873.843.843 0 00.838.685.85.85 0 00-.005-1.702zm0-11.555a.854.854 0 00-.85.851c0 .466.383.85.85.85a.855.855 0 00.851-.85.855.855 0 00-.851-.851zm0-11.556a.854.854 0 00-.85.851c0 .466.383.85.85.85a.855.855 0 00.851-.85.855.855 0 00-.851-.851zm0-11.556a.856.856 0 00-.84.852.856.856 0 00.845.85.85.85 0 00-.005-1.702zm10 190.667a.847.847 0 00-.785.525.856.856 0 00.185.927.847.847 0 001.307-.129.856.856 0 00-.106-1.074.842.842 0 00-.601-.249zm20-34.667a.856.856 0 00-.84.852.856.856 0 00.845.85.85.85 0 00-.005-1.702zm10-121.333a.847.847 0 00-.785.525.856.856 0 00.185.927.847.847 0 001.307-.129.859.859 0 00-.106-1.074.842.842 0 00-.601-.249zm0-11.555a.855.855 0 00-.85.85c0 .466.384.85.85.85.467 0 .85-.384.85-.85a.854.854 0 00-.85-.85zm0 34.666a.847.847 0 00-.85.85c0 .466.384.85.85.85.467 0 .85-.384.85-.85a.854.854 0 00-.85-.85zm0-11.555a.855.855 0 00-.85.85c0 .466.384.85.85.85.467 0 .85-.384.85-.85a.854.854 0 00-.85-.85zm0-46.223a.855.855 0 00-.849.85c0 .466.384.85.85.85.466 0 .85-.384.85-.85a.854.854 0 00-.85-.85h-.001zm0 11.556a.855.855 0 00-.85.85c0 .466.384.85.85.85.467 0 .85-.384.85-.85a.854.854 0 00-.85-.85zm0 115.556a.855.855 0 00-.85.85c0 .466.384.85.85.85.467 0 .85-.384.85-.85a.854.854 0 00-.85-.85zm0-11.556a.855.855 0 00-.85.85c0 .466.384.85.85.85.467 0 .85-.384.85-.85a.854.854 0 00-.85-.85zm10 75.111a.857.857 0 00-.834 1.016.857.857 0 00.827.684c.466 0 .85-.384.85-.85a.854.854 0 00-.843-.85zm-10-121.333a.855.855 0 00-.85.85c0 .466.384.85.85.85.467 0 .85-.384.85-.85a.854.854 0 00-.85-.85zm0 34.666a.855.855 0 00-.849.85c0 .466.384.85.85.85.466 0 .85-.384.85-.85a.854.854 0 00-.85-.85h-.001zm0-23.111a.847.847 0 00-.849.85c0 .466.384.85.85.85.466 0 .85-.384.85-.85a.854.854 0 00-.85-.85h-.001zm10 17.334a.848.848 0 00-.785.524.852.852 0 00.785 1.176c.466 0 .85-.384.85-.85a.854.854 0 00-.85-.85zm0-11.556a.857.857 0 00-.834 1.016.857.857 0 00.831.685.857.857 0 00.853-.851.857.857 0 00-.85-.85zm-10 52a.847.847 0 00-.785.525.856.856 0 00.185.927.847.847 0 001.307-.129.856.856 0 00-.106-1.074.842.842 0 00-.601-.249zm10-63.555a.848.848 0 00-.785.524.852.852 0 00.785 1.176c.466 0 .85-.384.85-.85a.854.854 0 00-.85-.85zm0 104h-.006a.848.848 0 00-.828 1.016c.079.396.43.684.834.684.466 0 .85-.384.85-.85a.854.854 0 00-.85-.85zm0-69.334a.855.855 0 00-.785.525.856.856 0 00.793 1.177.855.855 0 00.851-.851.855.855 0 00-.851-.851h-.008zm0-57.777h-.006a.848.848 0 00-.828 1.016c.079.396.43.684.834.684.466 0 .85-.384.85-.85a.854.854 0 00-.85-.85zm0 11.555a.857.857 0 00-.834 1.016.856.856 0 00.832.684c.466 0 .85-.384.85-.85a.853.853 0 00-.848-.85zm0 92.444a.847.847 0 00-.785.525.848.848 0 101.634.325.854.854 0 00-.849-.85zm0 11.556a.857.857 0 00-.834 1.016.848.848 0 001.682-.166.853.853 0 00-.848-.85zm0-34.667a.847.847 0 00-.785.525.848.848 0 101.634.325.854.854 0 00-.849-.85zm0 11.556a.857.857 0 00-.834 1.016c.079.396.43.684.834.684.466 0 .85-.384.85-.85a.854.854 0 00-.85-.85zm0-23.111a.848.848 0 00-.785.524.852.852 0 00.785 1.176c.466 0 .85-.384.85-.85a.854.854 0 00-.85-.85zm-10-28.889a.855.855 0 00-.85.85c0 .466.384.85.85.85.467 0 .85-.384.85-.85a.854.854 0 00-.85-.85zm-10-17.333a.854.854 0 00-.85.851c0 .466.383.85.85.85a.855.855 0 00.851-.85.855.855 0 00-.851-.851zm0 69.333a.854.854 0 00-.85.851c0 .466.383.85.85.85a.855.855 0 00.851-.85.855.855 0 00-.851-.851zm0 23.111a.854.854 0 00-.85.851c0 .466.383.85.85.85a.855.855 0 00.851-.85.855.855 0 00-.851-.851zm20-127.111a.855.855 0 00-.85.85c0 .466.384.85.85.85.467 0 .85-.384.85-.85a.854.854 0 00-.85-.85zm-20 138.667a.854.854 0 00-.85.851c0 .466.383.85.85.85.467 0 .85-.384.85-.85a.854.854 0 00-.85-.851zm0-115.556a.854.854 0 00-.85.851c0 .466.383.85.85.85a.855.855 0 00.851-.85.855.855 0 00-.851-.851zm0-11.555a.844.844 0 00-.85.85c0 .466.384.85.85.85.467 0 .85-.384.85-.85a.854.854 0 00-.85-.85zm0 69.333a.854.854 0 00-.85.851c0 .466.383.85.85.85a.855.855 0 00.851-.85.855.855 0 00-.851-.851zm0-11.556a.854.854 0 00-.85.851c0 .466.383.85.85.85a.855.855 0 00.851-.85.855.855 0 00-.851-.851zm0-23.111a.844.844 0 00-.472.144.846.846 0 00-.361.873.843.843 0 00.838.685.85.85 0 00-.005-1.702zm0 11.556a.854.854 0 00-.85.851c0 .466.383.85.85.85a.855.855 0 00.851-.85.855.855 0 00-.851-.851zm10 52a.855.855 0 00-.85.85c0 .466.384.85.85.85.467 0 .85-.384.85-.85a.854.854 0 00-.85-.85zm-10-121.334a.852.852 0 00-.849.85c0 .466.384.85.85.85.467 0 .85-.384.85-.85a.854.854 0 00-.85-.85h-.001zm10 156a.847.847 0 00-.849.85c0 .466.384.85.85.85.466 0 .85-.384.85-.85a.854.854 0 00-.85-.85h-.001zm-10 5.778a.844.844 0 00-.472.144.846.846 0 00-.361.873.85.85 0 10.833-1.017zm10 5.778a.855.855 0 00-.85.85c0 .466.384.85.85.85.467 0 .85-.384.85-.85a.854.854 0 00-.85-.85zm0-34.667a.855.855 0 00-.85.85c0 .466.384.85.85.85.467 0 .85-.384.85-.85a.854.854 0 00-.85-.85zm0 11.556a.855.855 0 00-.85.85c0 .466.384.85.85.85.467 0 .85-.384.85-.85a.854.854 0 00-.85-.85zm-10-167.556a.854.854 0 00-.85.851c0 .466.383.85.85.85a.855.855 0 00.851-.85.855.855 0 00-.851-.851zm0 34.667a.854.854 0 00-.85.851c0 .466.383.85.85.85a.855.855 0 00.851-.85.855.855 0 00-.851-.851zm0 92.444a.852.852 0 00-.849.85c0 .466.384.85.85.85.467 0 .85-.384.85-.85a.854.854 0 00-.85-.85h-.001zm0-115.555a.854.854 0 00-.85.851c0 .466.383.85.85.85a.855.855 0 00.851-.85.855.855 0 00-.851-.851zm-60 184.889a.854.854 0 00-.85.851c0 .466.383.85.85.85.467 0 .85-.384.85-.85a.854.854 0 00-.85-.851zm120 0a.854.854 0 00-.85.851c0 .466.383.85.85.85.467 0 .85-.384.85-.85a.854.854 0 00-.85-.851zm-180 0a.848.848 0 00-.785.524.852.852 0 00.785 1.176c.466 0 .85-.384.85-.85a.854.854 0 00-.85-.85zm140 0a.848.848 0 00-.785.524.852.852 0 00.785 1.176c.466 0 .85-.384.85-.85a.854.854 0 00-.85-.85zm20 0a.855.855 0 00-.85.85c0 .466.384.85.85.85.467 0 .85-.384.85-.85a.854.854 0 00-.85-.85zm-120 0a.855.855 0 00-.85.85c0 .466.384.85.85.85.467 0 .85-.384.85-.85a.854.854 0 00-.85-.85zm80 0a.854.854 0 00-.85.851c0 .466.383.85.85.85.467 0 .85-.384.85-.85a.854.854 0 00-.85-.851zm-20 0a.855.855 0 00-.85.85c0 .466.384.85.85.85.467 0 .85-.384.85-.85a.854.854 0 00-.85-.85zm-80 0a.848.848 0 00-.85.85c0 .466.384.85.85.85.466 0 .85-.384.85-.85a.854.854 0 00-.85-.85zm60 0a.848.848 0 00-.785.524.852.852 0 00.785 1.176c.466 0 .85-.384.85-.85a.854.854 0 00-.85-.85zm-100 0a.855.855 0 00-.85.85c0 .466.384.85.85.85.467 0 .85-.384.85-.85a.854.854 0 00-.85-.85zm220 0a.848.848 0 00-.785.524.852.852 0 00.785 1.176c.466 0 .85-.384.85-.85a.854.854 0 00-.85-.85z"
          fill="#727274" fill-opacity=".5" fill-rule="nonzero"/>
    <path d="M59.914 52.929L0 18.313v-1.959l60 34.668L148.306 0h3.389l-.259.15L60 52.979l-.086-.05zM60 41.423L131.436.15l.258-.15h-3.389L60 39.466 0 4.799v1.958l59.914 34.617.086.049zm0 57.778L231.437.15l.258-.15h-3.389L60 97.243 0 62.577v1.958l59.914 34.616.086.05zm0-23.111L191.437.15l.258-.15h-3.389L60 74.132 0 39.466v1.958l59.914 34.617.086.049zm0 11.556L211.436.15l.259-.15h-3.389L60 85.688 0 51.022v1.958l59.914 34.617.086.049zm0-23.111L171.436.15l.259-.15h-3.389L60 62.577 0 27.91v1.958l59.914 34.617.086.05zM48.564 207.851L240 97.243v1.959L51.696 208h-3.389l.257-.149zM8.306 208h3.39L240 76.091v-1.96L8.564 207.851l-.258.149zm80.001 0h3.389L240 122.312v-1.958L88.564 207.851l-.257.149zm20 0h3.389L240 133.868v-1.958l-131.436 75.941-.257.149zm-40.001 0h3.39L240 110.757v-1.959L68.564 207.851l-.258.149zm-39.999 0h3.389L240 87.647v-1.959L28.564 207.851l-.257.149zM360 29.867L240 99.201v-1.959L360 27.91l.086.049L480 97.243v1.959l-.086-.05L360 29.867zm119.914 80.84l.086.05v-1.958L360.086 39.515l-.086-.05-120 69.333v1.958l120-69.333 119.914 69.284zm0 11.556l.086.05v-1.958L360.086 51.071l-.086-.05-120 69.332v1.959l120-69.334 119.914 69.285zm0-46.223l.086.05v-1.958L360.086 4.848l-.086-.05-120 69.334v1.958L360 6.757 479.914 76.04zm0 57.779l.086.05v-1.959L360.086 62.626l-.086-.049-120 69.332v1.958l120-69.333 119.914 69.285zm0-46.223l.086.05v-1.958L360.086 16.403l-.086-.049-120 69.334v1.958l120-69.334 119.914 69.284zm-71.35 120.254L480 166.576v1.958L411.695 208h-3.39l.259-.15zm19.741.15h3.39L480 180.09v-1.958l-51.436 29.718-.259.15zm43.39 0l8.305-4.799v-1.959L468.305 208h3.39zm-20 0L480 191.646v-1.96L448.305 208h3.39zm-63.39 0h3.39L480 156.979v-1.958l-91.436 52.829-.259.15zm-20 0h3.39L480 145.423v-1.958L368.564 207.85l-.259.15zM420 260.978L240 364.979v-1.958l180-104 .086.05L480 293.687v1.959l-60-34.668zm60 23.112v-1.959l-59.914-34.616-.086-.05-180 104v1.958l180-104 60 34.667zm0 23.112v-1.96l-59.914-34.616-.086-.049-180 103.999v1.959l180-104.001 60 34.668zm0 34.665v-1.958l-59.914-34.617-.086-.049-180 103.999v1.96l180-104.001 60 34.666zm0-23.111v-1.958l-59.914-34.617-.086-.05-180 104.001v1.958l180-104 60 34.666zm0 11.556v-1.959l-59.914-34.617-.086-.049-180 103.999v1.96l180-104.001 60 34.667zM351.436 208.149L240 272.534v-1.958L348.304 208h3.39l-.258.149zM331.694 208h-3.39L240 259.021v1.958l91.437-52.83.257-.149zm-60 0h-3.39L240 224.355v1.958l31.437-18.164.257-.149zm20 0h-3.39L240 235.909v1.96l51.437-29.72.257-.149zm20 0h-3.389L240 247.465v1.958l71.436-41.274.258-.149zm-63.39 0L240 212.799v1.958L251.693 208h-3.389z"
          fill="#bfbfc0" fill-opacity=".9" fill-rule="nonzero"/>
</svg>
