<?xml version="1.0" encoding="UTF-8"?>
<svg width="158px" height="167px" viewBox="0 0 158 167" version="1.1" xmlns="http://www.w3.org/2000/svg" xmlns:xlink="http://www.w3.org/1999/xlink">
    <title>hurricanedb</title>
    <g id="Page-1" stroke="none" stroke-width="1" fill="none" fill-rule="evenodd">
        <g id="hurricanedb" transform="translate(0.000000, 0.000000)" fill="#E03875" fill-rule="nonzero">
            <polygon id="Path" points="78.7708332 0 0 45.1916668 0 135.983333 53.4833332 166.666667 69.65 157.129167 16.5833332 126.45 16.5833332 54.725 78.7708332 19.0708334 140.9625 54.725 140.9625 126.45 87.4791666 157.129167 104.0625 166.666667 157.545833 135.9875 157.545833 45.1916668"></polygon>
            <polygon id="Path" points="26.1208332 121.475 78.7708332 151.741667 131.425 121.475 131.425 102.404167 78.7708332 132.670833 26.1208332 102.404167"></polygon>
            <polygon id="Path" points="26.1208332 90.7958334 78.7708332 121.475 131.425 90.7958334 131.425 71.725 78.7708332 102.404167 26.1208332 71.725"></polygon>
            <polygon id="Path" points="131.425 60.5291668 78.7708332 29.85 26.1208332 60.5291668 78.7708332 90.7958334"></polygon>
        </g>
    </g>
</svg>