<?xml version="1.0" encoding="UTF-8"?>
<svg width="2299px" height="432px" viewBox="0 0 2299 432" version="1.1" xmlns="http://www.w3.org/2000/svg" xmlns:xlink="http://www.w3.org/1999/xlink">
    <title>jhin-black</title>
    <g id="guinsoolab-logos" stroke="none" stroke-width="1" fill="none" fill-rule="evenodd">
        <g id="jhin-black" transform="translate(0.244083, 0.000000)" fill="#000000">
            <text id="JhinBoard" font-family="Helvetica-Bold, Helvetica" font-size="360" font-weight="bold">
                <tspan x="517.687558" y="349">JhinBoard</tspan>
            </text>
            <g id="Group" transform="translate(0.000000, 30.000000)">
                <path d="M6.19737641,126.647863 L97.1751133,15.804088 C101.379795,10.6812657 108.941231,9.9369656 114.064053,14.1416472 C114.714156,14.6752351 115.306362,15.2756895 115.830907,15.9331105 L310.541094,259.966559 C313.981183,264.278079 314.039132,270.379419 310.681555,274.755501 L223.867515,387.904148 C219.833233,393.162211 212.300299,394.15428 207.042237,390.119998 C206.288741,389.541873 205.606542,388.876342 205.009959,388.137376 L6.1360742,141.799054 C2.56251121,137.372603 2.58811188,131.045252 6.19737641,126.647863 Z" id="Rectangle"></path>
                <path d="M328.058571,12.1143326 L408.919482,115.680031 C412.998052,120.903815 412.069672,128.444863 406.845888,132.523433 C404.736515,134.170367 402.137147,135.064935 399.460984,135.064935 L237.739163,135.064935 C231.111746,135.064935 225.739163,129.692352 225.739163,123.064935 C225.739163,120.388772 226.633731,117.789404 228.280665,115.680031 L309.141575,12.1143326 C313.220145,6.89054834 320.761193,5.96216876 325.984978,10.0407388 C326.75835,10.644564 327.454746,11.3409605 328.058571,12.1143326 Z" id="Triangle"></path>
            </g>
        </g>
    </g>
</svg>