<?xml version="1.0" encoding="UTF-8"?>
<svg width="1399px" height="1399px" viewBox="0 0 1399 1399" version="1.1" xmlns="http://www.w3.org/2000/svg" xmlns:xlink="http://www.w3.org/1999/xlink">
    <title>Artboard</title>
    <g id="Artboard" stroke="none" stroke-width="1" fill="none" fill-rule="evenodd">
        <rect fill="#000000" x="0" y="0" width="1399" height="1399"></rect>
        <path d="M465.125,1068.34375 C475.28125,1069.125 486.21875,1067.95312 497.9375,1064.82812 C509.65625,1061.70312 520.984375,1060.14062 531.921875,1060.14062 L531.921875,1060.14062 L563.5625,1060.14062 C576.0625,1060.14062 590.125,1058.96875 605.75,1056.625 C608.09375,1055.0625 609.851562,1053.10938 611.023438,1050.76562 C612.195312,1048.42188 614.734375,1047.64062 618.640625,1048.42188 C628.796875,1047.64062 638.171875,1046.46875 646.765625,1044.90625 L646.765625,1044.90625 L672.546875,1040.21875 C681.140625,1038.65625 690.125,1037.48438 699.5,1036.70312 C708.875,1035.92188 720.203125,1035.53125 733.484375,1035.53125 C763.953125,1023.8125 795.007812,1013.46094 826.648438,1004.47656 C858.289062,995.492188 889.734375,986.898438 920.984375,978.695312 C952.234375,970.492188 982.703125,961.898438 1012.39062,952.914062 C1042.07812,943.929688 1070.00781,932.796875 1096.17969,919.515625 C1122.35156,906.234375 1145.98438,890.414062 1167.07812,872.054688 C1188.17188,853.695312 1206.14062,831.234375 1220.98438,804.671875 C1222.54688,793.734375 1221.76562,784.359375 1218.64062,776.546875 C1215.51562,768.734375 1214.73438,758.578125 1216.29688,746.078125 C1203.01562,739.828125 1191.6875,732.015625 1182.3125,722.640625 C1172.9375,713.265625 1163.5625,703.695312 1154.1875,693.929688 C1144.8125,684.164062 1135.04688,674.789062 1124.89062,665.804688 C1114.73438,656.820312 1102.625,649.203125 1088.5625,642.953125 C1073.71875,634.359375 1057.70312,625.570312 1040.51562,616.585938 C1023.32812,607.601562 1006.53125,598.8125 990.125,590.21875 C973.71875,581.625 958.09375,573.03125 943.25,564.4375 C928.40625,555.84375 915.90625,547.640625 905.75,539.828125 L905.75,539.828125 L808.484375,604.28125 C806.921875,612.09375 804.578125,618.734375 801.453125,624.203125 C798.328125,629.671875 796.375,636.703125 795.59375,645.296875 C798.71875,646.859375 800.867188,646.859375 802.039062,645.296875 C803.210938,643.734375 803.992188,642.171875 804.382812,640.609375 C804.773438,639.046875 805.359375,637.484375 806.140625,635.921875 C806.921875,634.359375 809.265625,634.359375 813.171875,635.921875 C818.640625,639.828125 821.375,644.90625 821.375,651.15625 C821.375,657.40625 818.640625,662.875 813.171875,667.5625 C814.734375,686.3125 819.617188,701.546875 827.820312,713.265625 C836.023438,724.984375 846.375,734.359375 858.875,741.390625 C855.75,745.296875 851.648438,749.007812 846.570312,752.523438 C841.492188,756.039062 841.296875,760.140625 845.984375,764.828125 C856.921875,767.953125 869.421875,772.25 883.484375,777.71875 C835.828125,790.21875 788.953125,802.523438 742.859375,814.632812 C696.765625,826.742188 647.15625,835.53125 594.03125,841 C590.125,842.5625 587.78125,845.296875 587,849.203125 C586.21875,853.109375 584.265625,856.234375 581.140625,858.578125 C555.359375,853.109375 529.578125,851.351562 503.796875,853.304688 C478.015625,855.257812 450.28125,855.453125 420.59375,853.890625 C419.03125,849.984375 416.882812,846.46875 414.148438,843.34375 C411.414062,840.21875 409.265625,836.703125 407.703125,832.796875 C422.546875,807.015625 440.515625,780.648438 461.609375,753.695312 C482.703125,726.742188 505.359375,700.570312 529.578125,675.179688 C553.796875,649.789062 578.992188,625.765625 605.164062,603.109375 C631.335938,580.453125 657.3125,559.75 683.09375,541 C708.875,522.25 734.851562,505.648438 761.023438,491.195312 C787.195312,476.742188 812.976562,463.265625 838.367188,450.765625 C863.757812,438.265625 887.976562,426.351562 911.023438,415.023438 C934.070312,403.695312 954.96875,391.78125 973.71875,379.28125 C972.15625,373.03125 972.351562,368.539062 974.304688,365.804688 C976.257812,363.070312 977.234375,359.359375 977.234375,354.671875 C977.234375,349.203125 974.5,346.46875 969.03125,346.46875 L968.730244,346.465937 C963.462165,346.366539 960.828125,343.633102 960.828125,338.265625 C967.859375,338.265625 971.375,336.3125 971.375,332.40625 C971.375,328.5 970.59375,324.203125 969.03125,319.515625 C967.46875,314.828125 966.492188,310.53125 966.101562,306.625 C965.710938,302.71875 968.25,300.765625 973.71875,300.765625 C968.25,286.703125 960.242188,275.570312 949.695312,267.367188 C939.148438,259.164062 927.820312,252.132812 915.710938,246.273438 C903.601562,240.414062 891.882812,234.554688 880.554688,228.695312 C869.226562,222.835938 860.046875,212.484375 853.015625,197.640625 C847.546875,196.078125 842.273438,196.273438 837.195312,198.226562 C832.117188,200.179688 825.28125,198.421875 816.6875,192.953125 C792.46875,214.046875 765.320312,233.578125 735.242188,251.546875 C705.164062,269.515625 675.28125,287.09375 645.59375,304.28125 C615.90625,321.46875 587.390625,339.4375 560.046875,358.1875 C532.703125,376.9375 509.265625,397.640625 489.734375,420.296875 C481.140625,421.859375 474.109375,424.789062 468.640625,429.085938 C463.171875,433.382812 458.289062,438.265625 453.992188,443.734375 C449.695312,449.203125 445.398438,454.867188 441.101562,460.726562 C436.804688,466.585938 431.140625,472.25 424.109375,477.71875 C381.140625,511.3125 344.226562,550.179688 313.367188,594.320312 C282.507812,638.460938 254.96875,686.3125 230.75,737.875 C232.3125,748.8125 231.921875,757.796875 229.578125,764.828125 C227.234375,771.859375 226.0625,779.671875 226.0625,788.265625 C227.625,789.828125 229.578125,791.195312 231.921875,792.367188 C234.265625,793.539062 235.046875,796.078125 234.265625,799.984375 C238.171875,882.015625 260.046875,946.46875 299.890625,993.34375 C339.734375,1040.21875 394.8125,1065.21875 465.125,1068.34375 Z" id="G" fill="#FFFFFF" fill-rule="nonzero"></path>
    </g>
</svg>