<?xml version="1.0" encoding="UTF-8"?>
<svg width="236px" height="180px" viewBox="0 0 236 180" version="1.1" xmlns="http://www.w3.org/2000/svg" xmlns:xlink="http://www.w3.org/1999/xlink">
    <title>guinsoolab</title>
    <g id="guinsoolab" stroke="none" stroke-width="1" fill="none" fill-rule="evenodd">
        <path d="M10.5744043,151.469581 L49.9796525,52.7301494 C52.998864,49.6793997 55.1066773,47.6913052 56.3030922,46.7658659 C57.801403,45.6069071 59.3753941,44.833521 60.3456473,44.3403183 C64.5391795,42.2086467 68.8392024,41.7446252 71.436013,42.2772629 C71.8770924,42.3677338 72.373433,42.4359258 72.9115276,42.5033285 C75.7790748,42.8625226 79.8323957,43.1992986 83.0272933,46.7658659 C84.645558,48.5723869 86.6135138,53.2236259 88.9311607,60.7195827 L54.1217846,151.469581 L10.5744043,151.469581 Z" id="Path-5" fill="#41FC92"></path>
        <path d="M80.3682121,151.469581 L122.857665,45.2377496 C136.601361,42.7886913 145.500069,42.7886913 149.55379,45.2377496 C153.607512,47.6868079 156.707893,54.9360654 158.854935,66.9855221 L125.892131,151.469581 L80.3682121,151.469581 Z" id="Path-6" fill="#2B8DFF"></path>
        <polygon id="Path-7" fill="#2B8DFF" points="124.795839 43.4009559 128.133048 39.1241076 132.76599 33.8683527 137.314452 31.3835068 141.57219 28.6300762 145.452395 26.5559727 149.980466 24.871055 154.666425 23.0655363 160.944666 21.4668453 165.342232 21.4668453 168.604284 21.4668453 174.026083 21.4668453 178.086898 23.0655363 180.864799 23.0655363 184.465932 24.1189012 187.782749 25.8003232 192.457639 27.762565 196.371635 29.7475286 199.81721 32.4339006 204.067957 35.5462791 208.043128 39.1241076 211.697279 43.4009559 215.402117 49.6892177 218.163704 55.2327836 220.028067 61.8786539 221.991474 70.4791919 221.991474 73.4586765 221.991474 151.469581 149.036632 151.469581 154.666425 137.250758 165.342232 108.890306 174.884855 86.4682131 178.086898 77.4210298 180.019427 73.4586765 180.019427 69.5813848 180.019427 66.2127145 180.019427 61.8786539 180.019427 59.0046223 178.086898 53.5758313 176.347215 50.9779584 173.393657 46.4423136 169.666388 43.4009559 165.342232 39.1241076 160.088807 38.0462729 153.712687 35.5462791 149.036632 35.5462791 144.005766 35.5462791 139.242902 35.5462791 135.801988 37.2737276 132.76599 38.0462729 130.61906 39.1241076 128.133048 40.670946"></polygon>
    </g>
</svg>