<?xml version="1.0" encoding="UTF-8"?>
<svg width="1017px" height="1017px" viewBox="0 0 1017 1017" version="1.1" xmlns="http://www.w3.org/2000/svg" xmlns:xlink="http://www.w3.org/1999/xlink">
    <title>logo</title>
    <g id="logo" stroke="none" stroke-width="1" fill="none" fill-rule="evenodd">
        <path d="M250.125,946.34375 C260.28125,947.125 271.21875,945.953125 282.9375,942.828125 C294.65625,939.703125 305.984375,938.140625 316.921875,938.140625 L316.921875,938.140625 L348.5625,938.140625 C361.0625,938.140625 375.125,936.96875 390.75,934.625 C393.09375,933.0625 394.851562,931.109375 396.023438,928.765625 C397.195312,926.421875 399.734375,925.640625 403.640625,926.421875 C413.796875,925.640625 423.171875,924.46875 431.765625,922.90625 L431.765625,922.90625 L457.546875,918.21875 C466.140625,916.65625 475.125,915.484375 484.5,914.703125 C493.875,913.921875 505.203125,913.53125 518.484375,913.53125 C548.953125,901.8125 580.007812,891.460938 611.648438,882.476562 C643.289062,873.492188 674.734375,864.898438 705.984375,856.695312 C737.234375,848.492188 767.703125,839.898438 797.390625,830.914062 C827.078125,821.929688 855.007812,810.796875 881.179688,797.515625 C907.351562,784.234375 930.984375,768.414062 952.078125,750.054688 C973.171875,731.695312 991.140625,709.234375 1005.98438,682.671875 C1007.54688,671.734375 1006.76562,662.359375 1003.64062,654.546875 C1000.51562,646.734375 999.734375,636.578125 1001.29688,624.078125 C988.015625,617.828125 976.6875,610.015625 967.3125,600.640625 C957.9375,591.265625 948.5625,581.695312 939.1875,571.929688 C929.8125,562.164062 920.046875,552.789062 909.890625,543.804688 C899.734375,534.820312 887.625,527.203125 873.5625,520.953125 C858.71875,512.359375 842.703125,503.570312 825.515625,494.585938 C808.328125,485.601562 791.53125,476.8125 775.125,468.21875 C758.71875,459.625 743.09375,451.03125 728.25,442.4375 C713.40625,433.84375 700.90625,425.640625 690.75,417.828125 L690.75,417.828125 L593.484375,482.28125 C591.921875,490.09375 589.578125,496.734375 586.453125,502.203125 C583.328125,507.671875 581.375,514.703125 580.59375,523.296875 C583.71875,524.859375 585.867188,524.859375 587.039062,523.296875 C588.210938,521.734375 588.992188,520.171875 589.382812,518.609375 C589.773438,517.046875 590.359375,515.484375 591.140625,513.921875 C591.921875,512.359375 594.265625,512.359375 598.171875,513.921875 C603.640625,517.828125 606.375,522.90625 606.375,529.15625 C606.375,535.40625 603.640625,540.875 598.171875,545.5625 C599.734375,564.3125 604.617188,579.546875 612.820312,591.265625 C621.023438,602.984375 631.375,612.359375 643.875,619.390625 C640.75,623.296875 636.648438,627.007812 631.570312,630.523438 C626.492188,634.039062 626.296875,638.140625 630.984375,642.828125 C641.921875,645.953125 654.421875,650.25 668.484375,655.71875 C620.828125,668.21875 573.953125,680.523438 527.859375,692.632812 C481.765625,704.742188 432.15625,713.53125 379.03125,719 C375.125,720.5625 372.78125,723.296875 372,727.203125 C371.21875,731.109375 369.265625,734.234375 366.140625,736.578125 C340.359375,731.109375 314.578125,729.351562 288.796875,731.304688 C263.015625,733.257812 235.28125,733.453125 205.59375,731.890625 C204.03125,727.984375 201.882812,724.46875 199.148438,721.34375 C196.414062,718.21875 194.265625,714.703125 192.703125,710.796875 C207.546875,685.015625 225.515625,658.648438 246.609375,631.695312 C267.703125,604.742188 290.359375,578.570312 314.578125,553.179688 C338.796875,527.789062 363.992188,503.765625 390.164062,481.109375 C416.335938,458.453125 442.3125,437.75 468.09375,419 C493.875,400.25 519.851562,383.648438 546.023438,369.195312 C572.195312,354.742188 597.976562,341.265625 623.367188,328.765625 C648.757812,316.265625 672.976562,304.351562 696.023438,293.023438 C719.070312,281.695312 739.96875,269.78125 758.71875,257.28125 C757.15625,251.03125 757.351562,246.539062 759.304688,243.804688 C761.257812,241.070312 762.234375,237.359375 762.234375,232.671875 C762.234375,227.203125 759.5,224.46875 754.03125,224.46875 L753.730244,224.465937 C748.462165,224.366539 745.828125,221.633102 745.828125,216.265625 C752.859375,216.265625 756.375,214.3125 756.375,210.40625 C756.375,206.5 755.59375,202.203125 754.03125,197.515625 C752.46875,192.828125 751.492188,188.53125 751.101562,184.625 C750.710938,180.71875 753.25,178.765625 758.71875,178.765625 C753.25,164.703125 745.242188,153.570312 734.695312,145.367188 C724.148438,137.164062 712.820312,130.132812 700.710938,124.273438 C688.601562,118.414062 676.882812,112.554688 665.554688,106.695312 C654.226562,100.835938 645.046875,90.484375 638.015625,75.640625 C632.546875,74.078125 627.273438,74.2734375 622.195312,76.2265625 C617.117188,78.1796875 610.28125,76.421875 601.6875,70.953125 C577.46875,92.046875 550.320312,111.578125 520.242188,129.546875 C490.164062,147.515625 460.28125,165.09375 430.59375,182.28125 C400.90625,199.46875 372.390625,217.4375 345.046875,236.1875 C317.703125,254.9375 294.265625,275.640625 274.734375,298.296875 C266.140625,299.859375 259.109375,302.789062 253.640625,307.085938 C248.171875,311.382812 243.289062,316.265625 238.992188,321.734375 C234.695312,327.203125 230.398438,332.867188 226.101562,338.726562 C221.804688,344.585938 216.140625,350.25 209.109375,355.71875 C166.140625,389.3125 129.226562,428.179688 98.3671875,472.320312 C67.5078125,516.460938 39.96875,564.3125 15.75,615.875 C17.3125,626.8125 16.921875,635.796875 14.578125,642.828125 C12.234375,649.859375 11.0625,657.671875 11.0625,666.265625 C12.625,667.828125 14.578125,669.195312 16.921875,670.367188 C19.265625,671.539062 20.046875,674.078125 19.265625,677.984375 C23.171875,760.015625 45.046875,824.46875 84.890625,871.34375 C124.734375,918.21875 179.8125,943.21875 250.125,946.34375 Z" id="G" fill="#000000" fill-rule="nonzero"></path>
    </g>
</svg>