<?xml version="1.0" encoding="UTF-8"?>
<svg width="149px" height="171px" viewBox="0 0 149 171" version="1.1" xmlns="http://www.w3.org/2000/svg" xmlns:xlink="http://www.w3.org/1999/xlink">
    <title>mortalmesh</title>
    <g id="Page-1" stroke="none" stroke-width="1" fill="none" fill-rule="evenodd">
        <g id="mortalmesh" fill="#33CA8E" fill-rule="nonzero">
            <path d="M132.8,137.6 L128.5,131.2 L141.4,123.7 L141.4,46.6 L102.8,24.1 L106.5,17.7 L148.9,42.3 L148.9,128 L132.8,137.6 L132.8,137.6 Z M7.5,93.1 L0,93.1 L0,42.8 L76,0 L93.1,9.6 L89.3,16.6 L75.9,8.6 L7.5,47.1 L7.5,93.1 Z M74.4,170.8 L0,128.5 L0,107.6 L7.5,107.6 L7.5,124.2 L74.4,162.2 L117.8,137.6 L121.6,144 L74.4,170.8 Z M69.6,49.8 L53,40.1 L53,34.2 L75,21.3 L96.4,34.2 L96.4,40.1 L80.3,49.7 L79.8,55.6 L75,52.4 L69.6,55.6 L69.6,49.8 Z M103.4,88.3 L103.4,69.1 L86.8,59.5 L86.8,53.6 L108.2,41.3 L130.2,53.6 L130.2,78.8 L108.2,91.1 L103.4,88.3 L103.4,88.3 Z M53,136.5 L53,111.9 L57.8,108.7 L74.4,118.3 L91.5,108.7 L96.3,111.4 L96.3,136.6 L74.3,149.5 L53,136.5 L53,136.5 Z M103.4,126.9 L103.4,107.6 L98,104.4 L103.4,101.7 L103.4,95.8 L108.2,99 L124.8,89.4 L130.2,92.1 L130.2,117.3 L108.2,129.6 L103.4,126.9 L103.4,126.9 Z M53,98 L53,72.8 L75,60.5 L96.4,72.8 L96.4,98 L74.4,110.3 L53,98 Z M18.7,117.2 L19.2,92 L24,89.3 L40.6,98.9 L46,95.7 L46,101.6 L51.4,104.8 L46,107.5 L46,126.8 L40.6,129.5 L18.7,117.2 Z M18.7,78.7 L19.2,53.5 L41.2,41.2 L62.6,53.5 L62.6,59.4 L46,69 L46,87.7 L40.6,90.9 L18.7,78.7 L18.7,78.7 Z" id="Shape"></path>
        </g>
    </g>
</svg>