<?xml version="1.0" encoding="UTF-8"?>
<svg width="166px" height="133px" viewBox="0 0 166 133" version="1.1" xmlns="http://www.w3.org/2000/svg" xmlns:xlink="http://www.w3.org/1999/xlink">
    <title>sheenflow</title>
    <g id="Page-1" stroke="none" stroke-width="1" fill="none" fill-rule="evenodd">
        <g id="sheenflow" transform="translate(0.000000, -0.000000)" fill="#30A8EF" fill-rule="nonzero">
            <path d="M158.6,65.3738589 C149.8,56.5738589 135.8,56.5738589 127,65.3738589 C119.8,72.5738589 118.6,83.3738589 123,91.7738589 L101.8,112.973859 C91.8,122.973859 75,121.773859 63.8,110.973859 C52.6,100.173859 51.8,82.9738589 61.8,72.9738589 L86.2,48.5738589 L77.4,39.7738589 L53,64.1738589 C38.2,78.9738589 39,104.173859 55,120.173859 C63.4,128.573859 74.2,132.973859 85,132.973859 C94.6,132.973859 103.8,129.373859 111,122.573859 L132.2,101.373859 C135.4,102.973859 139,104.173859 143,104.173859 C148.6,104.173859 154.6,102.173859 158.6,97.7738589 C167.4,88.1738589 167.4,73.7738589 158.6,65.3738589 Z M149.8,87.7738589 C146.2,91.3738589 139.8,91.3738589 136.2,87.7738589 C132.6,84.1738589 132.6,77.7738589 136.2,74.1738589 C138.2,72.1738589 140.6,71.3738589 143,71.3738589 C145.4,71.3738589 147.8,72.1738589 149.8,74.1738589 C153.4,77.7738589 153.4,84.1738589 149.8,87.7738589 L149.8,87.7738589 Z" id="Shape"></path>
            <path d="M42.2,40.5738589 L63.4,19.3738589 C73.4,9.37385894 90.2,10.5738589 101.4,21.3738589 C106.6,26.5738589 109.8,33.7738589 110.2,40.9738589 C110.6,48.1738589 108.2,54.5738589 103.4,59.3738589 L79,83.7738589 L87.8,92.5738589 L112.2,68.1738589 C119.4,60.9738589 123,50.9738589 122.6,40.5738589 C122.2,30.1738589 117.8,20.1738589 110.2,12.5738589 C94.2,-3.42614106 69.4,-4.22614106 54.2,10.5738589 L33,31.7738589 C24.6,27.3738589 13.8,28.5738589 6.6,35.7738589 C-2.2,44.5738589 -2.2,58.5738589 6.6,67.3738589 C11,71.7738589 16.6,73.7738589 22.2,73.7738589 C27.8,73.7738589 33.8,71.7738589 37.8,67.3738589 C45.4,59.7738589 46.6,48.9738589 42.2,40.5738589 Z M29.4,58.1738589 C25.8,61.7738589 19.4,61.7738589 15.8,58.1738589 C12.2,54.5738589 12.2,48.1738589 15.8,44.5738589 C17.8,42.5738589 20.2,41.7738589 22.6,41.7738589 C25,41.7738589 27.4,42.5738589 29.4,44.5738589 C33,48.1738589 33,54.1738589 29.4,58.1738589 Z" id="Shape"></path>
        </g>
    </g>
</svg>