<?xml version="1.0" encoding="UTF-8"?>
<svg width="700px" height="700px" viewBox="0 0 700 700" version="1.1" xmlns="http://www.w3.org/2000/svg" xmlns:xlink="http://www.w3.org/1999/xlink">
    <title>spotrix</title>
    <g id="spotrix" stroke="none" stroke-width="1" fill="none" fill-rule="evenodd">
        <rect fill="#007CAC" x="0" y="0" width="700" height="700"></rect>
        <path d="M569.42447,147.938409 L318.757357,147.938409 C291.041847,154.35281 271.378154,159.95587 259.766278,164.747588 C232.728983,175.904709 210.810787,191.473049 196.984082,205.424317 C183.317086,219.214437 160.009391,244.814129 146.639309,274.058074 C140.725915,286.992249 135.184217,308.433527 130.014216,338.381907 L130.014216,578.938409 L360.611485,578.938409 C376.49589,578.132588 387.638512,577.192176 394.039349,576.117171 C401.912763,574.794851 411.343581,571.194403 415.645107,570.023386 C428.874802,566.421827 437.614882,559.590842 444.815168,556.346224 C473.491859,543.423835 491.892222,522.647181 505.302898,509.82175 C520.027091,495.740124 534.86671,476.25464 545.283467,448.809516 C549.624719,437.37158 554.538557,417.177529 560.024981,388.227361 L560.024981,312.605482 L383.705359,312.605482 L284.806545,411.050164 L449.258872,411.050164 C445.328953,420.550006 442.11908,427.216871 439.629252,431.050758 C431.80999,443.091016 422.55899,451.343259 415.645107,456.793423 C405.428921,464.846769 387.08438,472.89238 360.611485,480.930258 L228.113898,480.930258 L228.113898,338.381907 C235.998143,319.641754 242.202863,306.797895 246.728058,299.850328 C251.691485,292.229941 259.467992,284.428851 263.969941,280.039329 C270.00533,274.15466 276.684065,266.302242 287.595517,260.661283 C293.167805,257.780544 303.555085,254.227473 318.757357,250.002071 L475.278206,250.002071 L569.42447,147.938409 Z" id="Path-7" fill="#FFFFFF" transform="translate(349.719343, 363.438409) scale(-1, -1) translate(-349.719343, -363.438409) "></path>
    </g>
</svg>