<?xml version="1.0" encoding="UTF-8"?>
<svg width="2052px" height="700px" viewBox="0 0 2052 700" version="1.1" xmlns="http://www.w3.org/2000/svg" xmlns:xlink="http://www.w3.org/1999/xlink">
    <title>spotrix-black</title>
    <defs>
        <path d="M117.431641,607.033203 C155.680339,607.033203 186.401367,597.511719 209.594727,578.46875 C232.788086,559.425781 244.384766,534.197917 244.384766,502.785156 C244.384766,480.64974 238.19987,461.688151 225.830078,445.900391 C213.460286,430.11263 191.650391,413.348307 160.400391,395.607422 L160.400391,395.607422 L134.521484,380.958984 C112.060547,368.100911 96.5983073,357.033203 88.1347656,347.755859 C79.671224,338.478516 75.4394531,327.817708 75.4394531,315.773438 C75.4394531,301.450521 81.2174479,289.56901 92.7734375,280.128906 C104.329427,270.688802 118.977865,265.96875 136.71875,265.96875 C155.436198,265.96875 183.837891,273.455729 221.923828,288.429688 L221.923828,288.429688 L221.923828,241.554688 C190.999349,232.277344 161.621094,227.638672 133.789062,227.638672 C102.539062,227.638672 76.8229167,236.631185 56.640625,254.616211 C36.4583333,272.601237 26.3671875,295.509766 26.3671875,323.341797 C26.3671875,344.01237 32.6741536,362.119466 45.2880859,377.663086 C57.9020182,393.206706 79.5898438,409.767578 110.351562,427.345703 L110.351562,427.345703 L135.253906,441.75 C156.901042,453.957031 171.75293,465.02474 179.80957,474.953125 C187.866211,484.88151 191.894531,496.925781 191.894531,511.085938 C191.894531,528.338542 185.750326,542.254557 173.461914,552.833984 C161.173503,563.413411 144.938151,568.703125 124.755859,568.703125 C98.5514323,568.703125 65.1041667,559.263021 24.4140625,540.382812 L24.4140625,540.382812 L24.4140625,591.164062 C62.1744792,601.74349 93.1803385,607.033203 117.431641,607.033203 Z" id="path-1"></path>
        <path d="M478.941406,675.148438 L478.941406,573.976562 C495.608073,593.247396 516.50651,602.882812 541.636719,602.882812 C568.720052,602.882812 590.5625,592.108073 607.164062,570.558594 C623.765625,549.009115 632.066406,520.65625 632.066406,485.5 C632.066406,453.208333 624.742187,427.752604 610.09375,409.132812 C595.445312,390.513021 575.360677,381.203125 549.839844,381.203125 C518.329427,381.203125 494.696614,396.046875 478.941406,425.734375 L478.941406,425.734375 L478.941406,385.890625 L440.464844,385.890625 L440.464844,675.148438 L478.941406,675.148438 Z M535.582031,573.976562 C517.613281,573.976562 498.733073,565.122396 478.941406,547.414062 L478.941406,547.414062 L478.941406,449.757812 C499.384114,426.450521 520.347656,414.796875 541.832031,414.796875 C574.644531,414.796875 591.050781,439.666667 591.050781,489.40625 C591.050781,545.786458 572.561198,573.976562 535.582031,573.976562 Z M775.230469,602.882812 C807.13151,602.882812 832.196614,592.986979 850.425781,573.195312 C868.654948,553.403646 877.769531,526.190104 877.769531,491.554688 C877.769531,457.700521 868.6875,430.845052 850.523437,410.988281 C832.359375,391.13151 807.717448,381.203125 776.597656,381.203125 C745.477864,381.203125 720.835937,391.13151 702.671875,410.988281 C684.507812,430.845052 675.425781,457.830729 675.425781,491.945312 C675.425781,525.669271 684.47526,552.589844 702.574219,572.707031 C720.673177,592.824219 744.891927,602.882812 775.230469,602.882812 Z M775.816406,573.976562 C736.233073,573.976562 716.441406,546.632812 716.441406,491.945312 C716.441406,437.388021 736.493489,410.109375 776.597656,410.109375 C816.832031,410.109375 836.949219,437.257812 836.949219,491.554688 C836.949219,546.502604 816.571614,573.976562 775.816406,573.976562 Z M1001.59766,602.882812 C1010.32161,602.882812 1020.60807,601.255208 1032.45703,598 L1032.45703,598 L1032.45703,571.4375 C1025.16536,573.130208 1018.98047,573.976562 1013.90234,573.976562 C989.94401,573.976562 977.964844,560.109375 977.964844,532.375 L977.964844,532.375 L977.964844,414.796875 L1033.43359,414.796875 L1033.43359,385.890625 L977.964844,385.890625 L977.964844,343.703125 L939.488281,347.414062 L939.488281,385.890625 L912.925781,385.890625 L912.925781,414.796875 L939.488281,414.796875 L939.488281,539.40625 C939.488281,559.328125 944.957031,574.888021 955.894531,586.085938 C966.832031,597.283854 982.066406,602.882812 1001.59766,602.882812 Z M1126.01172,598 L1126.01172,458.15625 C1142.41797,429.25 1162.79557,414.796875 1187.14453,414.796875 C1192.22266,414.796875 1198.08203,415.903646 1204.72266,418.117188 L1204.72266,418.117188 L1204.72266,382.179688 C1200.42578,381.528646 1196.32422,381.203125 1192.41797,381.203125 C1163.38151,381.203125 1141.24609,396.046875 1126.01172,425.734375 L1126.01172,425.734375 L1126.01172,385.890625 L1087.53516,385.890625 L1087.53516,598 L1126.01172,598 Z M1289.68359,347.414062 L1289.68359,308.9375 L1251.20703,308.9375 L1251.20703,347.414062 L1289.68359,347.414062 Z M1289.68359,598 L1289.68359,385.890625 L1251.20703,385.890625 L1251.20703,598 L1289.68359,598 Z" id="path-2"></path>
        <polygon id="path-3" points="1450.55273 602 1530.92226 505.856 1599.08789 602 1701.04102 602 1586.00227 439.966 1701.33398 302 1636.58789 302 1556.26726 398.083 1488.05273 302 1386.39258 302 1501.21026 463.947 1385.80664 602"></polygon>
    </defs>
    <g id="spotrix-black" stroke="none" stroke-width="1" fill="none" fill-rule="evenodd">
        <g id="spotrix" transform="translate(123.000000, -78.000000)" fill-rule="nonzero">
            <g id="S-potrix" transform="translate(101.049805, 0.000000)">
                <g id="S">
                    <use fill="#000000" xlink:href="#path-1"></use>
                    <use fill="#3F3F3F" xlink:href="#path-1"></use>
                </g>
                <g id="potri">
                    <use fill="#000000" xlink:href="#path-2"></use>
                    <use fill="#3F3F3F" xlink:href="#path-2"></use>
                </g>
                <g id="x">
                    <use fill="#000000" xlink:href="#path-3"></use>
                    <use fill="#3F3F3F" xlink:href="#path-3"></use>
                </g>
            </g>
            <g id="Group" transform="translate(0.000000, 97.000000)" fill="#000000">
                <path d="M382.771628,675 C376.600227,675 372.143105,673.869395 371.457394,673.304092 L44.3731543,627.514592 L49.8588438,627.514592 C34.430342,627.514592 21.744685,619.035055 12.4875838,602.641284 C-2.25520682,575.506766 0.144782358,537.6315 0.144782358,535.935592 L0.144782358,76.9099886 C0.144782358,53.1672848 4.94476071,34.5123034 13.8590062,20.9450442 C28.9446524,-1.66705454 50.544555,0.0288528671 52.9445443,0.0288528671 L385.171618,41.8612355 C399.228697,42.9918405 426.657145,63.9080318 426.657145,136.266748 L426.657145,241.413007 L404.371531,241.413007 L404.371531,135.136142 C404.371531,78.0405932 384.14305,75.7793833 383.457339,75.7793833 L51.9159774,33.947001 C51.9159774,33.947001 37.5160424,32.8163961 29.2875081,45.2530503 C24.8303853,52.0366799 22.7732517,62.2121244 22.7732517,75.2140811 L22.7732517,539.89271 C22.7732517,541.588617 21.4018293,566.461926 29.6303636,581.15979 C34.430342,589.639327 41.9731651,594.161747 51.9159774,594.161747 L375.914516,640.516549 C381.05735,642.212457 392.02873,643.908364 398.20013,634.863525 C402.657252,629.2105 404.714386,618.469753 404.714386,603.206586 L404.714386,498.060327 L427,498.060327 L427,600.380074 C427,626.94929 421.857166,646.734877 411.914353,659.171531 C402.314397,672.73879 391.000162,675 382.771628,675 Z" id="Path"></path>
            </g>
        </g>
    </g>
</svg>