<?xml version="1.0" encoding="UTF-8"?>
<svg width="164px" height="165px" viewBox="0 0 164 165" version="1.1" xmlns="http://www.w3.org/2000/svg" xmlns:xlink="http://www.w3.org/1999/xlink">
    <title>stealward</title>
    <g id="Page-1" stroke="none" stroke-width="1" fill="none" fill-rule="evenodd">
        <g id="stealward" fill="#F24C53" fill-rule="nonzero">
            <path d="M82.2200381,1.49686514e-05 C88.5506932,-0.00725875873 94.5951628,2.63665647 98.887051,7.29035852 C103.178939,11.9440606 105.326067,18.182309 104.807538,24.4916968 C104.631596,26.4120283 104.207219,28.301413 103.545038,30.11253 L103.582538,30.0291968 L145.707538,54.36253 L145.707538,103.320863 C145.115872,103.204197 144.515872,103.166697 143.915872,103.095863 C147.579163,103.510449 151.083859,104.821311 154.120038,106.91253 C164.0911,114.13816 166.459413,128.007814 159.451051,138.132767 C152.442689,148.257719 138.627482,150.925348 128.353372,144.13753 C126.639853,142.936458 125.103949,141.500142 123.790872,139.870863 L124.124205,140.320863 L82.0408715,164.654197 L39.5533715,140.116697 C37.5446453,142.43063 35.0828515,144.308173 32.3200381,145.633363 C21.0175614,150.976111 7.52374007,146.149296 2.17420494,134.85003 C-0.393562785,129.422033 -0.699554111,123.19623 1.32356374,117.542597 C3.3466816,111.888963 7.53313561,107.270754 12.9617049,104.704197 C14.7242049,103.870863 16.5408715,103.354197 18.3658715,103.008363 L18.3617049,103.008363 L18.3617049,54.35003 L60.8450381,29.8208634 L60.5117049,28.75003 C59.75254,26.1699498 59.4701446,23.4730746 59.6783715,20.7916968 C60.6408531,9.05146458 70.4445906,0.0105016949 82.2242049,1.49686514e-05 L82.2200381,1.49686514e-05 Z M67.9867049,40.1291968 L67.9867049,40.1333634 L30.8617049,61.5666968 L30.8617049,104.21253 L32.0408715,104.720863 C34.4059866,105.793856 36.5682536,107.266847 38.4325381,109.07503 L51.3908715,101.71253 L57.5575381,112.583363 L44.6575381,119.916697 C45.3658715,122.87503 45.3908715,125.87503 44.9158715,128.779197 L82.0408715,150.195863 L118.957538,128.86253 L118.990872,129.029197 C118.511568,125.988057 118.651877,122.881415 119.403372,119.895863 L106.545038,112.354197 L112.874205,101.57503 L125.674205,109.083363 C128.274001,106.64465 131.415738,104.858145 134.840872,103.870863 C134.295038,104.029197 133.740872,104.158363 133.207538,104.36253 L133.207538,61.5708634 L96.2908715,40.23753 L96.2908715,40.2333634 C93.9244631,42.1291201 91.2031475,43.5329846 88.2867049,44.36253 L88.1867049,59.2666968 L75.6867049,59.1791968 L75.7867049,44.33753 C72.9322412,43.46856 70.2802829,42.0377493 67.9867049,40.1291968 L67.9867049,40.1291968 Z M147.007538,117.18753 C144.672493,115.576432 141.769943,115.015627 139.002801,115.640925 C136.23566,116.266223 133.856277,118.0206 132.440872,120.479197 C129.841384,125.052043 131.15238,130.852206 135.465872,133.86253 C137.800107,135.472548 140.701231,136.033168 143.467257,135.408734 C146.233283,134.784301 148.612197,133.031707 150.028372,130.57503 C152.629201,126.001943 151.320158,120.200626 147.007538,117.18753 L147.007538,117.18753 Z M31.4075381,120.079197 C28.7495624,115.540281 23.071198,113.77392 18.3075381,116.004197 C15.745835,117.220101 13.8092547,119.451781 12.9663894,122.159238 C12.1235242,124.866696 12.4511668,127.803256 13.8700381,130.258363 C16.5295759,134.797875 22.2093229,136.564105 26.9742049,134.333363 C29.5379228,133.119582 31.4761553,130.887609 32.3185696,128.179057 C33.1609838,125.470505 32.8305814,122.532941 31.4075381,120.079197 L31.4075381,120.079197 Z M82.0367049,64.65003 L104.953372,77.8791968 L104.953372,104.341697 L82.0367049,117.570863 L59.1200381,104.341697 L59.1200381,77.8833634 L82.0367049,64.65003 L82.0367049,64.65003 Z M82.0367049,79.0833634 L71.6200381,85.0958634 L71.6200381,97.12503 L82.0367049,103.13753 L92.4533715,97.12503 L92.4533715,85.0958634 L82.0367049,79.0833634 L82.0367049,79.0833634 Z M82.2242049,12.500022 C76.9625191,12.5343971 72.5926929,16.5701664 72.1408715,21.81253 C71.9140365,24.6382941 72.8787925,27.4302278 74.8018147,29.5131062 C76.7248369,31.5959846 79.4310178,32.7801439 82.2658715,32.7791974 C87.5276378,32.7489417 91.8991375,28.7134333 92.3492049,23.4708634 C92.5798514,20.6437983 91.6165305,17.8492655 89.6928146,15.7648442 C87.7690988,13.6804228 85.0606609,12.4964613 82.2242049,12.500022 Z" id="Shape"></path>
        </g>
    </g>
</svg>