<?xml version="1.0" encoding="UTF-8"?>
<svg width="163px" height="188px" viewBox="0 0 163 188" version="1.1" xmlns="http://www.w3.org/2000/svg" xmlns:xlink="http://www.w3.org/1999/xlink">
    <title>witdb</title>
    <g id="Page-1" stroke="none" stroke-width="1" fill="none" fill-rule="evenodd">
        <g id="witdb" transform="translate(0.000000, -0.000000)" fill="#E03875" fill-rule="nonzero">
            <path d="M5.2,49.9 L81.3,6 L90.4,11.3 L95.6,8.3 L81.2,0 L0,46.9 L0,111.7 L5.2,111.7 L5.2,49.9 Z M81.2,181.6 L5.2,137.7 L5.2,127.7 L0,127.7 L0,140.7 L81.2,187.6 L136.5,155.8 L131.3,152.7 L81.2,181.6 Z M108.4,15.8 L103.2,18.8 L157.2,49.9 L157.2,137.7 L144.3,145.1 L149.5,148.2 L162.4,140.8 L162.4,47 L108.4,15.8 Z" id="Shape"></path>
            <path d="M81.2,94.5 C81.2,94.4 56.8,80.4 56.8,80.4 L81.1,94.3 L140.6,60.2 L116.2,46.2 L115.5,45.7 L56.1,80 L56.1,96.8 L56.8,97.2 L81.2,111.2 L81.2,111.1 L140.7,77 L140.7,60.2 L81.2,94.3 L81.2,94.5 Z" id="Path"></path>
            <polygon id="Path" points="56.8 106.4 46 100.2 21.6 86.2 21.6 102.9 46 116.9 56.8 123.1 81.2 137.1 140.7 103 140.7 86.3 81.2 120.4"></polygon>
            <path d="M56.8,132.5 L21.7,112.3 L21.7,129 L56.8,149.2 L81.2,163.2 L140.7,128.9 L140.7,112.1 L81.2,146.4 C81.2,146.5 56.8,132.5 56.8,132.5 Z M21.8,60.2 L21.7,60.2 L21.7,76.9 L46.1,90.9 L46.8,91.3 L46.8,74.6 L106.2,40.3 L105.5,39.9 L81.2,25.9 L21.8,60.2 Z" id="Shape"></path>
        </g>
    </g>
</svg>